<?xml version="1.0" encoding="UTF-8"?>
<svg width="158px" height="44px" viewBox="0 0 158 44" version="1.1" xmlns="http://www.w3.org/2000/svg" xmlns:xlink="http://www.w3.org/1999/xlink">
    <!-- Generator: Sketch 41.2 (35397) - http://www.bohemiancoding.com/sketch -->
    <title>home</title>
    <desc>Created with Sketch.</desc>
    <defs></defs>
    <g id="Page-1" stroke="none" stroke-width="1" fill="none" fill-rule="evenodd">
        <g id="home" transform="translate(0.000000, -1.000000)">
            <polygon id="Fill-1" fill="#FAAF40" points="0 44.0332 157.384 44.0332 157.384 0.9992 0 0.9992"></polygon>
            <text id="Homecare" font-family="UnileverDINOffcPro-Bold, Unilever DIN Offc Pro" font-size="12.91" font-weight="bold" fill="#FFFFFF">
                <tspan x="45" y="26">Home</tspan>
                <tspan x="79.23732" y="26" letter-spacing="-0.064384">c</tspan>
                <tspan x="85.305186" y="26">a</tspan>
                <tspan x="92.199126" y="26" letter-spacing="-0.386304">r</tspan>
                <tspan x="97.299572" y="26">e</tspan>
            </text>
            <g id="Group-20" transform="translate(0.000000, 4.033200)">
                <path d="M35.769,18.4834 C35.769,8.5804 27.762,0.5524 17.884,0.5524 C8.007,0.5524 0,8.5804 0,18.4834 C0,28.3864 8.007,36.4144 17.884,36.4144 C27.762,36.4144 35.769,28.3864 35.769,18.4834" id="Fill-2" fill="#FAAF40"></path>
                <polygon id="Fill-4" fill="#ED1C24" points="25.8467 11.6064 19.8957 11.6064 20.5817 7.2184 25.1607 7.2184"></polygon>
                <path d="M26.0845,29.7486 L19.6575,29.7486 C19.2735,29.7486 18.9645,29.3196 18.9715,28.7966 L19.2215,11.9686 C19.2285,11.4606 19.5335,11.0546 19.9075,11.0546 L25.8345,11.0546 C26.2085,11.0546 26.5135,11.4606 26.5205,11.9686 L26.7705,28.7966 C26.7785,29.3196 26.4685,29.7486 26.0845,29.7486" id="Fill-6" fill="#2E3192"></path>
                <path d="M25.7771,16.082 C25.7771,14.473 24.4761,13.168 22.8711,13.168 C21.2661,13.168 19.9651,14.473 19.9651,16.082 C19.9651,17.691 21.2661,18.996 22.8711,18.996 C24.4761,18.996 25.7771,17.691 25.7771,16.082" id="Fill-8" fill="#FF0000"></path>
                <path d="M14.8873,12.5374 C14.8873,12.5374 17.7703,20.8934 17.9273,23.2584 C18.0853,25.6234 18.0853,27.8574 17.8233,28.9344 C17.6653,29.4344 17.4293,29.5654 17.1413,29.5654 L9.1733,29.5654 C9.1733,29.5654 8.6493,29.3814 8.5183,28.7774 C8.3873,28.1724 7.8103,24.6774 9.0423,22.3654 C10.2743,20.0534 11.8473,17.3984 11.6893,12.7214 C11.5323,8.0434 14.8873,12.5374 14.8873,12.5374" id="Fill-10" fill="#00FFFF"></path>
                <path d="M16.5385,24.3363 C16.5385,22.5073 15.0595,21.0253 13.2355,21.0253 C11.4125,21.0253 9.9335,22.5073 9.9335,24.3363 C9.9335,26.1653 11.4125,27.6473 13.2355,27.6473 C15.0595,27.6473 16.5385,26.1653 16.5385,24.3363" id="Fill-12" fill="#FF0000"></path>
                <polygon id="Fill-14" fill="#C1272D" points="9.5704 7.875 8.3674 7.987 8.3674 9.538 9.5594 9.829"></polygon>
                <path d="M9.9379,9.8622 C9.9379,9.8622 9.8929,11.6482 9.8599,11.8832 C9.8269,12.1172 9.4369,14.1382 9.4369,14.1382 C9.4369,14.1382 9.7599,14.2052 9.8599,14.1492 C9.9599,14.0932 10.7289,11.5252 10.7619,11.4142 C10.7949,11.3022 11.6079,10.1192 11.6309,10.0742 C11.6529,10.0292 10.3279,9.5272 9.9379,9.8622" id="Fill-16" fill="#C1272D"></path>
                <path d="M9.5141,7.8074 C9.5141,7.8074 13.9701,7.4924 14.9661,7.7024 C15.9621,7.9124 17.1151,8.4904 17.1151,8.7534 L17.1151,9.2794 C17.1151,9.2794 15.1871,10.0414 14.9771,10.3574 C14.7671,10.6724 15.0851,12.8004 15.0851,12.8004 L11.6111,12.8004 L11.6111,10.2774 L9.5141,9.8574 L9.5141,7.8074 Z" id="Fill-18" fill="#FFFFFF"></path>
            </g>
        </g>
    </g>
</svg>