<?xml version="1.0" encoding="UTF-8"?>
<svg width="158px" height="44px" viewBox="0 0 158 44" version="1.1" xmlns="http://www.w3.org/2000/svg" xmlns:xlink="http://www.w3.org/1999/xlink">
    <!-- Generator: Sketch 41.2 (35397) - http://www.bohemiancoding.com/sketch -->
    <title>pack</title>
    <desc>Created with Sketch.</desc>
    <defs>
        <polygon id="path-1" points="0 44 157.384 44 157.384 0.967 0 0.967"></polygon>
    </defs>
    <g id="Page-1" stroke="none" stroke-width="1" fill="none" fill-rule="evenodd">
        <g id="pack" transform="translate(0.000000, -1.000000)">
            <polygon id="Fill-1" fill="#26A9E0" points="0 44.0332 157.384 44.0332 157.384 0.9992 0 0.9992"></polygon>
            <text id="Packaging" font-family="UnileverDINOffcPro-Bold, Unilever DIN Offc Pro" font-size="12.91" font-weight="bold" letter-spacing="-0.128768" fill="#FFFFFF">
                <tspan x="45.0088" y="26.9121216">P</tspan>
                <tspan x="52.858412" y="26.9121216">ac</tspan>
                <tspan x="65.949152" y="26.9121216">k</tspan>
                <tspan x="72.907974" y="26.9121216">aging</tspan>
            </text>
            <g id="Group-21" transform="translate(0.000000, 0.033200)">
                <path d="M35.769,22.4834 C35.769,12.5804 27.762,4.5524 17.884,4.5524 C8.007,4.5524 0,12.5804 0,22.4834 C0,32.3864 8.007,40.4144 17.884,40.4144 C27.762,40.4144 35.769,32.3864 35.769,22.4834 Z" id="Fill-2" fill="#26A9E0"></path>
                <mask id="mask-2" fill="white">
                    <use xlink:href="#path-1"></use>
                </mask>
                <g id="Clip-5"></g>
                <polygon id="Fill-4" fill="#C59A6F" mask="url(#mask-2)" points="6.532 32.83 22.461 32.83 22.461 16.86 6.532 16.86"></polygon>
                <polyline id="Fill-6" fill="#D6AD85" mask="url(#mask-2)" points="22.4221 16.8624 29.2191 12.5524 13.2901 12.5524 6.5221 16.8824"></polyline>
                <polyline id="Fill-7" fill="#B78D68" mask="url(#mask-2)" points="22.461 32.8296 29.211 28.5306 29.211 12.5596 22.461 16.8596"></polyline>
                <polygon id="Fill-8" fill="#000000" mask="url(#mask-2)" points="7.518 22.329 9.091 22.329 9.091 18.583 7.518 18.583"></polygon>
                <polygon id="Fill-9" fill="#000000" mask="url(#mask-2)" points="14.348 22.329 15.921 22.329 15.921 18.583 14.348 18.583"></polygon>
                <polygon id="Fill-10" fill="#000000" mask="url(#mask-2)" points="9.511 22.329 10.402 22.329 10.402 18.583 9.511 18.583"></polygon>
                <polygon id="Fill-11" fill="#000000" mask="url(#mask-2)" points="17.115 22.329 18.006 22.329 18.006 18.583 17.115 18.583"></polygon>
                <polygon id="Fill-12" fill="#000000" mask="url(#mask-2)" points="10.557 22.329 10.811 22.329 10.811 18.583 10.557 18.583"></polygon>
                <polygon id="Fill-13" fill="#000000" mask="url(#mask-2)" points="11.163 22.329 12.054 22.329 12.054 18.583 11.163 18.583"></polygon>
                <polygon id="Fill-14" fill="#000000" mask="url(#mask-2)" points="12.317 22.329 12.634 22.329 12.634 18.583 12.317 18.583"></polygon>
                <polygon id="Fill-15" fill="#000000" mask="url(#mask-2)" points="13.819 22.329 14.136 22.329 14.136 18.583 13.819 18.583"></polygon>
                <polygon id="Fill-16" fill="#000000" mask="url(#mask-2)" points="16.307 22.329 16.624 22.329 16.624 18.583 16.307 18.583"></polygon>
                <polygon id="Fill-17" fill="#000000" mask="url(#mask-2)" points="12.786 22.329 13.103 22.329 13.103 18.583 12.786 18.583"></polygon>
                <polygon id="Fill-18" fill="#7A5B40" mask="url(#mask-2)" points="22.5237 16.9642 26.1787 23.0102 29.2107 12.5602 26.2097 23.8042"></polygon>
                <polygon id="Fill-19" fill="#7A5B40" mask="url(#mask-2)" points="25.5086 22.2471 23.6506 28.8741 25.3256 21.9421"></polygon>
                <polygon id="Fill-20" fill="#7A5B40" mask="url(#mask-2)" points="26.7879 21.331 28.5849 26.98 26.6969 21.697"></polygon>
            </g>
        </g>
    </g>
</svg>