<!-- Generator: Adobe Illustrator 19.0.0, SVG Export Plug-In  -->
<svg version="1.1"
	 xmlns="http://www.w3.org/2000/svg" xmlns:xlink="http://www.w3.org/1999/xlink" xmlns:a="http://ns.adobe.com/AdobeSVGViewerExtensions/3.0/"
	 x="0px" y="0px" width="37.1px" height="24.9px" viewBox="0 0 37.1 24.9" style="enable-background:new 0 0 37.1 24.9;"
	 xml:space="preserve">
<style type="text/css">
	.st0{fill:#EB2227;}
	.st1{fill:#FFFFFF;}
</style>
<defs>
</defs>
<g id="XMLID_15_">
	<rect id="XMLID_18_" x="0" y="0" class="st0" width="37.1" height="24.9"/>
	<polygon id="XMLID_17_" class="st1" points="21.9,13.7 24.2,14.5 22.8,12.5 24.2,10.5 21.9,11.3 20.5,9.3 20.5,11.7 18.1,12.5 
		20.5,13.3 20.5,15.7 	"/>
	<path id="XMLID_16_" class="st1" d="M14,17.8c-2.9,0-5.3-2.4-5.3-5.3c0-2.9,2.4-5.3,5.3-5.3c1.4,0,2.6,0.5,3.6,1.4
		C16.4,7,14.5,6,12.3,6c-3.6,0-6.5,2.9-6.5,6.5c0,3.6,2.9,6.5,6.5,6.5c2.1,0,4.1-1,5.2-2.6C16.6,17.3,15.4,17.8,14,17.8z"/>
</g>
</svg>
