<!-- Generator: Adobe Illustrator 19.0.0, SVG Export Plug-In  -->
<svg version="1.1"
	 xmlns="http://www.w3.org/2000/svg" xmlns:xlink="http://www.w3.org/1999/xlink" xmlns:a="http://ns.adobe.com/AdobeSVGViewerExtensions/3.0/"
	 x="0px" y="0px" width="428.6px" height="383.9px" viewBox="0 0 428.6 383.9" style="enable-background:new 0 0 428.6 383.9;"
	 xml:space="preserve">
<style type="text/css">
	.st0{fill:#F2D599;}
</style>
<defs>
</defs>
<polygon class="st0" points="179.5,100.1 179,98.7 179,98.7 "/>
<polygon class="st0" points="104.9,111.1 105.4,109.8 105.2,110.4 "/>
<polygon class="st0" points="30.3,87.8 31,88.5 30.3,87.8 "/>
<polygon class="st0" points="191.7,160.8 194.4,156.3 191.9,160.6 "/>
<polygon class="st0" points="275.6,180.8 282.6,180.8 280.4,180.8 "/>
<polygon class="st0" points="172,203.6 173.3,202.4 173.2,202.6 "/>
<polygon class="st0" points="205.7,153.7 205.8,152.5 205.7,153.4 "/>
<polygon class="st0" points="173.9,162.7 181.2,162.8 173.9,162.7 "/>
<polygon class="st0" points="169.6,98.8 170.2,97.6 170.1,97.9 "/>
<polygon class="st0" points="178.9,98.7 179,98.7 179,98.7 "/>
<polygon class="st0" points="101.9,87.2 102.3,86.4 102.2,86.7 "/>
<polygon class="st0" points="167.6,98.1 168.8,99 168.3,98.6 "/>
<polygon class="st0" points="69.3,112.6 70.2,112 70,112.1 "/>
<polygon class="st0" points="55.8,114.1 57.9,112.9 56.3,113.9 "/>
<polygon class="st0" points="240.1,45.6 238.1,0 240.6,56.9 "/>
<polygon class="st0" points="275.8,307.1 275.6,307 274.7,306.2 "/>
<polygon class="st0" points="240.5,277.6 241.3,278.6 241.3,278.6 "/>
<polygon class="st0" points="277.3,328 277.3,326.1 277.3,328 "/>
<polygon class="st0" points="296.6,241.9 295.5,246 295.2,247.1 "/>
<polygon class="st0" points="268.9,182.5 267.3,183.9 268.6,182.8 "/>
<polygon class="st0" points="357.3,251.3 358.4,249.6 357.7,248.7 357.1,248.9 357.2,249.8 357,250.8 "/>
<polygon class="st0" points="354,247.2 354.5,246.6 353.9,245.5 353.4,245.9 352.5,246.2 353.3,246.5 "/>
<polygon class="st0" points="347.4,240.7 346.7,240.6 345.9,242.1 346.2,242.8 346.3,244.1 346.9,244.3 347.4,244.2 347.8,243.5 
	347.5,242.4 347.9,241.8 "/>
<polygon class="st0" points="348.1,247.2 349.1,247.3 348.6,246.6 347.9,246.5 347.7,246.8 "/>
<polygon class="st0" points="418.2,202.1 417.6,202.9 418.2,203.6 419.5,203.2 419.1,202.6 "/>
<polygon class="st0" points="366.2,231.8 366.4,231.2 366,231.3 "/>
<polygon class="st0" points="366.1,229.2 365.2,228.8 364.6,229.6 365.2,229.9 366.3,229.7 366.6,229.3 "/>
<polygon class="st0" points="411.5,101.1 410.7,100.7 409.6,101 408.8,101.2 408,101.1 407.7,100.5 407,100.4 406.3,100.9 
	406.2,101.8 405.5,102.2 406.3,102.6 407,103.2 408.2,103.4 409.9,103.2 411.2,102.3 412,102.3 412.5,101.8 412.4,101.3 "/>
<polygon class="st0" points="398.4,104 399.9,104.2 401.1,104.1 399.6,103.6 "/>
<polygon class="st0" points="240.6,56.9 235,57.4 235,59.5 235,59.6 235.4,82.3 234.5,82.6 233.5,83.3 232.5,82.7 231.1,82.7 
	230,83.5 230,84.9 230.6,85.7 230,87.1 228.1,89.5 227.5,89.5 226.5,90.5 226.5,91.3 227.2,92 226.6,93.2 225.4,93.9 225.2,94.7 
	226.3,95.3 226.4,96.5 225.7,97.4 223.9,99.3 223.9,100.6 224.7,101.4 226.1,100.4 226.8,100.5 226.8,101.4 226.1,101.8 
	226.9,102.4 226.4,103.1 227,104.1 227,105.6 227.2,106.7 229.4,107.2 230,108.1 229.5,108.9 229.5,109.7 229.3,110 230,110.7 
	230,111.5 229.6,111.9 230.9,112.9 231.1,113.5 232.6,115.5 233.6,117.8 234,118.6 233.7,119.9 233.4,120.4 233,121.5 233,123.2 
	233.8,123.9 235.3,124 235.7,123.4 237.5,123.5 238,123.9 237.6,124.7 237.8,125.7 238.8,126.5 240.1,127.1 241,127.1 241.9,127.7 
	242.2,128.4 243.4,129 244.3,129.1 244.8,129.7 244.5,130.5 243.8,131.1 243.7,131.6 243.2,132.1 244.4,133.1 245.3,133.4 
	245.8,133.2 246.7,133.6 247.1,133.6 249,134.7 249.5,135.4 249.6,137 250.1,137.6 251.3,138 251.6,138.4 251.6,139.6 252.1,140.1 
	254,140.6 254.9,141.3 254.7,141.8 254.9,143.6 255.6,144.1 256.6,144.7 257.1,145.4 257.1,145.6 257.2,145.7 257.4,146.6 
	258.1,147.4 258.7,147.5 259.4,148.3 260.5,149.2 261.7,149.7 262.3,149.5 262.8,148.7 263.5,148.4 264.8,148.4 265.6,148.4 
	265.7,148.7 266.2,148.7 267.4,148.4 267.9,147.8 268.5,147 269.8,147.1 270.3,147.4 271,148.9 271.6,149.6 272,150.1 273.5,150.6 
	274.1,151.2 274.5,152.1 274.9,152.6 275.2,153.4 275.3,154.1 275.5,154.1 276.9,154 277.4,154.3 277.5,154.1 277.2,153.6 
	277.3,152.8 278,152.1 279.1,152.6 280.6,153.1 281.5,152.8 282.5,153.1 282.6,154 284,154.4 284.6,154.4 284.6,153.5 285.3,152.8 
	286.1,153 286.5,152.8 287.4,152.8 288.7,152.2 290.8,152.1 292.1,152.5 293.4,151.9 294,150.9 295.4,150 295.4,150 296.1,149.2 
	296.5,149 297.1,148.2 298.1,147.2 298.7,147.4 300.1,145.2 302,143.1 301.7,141.1 301.1,140.4 300.9,138.3 299.9,137.2 
	299.4,136.3 298.7,135.4 297.6,135.4 297.2,135 297.2,134.5 296.2,134.1 295.1,132.1 294.7,131.8 294.5,131 293.4,130 292.9,129.3 
	290.5,129.3 289.5,129 289.1,128.2 289.9,126.9 290.5,126.6 290.6,125.3 291.8,125.6 292.9,125.3 293.5,125.8 294.2,125.9 
	294.6,125.3 295.4,124.7 295.6,122 295.4,119.7 295.9,118.1 296.8,116.6 296.8,115.4 296.4,114.7 296.8,113.5 298,112 298.2,111.3 
	298.7,111.2 299.4,111.4 300.5,107.1 301.2,105.3 302.8,104.2 302.8,103.3 304.2,101 304.4,100 305.5,99.7 306,99.8 306.6,98 
	308.2,95.3 308.2,93.3 308.8,91.6 309.1,91.2 308.8,91 308.6,89.9 307.9,87.5 308,86.1 308.6,85.4 308.7,84.5 309.6,83.1 
	310.1,80.2 310.7,78.4 311.1,77.8 310.8,77.3 310.3,77 310.9,75.6 310.9,74.5 311.5,74 313.1,74 313.2,73.4 312.9,72.9 313,72.3 
	314.2,72 314.9,71.4 316.1,71.6 316.6,70.8 317.5,70.6 318.5,70.1 319.2,68.9 318.9,68.9 318.9,68.1 317.6,67.5 316.4,67.4 
	316.4,66.3 313.9,64.6 312.9,64.4 311.9,62.5 311.1,60 311.5,57.9 311.2,55.6 309.8,51.5 309.6,50.4 309.8,50.2 310.3,50.8 
	310.4,51.1 310.7,51.1 310.7,50.6 309.6,49.3 309.2,47.7 309,47.3 309,47.1 308.8,46.8 308.9,46.5 308.6,46.1 308.8,45.6 
	308.8,45.1 240.1,45.6 "/>
<polygon class="st0" points="303.1,143.7 304.2,143.4 305.1,143.6 305.1,147 306.1,148.2 307.2,148.4 308.5,147.9 310,148.3 
	312.7,148.1 313.8,148.8 316.2,151.1 317.6,152.1 318.6,153.1 319.5,153.4 321.5,153.4 322.8,154 324.4,153.8 325.4,154.1 
	326.2,154.1 327.3,154.1 328.9,151.7 329.4,150.9 330.6,150.5 331.5,150.5 332.1,150.1 334.8,149.8 335.6,150.2 336.3,151.5 
	337.3,152 339.5,151.6 340.9,151.7 341.1,151.6 341.6,150.8 343.5,149.9 345.2,149.6 346.7,148.8 347.8,148.2 348.3,147 
	349.7,146.2 350.7,146.2 351.8,145.5 355.4,145.3 358.9,145.4 376.9,127.6 369.5,127.7 352.6,122.5 351.1,121.3 349,120.8 
	348.2,119.1 348.5,117.4 346.9,116.6 345.9,113.5 345.6,111.3 345.9,110.7 344.9,110.1 343.3,110.4 342,111.3 339.8,111.4 
	339.3,110.7 340.2,109.4 340.3,108.4 340.9,107.3 340.6,105.8 341.1,104.8 341.5,103.4 342.6,103.1 341,101 340.2,101 339.8,100.3 
	339.7,99.2 338.6,97.6 337.5,97.4 335.9,95.8 334.5,94.9 334.2,94.4 333,94.3 332.9,93.9 331.2,93.6 330.8,92.7 328.8,90.9 
	327.8,90.7 326.8,89.8 325.6,89.5 324.7,89.7 324.5,90.1 322.7,88.6 321.7,88.6 321.3,89 320.5,88.3 319.4,88.4 318.3,89.4 
	317.2,89.4 315,88.5 314.6,87.9 314,87.5 312.4,90.8 311.5,90.9 311.1,91.5 309.9,91.5 309.1,91.2 308.8,91.6 308.2,93.3 
	308.2,95.3 306.6,98 306,99.8 305.5,99.7 304.4,100 304.2,101 302.8,103.3 302.8,104.2 301.2,105.3 300.5,107.1 299.4,111.4 
	298.7,111.2 298.2,111.3 298,112 296.8,113.5 296.4,114.7 296.8,115.4 296.8,116.6 295.9,118.1 295.4,119.7 295.6,122 295.4,124.7 
	294.6,125.3 294.2,125.9 293.5,125.8 292.9,125.3 291.8,125.6 290.6,125.3 290.5,126.6 289.9,126.9 289.1,128.2 289.5,129 
	290.5,129.3 292.9,129.3 293.4,130 294.5,131 294.7,131.8 295.1,132.1 296.2,134.1 297.2,134.5 297.2,135 297.6,135.4 298.7,135.4 
	299.4,136.3 299.9,137.2 300.9,138.3 301.1,140.4 301.7,141.1 302,143.1 302.5,142.6 "/>
<polygon class="st0" points="317.5,70.6 316.6,70.8 316.1,71.6 314.9,71.4 314.2,72 313,72.3 312.9,72.9 313.2,73.4 313.1,74 
	311.5,74 310.9,74.5 310.9,75.6 310.3,77 310.8,77.3 311.1,77.8 310.7,78.4 310.1,80.2 309.6,83.1 308.7,84.5 308.6,85.4 308,86.1 
	307.9,87.5 308.6,89.9 308.8,91 309.9,91.5 311.1,91.5 311.5,90.9 312.4,90.8 314,87.5 314.6,87.9 315,88.5 317.2,89.4 318.3,89.4 
	319.4,88.4 320.5,88.3 321.3,89 321.7,88.6 322.7,88.6 324.5,90.1 324.7,89.7 325.6,89.5 326.8,89.8 327.8,90.7 328.8,90.9 
	330.8,92.7 331.2,93.6 332.9,93.9 333,94.3 334.2,94.4 334.5,94.9 335.9,95.8 337.5,97.4 338.6,97.6 339.7,99.2 339.8,100.3 
	340.2,101 341,101 342.6,103.1 343.9,102.7 344.3,102.2 345.3,101.9 346.4,100.7 346.1,100.6 345.9,100.3 345.4,100.7 344.8,100.4 
	344.2,100.4 343.6,99.2 343.9,98.9 343,97.8 342.3,97.6 341.4,95.2 341,94.7 340.9,95 340.5,95 339.6,94 338.4,93.5 337.6,92.1 
	335.7,89.9 335.3,89.3 333.7,88.9 333.2,88.3 332.1,87.1 331.4,87.3 331,87.1 330.1,87.2 329.6,87.6 328.9,86.9 328,85.5 328.3,85 
	327.3,83.6 326.9,83.7 326.8,84.9 327,84.9 327.1,86.5 326.1,86.2 325.8,84.4 325.3,83.2 324.6,83 324.6,82.4 324.3,80.9 
	323.8,80.8 323,76.7 320.6,70.3 319.3,68.9 319.2,68.9 318.5,70.1 "/>
<polygon class="st0" points="344.3,102.2 343.9,102.7 341.5,103.4 341.1,104.8 340.6,105.8 340.9,107.3 340.3,108.4 340.2,109.4 
	339.3,110.7 339.8,111.4 342,111.3 343.3,110.4 344.9,110.1 345.9,110.7 346.1,110.5 347.4,108 347.2,107.6 345.7,107.6 344.8,108 
	344.4,107.9 343.8,107.1 345,107.1 345.6,106.3 346.4,106.2 347.5,105 348.1,104.8 347.9,103 348,102.5 347.7,102.5 346.4,101.2 
	346.4,100.8 346.4,100.7 345.3,101.9 "/>
<polygon class="st0" points="345.6,111.3 345.9,113.5 346.9,116.6 348.5,117.4 348.2,119.1 349,120.8 351.1,121.3 352.6,122.5 
	369.5,127.7 376.9,127.6 358.9,145.4 355.4,145.3 351.8,145.5 350.7,146.2 349.7,146.2 348.3,147 347.8,148.2 346.7,148.8 
	345.2,149.6 343.5,149.9 341.6,150.8 341.1,151.6 340.9,151.7 341,151.7 335.6,156.7 335.5,179.5 339.6,183.2 339.6,182.9 
	344.4,177.7 344.9,176.5 346.1,175.3 347.3,174.9 347.8,174.1 348.4,173.9 351.6,170.3 352.5,170 356.4,165.9 358.4,164.3 
	360,163.2 361.9,162.8 364.7,160.5 371.1,154.8 374.1,151.1 375.9,149.4 376.2,148.1 380.2,142.8 380.3,141.9 382.3,139 
	382.5,137.1 385.7,130.9 386.5,130.3 385.9,129.4 386,128.8 387.3,127.4 387.7,127.5 388.6,126.5 389.9,123.6 391.9,120.8 
	391.8,119.3 392.2,118.7 392.4,117.4 391.9,116.6 392.8,115.2 393.3,115 394,115 394.1,115.2 394.5,115 394.2,114.4 393.8,114.3 
	393.9,114.5 393.1,114.7 393.5,113.7 393.4,112.8 392.8,112.1 393.4,110.9 394,110.4 393.9,110 393.2,110 392.9,109.5 393.2,108.9 
	393.3,108 393.7,107.1 394.2,106.2 394,106 393.3,106.1 391.9,105.6 391.2,105.1 391.2,105.4 390.7,105.3 390,106 390.2,106.1 
	389.7,107 389.5,106.8 388.5,107.8 386.8,108 386.6,108.5 386.1,108.1 384.4,108.3 383.3,109.2 380.5,109.7 380,109.7 379.4,109.4 
	377.6,109.5 376,110.3 374.4,110.2 373.6,110.5 372.4,110 371.3,110.2 367.8,112.4 366.1,112.6 365,112 364.4,112.2 362.9,112.3 
	362.5,112 362,112 360,113.5 359.1,113.6 357.6,114.5 357.1,115.1 355.4,115.3 354,115 352.6,113.7 352,113.5 351.6,112.6 
	348.1,108.8 347.7,108.7 347.4,108 346.1,110.5 "/>
<polygon class="st0" points="335.6,156.7 341,151.7 340.9,151.7 339.5,151.6 337.3,152 336.3,151.5 335.6,150.2 334.8,149.8 
	332.1,150.1 331.5,150.5 330.6,150.5 329.4,150.9 328.9,151.7 327.3,154.1 326.2,154.1 325.4,154.1 324.4,153.8 322.8,154 
	321.5,153.4 319.5,153.4 318.6,153.1 317.6,152.1 316.2,151.1 313.8,148.8 312.7,148.1 310,148.3 308.5,147.9 307.2,148.4 
	306.1,148.2 305.1,147 305.1,143.6 304.2,143.4 303.1,143.7 302.5,142.6 302,143.1 300.1,145.2 298.7,147.4 298.1,147.2 
	297.1,148.2 296.5,149 296.1,149.2 295.4,150 295.4,150 295.5,150 296,150.7 296.4,152.2 296.9,152.5 296.8,153.5 297.6,153.7 
	298,154.9 298,156.1 299.3,157.4 300,159.1 300.8,159.5 301.5,160 301,160.7 301.8,161.4 302.2,162.6 302,163.8 300.7,165.4 
	300.7,166.2 300.2,167.6 298.2,167.6 298.3,168.1 297.7,168.7 297.2,169.7 296.3,170.6 295.6,171.9 294.5,173 294.3,174.6 
	292.8,180.2 294.4,180.1 315.5,192.5 316.7,194.4 316.4,194.9 316.6,195.7 317.1,196.3 324.3,201.3 324.8,201.3 326,200.8 
	328.1,197.8 328.9,196 328.9,194.7 329.8,193.5 330.8,192.1 330.4,191.8 330.5,191.1 331.3,190.1 331.4,189.7 332.1,189.5 
	333.8,189.5 334.9,188 336.8,187.3 336.5,186.8 337.2,186 337.6,185.9 339.5,183.6 339.6,183.2 335.5,179.5 "/>
<polygon class="st0" points="280.4,180.8 282.6,180.8 284.8,180.6 280.6,180.8 "/>
<polygon class="st0" points="276.5,156.1 276.5,157.7 276.2,159.7 276,161.2 276.7,161.6 277.3,162.4 277.7,163.3 277.6,164 
	274.6,167.9 272.8,169.9 272.3,170.8 270.1,174.8 269.7,175.5 269.6,177 269.4,179.1 268.7,181.2 268.9,182.5 268.6,182.8 
	268.9,182.9 269.8,182.7 270.8,182 271.4,182.3 271.9,182.7 272.7,182.7 273.1,182.3 273.1,181.5 274.1,181.4 274.3,181.6 
	274.6,181.2 275.1,181.3 275.6,180.8 280.4,180.8 280.6,180.8 284.8,180.6 292.8,180.2 294.3,174.6 294.5,173 295.6,171.9 
	296.3,170.6 297.2,169.7 297.7,168.7 298.3,168.1 298.2,167.6 300.2,167.6 300.7,166.2 300.7,165.4 302,163.8 302.2,162.6 
	301.8,161.4 301,160.7 301.5,160 300.8,159.5 300,159.1 299.3,157.4 298,156.1 298,154.9 297.6,153.7 296.8,153.5 296.9,152.5 
	296.4,152.2 296,150.7 295.5,150 295.4,150 294,150.9 293.4,151.9 292.1,152.5 290.8,152.1 288.7,152.2 287.4,152.8 286.5,152.8 
	286.1,153 285.3,152.8 284.6,153.5 284.6,154.4 284,154.4 282.6,154 282.5,153.1 281.5,152.8 280.6,153.1 279.1,152.6 278,152.1 
	277.3,152.8 277.2,153.6 277.5,154.1 277.4,154.3 277.1,155.4 "/>
<polygon class="st0" points="227.6,111.2 226.9,110.7 225.5,110.7 224.5,111.4 223,112.3 222.8,113 222.9,113.8 222.2,114.1 
	221.2,115.7 220.6,115.8 220.1,115.5 219.3,116.5 219.3,117.3 218.5,117.9 218.3,118.9 218.5,119.7 218.2,120.5 217.2,121.1 
	216.1,121.9 214,122.1 212.4,122.4 210.9,122.1 209.9,121.8 208.6,121.9 207.7,121.7 207,122.2 206.8,123.2 207.8,124.4 
	208.5,124.4 208.7,125.1 207,126.2 206.2,127.1 204.8,127.1 201.3,127.9 199.9,128.9 198.3,129.6 196.8,130.7 195.7,130.8 
	195.2,130.3 194.9,129 194.2,128.5 193.6,129.1 193.6,130.2 192.9,131.6 191.3,131.6 190.4,131.8 189.3,131.8 189.1,130.7 
	188.4,130 188.4,130.3 187.4,131.8 186.6,132.2 186,133.3 185,135.3 184.3,136.7 183.2,138.3 182.6,138.5 182,139.3 182.2,140.5 
	182.7,142.1 182.4,143.5 182.9,145 183,146.2 183,148.6 183.6,149 185.3,149.8 186.2,150.9 186.5,152.2 187.9,154.2 188.8,155.9 
	189.5,156.6 191.3,158 191.5,159.2 191.5,160.1 191.7,160.5 191.9,160.6 194.4,156.3 195.9,154.9 196.9,154.7 197.3,154.1 
	199.8,153.1 200.7,153.2 201.3,152.8 202.3,152.8 203,152.8 203.4,153.2 204.5,153.8 205,153.6 205.7,153.4 205.8,152.5 
	206.1,151.7 206.4,151.2 205.5,150 205.5,149.3 206.3,149.2 206.8,148.8 206.8,148.2 207.3,147.6 207.4,146.8 207.8,146.4 
	208.6,146.4 209.4,145.6 210.4,145.7 210.5,145.1 211.1,145.1 212,145.8 212.6,145.9 214.3,147.3 215.2,147.6 216.7,148.9 
	217,149.2 218.3,149.2 219.5,149.8 220.9,149.9 221.7,150.1 222.4,149.7 223.2,149.7 224.2,150.1 225.6,150.4 226.1,150.7 
	227.5,150.4 227.7,150 227.1,149.5 227,148.8 227.9,147.9 228.7,146.9 229.9,146.9 230.9,147.1 231.6,147.8 232.3,147.5 
	234.8,147.2 235.2,146.7 236.1,146.3 238.5,145.3 239.3,145.3 239.4,145.8 239.8,145.8 240.1,146.5 240.6,146.5 241.3,146 
	242.7,146 243.5,145.8 244.1,145.8 244.9,144.7 244.6,144.3 244.7,143.8 245.6,143.8 246.1,144.3 247.3,144.5 248,144.4 
	248.6,144.7 249.4,144.9 250.2,145.4 252.4,145.4 252.7,145.6 254.5,144.8 255.8,144.9 256.9,145.6 257.1,145.6 257.1,145.4 
	256.6,144.7 255.6,144.1 254.9,143.6 254.7,141.8 254.9,141.3 254,140.6 252.1,140.1 251.6,139.6 251.6,138.4 251.3,138 
	250.1,137.6 249.6,137 249.5,135.4 249,134.7 247.1,133.6 246.7,133.6 245.8,133.2 245.3,133.4 244.4,133.1 243.2,132.1 
	243.7,131.6 243.8,131.1 244.5,130.5 244.8,129.7 244.3,129.1 243.4,129 242.2,128.4 241.9,127.7 241,127.1 240.1,127.1 
	238.8,126.5 237.8,125.7 237.6,124.7 238,123.9 237.5,123.5 235.7,123.4 235.3,124 233.8,123.9 233,123.2 233,121.5 233.4,120.4 
	233.7,119.9 234,118.6 233.6,117.8 232.6,115.5 231.1,113.5 230.9,112.9 229.6,111.9 230,111.5 230,110.7 229.3,110 229.1,110.5 "/>
<polygon class="st0" points="26.4,38.5 27.1,36.9 28.4,36.1 29.8,35.9 31.8,35.9 32.1,20.7 50.3,21 50.5,12.9 50.5,12.9 50.5,11.3 
	27.4,11 25.1,14.1 25.1,16.3 24.1,16.4 20.1,18.5 19.7,19.6 18.1,20.5 18.6,22 15.1,27.1 14.9,28.8 12.2,31.3 11.4,31.8 9.9,34.9 
	10,35.7 7.7,38.8 7.7,39.4 8.4,39.9 7.4,40.3 5.5,43.6 4.8,43.8 4,44.7 4.1,46.1 3.5,47.3 3.6,49.2 26.6,49 "/>
<polygon class="st0" points="7.2,79.2 8.3,78.1 11.4,77.6 14.4,76.4 15.4,76.4 18.1,77.3 19.6,77.7 20.8,79.3 20.8,79.8 21.6,80.1 
	22.6,79.8 23,80 23.9,79.9 24.4,80.4 24.6,81.8 25.8,82.9 25.8,84.2 27.1,84.4 27.4,85.6 28.4,86 30,86.9 30.3,87.8 30.3,87.8 
	31.6,86.8 33.4,86.7 34,85.1 34,84.3 34,82.1 35.7,81.5 37.1,81.6 37.3,83 38.3,84.9 38.9,85.3 40.3,82.6 43.2,81.3 44.5,81.8 
	44.6,83.5 45.2,84.2 46.2,83 46.9,83 47.6,83.9 48.2,84.2 68.7,84.1 70.6,78.9 68.8,77.8 64.4,27 71.3,26.9 71.4,26.9 71.4,26.9 
	50.5,12.9 50.5,12.9 50.3,21 32.1,20.7 31.8,35.9 29.8,35.9 28.4,36.1 27.1,36.9 26.4,38.5 26.6,49 3.6,49.2 3.6,49.5 3,50.7 
	3.1,52.9 4.4,51.5 4.9,52.9 5.4,53.2 6,52.6 7.7,55.1 7,55.8 7.4,57 7,59 6.2,59 5.6,59.5 7.2,62 8.4,67.9 8,72.1 6.6,74 5.7,77.6 
	5.3,80 6.3,79.2 "/>
<polygon class="st0" points="70.4,110.7 69.9,109.8 69.9,108.7 71,108.4 70.9,106.8 70.5,105.7 71.5,104.9 73,103.8 74.6,100.8 
	75.9,99.1 75.9,98.3 77.2,96 78,95.7 78.2,95 79.9,94.9 80.6,95.1 83.6,94.2 84.1,93 87.2,90.9 91.7,88.5 93.1,87.3 94.9,86.3 
	97.6,85.8 99.1,85.7 100.7,86.2 101.7,86.3 102.2,86.7 102.3,86.4 103.7,86.7 107.6,86.3 109,86.4 110.5,85.7 112.9,85.7 
	114.1,85.7 115.8,84.6 117.5,84.5 119.2,83.6 122.1,82 122.4,80.8 122.6,78.8 123.6,78.2 123.9,73 124.2,61.9 124.2,61.9 
	122.1,62.6 119.4,62.9 118,62.4 117.6,61.5 118.2,59.8 118.2,58.9 117.1,57.9 115.8,57.5 114.7,56.2 113.1,55.7 111,55.8 
	109.7,54.7 109.1,51.9 71.4,26.9 71.3,26.9 64.4,27 68.8,77.8 70.6,78.9 68.7,84.1 48.2,84.2 47.6,83.9 46.9,83 46.2,83 45.2,84.2 
	44.6,83.5 44.5,81.8 43.2,81.3 40.3,82.6 38.9,85.3 38.3,84.9 37.3,83 37.1,81.6 35.7,81.5 34,82.1 34,84.3 34,85.1 33.4,86.7 
	31.6,86.8 30.3,87.8 31,88.5 31,89.5 31.4,90.4 30.8,92.7 31,93.4 32.4,94.7 33,96.2 33.7,96.8 34.3,96.7 35,97.2 35.2,98 36,98.9 
	35.9,99.5 35.6,100.2 35.7,101.1 37.2,101.9 37.1,102.9 36.8,103.6 36.8,103.7 37.5,104 38.8,103.5 39.5,103.8 40.8,104.7 
	42.2,104.7 43.4,103.9 44.2,103.8 45.3,102.2 46.4,102.1 47.9,102.8 48.4,102.4 49.5,102 49.6,102.6 50.9,103.7 51.5,104.9 
	51.1,106.5 51.8,107 53,107.3 53,107.9 52,109.4 51.4,110.9 52.4,110.8 53,110 53.7,109.9 53.7,111 54.2,111.8 54.2,112.4 
	55.7,112.5 56.2,113.1 56.3,113.9 57.9,112.9 58.7,112.9 60,113.5 62.4,113.7 62.9,113.3 62.9,112.8 64.8,112.4 66.3,112.6 66,113 
	66.5,113.6 68.3,114.2 69.3,112.6 70,112.1 "/>
<polygon class="st0" points="111.7,101.3 112.4,100.4 112.3,99.3 111.8,98.8 111.7,98.1 111.1,97.8 108.6,99.1 106.6,97.6 
	106.5,95.2 101,91.6 101,89.9 101.7,88.8 101.9,87.2 102.2,86.7 101.7,86.3 100.7,86.2 99.1,85.7 97.6,85.8 94.9,86.3 93.1,87.3 
	91.7,88.5 87.2,90.9 84.1,93 83.6,94.2 80.6,95.1 79.9,94.9 78.2,95 78,95.7 77.2,96 75.9,98.3 75.9,99.1 74.6,100.8 73,103.8 
	71.5,104.9 70.5,105.7 70.9,106.8 71,108.4 69.9,108.7 69.9,109.8 70.4,110.7 70,112.1 70.2,112 71.9,113.3 74,114.5 74.9,114.5 
	75.5,114.9 76.4,114.9 77.6,115.5 78.2,116.3 80.1,117.3 81.4,117 82.5,116.3 83.3,116.3 84.1,116.9 85.3,117.1 85.3,115.3 
	84.6,113.8 84,113.3 83.6,111.4 83.8,110.2 85.8,110 90.1,110 90.6,109.8 93.5,109.8 95.7,109.5 97,109.4 98.4,108.8 98.8,108.9 
	98.8,108.9 99.2,108.9 105.2,110.4 105.4,109.8 106.9,109.5 106.7,108.3 107.6,107.6 107.5,106.6 108.7,106 109.3,106.3 
	111.1,105.4 112.1,105.3 113.4,103.8 113.4,102.9 113,102.9 "/>
<polygon class="st0" points="7.6,101.6 11.5,101.9 12.5,100.5 14.6,99.7 19.8,99.8 21.3,100.2 21.2,100.1 22.4,99.9 26,99.9 
	28.3,101.1 29.3,101.9 31.1,101.8 32.9,102.5 33.8,102 35,102 35.5,102.6 36.7,102.7 36.8,103.6 37.1,102.9 37.2,101.9 35.7,101.1 
	35.6,100.2 35.9,99.5 36,98.9 35.2,98 35,97.2 34.3,96.7 33.7,96.8 33,96.2 32.4,94.7 31,93.4 30.8,92.7 31.4,90.4 31,89.5 31,88.5 
	30.3,87.8 30,86.9 28.4,86 27.4,85.6 27.1,84.4 25.8,84.2 25.8,82.9 24.6,81.8 24.4,80.4 23.9,79.9 23,80 22.6,79.8 21.6,80.1 
	20.8,79.8 20.8,79.3 19.6,77.7 18.1,77.3 15.4,76.4 14.4,76.4 11.4,77.6 8.3,78.1 7.2,79.2 6.3,79.2 5.3,80 5.1,81.8 3.6,84.5 
	0,87.8 2,89.4 3.2,91.6 4.3,91.8 4.3,93 3.8,93.1 5.3,94 4.5,94.5 4.6,95 7.3,95.1 7.9,94.7 8.9,94.7 11,93.1 12.6,92.5 13.6,92.8 
	15,92.8 16.8,93.9 17.9,93.9 20.4,95.5 20.9,95.4 21.3,96.1 20.9,96.9 19.7,96.8 17.8,96 16.3,95.5 15.1,95.5 13.7,94.6 13.2,94.8 
	12.3,95.5 12,95.3 11.2,95.1 9.9,95.9 8.8,96.2 7.8,97.3 4.3,97.3 3.7,97.9 3.7,99.2 3.2,99.8 3.5,100.3 4.8,99.6 6.7,100.3 
	5.5,101.1 4.9,100.8 3.9,100.6 4.3,101 4.3,102.1 5.7,102.5 "/>
<polygon class="st0" points="7.8,97.3 8.8,96.2 9.9,95.9 11.2,95.1 12,95.3 12.3,95.5 13.2,94.8 13.7,94.6 15.1,95.5 16.3,95.5 
	17.8,96 19.7,96.8 20.9,96.9 21.3,96.1 20.9,95.4 20.4,95.5 17.9,93.9 16.8,93.9 15,92.8 13.6,92.8 12.6,92.5 11,93.1 8.9,94.7 
	7.9,94.7 7.3,95.1 4.6,95 4.9,95.9 6.4,96.6 7.7,96.3 6.8,97.1 5.3,97.2 4.1,95.7 3.1,96.7 3.7,97.5 3.7,97.9 4.3,97.3 "/>
<polygon class="st0" points="17.3,108.4 18.9,107.6 20.9,107.2 21.8,106.5 21.9,105.4 21.2,104.7 21.2,102.8 21.5,101.9 21.3,100.2 
	19.8,99.8 14.6,99.7 12.5,100.5 11.5,101.9 7.6,101.6 5.7,102.5 4.3,102.1 4.3,102.1 4.8,103 6.7,103.1 7.5,103.1 6.4,103.9 
	7.5,105 8.7,105.1 9,105.7 9.6,105.8 11.1,105.3 12.5,105 14.1,105.8 13.6,106.2 10.7,106.2 11.1,106.7 12,106.8 12.5,107.4 
	12.2,107.9 12.8,108 11.5,109.5 13.9,109.2 13.8,110.2 14.1,110.5 15.5,110.1 16.2,108.7 "/>
<polygon class="st0" points="42.2,140.2 42.2,140.2 40.1,138.7 "/>
<polygon class="st0" points="37,135.3 37.2,135.3 37,135.2 "/>
<polygon class="st0" points="27.7,119.3 27.7,118.5 29.3,117.1 30.2,116.1 31.7,115.5 36.6,115.5 37.3,117 38,118 39.4,120.5 
	39.2,121.5 40.3,122.5 40.3,123.4 39.5,123.8 39.4,124.8 40.1,125 40,125.6 41.3,125 41.8,125.1 44.2,124.4 45.3,124.9 46.1,126.2 
	47.2,126.8 47.1,129.1 46.8,130.3 48.3,132 49,131.8 50.7,130.5 51.3,130.7 52.2,131.5 52.5,132.1 52.3,132.6 52.5,131.9 
	53.5,131.6 55.1,128.2 55.2,127 54.8,126.5 53.7,125.3 53.7,124.5 54.5,124.1 55.4,124.3 55.5,123.5 54.8,122.3 54.2,121.9 
	54,119.8 54.3,119 54.1,116.3 53.6,115.9 53.6,115 55.8,114.1 56.3,113.9 56.2,113.1 55.7,112.5 54.2,112.4 54.2,111.8 53.7,111 
	53.7,109.9 53,110 52.4,110.8 51.4,110.9 52,109.4 53,107.9 53,107.3 51.8,107 51.1,106.5 51.5,104.9 50.9,103.7 49.6,102.6 
	49.5,102 48.4,102.4 47.9,102.8 46.4,102.1 45.3,102.2 44.2,103.8 43.4,103.9 42.2,104.7 40.8,104.7 39.5,103.8 38.8,103.5 
	37.5,104 36.8,103.7 36.8,103.6 36.7,102.7 35.5,102.6 35,102 33.8,102 32.9,102.5 31.1,101.8 29.3,101.9 28.3,101.1 26,99.9 
	22.4,99.9 21.2,100.1 21.3,100.2 21.5,101.9 21.2,102.8 21.2,104.7 21.9,105.4 21.8,106.5 20.9,107.2 18.9,107.6 17.3,108.4 
	16.2,108.7 15.5,110.1 15.6,110.1 16.5,111.1 16,113.2 17.3,115 18.6,115.1 19.4,115.4 20,114.7 20.9,115.1 20.5,115.6 20.5,116.5 
	21,117 22.2,117 22.6,118.8 24.2,119.6 25,120.3 25.9,120.2 "/>
<polygon class="st0" points="28.1,131 27.5,130.8 27.3,131.3 27.4,131.8 28.2,132.3 28.7,132.3 28.6,131.5 "/>
<polygon class="st0" points="35.7,132.5 37.1,131.8 38.3,130.4 38.1,129.6 38.7,128 39.4,127.6 39.4,126.8 39.8,125.6 40,125.6 
	40.1,125 39.4,124.8 39.5,123.8 40.3,123.4 40.3,122.5 39.2,121.5 39.4,120.5 38,118 37.3,117 36.6,115.5 31.7,115.5 30.2,116.1 
	29.3,117.1 27.7,118.5 27.7,119.3 25.9,120.2 25,120.3 25.1,120.3 24.5,121.4 24.4,122.3 25.2,122.7 24.5,124.2 24.9,125.1 
	26,125.3 26.6,127.1 26.6,128.4 27.8,129.8 29,129.4 29,129.6 28.6,130.6 29.3,131.3 30.1,132.3 29.8,132.9 31.1,133.3 34.2,134.9 
	34.8,134.9 35.1,134 "/>
<polygon class="st0" points="36.3,134.9 37,135.3 37,135.2 "/>
<polygon class="st0" points="56.7,147.1 57.2,145.8 56.8,144.9 57.1,143.9 57.6,143.2 57.2,142.4 58,141.8 57.7,140.7 56.9,140.6 
	56.1,140.1 55.7,138.9 55,138.6 54.2,138.7 53.6,137.9 52.6,137.9 52.1,138.2 51.2,137.8 50.9,136.7 51.7,135.9 52.6,133.7 
	52.3,132.6 52.5,132.1 52.2,131.5 51.3,130.7 50.7,130.5 49,131.8 48.3,132 46.8,130.3 47.1,129.1 47.2,126.8 46.1,126.2 
	45.3,124.9 44.2,124.4 41.8,125.1 41.3,125 40,125.6 39.8,125.6 39.4,126.8 39.4,127.6 38.7,128 38.1,129.6 38.3,130.4 37.1,131.8 
	35.7,132.5 35.1,134 34.8,134.9 36.3,134.9 37,135.2 37.2,135.3 36.8,136.2 37.7,136.6 39.2,138.7 40.1,138.7 42.2,140.2 
	42.5,140.4 46,143.9 47.3,144.1 51.6,147.3 57.3,149.4 57.3,148 "/>
<polygon class="st0" points="84.5,144.5 85.3,144.4 85.4,142.8 84.8,141.8 83.5,141.4 83.4,140.1 82.5,137.9 81.9,137.2 81.9,136.7 
	82.4,136.3 82.3,133.8 82.9,133 82.9,131.7 83.4,130.8 83.3,129.6 85.1,126.9 86.2,126.2 86.2,125 86.7,123.8 86.2,122.3 
	85.4,121.5 85.4,120.5 84.9,119.3 85.4,117.5 85.3,117.1 84.1,116.9 83.3,116.3 82.5,116.3 81.4,117 80.1,117.3 78.2,116.3 
	77.6,115.5 76.4,114.9 75.5,114.9 74.9,114.5 74,114.5 71.9,113.3 70.2,112 69.3,112.6 68.3,114.2 66.5,113.6 66,113 66.3,112.6 
	64.8,112.4 62.9,112.8 62.9,113.3 62.4,113.7 60,113.5 58.7,112.9 57.9,112.9 55.8,114.1 53.6,115 53.6,115.9 54.1,116.3 54.3,119 
	54,119.8 54.2,121.9 54.8,122.3 55.5,123.5 55.4,124.3 54.5,124.1 53.7,124.5 53.7,125.3 54.8,126.5 55.2,127 55.1,128.2 
	53.5,131.6 52.5,131.9 52.3,132.6 52.6,133.7 51.7,135.9 50.9,136.7 51.2,137.8 52.1,138.2 52.6,137.9 53.6,137.9 54.2,138.7 
	55,138.6 55.7,138.9 56.1,140.1 56.9,140.6 57.7,140.7 58,141.8 57.2,142.4 57.6,143.2 57.1,143.9 56.8,144.9 57.2,145.8 
	56.7,147.1 57.3,148 57.3,149.4 57.9,149.6 59.9,147.8 61.1,147.8 61.6,147.3 65.5,145.8 65.6,145.2 67.7,144.9 75.4,144.9 
	78.2,144 80.9,145.2 81.1,143.8 82.2,143.5 83.1,145 83.3,144.6 "/>
<polygon class="st0" points="104.8,138.5 104.2,138.3 103.7,136.7 103.3,135.4 103.6,133.8 103.7,133.1 104.3,131.9 104.1,128.5 
	103.7,127.6 103.9,125.7 103.4,124.8 103.9,124.1 103.7,123 103.2,122.6 103.3,121.7 103.7,120.9 103.7,118.9 103.2,118.7 
	102.6,118.3 102.5,116.2 102.9,114.6 101.6,113.7 101.1,113 99.9,111.9 99.7,111 99.3,110.5 98.8,108.9 98.4,108.8 97,109.4 
	95.7,109.5 93.5,109.8 90.6,109.8 90.1,110 85.8,110 83.8,110.2 83.6,111.4 84,113.3 84.6,113.8 85.3,115.3 85.3,117.1 85.4,117.5 
	84.9,119.3 85.4,120.5 85.4,121.5 86.2,122.3 86.7,123.8 86.2,125 86.2,126.2 85.1,126.9 83.3,129.6 83.4,130.8 82.9,131.7 
	82.9,133 82.3,133.8 82.4,136.3 81.9,136.7 81.9,137.2 82.5,137.9 83.4,140.1 83.5,141.4 84.8,141.8 85.4,142.8 85.3,144.4 
	84.5,144.5 83.3,144.6 83.1,145 83.4,145.6 86.5,146 88.7,147 93.7,144.6 97.2,144.3 100.2,141.8 102.9,140.5 106,140.1 
	105.4,139.1 "/>
<polygon class="st0" points="109.6,135.7 109.6,134.1 109.2,132.7 109.4,125.8 109.4,124.8 110,124 110,122.7 109.6,121.8 
	109.6,120.2 109.1,117.7 108,114.7 107.4,114.4 106.6,113.5 105.2,112.9 104.9,111.1 105.2,110.4 99.2,108.9 98.8,108.9 98.8,108.9 
	99.3,110.5 99.7,111 99.9,111.9 101.1,113 101.6,113.7 102.9,114.6 102.5,116.2 102.6,118.3 103.2,118.7 103.7,118.9 103.7,120.9 
	103.3,121.7 103.2,122.6 103.7,123 103.9,124.1 103.4,124.8 103.9,125.7 103.7,127.6 104.1,128.5 104.3,131.9 103.7,133.1 
	103.6,133.8 103.3,135.4 103.7,136.7 104.2,138.3 104.8,138.5 105.4,139.1 106,140.1 106.5,140 109.6,138.1 110.2,138.2 
	110.4,137.1 "/>
<polygon class="st0" points="116.5,133.1 116.3,132.2 116.4,131.3 116.1,128.9 116.3,128 116.3,127.4 116,127 116.2,126.5 
	116,125.6 115.9,125.1 116.1,123.9 116.2,123.1 116.1,122 116.5,121.3 117.4,121 118.1,120.9 118.7,120.4 119.2,119.4 120,118 
	120.3,117.1 121.1,116.4 121.8,116.5 122.2,115.9 120.9,114.6 121,114.1 121.5,113.3 122.7,113.3 122.9,112.6 122.3,110.5 
	122.3,109.1 120.7,107.9 120.5,107 120.7,105.8 120.9,105.7 119.6,104 118.3,103.7 117.3,102.3 115.4,100.8 114.9,101.8 115,102.5 
	114,102.8 113.4,102.9 113.4,103.8 112.1,105.3 111.1,105.4 109.3,106.3 108.7,106 107.5,106.6 107.6,107.6 106.7,108.3 
	106.9,109.5 105.4,109.8 104.9,111.1 105.2,112.9 106.6,113.5 107.4,114.4 108,114.7 109.1,117.7 109.6,120.2 109.6,121.8 
	110,122.7 110,124 109.4,124.8 109.4,125.8 109.2,132.7 109.6,134.1 109.6,135.7 110.4,137.1 110.2,138.2 112.3,138.4 116.2,137.1 
	116.5,137.1 116.2,136 "/>
<polygon class="st0" points="188.7,36 182.1,38.7 182.8,39.4 185.6,47.4 185.4,48.9 185.1,49.6 189,54.2 188.9,56.3 188,57.2 
	186.4,68 186.7,76.5 177.1,86.2 176.8,86.9 176.2,87.1 175.5,87.1 175.4,87.8 175.8,95.1 176.6,95.3 178.1,97.3 178.9,98.7 
	179,98.7 179,98.7 181.8,100.2 183.1,101.4 183.4,103.1 183.9,103.6 184.1,104.6 184.8,106.2 184.8,107 184.5,107.6 184.5,108.1 
	185.1,108.8 184.7,110.3 184,111 184,112.1 185,113.6 185.9,114 186.3,115.3 187.8,116.5 188.3,116.7 187.6,117.2 186.9,117 
	186.2,116.7 185,116.5 184.2,116.6 183.4,116.5 182.4,116.7 181.8,116.5 180.8,116.5 179.9,116.5 179.9,117.6 179.5,118.1 
	179.5,119.1 179.7,119.7 180.3,120.1 180.5,120.8 181.5,121.1 183.6,123 185.7,125.2 186.5,126 187.4,127.4 188.4,129 188.4,130 
	189.1,130.7 189.3,131.8 190.4,131.8 191.3,131.6 192.9,131.6 193.6,130.2 193.6,129.1 194.2,128.5 194.9,129 195.2,130.3 
	195.7,130.8 196.8,130.7 198.3,129.6 199.9,128.9 201.3,127.9 204.8,127.1 206.2,127.1 207,126.2 208.7,125.1 208.5,124.4 
	207.8,124.4 206.8,123.2 207,122.2 207.7,121.7 208.6,121.9 209.9,121.8 210.9,122.1 212.4,122.4 214,122.1 216.1,121.9 
	217.2,121.1 218.2,120.5 218.5,119.7 218.3,118.9 218.5,117.9 219.3,117.3 219.3,116.5 220.1,115.5 220.6,115.8 221.2,115.7 
	222.2,114.1 222.9,113.8 222.8,113 223,112.3 224.5,111.4 225.5,110.7 226.9,110.7 227.6,111.2 229.1,110.5 229.3,110 229.5,109.7 
	229.5,108.9 230,108.1 229.4,107.2 227.2,106.7 227,105.6 227,104.1 226.4,103.1 226.9,102.4 226.1,101.8 226.8,101.4 226.8,100.5 
	226.1,100.4 224.7,101.4 223.9,100.6 223.9,99.3 225.7,97.4 226.4,96.5 226.3,95.3 225.2,94.7 225.4,93.9 226.6,93.2 227.2,92 
	226.5,91.3 226.5,90.5 227.5,89.5 228.1,89.5 230,87.1 230.6,85.7 230,84.9 230,83.5 231.1,82.7 232.5,82.7 233.5,83.3 234.5,82.6 
	235.4,82.3 235,59.6 235,59.5 "/>
<polygon class="st0" points="168.3,98.6 168.8,99 169.6,98.8 170.1,97.9 "/>
<polygon class="st0" points="175.5,87.1 176.2,87.1 176.8,86.9 177.1,86.2 186.7,76.5 186.4,68 188,57.2 188.9,56.3 189,54.2 
	185.1,49.6 185.4,48.9 185.6,47.4 182.8,39.4 182.1,38.7 177,40.8 176.1,39.8 166,37.3 166,37.3 140.1,53.3 133,59.8 124.2,61.9 
	123.9,73 123.6,78.2 122.6,78.8 122.4,80.8 122.1,82 119.2,83.6 117.5,84.5 115.8,84.6 114.1,85.7 112.9,85.7 110.5,85.7 109,86.4 
	107.6,86.3 103.7,86.7 102.3,86.4 101.9,87.2 101.7,88.8 101,89.9 101,91.6 106.5,95.2 106.6,97.6 108.6,99.1 111.1,97.8 
	111.7,98.1 111.8,98.8 112.3,99.3 112.4,100.4 111.7,101.3 113,102.9 113.4,102.9 114,102.8 115,102.5 114.9,101.8 115.4,100.8 
	117.3,102.3 118.3,103.7 119.6,104 120.9,105.7 121.8,104.9 121.7,104.3 121.1,104.3 120.4,102.7 120.8,102.1 120.5,101.4 
	121.7,100.2 122.8,100.2 122.7,99.4 122.3,98.9 122.1,97.9 122.3,97.4 122.4,97.1 122.2,96.6 122.3,96 123.6,95 124.3,94.7 
	124.7,94.5 125.9,94.2 126.8,94.3 127.2,94.2 129,94.3 129.5,93.8 130.4,93.8 131.1,94 132.6,94.2 133.3,94.6 134.3,94.8 136,95.4 
	136.5,96.1 137.8,97.9 138.9,98.6 139.5,98.4 140.2,97.6 141,97.5 141.8,97.1 143.4,96.8 143.7,96.6 144.6,96.6 145.6,97.4 
	145.6,97.8 146.8,98.3 148.7,99.3 149.8,99.5 152.2,100.3 153.2,100.6 154.6,99.6 156.1,97.6 157.3,97.3 160.3,97.5 161.6,96.8 
	164.1,97.2 166,98 167.6,98.1 168.3,98.6 170.1,97.9 170.2,97.6 171.4,97.2 171.7,96.5 172.5,96.3 173.4,96.7 173.9,96.4 
	174.1,95.7 174.8,94.7 175.8,95.1 175.4,87.8 "/>
<rect x="179" y="98.7" class="st0" width="0" height="0"/>
<polygon class="st0" points="149.6,145.6 150.3,144.2 150,142.8 150,141.6 150.6,141.1 150.6,140.3 151.6,139.4 152.6,138.7 
	153.1,138.1 154.8,136.9 154.7,135.7 154.9,135.1 156.2,135 156.8,134.3 157,134.6 158.6,135.1 159.2,135 160.3,135.6 160.9,136.7 
	161.9,137.5 162.6,137.7 163.8,137 164.6,135.7 164.6,135.3 165,134.6 165.9,134.3 166.6,133.3 166.5,132.4 166.9,131.1 
	168.7,129.3 168.9,128.3 168.7,127.5 169.2,126.6 170.7,125 171.9,124.3 172,123 172.4,122.2 172.2,120.4 173,119.7 174.6,119.2 
	175.6,118 175.8,116.6 175.8,115.1 175.6,114.2 176.3,113.1 177.2,111.2 177.8,110.7 178,110.2 179.1,109.3 179.8,109.4 
	180.5,108.5 181.9,107.9 182,107.2 181.6,105.7 181.5,105 181.1,104.1 180.1,103.8 179.6,102.8 179.6,101 179.5,100.1 179,98.7 
	178.9,98.7 178.1,97.3 176.6,95.3 175.8,95.1 174.8,94.7 174.1,95.7 173.9,96.4 173.4,96.7 172.5,96.3 171.7,96.5 171.4,97.2 
	170.2,97.6 169.6,98.8 168.8,99 167.6,98.1 166,98 164.1,97.2 161.6,96.8 160.3,97.5 157.3,97.3 156.1,97.6 154.6,99.6 153.2,100.6 
	152.2,100.3 149.8,99.5 148.7,99.3 146.8,98.3 145.6,97.8 145.6,97.4 144.6,96.6 143.7,96.6 143.4,96.8 141.8,97.1 141,97.5 
	140.2,97.6 139.5,98.4 138.9,98.6 137.8,97.9 136.5,96.1 136,95.4 134.3,94.8 133.3,94.6 132.6,94.2 131.1,94 130.4,93.8 
	129.5,93.8 129,94.3 127.2,94.2 126.8,94.3 125.9,94.2 124.7,94.5 124.3,94.7 123.6,95 122.3,96 122.2,96.6 122.4,97.1 122.3,97.4 
	122.1,97.9 122.3,98.9 122.7,99.4 122.8,100.2 121.7,100.2 120.5,101.4 120.8,102.1 120.4,102.7 121.1,104.3 121.7,104.3 
	121.8,104.9 120.9,105.7 120.7,105.8 120.5,107 120.7,107.9 122.3,109.1 122.3,110.5 122.9,112.6 122.7,113.3 121.5,113.3 
	121,114.1 120.9,114.6 122.2,115.9 121.8,116.5 121.1,116.4 120.3,117.1 120,118 119.2,119.4 118.7,120.4 118.1,120.9 117.4,121 
	116.5,121.3 116.1,122 116.2,123.1 116.1,123.9 115.9,125.1 116,125.6 116.2,126.5 116,127 116.3,127.4 116.3,128 116.1,128.9 
	116.4,131.3 116.3,132.2 116.5,133.1 116.2,136 116.5,137.1 118.7,137.6 120.5,136.9 124.7,139.1 127.1,141.4 128.5,144.2 
	128.5,146 129.3,146.4 129.9,148.4 131.4,149.7 133.5,150.3 139.1,150 140.2,149.3 141,149.7 143.7,148.7 144.5,149.1 146,148.8 
	146.6,147.2 147.6,148.3 148.1,148 148.1,148 148.2,147.3 "/>
<polygon class="st0" points="135.6,173.5 135.7,174.6 136.2,174.7 136.8,174.3 137.2,173.4 136.2,172.8 "/>
<polygon class="st0" points="149.5,154.4 149.3,152.8 148.9,152.4 147.7,153.6 147.3,155 146.5,155 146.4,155.9 147.5,156.5 
	148.6,156.7 "/>
<polygon class="st0" points="156,162.5 156.4,162.8 163.2,162.7 163.2,162.8 163.4,162.5 163.9,162.3 164.5,162.3 165.1,162 
	166.7,162.1 167.2,161.9 169,162 169.5,162.2 170.4,162 171.2,162 171.4,162.3 172.8,162.4 173.1,162.2 173.6,162.2 173.9,162.7 
	181.2,162.8 181.9,163.1 182.2,162.8 182.6,162.8 183.3,163.4 183.8,163.3 184.5,163.5 184.9,163.9 185.5,163.8 185.7,163.4 
	186.1,163.5 186.9,164.2 187.4,164 188.6,164 189.1,164.2 189.6,164.4 190.1,164.3 190.2,164.6 190.9,164.5 191,164 190.5,163 
	190.7,162.6 191.4,161.6 191.7,160.8 191.9,160.6 191.7,160.5 191.5,160.1 191.5,159.2 191.3,158 189.5,156.6 188.8,155.9 
	187.9,154.2 186.5,152.2 186.2,150.9 185.3,149.8 183.6,149 183,148.6 183,146.2 182.9,145 182.4,143.5 182.7,142.1 182.2,140.5 
	182,139.3 182.6,138.5 183.2,138.3 184.3,136.7 185,135.3 186,133.3 186.6,132.2 187.4,131.8 188.4,130.3 188.4,130 188.4,129 
	187.4,127.4 186.5,126 185.7,125.2 183.6,123 181.5,121.1 180.5,120.8 180.3,120.1 179.7,119.7 179.5,119.1 179.5,118.1 
	179.9,117.6 179.9,116.5 180.8,116.5 181.8,116.5 182.4,116.7 183.4,116.5 184.2,116.6 185,116.5 186.2,116.7 186.9,117 
	187.6,117.2 188.3,116.7 187.8,116.5 186.3,115.3 185.9,114 185,113.6 184,112.1 184,111 184.7,110.3 185.1,108.8 184.5,108.1 
	184.5,107.6 184.8,107 184.8,106.2 184.1,104.6 183.9,103.6 183.4,103.1 183.1,101.4 181.8,100.2 179,98.7 179,98.7 179.5,100.1 
	179.6,101 179.6,102.8 180.1,103.8 181.1,104.1 181.5,105 181.6,105.7 182,107.2 181.9,107.9 180.5,108.5 179.8,109.4 179.1,109.3 
	178,110.2 177.8,110.7 177.2,111.2 176.3,113.1 175.6,114.2 175.8,115.1 175.8,116.6 175.6,118 174.6,119.2 173,119.7 172.2,120.4 
	172.4,122.2 172,123 171.9,124.3 170.7,125 169.2,126.6 168.7,127.5 168.9,128.3 168.7,129.3 166.9,131.1 166.5,132.4 166.6,133.3 
	165.9,134.3 165,134.6 164.6,135.3 164.6,135.7 163.8,137 162.6,137.7 161.9,137.5 160.9,136.7 160.3,135.6 159.2,135 158.6,135.1 
	157,134.6 156.8,134.3 156.2,135 154.9,135.1 154.7,135.7 154.8,136.9 153.1,138.1 152.6,138.7 151.6,139.4 150.6,140.3 
	150.6,141.1 150,141.6 150,142.8 150.3,144.2 149.6,145.6 148.2,147.3 148.1,148 148.9,148.4 149.8,147.9 150.5,151.4 151.5,151.6 
	152,152.2 153.7,151.4 154.6,152.8 154.2,153.6 154.2,155.2 155.2,156.7 155.5,158.9 154.7,160.9 155.5,161.8 154.6,162.7 
	155.4,162.5 "/>
<polygon class="st0" points="163,195.8 163.6,195.5 164.6,195.4 165,194.8 165.4,194.8 167,196.1 167.1,195.1 166.9,192.2 
	165.9,191.5 165.4,191.1 164.5,191.3 163.6,191.6 163.8,190.5 163.4,189.6 163.9,189.1 165.1,188.9 166.2,189.6 166.8,189.1 
	167.1,188.5 167.9,188.5 170,188.4 170.3,187.4 170,186 170.6,185.4 171.7,185.5 172.6,187.8 173.4,188.8 174.8,188.4 175.5,188.5 
	176.2,188.1 177.4,188 178.6,188.5 178.9,189.3 179.4,189.3 179.5,188.3 179.2,187.2 180.7,183 181.2,180.7 181.3,179.5 
	180.7,178.9 180.4,178.3 179.5,177.5 179.3,177 178.6,176.7 178.4,176.2 178,175.8 178,175.3 178.7,175.1 179,174.7 179.3,174.7 
	179.1,173.9 178.8,173.5 178.8,172.7 180.1,172.1 181.1,171.8 181.3,170.8 180.9,170.1 181.3,169.4 181.2,167.7 180.6,167.3 
	178.8,167.2 177.5,167.7 176.2,168 175.4,167.8 174.5,168.3 174,168 174.2,167.3 173.9,166.4 174,164.9 173.6,163.8 173.9,162.7 
	173.9,162.7 173.6,162.2 173.1,162.2 172.8,162.4 171.4,162.3 171.2,162 170.4,162 169.5,162.2 169,162 167.2,161.9 166.7,162.1 
	165.1,162 164.5,162.3 163.9,162.3 163.4,162.5 163.2,162.8 163.2,169.6 155.4,169.5 155,169.3 154.4,169.4 153.7,169.9 153,169.8 
	152.9,171.1 151.7,171.3 152.8,173.1 154.6,173.6 152.1,174.2 151.4,173.5 151.2,175.1 151,178.3 149.9,179.2 148.5,178.7 
	148.4,179.3 149.6,181.9 150.3,182.4 150.3,183.3 151.3,184.7 151.3,186.4 152.2,187.3 152.8,188.6 154.3,189.8 153.9,190.1 
	155.4,191.8 158,193.9 158.6,195.1 160.6,196.1 160.8,197.1 161.8,197.5 162.1,197.7 162.9,196.5 "/>
<polygon class="st0" points="154.4,169.4 155,169.3 155.4,169.5 163.2,169.6 163.2,162.8 163.2,162.7 156.4,162.8 156,162.5 
	155.4,162.5 154.6,162.7 154.4,162.9 154.8,163.9 153,165.9 151.6,168.7 153,169.4 153,169.8 153.7,169.9 "/>
<polygon class="st0" points="168,202.9 168.4,202.9 169.3,202.4 169.7,201.3 170.5,201.2 171.5,200.4 172,200.4 172.6,200.9 
	173.1,201.7 173.2,202.6 173.3,202.4 174,202.5 174.9,202.1 175.2,202.7 175.2,203.2 176.3,203.2 176.9,202.5 176.9,201.2 
	177.8,201.1 178.5,201.4 179.7,200.3 181.5,199.7 181.4,200.3 180.7,201.6 181,201.8 181.4,202.8 182.7,203.6 184.1,203 
	184.9,201.8 187.3,199.5 187.7,198.6 188.6,198 189.6,197.8 190.6,196.2 190.5,195.2 190.9,193.6 191.1,190.5 190.8,190 
	190.5,188.4 191.2,187.1 192.9,185.3 192.9,184.1 194,182.7 195.4,181.8 196.1,182 197.1,181.2 198.2,180.9 200.1,177.9 
	200.1,175.9 200.6,174 201.4,173.7 201.6,172 201.3,171.7 201.7,170 201.5,169.3 201.7,167.6 202.5,166.5 202.6,165.2 202.9,164 
	202.4,162 204.9,158.8 205.2,157.7 206.3,157.2 206.2,154.8 205.7,153.7 205.7,153.4 205,153.6 204.5,153.8 203.4,153.2 203,152.8 
	202.3,152.8 201.3,152.8 200.7,153.2 199.8,153.1 197.3,154.1 196.9,154.7 195.9,154.9 194.4,156.3 191.7,160.8 191.4,161.6 
	190.7,162.6 190.5,163 191,164 190.9,164.5 190.2,164.6 190.1,164.3 189.6,164.4 189.1,164.2 188.6,164 187.4,164 186.9,164.2 
	186.1,163.5 185.7,163.4 185.5,163.8 184.9,163.9 184.5,163.5 183.8,163.3 183.3,163.4 182.6,162.8 182.2,162.8 181.9,163.1 
	181.2,162.8 173.9,162.7 173.6,163.8 174,164.9 173.9,166.4 174.2,167.3 174,168 174.5,168.3 175.4,167.8 176.2,168 177.5,167.7 
	178.8,167.2 180.6,167.3 181.2,167.7 181.3,169.4 180.9,170.1 181.3,170.8 181.1,171.8 180.1,172.1 178.8,172.7 178.8,173.5 
	179.1,173.9 179.3,174.7 179,174.7 178.7,175.1 178,175.3 178,175.8 178.4,176.2 178.6,176.7 179.3,177 179.5,177.5 180.4,178.3 
	180.7,178.9 181.3,179.5 181.2,180.7 180.7,183 179.2,187.2 179.5,188.3 179.4,189.3 178.9,189.3 178.6,188.5 177.4,188 
	176.2,188.1 175.5,188.5 174.8,188.4 173.4,188.8 172.6,187.8 171.7,185.5 170.6,185.4 170,186 170.3,187.4 170,188.4 167.9,188.5 
	167.1,188.5 166.8,189.1 166.2,189.6 165.1,188.9 163.9,189.1 163.4,189.6 163.8,190.5 163.6,191.6 164.5,191.3 165.4,191.1 
	165.9,191.5 166.9,192.2 167.1,195.1 167,196.1 165.4,194.8 165,194.8 164.6,195.4 163.6,195.5 163,195.8 162.9,196.5 162.1,197.7 
	163.2,198.8 163.6,199.6 165.3,200.7 165.4,201.7 166.3,202.7 166.3,203.8 166.9,204.6 167.5,204.2 "/>
<polygon class="st0" points="169.8,208 170.5,207.3 170.4,205.3 170.8,204.7 172,203.6 173.2,202.6 173.1,201.7 172.6,200.9 
	172,200.4 171.5,200.4 170.5,201.2 169.7,201.3 169.3,202.4 168.4,202.9 168,202.9 167.5,204.2 166.9,204.6 167.6,205.3 168,207 
	167.3,208.2 167.7,208.9 168.7,208.2 "/>
<polygon class="st0" points="316.6,195.7 316.4,194.9 316.7,194.4 315.5,192.5 294.4,180.1 292.8,180.2 284.8,180.6 282.6,180.8 
	275.6,180.8 275.1,181.3 274.6,181.2 274.3,181.6 274.9,182.6 275.6,183.2 275.8,183.9 276.3,184.7 276.7,186.3 276.9,187.5 
	276.6,188.3 276.4,189 275.9,189.5 275.3,189.9 274.7,189.7 274.4,189.5 274.4,190 274.8,190.5 274.8,191.3 275.6,191.7 
	275.8,192.5 276.6,192.6 276.9,194.3 276.8,195.1 275.8,196.1 275.1,196.9 274.4,197.4 272.9,199.1 271.9,200.5 270,201 267.1,201 
	267.8,205.8 269.2,212.6 273.3,218.2 274.7,222.8 276.6,223.7 277.4,223.7 278.3,224 278.9,224 279.7,224.6 279.8,225.1 
	280.5,225.7 281.6,225.8 284.2,226.7 284.8,226.7 285.3,227.2 286,227.3 286.4,228.2 287.4,229.3 287.9,229.3 287.9,229.4 
	288.2,229.2 288.7,229.3 289.1,229.9 289.8,230 290.1,230.4 290.4,230.2 291.1,230.3 291.5,230.6 291.9,230.7 292.1,231 
	292.8,231.4 293.4,232 295.3,234.2 295.6,236.3 295.5,246 296.6,241.9 302.2,241.9 303.1,241.7 303.4,241.2 304.2,241.1 
	304.2,241.6 305,241.8 305.7,242.3 306.4,242.4 307,243 306.8,243.5 308.5,243 309.8,242.1 310.4,241.9 310.9,241.6 311.5,241.9 
	311.6,242.2 312.4,242.3 313.1,242.7 314.3,242.3 315.9,242.1 316.3,241.3 316,240.6 316.4,240.2 317.5,240.6 318.2,240.4 319,241 
	320.1,240.9 320.6,240.4 322.8,239.7 323.6,240.1 324.5,239.8 324.9,239.3 326.2,239.1 327,238.3 328.2,238.1 329.1,237.4 
	329.8,236.5 330.8,236.8 331.3,236.2 331.5,236.1 331.4,236 331.4,235.5 330.1,234.4 328.7,234.2 326.6,232.2 326.8,231.4 
	326.2,229.6 325.7,229 326.2,228.1 325.6,227.5 325.3,226.4 325,225.7 325.3,225.6 324.7,224 324.5,222.8 325.3,222.1 325.4,220.8 
	324.6,219.9 324.4,217.8 324.8,216.4 325.5,216 326,216.1 326.3,215.4 325.5,213.3 324.8,213.4 323.6,212.1 321.9,210.6 
	321.9,209.3 322.8,206.9 324.1,203.1 324.4,202.5 324.3,201.6 324.1,201.3 324.3,201.3 317.1,196.3 "/>
<polygon class="st0" points="273.1,181.5 273.1,182.3 272.7,182.7 271.9,182.7 271.4,182.3 270.8,182 269.8,182.7 268.9,182.9 
	268.6,182.8 267.3,183.9 266.2,185.2 265.4,188.7 265.3,189.6 265.8,189.5 266.8,189.5 267.4,189.7 267.8,190.6 268.8,191 
	269.1,190.6 269.5,190.5 270.1,191.1 271.2,190.7 271.2,190.1 272,188.4 271.9,187.3 272.3,187.3 272.8,187.8 273.5,187.9 
	273.8,188.8 274.4,189.1 274.4,189.5 274.7,189.7 275.3,189.9 275.9,189.5 276.4,189 276.6,188.3 276.9,187.5 276.7,186.3 
	276.3,184.7 275.8,183.9 275.6,183.2 274.9,182.6 274.3,181.6 274.1,181.4 "/>
<polygon class="st0" points="273.8,188.8 273.5,187.9 272.8,187.8 272.3,187.3 271.9,187.3 272,188.4 271.2,190.1 271.2,190.7 
	270.1,191.1 269.5,190.5 269.1,190.6 268.8,191 267.8,190.6 267.4,189.7 266.8,189.5 265.8,189.5 265.3,189.6 265.2,190.2 
	265.9,191.5 266,192.7 266,194.2 267.1,201 270,201 271.9,200.5 272.9,199.1 274.4,197.4 275.1,196.9 275.8,196.1 276.8,195.1 
	276.9,194.3 276.6,192.6 275.8,192.5 275.6,191.7 274.8,191.3 274.8,190.5 274.4,190 274.4,189.5 274.4,189.1 "/>
<polygon class="st0" points="170.5,210.1 170.7,209.8 171.2,209.8 171.5,209.6 172.5,209.3 173.4,209.1 174.3,209.2 175.1,209.3 
	176.3,209.3 177.6,209.2 179.3,209.2 180.2,209.2 182,209.3 184,209.2 188.1,209.2 194.1,209.2 194.1,210 193.9,210.3 194.1,210.9 
	194.6,211.6 194.7,212.3 194.4,212.8 194.4,213.6 195,214.7 195.4,216 195.6,216.5 195.6,217.2 196.1,217.6 196.6,218.3 
	197.4,219.4 197.7,221.5 198.3,221.8 199.8,221.7 200.9,221.5 201.5,221.7 203.5,221.8 204.3,221.4 208.6,221.1 208.6,219.6 
	208.4,218.4 208.9,218.2 209.3,217.3 209.5,215.6 215.1,215.5 215.1,215 216.9,215.2 216.8,215.8 216.5,216.4 216.6,217 
	223.3,217.5 223.5,218.2 223.4,219.1 223.4,219.9 222.9,220.9 222.7,221.8 223.3,222.7 223.3,223.6 223,224 222.9,224.4 
	223.1,225.1 223.3,227.2 222.9,228.3 223.1,228.8 223.2,229.4 223.7,230.1 223.7,230.7 224.1,231 224.4,231.7 224.9,231.8 
	225,232.5 224.8,233.2 224.8,233.9 225.5,234.6 225.5,235.2 225.2,235.6 225.4,236.7 226.1,237.3 225.8,238.1 225.8,238.4 
	225.4,238.8 225.4,239.9 225.6,240.3 226.2,240.2 226.6,239.8 227.1,239.7 227.4,239.5 227.9,239.5 228.7,240 229.4,240.3 
	230.8,240.3 231.4,240.4 232,240.3 232.5,240 233.5,239.6 234.4,239.2 235.5,239.1 235.5,239.2 236,239.6 236.6,239.6 237.6,239.9 
	237.8,240.2 237.9,241.3 238.1,241.6 238.5,241.8 239.1,241.2 239.9,240.8 240.7,240.8 241.1,240.4 242.6,240 243,240.1 243,241.2 
	243.3,241.8 243.4,242.6 243.4,243 243.8,243 244.9,243.5 245.5,243.6 246.8,244.4 247.9,244.6 249.3,244.9 249.4,245.2 
	250.3,245.2 252.1,244.7 252.1,244.1 252.7,242.6 253.4,242.5 253.9,242.2 254.4,242.3 254.4,244 255.3,245 255.4,245.6 
	256.8,246.4 258.9,247.1 260.2,248 261.4,249.6 262.4,250.5 263.6,251.8 264.8,252.9 265.5,252.9 266.5,252.7 267.3,252.3 
	267.7,252.4 267.8,252.8 268.8,252.9 269.1,252.4 268.8,246.3 268,246 266.8,246.3 266.9,246.9 267.2,247.5 267,247.6 264.6,247.6 
	264.1,246.9 263.7,246 262.2,244.3 261.4,243.7 261.4,242.2 261.3,239 261.4,238.2 262.5,237.2 262.9,236.6 262.7,236.3 263.1,236 
	263.3,234.8 263.2,233.9 263.3,233.2 263.2,232.4 263.6,232 263.6,231.3 263.1,231 262.4,230.4 262.1,229.1 264.5,224.7 
	273.8,222.4 274.7,222.8 273.3,218.2 269.2,212.6 267.8,205.8 267.1,201 266,194.2 266,192.7 265.9,191.5 265.2,190.2 265.3,189.6 
	265.4,188.7 266.2,185.2 267.3,183.9 268.9,182.5 268.7,181.2 269.4,179.1 269.6,177 269.7,175.5 270.1,174.8 272.3,170.8 
	272.8,169.9 274.6,167.9 277.6,164 277.7,163.3 277.3,162.4 276.7,161.6 276,161.2 276.2,159.7 276.5,157.7 276.5,156.1 
	277.1,155.4 277.4,154.3 276.9,154 275.5,154.1 275.3,154.1 275.2,153.4 274.9,152.6 274.5,152.1 274.1,151.2 273.5,150.6 
	272,150.1 271.6,149.6 271,148.9 270.3,147.4 269.8,147.1 268.5,147 267.9,147.8 267.4,148.4 266.2,148.7 265.7,148.7 265.6,148.4 
	264.8,148.4 263.5,148.4 262.8,148.7 262.3,149.5 261.7,149.7 260.5,149.2 259.4,148.3 258.7,147.5 258.1,147.4 257.4,146.6 
	257.2,145.7 257.1,145.6 256.9,145.6 255.8,144.9 254.5,144.8 252.7,145.6 252.4,145.4 250.2,145.4 249.4,144.9 248.6,144.7 
	248,144.4 247.3,144.5 246.1,144.3 245.6,143.8 244.7,143.8 244.6,144.3 244.9,144.7 244.1,145.8 243.5,145.8 242.7,146 241.3,146 
	240.6,146.5 240.1,146.5 239.8,145.8 239.4,145.8 239.3,145.3 238.5,145.3 236.1,146.3 235.2,146.7 234.8,147.2 232.3,147.5 
	231.6,147.8 230.9,147.1 229.9,146.9 228.7,146.9 227.9,147.9 227,148.8 227.1,149.5 227.7,150 227.5,150.4 226.1,150.7 
	225.6,150.4 224.2,150.1 223.2,149.7 222.4,149.7 221.7,150.1 220.9,149.9 219.5,149.8 218.3,149.2 217,149.2 216.7,148.9 
	215.2,147.6 214.3,147.3 212.6,145.9 212,145.8 211.1,145.1 210.5,145.1 210.4,145.7 209.4,145.6 208.6,146.4 207.8,146.4 
	207.4,146.8 207.3,147.6 206.8,148.2 206.8,148.8 206.3,149.2 205.5,149.3 205.5,150 206.4,151.2 206.1,151.7 205.8,152.5 
	205.7,153.7 206.2,154.8 206.3,157.2 205.2,157.7 204.9,158.8 202.4,162 202.9,164 202.6,165.2 202.5,166.5 201.7,167.6 
	201.5,169.3 201.7,170 201.3,171.7 201.6,172 201.4,173.7 200.6,174 200.1,175.9 200.1,177.9 198.2,180.9 197.1,181.2 196.1,182 
	195.4,181.8 194,182.7 192.9,184.1 192.9,185.3 191.2,187.1 190.5,188.4 190.8,190 191.1,190.5 190.9,193.6 190.5,195.2 
	190.6,196.2 189.6,197.8 188.6,198 187.7,198.6 187.3,199.5 184.9,201.8 184.1,203 182.7,203.6 181.4,202.8 181,201.8 180.7,201.6 
	181.4,200.3 181.5,199.7 179.7,200.3 178.5,201.4 177.8,201.1 176.9,201.2 176.9,202.5 176.3,203.2 175.2,203.2 175.2,202.7 
	174.9,202.1 174,202.5 173.3,202.4 172,203.6 170.8,204.7 170.4,205.3 170.5,207.3 169.8,208 168.7,208.2 167.7,208.9 168,209.5 
	169.6,209.6 170.3,210.1 170.4,210.1 "/>
<polygon class="st0" points="288.6,230.6 288.9,231.4 289.7,231.9 290.4,232.1 290.4,232.5 289.7,233.9 289.9,234.5 290.8,235.2 
	291.2,236.1 291.2,237.3 290.9,237.7 290.9,238 289.6,239.3 289.5,240.3 289.8,241.3 289.9,242.2 290.1,242.9 289.7,243.6 
	290.2,244.5 290,245.1 289.7,245.4 289.9,246.1 290,246.7 290.6,247.1 290.7,247.5 290.2,247.6 289.9,248.2 289.1,248.6 
	287.8,249.5 287.6,250 287.6,250.8 287.8,251.3 287.6,251.9 287.6,252.7 286.7,253.7 286.1,254 286.3,254.6 287.1,255.5 
	287.6,256.6 287.7,257.2 289.2,256.8 289.6,257.4 289.8,258 290.3,258.6 290.4,259.3 291.3,259.9 291.8,259.6 292.5,259.6 
	293,259.1 294.2,259 295.7,259.4 296.3,260.3 296.3,261.9 296.1,263.2 294.9,264.5 294.7,265.8 293.9,266.9 294,267.8 294.5,269.1 
	294.7,270 295.6,271.2 296.6,272.1 297.3,272.5 298,273.1 298.8,274.1 298.4,274.8 298.7,275.6 299.8,275.4 300,274.3 299.6,272.9 
	300.2,271.9 300.4,270.8 301,269.3 302.1,269 302.9,268.3 303.3,267.4 303.3,265.3 302.7,264.6 302.9,264.1 302.6,263.7 
	302.8,263.2 303.4,263.1 303.6,262.5 304.4,262.3 304.4,261.7 304,260.9 303.5,259.5 302.2,257.7 301.8,256.8 299.8,254.8 
	299.3,254.7 298.8,254.1 298,253.3 296.2,252.4 295.2,247.1 295.5,246 295.6,236.3 295.3,234.2 293.4,232 292.8,231.4 292.1,231 
	291.9,230.7 291.5,230.6 291.1,230.3 290.4,230.2 290.1,230.4 289.8,230 289.1,229.9 288.7,229.3 288.2,229.2 287.9,229.4 
	288.2,230.2 "/>
<polygon class="st0" points="264.5,224.7 262.1,229.1 262.4,230.4 263.1,231 263.6,231.3 263.6,232 263.2,232.4 263.3,233.2 
	263.2,233.9 263.3,234.8 263.1,236 262.7,236.3 262.9,236.6 262.5,237.2 261.4,238.2 261.3,239 261.4,242.2 261.4,243.7 
	262.2,244.3 263.7,246 264.1,246.9 264.6,247.6 267,247.6 267.2,247.5 266.9,246.9 266.8,246.3 268,246 268.8,246.3 269.1,252.4 
	268.8,252.9 267.8,252.8 267.7,252.4 267.3,252.3 266.5,252.7 265.5,252.9 264.8,252.9 263.6,251.8 262.4,250.5 261.4,249.6 
	260.2,248 258.9,247.1 256.8,246.4 255.4,245.6 255.3,245 254.4,244 254.4,242.3 253.9,242.2 253.4,242.5 252.7,242.6 252.1,244.1 
	252.1,244.7 250.3,245.2 249.4,245.2 249.3,244.9 247.9,244.6 246.8,244.4 245.5,243.6 244.9,243.5 243.8,243 243.4,243 
	243.4,242.6 243.3,241.8 243,241.2 243,240.1 242.6,240 241.1,240.4 240.7,240.8 239.9,240.8 239.1,241.2 238.5,241.8 238.1,241.6 
	237.9,241.3 237.8,240.2 237.6,239.9 236.6,239.6 236,239.6 235.5,239.2 235.5,239.4 235.5,239.9 235.2,240.3 235.5,242.7 
	235.5,244.8 235.5,246 236.1,247.1 236.2,248 235.7,248.5 235.4,250.1 235.8,250.7 223.4,250.7 223.1,269.9 223.3,270.6 
	224.1,271.6 224.8,272.2 225.3,272.8 226,273.2 227.2,274.7 227.9,275.3 228.8,275.6 229.2,276.3 229.9,277.1 230.6,277.4 
	230.9,278.3 236.4,277.1 237,277.2 238.3,276.8 238.6,277 238.9,277 239.3,277.3 239.9,277.3 240.2,277.5 240.5,277.6 241.3,278.6 
	241.9,278.7 243.3,278.8 244.3,279.4 244.9,279.8 245.5,279.9 246.5,279.1 247.7,279 248.3,279.3 248.6,279.2 248.9,279.4 
	249.1,279.4 249.9,280.1 251,280.4 252.6,279.9 254.3,277.4 257,274 260.4,271.7 262.3,271.1 262.8,270.7 262.9,270.2 262.8,269.7 
	263.1,269.1 262.9,268.6 263.4,267.8 265,266.9 265.9,266.7 266.7,266.3 267.8,265.9 269.4,265.9 269.7,266.2 270.3,266.2 
	271.5,266.3 272,266.2 272.2,266.2 272.1,265.6 271.7,263.8 272.2,263 274.4,261.8 275.6,261.8 281.5,259.4 282.5,259.1 
	285.9,257.8 287.6,257.2 287.7,257.2 287.6,256.6 287.1,255.5 286.3,254.6 286.1,254 286.7,253.7 287.6,252.7 287.6,251.9 
	287.8,251.3 287.6,250.8 287.6,250 287.8,249.5 289.1,248.6 289.9,248.2 290.2,247.6 290.7,247.5 290.6,247.1 290,246.7 
	289.9,246.1 289.7,245.4 290,245.1 290.2,244.5 289.7,243.6 290.1,242.9 289.9,242.2 289.8,241.3 289.5,240.3 289.6,239.3 
	290.9,238 290.9,237.7 291.2,237.3 291.2,236.1 290.8,235.2 289.9,234.5 289.7,233.9 290.4,232.5 290.4,232.1 289.7,231.9 
	288.9,231.4 288.6,230.6 288.2,230.2 287.9,229.4 287.9,229.3 287.4,229.3 286.4,228.2 286,227.3 285.3,227.2 284.8,226.7 
	284.2,226.7 281.6,225.8 280.5,225.7 279.8,225.1 279.7,224.6 278.9,224 278.3,224 277.4,223.7 276.6,223.7 274.7,222.8 
	273.8,222.4 "/>
<polygon class="st0" points="164.8,276.2 165.1,276.5 165.6,276.3 165.8,275.6 166.1,275.4 167.5,275.6 168.3,276 168.8,275.7 
	169,274.8 170.6,273.7 171.4,273.6 172.3,274 172.6,274.2 172.9,273.9 173.4,273.8 174.1,274.2 174.2,274.5 174.9,274.8 
	174.7,275.3 175.1,275.5 176.4,276.6 177.6,277.1 178.6,276.6 178.8,276.6 179.6,276.1 180.2,276 180.5,276.3 202.1,276.3 
	202.4,276.5 203,277.6 203.4,278 204.6,278.5 205.8,278.8 206.7,278.6 207.3,278.9 207.5,279.3 208.3,279.6 209.1,279.1 
	210.1,278.8 211.5,279.2 212.3,279.1 212.5,278.4 212.8,278.6 213.5,278.6 214.7,279.8 215.7,280.2 216.9,280.3 217.3,280.1 
	217.4,279.7 218,279.5 218.6,279.6 219,279.9 219.5,279.8 219.8,280.2 220.3,280.2 220.5,280.4 221.1,280.4 221.5,280.4 
	221.9,280.4 230.9,278.3 230.6,277.4 229.9,277.1 229.2,276.3 228.8,275.6 227.9,275.3 227.2,274.7 226,273.2 225.3,272.8 
	224.8,272.2 224.1,271.6 223.3,270.6 223.1,269.9 223.4,250.7 235.8,250.7 235.4,250.1 235.7,248.5 236.2,248 236.1,247.1 
	235.5,246 235.5,244.8 235.5,242.7 235.2,240.3 235.5,239.9 235.5,239.4 235.5,239.2 235.5,239.1 234.4,239.2 233.5,239.6 
	232.5,240 232,240.3 231.4,240.4 230.8,240.3 229.4,240.3 228.7,240 227.9,239.5 227.4,239.5 227.1,239.7 226.6,239.8 226.2,240.2 
	225.6,240.3 225.4,239.9 225.4,238.8 225.8,238.4 225.8,238.1 226.1,237.3 225.4,236.7 225.2,235.6 225.5,235.2 225.5,234.6 
	224.8,233.9 224.8,233.2 225,232.5 224.9,231.8 224.4,231.7 224.1,231 223.7,230.7 223.7,230.1 223.2,229.4 223.1,228.8 
	222.9,228.3 223.3,227.2 223.1,225.1 222.9,224.4 223,224 223.3,223.6 223.3,222.7 222.7,221.8 222.9,220.9 223.4,219.9 
	223.4,219.1 223.5,218.2 223.3,217.5 216.6,217 216.5,216.4 216.8,215.8 216.9,215.2 215.1,215 215.1,215.5 209.5,215.6 
	209.3,217.3 208.9,218.2 208.4,218.4 208.6,219.6 208.6,221.1 204.3,221.4 203.5,221.8 201.5,221.7 200.9,221.5 199.8,221.7 
	198.3,221.8 197.7,221.5 197.4,219.4 196.6,218.3 196.1,217.6 195.6,217.2 195.6,216.5 195.4,216 195,214.7 194.4,213.6 
	194.4,212.8 194.7,212.3 194.6,211.6 194.1,210.9 193.9,210.3 194.1,210 194.1,209.2 188.1,209.2 184,209.2 182,209.3 180.2,209.2 
	179.3,209.2 177.6,209.2 176.3,209.3 175.1,209.3 174.3,209.2 173.4,209.1 172.5,209.3 171.5,209.6 171.2,209.8 170.7,209.8 
	170.5,210.1 170.4,210.1 170.3,210.1 168.7,211 169.3,211.8 169.3,212.6 172.4,216.1 172.6,220.6 174.3,223.1 174,225.3 
	172.2,227.7 173.2,228.2 173.2,230.3 174.1,231.7 174.1,233.2 176.3,236.8 176.2,237.7 176.9,238.6 176.9,243.6 174.6,247.9 
	173.9,247.9 171.4,249.8 171.3,251.2 168.2,254 168.1,255.9 167.6,256.4 167.6,261 166.2,262.8 165.8,265 164.3,266.9 164.3,269 
	164,270.8 164.1,273.6 163.8,275.4 163.9,276 163.9,276 "/>
<polygon class="st0" points="271.5,266.3 270.3,266.2 269.7,266.2 269.4,265.9 267.8,265.9 266.7,266.3 265.9,266.7 265,266.9 
	263.4,267.8 262.9,268.6 263.1,269.1 262.8,269.7 262.9,270.2 262.8,270.7 262.3,271.1 260.4,271.7 257,274 254.3,277.4 
	252.6,279.9 251,280.4 249.9,280.1 249.1,279.4 248.9,279.4 248.6,279.2 248.3,279.3 247.7,279 246.5,279.1 245.5,279.9 
	244.9,279.8 244.3,279.4 243.3,278.8 241.9,278.7 241.3,278.6 241.4,278.6 241.6,279.2 241.4,279.7 241.6,280.1 241.6,280.7 
	242.4,281.4 242.8,281.8 243.6,282.3 244,282.9 244.2,283.5 244.5,283.7 245,284.7 245.3,285.7 245.8,286.2 246.1,287.1 
	246.7,287.6 247,287.6 247.5,288.3 249.1,290.9 250.2,291.5 251.2,292.3 251.8,292.8 252.6,293.3 252.6,293.6 252.5,294 
	252.7,294.5 253.7,294.9 254.6,295.6 254.4,296.3 254.6,297.7 254.7,298.6 255.1,299.5 256.1,300.3 256.7,301.3 258,301.6 
	258.7,301.3 260.2,301.8 260.9,301.8 262,302.5 262.8,302.6 263.3,303 263.3,303.7 263.7,304.2 264.2,304.7 266.1,304.5 
	267.5,304.7 267.9,305.5 268.8,305.4 270,306 270.4,306.4 271.2,306 272.8,305.8 274.7,306.2 275.6,307 282,300.6 282.1,298.7 
	282.4,298 282.4,296.3 282.8,295.6 282.5,294.6 282.7,293.8 283.5,293.8 283.8,293.1 284.9,292.2 285.7,291.2 285.4,290.4 
	284.7,289.8 284.7,288.7 285.4,288.3 285.1,287.3 284.2,286.5 284.2,285.8 284.9,285.6 285,284.4 285,283.4 285.9,282.8 
	286.3,281.9 285.3,282.1 284.9,281.5 285.5,280.5 285.6,278.8 286.1,278 286.1,277.3 286,276.6 286.2,275.7 286,274.9 286.5,274 
	286.4,273 285.2,273 284.5,272.2 283.5,271.4 281.7,271.2 280.7,271 279.7,269.7 278.1,268.8 276.5,268.4 276.1,269 275.5,269.1 
	275.2,268.5 274.3,268.3 272.3,268.3 272.2,266.2 272,266.2 "/>
<polygon class="st0" points="263.3,303.7 263.3,303 262.8,302.6 262,302.5 260.9,301.8 260.2,301.8 258.7,301.3 258,301.6 
	256.7,301.3 256.1,300.3 255.1,299.5 254.7,298.6 254.6,297.7 254.4,296.3 254.6,295.6 253.7,294.9 252.7,294.5 252.5,294 
	252.6,293.6 252.6,293.3 251.8,292.8 251.2,292.3 250.2,291.5 249.1,290.9 247.5,288.3 247,287.6 246.7,287.6 246.1,287.1 
	245.8,286.2 245.3,285.7 245,284.7 244.5,283.7 244.2,283.5 244,282.9 243.6,282.3 242.8,281.8 242.4,281.4 241.6,280.7 
	241.6,280.1 241.4,279.7 241.6,279.2 241.4,278.6 241.3,278.6 241.3,278.6 240.1,279 238.3,279.6 237.5,280.1 236.8,280 
	236.5,279.6 235.3,279.7 234.1,280.9 233,282.3 231.1,283.6 230.7,283.5 230.8,282.7 231.1,282.3 230.7,281.9 230.4,281.1 
	230,280.9 229.8,281 229,281.1 227.3,281.6 221.7,282.9 217.4,282.7 216.4,303.3 211.3,303.4 210.3,321.6 210.3,321.7 210.3,321.8 
	210.3,321.7 212.2,323.1 212.8,324.7 214.3,327.9 214.2,329.5 213.4,331.3 213.4,332.4 214.9,332.2 216.4,332.5 217.3,332.1 
	218.7,332.3 219.6,331.7 220.8,331.4 221.9,330.5 222.4,329.8 224.3,329.1 225.3,328 226.2,325.7 227.7,324.3 229.2,324.1 
	231.1,324.4 231.7,325.2 232.3,325.2 234.5,326.4 235.4,326.3 236.4,326.6 237.6,326.3 238.9,326.3 239.8,326.2 240.3,326.8 
	241,327 242.3,326.2 242,325.8 242.3,324.7 242.3,324 242.8,323.4 242.7,321.9 243.2,321 244.4,320.7 245.2,320.2 246,320.1 
	246.4,319.6 246.7,319.3 247,318.6 247.8,317.9 248.5,317.7 248.8,317.3 249.6,317.1 249.6,316.2 249.3,315.7 249.5,314.3 
	251,312.3 251.9,311.9 252.5,311.7 252.9,311.2 253.7,310.9 254,310.3 254.7,309.9 255.3,309.3 256.5,308.3 257.7,308.1 258,308.3 
	258.6,308.2 259.5,308.2 260.3,307.4 261.2,307.3 261.5,306.4 261.4,305.8 262,305.3 263,305.3 263.5,304.8 264.2,304.7 
	263.7,304.2 "/>
<polygon class="st0" points="191.1,343 191.1,342.3 190.7,342 191.3,341 192.7,340.4 193.3,341.6 194.5,341.7 194,342.9 
	194.8,344.6 196.7,345 198,345.7 198.9,345.5 199.5,345.7 200.5,345.9 201,345.5 201.8,345.5 202.2,346.2 203.1,346.1 203.8,346.3 
	203.8,345.1 204.3,344.6 205,344.3 205.6,343.2 207.1,342.4 208.9,342.6 209.5,342.6 210.3,321.8 210.3,321.7 210.3,321.6 
	211.3,303.4 216.4,303.3 217.4,282.7 221.7,282.9 227.3,281.6 229,281.1 229.8,281 230,280.9 230.4,281.1 230.7,281.9 231.1,282.3 
	230.8,282.7 230.7,283.5 231.1,283.6 233,282.3 234.1,280.9 235.3,279.7 236.5,279.6 236.8,280 237.5,280.1 238.3,279.6 240.1,279 
	241.3,278.6 240.5,277.6 240.2,277.5 239.9,277.3 239.3,277.3 238.9,277 238.6,277 238.3,276.8 237,277.2 236.4,277.1 230.9,278.3 
	221.9,280.4 221.5,280.4 221.1,280.4 220.5,280.4 220.3,280.2 219.8,280.2 219.5,279.8 219,279.9 218.6,279.6 218,279.5 
	217.4,279.7 217.3,280.1 216.9,280.3 215.7,280.2 214.7,279.8 213.5,278.6 212.8,278.6 212.5,278.4 212.3,279.1 211.5,279.2 
	210.1,278.8 209.1,279.1 208.3,279.6 207.5,279.3 207.3,278.9 206.7,278.6 205.8,278.8 204.6,278.5 203.4,278 203,277.6 
	202.4,276.5 202.1,276.3 180.5,276.3 180.2,276 179.6,276.1 178.8,276.6 178.6,276.6 177.6,277.1 176.4,276.6 175.1,275.5 
	174.7,275.3 174.9,274.8 174.2,274.5 174.1,274.2 173.4,273.8 172.9,273.9 172.6,274.2 172.3,274 171.4,273.6 170.6,273.7 
	169,274.8 168.8,275.7 168.3,276 167.5,275.6 166.1,275.4 165.8,275.6 165.6,276.3 165.1,276.5 164.8,276.2 163.9,276 163.9,276 
	164.2,280.9 167.6,284.4 169.4,287.6 172.3,294 172.7,296.5 175.6,300.6 175.6,302.2 178.6,306.6 178.6,309 177.9,309.3 
	178.7,312.3 178.9,316.7 180.6,321.2 180.4,323.7 180.9,325.3 180.1,325.8 180.8,326.7 181.2,329.7 182,330.1 182.5,331.2 
	181.9,331.6 181.9,332.8 182.8,333.8 182.9,336 184,337.5 185.4,340.2 186.8,341.6 187.1,342.4 189,343.8 189.9,343.3 "/>
<polygon class="st0" points="428.5,293.2 427.8,292.8 427.1,293.2 426.3,293.1 426.1,294.5 425.3,295.1 426.9,296.6 428.1,295.8 
	428,294.7 428.6,294.1 "/>
<polygon class="st0" points="415.7,297.9 414.6,297.4 413.9,297.6 413.8,299.3 414.9,300.8 415.5,301.2 417.1,299.8 416.5,299.5 "/>
<polygon class="st0" points="376.9,252.9 377.1,252.6 376.9,252.2 376.7,252.5 "/>
<polygon class="st0" points="383.1,273.2 382.8,273.7 382.7,274.5 382.7,275.2 383.2,274.1 383.6,273.5 383.9,272.5 383.5,273.1 "/>
<polygon class="st0" points="385.4,262.3 385.2,261.3 385.5,260.7 385.5,259.5 385.1,257.9 385.4,257.3 385.5,254.4 384.6,253.2 
	384.5,250.7 384.1,249.8 383.6,250 382.6,248.7 382.5,247.5 381.5,247.1 382.1,245.9 381.7,244.8 380.2,246.1 380.6,246.9 
	379.6,247.6 378.6,246.9 378,246.9 378.9,248.2 378.9,248.9 379.6,249.7 379.6,250 378.5,251.1 378.5,252.8 377.8,253.9 377,253.6 
	376,254.7 375.9,255.7 375.2,256.2 374.5,255.8 374.4,254.6 373.9,254.3 373.2,255.1 373.1,256.4 374.2,257.6 374.5,258.1 
	374.1,258.5 373.5,258.3 372.2,258.5 372.5,259.7 373.6,260 373.8,260.7 373.3,261.3 372.7,260.6 371.8,261 371.7,261.6 370.1,263 
	370,261.7 370.3,261.4 369.9,260.7 368.8,261.7 369.5,262.1 369.3,262.6 367.9,263.4 368.4,264.4 369.2,264.7 369.1,265.3 
	368.4,265.4 367.5,266.1 367.4,265.3 366.8,265.2 367.4,264.3 366.9,264 364.8,265.7 364.4,267.4 364.7,268.1 364.4,268.8 
	363.6,268.5 363.2,268.1 363.2,266.6 362.6,266.6 361.3,267.9 359.8,266.9 359.5,267.3 359,267.4 359.2,269 358.7,268.9 
	358.4,269.1 358.3,268.2 357.8,267.9 357.1,268.8 356.6,267.9 354.3,270 353.7,270.1 353.2,269.7 352,269.6 351.5,270.4 
	351.7,272.2 350,274.9 350.1,275.4 348.5,277.1 348.5,277.9 349.3,278.7 348.6,279.8 349.1,281.4 349.1,282.8 350.7,285.9 
	350.5,286.7 351.5,287.8 351.6,288.3 350.8,289.1 351,289.9 350.5,292.6 349.3,293.3 349,294.8 348.4,294.9 348,295.9 347,296.8 
	346.9,298.9 346.2,299.7 344.5,300.1 344.1,300.6 344.2,302.5 343,303.8 343.1,305.3 342.7,306.2 343,306.9 343.1,308.8 
	344.5,310.5 344.3,311.9 344.6,312.7 345.3,313.1 345.7,313 345.3,313.4 344.2,313.7 344.3,314.8 344.4,316.7 344.3,319.1 
	344.7,319.6 344.7,320.4 345.4,320.8 346.1,322 346.8,322.3 347.3,323.1 348,324 348.8,323.7 349.1,324.1 350,324.3 351,325.6 
	351.7,325.7 351.7,326.2 352,326.5 352.8,326 354,326.1 355.4,325.3 356.5,324 360.1,323.7 361.2,324 363.1,323.2 363.6,322.2 
	364.5,322.1 365.1,320.3 366,318.8 366.1,317.8 367.2,317.1 367.1,315.3 366.8,315.1 367.6,314.5 368.1,312.6 368,312.3 
	368.4,312.3 369.5,310.6 370.3,306.7 370.9,304.6 371.8,303.7 372.3,301.4 373.8,298.6 375.3,293.9 376.4,292.4 376.4,290.2 
	377.6,288.1 377.7,287.3 379,285.3 379.7,282 380.2,279.7 380.8,279.1 381.1,277.4 380.6,276.6 380.9,275.1 382.1,273.5 
	381.9,272.7 382.7,271.7 382.5,270.3 382.1,269.8 382.6,268.8 382.5,267.4 382.1,267.1 382,265.8 382.8,265.4 383.4,265.8 
	383.6,267 384.6,268.3 385.3,268.5 385.7,267.8 385.8,266.8 386.1,266.4 386.2,265.4 386.6,265 386.6,263.8 "/>
<polygon class="st0" points="377.8,249.6 377.8,249.2 376.8,250.2 377.1,250.7 "/>
<polygon class="st0" points="375.7,253.6 375.9,252.6 375.3,252.2 375.1,251.9 374.9,252.2 374.3,253.1 375.1,253.1 "/>
<polygon class="st0" points="330.8,236.8 329.8,236.5 329.1,237.4 328.2,238.1 327,238.3 326.2,239.1 324.9,239.3 324.5,239.8 
	323.6,240.1 322.8,239.7 320.6,240.4 320.1,240.9 319,241 318.2,240.4 317.5,240.6 316.4,240.2 316,240.6 316.3,241.3 315.9,242.1 
	314.3,242.3 313.1,242.7 312.4,242.3 311.6,242.2 311.5,241.9 310.9,241.6 310.4,241.9 309.8,242.1 308.5,243 306.8,243.5 307,243 
	306.4,242.4 305.7,242.3 305,241.8 304.2,241.6 304.2,241.1 303.4,241.2 303.1,241.7 302.2,241.9 296.6,241.9 295.2,247.1 
	296.2,252.4 298,253.3 298.8,254.1 299.3,254.7 299.8,254.8 301.8,256.8 302.2,257.7 303.5,259.5 304,260.9 304.4,261.7 
	304.4,262.3 303.6,262.5 303.4,263.1 302.8,263.2 302.6,263.7 302.9,264.1 302.7,264.6 303.3,265.3 303.3,267.4 302.9,268.3 
	302.1,269 301,269.3 300.4,270.8 300.2,271.9 299.6,272.9 300,274.3 299.8,275.4 298.7,275.6 298.4,274.8 298.8,274.1 298,273.1 
	297.3,272.5 296.6,272.1 295.6,271.2 294.7,270 294.5,269.1 294,267.8 293.9,266.9 294.7,265.8 294.9,264.5 296.1,263.2 
	296.3,261.9 296.3,260.3 295.7,259.4 294.2,259 293,259.1 292.5,259.6 291.8,259.6 291.3,259.9 290.4,259.3 290.3,258.6 289.8,258 
	289.6,257.4 289.2,256.8 287.7,257.2 287.6,257.2 285.9,257.8 282.5,259.1 281.5,259.4 275.6,261.8 274.4,261.8 272.2,263 
	271.7,263.8 272.1,265.6 272.2,266.2 272.3,268.3 274.3,268.3 275.2,268.5 275.5,269.1 276.1,269 276.5,268.4 278.1,268.8 
	279.7,269.7 280.7,271 281.7,271.2 283.5,271.4 284.5,272.2 285.2,273 286.4,273 286.5,274 286,274.9 286.2,275.7 286,276.6 
	286.1,277.3 286.1,278 285.6,278.8 285.5,280.5 284.9,281.5 285.3,282.1 286.3,281.9 285.9,282.8 285,283.4 285,284.4 284.9,285.6 
	284.2,285.8 284.2,286.5 285.1,287.3 285.4,288.3 284.7,288.7 284.7,289.8 285.4,290.4 285.7,291.2 284.9,292.2 283.8,293.1 
	283.5,293.8 282.7,293.8 282.5,294.6 282.8,295.6 282.4,296.3 282.4,298 282.1,298.7 282,300.6 275.6,307 275.8,307.1 276.1,308.7 
	276.5,310.2 277.2,311.6 277.2,314.3 277.1,314.6 277.1,315.7 277.5,316.8 277.9,318.1 277.8,322.6 277.4,324.4 277.3,326.1 
	277.3,328 277.4,328.2 278,328.5 278.6,329.1 279.1,329.9 278.9,330.3 278.8,331 278.6,332 278.7,332.5 279.2,332.3 281.2,332.8 
	282.4,332.8 282.4,331.9 283,330.9 283.2,329.3 283.2,328.8 282.8,328.8 282.5,329.8 281.7,329.6 281.2,330.2 281.2,329.2 
	280.7,328.1 280.4,327.8 281,327.5 281.6,327.5 282,326.1 282.7,325.5 283.2,324.8 284.6,324.4 286.6,322.6 291.6,321.6 
	295.4,319.9 297.5,317.7 297.8,316.2 298.5,315.1 298.3,314.4 297.4,315 297.2,314 297.5,314 297.6,312.8 298.1,312.1 298.1,311.2 
	298.8,309.4 298.6,309.1 298.7,307.6 299.1,307 299.2,305.4 298.9,305.5 298.8,304.2 298.2,305.6 298.2,306.6 297.8,306.7 
	297.5,305.4 297.7,301.8 297.1,300.6 297,299.2 296.4,298.2 295.8,298 296.6,297.3 296.5,296.6 294.9,294.3 295.5,293.4 
	295.3,292.6 295.7,292 295.8,291.1 295.2,290.4 295.2,289.9 295.8,289.9 296.9,290.6 297.5,289.8 298.9,289.8 299.9,289.1 
	299.7,287.8 302.8,285.7 304.1,285.7 304.1,284.9 304.6,284.7 305.2,284.2 305.3,283.6 307.6,282.2 307.8,281.3 308.5,281.2 
	308.7,279.7 309.1,280.6 309.8,280.3 311.2,278.6 311.3,277.9 311.8,278.2 314.1,276.7 315.8,275.9 315.9,275.6 317.3,275.8 
	320.9,273.8 321.3,273 321.8,273 325.6,270.9 325.6,269.8 326.5,269.7 327.6,268.1 327.6,267.4 328.9,265.8 329.6,265.7 
	329.8,264.5 330.3,263.8 329.6,263.7 329.3,263.9 329.1,263.6 329.9,262.8 330.6,262.8 330.8,262.2 330.5,261.7 331.1,261.4 
	331.6,260.5 331.4,258.3 331.1,258.1 329.9,258 329.6,257.6 329.7,257.3 330.5,257.1 330.5,254.6 330.2,254.1 330.4,254.1 
	330.8,251.2 330.6,249.7 331.2,249.1 331.2,247.7 330.9,247.3 330.9,245.8 331.2,245.5 330.6,244.3 330.3,242.2 330.7,241.8 
	330.6,241.4 330.4,241 330.6,240.4 331.7,238.7 331.4,238.4 331.7,237.7 332,236.4 331.5,236.1 331.3,236.2 "/>
<polygon class="st0" points="276.3,327.6 275.4,326.8 274,326 273,326.5 272.7,327.6 271.3,330.2 270.8,331.6 271.1,332.3 
	271.8,332.9 272.4,334.1 274.3,335.1 276.5,335.2 277.4,334.9 277.7,333.9 277.6,333 278.3,332.5 278.7,332.5 278.6,332 278.8,331 
	278.9,330.3 279.1,329.9 278.6,329.1 278,328.5 277.4,328.2 277.3,328 277.3,328 "/>
<polygon class="st0" points="260.7,346 259.5,345 258.6,345.3 257.8,344.7 257.4,344.9 256.9,344.5 256.1,344.5 255.9,345 
	255.1,345.4 254.6,346 252.5,346.3 251.2,347.4 250.7,348.9 249.2,350.1 248.4,350.7 248.9,351.8 249.5,352.4 249.7,353 
	250.4,353.8 250.5,354.9 251.3,355.7 251.9,356.5 253.2,357 254.3,357 254.6,356.4 255,355.9 255.5,354.5 256.5,354.2 257.2,353.7 
	258.2,353.6 258.9,353.8 260,353.1 260.2,352.1 259.8,351.7 259.7,351 260.7,350.5 261.7,349.6 261.7,348.2 "/>
<path class="st0" d="M247.6,119.1c2.5-0.9,5-0.6,7.5-0.5c0,0.3,0.1,0.5,0.4,0.7c0,0.7,0.4,1,1.1,1c0.9,0,1.8-0.1,2.7,0
	c1,0.1,1.6-0.3,1.7-1.4c0.2,0,0.3-0.1,0.3-0.3c1-0.2,1.5-1.2,2.7-1.1c1.7,0.2,1.7,0,1.8-1.8c0-0.2,0-0.3,0-0.5
	c0.2-0.1,0.3-0.2,0.3-0.4c0.2,0,0.3-0.1,0.5-0.1c0,0,0-0.1,0-0.1l0.7-0.2c0.7-0.3,1.3-0.3,1.9-0.3c0,0.2,0.1,0.3,0.3,0.4
	c0.3,0.5,0.8,0.7,1.4,0.7c0.2,0.3,0.4,0.3,0.7,0.3c0,0.2,0.2,0.3,0.3,0.4c0.1,0.2,0.2,0.3,0.4,0.3c0.1,0.3,0.4,0.4,0.7,0.4
	c0.1,0.2,0.2,0.3,0.4,0.3c0,0.2,0.2,0.3,0.3,0.3c0.2,0.4,0.5,0.8,0.9,0.6c0.9-0.5,2.2,0.2,2.9-0.9c0.2,0,0.3-0.1,0.3-0.3
	c0.2,0,0.3-0.2,0.3-0.3c0.1-0.1,0.2-0.3,0.3-0.4l0.3-0.3c0.1-0.1,0.2-0.2,0.3-0.4c0,0-0.1-0.1-0.1-0.1l0.7-0.8
	c0.1,0,0.2-0.1,0.2-0.2c0.2-0.1,0.3-0.2,0.3-0.3c0.6-0.1,0.7-0.6,0.7-1c0.3-0.2,0.3-0.4,0.3-0.7c0.2,0,0.3-0.1,0.3-0.3
	c0.3-0.1,0.4-0.4,0.4-0.7c0.3,0,0.5-0.1,0.7-0.3c0.6-0.1,0.9-0.4,1.1-1c0.3-0.1,0.5-0.1,0.6-0.4c0.4-0.2,0.8-0.5,0.6-0.9
	c-0.4-1.1-0.2-2.3-0.3-3.5c0-0.5-0.2-0.9-0.7-1.1c-0.1-0.2-0.2-0.3-0.4-0.3c-0.1-0.2-0.2-0.3-0.3-0.4c0.8-0.6,1.7-0.2,2.6-0.3
	c0.7-0.1,1-0.2,1.1-0.9c0.1-0.8,1-1.1,2.1-0.8c0.9,0.2,0.7,0.9,0.5,1.3c-1,2.4-0.2,4.8,0,7.2c0.1,0.9,0.5,1.5,1.5,1.5
	c0.1,0.3,0.4,0.3,0.7,0.3c0,0.2,0.1,0.3,0.3,0.3c-0.1,0.3,0.1,0.5,0.3,0.7c0.1,0.1,0.2,0.2,0.3,0.3c0.1,0.2,0.2,0.3,0.3,0.4
	c0.1,0.2,0.2,0.3,0.4,0.3c0,0.2,0.1,0.3,0.3,0.3c0,0.3,0.1,0.5,0.3,0.7c0,0.2,0.1,0.3,0.3,0.3c0,1.1-0.3,2.1-0.5,3.2
	c-0.1,0.3-0.1,0.6-0.1,0.8c0.1,0.2,0.2,0.4,0.7,0.4c0.5,0.1,0.6,0.3,0.6,0.7l0.1,2.1l-0.2,2.7l-0.8,0.6l-0.4,0.6l-0.7-0.1l-0.6-0.4
	l-1.1,0.3l-1.3-0.3l-0.1,1.3l-0.5,0.3l-0.9,1.3l0.4,0.8l1,0.4l2.4,0l0.5,0.7l1,1l0.2,0.8l0.4,0.3l1.1,2l1,0.5l0,0.5l0.4,0.4h1.1
	l0.7,0.9l0.5,0.9l1,1l0.3,2.1l0.6,0.7l0.4,2l-1.9,2.2l-1.4,2.2l-0.5-0.2l-1.1,1l-0.5,0.8l-0.4,0.2l-0.7,0.9L294,151l-0.7,0.9
	l-1.3,0.6l-1.3-0.4l-2,0.1l-1.3,0.6h-0.9l-0.4,0.2l-0.7-0.2l-0.7,0.7v0.9H284l-1.3-0.4l-0.1-0.9l-1-0.3l-0.9,0.3l-1.5-0.5l-1.1-0.4
	l-0.7,0.7l-0.1,0.8l0.3,0.5l-0.1,0.2L277,154l-1.4,0h-0.2l-0.1-0.7l-0.3-0.8l-0.4-0.5l-0.4-0.9l-0.6-0.6l-1.5-0.5l-0.3-0.5l-0.6-0.8
	l-0.7-1.4l-0.5-0.3l-1.3-0.1l-0.6,0.8l-0.5,0.6l-1.2,0.3l-0.5,0l-0.2-0.3l-0.7-0.1h-1.4l-0.7,0.4l-0.4,0.7l-0.6,0.2l-1.1-0.4l-1.2-1
	l-0.7-0.7l-0.7-0.2l-0.6-0.7l-0.2-0.9l-0.2-0.1v-0.2l-0.4-0.7l-1-0.7l-0.7-0.5l-0.2-1.7l0.2-0.5l-0.9-0.7l-1.9-0.5l-0.5-0.6l0.1-1.1
	l-0.3-0.4l-1.2-0.4l-0.5-0.6l-0.1-1.7l-0.4-0.7l-1.9-1.1l-0.4,0.1l-0.9-0.5l-0.4,0.2l-1-0.3l-1.1-1l0.4-0.5l0.1-0.5l0.7-0.6l0.3-0.8
	l-0.5-0.6l-1-0.1l-1.1-0.5l-0.3-0.8l-0.9-0.5l-1-0.1l-1.3-0.5l-1-0.8l-0.2-1l0.4-0.8l-0.5-0.4l-1.7-0.1l-0.4,0.5l-1.5,0l-0.8-0.7
	l-0.1-1.7l0.4-1.1l0.4-0.5l0.3-1.2c0.3-0.5,0.6,1.3,0.8,0.8c0.1-0.2,2.2-0.4,2.3-0.7c0.2-0.1,0.3-0.2,0.4-0.4c0.2,0,0.3-0.1,0.3-0.3
	c0.5-0.2,0.7-0.6,0.6-1.1c0-0.8,0.5-1,1.1-1.2c0.3-0.1,0.7-0.2,1-0.3c0.9-0.3,1.8,0,2.6,0.2c0.7,0.2,0.2,1.1,0.8,1.4
	c0.1,0.3,0.3,0.4,0.7,0.4c0.1,0.1,0.2,0.2,0.3,0.3c0.1,0.2,0.2,0.3,0.4,0.3c0,0.2,0.1,0.3,0.3,0.3c0,0.3,0,0.5,0.3,0.7L247.6,119.1z
	"/>
<path class="st0" d="M279.2,332.3l-0.5,0.1l-0.4,0.1l-0.7,0.5l0.1,0.9l-0.3,1l-0.9,0.3l-2.2-0.1l-1.9-1.1l-0.7-1.2l-0.6-0.6
	l-0.3-0.7l0.5-1.4l1.4-2.6l0.2-1.1l1-0.5l1.5,0.8l0.9,0.8l1,0.4l0-1.9l0.1-1.7l0.4-1.8l0.1-4.5l-0.4-1.3l-0.4-1.1l0-1.1l0.1-0.3
	l0-2.7l-0.7-1.4l-0.3-1.5l-0.3-1.6l-1.1-0.9l-1.9-0.4l-1.6,0.2l-0.8,0.3L270,306l-1.2-0.6l-0.9,0.1l-0.4-0.8l-1.3-0.2l-1.9,0.3
	l-0.7,0.1l-0.5,0.4l-1,0l-0.6,0.5l0.1,0.6l-0.3,0.9l-0.8,0.2l-0.8,0.7l-1,0l-0.5,0.1l-0.4-0.2l-1.2,0.2l-1.2,1l-0.6,0.6l-0.7,0.4
	l-0.2,0.5l-0.8,0.3l-0.5,0.5l-0.6,0.2l-0.8,0.4l-1.5,2.1l-0.2,1.4l0.3,0.5l0,0.9l-0.8,0.2l-0.4,0.5l-0.6,0.2l-0.8,0.7l-0.3,0.8
	l-0.4,0.3l-0.4,0.5l-0.8,0.1l-0.8,0.5l-1.2,0.2l-0.5,0.9l0.1,1.5l-0.5,0.6v0.7l-0.3,1l0.3,0.5L241,327l-0.7-0.3l-0.5-0.6l-0.9,0.1
	h-1.4l-1.2,0.3l-1-0.3l-0.9,0.2l-2.1-1.2l-0.7,0l-0.6-0.7l-2-0.3l-1.4,0.2l-1.5,1.4l-0.9,2.3l-1,1.1l-1.9,0.7l-0.4,0.7l-1.1,0.9
	l-1.2,0.3l-0.9,0.6l-1.4-0.2l-0.9,0.4l-1.5-0.3l-1.5,0.2l0-1.1l0.8-1.8l0-1.6l-1.5-3.2l-0.6-1.6l-1.9-1.4l0,0.1l-0.8,20.8h-0.6
	l-1.8-0.1l-1.5,0.8l-0.5,1.1l-0.7,0.2l-0.5,0.5l0,1.2l-0.7-0.2l-0.8,0.1l-0.4-0.8H201l-0.5,0.5l-1-0.2l-0.6-0.3l-0.9,0.2l-1.2-0.7
	l-1.9-0.4l-0.8-1.7l0.5-1.2l-1.1,0l-0.7-1.2l-1.4,0.5l-0.6,1l0.4,0.3v0.7l-1.2,0.2l-0.8,0.5l0,0l0.3,1.9l1.9,1.3l1.2,3.5l0,1.6
	l1.2,3.2l0.7,3.4l1.6,2.1l0,1.3l1.7,2.7l-0.1,0.9l0.6,1.9l-0.3,1.8l-0.7,0.7h-0.5l-0.6-0.6l-0.6,0.6v1.5l0.9,1.5l1,0.9l1,1.8
	l-0.8,1.3l0.3,1.4l-0.4,1l0.1,1.2l0.7,0.5l-0.1-1.1l1-0.8l1.3,0.2l0.3,1.2l-0.5,0.4l0.5,0.2l0.8-0.4l1.1,0.6l0.1,1.4l0.6-0.3
	l2.9,1.3l0.5-0.3l0.6,0.2l0.4-0.8l1-0.2l1.2-1.4l1.4,0.3l0.3-0.4l1.4-0.1l1.7,0.6l0.9-0.4l1.4-0.1l0.3-0.5l0.6-0.5l0.7-0.2l0.6,0.3
	l0.3-1l0.9-0.4l3.1,0l1.3,0.7l0.9-0.3l0-0.4l1.7-0.3l2.6,0.7l0.8,0.6l2.8,0.6l0.4-0.4l-0.3-0.7l0.8-0.8l0.9,0.1l1.2,0.6l2,0l0.1-0.3
	l-0.9-0.7l0.6-1.1l1.5-0.4l1.8-0.1l0.6,0.5l1.3-0.1l1.3-0.8l2.2-0.6v-0.4l1.4-0.4l0.8-0.9l3.9-2.5l1-1.1l0-0.3l0.7-0.1l6-5.9
	l0.3-0.5l0.6,0l1-1.2l1.1-0.5l0.3-1.6l1.8-1.8l2.4-4l0.9-1.7l1.1,0l0.7-1.2v-0.6l1.1-1.3l0.7-1.4l1.4-0.9l0.5-0.7l1.2-0.5l0.3-0.5
	h0.5l1.6-1.9l0.3-1l0.8-1l0.6-2.2l0.9-1.7l0.2-1.8l0.7-2.1l-0.4-0.1l0.7-0.9l0-0.3l-1.1,0L279.2,332.3z M260.7,350.5l-1,0.5l0.1,0.7
	l0.5,0.4l-0.3,0.9l-1,0.7l-0.7-0.2l-1,0.2l-0.7,0.5l-1,0.3l-0.5,1.4l-0.4,0.5l-0.3,0.6l-1,0l-1.3-0.5l-0.6-0.8l-0.8-0.7l-0.1-1.1
	l-0.7-0.8l-0.1-0.6l-0.7-0.7l-0.5-1.1l0.8-0.5l1.5-1.2l0.5-1.5l1.3-1.1l2.1-0.4l0.5-0.6l0.7-0.4l0.2-0.5l0.8,0l0.6,0.4l0.3-0.2
	l0.8,0.6l0.9-0.2l1.2,1l0.9,2.2l0.1,1.4L260.7,350.5z"/>
</svg>
