<!-- Generator: Adobe Illustrator 19.0.0, SVG Export Plug-In  -->
<svg version="1.1"
	 xmlns="http://www.w3.org/2000/svg" xmlns:xlink="http://www.w3.org/1999/xlink" xmlns:a="http://ns.adobe.com/AdobeSVGViewerExtensions/3.0/"
	 x="0px" y="0px" width="444.9px" height="273.6px" viewBox="0 0 444.9 273.6" style="enable-background:new 0 0 444.9 273.6;"
	 xml:space="preserve">
<style type="text/css">
	.st0{fill-rule:evenodd;clip-rule:evenodd;fill:#FBCA19;}
	.st1{fill-rule:evenodd;clip-rule:evenodd;fill:#04689A;}
	.st2{clip-path:url(#XMLID_200_);}
	.st3{fill:#65C8D0;}
	.st4{clip-path:url(#XMLID_201_);}
</style>
<defs>
</defs>
<circle id="XMLID_199_" class="st0" cx="219" cy="136.8" r="136.8"/>
<g id="XMLID_15_">
	<circle id="XMLID_198_" class="st1" cx="219" cy="136.8" r="112.5"/>
	<g id="XMLID_16_">
		<defs>
			<circle id="XMLID_17_" cx="219" cy="136.8" r="115"/>
		</defs>
		<clipPath id="XMLID_200_">
			<use xlink:href="#XMLID_17_"  style="overflow:visible;"/>
		</clipPath>
		<g id="XMLID_18_" class="st2">
			<polygon id="XMLID_197_" class="st3" points="262.7,199.9 269.1,188.7 270.9,193.5 270.1,193.3 264.3,206.1 261.8,200.8 
				262.7,199.9 262.7,199.9 			"/>
			<polygon id="XMLID_196_" class="st3" points="235.6,130.6 250.9,132.8 250.9,137.5 248.5,134.7 263.8,160.4 271.6,158.3 
				271.9,159 258.4,191.1 258.7,192 251.2,199.2 252.1,204.7 248.6,207 249.2,207.9 233.3,219 231.9,218.1 231.4,218.3 220.9,169.8 
				187.8,157.5 187.9,157.5 201.1,127.6 201,127.6 201.9,126.4 222.5,124.6 221.9,125.7 222.5,126.7 221.9,128.4 232.2,133.9 
				233,133.3 233,132.4 235.4,130.6 235.6,130.6 			"/>
			<polygon id="XMLID_195_" class="st3" points="251.7,134.9 253.1,124.9 252.2,125.3 251.4,125 249.2,126 247,125 245.5,126 
				242.9,125.2 243.2,124.9 240.6,122.7 241.6,121 240.8,120.8 244.8,119.3 244.4,118.8 268.2,120.5 269.3,123.7 275.4,124.8 
				275.4,124 279.1,122.4 284.5,125.1 284.1,132 285.2,132.8 284.2,134.3 287,138.6 285.1,140.3 285.3,141.1 269.1,134 268.3,136.4 
				271.1,140.6 271.9,139.8 271.7,141.7 273.5,142.6 278.2,139.6 278.2,141.2 281.7,144.1 281.7,144.1 282.6,144.8 273,153.4 
				273.2,153.8 263.6,157.5 251.7,134.7 251.7,134.9 251.7,134.9 			"/>
			<polygon id="XMLID_194_" class="st3" points="309.8,164 308.4,165.7 307.3,164.5 307.9,161 309.8,164 309.8,164 			"/>
			<polygon id="XMLID_193_" class="st3" points="298.6,148.7 298.4,148.5 304.7,163 317.5,145.1 318.6,145.5 320.9,143.9 
				326.4,153.4 328.7,151.4 331,160.4 332.2,157.8 330.6,153.7 330.6,153.8 329.8,149.7 334.2,145.2 333.5,145.3 331.2,142.1 
				330.3,142.4 331.2,138.5 327.9,134.8 318.9,137.7 318.4,136.8 306.4,132.6 306.2,130.8 307.2,130.3 306.5,129.2 308.2,127.1 
				306.8,125.8 305,126.6 299.9,123.9 297.7,124.6 296.8,122.3 293.2,124.5 290.2,123.6 286.1,126.9 285,126.6 284.1,132 
				285.2,132.8 284.2,134.3 287,138.6 285.1,140.3 285.3,141.1 295.5,144.1 293.8,144.9 296.3,146.9 298.1,144.8 298.4,144.8 
				298.4,148.6 298.6,148.7 			"/>
			<polygon id="XMLID_192_" class="st3" points="332.7,173.4 326.8,166 336.8,172.4 336.7,172.6 337,172.6 337.4,173 337.3,173.4 
				340,176.6 339.8,179.7 338.6,180.3 332.7,173.4 332.7,173.4 			"/>
			<polygon id="XMLID_191_" class="st3" points="347.5,177.2 347.4,176.5 346.5,176.8 343.8,172 354,164.3 356.5,166.6 355.5,167.1 
				355.7,167.4 354.4,168 354.6,168.4 354.3,168.7 356.2,171.5 351.4,178.3 348.9,176.9 347.8,177.4 347.5,177.2 347.5,177.2 			"/>
			<polygon id="XMLID_190_" class="st3" points="359.2,174.3 358.7,174.8 357.8,173.3 363.9,170.9 358.9,171.4 356,176.9 
				356.9,177.5 356.9,179.6 357.6,180.2 357.9,177 358.9,176.5 359.4,179.1 360.9,178.2 360.3,177.4 360.5,177.2 359.4,175.3 
				361.7,174.1 361.7,173.7 359.1,174.5 359.2,174.3 359.2,174.3 			"/>
			<polygon id="XMLID_189_" class="st3" points="351.7,183.9 350.8,183.6 350.8,184.1 339.5,181.4 340.6,180.4 349.9,181.7 
				348.3,182 352.2,183.5 351.7,183.9 351.7,183.9 			"/>
			<polygon id="XMLID_188_" class="st3" points="360,184.2 357.5,183.8 361.3,183.3 360,184.2 360,184.2 			"/>
			<polygon id="XMLID_187_" class="st3" points="356.3,184.2 353.7,184.1 355.2,183.8 355.3,183.5 356.3,183.5 356.3,184.2 
				356.3,184.2 			"/>
			<polygon id="XMLID_186_" class="st3" points="357.9,186 356.5,185 357.8,184.7 358.4,185.7 357.9,186 357.9,186 			"/>
			<polygon id="XMLID_185_" class="st3" points="352.7,183.5 353.4,183.8 353,184.2 352.7,183.9 352.7,183.5 352.7,183.5 			"/>
			<polygon id="XMLID_184_" class="st3" points="363.8,184.8 363.7,185.4 362.3,186.1 362,185.7 366.4,183.8 363.8,184.8 
				363.8,184.8 			"/>
			<polygon id="XMLID_183_" class="st3" points="375.7,180 375.9,180.4 375.3,181.8 375,181.4 375.7,180 375.7,180 			"/>
			<polygon id="XMLID_182_" class="st3" points="366.3,177.4 365.9,177.9 365.1,177.1 366.3,177.4 			"/>
			<polygon id="XMLID_181_" class="st3" points="370.5,176.9 371,177.6 367.4,177.1 367.7,176.7 370.5,176.9 			"/>
			<polygon id="XMLID_180_" class="st3" points="367.3,172.9 367.3,172.6 368.3,172.5 367.9,171.9 368.4,171.3 367.2,170.2 
				367.7,173.7 367.3,172.9 367.3,172.9 			"/>
			<polygon id="XMLID_179_" class="st3" points="394.5,180.8 393.2,180 396.7,179.5 397.7,178.2 398.1,178.9 395.1,181 394.3,180.6 
				394.5,180.8 394.5,180.8 			"/>
			<polygon id="XMLID_178_" class="st3" points="383.6,176.1 392.4,181 391.6,181.7 396.2,185.8 395.7,186.5 388.2,182.4 
				386.6,183.5 386.4,184.5 379.9,183.1 381,182.2 374.6,177.8 374.6,177.4 373.9,178.2 372.5,176.5 374.7,175.8 370.9,174.5 
				373.2,173.4 375.3,174.2 375.3,175.8 376.8,177.1 380.1,174.8 383.8,176.2 383.8,176.3 383.6,176.1 383.6,176.1 			"/>
			<polygon id="XMLID_177_" class="st3" points="398.9,178.7 396.6,176.2 399.2,178.4 399.2,178.7 398.9,178.7 398.9,178.7 			"/>
			<polygon id="XMLID_176_" class="st3" points="401.8,180.8 401.2,179.8 402.4,181.1 402.1,181.4 401.8,180.8 401.8,180.8 			"/>
			<polygon id="XMLID_175_" class="st3" points="410.3,186.3 410.3,186.6 409.6,185.7 410.3,186.3 			"/>
			<polygon id="XMLID_174_" class="st3" points="409.1,185.6 408.9,185.7 407.7,185 409.1,185.6 			"/>
			<polygon id="XMLID_173_" class="st3" points="409.2,184.7 407.9,183.3 409.2,184.7 409.2,184.7 			"/>
			<polygon id="XMLID_172_" class="st3" points="405.4,182.2 407,183.1 406.6,183.2 405.3,182.4 405.3,182.4 405.4,182.2 
				405.4,182.2 			"/>
			<polygon id="XMLID_171_" class="st3" points="403.3,181.1 404.3,181.7 403.3,181.3 403.5,181.3 403.3,181.1 403.3,181.1 			"/>
			<polygon id="XMLID_170_" class="st3" points="390.7,227.3 392.6,226.8 393.1,228.1 391,231.4 388.2,227.3 390.7,227.3 			"/>
			<polygon id="XMLID_169_" class="st3" points="393,225.6 392.8,226.4 392.4,225.6 393,225.6 			"/>
			<polygon id="XMLID_168_" class="st3" points="379.7,220 378.2,220 379.7,220 			"/>
			<polygon id="XMLID_167_" class="st3" points="371.8,187.3 371.8,187.9 370,187.5 371.8,187.3 			"/>
			<polygon id="XMLID_166_" class="st3" points="398.3,205.1 395.2,221.4 395.2,221.4 390.8,224.6 388.6,223.2 386.8,224.2 
				381.7,219.3 380.3,219.6 380.6,218.7 380.2,217.8 379,219.2 378.5,218.7 379.8,215.6 377,218.7 375,215.2 351.3,217.3 
				352.3,215.4 349.3,206.8 349.6,206.3 350,206.8 349.5,201.5 349.9,200.9 350,201.4 360.4,196 361,194.2 361.6,195 362.1,193.6 
				363,193.9 364,191.5 366.3,190.7 367.6,192.3 368.6,191.8 369.2,192.2 370,189.6 373.3,188.3 372.5,187.3 378.5,188.9 377,192 
				382.9,195.6 386,186.6 398.3,204.9 398.3,205.1 398.3,205.1 			"/>
			<polygon id="XMLID_165_" class="st3" points="421.2,229.4 423.1,226.8 423.7,227.9 424.4,227.5 425,228.3 423.3,231.9 
				421.6,232.1 418.6,236.2 415.5,234.9 421.2,229.4 			"/>
			<polygon id="XMLID_164_" class="st3" points="425.5,221.8 425,220.9 425.1,220.5 423.2,217.8 425.4,219.7 425.2,220.1 426,221.4 
				426.2,221.4 426.6,221 426.9,221 428.5,222.8 430,222.4 430.4,222.6 429.5,224.8 429.3,224.6 428.3,225.3 428.5,225.7 
				426.2,228.1 425.6,227.6 426.1,226.3 424.5,225 425.4,221.6 425.5,221.6 425.5,221.8 425.5,221.8 			"/>
			<polygon id="XMLID_163_" class="st3" points="429.6,194.9 430.1,195.3 430.1,195.8 428.6,195.7 429.6,194.9 			"/>
			<polygon id="XMLID_162_" class="st3" points="431.7,193.6 431.7,194 430.6,194.6 430.4,194.2 431.7,193.6 			"/>
			<g id="XMLID_150_">
				<polygon id="XMLID_161_" class="st3" points="365,164.5 364.8,164.2 364.4,164.7 364.9,165.5 364.4,166 364.2,165.7 
					363.8,165.7 362.8,164.4 363,163.9 362.9,163.6 362.3,163.6 362.3,163.9 361.9,163.7 361.8,163.9 361.4,163.5 360.6,165.2 
					360.7,162.9 362.1,162.1 363,162.7 364.4,160.7 366,164 365.5,165.3 365,164.3 365,164.5 365,164.5 				"/>
				<polygon id="XMLID_160_" class="st3" points="355.3,162.3 355.1,162.2 357.5,159.4 357.8,160 355.3,162.3 355.3,162.3 				"/>
				<polygon id="XMLID_159_" class="st3" points="357.5,152.9 358,149.8 358.7,150.5 359.3,150.1 360.1,155.7 360.1,155.5 
					360.6,155.2 361.4,156.1 361.8,155.9 362,155.9 361.7,156.4 362.5,156.9 362.4,157.4 360.8,155.9 360.8,156.6 359.6,155.8 
					359,156 358.4,155.5 358.7,154.7 358.1,154.9 357.3,154.2 357.5,152.9 357.5,152.9 				"/>
				<polygon id="XMLID_158_" class="st3" points="364.3,159.5 363.7,159.5 364.1,160.5 363.7,160.5 362.9,159 363.5,159 
					363.7,158.7 362.7,157.6 364,157.6 363.9,158 364.2,158 364.3,159.5 364.3,159.5 				"/>
				<polygon id="XMLID_157_" class="st3" points="360.4,158.3 361.5,159 360.2,160.2 360.1,158.5 360.4,158.3 360.6,158.5 
					360.4,158.3 360.4,158.3 				"/>
				<polygon id="XMLID_156_" class="st3" points="362.3,159.9 361.8,161.8 360.9,160.8 361.7,159.5 362.3,159.9 				"/>
				<polygon id="XMLID_155_" class="st3" points="362.8,159.6 362.3,161 362.1,161 362.5,159.6 362.8,159.6 				"/>
				<polygon id="XMLID_154_" class="st3" points="363.3,160.5 362.7,161.3 362.5,161.1 362.8,160.5 363.3,160.5 				"/>
				<polygon id="XMLID_153_" class="st3" points="361.5,158 361.5,157.5 361.9,157.5 362.5,158.4 361.5,158 361.5,158 				"/>
				<polygon id="XMLID_152_" class="st3" points="359.3,157.7 358.2,156.3 359.6,157 359.3,157.7 359.3,157.7 				"/>
				<polygon id="XMLID_151_" class="st3" points="359.7,156.5 360.1,156.5 359.7,156.5 359.7,156.5 				"/>
			</g>
			<polygon id="XMLID_149_" class="st3" points="358.3,144.5 357.6,143.3 359.2,140.7 358.3,144.5 358.3,144.5 			"/>
			<polygon id="XMLID_148_" class="st3" points="343.3,148.6 345.7,147.5 346.3,148.1 344.3,150.1 343.3,149.2 343.3,148.6 
				343.3,148.6 			"/>
			<polygon id="XMLID_147_" class="st3" points="331,160.4 332.2,157.8 330.6,153.7 330.6,153.8 329.8,149.7 334.2,145.2 
				334.5,145.2 334.7,145.7 335,144.1 341.2,143.8 342.7,145.5 339.7,149 344.4,156.6 340.2,161.1 340.1,160.7 339,162.3 
				332.7,156.1 331.4,160.2 332.9,162.3 332.8,162.3 338.1,171 337.2,171.3 331.1,162.3 330.6,162.3 330.8,160.4 331,160.4 			"/>
			<polygon id="XMLID_146_" class="st3" points="340.4,176.5 339.2,175.4 340.1,174.8 341.2,176.7 340.4,176.5 340.4,176.5 			"/>
			<polygon id="XMLID_145_" class="st3" points="342.3,176.2 343.2,176.5 342.7,177 342.3,176.2 342.3,176.2 			"/>
			<polygon id="XMLID_144_" class="st3" points="331.4,174.3 332,175.5 331.2,174.3 331.6,174.3 331.6,174.5 331.4,174.3 
				331.4,174.3 			"/>
			<polygon id="XMLID_143_" class="st3" points="329.9,171.6 330.5,172.7 329.7,171.7 329.7,171.7 329.9,171.6 			"/>
			<polygon id="XMLID_142_" class="st3" points="370.7,131.2 370.9,130.6 370.5,130 370.5,130.4 370,130.6 369.6,130.1 370.9,129 
				372.5,130.1 372.5,130.6 372.1,130.6 371,132.7 370.9,132.3 370.9,132.6 370.3,131.9 370.7,131.2 370.7,131.2 			"/>
			<polygon id="XMLID_141_" class="st3" points="375.3,129.6 374.6,129.3 373.6,130.4 373,129.3 375.3,128.1 375.3,129.6 
				375.3,129.6 			"/>
			<polygon id="XMLID_140_" class="st3" points="376.7,129 376.8,127.9 371.2,128.5 379.1,124 378.8,124.5 379.1,124.7 382.7,120.5 
				382.6,120 383.6,118.4 384.1,118.5 384,118.5 383.9,118.1 384.4,118.3 384.5,122.3 384.1,122.4 382.5,127.3 382.6,126.6 
				381.4,127.7 381.2,127.4 379.9,128 378.6,127.2 378.3,127.6 378.8,128.3 377.3,129.5 376.7,129 376.7,129 			"/>
			<polygon id="XMLID_139_" class="st3" points="383.5,115.1 383.9,115.1 385,112.8 384.7,112.4 385,111.8 389.3,113.9 389.1,114.5 
				389.6,115 386.7,117 384.8,115.9 383.2,116.6 384,117.2 382.7,117.9 383.3,115 383.6,115.2 383.5,115.1 383.5,115.1 			"/>
			<polygon id="XMLID_138_" class="st3" points="390.4,113.3 390.7,113.5 389.6,114.4 389.6,114 390.6,113.4 390.4,113.3 
				390.4,113.3 			"/>
			<polygon id="XMLID_137_" class="st3" points="393.5,112.1 391.9,112.9 391.9,112.7 392.9,111.7 393.5,111.7 393.5,112.1 
				393.5,112.1 			"/>
			<polygon id="XMLID_136_" class="st3" points="394.9,111.1 395,110.7 395.7,110.5 394.9,111.4 394.9,111.1 394.9,111.1 			"/>
			<polygon id="XMLID_135_" class="st3" points="387.3,105.5 386,108 387.3,110.3 387.2,110.3 386.7,109.9 385.2,110.8 385.8,97.1 
				386.1,97.1 388.2,106.1 387.3,105.5 387.3,105.5 			"/>
			<polygon id="XMLID_134_" class="st3" points="279.7,65.6 277.2,62.7 294,50.8 292.3,49.7 276.9,55 277.2,55.8 274.9,58.4 
				275.6,59.4 272.2,63 273,63.9 274.3,63.9 274.9,65.4 276,65.4 276.3,65.7 279.7,65.7 279.3,65.2 279.7,65.6 279.7,65.6 			"/>
			<polygon id="XMLID_133_" class="st3" points="244.2,113.1 242.7,116.8 244.1,118.7 241.2,119.8 239.3,118.9 237.9,119.5 
				237.9,120.4 236.8,119.8 236.3,120.3 237.1,121.2 236.9,121.8 238.6,123.4 237.8,123.6 236.7,123 236.9,125.1 236.3,125.1 
				235,123.6 235.6,123 234.8,123 229.5,115.3 228.9,115.3 226.9,112.8 225.6,112.8 225,111.7 223.5,112.5 223.8,112.7 223.6,113.5 
				226.5,117.4 228.2,117.5 228.1,117.9 231.1,120.4 229.7,119.8 228.7,120.5 229.5,121.8 228,123.3 227.5,123 228.3,121.8 
				219.6,113.8 212.2,116.3 212.5,117.3 208.3,121.6 208.7,122.2 205.5,125.1 205.5,125.2 201.6,126.1 199.9,124.5 198,124.8 
				197.6,124.5 197.6,122.7 196.9,122.1 197.3,116.1 206.8,115.3 207.4,112.1 207.3,112.2 207.5,111.5 202.9,107.7 206.7,107.1 
				206.5,105.6 208.2,106.2 213.7,102.4 213.9,101 219.6,98.2 218.4,94.5 221.2,91.7 221,93.4 221.8,93.9 220.3,96.3 220.8,97.5 
				221.8,97.7 222.2,98.2 225.2,97.4 224.9,97.8 225.6,98.5 231.5,96.9 231.3,97.4 236.7,97.1 236.5,106.9 241.5,107.3 244,112 
				245,111.7 245.1,112.4 244.2,113.1 244.2,113.1 			"/>
			<polygon id="XMLID_132_" class="st3" points="222.3,88.9 221.4,87.8 217.2,90.8 215.2,89.5 216,88.9 216,88.2 214.8,88.4 
				215.5,87.3 214.8,84.2 220.3,80.6 219.2,80.3 228.8,69.9 226.3,70.7 227.1,70 226.5,69.9 227.1,69.2 227.5,69.3 227.9,68.8 
				228,69.6 229.4,70 230.2,68.9 229.5,68.8 231.4,68 231.1,67.7 232.9,67.2 232.9,67.7 234.6,66.5 234.6,67.2 236.7,66 236,65.5 
				236.9,64.8 237.8,65.5 240.2,65 239.2,66.4 241.1,65.1 241.3,65.8 243,64.6 243.4,65.6 244.1,65 245.6,65.7 243.9,66.7 
				246.1,67.5 243.9,69.8 246.4,79 245.8,79.6 247.2,81.5 237.4,87.3 234.6,85.2 235.2,84.2 234.3,81.7 239.9,77.3 237.4,76 
				234.8,77.7 234.8,78.7 229.3,84.3 231.6,87.7 228.7,91.6 229.3,92.4 224.7,95.9 222.3,88.7 222.3,88.9 222.3,88.9 			"/>
			<polygon id="XMLID_131_" class="st3" points="371.4,115.9 374.5,116.3 384.2,100.4 377.5,96.2 411.6,82.5 402.2,94.3 404,102.1 
				433.7,75 440.7,78.7 444.9,75.4 372.3,62.6 371.2,64.5 363.1,57.8 361.4,59.5 342.1,58.4 345.8,50.5 308,59.7 308.7,61.5 
				301.3,60.2 299.1,62.8 300.3,71 296.7,60.2 291.2,64.5 293.2,68.9 265.8,73.5 264.7,72.6 262.5,72.8 263.2,74.1 254,77.4 
				254,79.2 251,75 255.7,75.4 255.6,70.7 246.1,67.5 243.9,69.8 246.4,79 245.8,79.6 247.2,81.5 243.3,85.7 244.4,87.3 237.3,89.4 
				237.8,92.3 236.1,91.2 232.9,97.3 236.7,97.1 236.5,106.9 241.5,107.3 244,112 247,110.3 250.4,113.6 253.5,112.2 251.5,111.4 
				255.9,109.4 253.8,112.3 259.9,117.9 261,117.7 266,121.7 268.2,120.5 268.5,121.6 269.1,121.7 270.3,119.6 266.4,113.1 
				267.4,111 272.4,109.6 276,112 270.6,113.1 273.7,118.2 275.1,117.5 275.9,119.2 274.6,119.2 273.7,120.3 275.4,124 279.1,122.4 
				284.5,125.1 284.8,126.7 296.8,122.3 297.7,124.6 301.4,124 301.5,123.8 299.9,122.2 323.3,103 328.1,104.3 331.4,101 
				354.1,104.5 361.8,98.9 372.7,108.3 376.2,106.9 371.4,115.9 371.4,115.9 			"/>
			<polygon id="XMLID_130_" class="st3" points="358.1,129.3 358,129.3 357.9,128.5 356.8,127.4 360.8,124.2 358.3,123.3 
				357.6,124.3 354.7,122.2 359.2,119 360,119.8 359.2,121.6 364.2,120.8 363.7,122.7 364.2,123.4 364.8,123.2 365.9,124.1 
				365.2,124.6 365.9,126.1 365.5,127.1 365.7,127.6 365.5,128.1 368.4,127.2 369.2,125.6 366.9,120.4 376.2,106.9 372.7,108.3 
				361.8,98.9 281,94.5 301.5,123.8 301.4,124 305,126.6 306.8,125.8 308.2,127.1 306.5,129.2 307.2,130.3 306.2,130.8 306.4,132.6 
				318.4,136.8 318.9,137.7 327.6,134.8 331.2,138.5 330.3,142.4 331.2,142.1 333.5,145.3 334.5,145.2 334.7,145.7 335,144.1 
				341.2,143.8 342.7,145.5 342.7,145.5 344.8,145.9 345,147 349.8,143.9 350.9,144.3 359.1,136.7 358,129.3 358.1,129.3 			"/>
			<polygon id="XMLID_129_" class="st3" points="431,64.7 430.6,64.3 432.6,62.9 434.9,64 431,64.7 431,64.7 			"/>
			<polygon id="XMLID_128_" class="st3" points="418.6,67.5 419.1,67 418.8,66.5 417.3,66.5 418.6,67.5 			"/>
			<polygon id="XMLID_127_" class="st3" points="377.4,53 377,52.6 376.7,53.3 377,53.6 377.4,52.9 377.3,52.9 377.4,53 			"/>
			<polygon id="XMLID_126_" class="st3" points="349.2,56.7 348.2,57 347.3,56.4 348.2,55.8 349.2,56.4 348.9,57 349.2,56.7 			"/>
			<polygon id="XMLID_125_" class="st3" points="332.5,47.3 331.8,46.7 336.3,43.1 336.2,44.1 337,43.6 339.4,45.4 332.5,47.3 
				332.5,47.3 			"/>
			<polygon id="XMLID_124_" class="st3" points="322.4,41 324.2,41.7 322.1,42.5 321.3,41.4 322.4,41 			"/>
			<polygon id="XMLID_123_" class="st3" points="332.1,44.4 331.2,45.1 324,42.7 327.3,41.3 322.2,40.3 326.8,37.7 329.4,39.4 
				328.9,39.5 328.9,40.4 328.1,41.1 332.6,42.5 331.4,43.9 332.1,44.4 			"/>
			<polygon id="XMLID_122_" class="st3" points="326.7,49.8 328,49.3 327.2,50.2 326.7,49.8 326.7,49.8 			"/>
			<polygon id="XMLID_121_" class="st3" points="321.9,38.3 320.2,37.9 321.8,37.9 321.9,38.3 321.9,38.3 			"/>
			<polygon id="XMLID_120_" class="st3" points="342.3,46.4 341.7,47 340.8,46.5 342.3,46.4 			"/>
			<polygon id="XMLID_119_" class="st3" points="270.6,40.4 267.9,41.7 267.4,41.2 267.5,41.2 266.3,40.7 267.2,40.4 266.4,40.3 
				267.1,39.9 263.1,39.9 271.9,39.5 270.3,40.3 270.3,40.7 270.6,40.4 270.6,40.4 			"/>
			<polygon id="XMLID_118_" class="st3" points="286.8,39.3 286.1,38.6 288.5,37.3 289.1,38.7 286.8,39.3 286.8,39.3 			"/>
			<polygon id="XMLID_117_" class="st3" points="285.3,39 285.3,39.6 284.2,39.8 284.4,40.4 282,40.4 282.9,38.6 284.3,38.6 
				283.9,39 285.3,39 			"/>
			<polygon id="XMLID_116_" class="st3" points="279.6,41.4 278.7,41 278.1,41.4 277.6,41.1 279.8,40.3 281,40.8 279.6,41.4 
				279.6,41.4 			"/>
			<polygon id="XMLID_115_" class="st3" points="279.6,39.4 275.7,39.1 278.1,38.6 277.3,38.5 277.3,37.9 280.7,36.3 280.8,36.9 
				278.4,38.6 280.9,39.2 279.6,39.4 279.6,39.4 			"/>
			<polygon id="XMLID_114_" class="st3" points="236.1,49.4 236.1,48.7 234.1,48.6 234.8,47.3 233.9,46.1 234.5,46 233.5,45.4 
				229.1,51.2 225.7,48.4 228.8,48.1 225.2,47.3 228.6,45.8 226.8,45.4 225.2,46.6 223.8,45.9 224.1,45.8 221.5,43.1 225.2,42.3 
				224.6,42.9 225.8,43.5 225.5,43 226.3,42.2 228.2,44.2 227.7,42.2 228.6,41.6 230.3,42.5 230.2,43.3 231,42.8 235.4,45.7 
				235,45.7 235.8,45.7 235.8,46.4 238.9,48 236.1,49.4 236.1,49.4 			"/>
			<polygon id="XMLID_113_" class="st3" points="241.9,42 233.4,43.4 232.8,42.7 234.8,42.5 231.2,41.8 230.5,40.8 232.1,40.9 
				232.1,40.7 232.8,40.7 232.6,40.3 235.6,41.1 237.2,40.1 237.2,41.2 241.9,42 			"/>
			<polygon id="XMLID_112_" class="st3" points="221.5,44.7 222.9,46.6 221.6,44.7 221.6,44.9 221.5,44.7 221.5,44.7 			"/>
			<polygon id="XMLID_111_" class="st3" points="197,97.9 198.2,97.5 198,96.9 200,96.1 201.5,97.8 200.7,98.5 200.7,101.2 
				197.1,102.6 196,101.6 197.3,99.3 196.5,98.4 197,97.9 197,97.9 			"/>
			<polygon id="XMLID_110_" class="st3" points="200,91.5 199.7,91 200.8,90.5 200,91.5 200,91.5 			"/>
			<polygon id="XMLID_109_" class="st3" points="209.3,100.2 209.8,100 210.7,100.9 209.3,102.6 210.2,102.8 210.2,103.1 201.9,105 
				205,102.5 204.9,102.2 204.1,102.7 202.9,102.1 202.4,102.4 202.2,102.1 203.4,100.8 203.1,99.5 205.1,98.7 205.1,98 204,97.5 
				204.3,96.9 202.2,96.8 202.7,95 201.9,94.8 201.9,95.4 201.6,95.4 201.7,94 201.1,93.7 201.4,92.8 200.4,91.9 201.1,91.9 
				201.4,92.3 201.6,92.1 201.3,91.8 204.1,90 204.5,90.4 203.4,91.5 203.6,91.9 206.1,91.9 204.6,94.9 205.6,94.9 209.2,99.7 
				208.9,100.3 209.5,100 209.3,100.2 209.3,100.2 			"/>
			<polygon id="XMLID_108_" class="st3" points="202.9,97.7 202.6,98.2 203,98.2 203.1,97.7 202.9,97.7 202.9,97.7 			"/>
			<polygon id="XMLID_107_" class="st3" points="191.5,77.7 180.4,78.8 180.7,78.6 181,77.3 179.1,77.1 181.4,76.7 179,75.4 
				179.8,75.5 179.8,75.1 181,74.6 181.9,76.2 182.7,75.9 182.7,75.3 184.9,75.8 184.9,75.3 187.8,75.3 188,74.7 190.3,75 190,75.4 
				191.6,77.6 191.5,77.7 191.5,77.7 			"/>
			<polygon id="XMLID_106_" class="st3" points="116.1,148.1 111.9,148.3 111.9,148.1 112.4,147.7 106.7,145.7 106.6,145.2 
				103.1,146.1 106.7,144.2 114.5,146.9 114.5,147.2 116.1,148.1 			"/>
			<polygon id="XMLID_105_" class="st3" points="105.5,145.9 105.5,146.6 104.9,146.6 105.3,146.2 105.3,145.9 105.5,145.9 			"/>
			<polygon id="XMLID_104_" class="st3" points="113.2,150.5 113.6,150.9 112.1,151.2 111.4,150.5 111.9,150.3 113.3,150.6 
				113.2,150.5 113.2,150.5 			"/>
			<polygon id="XMLID_103_" class="st3" points="127,150.7 126.3,150.9 125.2,150.4 125.7,150.2 127,150.7 			"/>
			<polygon id="XMLID_102_" class="st3" points="122.5,149.4 123.6,150.4 119.8,151.3 119.3,150.8 116.8,150.6 116.7,151 
				116.2,150.3 118.4,150.1 117.5,148.7 117.9,148.3 122.7,149.6 122.5,149.4 122.5,149.4 			"/>
			<polygon id="XMLID_101_" class="st3" points="132.9,160.6 132.9,160.3 132.5,160.3 132,161.2 132.4,161.2 132.9,160.6 
				132.9,160.6 			"/>
			<polygon id="XMLID_100_" class="st3" points="146.6,173.5 148.6,174.4 147.4,175.8 145.6,174.6 146.5,173.5 146.6,173.5 			"/>
			<polygon id="XMLID_99_" class="st3" points="116.5,231.1 117,229.8 117.3,232.2 117,232.2 116.5,231.1 116.5,231.1 			"/>
			<polygon id="XMLID_98_" class="st3" points="112.4,168.4 111.5,164.4 119.8,158.2 120.2,158.7 119.4,161 120.1,162.3 
				120.5,161.6 120,160.3 122.1,159.5 121.3,158.6 131.3,160.3 130.6,160.4 130.6,160.7 146.9,171.9 144.9,174.5 146.2,176 
				147.3,176 147.5,176.5 149.7,174.4 153.4,176 153.5,177.1 164.5,180 165.6,182.1 146.6,212.2 146.6,212.1 140.4,219.5 
				136.5,218.5 136.2,218.7 138.3,221.8 137,224.3 131.7,225.3 131.3,227.8 131.3,227.7 131.3,228.2 130.3,228.7 128.3,228.1 
				127.9,228.7 128.8,230.4 129.4,230.1 129.8,230.5 129.4,231.1 128.2,230.7 128.7,231.4 125.2,236.1 127.1,238.6 122.8,244.7 
				128.1,250.7 123.1,251.8 116.3,247.2 117.1,246.5 116.8,246.3 115.6,236.1 115.7,236.1 116.1,235.7 117.2,236.4 118.7,229.3 
				117.6,229.8 117.4,226.3 117.9,226.1 121.4,197.7 107.5,180 109.3,177.1 108.7,177.1 112.6,169.1 112.2,168.7 112.4,168.3 
				112.4,168.4 112.4,168.4 			"/>
			<polygon id="XMLID_97_" class="st3" points="111.2,141.8 111.7,142.4 111.5,142.6 111.1,141.8 111.2,141.8 			"/>
			<polygon id="XMLID_96_" class="st3" points="110.4,139.6 111,139.3 111.5,139.6 110.4,139.6 110.4,139.6 			"/>
			<polygon id="XMLID_95_" class="st3" points="112.6,140.2 112.4,139.8 112.6,140.2 112.6,140.2 			"/>
			<polygon id="XMLID_94_" class="st3" points="116.8,146.8 116.8,147 117.7,146.8 117.7,146.4 116.8,146.8 116.8,146.8 			"/>
			<polygon id="XMLID_93_" class="st3" points="111.8,129.4 107.1,134.6 108.3,137.9 108.3,137.8 107.9,141.6 103.6,134.8 
				99.2,134.7 98.9,134.4 96.6,134.7 97.2,134.7 97.3,136.1 92.3,135.1 87.1,139.8 87.4,140.3 81.2,135 79.7,136.2 73.8,132.3 
				73.8,132.8 58.3,128.5 53.3,108.6 54,108.3 55.3,109 55.9,107.8 55.3,106.8 90.3,106.8 90.3,106.3 97.2,108.3 93.8,110.7 
				95.2,110.4 95.9,110.9 99,109.3 98.5,110.4 103.8,111.1 103.8,111.6 99.1,113.7 100.1,113.1 99,117.4 100,118.3 103,112 
				104.9,113.3 104.5,114.9 105.3,114.6 105.9,115.9 105,117.4 105.6,118.5 109.7,117 109.2,115.9 124.3,109.4 125.3,113.5 
				120.7,117.1 121.3,118.3 121.8,118 121.8,118.3 117.1,119.4 118.6,119.4 116.6,119.5 116.3,119.8 116.7,120.4 115.5,122.2 
				115.2,121.9 114.9,122.1 115.3,122.9 114.3,124.7 113.7,122.5 113.9,125.3 114.2,125.3 114.2,125.7 113.6,126.3 114.2,126.7 
				113.5,127.1 113.5,127.4 114,127.7 111.7,129.3 111.8,129.4 			"/>
			<polygon id="XMLID_92_" class="st3" points="125,113.1 125,112.9 128.3,112 128.9,112.6 126.4,114.4 127.2,115.5 132.5,112.5 
				127.8,109.7 128.2,108.6 127.1,108.5 129,107 122.6,107.9 139.3,101.3 138.2,98 133.6,99.1 137.1,97.5 133.5,95.1 133.5,95 
				131.4,94 132,93.2 128,87.1 124.5,90.6 116.6,83 110.8,83.8 111.8,87.7 110.2,89.5 112.7,94.7 109.2,97.6 110.7,101.5 
				108.6,103.1 94.9,92.8 93.3,93.5 91.6,90 90.5,90.4 93.5,82.5 95.5,81.6 93.2,80.5 100,78.3 100,77.6 96.4,76.2 99.2,77.2 
				101.1,75.8 100.8,74.8 107.3,73.1 106.2,72 107,69.2 103.1,67.8 102,68.7 102.7,69.9 100.6,72.9 98.3,71.6 99,70.5 97.4,69 
				95.7,70.9 94.7,69.2 95.1,68.6 92.9,68 94,66.9 90,63.2 88.3,64.8 88.7,65.9 88.1,66.9 91.1,69 90.7,70.3 91.6,69.9 89.3,72.9 
				88.7,71.4 86.7,70.9 85.6,72.3 72.8,70.9 73.4,71.3 75.7,70.7 73.7,72.4 73.9,73.7 64.6,71.7 66.2,71.2 53.1,67.4 51.4,68.5 
				49.1,66.5 33.1,68.2 33.1,87.1 37.7,89.5 39.8,88.2 46.5,96.1 45.9,96.9 55.3,106.8 55.3,106.8 90.3,106.8 90.3,106.3 
				97.2,108.3 99,107.1 100.1,108.1 100.1,107.5 108.8,113.4 108.3,113.9 107.1,113.1 105,117.4 105.6,118 109.7,117 109.1,115.9 
				124.3,109.4 125.1,113.2 125,113.1 125,113.1 			"/>
			<polygon id="XMLID_91_" class="st3" points="33.1,68.2 33.1,87.1 37.7,89.5 39.8,88.2 46.5,96.1 45.9,96.9 43.6,95.7 43.6,95 
				41.5,93.7 42.2,92.4 41,93 40.4,92.3 40.8,91.4 38.7,90.4 38,91.2 23.7,86.5 24.2,87.1 19.8,89.5 19.4,89.2 21.6,85.8 21.1,85.8 
				17.2,89.7 17.2,90.3 3.5,98 14.6,90 11.2,90.2 10.9,91 8.8,89.8 8.7,90.4 7.6,90.8 6.8,88.1 5.9,88.9 3,86.9 3.6,86.7 1.9,84.9 
				8.5,80.7 7.8,79.7 8.4,79.6 8.4,79 1.7,79.4 1.3,77.7 0,77 7.6,76.1 1.3,71.3 13.5,64.6 14.8,65.3 14.4,65.8 33.1,68.2 
				33.1,68.1 33.1,68.2 33.1,68.2 			"/>
			<polygon id="XMLID_90_" class="st3" points="42.8,95.6 41.9,95.6 43,94.7 44.1,97 43.7,97.4 42.8,95.6 42.8,95.6 			"/>
			<polygon id="XMLID_89_" class="st3" points="40.1,93 40.6,93 40.5,94.7 38.6,91.6 40.1,91.2 40.1,93 40.1,93 			"/>
			<polygon id="XMLID_88_" class="st3" points="81,67.9 80.4,68.3 81.5,69.3 62,67.6 67.7,66.5 60.9,65.3 62.7,64.4 59.8,63.4 
				65.4,59.7 66.1,61.3 67.5,60.5 69.4,61.8 70.7,61.5 70.5,60.7 73.7,63.5 74.2,63.2 73.2,60.2 75.2,59.6 75.2,59.2 76.5,58.4 
				78,59.4 77.1,60.8 82.8,67.5 81,67.9 81,67.9 			"/>
			<polygon id="XMLID_87_" class="st3" points="54.1,64.5 51.4,62.8 53.6,58.5 52.9,57 64.2,59.3 54.8,65 54.1,64.5 54.1,64.5 			
				"/>
			<polygon id="XMLID_86_" class="st3" points="66.8,57 65.6,56.3 66.8,55.8 66.1,54.8 63.7,55.7 61.6,54.7 61.6,54 64.6,54 
				62.7,53.5 62.7,52.8 65.4,53.1 63.2,52.6 65.1,52.3 63.8,51.7 71.2,54 72.1,53.5 71.3,53.3 71.7,53.2 71.7,52.6 70.6,51.9 
				72.2,50.5 73,50.8 73,51.4 74.7,53 75.9,52.5 76.9,53.6 75.4,55.7 66.8,57 66.8,57 			"/>
			<polygon id="XMLID_85_" class="st3" points="60.1,54.3 59.4,53.8 61.4,52.8 60.1,54.3 60.1,54.3 			"/>
			<polygon id="XMLID_84_" class="st3" points="65.5,51.2 64.9,50.6 66.5,50.6 66.5,51.2 65.5,51.2 65.5,51.2 			"/>
			<polygon id="XMLID_83_" class="st3" points="63.7,49.4 63.2,50.1 63.5,51 61.6,52.4 60.6,51.2 58.1,53.5 55.4,53.2 55,52.5 
				63.7,49.4 			"/>
			<polygon id="XMLID_82_" class="st3" points="68.6,47 66.7,47 69.9,45.5 71.7,46.6 68.6,47 68.6,47 			"/>
			<polygon id="XMLID_81_" class="st3" points="70.5,48.2 68.2,49.5 66.8,48.4 70.4,47.3 71.2,47.7 69.3,48.2 70.5,48.2 			"/>
			<polygon id="XMLID_80_" class="st3" points="66.2,48.1 65.6,48.7 64.7,48 66.2,48.1 			"/>
			<polygon id="XMLID_79_" class="st3" points="87.4,60.6 87.3,61.3 88.3,61.5 85.7,64.4 80.9,61.3 80.9,60.6 83.5,61.1 83.5,59.9 
				82.1,59.4 86.8,58.5 87.2,58.9 85.8,60.6 87.4,60.6 			"/>
			<polygon id="XMLID_78_" class="st3" points="78.6,52.2 78.2,51.3 82,53.1 81.1,52.4 81.1,51.9 83.5,52.8 83.5,51.9 82,51.2 
				85.6,51.3 86.5,52.4 86.1,55.1 83,55.1 84.4,53.6 80.7,53.9 80.1,53.4 79.5,53.4 79.4,52.9 78.3,52.5 78.3,51.7 78.6,52.2 
				78.6,52.2 			"/>
			<polygon id="XMLID_77_" class="st3" points="88.3,70.7 84.5,69.4 86.7,67.8 89.4,70 88.3,70.7 88.3,70.7 			"/>
			<polygon id="XMLID_76_" class="st3" points="95.7,58.6 91.2,61.3 91.7,61.3 90.7,62.8 89.9,62.8 89.2,58.6 90.2,58.6 90.2,58.2 
				95.7,58.1 95.7,58.6 95.7,58.6 			"/>
			<polygon id="XMLID_75_" class="st3" points="78.2,49.4 77.6,50 76.1,48.2 78.2,49.4 			"/>
			<polygon id="XMLID_74_" class="st3" points="78.6,54.1 78.9,54.8 77.4,55.3 78.6,54.1 			"/>
			<polygon id="XMLID_73_" class="st3" points="82,47 77.3,46.3 78.6,45.8 78.6,45.3 77.1,45.3 77.4,44.9 76.6,44.2 83.9,45.9 
				83.5,46.4 84.7,47.6 83.9,48.1 82,47 82,47 			"/>
			<polygon id="XMLID_72_" class="st3" points="80.6,48.2 81,47.6 82,47.9 80.6,48.2 80.6,48.2 			"/>
			<polygon id="XMLID_71_" class="st3" points="109.1,54.6 108.6,55.2 109.2,55.2 93,54.8 93.6,54.1 91.8,51.9 90.9,52.3 87.8,50.8 
				96.6,52.6 94.9,52.6 96.8,53.6 96.5,53.8 109.2,54.7 108.8,54.8 109.1,54.6 			"/>
			<polygon id="XMLID_70_" class="st3" points="88.7,54.7 90,53.7 91.8,55.1 90.9,56.5 88.1,55.4 88.7,54.7 88.7,54.7 			"/>
			<polygon id="XMLID_69_" class="st3" points="91.4,48.2 91.9,48.2 91.9,48.8 88.5,48.7 91.4,48.2 			"/>
			<polygon id="XMLID_68_" class="st3" points="86.9,47.7 87.4,47.3 85.9,45.6 86.9,44.9 90,46.6 90,47.7 86.9,47.7 86.9,47.7 			
				"/>
			<polygon id="XMLID_67_" class="st3" points="85.9,42 85.9,42.9 85.2,42.9 84.4,42 85.9,42 			"/>
			<polygon id="XMLID_66_" class="st3" points="97.8,41.8 98.4,41.8 98.2,40.9 98.6,40.9 99.7,42.3 99.4,43 102.3,43.5 102.2,44.2 
				99.2,45.8 98.5,44.9 97.9,45.6 98.5,46.5 97.7,46.5 97.7,47 96.1,46.3 95.1,47.3 93.3,46.5 93.9,46.2 91.9,45.1 95.3,44.2 
				90.6,44 90.3,43.5 91.3,43 88.8,41.6 90.7,42 91.1,41.7 89.2,40.7 91.9,40.1 90.6,40.1 90.1,39.4 92.5,39 91.2,38.1 97.8,41.8 
							"/>
			<polygon id="XMLID_65_" class="st3" points="100.3,80.1 102.2,76.2 102.9,77.4 103.3,77.1 108.6,80.4 104.3,79.8 101.9,81.8 
				101.6,80.9 99.7,80.9 100.3,80.1 100.3,80.1 			"/>
			<polygon id="XMLID_64_" class="st3" points="115,72.4 113.4,73.4 112.3,72.4 115,72.4 			"/>
			<polygon id="XMLID_63_" class="st3" points="105.1,82.1 106.4,82.3 104.2,83.8 105.1,82.1 105.1,82.1 			"/>
			<polygon id="XMLID_62_" class="st3" points="109.9,61 107.7,59.2 108.4,58.5 113.6,60.2 109.9,61 109.9,61 			"/>
			<polygon id="XMLID_61_" class="st3" points="109.7,83.7 108.9,84.6 108.2,84 109.7,83.7 			"/>
			<polygon id="XMLID_60_" class="st3" points="116,72.2 115.4,71.8 116,71.4 116.9,72.1 116,72.2 116,72.2 			"/>
			<polygon id="XMLID_59_" class="st3" points="109.7,69.9 110.7,68.9 109.7,69.9 109.7,69.9 			"/>
			<polygon id="XMLID_58_" class="st3" points="129.8,76.6 129.2,77.9 124.8,74.9 124,75.4 124.8,75.5 124.8,76 124.2,76 
				124.2,76.6 124.7,76.6 126.9,78.8 127.7,78.8 127.8,82.5 123.1,80.7 126.3,83.8 125.8,84.3 115.9,78.6 115,79.3 114.2,79 
				112.9,79.6 111.1,78.4 116.6,76.6 115.9,75.7 118.3,73.1 114.6,69.8 113.2,70.3 112.8,69.8 113.9,69.2 110.6,66.8 108.6,68.5 
				108.2,67.5 98.2,66.6 97.2,65.3 99.2,65.4 99.2,64.8 96.8,64.4 96.1,63.2 97.3,60 102.2,58.8 100.3,61.1 101.1,63.1 102,62.2 
				101.6,61 106.2,58.8 108,62.2 123.2,66.1 123.2,66.8 125.2,67.9 123.6,68.5 125.6,68.9 124.2,70 132,74.8 130.7,75.5 130.7,76.1 
				129.8,76.6 129.8,76.6 			"/>
			<polygon id="XMLID_57_" class="st3" points="111.8,81.3 110.8,81.3 111.8,81.3 			"/>
			<polygon id="XMLID_56_" class="st3" points="103.5,76 104.4,76.7 103.5,76 103.5,76 			"/>
			<polygon id="XMLID_55_" class="st3" points="125.2,33.4 124.4,33.9 132.3,35.1 125,37.4 128.2,37.6 114.1,44.1 115.3,44.1 
				114.1,44.9 115.3,45.9 113.4,47.9 111.2,47.9 111.5,48.6 109.7,50.6 111.4,51 96.8,51.5 99.9,49.8 98.5,48.4 103.1,49.2 
				101.1,47 99.4,47.3 103.1,44.2 100.1,42 101.2,41.7 100.6,41.1 106.2,42.7 104.6,41.4 109.2,39.7 97.2,39.4 98.4,39 96.3,39 
				99,37.6 95.6,37.9 96.8,37.2 93.9,37.5 125.2,33.4 			"/>
			<polygon id="XMLID_54_" class="st3" points="143.2,70.4 144.4,70.3 145.7,67.4 141,65.5 144.4,66.1 144.8,65.5 141.7,63 
				140.6,63.7 139.4,63 140.3,61.1 139.3,60.4 139.3,59.7 125.2,52.5 125.6,52.9 122.2,52 123.1,51.3 119.8,50.5 125.5,49.3 
				126.1,48.4 124.3,48.4 123.9,48.8 118,46.9 126.3,44.4 127.5,42.1 124.2,41.2 139.6,34.7 141.4,36 141.2,35.1 141.7,34.7 
				144.4,35.8 144.1,34.8 151.1,35.8 148.6,34 150.3,33.5 149.4,32.8 156.7,32.3 156.7,31.7 181.2,33.5 167.3,35.8 176.1,35.8 
				174.5,37.9 179.6,35.5 180.7,36.8 177.7,40.6 192.9,37.1 187.5,39.8 188.4,39.8 182,47.3 185.1,48.1 184.3,48.4 186.2,49.9 
				182.2,51.2 184.3,54.8 182.9,55.4 184.6,56.2 182.7,57.4 183.1,58.1 180.7,59.7 178.7,58.7 181.1,60.7 180.5,61.9 177.5,59.9 
				181.9,65.4 180.7,65.9 176.6,63.7 177.1,64.8 176.1,65.4 180.9,66.8 161.9,75.9 161.9,75 157.5,79 158.1,80.1 154.3,87.5 
				153.8,87 152.9,87.4 150.8,85.4 149,86 144.7,79.9 145.4,79.1 143.8,79 141.9,75 142.3,73.9 141.4,73.9 143.2,70.4 143.2,70.4 
							"/>
			<polygon id="XMLID_53_" class="st3" points="141.1,68.8 140.3,67.2 141.2,66.4 143.8,67.9 141.1,68.8 141.1,68.8 			"/>
			<polygon id="XMLID_52_" class="st3" points="185.5,55.4 184.9,54.7 185.4,54.1 186.2,54.1 186.2,54.7 186.9,54.7 185.5,55.4 
				185.5,55.4 			"/>
			<polygon id="XMLID_51_" class="st3" points="135.3,109.2 134.9,108.7 135.7,107.6 135.3,107.4 139,102.5 139.3,103 138.1,105.6 
				138.8,105.2 139.5,105.5 139.3,105.7 139.3,106.1 140,106.1 140,106.3 141.8,106.1 141.8,107.6 142.3,107.4 141.8,108.1 
				142.1,108.8 142.7,108.5 143,109.4 142.3,110.5 141.1,108.7 139.6,109.9 140.1,109.2 135.3,109.2 135.3,109.2 			"/>
			<polygon id="XMLID_50_" class="st3" points="386.6,54.5 385.5,54.9 384.7,54.5 382.9,55.1 382.1,54.7 381.2,55.4 379,53.4 
				380.9,51.6 383.6,53 384.3,51.9 388.6,53 387.8,54.5 386.6,54.5 386.6,54.5 			"/>
			<polygon id="XMLID_49_" class="st3" points="87.3,140.3 91.2,150.8 100.5,146.6 99.2,150.6 99.2,150.3 98.9,150.3 98.1,153.5 
				104.8,154.6 104.5,159.9 107.4,162.6 110.1,161.8 112.6,163.2 111.5,164.2 111,163.9 111.3,163.4 110.2,162.6 108.6,163.8 
				109,164.2 108.3,164.8 102.9,161.2 102.9,161.6 77.3,148.3 77.8,147.1 70.8,138.1 70.3,138.1 65.5,132.6 72.2,144.1 71.9,144.8 
				65.8,138.5 66.6,138.1 62.7,131.3 73.8,132.8 73.8,132.3 79.7,136.2 81.2,135 87.4,140.3 87.1,139.8 87.1,139.8 87.3,140.3 
				87.3,140.3 			"/>
			<polygon id="XMLID_48_" class="st3" points="106.5,100 108,100.8 106.5,100.3 106.5,100 106.5,100 			"/>
			<polygon id="XMLID_47_" class="st3" points="48.8,104.4 49.4,104.2 54.6,107.6 54.6,108 51,106.4 51.4,105.9 49.1,105 
				49.6,104.6 48.8,104.4 48.8,104.4 			"/>
			<polygon id="XMLID_46_" class="st3" points="43.4,99.8 42.9,98.7 43.9,99 43.6,99.5 44.2,98.9 44.6,101.7 43.9,100.9 44.1,100.4 
				43.4,99.8 43.4,99.8 			"/>
			<polygon id="XMLID_45_" class="st3" points="18.3,92.1 18.8,92.1 18.8,92.6 17.1,93.8 16.2,93.3 16.2,92.7 18.3,92.1 			"/>
			<polygon id="XMLID_44_" class="st3" points="223.9,123.4 223.9,123.7 226.8,125.3 227.3,123.3 223.9,123.4 223.9,123.4 			"/>
			<polygon id="XMLID_43_" class="st3" points="219.4,116.6 220.1,116.2 219.9,118.4 219.1,116.7 219.4,116.6 			"/>
			<polygon id="XMLID_42_" class="st3" points="219.2,120.2 218.8,119.3 219.7,118.7 220.3,119 220.5,120.8 219.4,122 219.2,120.2 
				219.2,120.2 			"/>
			<polygon id="XMLID_41_" class="st3" points="212.7,121.1 212.3,121.4 211.7,121 212.4,120.7 212.7,121.1 212.7,121.1 			"/>
			<polygon id="XMLID_40_" class="st3" points="221.8,96.5 220.8,96 220.8,95.5 221.6,95.5 221.8,96.9 221.8,96.5 221.8,96.5 			"/>
			<polygon id="XMLID_39_" class="st3" points="222.5,96.8 223.1,96.3 222.2,95.6 223,94.3 224.1,95.4 222.8,97.1 222.2,96.9 
				222.4,96.7 222.5,96.8 222.5,96.8 			"/>
			<polygon id="XMLID_38_" class="st3" points="231.5,91.6 230.8,92.7 231.9,91.1 231.5,91.6 231.5,91.6 			"/>
			<polygon id="XMLID_37_" class="st3" points="236.5,89.9 236.5,90.4 235.8,90.9 235.4,90.2 236.3,89.8 236,89.3 236.4,88.9 
				236.9,89.3 236.5,89.9 236.5,89.9 			"/>
			<polygon id="XMLID_36_" class="st3" points="240.8,127.5 238.1,127.2 240.8,127.5 			"/>
			<polygon id="XMLID_35_" class="st3" points="249.1,128 248.6,127.6 251.1,126.7 249.1,128 249.1,128 			"/>
			<polygon id="XMLID_34_" class="st3" points="274.5,157.7 275,158.1 275.8,157.5 274.5,157.7 274.5,157.7 			"/>
			<polygon id="XMLID_33_" class="st3" points="268.4,68.3 268.9,67.9 270.4,68.6 270.4,69.1 268.6,69.9 267.8,69.3 268.4,68.3 
				268.4,68.3 			"/>
			<polygon id="XMLID_32_" class="st3" points="283,67.4 282.4,67.6 280.9,66.5 283,67.4 			"/>
			<polygon id="XMLID_31_" class="st3" points="295.3,59.9 297,59.5 295.9,58.6 295.3,59.9 295.3,59.9 			"/>
			<polygon id="XMLID_30_" class="st3" points="382.8,58.6 384.9,57.3 386.9,59.1 383,58.4 382.8,58.6 382.8,58.6 			"/>
			<polygon id="XMLID_29_" class="st3" points="390.7,53.3 396.2,54.6 394.3,55.2 390.7,53.3 390.7,53.3 			"/>
			<polygon id="XMLID_28_" class="st3" points="383.9,56.7 383.2,57.3 382.7,56.7 383.9,56.7 			"/>
			<polygon id="XMLID_27_" class="st3" points="131,106.8 131.6,106.5 128.5,105.5 131,106.8 			"/>
			<polygon id="XMLID_26_" class="st3" points="128.9,110.2 131.2,110.9 131.2,111.1 130.6,111.6 128.7,110.5 128.9,110.2 
				128.9,110.2 			"/>
			<polygon id="XMLID_25_" class="st3" points="133.9,111.3 133.9,111.6 133,112.2 132.3,111.7 133.3,110.2 133.9,111.3 
				133.9,111.3 			"/>
			<polygon id="XMLID_24_" class="st3" points="1.2,87.8 1.9,87.5 2.5,88.2 0.6,87.8 1.2,87.8 			"/>
			<polygon id="XMLID_23_" class="st3" points="16.1,149.7 16.1,150.1 15.3,150.3 15,149.4 16.1,149.7 			"/>
			<polygon id="XMLID_22_" class="st3" points="14.8,148.2 14.6,148.3 14.2,147.9 14.8,148.2 			"/>
			<polygon id="XMLID_21_" class="st3" points="13.9,147.4 13.3,147.8 13.1,147.4 13.9,147.4 			"/>
			<polygon id="XMLID_20_" class="st3" points="12.3,147 12.7,146.9 12.7,147.2 12.5,147.3 12.1,147 12.4,147 12.3,147 12.3,147 			
				"/>
			<polygon id="XMLID_19_" class="st3" points="10.9,146.1 10.9,146.5 10.3,146.2 10.5,145.9 10.9,146.1 			"/>
		</g>
	</g>
</g>
</svg>
