<!-- Generator: Adobe Illustrator 19.0.0, SVG Export Plug-In  -->
<svg version="1.1"
	 xmlns="http://www.w3.org/2000/svg" xmlns:xlink="http://www.w3.org/1999/xlink" xmlns:a="http://ns.adobe.com/AdobeSVGViewerExtensions/3.0/"
	 x="0px" y="0px" width="208.1px" height="195.1px" viewBox="0 0 208.1 195.1" style="enable-background:new 0 0 208.1 195.1;"
	 xml:space="preserve">
<style type="text/css">
	.st0{fill:#CAD3B2;}
</style>
<defs>
</defs>
<polygon class="st0" points="118.3,181.6 118.1,180.7 118.5,180.6 118.5,180.3 117.8,180.6 117.9,181.6 117.7,182.9 "/>
<polygon class="st0" points="130.4,186.5 129.9,185.8 130.2,184.9 129.3,184.2 128.4,181.6 127.6,179.8 126.6,180 126.6,179.8 
	125.7,179.7 126.9,179.1 126.7,178.5 126.2,178.3 125.5,177 124.9,177 124.6,175.9 124.2,175.5 124.2,174.8 122.6,174.2 
	122.2,174.6 121.5,174.4 121.6,173.9 120.3,173.6 120.3,173.9 120.5,174.3 120.4,174.5 120,174.6 120.2,175 120.1,175.7 
	119.5,176.8 119.1,176.6 118.5,176.1 117.8,176 117.8,176.3 118.4,176.6 118.8,177.1 118.5,177.4 119,178.5 119,180 118.7,180.6 
	118.3,183.2 118.4,183.9 118.1,184.2 118.7,186.4 118.5,187.2 119.2,189.9 120.1,193 120.9,194.3 122.3,195.1 123.4,194.8 
	125.4,194.5 127.2,194 129.1,192 129.9,190.4 130.3,189.4 130.2,188.4 130.4,188.1 "/>
<polygon class="st0" points="120.6,171.6 120.3,171.4 118.5,171.5 118.5,172.2 120,173.2 119.9,172.7 120.2,172.6 "/>
<polygon class="st0" points="120.7,172.9 121.8,173.5 122.4,173.9 123.3,173.9 123.9,174.3 123.6,173.8 122.3,173 122.1,172.1 
	121.3,171.9 121.1,172.2 121.4,172.5 120.7,172.5 "/>
<polygon class="st0" points="163.5,99.6 163.9,99.3 163.5,98.7 "/>
<polygon class="st0" points="161.3,98.5 161.5,99.6 162.1,100 161.9,99 "/>
<polygon class="st0" points="162.3,98.6 162.5,99.3 162.9,99.5 163,98.8 162.9,98.2 "/>
<polygon class="st0" points="159.7,98.8 159.8,99.4 160.2,99.2 160.7,97.8 160.3,97.3 "/>
<polygon class="st0" points="184.8,101.4 185.9,100 186.4,100.3 187,98.9 187,97.5 186.8,97.3 186.5,96.9 186.5,96.2 186.2,95.8 
	185.8,95 185.3,93.4 185,91.1 184.6,90.2 184.6,89 184.2,87.4 183.7,86.6 183.4,86.1 182.4,86.1 181.7,85.6 181.2,86.1 181.5,86.6 
	181.2,87.1 181.2,87.7 180.6,88.6 181,88.9 180.8,89.8 180.3,89.8 179.4,88.7 178.5,87.8 178.2,87.2 177.6,86.7 177.1,85.1 
	177.1,84.4 177.5,84 177.7,83.3 178.8,82.5 179.2,82.9 179.9,83 180.3,82.5 180.3,81.7 181,81.4 181.8,79.5 182,78 182.6,76.8 
	182,76.6 181,75.6 180.4,75.7 180,75.4 179,75.5 177.1,75.6 175.3,75.4 173,75.6 171.5,75.6 170.3,75 169.2,75.1 168.1,74.7 
	168.2,73.9 167.7,72.6 167.6,71.9 167.3,70.5 166.5,69.1 165.9,69.3 165.9,69.7 164.7,69.3 164.2,68.7 163.3,68 162.8,68 
	162.6,68.6 163.4,69.1 162.8,69.4 161.6,69.3 160.8,68.2 160.8,67.6 160.1,66.7 159.6,66 159.3,66.8 158.8,66.9 158.8,67.7 
	159.4,68.2 158.9,69.7 157.7,71 157.6,72.3 160.3,73.3 161.3,72.9 162.8,73 162.5,73.7 162.9,75.2 162.1,75.8 161.4,75.5 160.6,76 
	160.1,77.5 159,77.8 159,80.1 160.3,81.6 161.8,82.2 163.2,84 163.2,85.9 163.7,87.3 163.5,88.4 163.8,90.1 165.4,92.5 165.5,94.1 
	165.9,95 166,96.8 166.6,96.6 167,97.7 167.3,98.3 167.9,98.3 168.2,97.4 168.7,97.2 169.5,97.7 169.5,97.9 170.1,97.5 170.2,96.5 
	169.6,95.2 169.9,95.2 170,94 170.5,93.3 170.2,92.7 170.6,93.2 170.6,93.6 170,95.5 170.8,96.6 171.5,95.4 172.3,95 172.1,95.6 
	171.6,95.8 171.1,96.7 172,97.4 172.9,95.6 174,95.2 174.1,93.7 173.3,92.4 172.6,92.1 173.8,91.6 173.9,91 173.2,89.9 172.9,87.9 
	173.4,89.6 174.5,90.5 175.1,90.5 175.3,90.9 177.4,91.8 178.5,91.2 178.9,91.3 178.8,91 179.3,91 181.1,95 181.8,95.5 181.8,96.3 
	181.5,97.6 181.9,97.8 181.6,99.5 181.8,99.9 182.5,99.2 182.7,98.7 182.6,99.7 182.3,100.3 182.8,101 183.9,102.5 184.7,104.5 
	184.9,104.4 184.6,103 184.7,102.9 184.6,102.5 "/>
<polygon class="st0" points="178.4,92.8 178.5,94 179.1,93.7 179.2,92.9 178.8,92.5 "/>
<path class="st0" d="M176.2,92.1c0,0,0,0.5,0,0.5l0.6,1.2l-0.1,0.9l0.5,0.7L178,94l-0.3-0.9L176.2,92.1z"/>
<polygon class="st0" points="175.1,91.8 174,92.2 174.1,92.7 174.8,94.4 175.9,94.5 175.8,92.8 "/>
<polygon class="st0" points="175.4,57.1 173.9,57 172.4,57.6 171.3,57.1 168.6,56.8 168,55.9 166.1,56.1 163.3,57.8 162,60.3 
	160.9,60.8 160.8,62.2 160.3,63.1 161.5,64.9 163.4,65.3 164.2,64.8 167,66.4 168.6,66.4 169.7,65 171,64.9 172.2,65.4 174.3,64.8 
	175.8,64.9 178.2,64.2 178.1,63.2 178.1,61.6 176.3,60.8 176.2,59.7 176.6,58.3 176.3,58.3 "/>
<polygon class="st0" points="153.8,58.9 153.3,58.6 151.8,59.3 150.8,59 149.7,57.4 148,56.8 147.6,55.4 146.2,54.7 144.1,54.5 
	143,55.6 141.8,56 141.1,56.6 139.5,55.8 138.5,56 137.8,54.7 138.2,52.3 136.7,52.1 134.9,52.6 133.5,51.4 133.3,49.8 132.1,49.1 
	130.9,49.1 130.5,48.6 129.8,49.2 129.7,50.9 129.1,51.1 128.6,49.9 127.6,48.7 127.1,47.9 125.9,47.3 124.6,47.3 122.9,45.5 
	122,44.9 120.6,44.8 120.1,44.2 117.9,43.4 116.5,43.6 115.8,44.6 115.2,44.3 114,44.3 113.6,43.7 111.9,42.8 111.7,43.2 
	111.8,45.2 110.9,48.2 110.9,50.2 109.6,52.1 109.9,53.6 111.2,53.7 112.2,54.5 113.2,54.6 114.2,55.3 116.2,55.9 118.9,57.6 
	120.6,59.8 122.9,60.3 124,61 125.5,61 127.4,62.3 130.4,62 131.4,62.9 134.3,62.1 137.1,62.8 137.4,64.3 138.9,65.6 142,66.4 
	143.1,65.8 145.1,65.8 150,67.6 151.3,66.9 153.4,68.1 157,67.3 157.4,64.7 156.3,62.4 156.8,59.7 156.5,58.5 155.4,58.4 "/>
<polygon class="st0" points="47.6,85.2 48.4,85 48.9,83.5 49.7,83.7 50.7,83.2 54.6,83.4 56.9,82.6 57.4,82.1 58.7,81.7 58.2,82.5 
	58.8,83.2 60.1,82.4 61.1,82 60.7,81.5 60.9,80.7 59.6,77 58.5,75.5 58.7,74.7 58,74.1 56.8,74.1 55,72.9 54.7,70.8 54.8,69.4 
	54,67.6 52.9,67.6 52.3,67.9 50.9,67.5 50,67.5 50,66.1 50.9,63.7 51.7,63.5 53.3,61.3 53.5,60.3 54.6,59.7 55.3,59.2 56.6,59.7 
	56.8,60.8 57.7,61 59.8,59.9 62.8,59.7 64.7,57.7 65.8,54.3 68.4,52.4 69.1,51.2 69.4,49.3 70.6,47.5 72.5,46.6 73.1,45.2 
	73.1,44.1 72.3,43.5 74,41.7 74.9,41 75.1,39.6 75.4,36.8 74.8,34.6 74.5,34.1 76.3,32.4 77.4,32 78.4,31.3 79.1,31.4 80.3,30.2 
	80.1,28.9 78.7,28.6 77.3,29.1 75.6,28.7 74.8,27.3 72.8,26.4 70.7,25.9 68.6,24 68.3,22.3 67.4,18.4 66.4,16.7 66.3,14.9 
	67.3,14.5 67.4,13.3 69.1,12.3 69,10.9 67.4,10.4 67,9.3 65.5,8.4 63.9,7 62.8,5.6 61.6,6 60.8,6.3 59.9,5.5 59.7,3.3 62.5,1.4 
	62.1,0.4 60.4,0.7 59.1,0 57.2,1 55.8,2.2 54.2,2.2 53.3,3.7 52.2,4.7 54.7,8.4 54.9,10.9 52.1,14.5 53.6,15.8 53.6,17.4 52.1,19.6 
	49.9,19.6 47.8,18.8 46.4,19.7 47.1,21.2 48.3,21.8 49,23.4 48.7,24.4 47.3,25.1 46.1,25.3 45.6,26.1 45.4,28.1 45,29.5 45,30.2 
	44.6,30.7 45,33.3 43.8,35.1 42.7,33.7 42,33.7 41.9,34.5 40.5,34.4 39.8,34 38.5,34.1 38.1,34.8 35.9,36.5 36.9,36.8 36.2,37.6 
	34.1,38.6 33.5,38.1 32,38.4 31.6,39.3 31.4,40.2 30.3,40.6 29.6,41.5 29.6,43.1 30.1,45 30,46.2 30.4,47.3 30.2,48.4 27.9,49.3 
	25.9,49.3 24.1,49.5 21,49.7 19,50.2 18.3,50.8 16.5,50.7 14.5,51.2 7.9,51.4 0,49.2 0,49.2 3,53.2 3.6,54.5 5.1,56.1 6.6,56.9 
	7.1,57.4 9,57.6 10.1,58 10.2,58.6 11.8,58.8 11.9,60.8 12.3,62.1 12.4,63.7 12.6,64.7 14.1,64.6 15.5,65.6 15.7,67.8 14.9,68.6 
	13.4,68.1 10.6,68.9 10,69.5 8.3,70.2 7.7,71.3 8,72.3 7.1,73.5 7.7,74.9 7.4,77 7.4,77.9 8.1,77.9 8.1,78.7 8.6,78.9 10.2,77.9 
	11.6,77.9 11.6,78.4 12.1,78.2 12.9,77.5 14.2,77.6 14.8,77.8 15.7,77.5 16.4,77.6 17.1,77.6 17.2,77 17.7,76.4 18.8,77.1 
	19.6,77.1 19.7,76.6 20.3,76.8 20.7,77.4 21.6,77.4 22.4,78 23.3,78 24.6,76.7 26.1,76.7 27,77 27.9,76.4 28.8,76.4 29,76 
	29.4,76.3 31.1,76.5 32.5,76 34.2,76 35.4,76.9 35.9,78.2 35.7,79.2 35.9,79.4 35.6,79.5 35.6,79.9 36.6,79.9 38.3,79.1 38.2,80.3 
	39.5,81.8 39.8,83.8 40.1,84 40,84.8 39.6,85.1 39.9,85.2 40.4,85.2 40.8,86.5 41.8,86.4 43.5,86.3 45.5,87.3 45.4,88 46.3,87.4 
	46.4,86 "/>
<polygon class="st0" points="165.5,94.1 165.4,92.5 163.8,90.1 163.5,88.4 163.7,87.3 163.2,85.9 163.2,84 161.8,82.2 160.3,81.6 
	159,80.1 159,77.8 160.1,77.5 160.6,76 161.4,75.5 162.1,75.8 162.9,75.2 162.5,73.7 162.8,73 161.3,72.9 160.3,73.3 157.6,72.3 
	157.7,71 158.9,69.7 159.4,68.2 158.8,67.7 158.8,66.9 159.3,66.8 159.6,66 160.1,66.7 160.8,67.6 160.8,68.2 161.6,69.3 
	162.8,69.4 163.4,69.1 162.6,68.6 162.8,68 163.3,68 164.2,68.7 164.7,69.3 165.9,69.7 165.9,69.3 166.5,69.1 167.3,70.5 
	167.6,71.9 167.7,72.6 168.2,73.9 168.1,74.7 169.2,75.1 170.3,75 171.5,75.6 173,75.6 175.3,75.4 177.1,75.6 179,75.5 180,75.4 
	180.4,75.7 181,75.6 182,76.6 182.6,76.8 182,78 181.8,79.5 181,81.4 180.3,81.7 180.3,82.5 179.9,83 179.2,82.9 178.8,82.5 
	177.7,83.3 177.5,84 177.1,84.4 177.1,85.1 177.6,86.7 178.2,87.2 178.5,87.8 179.4,88.7 180.3,89.8 180.8,89.8 181,88.9 
	180.6,88.6 181.2,87.7 181.2,87.1 181.5,86.6 181.2,86.1 181.7,85.6 182.4,86.1 183.4,86.1 183.7,86.6 184.2,87.4 184.6,89 
	184.6,90.2 185,91.1 185.3,93.4 185.8,95 186.2,95.8 186.5,96.2 186.5,96.9 186.8,97.3 187,97.5 187,96.9 187.3,95.8 187.8,96.1 
	188.4,95.7 189.1,93.8 188.8,92.7 189,91.3 188.8,89.7 190,89.9 190.1,87.8 190.1,86.3 189.4,83.5 190.6,83.6 191.6,83.9 
	193.2,83.9 194.1,81.7 194.6,79.3 195.9,76.3 194.5,75.6 194.4,74.7 196,72.1 196.8,69.8 196.2,69.1 196.5,67.7 198.4,64.7 
	199.7,64.3 201.1,62.6 201.7,61.2 203.5,60.6 205.2,59.5 206.1,60.3 207.2,60.8 206.9,59.8 206.9,58.3 208.1,57.2 207.9,56.4 
	207.7,56.1 206.8,55.2 205.7,54.7 205,55 203.7,54.8 203.5,53.8 204.4,52.8 204.4,52 203.5,50.9 203.3,50.1 202.5,50.3 201.8,50.5 
	201.4,49.6 202.2,48 202,47.4 201.2,47.7 200.6,46.8 199.6,46.5 197.2,48 197.3,49 196.7,49.6 194.5,48.9 193,49.3 192,47.8 
	190.7,48.7 189.9,48.9 189.9,50.1 188.7,51.8 186.5,52.3 185.3,52.4 184.3,53.6 183.9,54.8 182.7,55.2 182.7,55.9 181.8,55.6 
	181,56.3 180.4,57.6 179.5,57.7 177.3,58.2 176.6,58.3 176.2,59.7 176.3,60.8 178.1,61.6 178.1,63.2 178.2,64.2 175.8,64.9 
	174.3,64.8 172.2,65.4 171,64.9 169.7,65 168.6,66.4 167,66.4 164.2,64.8 163.4,65.3 161.5,64.9 160.3,63.1 160.8,62.2 160.9,60.8 
	160.8,60.9 159.7,60.1 159.6,58.6 159,57.4 157.7,57.6 156.6,58.5 156.5,58.5 156.8,59.7 156.3,62.4 157.4,64.7 157,67.3 
	153.4,68.1 151.3,66.9 150,67.6 145.1,65.8 143.1,65.8 142,66.4 138.9,65.6 137.4,64.3 137.1,62.8 134.3,62.1 131.4,62.9 130.4,62 
	127.4,62.3 125.5,61 124,61 122.9,60.3 120.6,59.8 118.9,57.6 116.2,55.9 114.2,55.3 113.2,54.6 112.2,54.5 111.2,53.7 109.9,53.6 
	109.6,52.1 110.9,50.2 110.9,48.2 111.8,45.2 111.7,43.2 111.6,43.3 111.2,42.3 110.2,42.2 109.5,40.8 108.7,40.5 107.5,39.3 
	106.2,39.1 105.7,38.5 104.4,38.5 103.7,39.5 102.4,38.9 102.1,37.7 101.5,37.5 101.5,36.6 100.8,35.6 100.2,35.2 100.6,34.5 
	99.9,33.4 100.2,31.2 98.7,30.4 98.6,29.5 98.2,28.7 98.2,28.8 95.8,27.3 94.4,27.4 93.8,25.8 92.2,25.2 90.6,26.1 87.4,24 86.2,24 
	85.5,25.4 84,25.4 82.3,27 80.6,29.8 80.3,30.2 79.1,31.4 78.4,31.3 77.4,32 76.3,32.4 74.5,34.1 74.8,34.6 75.4,36.8 75.1,39.6 
	74.9,41 74,41.7 72.3,43.5 73.1,44.1 73.1,45.2 72.5,46.6 70.6,47.5 69.4,49.3 69.1,51.2 68.4,52.4 65.8,54.3 64.7,57.7 62.8,59.7 
	59.8,59.9 57.7,61 56.8,60.8 56.6,59.7 55.3,59.2 54.6,59.7 53.5,60.3 53.3,61.3 51.7,63.5 50.9,63.7 50,66.1 50,67.5 50.9,67.5 
	52.3,67.9 52.9,67.6 54,67.6 54.8,69.4 54.7,70.8 55,72.9 56.8,74.1 58,74.1 58.7,74.7 58.5,75.5 59.6,77 60.9,80.7 60.7,81.5 
	61.1,82 60.1,82.4 58.8,83.2 58.2,82.5 58.7,81.7 57.4,82.1 56.9,82.6 54.6,83.4 50.7,83.2 49.7,83.7 48.9,83.5 48.4,85 47.6,85.2 
	46.4,86 46.3,87.4 47.9,86.4 49.5,86.2 48.3,86.9 47.2,88.3 47.1,89.5 47.8,89.9 49.6,91.7 53.3,93 54.4,92.7 55.8,92.7 58.2,91.6 
	58.3,91.2 58.1,90.8 58.5,91 59.6,91.1 59.2,92.2 58.8,92.1 57.7,93.8 57,93.8 54.6,95.7 54.5,96.1 53.9,95.7 53.5,95.8 52.9,96.3 
	51.9,96.2 52,94.9 51.3,95.1 51,94.8 50.4,94.9 50.1,95.5 50.4,96.3 52.9,98.8 53.7,99.2 54.2,99.2 54.2,99.6 56,102 60.5,105.5 
	62.5,106 63.9,105.5 66.9,103.7 68.9,102.7 68.9,102 69.8,101.1 70,99.1 69.1,98 70,95.8 70,94.7 70.2,93.9 70.6,94.9 72,94.7 
	72.7,95 73.7,94.4 73.3,95.1 72.3,96.1 71.5,95.9 71.2,96.2 71.1,97.3 71.6,98.2 71.5,99.3 72.2,99.4 73.5,99.2 74.5,99.4 
	73.6,99.4 73.2,100 71.9,100.8 72.4,103.5 73.1,103.9 73.6,105.6 73.7,107.3 73.1,108.6 73.2,109.6 74.1,110.1 73,110.6 73.3,112.6 
	75,115.7 75.1,116.8 75.7,117.6 74.9,117.8 74.9,119 76.6,121.2 75.3,121.2 76.4,122.9 76.4,124.5 78.9,129.2 78.9,132.4 
	79.8,134.9 80.8,135.5 81.2,137.2 82,137.6 82,138.4 83.3,140.8 83.7,140.9 83.7,141.6 85.2,143.2 85.6,143.3 85.7,145.4 
	86.3,146.3 86.9,147.6 87.2,149.4 88.2,152 88.9,153 89.1,155.4 89.6,155.9 90.3,157.3 91.8,159 92.3,159.1 93.3,160.7 95,162.6 
	95.5,164.6 96.1,166.2 96.5,166.2 96.5,167.3 97.8,169.7 98.4,171.9 98.6,174.3 100.6,178.5 102.3,180.5 104.1,181.8 105.9,181.9 
	108.2,180.5 108.7,179 108.5,178.6 108.7,178.3 108.8,177.7 109.5,176.7 111.5,175.8 111.9,175.8 114.3,175 115.2,175.3 
	115.5,175.8 115.4,175.4 115.2,175.1 113.3,174.1 113.2,173.4 113.7,172.7 115.2,170.8 114.9,170.3 115.5,169.2 117,168.9 
	117.6,169.2 118.7,168.8 118.7,167.5 118.3,162.7 117.7,161.8 117.7,159.6 119.2,157 120.5,153.2 120.3,150.3 118.9,149.9 
	118.9,145.4 118.7,143.9 119.6,142.8 118.6,140 118.6,137.9 119.2,136.9 121.1,135 121.6,135 122.2,135.9 123,135.9 124.6,133.9 
	124.6,132.7 125.7,131.8 128.3,132.2 129.6,131.3 130.6,129.9 130.4,128.5 130.6,127.3 132.2,126 134.3,125.2 135.5,124.1 
	136.3,122.6 141.4,118.4 142.4,115.7 146.4,112.2 145.8,112 145.5,112.4 144.6,112.7 144.9,111.2 145.5,111.1 146.4,110.3 
	146.9,110.3 147.1,110.6 147.1,111.2 147.5,111.7 150.6,110 150.7,109.3 152.8,107.8 152.6,107.1 153.2,107 153.5,106 154.8,104.9 
	154.4,104.7 154.5,104.3 153.9,103.1 153.7,102.4 154.3,101.3 154.5,100.4 155.1,99.9 158.7,98.6 159.5,97.6 159.6,96.8 160,96 
	160.3,95.7 159.8,95.1 159.2,95 159.1,94.6 160.1,94.6 161,95.4 160.7,96.3 161,97.7 162,98 162.1,97.9 163,97.9 163.2,97.5 
	163.3,97.8 163.5,97.1 163.6,96.6 163.9,97.3 164.3,98.6 164.9,98.9 164.9,98.3 165.8,99.2 166.4,98.2 165.7,96.9 166,96.8 
	165.9,95 "/>
</svg>
