<!-- Generator: Adobe Illustrator 19.0.0, SVG Export Plug-In  -->
<svg version="1.1"
	 xmlns="http://www.w3.org/2000/svg" xmlns:xlink="http://www.w3.org/1999/xlink" xmlns:a="http://ns.adobe.com/AdobeSVGViewerExtensions/3.0/"
	 x="0px" y="0px" width="37.1px" height="24.9px" viewBox="0 0 37.1 24.9" style="enable-background:new 0 0 37.1 24.9;"
	 xml:space="preserve">
<style type="text/css">
	.st0{fill:#03A550;}
	.st1{fill:#FCEE21;}
	.st2{fill:#29ABE2;}
	.st3{fill:#FFFFFF;}
</style>
<defs>
</defs>
<g id="XMLID_15_">
	<rect id="XMLID_88_" x="0" y="0" class="st0" width="37.1" height="24.9"/>
	<polygon id="XMLID_87_" class="st1" points="3.2,12.4 18.6,22.4 34,12.4 18.6,2.5 	"/>
	<g id="XMLID_16_">
		<circle id="XMLID_86_" class="st2" cx="18.6" cy="12.4" r="6.4"/>
		<g id="XMLID_84_">
			<path id="XMLID_85_" class="st3" d="M17.1,10.1c-1.7-0.2-3.3-0.1-4.6,0.1c-0.1,0.3-0.2,0.5-0.2,0.8c1.2-0.2,2.8-0.4,4.7-0.1
				c2.8,0.4,5.4,1.7,7.6,3.8c0.1-0.3,0.2-0.5,0.2-0.8C22.6,11.7,20,10.5,17.1,10.1z"/>
		</g>
		<g id="XMLID_45_">
			<path id="XMLID_81_" class="st2" d="M13.8,10.4C13.8,10.4,13.8,10.4,13.8,10.4c0,0.1-0.1,0.1-0.1,0.1c-0.1,0-0.1,0-0.1,0
				c0,0,0-0.1,0-0.1c0,0,0-0.1,0-0.1c0,0,0,0,0.1,0c0.1,0,0.1,0,0.1,0C13.8,10.3,13.8,10.3,13.8,10.4z M13.7,10.2
				c-0.1,0-0.1,0-0.2,0.1c0,0,0,0.1,0,0.2c0,0.2,0.1,0.2,0.2,0.2c0.2,0,0.2-0.1,0.2-0.2C13.9,10.2,13.8,10.1,13.7,10.2z"/>
			<path id="XMLID_78_" class="st2" d="M14.4,10.2C14.5,10.2,14.5,10.2,14.4,10.2c0.1,0.1,0,0.1,0,0.1l-0.1,0l0-0.1L14.4,10.2z
				 M14.2,10.1l0,0.4l0.1,0l0-0.2l0.1,0c0,0,0.1,0,0.1,0.1l0,0c0,0,0,0,0,0.1l0.1,0c0,0,0-0.1,0-0.1l0,0c0,0,0-0.1-0.1-0.1
				c0.1,0,0.1-0.1,0.1-0.1c0-0.1-0.1-0.1-0.1-0.1L14.2,10.1z"/>
			<path id="XMLID_75_" class="st2" d="M15.1,10.2c0.1,0,0.1,0,0.1,0.1c0,0.1,0,0.1-0.1,0.1l-0.1,0l0-0.3L15.1,10.2z M14.9,10.1
				l0,0.4l0.2,0c0.1,0,0.2-0.1,0.2-0.2c0-0.1,0-0.1-0.1-0.2c0,0-0.1,0-0.1,0L14.9,10.1z"/>
			<path id="XMLID_73_" class="st2" d="M15.9,10.1L15.9,10.1l-0.3,0.1l0,0.1l0.2,0l0,0.1l-0.2,0l0,0.1l0.3,0l0,0.1l-0.3,0l0-0.4
				L15.9,10.1z"/>
			<path id="XMLID_71_" class="st2" d="M16.4,10.2l0.1,0.3l0.1-0.3l0.1,0l0,0.4l-0.1,0l0-0.2c0,0,0,0,0,0c0,0,0-0.1,0-0.1l-0.1,0.3
				l-0.1,0L16.4,10.2c-0.1,0.1-0.1,0.2-0.1,0.2l0,0.2l-0.1,0l0-0.4L16.4,10.2z"/>
			<path id="XMLID_69_" class="st2" d="M17.2,10.4L17.2,10.4l-0.2,0l0,0.1l0.2,0l0,0.1l-0.2,0l0,0.1l0.2,0l0,0.1l-0.2,0l0-0.3
				L17.2,10.4z"/>
			<path id="XMLID_66_" class="st2" d="M18.5,10.6C18.5,10.6,18.6,10.6,18.5,10.6c0,0.1,0,0.1,0,0.1l-0.1,0l0-0.1L18.5,10.6z
				 M18.3,10.5l-0.1,0.4l0.1,0l0-0.1l0.2,0c0.1,0,0.1,0,0.2-0.1c0-0.1,0-0.1-0.1-0.2L18.3,10.5z"/>
			<path id="XMLID_63_" class="st2" d="M19.2,10.8C19.2,10.8,19.2,10.8,19.2,10.8c0,0.1,0,0.1,0,0.1l-0.1,0l0-0.1L19.2,10.8z
				 M19,10.6L18.8,11l0.1,0l0-0.2l0.1,0c0,0,0.1,0,0,0.1l0,0c0,0,0,0,0,0.1l0.1,0c0,0,0-0.1,0-0.1l0,0c0,0,0-0.1,0-0.1
				c0.1,0,0.1-0.1,0.1-0.1c0-0.1,0-0.1-0.1-0.1L19,10.6z"/>
			<path id="XMLID_60_" class="st2" d="M19.9,11.1C19.8,11.2,19.8,11.2,19.9,11.1c-0.1,0.1-0.1,0.1-0.1,0.1c-0.1,0-0.1,0-0.1-0.1
				c0,0,0-0.1,0-0.1c0,0,0-0.1,0.1-0.1c0,0,0,0,0.1,0c0.1,0,0.1,0,0.1,0.1C19.9,11.1,19.9,11.1,19.9,11.1z M19.8,10.9
				c-0.1,0-0.1,0-0.2,0c0,0-0.1,0-0.1,0.2c-0.1,0.2,0,0.2,0.1,0.3c0.2,0.1,0.2,0,0.3-0.1C20,11,20,10.9,19.8,10.9z"/>
			<path id="XMLID_58_" class="st2" d="M20.5,11.3c0-0.1,0-0.1-0.1-0.1c-0.1,0-0.1,0-0.2,0.1c0,0.1,0,0.1,0,0.1c0,0,0,0,0,0
				c0.1,0,0.1,0,0.1,0l-0.1,0l0-0.1L20.5,11.3c0,0.2,0,0.2,0,0.2c-0.1,0.1-0.1,0-0.2,0c-0.1,0-0.1-0.1-0.1-0.1c0,0,0-0.1,0-0.2
				c0-0.1,0.1-0.2,0.1-0.2c0,0,0,0,0.1,0C20.6,11.2,20.7,11.2,20.5,11.3L20.5,11.3z"/>
			<path id="XMLID_55_" class="st2" d="M21.1,11.5C21.2,11.5,21.2,11.6,21.1,11.5C21.1,11.6,21.1,11.6,21.1,11.5l-0.2,0l0-0.1
				L21.1,11.5z M21,11.4l-0.2,0.4l0.1,0l0.1-0.1l0.1,0.1c0,0,0.1,0,0,0.1l0,0c0,0,0,0,0,0.1l0.1,0c0,0,0-0.1,0-0.1l0,0
				c0,0,0-0.1,0-0.1c0.1,0,0.1,0,0.1-0.1c0.1-0.1,0-0.1-0.1-0.2L21,11.4z"/>
			<path id="XMLID_53_" class="st2" d="M21.9,11.8L21.9,11.8l-0.3,0l0,0.1l0.2,0.1l0,0.1l-0.2-0.1l0,0.1l0.2,0.1l0,0.1L21.4,12
				l0.2-0.4L21.9,11.8z"/>
			<path id="XMLID_51_" class="st2" d="M22.3,12.2c0,0,0-0.1,0-0.1c0,0-0.1,0-0.1,0c0,0,0,0,0,0.1L22.3,12.2
				C22.3,12.3,22.3,12.3,22.3,12.2c0,0.1,0,0.2,0,0.2c-0.1,0.1-0.1,0.1-0.2,0C22,12.4,22,12.4,22,12.3c0,0,0-0.1,0-0.1l0.1,0
				c0,0,0,0.1,0,0.1c0.1,0,0.1,0.1,0.1,0C22.2,12.3,22.2,12.3,22.3,12.2l-0.2,0c-0.1,0-0.1-0.1,0-0.1c0.1-0.1,0.1-0.1,0.2,0
				C22.4,12.1,22.4,12.1,22.3,12.2C22.4,12.2,22.4,12.2,22.3,12.2L22.3,12.2z"/>
			<path id="XMLID_49_" class="st2" d="M22.9,12.6c0,0,0-0.1,0-0.1c0,0-0.1-0.1-0.1,0c0,0,0,0,0,0.1L22.9,12.6
				C22.9,12.6,22.9,12.7,22.9,12.6c0,0.1,0,0.2,0,0.2c-0.1,0.1-0.1,0.1-0.2,0c-0.1-0.1-0.1-0.1-0.1-0.1c0,0,0-0.1,0-0.1l0.1,0
				c0,0,0,0.1,0,0.1c0.1,0,0.1,0.1,0.1,0C22.8,12.7,22.8,12.7,22.9,12.6l-0.2,0c-0.1,0,0-0.1,0-0.1c0.1-0.1,0.1-0.1,0.2,0
				c0.1,0.1,0.1,0.1,0.1,0.1C23,12.6,23,12.6,22.9,12.6L22.9,12.6z"/>
			<path id="XMLID_46_" class="st2" d="M23.4,13.1C23.4,13.1,23.4,13.1,23.4,13.1c-0.1,0.1-0.1,0.1-0.2,0c-0.1,0-0.1-0.1-0.1-0.1
				c0,0,0-0.1,0.1-0.1c0,0,0.1-0.1,0.1-0.1c0,0,0,0,0.1,0C23.5,12.9,23.5,12.9,23.4,13.1C23.5,13,23.4,13,23.4,13.1z M23.5,12.8
				c-0.1-0.1-0.1-0.1-0.2-0.1c0,0-0.1,0-0.1,0.1c-0.1,0.2-0.1,0.2,0.1,0.3c0.1,0.1,0.2,0.1,0.3-0.1C23.6,13,23.6,12.9,23.5,12.8z"/>
		</g>
		<polygon id="XMLID_44_" class="st3" points="13.2,11.2 13,11.2 13.2,11.3 13.1,11.5 13.3,11.4 13.5,11.5 13.4,11.3 13.6,11.2 
			13.4,11.2 13.3,11 		"/>
		<polygon id="XMLID_43_" class="st3" points="16,12.5 15.7,12.5 15.9,12.7 15.8,12.9 16,12.7 16.2,12.9 16.1,12.7 16.3,12.5 
			16.1,12.5 16,12.3 		"/>
		<polygon id="XMLID_42_" class="st3" points="17.6,11.3 17.5,11.3 17.6,11.4 17.6,11.5 17.7,11.4 17.8,11.5 17.7,11.4 17.8,11.3 
			17.7,11.3 17.7,11.2 		"/>
		<polygon id="XMLID_41_" class="st3" points="20.2,12.2 20.1,12.2 20.2,12.2 20.2,12.3 20.3,12.3 20.4,12.3 20.3,12.2 20.4,12.2 
			20.3,12.2 20.3,12 		"/>
		<polygon id="XMLID_40_" class="st3" points="18.4,13.6 18.3,13.6 18.4,13.6 18.4,13.7 18.5,13.7 18.5,13.7 18.5,13.6 18.6,13.6 
			18.5,13.6 18.5,13.4 		"/>
		<polygon id="XMLID_39_" class="st3" points="17.8,14.2 17.6,14.2 17.7,14.2 17.7,14.4 17.8,14.3 17.9,14.4 17.9,14.2 18,14.2 
			17.8,14.2 17.8,14.1 		"/>
		<polygon id="XMLID_38_" class="st3" points="15.1,14.6 15,14.6 15.1,14.7 15,14.8 15.1,14.8 15.2,14.8 15.2,14.7 15.3,14.6 
			15.2,14.6 15.1,14.5 		"/>
		<polygon id="XMLID_37_" class="st3" points="14.4,13.5 14.3,13.5 14.4,13.6 14.3,13.7 14.4,13.7 14.5,13.7 14.5,13.6 14.6,13.5 
			14.5,13.5 14.4,13.4 		"/>
		<polygon id="XMLID_36_" class="st3" points="13,14.6 12.9,14.6 13,14.6 13,14.8 13.1,14.7 13.2,14.8 13.1,14.6 13.2,14.6 
			13.1,14.6 13.1,14.4 		"/>
		<polygon id="XMLID_35_" class="st3" points="14.8,15.3 14.7,15.3 14.8,15.4 14.8,15.5 14.9,15.4 15,15.5 14.9,15.4 15,15.3 
			14.9,15.3 14.9,15.2 		"/>
		<polygon id="XMLID_34_" class="st3" points="18.4,14.7 18.3,14.7 18.4,14.8 18.4,14.9 18.5,14.8 18.5,14.9 18.5,14.8 18.6,14.7 
			18.5,14.7 18.5,14.6 		"/>
		<polygon id="XMLID_33_" class="st3" points="19.2,14.1 19.1,14.1 19.2,14.2 19.1,14.3 19.2,14.2 19.3,14.3 19.3,14.2 19.4,14.1 
			19.3,14.1 19.2,14 		"/>
		<polygon id="XMLID_32_" class="st3" points="19.9,16.1 19.8,16.1 19.9,16.1 19.8,16.2 19.9,16.2 20,16.2 20,16.1 20.1,16.1 
			20,16.1 19.9,15.9 		"/>
		<polygon id="XMLID_31_" class="st3" points="20.9,16.2 20.8,16.2 20.9,16.3 20.9,16.4 21,16.4 21.1,16.4 21,16.3 21.1,16.2 
			21,16.2 21,16.1 		"/>
		<polygon id="XMLID_30_" class="st3" points="21.7,16.1 21.6,16.1 21.7,16.2 21.6,16.3 21.7,16.2 21.8,16.3 21.8,16.2 21.9,16.1 
			21.8,16.1 21.7,16 		"/>
		<polygon id="XMLID_29_" class="st3" points="22.4,16.2 22.2,16.2 22.3,16.3 22.3,16.4 22.4,16.3 22.5,16.4 22.5,16.3 22.6,16.2 
			22.4,16.2 22.4,16.1 		"/>
		<polygon id="XMLID_28_" class="st3" points="22.9,15.9 22.7,15.9 22.8,16 22.8,16.1 22.9,16 23,16.1 23,16 23.1,15.9 22.9,15.9 
			22.9,15.8 		"/>
		<polygon id="XMLID_27_" class="st3" points="23.2,15.4 23.1,15.4 23.2,15.5 23.2,15.6 23.3,15.6 23.4,15.6 23.3,15.5 23.4,15.4 
			23.3,15.4 23.3,15.3 		"/>
		<polygon id="XMLID_26_" class="st3" points="23.8,14.9 23.7,14.9 23.8,14.9 23.7,15.1 23.8,15 23.9,15.1 23.9,14.9 24,14.9 
			23.9,14.9 23.8,14.7 		"/>
		<polygon id="XMLID_25_" class="st3" points="21.7,16.8 21.6,16.8 21.7,16.9 21.7,17 21.8,17 21.9,17 21.8,16.9 21.9,16.8 
			21.8,16.8 21.8,16.7 		"/>
		<polygon id="XMLID_24_" class="st3" points="21.7,17.5 21.6,17.5 21.7,17.6 21.7,17.7 21.8,17.6 21.9,17.7 21.8,17.6 21.9,17.5 
			21.8,17.5 21.8,17.4 		"/>
		<polygon id="XMLID_23_" class="st3" points="18.4,17.6 18.3,17.6 18.4,17.7 18.3,17.8 18.4,17.7 18.5,17.8 18.5,17.7 18.6,17.6 
			18.5,17.6 18.4,17.5 		"/>
		<polygon id="XMLID_22_" class="st3" points="15.8,15.8 15.5,15.8 15.7,16 15.6,16.2 15.8,16.1 16,16.2 15.9,16 16.1,15.8 
			15.9,15.8 15.8,15.6 		"/>
		<polygon id="XMLID_21_" class="st3" points="18.4,15.4 18.2,15.4 18.3,15.5 18.3,15.8 18.5,15.6 18.6,15.8 18.6,15.5 18.8,15.4 
			18.5,15.4 18.5,15.2 		"/>
		<polygon id="XMLID_20_" class="st3" points="20.5,10.4 20.3,10.3 20.4,10.5 20.2,10.7 20.5,10.6 20.6,10.8 20.6,10.6 20.8,10.5 
			20.6,10.4 20.6,10.2 		"/>
		<polygon id="XMLID_19_" class="st3" points="20.4,16.9 20.1,16.9 20.3,17.1 20.2,17.3 20.4,17.1 20.6,17.3 20.5,17.1 20.7,16.9 
			20.5,16.9 20.4,16.7 		"/>
		<polygon id="XMLID_18_" class="st3" points="23,14.6 22.8,14.6 22.9,14.8 22.9,15 23,14.8 23.2,15 23.2,14.8 23.3,14.6 23.1,14.6 
			23,14.4 		"/>
		<polygon id="XMLID_17_" class="st3" points="13.8,14 13.6,14 13.8,14.1 13.7,14.3 13.9,14.2 14,14.3 14,14.1 14.2,14 13.9,14 
			13.9,13.8 		"/>
	</g>
</g>
</svg>
