<!-- Generator: Adobe Illustrator 19.0.0, SVG Export Plug-In  -->
<svg version="1.1"
	 xmlns="http://www.w3.org/2000/svg" xmlns:xlink="http://www.w3.org/1999/xlink" xmlns:a="http://ns.adobe.com/AdobeSVGViewerExtensions/3.0/"
	 x="0px" y="0px" width="3725.1px" height="265.7px" viewBox="0 0 3725.1 265.7" style="enable-background:new 0 0 3725.1 265.7;"
	 xml:space="preserve">
<style type="text/css">
	.st0{fill:none;stroke:#414042;stroke-miterlimit:10;}
	.st1{fill:none;stroke:#808285;stroke-miterlimit:10;}
</style>
<defs>
</defs>
<g id="XMLID_15_">
	<line id="XMLID_381_" class="st0" x1="0.5" y1="0" x2="0.5" y2="265.7"/>
	<line id="XMLID_380_" class="st1" x1="10.7" y1="0" x2="10.7" y2="265.7"/>
	<line id="XMLID_379_" class="st1" x1="21" y1="0" x2="21" y2="265.7"/>
	<line id="XMLID_378_" class="st1" x1="31.2" y1="0" x2="31.2" y2="265.7"/>
	<line id="XMLID_377_" class="st1" x1="41.4" y1="0" x2="41.4" y2="265.7"/>
	<line id="XMLID_376_" class="st1" x1="51.7" y1="0" x2="51.7" y2="265.7"/>
	<line id="XMLID_375_" class="st1" x1="61.9" y1="0" x2="61.9" y2="265.7"/>
	<line id="XMLID_374_" class="st1" x1="72.1" y1="0" x2="72.1" y2="265.7"/>
	<line id="XMLID_373_" class="st1" x1="82.3" y1="0" x2="82.3" y2="265.7"/>
	<line id="XMLID_372_" class="st1" x1="92.6" y1="0" x2="92.6" y2="265.7"/>
	<line id="XMLID_370_" class="st1" x1="102.8" y1="0" x2="102.8" y2="265.7"/>
	<line id="XMLID_369_" class="st1" x1="113" y1="0" x2="113" y2="265.7"/>
	<line id="XMLID_368_" class="st1" x1="123.3" y1="0" x2="123.3" y2="265.7"/>
	<line id="XMLID_367_" class="st1" x1="133.5" y1="0" x2="133.5" y2="265.7"/>
	<line id="XMLID_366_" class="st1" x1="143.7" y1="0" x2="143.7" y2="265.7"/>
	<line id="XMLID_365_" class="st1" x1="154" y1="0" x2="154" y2="265.7"/>
	<line id="XMLID_364_" class="st1" x1="164.2" y1="0" x2="164.2" y2="265.7"/>
	<line id="XMLID_363_" class="st1" x1="174.4" y1="0" x2="174.4" y2="265.7"/>
	<line id="XMLID_362_" class="st1" x1="184.7" y1="0" x2="184.7" y2="265.7"/>
	<line id="XMLID_361_" class="st1" x1="194.9" y1="0" x2="194.9" y2="265.7"/>
	<line id="XMLID_360_" class="st1" x1="205.1" y1="0" x2="205.1" y2="265.7"/>
	<line id="XMLID_359_" class="st1" x1="215.4" y1="0" x2="215.4" y2="265.7"/>
	<line id="XMLID_358_" class="st1" x1="225.6" y1="0" x2="225.6" y2="265.7"/>
	<line id="XMLID_357_" class="st1" x1="235.8" y1="0" x2="235.8" y2="265.7"/>
	<line id="XMLID_356_" class="st1" x1="246" y1="0" x2="246" y2="265.7"/>
	<line id="XMLID_355_" class="st1" x1="256.3" y1="0" x2="256.3" y2="265.7"/>
	<line id="XMLID_354_" class="st1" x1="266.5" y1="0" x2="266.5" y2="265.7"/>
	<line id="XMLID_353_" class="st1" x1="276.7" y1="0" x2="276.7" y2="265.7"/>
	<line id="XMLID_352_" class="st1" x1="287" y1="0" x2="287" y2="265.7"/>
	<line id="XMLID_351_" class="st1" x1="297.2" y1="0" x2="297.2" y2="265.7"/>
	<line id="XMLID_350_" class="st1" x1="307.4" y1="0" x2="307.4" y2="265.7"/>
	<line id="XMLID_349_" class="st0" x1="317.7" y1="0" x2="317.7" y2="265.7"/>
	<line id="XMLID_348_" class="st1" x1="327.9" y1="0" x2="327.9" y2="265.7"/>
	<line id="XMLID_347_" class="st1" x1="338.1" y1="0" x2="338.1" y2="265.7"/>
	<line id="XMLID_346_" class="st1" x1="348.4" y1="0" x2="348.4" y2="265.7"/>
	<line id="XMLID_345_" class="st1" x1="358.6" y1="0" x2="358.6" y2="265.7"/>
	<line id="XMLID_344_" class="st1" x1="368.8" y1="0" x2="368.8" y2="265.7"/>
	<line id="XMLID_343_" class="st1" x1="379.1" y1="0" x2="379.1" y2="265.7"/>
	<line id="XMLID_342_" class="st1" x1="389.3" y1="0" x2="389.3" y2="265.7"/>
	<line id="XMLID_341_" class="st1" x1="399.5" y1="0" x2="399.5" y2="265.7"/>
	<line id="XMLID_340_" class="st1" x1="409.7" y1="0" x2="409.7" y2="265.7"/>
	<line id="XMLID_339_" class="st1" x1="420" y1="0" x2="420" y2="265.7"/>
	<line id="XMLID_338_" class="st1" x1="430.2" y1="0" x2="430.2" y2="265.7"/>
	<line id="XMLID_337_" class="st1" x1="440.4" y1="0" x2="440.4" y2="265.7"/>
	<line id="XMLID_336_" class="st1" x1="450.7" y1="0" x2="450.7" y2="265.7"/>
	<line id="XMLID_335_" class="st1" x1="460.9" y1="0" x2="460.9" y2="265.7"/>
	<line id="XMLID_334_" class="st1" x1="471.1" y1="0" x2="471.1" y2="265.7"/>
	<line id="XMLID_333_" class="st1" x1="481.4" y1="0" x2="481.4" y2="265.7"/>
	<line id="XMLID_332_" class="st1" x1="491.6" y1="0" x2="491.6" y2="265.7"/>
	<line id="XMLID_331_" class="st1" x1="501.8" y1="0" x2="501.8" y2="265.7"/>
	<line id="XMLID_330_" class="st1" x1="512.1" y1="0" x2="512.1" y2="265.7"/>
	<line id="XMLID_329_" class="st1" x1="522.3" y1="0" x2="522.3" y2="265.7"/>
	<line id="XMLID_328_" class="st1" x1="532.5" y1="0" x2="532.5" y2="265.7"/>
	<line id="XMLID_327_" class="st1" x1="542.8" y1="0" x2="542.8" y2="265.7"/>
	<line id="XMLID_326_" class="st1" x1="553" y1="0" x2="553" y2="265.7"/>
	<line id="XMLID_325_" class="st1" x1="563.2" y1="0" x2="563.2" y2="265.7"/>
	<line id="XMLID_324_" class="st1" x1="573.4" y1="0" x2="573.4" y2="265.7"/>
	<line id="XMLID_323_" class="st1" x1="583.7" y1="0" x2="583.7" y2="265.7"/>
	<line id="XMLID_322_" class="st1" x1="593.9" y1="0" x2="593.9" y2="265.7"/>
	<line id="XMLID_321_" class="st0" x1="604.1" y1="0" x2="604.1" y2="265.7"/>
	<line id="XMLID_320_" class="st1" x1="614.4" y1="0" x2="614.4" y2="265.7"/>
	<line id="XMLID_319_" class="st1" x1="624.6" y1="0" x2="624.6" y2="265.7"/>
	<line id="XMLID_318_" class="st1" x1="634.8" y1="0" x2="634.8" y2="265.7"/>
	<line id="XMLID_317_" class="st1" x1="645.1" y1="0" x2="645.1" y2="265.7"/>
	<line id="XMLID_316_" class="st1" x1="655.3" y1="0" x2="655.3" y2="265.7"/>
	<line id="XMLID_315_" class="st1" x1="665.5" y1="0" x2="665.5" y2="265.7"/>
	<line id="XMLID_314_" class="st1" x1="675.8" y1="0" x2="675.8" y2="265.7"/>
	<line id="XMLID_313_" class="st1" x1="686" y1="0" x2="686" y2="265.7"/>
	<line id="XMLID_312_" class="st1" x1="696.2" y1="0" x2="696.2" y2="265.7"/>
	<line id="XMLID_311_" class="st1" x1="706.4" y1="0" x2="706.4" y2="265.7"/>
	<line id="XMLID_310_" class="st1" x1="716.7" y1="0" x2="716.7" y2="265.7"/>
	<line id="XMLID_309_" class="st1" x1="726.9" y1="0" x2="726.9" y2="265.7"/>
	<line id="XMLID_308_" class="st1" x1="737.1" y1="0" x2="737.1" y2="265.7"/>
	<line id="XMLID_307_" class="st1" x1="747.4" y1="0" x2="747.4" y2="265.7"/>
	<line id="XMLID_306_" class="st1" x1="757.6" y1="0" x2="757.6" y2="265.7"/>
	<line id="XMLID_305_" class="st1" x1="767.8" y1="0" x2="767.8" y2="265.7"/>
	<line id="XMLID_304_" class="st1" x1="778.1" y1="0" x2="778.1" y2="265.7"/>
	<line id="XMLID_303_" class="st1" x1="788.3" y1="0" x2="788.3" y2="265.7"/>
	<line id="XMLID_302_" class="st1" x1="798.5" y1="0" x2="798.5" y2="265.7"/>
	<line id="XMLID_301_" class="st1" x1="808.8" y1="0" x2="808.8" y2="265.7"/>
	<line id="XMLID_300_" class="st1" x1="819" y1="0" x2="819" y2="265.7"/>
	<line id="XMLID_299_" class="st1" x1="829.2" y1="0" x2="829.2" y2="265.7"/>
	<line id="XMLID_298_" class="st1" x1="839.5" y1="0" x2="839.5" y2="265.7"/>
	<line id="XMLID_297_" class="st1" x1="849.7" y1="0" x2="849.7" y2="265.7"/>
	<line id="XMLID_296_" class="st1" x1="859.9" y1="0" x2="859.9" y2="265.7"/>
	<line id="XMLID_295_" class="st1" x1="870.1" y1="0" x2="870.1" y2="265.7"/>
	<line id="XMLID_294_" class="st1" x1="880.4" y1="0" x2="880.4" y2="265.7"/>
	<line id="XMLID_293_" class="st1" x1="890.6" y1="0" x2="890.6" y2="265.7"/>
	<line id="XMLID_292_" class="st1" x1="900.8" y1="0" x2="900.8" y2="265.7"/>
	<line id="XMLID_291_" class="st1" x1="911.1" y1="0" x2="911.1" y2="265.7"/>
	<line id="XMLID_290_" class="st0" x1="921.3" y1="0" x2="921.3" y2="265.7"/>
	<line id="XMLID_289_" class="st1" x1="931.5" y1="0" x2="931.5" y2="265.7"/>
	<line id="XMLID_288_" class="st1" x1="941.8" y1="0" x2="941.8" y2="265.7"/>
	<line id="XMLID_287_" class="st1" x1="952" y1="0" x2="952" y2="265.7"/>
	<line id="XMLID_286_" class="st1" x1="962.2" y1="0" x2="962.2" y2="265.7"/>
	<line id="XMLID_285_" class="st1" x1="972.5" y1="0" x2="972.5" y2="265.7"/>
	<line id="XMLID_284_" class="st1" x1="982.7" y1="0" x2="982.7" y2="265.7"/>
	<line id="XMLID_283_" class="st1" x1="992.9" y1="0" x2="992.9" y2="265.7"/>
	<line id="XMLID_282_" class="st1" x1="1003.2" y1="0" x2="1003.2" y2="265.7"/>
	<line id="XMLID_281_" class="st1" x1="1013.4" y1="0" x2="1013.4" y2="265.7"/>
	<line id="XMLID_280_" class="st1" x1="1023.6" y1="0" x2="1023.6" y2="265.7"/>
	<line id="XMLID_279_" class="st1" x1="1033.8" y1="0" x2="1033.8" y2="265.7"/>
	<line id="XMLID_278_" class="st1" x1="1044.1" y1="0" x2="1044.1" y2="265.7"/>
	<line id="XMLID_277_" class="st1" x1="1054.3" y1="0" x2="1054.3" y2="265.7"/>
	<line id="XMLID_276_" class="st1" x1="1064.5" y1="0" x2="1064.5" y2="265.7"/>
	<line id="XMLID_275_" class="st1" x1="1074.8" y1="0" x2="1074.8" y2="265.7"/>
	<line id="XMLID_274_" class="st1" x1="1085" y1="0" x2="1085" y2="265.7"/>
	<line id="XMLID_273_" class="st1" x1="1095.2" y1="0" x2="1095.2" y2="265.7"/>
	<line id="XMLID_272_" class="st1" x1="1105.5" y1="0" x2="1105.5" y2="265.7"/>
	<line id="XMLID_271_" class="st1" x1="1115.7" y1="0" x2="1115.7" y2="265.7"/>
	<line id="XMLID_270_" class="st1" x1="1125.9" y1="0" x2="1125.9" y2="265.7"/>
	<line id="XMLID_269_" class="st1" x1="1136.2" y1="0" x2="1136.2" y2="265.7"/>
	<line id="XMLID_268_" class="st1" x1="1146.4" y1="0" x2="1146.4" y2="265.7"/>
	<line id="XMLID_267_" class="st1" x1="1156.6" y1="0" x2="1156.6" y2="265.7"/>
	<line id="XMLID_266_" class="st1" x1="1166.8" y1="0" x2="1166.8" y2="265.7"/>
	<line id="XMLID_265_" class="st1" x1="1177.1" y1="0" x2="1177.1" y2="265.7"/>
	<line id="XMLID_264_" class="st1" x1="1187.3" y1="0" x2="1187.3" y2="265.7"/>
	<line id="XMLID_263_" class="st1" x1="1197.5" y1="0" x2="1197.5" y2="265.7"/>
	<line id="XMLID_262_" class="st1" x1="1207.8" y1="0" x2="1207.8" y2="265.7"/>
	<line id="XMLID_261_" class="st1" x1="1218" y1="0" x2="1218" y2="265.7"/>
	<line id="XMLID_260_" class="st0" x1="1228.2" y1="0" x2="1228.2" y2="265.7"/>
	<line id="XMLID_259_" class="st1" x1="1238.5" y1="0" x2="1238.5" y2="265.7"/>
	<line id="XMLID_258_" class="st1" x1="1248.7" y1="0" x2="1248.7" y2="265.7"/>
	<line id="XMLID_257_" class="st1" x1="1258.9" y1="0" x2="1258.9" y2="265.7"/>
	<line id="XMLID_256_" class="st1" x1="1269.2" y1="0" x2="1269.2" y2="265.7"/>
	<line id="XMLID_255_" class="st1" x1="1279.4" y1="0" x2="1279.4" y2="265.7"/>
	<line id="XMLID_254_" class="st1" x1="1289.6" y1="0" x2="1289.6" y2="265.7"/>
	<line id="XMLID_253_" class="st1" x1="1299.9" y1="0" x2="1299.9" y2="265.7"/>
	<line id="XMLID_252_" class="st1" x1="1310.1" y1="0" x2="1310.1" y2="265.7"/>
	<line id="XMLID_251_" class="st1" x1="1320.3" y1="0" x2="1320.3" y2="265.7"/>
	<line id="XMLID_250_" class="st1" x1="1330.5" y1="0" x2="1330.5" y2="265.7"/>
	<line id="XMLID_249_" class="st1" x1="1340.8" y1="0" x2="1340.8" y2="265.7"/>
	<line id="XMLID_248_" class="st1" x1="1351" y1="0" x2="1351" y2="265.7"/>
	<line id="XMLID_247_" class="st1" x1="1361.2" y1="0" x2="1361.2" y2="265.7"/>
	<line id="XMLID_246_" class="st1" x1="1371.5" y1="0" x2="1371.5" y2="265.7"/>
	<line id="XMLID_245_" class="st1" x1="1381.7" y1="0" x2="1381.7" y2="265.7"/>
	<line id="XMLID_244_" class="st1" x1="1391.9" y1="0" x2="1391.9" y2="265.7"/>
	<line id="XMLID_243_" class="st1" x1="1402.2" y1="0" x2="1402.2" y2="265.7"/>
	<line id="XMLID_242_" class="st1" x1="1412.4" y1="0" x2="1412.4" y2="265.7"/>
	<line id="XMLID_241_" class="st1" x1="1422.6" y1="0" x2="1422.6" y2="265.7"/>
	<line id="XMLID_240_" class="st1" x1="1432.9" y1="0" x2="1432.9" y2="265.7"/>
	<line id="XMLID_239_" class="st1" x1="1443.1" y1="0" x2="1443.1" y2="265.7"/>
	<line id="XMLID_238_" class="st1" x1="1453.3" y1="0" x2="1453.3" y2="265.7"/>
	<line id="XMLID_237_" class="st1" x1="1463.6" y1="0" x2="1463.6" y2="265.7"/>
	<line id="XMLID_236_" class="st1" x1="1473.8" y1="0" x2="1473.8" y2="265.7"/>
	<line id="XMLID_235_" class="st1" x1="1484" y1="0" x2="1484" y2="265.7"/>
	<line id="XMLID_234_" class="st1" x1="1494.2" y1="0" x2="1494.2" y2="265.7"/>
	<line id="XMLID_233_" class="st1" x1="1504.5" y1="0" x2="1504.5" y2="265.7"/>
	<line id="XMLID_232_" class="st1" x1="1514.7" y1="0" x2="1514.7" y2="265.7"/>
	<line id="XMLID_231_" class="st1" x1="1524.9" y1="0" x2="1524.9" y2="265.7"/>
	<line id="XMLID_230_" class="st1" x1="1535.2" y1="0" x2="1535.2" y2="265.7"/>
	<line id="XMLID_229_" class="st0" x1="1545.4" y1="0" x2="1545.4" y2="265.7"/>
	<line id="XMLID_228_" class="st1" x1="1555.6" y1="0" x2="1555.6" y2="265.7"/>
	<line id="XMLID_227_" class="st1" x1="1565.9" y1="0" x2="1565.9" y2="265.7"/>
	<line id="XMLID_226_" class="st1" x1="1576.1" y1="0" x2="1576.1" y2="265.7"/>
	<line id="XMLID_225_" class="st1" x1="1586.3" y1="0" x2="1586.3" y2="265.7"/>
	<line id="XMLID_224_" class="st1" x1="1596.6" y1="0" x2="1596.6" y2="265.7"/>
	<line id="XMLID_223_" class="st1" x1="1606.8" y1="0" x2="1606.8" y2="265.7"/>
	<line id="XMLID_222_" class="st1" x1="1617" y1="0" x2="1617" y2="265.7"/>
	<line id="XMLID_221_" class="st1" x1="1627.3" y1="0" x2="1627.3" y2="265.7"/>
	<line id="XMLID_220_" class="st1" x1="1637.5" y1="0" x2="1637.5" y2="265.7"/>
	<line id="XMLID_219_" class="st1" x1="1647.7" y1="0" x2="1647.7" y2="265.7"/>
	<line id="XMLID_218_" class="st1" x1="1657.9" y1="0" x2="1657.9" y2="265.7"/>
	<line id="XMLID_217_" class="st1" x1="1668.2" y1="0" x2="1668.2" y2="265.7"/>
	<line id="XMLID_216_" class="st1" x1="1678.4" y1="0" x2="1678.4" y2="265.7"/>
	<line id="XMLID_215_" class="st1" x1="1688.6" y1="0" x2="1688.6" y2="265.7"/>
	<line id="XMLID_214_" class="st1" x1="1698.9" y1="0" x2="1698.9" y2="265.7"/>
	<line id="XMLID_213_" class="st1" x1="1709.1" y1="0" x2="1709.1" y2="265.7"/>
	<line id="XMLID_212_" class="st1" x1="1719.3" y1="0" x2="1719.3" y2="265.7"/>
	<line id="XMLID_211_" class="st1" x1="1729.6" y1="0" x2="1729.6" y2="265.7"/>
	<line id="XMLID_210_" class="st1" x1="1739.8" y1="0" x2="1739.8" y2="265.7"/>
	<line id="XMLID_209_" class="st1" x1="1750" y1="0" x2="1750" y2="265.7"/>
	<line id="XMLID_208_" class="st1" x1="1760.3" y1="0" x2="1760.3" y2="265.7"/>
	<line id="XMLID_207_" class="st1" x1="1770.5" y1="0" x2="1770.5" y2="265.7"/>
	<line id="XMLID_206_" class="st1" x1="1780.7" y1="0" x2="1780.7" y2="265.7"/>
	<line id="XMLID_205_" class="st1" x1="1790.9" y1="0" x2="1790.9" y2="265.7"/>
	<line id="XMLID_204_" class="st1" x1="1801.2" y1="0" x2="1801.2" y2="265.7"/>
	<line id="XMLID_203_" class="st1" x1="1811.4" y1="0" x2="1811.4" y2="265.7"/>
	<line id="XMLID_202_" class="st1" x1="1821.6" y1="0" x2="1821.6" y2="265.7"/>
	<line id="XMLID_201_" class="st1" x1="1831.9" y1="0" x2="1831.9" y2="265.7"/>
	<line id="XMLID_200_" class="st1" x1="1842.1" y1="0" x2="1842.1" y2="265.7"/>
	<line id="XMLID_199_" class="st0" x1="1852.3" y1="0" x2="1852.3" y2="265.7"/>
	<line id="XMLID_198_" class="st1" x1="1862.6" y1="0" x2="1862.6" y2="265.7"/>
	<line id="XMLID_197_" class="st1" x1="1872.8" y1="0" x2="1872.8" y2="265.7"/>
	<line id="XMLID_196_" class="st1" x1="1883" y1="0" x2="1883" y2="265.7"/>
	<line id="XMLID_195_" class="st1" x1="1893.3" y1="0" x2="1893.3" y2="265.7"/>
	<line id="XMLID_194_" class="st1" x1="1903.5" y1="0" x2="1903.5" y2="265.7"/>
	<line id="XMLID_193_" class="st1" x1="1913.7" y1="0" x2="1913.7" y2="265.7"/>
	<line id="XMLID_192_" class="st1" x1="1924" y1="0" x2="1924" y2="265.7"/>
	<line id="XMLID_191_" class="st1" x1="1934.2" y1="0" x2="1934.2" y2="265.7"/>
	<line id="XMLID_190_" class="st1" x1="1944.4" y1="0" x2="1944.4" y2="265.7"/>
	<line id="XMLID_189_" class="st1" x1="1954.6" y1="0" x2="1954.6" y2="265.7"/>
	<line id="XMLID_188_" class="st1" x1="1964.9" y1="0" x2="1964.9" y2="265.7"/>
	<line id="XMLID_187_" class="st1" x1="1975.1" y1="0" x2="1975.1" y2="265.7"/>
	<line id="XMLID_186_" class="st1" x1="1985.3" y1="0" x2="1985.3" y2="265.7"/>
	<line id="XMLID_185_" class="st1" x1="1995.6" y1="0" x2="1995.6" y2="265.7"/>
	<line id="XMLID_184_" class="st1" x1="2005.8" y1="0" x2="2005.8" y2="265.7"/>
	<line id="XMLID_183_" class="st1" x1="2016" y1="0" x2="2016" y2="265.7"/>
	<line id="XMLID_182_" class="st1" x1="2026.3" y1="0" x2="2026.3" y2="265.7"/>
	<line id="XMLID_181_" class="st1" x1="2036.5" y1="0" x2="2036.5" y2="265.7"/>
	<line id="XMLID_180_" class="st1" x1="2046.7" y1="0" x2="2046.7" y2="265.7"/>
	<line id="XMLID_179_" class="st1" x1="2057" y1="0" x2="2057" y2="265.7"/>
	<line id="XMLID_178_" class="st1" x1="2067.2" y1="0" x2="2067.2" y2="265.7"/>
	<line id="XMLID_177_" class="st1" x1="2077.4" y1="0" x2="2077.4" y2="265.7"/>
	<line id="XMLID_176_" class="st1" x1="2087.7" y1="0" x2="2087.7" y2="265.7"/>
	<line id="XMLID_175_" class="st1" x1="2097.9" y1="0" x2="2097.9" y2="265.7"/>
	<line id="XMLID_174_" class="st1" x1="2108.1" y1="0" x2="2108.1" y2="265.7"/>
	<line id="XMLID_173_" class="st1" x1="2118.3" y1="0" x2="2118.3" y2="265.7"/>
	<line id="XMLID_172_" class="st1" x1="2128.6" y1="0" x2="2128.6" y2="265.7"/>
	<line id="XMLID_171_" class="st1" x1="2138.8" y1="0" x2="2138.8" y2="265.7"/>
	<line id="XMLID_170_" class="st1" x1="2149" y1="0" x2="2149" y2="265.7"/>
	<line id="XMLID_169_" class="st1" x1="2159.3" y1="0" x2="2159.3" y2="265.7"/>
	<line id="XMLID_168_" class="st0" x1="2169.5" y1="0" x2="2169.5" y2="265.7"/>
	<line id="XMLID_167_" class="st1" x1="2179.7" y1="0" x2="2179.7" y2="265.7"/>
	<line id="XMLID_166_" class="st1" x1="2190" y1="0" x2="2190" y2="265.7"/>
	<line id="XMLID_165_" class="st1" x1="2200.2" y1="0" x2="2200.2" y2="265.7"/>
	<line id="XMLID_164_" class="st1" x1="2210.4" y1="0" x2="2210.4" y2="265.7"/>
	<line id="XMLID_163_" class="st1" x1="2220.7" y1="0" x2="2220.7" y2="265.7"/>
	<line id="XMLID_162_" class="st1" x1="2230.9" y1="0" x2="2230.9" y2="265.7"/>
	<line id="XMLID_161_" class="st1" x1="2241.1" y1="0" x2="2241.1" y2="265.7"/>
	<line id="XMLID_160_" class="st1" x1="2251.4" y1="0" x2="2251.4" y2="265.7"/>
	<line id="XMLID_159_" class="st1" x1="2261.6" y1="0" x2="2261.6" y2="265.7"/>
	<line id="XMLID_158_" class="st1" x1="2271.8" y1="0" x2="2271.8" y2="265.7"/>
	<line id="XMLID_157_" class="st1" x1="2282" y1="0" x2="2282" y2="265.7"/>
	<line id="XMLID_156_" class="st1" x1="2292.3" y1="0" x2="2292.3" y2="265.7"/>
	<line id="XMLID_155_" class="st1" x1="2302.5" y1="0" x2="2302.5" y2="265.7"/>
	<line id="XMLID_154_" class="st1" x1="2312.7" y1="0" x2="2312.7" y2="265.7"/>
	<line id="XMLID_153_" class="st1" x1="2323" y1="0" x2="2323" y2="265.7"/>
	<line id="XMLID_152_" class="st1" x1="2333.2" y1="0" x2="2333.2" y2="265.7"/>
	<line id="XMLID_151_" class="st1" x1="2343.4" y1="0" x2="2343.4" y2="265.7"/>
	<line id="XMLID_150_" class="st1" x1="2353.7" y1="0" x2="2353.7" y2="265.7"/>
	<line id="XMLID_149_" class="st1" x1="2363.9" y1="0" x2="2363.9" y2="265.7"/>
	<line id="XMLID_148_" class="st1" x1="2374.1" y1="0" x2="2374.1" y2="265.7"/>
	<line id="XMLID_147_" class="st1" x1="2384.4" y1="0" x2="2384.4" y2="265.7"/>
	<line id="XMLID_146_" class="st1" x1="2394.6" y1="0" x2="2394.6" y2="265.7"/>
	<line id="XMLID_145_" class="st1" x1="2404.8" y1="0" x2="2404.8" y2="265.7"/>
	<line id="XMLID_144_" class="st1" x1="2415" y1="0" x2="2415" y2="265.7"/>
	<line id="XMLID_143_" class="st1" x1="2425.3" y1="0" x2="2425.3" y2="265.7"/>
	<line id="XMLID_142_" class="st1" x1="2435.5" y1="0" x2="2435.5" y2="265.7"/>
	<line id="XMLID_141_" class="st1" x1="2445.7" y1="0" x2="2445.7" y2="265.7"/>
	<line id="XMLID_140_" class="st1" x1="2456" y1="0" x2="2456" y2="265.7"/>
	<line id="XMLID_139_" class="st1" x1="2466.2" y1="0" x2="2466.2" y2="265.7"/>
	<line id="XMLID_138_" class="st1" x1="2476.4" y1="0" x2="2476.4" y2="265.7"/>
	<line id="XMLID_137_" class="st0" x1="2486.7" y1="0" x2="2486.7" y2="265.7"/>
	<line id="XMLID_136_" class="st1" x1="2496.9" y1="0" x2="2496.9" y2="265.7"/>
	<line id="XMLID_135_" class="st1" x1="2507.1" y1="0" x2="2507.1" y2="265.7"/>
	<line id="XMLID_134_" class="st1" x1="2517.4" y1="0" x2="2517.4" y2="265.7"/>
	<line id="XMLID_133_" class="st1" x1="2527.6" y1="0" x2="2527.6" y2="265.7"/>
	<line id="XMLID_132_" class="st1" x1="2537.8" y1="0" x2="2537.8" y2="265.7"/>
	<line id="XMLID_131_" class="st1" x1="2548.1" y1="0" x2="2548.1" y2="265.7"/>
	<line id="XMLID_130_" class="st1" x1="2558.3" y1="0" x2="2558.3" y2="265.7"/>
	<line id="XMLID_129_" class="st1" x1="2568.5" y1="0" x2="2568.5" y2="265.7"/>
	<line id="XMLID_128_" class="st1" x1="2578.7" y1="0" x2="2578.7" y2="265.7"/>
	<line id="XMLID_127_" class="st1" x1="2589" y1="0" x2="2589" y2="265.7"/>
	<line id="XMLID_126_" class="st1" x1="2599.2" y1="0" x2="2599.2" y2="265.7"/>
	<line id="XMLID_125_" class="st1" x1="2609.4" y1="0" x2="2609.4" y2="265.7"/>
	<line id="XMLID_124_" class="st1" x1="2619.7" y1="0" x2="2619.7" y2="265.7"/>
	<line id="XMLID_123_" class="st1" x1="2629.9" y1="0" x2="2629.9" y2="265.7"/>
	<line id="XMLID_122_" class="st1" x1="2640.1" y1="0" x2="2640.1" y2="265.7"/>
	<line id="XMLID_121_" class="st1" x1="2650.4" y1="0" x2="2650.4" y2="265.7"/>
	<line id="XMLID_120_" class="st1" x1="2660.6" y1="0" x2="2660.6" y2="265.7"/>
	<line id="XMLID_119_" class="st1" x1="2670.8" y1="0" x2="2670.8" y2="265.7"/>
	<line id="XMLID_118_" class="st1" x1="2681.1" y1="0" x2="2681.1" y2="265.7"/>
	<line id="XMLID_117_" class="st1" x1="2691.3" y1="0" x2="2691.3" y2="265.7"/>
	<line id="XMLID_116_" class="st1" x1="2701.5" y1="0" x2="2701.5" y2="265.7"/>
	<line id="XMLID_115_" class="st1" x1="2711.8" y1="0" x2="2711.8" y2="265.7"/>
	<line id="XMLID_114_" class="st1" x1="2722" y1="0" x2="2722" y2="265.7"/>
	<line id="XMLID_113_" class="st1" x1="2732.2" y1="0" x2="2732.2" y2="265.7"/>
	<line id="XMLID_112_" class="st1" x1="2742.4" y1="0" x2="2742.4" y2="265.7"/>
	<line id="XMLID_111_" class="st1" x1="2752.7" y1="0" x2="2752.7" y2="265.7"/>
	<line id="XMLID_110_" class="st1" x1="2762.9" y1="0" x2="2762.9" y2="265.7"/>
	<line id="XMLID_109_" class="st1" x1="2773.1" y1="0" x2="2773.1" y2="265.7"/>
	<line id="XMLID_108_" class="st1" x1="2783.4" y1="0" x2="2783.4" y2="265.7"/>
	<line id="XMLID_107_" class="st0" x1="2793.6" y1="0" x2="2793.6" y2="265.7"/>
	<line id="XMLID_106_" class="st1" x1="2803.8" y1="0" x2="2803.8" y2="265.7"/>
	<line id="XMLID_105_" class="st1" x1="2814.1" y1="0" x2="2814.1" y2="265.7"/>
	<line id="XMLID_104_" class="st1" x1="2824.3" y1="0" x2="2824.3" y2="265.7"/>
	<line id="XMLID_103_" class="st1" x1="2834.5" y1="0" x2="2834.5" y2="265.7"/>
	<line id="XMLID_102_" class="st1" x1="2844.8" y1="0" x2="2844.8" y2="265.7"/>
	<line id="XMLID_101_" class="st1" x1="2855" y1="0" x2="2855" y2="265.7"/>
	<line id="XMLID_100_" class="st1" x1="2865.2" y1="0" x2="2865.2" y2="265.7"/>
	<line id="XMLID_99_" class="st1" x1="2875.5" y1="0" x2="2875.5" y2="265.7"/>
	<line id="XMLID_98_" class="st1" x1="2885.7" y1="0" x2="2885.7" y2="265.7"/>
	<line id="XMLID_97_" class="st1" x1="2895.9" y1="0" x2="2895.9" y2="265.7"/>
	<line id="XMLID_96_" class="st1" x1="2906.1" y1="0" x2="2906.1" y2="265.7"/>
	<line id="XMLID_95_" class="st1" x1="2916.4" y1="0" x2="2916.4" y2="265.7"/>
	<line id="XMLID_94_" class="st1" x1="2926.6" y1="0" x2="2926.6" y2="265.7"/>
	<line id="XMLID_93_" class="st1" x1="2936.8" y1="0" x2="2936.8" y2="265.7"/>
	<line id="XMLID_92_" class="st1" x1="2947.1" y1="0" x2="2947.1" y2="265.7"/>
	<line id="XMLID_91_" class="st1" x1="2957.3" y1="0" x2="2957.3" y2="265.7"/>
	<line id="XMLID_90_" class="st1" x1="2967.5" y1="0" x2="2967.5" y2="265.7"/>
	<line id="XMLID_89_" class="st1" x1="2977.8" y1="0" x2="2977.8" y2="265.7"/>
	<line id="XMLID_88_" class="st1" x1="2988" y1="0" x2="2988" y2="265.7"/>
	<line id="XMLID_87_" class="st1" x1="2998.2" y1="0" x2="2998.2" y2="265.7"/>
	<line id="XMLID_86_" class="st1" x1="3008.5" y1="0" x2="3008.5" y2="265.7"/>
	<line id="XMLID_85_" class="st1" x1="3018.7" y1="0" x2="3018.7" y2="265.7"/>
	<line id="XMLID_84_" class="st1" x1="3028.9" y1="0" x2="3028.9" y2="265.7"/>
	<line id="XMLID_83_" class="st1" x1="3039.1" y1="0" x2="3039.1" y2="265.7"/>
	<line id="XMLID_82_" class="st1" x1="3049.4" y1="0" x2="3049.4" y2="265.7"/>
	<line id="XMLID_81_" class="st1" x1="3059.6" y1="0" x2="3059.6" y2="265.7"/>
	<line id="XMLID_80_" class="st1" x1="3069.8" y1="0" x2="3069.8" y2="265.7"/>
	<line id="XMLID_79_" class="st1" x1="3080.1" y1="0" x2="3080.1" y2="265.7"/>
	<line id="XMLID_78_" class="st1" x1="3090.3" y1="0" x2="3090.3" y2="265.7"/>
	<line id="XMLID_77_" class="st1" x1="3100.5" y1="0" x2="3100.5" y2="265.7"/>
	<line id="XMLID_76_" class="st0" x1="3110.8" y1="0" x2="3110.8" y2="265.7"/>
	<line id="XMLID_75_" class="st1" x1="3121" y1="0" x2="3121" y2="265.7"/>
	<line id="XMLID_74_" class="st1" x1="3131.2" y1="0" x2="3131.2" y2="265.7"/>
	<line id="XMLID_73_" class="st1" x1="3141.5" y1="0" x2="3141.5" y2="265.7"/>
	<line id="XMLID_72_" class="st1" x1="3151.7" y1="0" x2="3151.7" y2="265.7"/>
	<line id="XMLID_71_" class="st1" x1="3161.9" y1="0" x2="3161.9" y2="265.7"/>
	<line id="XMLID_70_" class="st1" x1="3172.2" y1="0" x2="3172.2" y2="265.7"/>
	<line id="XMLID_69_" class="st1" x1="3182.4" y1="0" x2="3182.4" y2="265.7"/>
	<line id="XMLID_68_" class="st1" x1="3192.6" y1="0" x2="3192.6" y2="265.7"/>
	<line id="XMLID_67_" class="st1" x1="3202.8" y1="0" x2="3202.8" y2="265.7"/>
	<line id="XMLID_66_" class="st1" x1="3213.1" y1="0" x2="3213.1" y2="265.7"/>
	<line id="XMLID_65_" class="st1" x1="3223.3" y1="0" x2="3223.3" y2="265.7"/>
	<line id="XMLID_64_" class="st1" x1="3233.5" y1="0" x2="3233.5" y2="265.7"/>
	<line id="XMLID_63_" class="st1" x1="3243.8" y1="0" x2="3243.8" y2="265.7"/>
	<line id="XMLID_62_" class="st1" x1="3254" y1="0" x2="3254" y2="265.7"/>
	<line id="XMLID_61_" class="st1" x1="3264.2" y1="0" x2="3264.2" y2="265.7"/>
	<line id="XMLID_60_" class="st1" x1="3274.5" y1="0" x2="3274.5" y2="265.7"/>
	<line id="XMLID_59_" class="st1" x1="3284.7" y1="0" x2="3284.7" y2="265.7"/>
	<line id="XMLID_58_" class="st1" x1="3294.9" y1="0" x2="3294.9" y2="265.7"/>
	<line id="XMLID_57_" class="st1" x1="3305.2" y1="0" x2="3305.2" y2="265.7"/>
	<line id="XMLID_56_" class="st1" x1="3315.4" y1="0" x2="3315.4" y2="265.7"/>
	<line id="XMLID_55_" class="st1" x1="3325.6" y1="0" x2="3325.6" y2="265.7"/>
	<line id="XMLID_54_" class="st1" x1="3335.9" y1="0" x2="3335.9" y2="265.7"/>
	<line id="XMLID_53_" class="st1" x1="3346.1" y1="0" x2="3346.1" y2="265.7"/>
	<line id="XMLID_52_" class="st1" x1="3356.3" y1="0" x2="3356.3" y2="265.7"/>
	<line id="XMLID_51_" class="st1" x1="3366.5" y1="0" x2="3366.5" y2="265.7"/>
	<line id="XMLID_50_" class="st1" x1="3376.8" y1="0" x2="3376.8" y2="265.7"/>
	<line id="XMLID_49_" class="st1" x1="3387" y1="0" x2="3387" y2="265.7"/>
	<line id="XMLID_48_" class="st1" x1="3397.2" y1="0" x2="3397.2" y2="265.7"/>
	<line id="XMLID_47_" class="st1" x1="3407.5" y1="0" x2="3407.5" y2="265.7"/>
	<line id="XMLID_46_" class="st0" x1="3417.7" y1="0" x2="3417.7" y2="265.7"/>
	<line id="XMLID_45_" class="st1" x1="3427.9" y1="0" x2="3427.9" y2="265.7"/>
	<line id="XMLID_44_" class="st1" x1="3438.2" y1="0" x2="3438.2" y2="265.7"/>
	<line id="XMLID_43_" class="st1" x1="3448.4" y1="0" x2="3448.4" y2="265.7"/>
	<line id="XMLID_42_" class="st1" x1="3458.6" y1="0" x2="3458.6" y2="265.7"/>
	<line id="XMLID_41_" class="st1" x1="3468.9" y1="0" x2="3468.9" y2="265.7"/>
	<line id="XMLID_40_" class="st1" x1="3479.1" y1="0" x2="3479.1" y2="265.7"/>
	<line id="XMLID_39_" class="st1" x1="3489.3" y1="0" x2="3489.3" y2="265.7"/>
	<line id="XMLID_38_" class="st1" x1="3499.5" y1="0" x2="3499.5" y2="265.7"/>
	<line id="XMLID_37_" class="st1" x1="3509.8" y1="0" x2="3509.8" y2="265.7"/>
	<line id="XMLID_36_" class="st1" x1="3520" y1="0" x2="3520" y2="265.7"/>
	<line id="XMLID_35_" class="st1" x1="3530.2" y1="0" x2="3530.2" y2="265.7"/>
	<line id="XMLID_34_" class="st1" x1="3540.5" y1="0" x2="3540.5" y2="265.7"/>
	<line id="XMLID_33_" class="st1" x1="3550.7" y1="0" x2="3550.7" y2="265.7"/>
	<line id="XMLID_32_" class="st1" x1="3560.9" y1="0" x2="3560.9" y2="265.7"/>
	<line id="XMLID_31_" class="st1" x1="3571.2" y1="0" x2="3571.2" y2="265.7"/>
	<line id="XMLID_30_" class="st1" x1="3581.4" y1="0" x2="3581.4" y2="265.7"/>
	<line id="XMLID_29_" class="st1" x1="3591.6" y1="0" x2="3591.6" y2="265.7"/>
	<line id="XMLID_28_" class="st1" x1="3601.9" y1="0" x2="3601.9" y2="265.7"/>
	<line id="XMLID_27_" class="st1" x1="3612.1" y1="0" x2="3612.1" y2="265.7"/>
	<line id="XMLID_26_" class="st1" x1="3622.3" y1="0" x2="3622.3" y2="265.7"/>
	<line id="XMLID_25_" class="st1" x1="3632.6" y1="0" x2="3632.6" y2="265.7"/>
	<line id="XMLID_24_" class="st1" x1="3642.8" y1="0" x2="3642.8" y2="265.7"/>
	<line id="XMLID_23_" class="st1" x1="3653" y1="0" x2="3653" y2="265.7"/>
	<line id="XMLID_22_" class="st1" x1="3663.2" y1="0" x2="3663.2" y2="265.7"/>
	<line id="XMLID_21_" class="st1" x1="3673.5" y1="0" x2="3673.5" y2="265.7"/>
	<line id="XMLID_20_" class="st1" x1="3683.7" y1="0" x2="3683.7" y2="265.7"/>
	<line id="XMLID_19_" class="st1" x1="3693.9" y1="0" x2="3693.9" y2="265.7"/>
	<line id="XMLID_18_" class="st1" x1="3704.2" y1="0" x2="3704.2" y2="265.7"/>
	<line id="XMLID_17_" class="st1" x1="3714.4" y1="0" x2="3714.4" y2="265.7"/>
	<line id="XMLID_16_" class="st1" x1="3724.6" y1="0" x2="3724.6" y2="265.7"/>
</g>
</svg>
