<!-- Generator: Adobe Illustrator 19.0.0, SVG Export Plug-In  -->
<svg version="1.1"
	 xmlns="http://www.w3.org/2000/svg" xmlns:xlink="http://www.w3.org/1999/xlink" xmlns:a="http://ns.adobe.com/AdobeSVGViewerExtensions/3.0/"
	 x="0px" y="0px" width="37.1px" height="24.9px" viewBox="0 0 37.1 24.9" style="enable-background:new 0 0 37.1 24.9;"
	 xml:space="preserve">
<style type="text/css">
	.st0{fill:#03A550;}
	.st1{fill:#FFFFFF;}
	.st2{fill:#FCEE21;}
	.st3{fill:#EB2227;}
	.st4{fill:#303387;}
	.st5{fill:#231F20;}
</style>
<defs>
</defs>
<g id="XMLID_15_">
	<rect id="XMLID_22_" x="0" y="0" class="st0" width="37.1" height="24.9"/>
	<path id="XMLID_21_" class="st1" d="M4.8,0c4.9,3.4,13.1,9.3,14,9.9c1.5,0,18.3,0,18.3,0V0L4.8,0z"/>
	<polygon id="XMLID_20_" class="st2" points="0,2.8 0,22 13.6,12.4 	"/>
	<polygon id="XMLID_19_" class="st1" points="18.8,15 4.8,24.9 37.1,24.9 37.1,15 	"/>
	<path id="XMLID_18_" class="st3" d="M37.1,8.4V0H7.4c5.1,3.6,11.5,8.1,11.9,8.4C20,8.4,32.7,8.4,37.1,8.4z"/>
	<path id="XMLID_17_" class="st4" d="M7.4,24.9h29.7v-8.4c-4.4,0-17.1,0-17.8,0C18.9,16.8,12.5,21.2,7.4,24.9z"/>
	<path id="XMLID_16_" class="st5" d="M0,4.6l0,15.6c3.8-2.7,9.3-6.6,11-7.8C9.3,11.2,3.8,7.3,0,4.6z"/>
</g>
</svg>
