<!-- Generator: Adobe Illustrator 19.0.0, SVG Export Plug-In  -->
<svg version="1.1"
	 xmlns="http://www.w3.org/2000/svg" xmlns:xlink="http://www.w3.org/1999/xlink" xmlns:a="http://ns.adobe.com/AdobeSVGViewerExtensions/3.0/"
	 x="0px" y="0px" width="136px" height="19.5px" viewBox="0 0 136 19.5" style="enable-background:new 0 0 136 19.5;"
	 xml:space="preserve">
<style type="text/css">
	.st0{fill-rule:evenodd;clip-rule:evenodd;fill:#FFFFFF;stroke:#231F20;stroke-miterlimit:10;}
	.st1{fill:#231F20;}
</style>
<defs>
</defs>
<rect id="XMLID_38_" x="0.5" y="0.5" class="st0" width="135" height="18.5"/>
<g id="XMLID_15_">
	<path id="XMLID_35_" class="st1" d="M17.4,17l-0.8-2.5h-4.9L10.8,17H8L13.1,3h2.1L20.3,17H17.4z M14.2,7.1l-1.8,5.1h3.5L14.2,7.1z"
		/>
	<path id="XMLID_33_" class="st1" d="M29.4,17l-5.5-8.5V17h-2.7V3h2.4l5.5,8.5V3h2.7V17H29.4z"/>
	<path id="XMLID_31_" class="st1" d="M42.6,17l-5.5-8.5V17h-2.7V3h2.4l5.5,8.5V3H45V17H42.6z"/>
	<path id="XMLID_29_" class="st1" d="M57.5,12.2c0,0.7-0.1,1.4-0.4,2c-0.3,0.6-0.6,1.1-1.1,1.5c-0.5,0.4-1,0.8-1.6,1
		c-0.6,0.2-1.3,0.4-2,0.4c-0.7,0-1.4-0.1-2-0.4c-0.6-0.2-1.2-0.6-1.6-1s-0.8-0.9-1.1-1.5c-0.3-0.6-0.4-1.3-0.4-2V3H50v9.1
		c0,0.8,0.2,1.4,0.6,1.9c0.4,0.5,1,0.7,1.8,0.7c0.7,0,1.3-0.2,1.8-0.7c0.4-0.5,0.7-1.1,0.7-1.9V3h2.7V12.2z"/>
	<path id="XMLID_26_" class="st1" d="M67.7,17l-0.8-2.5h-4.9L61.1,17h-2.8L63.3,3h2.1L70.5,17H67.7z M64.4,7.1l-1.8,5.1h3.5
		L64.4,7.1z"/>
	<path id="XMLID_24_" class="st1" d="M71.5,17V3h2.7v11.5h6.3V17H71.5z"/>
	<path id="XMLID_22_" class="st1" d="M90.7,17h-2L84.1,3h2.8l2.8,9.1L92.5,3h2.8L90.7,17z"/>
	<path id="XMLID_20_" class="st1" d="M96.3,17V3H99V17H96.3z"/>
	<path id="XMLID_18_" class="st1" d="M101.4,17V3h9.2v2.4h-6.5v3.3h5.5v2.4h-5.5v3.4h6.5V17H101.4z"/>
	<path id="XMLID_16_" class="st1" d="M124.4,17h-2.3l-2.6-8.5L117,17h-2.3L111,3h2.8l2.2,8.8l2.5-8.8h2l2.5,8.8l2.2-8.8h2.8
		L124.4,17z"/>
</g>
</svg>
