<!-- Generator: Adobe Illustrator 19.0.0, SVG Export Plug-In  -->
<svg version="1.1"
	 xmlns="http://www.w3.org/2000/svg" xmlns:xlink="http://www.w3.org/1999/xlink" xmlns:a="http://ns.adobe.com/AdobeSVGViewerExtensions/3.0/"
	 x="0px" y="0px" width="37.1px" height="24.9px" viewBox="0 0 37.1 24.9" style="enable-background:new 0 0 37.1 24.9;"
	 xml:space="preserve">
<style type="text/css">
	.st0{fill:#FCB813;}
	.st1{fill:#FFFFFF;}
	.st2{fill:#00A551;}
	.st3{fill:#00ADEE;}
</style>
<defs>
</defs>
<g id="XMLID_15_">
	<rect id="XMLID_44_" y="0" class="st0" width="37.1" height="24.9"/>
	<rect id="XMLID_43_" x="0" y="8.3" class="st1" width="37.1" height="16.6"/>
	<rect id="XMLID_42_" y="16.6" class="st2" width="37.1" height="8.3"/>
	<path id="XMLID_16_" class="st3" d="M18.6,8.7c-2.1,0-3.8,1.7-3.8,3.8c0,2.1,1.7,3.8,3.8,3.8c2.1,0,3.8-1.7,3.8-3.8
		C22.4,10.4,20.7,8.7,18.6,8.7z M17.3,9.4c0.1-0.1,0.2-0.2,0.2-0.3c0,0.1,0.3,0.8,0.2,1.3c0.2,0.4,0.4,0.9,0.5,1.2
		c0,0.2,0,0.2,0,0.2s0,0-0.1-0.1c-0.2-0.3-0.4-0.8-0.5-1.2c-0.4-0.3-0.7-1-0.7-1.1C17,9.5,17.2,9.5,17.3,9.4z M16.6,9.9
		c0.1-0.1,0.2-0.2,0.1-0.4c0.1,0.1,0.5,0.7,0.6,1.1c0.3,0.3,0.7,0.8,0.8,1.1c0.1,0.2,0.1,0.2,0.1,0.2s0,0-0.2-0.1
		c-0.2-0.2-0.6-0.6-0.8-1c-0.4-0.2-0.9-0.8-1-0.8C16.3,10,16.5,10,16.6,9.9z M16,10.5c0.1-0.1,0.1-0.3,0-0.4c0.1,0.1,0.6,0.5,0.8,1
		c0.4,0.2,0.8,0.6,1,0.8C18,12,18,12,18,12s0,0-0.2-0.1c-0.3-0.1-0.7-0.5-1.1-0.8c-0.5-0.1-1.1-0.5-1.1-0.6
		C15.7,10.6,15.9,10.6,16,10.5z M15.5,11.2c0.1-0.1,0-0.3-0.1-0.4c0.1,0,0.7,0.4,1.1,0.7c0.5,0.1,1,0.4,1.2,0.5
		c0.1,0.1,0.1,0.1,0.1,0.1s0,0-0.2,0c-0.3-0.1-0.8-0.3-1.2-0.5c-0.5,0-1.2-0.2-1.3-0.2C15.4,11.4,15.5,11.3,15.5,11.2z M15.2,11.7
		c0.1,0,0.8,0.2,1.2,0.4c0.5,0,1,0.1,1.3,0.2c0.2,0.1,0.2,0.1,0.2,0.1s0,0-0.2,0c-0.3,0-0.9,0-1.3-0.2c-0.5,0.1-1.2,0.1-1.3,0.1
		c0.1,0,0.2-0.2,0.3-0.3C15.3,11.9,15.3,11.7,15.2,11.7z M15.3,12.9c0-0.1-0.1-0.3-0.3-0.3c0.1,0,0.8-0.1,1.3,0.1
		c0.4-0.1,1-0.2,1.3-0.2c0.2,0,0.2,0,0.2,0s0,0-0.2,0.1c-0.3,0.1-0.8,0.2-1.3,0.2c-0.4,0.3-1.1,0.4-1.2,0.4
		C15.3,13.2,15.3,13,15.3,12.9z M15.5,13.7c-0.1-0.1-0.2-0.2-0.3-0.2c0.1,0,0.8-0.3,1.3-0.2c0.4-0.2,0.9-0.4,1.2-0.5
		c0.2,0,0.2,0,0.2,0s0,0-0.1,0.1c-0.3,0.2-0.8,0.4-1.2,0.5c-0.3,0.4-1,0.7-1.1,0.7C15.6,14,15.6,13.8,15.5,13.7z M16,14.4
		c-0.1-0.1-0.2-0.2-0.4-0.1c0.1-0.1,0.7-0.5,1.1-0.6c0.3-0.3,0.8-0.7,1.1-0.8c0.2-0.1,0.2-0.1,0.2-0.1s0,0-0.1,0.2
		c-0.2,0.2-0.6,0.6-1,0.8c-0.2,0.4-0.8,0.9-0.8,1C16.1,14.7,16.1,14.6,16,14.4z M16.6,15c-0.1-0.1-0.3-0.1-0.4,0
		c0.1-0.1,0.5-0.6,1-0.8c0.2-0.4,0.6-0.8,0.8-1c0.1-0.1,0.2-0.1,0.2-0.1s0,0-0.1,0.2c-0.1,0.3-0.5,0.7-0.8,1.1
		c-0.1,0.5-0.5,1.1-0.6,1.1C16.7,15.3,16.7,15.1,16.6,15z M17.3,15.5c-0.1-0.1-0.3,0-0.4,0.1c0-0.1,0.4-0.7,0.7-1.1
		c0.1-0.5,0.4-1,0.5-1.2c0.1-0.1,0.1-0.1,0.1-0.1s0,0,0,0.2c-0.1,0.3-0.3,0.8-0.5,1.2c0,0.5-0.2,1.2-0.2,1.3
		C17.5,15.7,17.5,15.5,17.3,15.5z M18.4,15.9c0-0.1-0.2-0.2-0.3-0.3c-0.1,0-0.3,0.1-0.4,0.2c0-0.1,0.2-0.8,0.4-1.2
		c0-0.5,0.1-1,0.2-1.3c0.1-0.2,0.1-0.2,0.1-0.2s0,0,0,0.2c0,0.3,0,0.9-0.2,1.3C18.5,15.1,18.4,15.8,18.4,15.9z M18.5,11.5
		c0,0.2,0,0.2,0,0.2s0,0-0.1-0.2c-0.1-0.3-0.2-0.8-0.2-1.3c-0.3-0.4-0.4-1.1-0.4-1.2c0.1,0.1,0.2,0.2,0.4,0.2c0.1,0,0.3-0.1,0.3-0.3
		c0,0.1,0.1,0.8-0.1,1.3C18.5,10.7,18.5,11.2,18.5,11.5z M21.8,12c0,0.1,0.1,0.3,0.3,0.3c-0.1,0-0.8,0.1-1.3-0.1
		c-0.4,0.1-1,0.2-1.3,0.2c-0.2,0-0.2,0-0.2,0s0,0,0.2-0.1c0.3-0.1,0.8-0.2,1.3-0.2c0.4-0.3,1.1-0.4,1.2-0.4
		C21.8,11.7,21.8,11.9,21.8,12z M21.6,11.2c0.1,0.1,0.2,0.2,0.3,0.2c-0.1,0-0.8,0.3-1.3,0.2c-0.4,0.2-0.9,0.4-1.2,0.5
		c-0.2,0-0.2,0-0.2,0s0,0,0.1-0.1c0.3-0.2,0.8-0.4,1.2-0.5c0.3-0.4,1-0.7,1.1-0.7C21.5,10.9,21.5,11.1,21.6,11.2z M21.1,10.5
		c0.1,0.1,0.2,0.2,0.4,0.1c-0.1,0.1-0.7,0.5-1.1,0.6c-0.3,0.3-0.8,0.7-1.1,0.8C19.2,12,19.1,12,19.1,12s0,0,0.1-0.2
		c0.2-0.2,0.6-0.6,1-0.8c0.2-0.4,0.8-0.9,0.8-1C21,10.2,21.1,10.3,21.1,10.5z M20.5,9.9c0.1,0.1,0.3,0.1,0.4,0
		c-0.1,0.1-0.5,0.6-1,0.8c-0.2,0.4-0.6,0.8-0.8,1C19,11.9,19,11.9,19,11.9s0,0,0.1-0.2c0.1-0.3,0.5-0.7,0.8-1.1
		c0.1-0.5,0.5-1.1,0.6-1.1C20.4,9.6,20.4,9.8,20.5,9.9z M19.8,9.4c0.1,0.1,0.3,0,0.4-0.1c0,0.1-0.4,0.7-0.7,1.1
		c-0.1,0.5-0.4,1-0.5,1.2c-0.1,0.1-0.1,0.1-0.1,0.1s0,0,0-0.2c0.1-0.3,0.3-0.8,0.5-1.2c0-0.5,0.2-1.2,0.2-1.3
		C19.6,9.2,19.7,9.4,19.8,9.4z M18.7,9c0,0.1,0.2,0.2,0.3,0.3c0.1,0,0.3-0.1,0.4-0.2c0,0.1-0.2,0.8-0.4,1.2c0,0.5-0.1,1-0.2,1.3
		c-0.1,0.2-0.1,0.2-0.1,0.2s0,0,0-0.2c0-0.3,0-0.9,0.2-1.3C18.6,9.8,18.7,9.1,18.7,9z M19,15.7c-0.1,0-0.3,0.1-0.3,0.3
		c0-0.1-0.1-0.8,0.1-1.3c-0.1-0.4-0.2-1-0.2-1.3c0-0.2,0-0.2,0-0.2s0,0,0.1,0.2c0.1,0.3,0.2,0.8,0.2,1.3c0.3,0.4,0.4,1.1,0.4,1.2
		C19.3,15.7,19.1,15.7,19,15.7z M19.8,15.5c-0.1,0.1-0.2,0.2-0.2,0.3c0-0.1-0.3-0.8-0.2-1.3c-0.2-0.4-0.4-0.9-0.5-1.2
		c0-0.2,0-0.2,0-0.2s0,0,0.1,0.1c0.2,0.3,0.4,0.8,0.5,1.2c0.4,0.3,0.7,1,0.7,1.1C20.1,15.4,19.9,15.4,19.8,15.5z M20.5,15
		c-0.1,0.1-0.2,0.2-0.1,0.4c-0.1-0.1-0.5-0.7-0.6-1.1c-0.3-0.3-0.7-0.8-0.8-1.1C19,13,19,13,19,13s0,0,0.2,0.1
		c0.2,0.2,0.6,0.6,0.8,1c0.4,0.2,0.9,0.8,1,0.8C20.8,14.9,20.7,14.9,20.5,15z M21.1,14.4c-0.1,0.1-0.1,0.3,0,0.4
		c-0.1-0.1-0.6-0.5-0.8-1c-0.4-0.2-0.8-0.6-1-0.8c-0.1-0.1-0.1-0.2-0.1-0.2s0,0,0.2,0.1c0.3,0.1,0.7,0.5,1.1,0.8
		c0.5,0.1,1.1,0.5,1.1,0.6C21.4,14.3,21.2,14.3,21.1,14.4z M21.6,13.7c-0.1,0.1,0,0.3,0.1,0.4c-0.1,0-0.7-0.4-1.1-0.7
		c-0.5-0.1-1-0.4-1.2-0.5c-0.1-0.1-0.1-0.1-0.1-0.1s0,0,0.2,0c0.3,0.1,0.8,0.3,1.2,0.5c0.5,0,1.2,0.2,1.3,0.2
		C21.8,13.5,21.6,13.6,21.6,13.7z M22,13.2c-0.1,0-0.8-0.2-1.2-0.4c-0.5,0-1-0.1-1.3-0.2c-0.2-0.1-0.2-0.1-0.2-0.1s0,0,0.2,0
		c0.3,0,0.9,0,1.3,0.2c0.5-0.1,1.2-0.1,1.3-0.1c-0.1,0-0.2,0.2-0.3,0.3C21.8,13,21.8,13.2,22,13.2z"/>
</g>
</svg>
