<!-- Generator: Adobe Illustrator 19.0.0, SVG Export Plug-In  -->
<svg version="1.1"
	 xmlns="http://www.w3.org/2000/svg" xmlns:xlink="http://www.w3.org/1999/xlink" xmlns:a="http://ns.adobe.com/AdobeSVGViewerExtensions/3.0/"
	 x="0px" y="0px" width="427px" height="231.4px" viewBox="0 0 427 231.4" style="enable-background:new 0 0 427 231.4;"
	 xml:space="preserve">
<style type="text/css">
	.st0{fill:#D4BFB8;}
</style>
<defs>
</defs>
<path class="st0" d="M318.2,131.7c0.1-0.8,0.2-2.1-0.8-3.3c0.1-0.3,0.5-0.8,0.7-1.1c1-1.4,2.5-3.6,1.1-5.8c-0.9-1.4-1.1-2.6-1-3.1
	c0.2,0,0.4,0,0.5,0c1.4,0,2.5-1,2.5-2.4c0.1-1.4-1-2.6-2.4-2.8c0.1,0,0-0.5-0.1-0.8c0-0.2-0.1-0.3-0.1-0.5c0.4-0.3,0.7-0.5,1-0.7
	c0.7-0.5,1.3-1,1.6-1.3c0.1-0.1,0.8-0.7,4.2-0.7c1,0,1.9-0.2,2.8-0.7c3.6,4.1,4.8,6.7,4.8,7.7c-0.3,4.1,0.7,7.5,1.7,9.1
	c0,0.1-0.3,0.4-0.7,0.4l-0.4-0.1c-0.5-0.1-1-0.3-1.6-0.3c-1.5,0-2.9,0.8-5,3.1c-2.1,2.2-6.8,3.4-8.7,3.4
	C318.2,131.7,318.2,131.7,318.2,131.7z"/>
<path class="st0" d="M193.1,84.4c-0.3-0.1-0.5-0.3-0.9-0.7c-0.6-0.6-1.5-1.6-3.2-1.6c-0.2,0-0.5,0-0.7,0.1c-0.4,0.1-0.7,0.1-1.1,0.1
	c-1.5,0-2.5-0.5-3.9-1.4c-0.9-0.5-1.7-0.6-2.2-0.6c-0.3,0-0.5,0-0.8,0c-0.2,0-0.5,0-0.7,0c-0.6,0-1.3-0.1-2.4-0.9
	c-2.5-1.9-6.2-2.1-8.9-2.3c-0.8-0.1-1.5-0.1-2-0.2c-1.2-0.2-3.8-0.2-6.7-0.2c-2.7,0-5.5,0-6.9-0.2c-0.5-0.1-1.1-0.1-1.6-0.1
	c-0.7,0-1.4,0-2.1,0.1c-0.6,0-1.1,0.1-1.6,0.1c-0.5,0-0.8,0-0.9-0.1c-0.3-0.7-0.7-1.3-1.3-2c-0.7-0.9-1.6-1.9-1.9-3.6
	c-0.7-3.3-2.6-5.2-5.5-5.8c-0.5-0.1-0.7-0.4-1.2-0.9c-0.5-0.6-1.2-1.4-2.3-1.6c-0.1-0.1-0.2-0.2-0.3-0.4c-0.8-0.9-2.1-2.3-4.4-2.3
	c-3.5,0-10.9-1.3-11.7-2.5c-0.2-0.4-0.2-0.4,0.3-1.1c0.5-0.6,1.2-1.5,1.2-2.9c0-0.7,0.2-1.5,0.4-2.3c0.4-1.7,0.8-3.5-0.5-4.5
	c-1.1-0.9-2.4-2.4-2.5-3.4c-0.3-2.4-3.8-5-6.1-5.1c-1.3-0.1-2.5-0.9-4.3-2.5c-0.5-0.4-1-0.7-1.5-1c-1-0.6-1.6-1.1-2.1-2.8
	c0.3-0.2,0.5-0.5,0.6-0.8c0.2-0.1,1-0.5,2.9-0.8c3.5-0.6,5.6-1.6,6.2-3.1c0.1-0.3,1.1-0.6,1.7-0.8c0.9-0.3,1.9-0.6,2.5-1.4
	c0.2-0.3,0.9-0.6,1.4-0.8c1-0.5,2-1,2.5-1.9c0,0,0,0,0,0c0.2,0,0.8-0.1,1.1-0.2c1.1-0.2,2.1-0.5,2.6-1.3c0.2-0.1,0.7-0.2,1.5-0.2
	c0.4,0,0.8,0,1,0.1c1,0.3,5.8,1.3,7.7,1.4c0.1,0.2,0.1,0.4,0.2,0.6c0.3,1.1,0.7,2.3,1.9,2.6c0.1,0,0.7,0.4,1.1,0.6
	c1.4,0.8,2.5,1.4,3.5,1.4c0.6,0,1-0.2,1.3-0.4c0.3-0.2,1-0.6,1.8-0.6c0.5,0,0.9,0.1,1.2,0.3l0.7,0.5c1.1,0.7,2.2,1.4,3.2,1.4
	c0.8,0,1.5-0.4,1.9-1.1c0.2-0.3,1.5-0.7,2.2-0.9c1.2-0.4,2-0.7,2.4-1.3c0.8-1.1,1.5-4-0.1-5.2c-0.3-0.3-1-1.9-1.5-3.8
	c0.1-0.1,0.4-0.3,0.5-0.4c0.7-0.4,1.5-1,1.8-2c0.1-0.1,0.7-0.4,1-0.5c0.6-0.2,1.2-0.5,1.6-0.9c0.4-0.4,0.6-0.8,0.8-1.1
	c0.1-0.1,0.1-0.2,0.2-0.3c1.4,0.4,3.1,1.1,3.4,1.3c1.2,1.2,4.4,1.2,4.4,1.2c0.6,0,1.8,0.5,3.5,1.5c0.7,0.4,1.7,0.6,2.8,0.8
	c0.8,0.1,2,0.4,2.3,0.6c0,0.1,0,0.9,0,1.4c0,1.3-0.1,2.6,0.7,3.5c2.7,3.2,3.9,3.3,4.3,3.3c0,0,0.5,0,0.5,0l0.2-0.1
	c0.3,0.1,1,0.4,1.5,0.6c1.1,0.5,2.1,1,3,1l0.3,0c0.9-0.1,1.7-0.7,2.6-1.2c0.4-0.3,1.1-0.7,1.3-0.8c0,0,0,0,0,0
	c0.5,0,1.3-0.2,2.3-0.3c0.9-0.2,2-0.4,2.5-0.4c0.4,0.1,1,0.2,1.7,0.4c1.7,0.5,2.8,0.8,3.6,0.8c0.3,0,0.6,0,0.8-0.1
	c1.1,0,2.5,0.4,2.7,0.6c0.4,0.9,1.7,1.2,3.1,1.6c0.4,0.1,1.1,0.3,1.4,0.4c0.2,1,1.2,1.7,1.9,2.2c0.5,0.3,1,0.7,1.2,1.1
	c0.7,1.5,2.9,1.6,5.3,1.6c0.8,0,2.1,0.1,2.4,0.2c0.2,0.1,1,0.8,4.6,0.8c3.2,0,4.3-0.4,4.8-1c0.5-0.2,1.7-0.3,2.5-0.5
	c2.4-0.4,3.9-0.7,4.7-1.2c0.2-0.2,1.1-0.3,1.7-0.4c1.4-0.2,3.2-0.5,3.4-2.2c0.1-0.1,1.2-0.6,1.9-0.9c0.8-0.4,1.5-0.7,2.1-1.2
	c0.2-0.1,1.1-0.4,2.6-0.4c1.3,0,2.2,0.2,2.5,0.3c0.6,1.4,2.7,1.9,4.5,1.9c0.6,0,1.4-0.1,2.1-0.3c0,0,0.2-0.1,0.7-0.1
	c0.3,0,0.6,0,1,0.1l-3.9,7.8l-0.3,2.4c-0.6,0.3-1.3,0.9-1.6,1.8c-0.2,0.7-0.2,1.8,1.1,3.1c0.7,0.7,1.6,1.5,2.9,1.5
	c0.6,0,1.1-0.2,1.6-0.3c0.6-0.2,1.3-0.4,2.3-0.4c1.2,0,2.1,0.4,2.9,0.8c0.6,0.3,1.2,0.6,1.8,0.6c0.5,0,1.5-0.2,2-1.5
	c0.2-0.6,1-1.1,1.8-1.1c0.5,0,1,0.2,1.4,0.7c0.7,0.9,2,1.9,3.2,3c1.3,1.1,3.6,3,3.8,3.7c0,0,0,0-0.1,0c-0.1,0-0.5,0.1-1.1,0.1
	c-0.8,0-1.9-0.2-2.9-0.5c-0.4-0.1-0.9-0.2-1.4-0.2c-1.3,0-2.5,0.5-3.8,0.9c-0.9,0.3-1.9,0.7-2.6,0.7c-2.1,0-5.2,0.6-7.9,3.3
	c-0.9,0.9-1.4,1.8-1.8,2.5c-0.7,1.2-1,1.7-2.5,1.9c-0.6,0.1-1.1,0.1-1.5,0.1c-2.3,0.2-4.2,0.3-7.5,2.7c-1.3,0.9-2.8,1.4-4.4,1.4
	c-1.9,0-3.2-0.6-3.4-0.7c-0.9-0.4-1.9-0.7-2.8-0.7c-1.9,0-3.5,1-4.5,2.7c-1.2,2.1-0.2,3.7,0.5,4.8c0.6,0.9,0.9,1.5,0.8,2.3
	c-0.1,0.7-0.5,1-2.1,1.7c-1.4,0.6-3,1.3-4.6,3.1c-2.3,2.6-6.1,4-8.4,4c-0.2,0-0.4,0-0.6,0c-0.3-0.1-0.8-0.1-1.2-0.2
	c-1.5-0.3-3.6-0.6-5.9-0.6c-2.4,0-4.6,0.4-6.5,1.3c-2.1,1-4,2.2-5.5,3.2C195.2,83.4,193.8,84.4,193.1,84.4L193.1,84.4z"/>
<path class="st0" d="M17.2,98.8c-0.6,0-0.7,0-0.7,0c-0.3-0.1-0.7-0.2-1.2-0.2c-0.3,0-0.6,0-0.9,0c-0.3,0-0.6,0-0.9,0
	c-0.8,0-0.9-0.2-1-0.3c-0.5-0.7-1.2-1.1-2.1-1.1c-0.6,0-1.2,0.2-1.7,0.4c-0.4,0.1-0.9,0.3-1.2,0.3c-0.2,0-0.4,0-0.5-0.2
	C6.1,97.2,5,97,3.5,97c-0.8,0-1.7,0.1-2.6,0.1c-0.3,0-0.6,0.1-0.9,0.1c0.6-0.5,1.4-1,1.9-1c0.3,0,0.8,0.1,1.3,0.1
	c0.1,0,6.1,0,7.9-1.4c0.3,0,0.6,0.1,0.9,0.1c0.6,0.1,1.2,0.2,1.8,0.2c1.8,0,2.7-1,3.1-1.8c0.2-0.4,0.8-0.5,1.5-0.7
	c0.7-0.1,1.7-0.3,2-1.4c0.3-1.1-0.7-2-1.3-2.5c-1.7-1.4-5.9-4.3-8.1-4.3c-0.9,0-1.7,0.5-1.9,1.3c0,0-0.4,0.2-0.9,0.2
	c-0.5,0-1-0.2-1.2-0.4l-0.2-0.3C6.3,85,6,84.5,5.5,84.1c0.4-0.9,0.6-1.3,0.7-1.5c1.4-0.7,3.9-2.5,4.2-4.9c0,0,0,0.1,0.1,0.1
	c0.2,0,0.7-0.1,1.5-0.1c1.4,0,3,0.4,4.2,1c1.6,0.8,2.9,1.2,3.9,1.2c1.8,0,3-1.2,3.1-3.1c0-0.7,1.6-1.4,3.1-1.4
	c0.5,0,0.7,0.1,0.8,0.1l0.4,0.2c1.6,0.8,4.4,2.3,6.7,2.3c0.6,0,1.1-0.1,1.6-0.3c0.1,0,0.6-0.2,2.6-0.2c3.8,0,9.6,0.7,11.2,1.1
	c0.6,0.1,1.1,0.2,1.6,0.2c0.4,0,0.7,0,1.1-0.1c0.2,0,0.4,0,0.6,0c0.2,0,0.6,0,1.4,1c1.2,1.4,2.3,1.6,3.2,1.6h0
	c-1.2,0.5-2.8,1.3-3.8,2c-0.4,0.3-1,0.5-1.5,0.7c-1.1,0.4-2.6,0.9-3.3,2.3c-0.7,1.3-1.4,1.8-2.6,1.8l0,0c-0.2,0-0.4,0-0.6,0L45.1,88
	c-0.6-0.1-1.2-0.1-1.7-0.1c-1.6,0-2.8,0.7-4.1,2.2c-0.8,1-1.1,1.1-1.6,1.2c-0.4,0.1-1,0.3-1.6,0.8c-0.2,0-0.6-0.4-0.9-0.6
	c-0.4-0.3-0.8-0.6-1.3-0.8c-0.3-0.1-0.5-0.1-0.8-0.1c-0.8,0-1.6,0.4-2.2,0.8c-0.3,0.2-0.7,0.4-0.8,0.4c0,0,0,0,0,0
	c-1,0-1.8,0.7-2.4,1.3c-0.4,0.3-0.8,0.7-1.1,0.8c-0.3,0.1-0.5,0.1-0.8,0.1c-0.8,0.1-2.7,0.4-2.7,2.7c0,0.6-0.1,1.1-0.4,1.6
	C21.5,98.4,18.8,98.8,17.2,98.8z"/>
<path class="st0" d="M53.6,134.3c0-1.1-0.2-2.4-1.4-3.1c-1.4-0.8-2.4-1.9-2.7-3c-0.1-0.5-0.3-0.9-0.6-1.4c0.9-1,3.2-2.2,4.7-2.2
	c1.4,0.1,4.9,2.7,5.4,3.8c-0.7,1.5-3.6,5.4-4.6,5.8C54,134.2,53.8,134.2,53.6,134.3z"/>
<path class="st0" d="M310.1,110.7c-0.2-0.1-0.4-0.4-0.5-0.7c-0.1-1.2-0.8-1.8-1.3-2.3c0,0-0.1-0.1-0.2-0.1c0,0,0.1-0.1,0.1-0.1
	c0.3-0.4,0.8-0.8,1.2-1.3c1.6-1.6,4.1-4.1,2.2-6.6c-1.2-1.5-3.4-2.8-5.6-3.4c0.2-0.2,0.2-0.3,0.2-0.3c0.4-0.2,0.9-0.5,1.6-0.8
	c5.4-2.6,8.6-4.3,9.5-5.5c0.3-0.4,0.6-0.9,0.9-1.4c0.4-0.6,1.3-2,1.7-2.1c0.1,0,0.2,0,0.5,0.3c0.6,0.5,1.4,1.2,3.1,1.2
	c0.5,0,1,0,1.5,0.1c0.5,0,0.9,0.1,1.3,0.1c0.5,0,1.7,0,2.3-1c0.4-0.6,0.3-1.4-0.2-2.3c0.3,0,1.2-0.2,1.2-0.2c2-0.3,2.8-1.5,3.3-2.3
	c0.4-0.6,0.4-0.6,0.5-0.6c1.9,0,2.5-1.9,2.9-3.1c0.1-0.4,0.4-1.2,0.6-1.3c0.1,0.1,0.4,0.3,0.9,0.7c0.5,0.4,1,0.9,1.8,1.1
	c-1.8,1.6-3.5,3.3-4.1,4.4c-0.8,1.5-0.9,3-1,4.3c-0.1,0.9-0.2,1.9-0.5,2.1c-0.6,0.3-1.5,1-2.7,1.8c-2.2,1.5-5.5,3.8-6.9,4.1
	c-1.8,0.4-3.3,2.1-3.5,3.9c-0.2,1.5,0.4,2.8,1.6,3.6c0.5,0.3,1.9,1.5,3.6,3.3c-0.3,0.1-0.5,0.1-0.8,0.1c-3.1,0-5.1,0.5-6.1,1.5
	c-0.2,0.2-0.7,0.6-1.3,1c-0.3,0.2-0.7,0.5-1,0.7c-0.5-0.3-1-0.4-1.4-0.4c-0.5,0-1,0-1.4-0.1c-0.4,0-0.7,0-1,0
	C312.1,109.3,310.9,109.5,310.1,110.7z"/>
<path class="st0" d="M94.6,182.1c-1.5,0-2.1-0.2-2.2-0.3c-0.8-0.6-2.1-1-4.2-1.6c-0.9-0.2-2.3-0.6-2.8-0.9c-0.5-1.6-2.6-3.9-4.4-3.9
	c-0.6,0-1.3,0.2-2.3,0.5c-0.8,0.2-1.8,0.5-2.4,0.5l-0.1-0.1c-1.2-0.9-3.3-2.5-5.1-2.8c-1.3-0.2-2.9-1-3.2-1.4c-0.2-1-1.5-1.5-3-2
	c-0.5-0.2-1.4-0.5-1.7-0.7c-0.4-0.6-1.2-0.9-1.9-1.2c-0.2-0.1-0.5-0.2-0.7-0.4c0.1-0.4,0.2-0.9,0.3-1.3c0.3-0.9,0.5-1.8,0.5-2.7
	c0.1-0.2,0.7-0.8,1.1-1.2c0.3-0.3,0.6-0.5,0.8-0.8c1.8-0.2,3.3-0.4,3.9-1.6c0,0,0.1,0,0.1,0c0.6,0,1.5,0.3,2.3,1.1
	c1.1,1.1,3.8,2.9,6.6,4.9c2,1.4,4,2.7,5.1,3.6c2.7,2.2,8.9,4.7,11.7,4.7l0.4,0c0.7,0,1.4,0.2,2.3,0.5c1.2,0.4,2.7,0.9,4.5,0.9
	c0,0.7,0.1,1.4,0.2,2.2c0.2,1.1,0.4,2.2-0.1,2.7C99.9,181.5,97.3,182.1,94.6,182.1L94.6,182.1z"/>
<path class="st0" d="M341.6,153.3c-0.1,0-0.4-0.2-0.6-0.7c-0.5-1-0.8-2.8-0.1-4.2c1.3-2.5,0.8-5.7-0.1-7.1c-0.4-0.7-0.9-0.9-1.3-1
	c1.1-0.7,1.9-1.1,2.5-1.2c0.4,1.2,1.8,1.7,2.7,2c0.4,0.1,1,0.3,1.1,0.5c-0.1,1.3,1.2,1.8,1.8,2.1c-0.1,0.1-0.2,0.3-0.4,0.6
	c-1.1,1.4-2.1,3.3-3.1,5.1C343.3,150.8,342.1,152.9,341.6,153.3z M336.8,143c-0.2-0.4-0.2-0.5-0.2-0.5c0.1-0.1,0.5-0.4,0.9-0.8
	C337.3,142.3,337,142.7,336.8,143z M353.8,142.8c-0.2,0-0.5-0.1-1-0.2c-0.3-0.2-0.6-2-0.2-3.5c0.2-0.8,0.6-1.3,0.9-1.4
	c0.8-0.1,1.5-0.2,2.2-0.2c1.5,0,3.4-0.1,4.2-2.2c0.1-0.1,0.6-0.4,1.5-0.4c0.8,0,1.6,0.3,1.6,0.6c0,1.9-1.4,3.8-2,3.8
	c-0.6-0.3-1.4-0.5-2.1-0.5c-2.2,0-4.1,1.3-4.6,3.2C354.1,142.8,354,142.8,353.8,142.8z M369.3,137.1c-0.9,0-1-0.4-1-0.6
	c-0.1-0.6,0.1-1.3,0.3-1.9c0.3-1,0.6-2.2-0.2-3.2c-0.8-1-2.2-1.1-3.4-1.1l-0.5,0c-3.9,0.1-13.8,1.7-15.4,4.1
	c-0.2,0.3-1.3,0.3-2.1,0.4c-1,0-2.1,0.1-3.2,0.5c-0.1-0.1-0.1-0.3-0.1-0.4c0-0.1,0.2-0.2,0.5-0.2c3.1-0.5,6.7-4.2,9.1-6.5l0.4-0.4
	c0.3-0.3,0.6-0.4,0.9-0.4c0.4,0,0.9,0.1,1.5,0.3c0.8,0.2,1.8,0.4,2.9,0.4c0.9,0,1.8-0.2,2.7-0.5c3-1.2,4.5-1.5,5.1-1.5
	c0.1,0.3,0.2,0.5,0.4,0.8c0.4,0.5,1.2,0.8,2,0.8c1.1,0,3-0.5,3.7-1.8c0.3-0.6,0.3-1.3,0-1.9c0.2-0.1,0.4-0.3,0.5-0.4
	c1.2-0.8,3.2-2.2,3-5c-0.1-1.2,0.7-2.2,1.5-2.8c0.1,0.4,0.2,0.7,0.4,1c0.6,0.9,1.5,1.4,2.6,1.4c0.9,0,1.9-0.4,2.9-1.1
	c1-0.8,1.9-1.2,2.6-1.5c1.3-0.6,2.7-1.2,3.1-3.3c0.1-0.5,0.5-0.9,1.2-1.4c1.1-0.8,2.5-2,2.4-4.5c-0.1-1,0.9-2.3,1.7-3.4
	c1.1-1.4,2.6-3.6,0.7-5.2c-0.3-0.2-0.5-1-0.4-2.2c0.2-1.7,0.9-2.9,1.2-3.1c0.4-0.2,0.9-0.5,1.6-0.9c0.9-0.6,2.8-1.7,3.7-2
	c0.2,1.3,0.7,3.1,1.4,5.2c0.7,2.3,2.5,7.8,1.7,8.7c-0.5,0.5-1.3,1-2,1.5c-2.1,1.5-5,3.5-3.5,6.3c1,1.9-0.1,5.6-1.3,7.4
	c-0.8,1.3-0.8,2.8-0.7,4.3c0,1.4,0.1,2.8-0.6,3.6c-0.9,1-2.2,1.5-2.9,1.5l0,0c-0.3-1.5-1.4-1.5-1.6-1.5c-0.9,0-1.4,0.8-1.8,1.7
	c-0.7,1.3-1.2,2-1.5,2.1l0,0c-0.3,0-0.5-0.2-0.9-0.5c-0.5-0.4-1.1-0.9-1.9-0.9c-1.2,0-1.9,1-2.4,1.7c-0.5,0.9-1.6,1.4-2.8,1.4
	c-1,0-1.8-0.4-2.2-0.9c-0.7-1-1.7-1.6-2.7-1.6c-1,0-1.8,0.5-2.1,1.4c-0.1,0.4-0.4,1.6,1,2.8c0,0,0,0,0,0c-0.5,0.4-1.3,1-2.1,2
	C371.6,136.6,370.2,137.1,369.3,137.1z M396.7,83.9c0.1-0.8,0.1-1.6-0.2-2.3c0.4,0.6,1,1,1.6,1.4C397.6,83.2,397.1,83.5,396.7,83.9z
	 M412.7,81.3c-0.2-0.1-0.6-0.3-1.1-0.8c-1.9-1.7-4.8-2.8-7.3-2.8c-1.1,0-2,0.2-2.7,0.6c-0.2,0.1-0.4,0.1-0.7,0.1
	c-0.4,0-0.9-0.1-1.4-0.2c-0.5-0.1-0.9-0.2-1.3-0.2c0.3-0.6,0.3-1.3,0.3-1.7c0,0,0,0,0,0c0.4-0.1,0.8-0.1,1.2-0.1
	c1.5-0.1,3.1-0.3,4-1.4c0.3-0.4,0.6-1.1,0.5-2c-0.1-0.4,0-0.5,0.4-1c0.5-0.7,1.3-1.8,1.3-3.8c0-1,0.3-1.6,0.5-2.3
	c0.4-1.1,1-2.5-0.5-4.4c-0.3-0.3-0.2-0.5-0.1-0.6c0.1-0.2,0.3-0.3,0.5-0.3c0.4,0,0.7,0.3,1.1,0.8c2,3,9.8,9.7,13.3,9.7
	c0.2,0,0.4,0,0.6-0.1c1.2-0.2,2.2-0.8,3-1.2c0.5-0.3,1.2-0.6,1.5-0.6c0.3,0.4,0.7,0.7,1.3,0.8c-1.9,1.7-2.9,2.7-2.8,3.7l0,0.7
	l0.5,0.5c-0.3,0.2-1,0.3-2.1,0.3c-4.2,0-8.9,1.3-9.6,5C412.9,80.6,412.8,81,412.7,81.3z M396.2,81.1c-0.2-0.2-0.4-0.4-0.7-0.6
	c-0.1-0.2,0-0.5,0.5-0.8c0,0,0,0.1,0,0.1C396,80.3,396.1,80.7,396.2,81.1z"/>
<path class="st0" d="M219.4,231.4c-1.4,0-2.3-0.5-2.8-1.6c-0.5-1.1-0.5-2.1,0.1-3.1c1-1.7,3.3-2.7,4.2-2.7c0.6,0,1.3,0,2.1-0.1
	c0.8-0.1,1.7-0.1,2.5-0.1c0.5,0,0.9,0,1.1,0.1c-0.2,0.5-0.8,1.4-1.2,2c-0.8,1.3-1.7,2.7-1.8,3.9
	C223.4,230.2,221.5,231.4,219.4,231.4L219.4,231.4z M222.4,218.4c-0.6-0.9-0.7-1.8-0.6-2.1c1-0.8,1-2.3,0.7-3.4
	c-0.4-1.1-1.2-1.7-2.2-1.7c-0.6,0-1.2,0.3-1.8,0.8c-0.6,0.5-0.9,0.6-1,0.7c0,0-0.1-0.1-0.2-0.4c-0.7-1.1-1.8-1.8-3-1.8
	c-1.1,0-2.1,0.6-2.5,1.7c-0.1,0-0.2,0-0.3,0l-0.8,0c-0.2,0-0.5,0-0.7,0c-0.5-0.5-0.9-0.7-1.4-0.8c-1-0.1-3.8-2.1-4.4-3
	c0-0.1,0.1-0.3,0.1-0.4c0.3-0.6,0.7-1.7,0.1-2.8c-0.6-1.1-2-1.4-3-1.5c-2.5-0.3-3-1-3.5-1.6c-0.1-0.2-0.3-0.3-0.4-0.5
	c-0.2-0.2-0.7-0.5-1.3-0.5c-1.6,0-4.2,2-5.2,3.6c0,0,0,0,0,0c-0.3-0.1-0.8-0.2-1.4-0.2c-0.7,0-1.3,0.2-1.9,0.5
	c-0.1,0.1-0.3,0.1-0.4,0.1c-0.4,0-0.8-0.2-1.3-0.4c-0.5-0.2-1.1-0.4-1.7-0.4c-0.8,0-1.5,0.4-1.9,1c-0.2,0-0.4-0.1-0.6-0.2
	c-0.5-0.2-1-0.3-1.6-0.3c-0.8,0-1.5,0.3-2,0.9c-0.6,0.7-1.5,1.1-2,1.1l-0.4-0.4l-0.6,0c-0.5,0-1.3,0.2-1.9,1.6
	c-0.4,0.9-0.8,2.8,0.2,3.8c0.2,0.2,0.3,1,0.4,1.7c-0.1-0.1-0.2-0.3-0.3-0.5c-0.3-0.5-0.7-1.3-1.5-1.6c-0.3-0.2-0.7-0.4-1.1-0.4
	c-0.6,0-1.1,0.2-1.8,0.5c-0.2,0.1-0.5,0.2-0.8,0.4c-0.4,0.2-0.8,0.2-1.1,0.2c-0.1,0-0.4,0-0.5-0.2c-0.1-0.1-0.1-0.3-0.1-0.5
	c0.2-1-0.2-1.6-0.5-2c-0.8-0.9-2.1-1.1-3.3-1.1c0.1-0.5,0.4-1.2,0.5-1.7l0.1-0.4c0.4-1.3,0.1-2.2-0.3-2.8c-0.6-0.9-1.7-1.4-3.1-1.5
	c-0.4-0.2-0.9-2.1-0.7-2.7c0.3-0.5,0.3-1.2,0-1.7c-0.9-1.6-4.1-1.7-4.4-1.7c-0.4,0-0.9,0-1.5,0.1c0-0.5,0-1.1-0.2-1.7
	c0-0.7,2-4.1,4.4-6.5c2.3-2.3,2.1-5.2,1.9-7.5c-0.1-0.6-0.1-1.2-0.1-1.8c0-3.5-1.7-4.1-3.4-4.1c-0.1-0.2-0.2-0.7-0.2-1.8
	c0-2-2-3.4-3.9-3.4c-0.8,0-1.5,0.2-2,0.6c-0.1,0.1-0.2,0.1-0.4,0.2c-0.9-0.2-1.6-0.6-1.8-0.8c-0.3-0.8-0.9-1.5-1.4-2.2
	c-0.3-0.4-0.8-1-0.8-1.2c0-1.1-0.8-2-2-2c-1.3,0-2.6,1-3.1,1.4c-0.3,0-0.7-0.1-1.2-0.2c-0.7-0.2-1.6-0.4-2.5-0.4
	c-1,0-1.9,0.2-2.8,0.7c-1.5,0.8-2.4,1.6-3.1,2.3c-0.3,0.3-0.8,0.7-1,0.7c-0.2,0-0.3,0-0.5,0c-1.4,0-2,1.1-2.3,1.7
	c-0.2,0.3-0.3,0.7-0.6,0.9c-0.4,0.4-0.7,0.7-1,1.1c-0.3,0.4-0.7,0.8-0.9,1c-0.3,0-0.7,0.1-1.5,0.5c-1.2-1-2.3-1.4-3.5-1.4
	c-0.4,0-0.8,0.1-1.2,0.1c-0.2,0-0.5,0.1-0.7,0.1c-0.2,0-0.4,0-0.7-0.2c-1.7-0.9-2.9-1.4-4-1.4c-0.8,0-1.5,0.3-2.2,0.8
	c-0.2,0.2-0.5,0.3-0.8,0.4c-0.8,0.4-1.8,0.8-2.7,2c-0.2-0.6-0.4-1.2-0.8-1.6c-0.5-0.6-1.1-0.9-1.7-0.9c-0.4,0-1.1,0.1-1.7,1
	c-0.2,0.2-0.3,0.3-0.7,0.5c-0.2,0.1-0.3,0.2-0.5,0.3c-0.2,0-1.2,0-1.2,0c-1.4,0-2.6-0.4-3.7-0.7c-1.1-0.3-2-0.7-3.2-0.7l-0.3,0
	c-2,0-7.7-2.2-10-4.1c-1.2-1-3.2-2.3-5.3-3.8c-2.5-1.7-5.3-3.7-6.2-4.6c-1.2-1.2-2.7-1.9-4.2-1.9c-1.2,0-2.1,0.5-2.5,1.3
	c-0.2,0.1-0.7,0.1-1.2,0.2c-0.4-0.7-1.3-1.5-2.5-2.3c-0.6-1-2.2-3.3-4.4-3.3c-0.4,0-1.1-0.8-1.6-1.3c-0.8-0.9-1.7-1.8-2.9-2
	c0-0.1-0.1-0.9-0.2-1.4c-0.2-0.9-0.3-1.9-0.9-2.6c0-0.1-0.1-0.2-0.1-0.3c0.5,0.4,1.2,0.6,1.9,0.6c1.3,0,2.5-0.6,3.1-1.6
	c0.5-0.9,0.5-2,0-2.9c-0.5-0.9-1.2-1.8-1.8-2.6c-0.5-0.6-1.1-1.5-1.2-1.8c0-0.1,0.1-0.4,0.1-0.7c0.7-0.1,1.2-0.1,1.6-0.2
	c2.4-0.6,6.1-6.3,6.6-7.7c0.3-0.7,0.1-1.5-0.5-2.4c-1.3-2-5.1-4.7-7.3-4.9c0,0,0,0,0,0c-2,0-5.1,1.3-6.8,3c-0.2-0.1-0.3-0.2-0.3-0.2
	l-0.4-0.2l-3.2,0.3c-1-0.6-2.2-1.2-3.5-1.7c-1.9-0.9-2.1-2.5-2.1-3.1c0-1.1-1.1-1.9-3.5-3.6c-0.5-0.4-1.1-0.8-1.6-1.2
	c-0.2-1.3-0.9-5.7-1.1-7.2c-0.3-2.1-3.4-3.6-5.8-4.4l-0.7-3.6c0.5-0.9,0.8-1.9,0.8-3.1c0.1,0,0.3,0,0.4-0.1c0.4-0.1,0.8-0.1,1.2-0.2
	c0.9-0.3,1.6-0.9,2.1-1.4c0.2-0.2,0.6-0.5,0.7-0.6c0,0,0,0,0,0c0.7,0,1.4-0.4,2-0.7c0.3-0.2,0.8-0.4,0.9-0.4c0,0,0.3,0.2,0.5,0.4
	c0.7,0.5,1.5,1.1,2.5,1.1c0.6,0,1.2-0.2,1.7-0.6c0.3-0.2,0.4-0.3,0.7-0.4c0.8-0.3,1.6-0.6,2.9-2.1c0.9-1.1,1.4-1.2,2-1.2
	c0.4,0,0.8,0.1,1.3,0.1l0.6,0.1c0.3,0,0.6,0.1,0.9,0.1c3.4,0,4.6-2.5,5-3.3c0.2-0.4,1-0.7,1.8-1c0.7-0.3,1.5-0.5,2.2-1.1
	c1.1-0.8,3.5-1.8,4.5-2.2l0.3-0.1c1.5-0.7,1.4-2.3,1.3-3.5c0-0.4-0.1-0.8-0.1-1.2c0-0.4,0.8-1.2,1.3-1.7c0.7-0.7,1.3-1.3,1.6-2.1
	c0.5-1.3-0.3-2.9-1.3-4.8c-0.3-0.7-0.9-1.7-0.9-2c0-2-0.1-3.9-1-5.2c0.6-0.3,1.3-0.6,1.6-0.6c0,0,0,0,0,0c1.2,0,2.3-0.4,3.3-0.8
	c0.4-0.2,1-0.4,1.3-0.4c1,0.8,2.6,1.2,4.8,1.2c1,0,1.9-0.5,2.2-1.4c0.4-1.1-0.2-2.5-1-3.4c0.1-1,1.2-3.7,1.9-5.4
	c0.7-1.8,1.4-3.4,1.7-4.5c0,0,0.1,0,0.1,0.1c0.6,0.3,1.3,0.8,2.3,0.9c0.8,0.1,1.6,0.1,2.4,0.1c0.9,0,2,0,2.4,0.2
	c0.4,0.2,0.8,0.3,1.4,0.3c1.8,0,4.8-1.2,5.7-2.7c0.8-1.3,0.3-2.3-0.1-3c-0.3-0.5-0.6-1.1-0.5-2.2c0.1-1.9,1-3,2.4-3
	c2.3,0,3.8-1.8,3.8-4.5c0-0.2,0.3-0.6,0.6-1c0.2-0.2,0.3-0.4,0.5-0.7c0.3,0.1,0.7,0.2,1,0.2c0.3,0,0.6,0.1,0.9,0.1
	c0.1,0,0.1,0,0.2,0c0.7,3.2,2.1,4.1,3.3,4.9c0.4,0.2,0.8,0.5,1.1,0.8c1.9,1.6,3.6,3,5.9,3.1c1.3,0.1,3.5,1.9,3.6,2.8
	c0.3,2.2,2.4,4.3,3.5,5.2c-0.1,0.1-0.3,1.1-0.4,1.8c-0.2,0.9-0.4,1.9-0.4,2.9c0,0.4-0.2,0.7-0.6,1.2c-0.6,0.8-1.7,2.1-0.5,4.1
	c2,3.3,13.8,3.8,14,3.8c1,0,1.6,0.6,2.4,1.4c0.5,0.5,1,1,1.7,1.2c0.3,0,0.5,0.3,0.9,0.8c0.6,0.6,1.3,1.5,2.7,1.8
	c1.2,0.2,2.7,0.9,3.3,3.7c0.5,2.3,1.7,3.7,2.5,4.7c0.4,0.5,0.7,0.9,0.8,1.2c0.5,1.8,2.6,1.8,3.5,1.8c0.5,0,1.1,0,1.8-0.1
	c0.6,0,1.3-0.1,1.9-0.1c0.4,0,0.9,0,1.3,0.1c1.5,0.2,4.4,0.2,7.2,0.2c2.6,0,5.3,0,6.3,0.2c0.6,0.1,1.4,0.2,2.3,0.2
	c2.3,0.1,5.5,0.3,7.4,1.7c1.3,1,2.5,1.4,4,1.4c0.3,0,0.6,0,0.9,0c0.2,0,0.4,0,0.6,0c0.4,0,0.6,0.1,0.8,0.2c1.6,1,3.1,1.8,5.3,1.8
	c0.5,0,0.9,0,1.5-0.1c0.1,0,0.2,0,0.4,0c0.5,0,0.7,0.2,1.2,0.7c0.5,0.5,1.2,1.3,2.4,1.5c0.2,0,0.4,0.1,0.6,0.1c1.4,0,2.9-1,5-2.3
	c1.5-1,3.2-2.1,5.2-3c1.5-0.7,3.3-1.1,5.4-1.1c2,0,3.9,0.3,5.4,0.6c0.5,0.1,0.9,0.2,1.3,0.2c0.3,0,0.7,0.1,1,0.1
	c2.9,0,7.4-1.5,10.4-4.9c1.2-1.3,2.4-1.9,3.7-2.4c1.6-0.7,3.4-1.5,3.6-3.8c0.2-1.8-0.6-3.1-1.2-4.1c-0.7-1.1-0.8-1.4-0.4-2
	c0.5-0.9,1.2-1.3,2.1-1.3c0.5,0,1.1,0.1,1.6,0.4c0.5,0.2,2.2,1,4.6,1c2.2,0,4.2-0.6,5.9-1.9c2.7-1.9,3.9-2,6.2-2.2
	c0.5,0,1-0.1,1.6-0.1c2.8-0.3,3.7-1.8,4.5-3.2c0.4-0.6,0.8-1.3,1.4-2c2.1-2.1,4.4-2.5,6-2.5c1.2,0,2.4-0.4,3.5-0.9
	c1-0.4,2-0.7,2.8-0.7c0.2,0,0.4,0,0.6,0.1c1.3,0.4,2.7,0.7,3.8,0.7c3,0,3.7-1.7,3.8-2.4c0.4-1.9-1.6-3.6-4.7-6.2
	c-1.1-0.9-2.3-1.9-2.9-2.6c-0.9-1.1-2.2-1.7-3.5-1.7c-1.7,0-3.4,1-4.1,2.5c-0.1-0.1-0.2-0.1-0.3-0.2c-0.9-0.4-2.3-1.1-4.1-1.1
	c-1.4,0-2.4,0.3-3.1,0.5c-0.3,0.1-0.6,0.2-0.8,0.2c-0.3,0-0.7-0.4-1-0.7c-0.4-0.4-0.4-0.6-0.4-0.6c0,0,0,0,0.1,0
	c0.1,0,0.3-0.1,0.5-0.1l0.9-0.2l0.5-3.6l3.7-7.4c1.3,1.4,4.7,1.8,5.6,1.8c0.5,0,0.9-0.1,1.2-0.2c0.5-0.2,1.3-0.6,2.4-1.3
	c0.8-0.5,2.3-1.4,2.8-1.5c1.3-0.2,2.6-1,3.3-2c0.4-0.7,0.6-1.5,0.4-2.2c0.1-0.3,0.9-1.7,1.4-2.5c0.6-1,1.2-2,1.3-2.7
	c0.3-1,2.2-4.1,2.8-4.5c1-0.4,3.6-2.3,3.2-4.3c-0.4-2.5-1-5.2-3-5.2h0c0.1-0.2,0.3-0.5,0.6-0.9c0.9-1.3,2.4-1.9,4.4-1.9
	c0.5,0,0.9,0,1.2,0.1c0.2,0,0.4,0,0.5,0c0.2,0,0.7-0.1,1.5-0.2c1.3-0.2,3.5-0.6,5.2-0.6c0.7,0,1.1,0.1,1.3,0.1
	c1,0.3,1.8,0.3,2.5,0.3l1,0c0.8,0,1.6,0,2.6,0.6c1.4,0.8,3.1,1,4.4,1.2c0.7,0.1,1.8,0.3,2,0.5c0.4,0.6,1.1,1,1.8,1.5
	c0.7,0.5,1.8,1.2,1.7,1.6c-0.4,1.8,0.5,2.5,1.1,3c0.6,0.4,1.2,0.9,1.5,2.8c0.6,3,1.7,4.4,2.5,5.4c0.5,0.6,0.8,0.9,0.9,1.4
	c0.3,1,0.9,2.3,1.6,3.5c0.5,0.9,1.2,2.4,1.3,2.8c-0.2,0.5-0.6,2.1,0.3,3.3c0.6,0.9,1.7,1.3,3.1,1.4c1.4,0.1,2.5,0.8,3.5,1.3
	c0.7,0.4,1.3,0.8,2,0.8h0.3l0.2-0.1c0.7,0,3.1,0.9,4.4,2.2c1,1,2.2,1.3,3,1.6c0.2,0.1,0.4,0.1,0.6,0.2c-0.1,1.3,0.4,2.3,0.7,3.2
	c0.3,0.6,0.5,1.2,0.4,1.5c-0.1,0.5,0,1.2,0.7,1.9c1.1,1.3,3.5,1.8,5.3,1.8c0.4,0,0.8,0,1.1-0.1c0.3,0,0.5-0.1,0.8-0.1
	c0.4,0,0.7,0,1,0.1c0.4,0,0.7,0.1,1,0.1c1,0,2.3-0.2,3.2-2c0.3-0.5,1.2-0.7,2.4-0.8c1-0.1,2-0.2,2.7-0.7c0.4-0.3,1.2-0.6,1.9-0.6
	c0.3,0,0.4,0.1,0.4,0.1c0,0,0.1,0.2,0.1,0.5c-0.1,1.7,0.4,2.8,0.7,3.5c0,0.1,0,0.1,0.1,0.2c-1.8,1.3-2.6,4-3.3,7l-0.2,0.9
	c-0.1,0.5-0.6,0.9-1.2,1.3c-0.9,0.7-1.9,1.6-2.2,3.2c-0.1,0.5-0.4,0.8-1,1.2c-0.6,0.5-1.5,1.2-1.7,2.3c-0.1,0-0.2,0-0.4,0l0,0
	c-0.9,0-1.9-0.3-2.6-0.8c-0.5-0.3-1-0.5-1.5-0.5c-1.3,0-2.3,0.9-3.1,1.7c-0.3,0.3-0.8,0.7-1,0.8c0,0,0,0,0,0c-0.6,0-1.2,0.3-1.6,0.9
	c-1.1,1.4-0.6,4.1-0.4,4.9c0.1,0.2,0,0.6,0,1.1c-0.1,1-0.2,2.3,0.4,3.8c0.2,0.4,0.2,1.4,0.2,2.3c0,0.6,0,1.3,0.1,1.9
	c-0.1,0.1-0.2,0.1-0.2,0.2c-0.3-0.1-0.6-0.1-0.9-0.1c-0.3,0-0.6,0-0.9,0.1c-0.1,0-0.2,0.1-0.3,0.1c-0.3,0-0.7-0.3-1.2-0.7
	c-0.7-0.5-1.6-1.3-2.8-1.3c-1.9,0-2.5,1.9-2.9,3.1c-0.1,0.4-0.4,1.2-0.6,1.3c0,0-0.1,0-0.1,0c-1.3,0-2,1-2.5,1.7
	c-0.5,0.7-0.7,1-1.4,1.1l-0.4,0.1c-1.7,0.2-2.8,0.4-3.3,1.5c-0.3,0.7-0.2,1.3,0.1,1.9c-0.1,0-0.3,0-0.4,0c-0.5,0-1.1-0.1-1.7-0.1
	c-0.7,0-1-0.2-1.4-0.5c-0.5-0.4-1.1-0.9-2.3-0.9c-1.8,0-3,1.8-3.9,3.4c-0.3,0.4-0.5,0.9-0.8,1.2c-0.7,1-6.4,3.7-8.5,4.7
	c-0.7,0.3-1.2,0.6-1.7,0.8c-0.7,0.4-1.3,1.1-1.9,2.3c-0.9,0-1.6,0.2-2.3,0.5c-3.3,1.3-7.3,3.8-10.7,6c-0.5,0.3-0.9,0.5-1.3,0.7
	c0.3-0.8,0.1-1.4,0-1.9c-0.1-0.5-0.2-0.8,0.1-1.4c0.2-0.5,1-1.3,1.7-2c1.6-1.6,3.2-3.2,3-5.1c0-0.6-0.3-1.5-1.3-2.2
	c-1-0.8-2.1-1.1-3.3-1.1c-3.2,0-6.3,2.8-8.3,5.1c-1.2,1.4-2,1.5-3,1.6c-1.6,0.2-3,0.7-3.9,3.4c-0.5,1.5-1.1,1.6-1.8,1.6
	c-0.5,0-1.1-0.1-1.6-0.2c-0.7-0.1-1.3-0.2-1.9-0.2c-0.2,0-0.5,0-0.7,0.1c-2.4,0.3-3.6,3.8-3.4,6.1c0.2,2.3,1.5,3.7,3.5,3.7
	c1.1,0,1.9-0.1,2.7-0.1c1.3,0,1.9,0.1,2.1,0.2c-0.6,1.7-0.4,3.6,0.6,4.9c0.8,1.1,1.9,1.8,3.1,1.8c0.6,0,1.1-0.1,1.7-0.4
	c1.3-0.6,2.6-1.9,3.8-3.1c0.7-0.7,1.7-1.7,2.3-2.1c1.3,1.7,3.2,2.7,5.3,2.7c0.5,0,1-0.1,1.5-0.2c0,0,0,0,0,0c0.8,0,1.7,0.8,1.9,1.3
	c-0.6,0.3-1.7,0.4-2.5,0.6c-1.7,0.3-3.1,0.5-3.9,1.4c-0.1,0-0.3,0.1-0.5,0.1c-0.8,0.1-2.3,0.2-3.1,2c-0.5,1-0.9,1.5-1.4,1.5l-0.1,0
	l-0.6-0.1c-1.4,0-1.7,1.3-1.9,1.7c-0.2,0.6-0.3,1-1.2,1.4c-1.7,0.7-3.1,2.2-3.6,3.9c-0.4,1.3-0.3,2.5,0.3,3.3
	c0.6,0.9,1.6,1.3,2.7,1.8c0.9,0.4,2,0.9,2.2,1.4c0.4,1.2,2.4,6,3.9,7.4c0,0.1,0,0.2,0,0.3c-0.1,0.8-0.2,2.2,1.2,3.3
	c1.7,1.3,2.9,2.4,3.6,3.1c-0.6-0.2-1.3-0.5-2.4-1c-0.7-0.4-1.6-0.6-2.5-0.6c-0.7,0-3.2,0.1-3.2,1.8c0,0.2,0.1,1.5,1.9,1.5
	c0.3,0.1,1.1,1,1.6,1.4c1,1.1,2.1,2.3,3.4,2.3h0c0.5,0,1.4,0.5,1.9,1c-0.4,0.2-0.8,0.5-1.3,0.7c-1.1,0.7-2.5,1.5-3.4,1.7
	c-1.3,0.3-1.7,1.3-1.6,2c0.1,1.3,1.7,2.2,3,2.2c0.6,0,1.1-0.2,1.5-0.5c0.1,0.1,0.1,0.1,0.1,0.2c0.4,0.4,0.9,0.9,1.6,1.1
	c-0.4,0.5-0.6,1-0.7,1.6c-0.1,0.4,0,0.8,0.1,1.2c-0.6,0.6-0.9,1.4-0.7,2.4c0.3,1.5-0.1,2.9-0.4,3.2c-1.1,0.4-4.1,2.1-4.5,4.5
	c-0.2,1.2-0.9,2.3-2,3c-0.5,0.3-1.2,0.5-1.9,0.7c-1.1,0.3-2,0.6-2.5,1.4l-0.3,0.5l0.2,0.8c0.1,0.4,0.4,0.8,0.7,1.2
	c0.1,0.1,0.1,0.2,0.2,0.2c-1,0.8-0.9,2.3-0.8,3.3c0,0.4,0.1,1,0,1.2c0,0-0.3,0.2-0.6,0.3c-0.7,0.3-2,0.9-2,2.5c0,0,0,0,0,0
	c-0.1,0-0.5,0.2-0.8,0.4c-0.7,0.4-1.7,0.9-2,1.9c-0.3,0.2-0.8,0.4-1.2,0.5c-1.3,0.5-2.8,1-2.8,2.4c0,0.4-0.8,1.7-2.3,2.2
	c-1.5,0.4-2.1,1-2.7,1.8c-0.3,0.3-0.6,0.7-1.1,1.2c-0.9,0.7-1.4,1.4-1.7,1.9c-0.5,0.7-0.5,0.7-0.9,0.7l-0.5,0
	c-4.2,0.2-8.4,0.5-10.1,1.9c-0.2,0.1-0.4,0.1-0.7,0.1c-0.7,0-1.5-0.2-2.2-0.4c-0.6-0.2-1.1-0.3-1.6-0.3c-0.9,0-1.4,0.5-1.6,1.1
	c-0.8,0.9-5.5,4.1-10.3,5.7c-5.9,2-9.5,3.7-8.9,6.4C222.3,218.2,222.4,218.3,222.4,218.4z M283.6,207.9c-0.9-0.9-2.6-3.4-1.4-7.8
	c1.4-4.9,5.5-7.5,7.3-7.5c0.2,0,0.4,0.1,0.4,0.1C290.4,194.3,285.7,205,283.6,207.9z"/>
</svg>
