<!-- Generator: Adobe Illustrator 19.0.0, SVG Export Plug-In  -->
<svg version="1.1"
	 xmlns="http://www.w3.org/2000/svg" xmlns:xlink="http://www.w3.org/1999/xlink" xmlns:a="http://ns.adobe.com/AdobeSVGViewerExtensions/3.0/"
	 x="0px" y="0px" width="467.9px" height="547.2px" viewBox="0 0 467.9 547.2" style="enable-background:new 0 0 467.9 547.2;"
	 xml:space="preserve">
<style type="text/css">
	.st0{fill:#F59573;}
</style>
<defs>
</defs>
<path class="st0" d="M163,115.6c-1.3,0-6.1-1.4-8.8-2.7c1.3-1.1,1.8-1.6,2.1-1.8c0.7,0.3,1.2,0.6,1.6,0.8c1.8,1.2,3.6,1.2,4.5,1.2
	h0.5c0.2,0,0.7,0,0.9,0.1c0,0.1,0,0.6-0.2,2.2C163.4,115.6,163.2,115.6,163,115.6z"/>
<path class="st0" d="M168.3,116.7c-0.1-0.5-0.4-1-1-1.5c-0.3-0.3-0.7-0.5-1-0.6c0.1-1.7-0.1-2.4-0.4-2.9c-0.9-1.2-2.2-1.2-3.1-1.2
	h-0.5c-1,0-2-0.1-3-0.7c-0.4-0.3-0.9-0.5-1.4-0.8c0,0,0-0.1,0-0.1c0.2-0.8,0.4-1.6,1.6-2.5c1-0.8,2.1-1.9,3.1-3.2
	c0.8-0.4,1.5-0.6,2.4-0.6c0.8,0,1.6,0.1,2.5,0.2c0.9,0.1,1.8,0.3,2.8,0.3c1,0,1.8-0.1,2.6-0.4c0.8-0.3,3.7-1.3,6.6-1.3
	c1.3,0,3.1,0.2,4.1,1.3c1.4,1.4,2.9,1.9,4.2,2.3c0.3,0.1,0.5,0.2,0.7,0.2c-1.4,0.4-2.6,1.2-3.5,1.7c-0.4,0.2-0.9,0.5-1,0.6
	c-0.2,0-0.5,0-0.8-0.1c-0.5,0-1.1-0.1-1.7-0.1c-2.9,0-3.8,1.3-4.1,2.4c-0.3,1.1-2,1.4-5,1.6c-1.3,0.1-2.2,0.5-2.8,1.3
	c-0.8,1.1-0.5,2.5-0.4,3.2c-0.2,0.2-0.6,0.5-0.9,0.8L168.3,116.7z"/>
<path class="st0" d="M137.3,104.3c-2.4-2.1-4.2-3.5-5.4-4c-0.4-0.2-0.8-0.3-1.2-0.5c-1.7-0.8-3.8-1.7-6.3-1.7
	c-1.3,0-2.6,0.3-3.8,0.8c-2.9,1.2-5,1.7-6.8,1.7c-1.3,0-2.5-0.3-3.5-0.9c-3.5-2.2-8.4-4.4-13.2-5.7c-2.7-0.8-4.7-2-6.7-3.3
	c-1.5-0.9-2.9-1.8-4.4-2.4c-1.5-0.5-2.9-0.8-4.2-1c-1.8-0.3-3.4-0.6-4.5-1.5c-0.4-0.4-0.9-0.8-1.4-1.3c-2.3-2-4.8-4.4-7.5-4.6
	c-1.4-0.1-2.8-3.5-3.2-5.3c0.6-0.2,1.4-0.4,1.8-1.3c0.2-0.4,0.2-1.1-0.3-1.9c-0.1-0.2-0.1-0.2,0.1-0.8c0.3-0.7,0.7-1.7,0.3-3.1
	l-0.3-0.9c-0.5-1.6-1.2-3.4-2.6-5.6c-1.7-2.5-9.7-11.2-12.4-13.8c-1-0.9-1.3-1.5-1.6-2c-0.7-1.1-1.2-1.7-3.5-2.6
	c-2.3-0.9-2.8-1.6-2.9-1.9c0-0.1-0.1-0.3,0.1-0.7c0.6-1.4,0.7-2.8,0.2-3.8c-0.4-0.8-1.1-1.3-2.1-1.5c-0.1-0.1-0.5-0.5-0.7-0.7
	c-0.7-0.8-1.5-2-3.2-2.3c-1.6-0.3-1.7-2.4-1.7-2.5c0-1.4-1.3-2-2.5-2.5c-0.9-0.4-2-0.8-2.6-1.6c-2.6-3.3-3.8-3.9-4.8-3.9
	c-0.5,0-0.9,0.2-1.3,0.5c-0.1,0.1-0.2,0.2-0.3,0.3c0-0.2,0-0.5,0-0.8c0-1,0.2-1.3,0.3-1.4c1-1.3,0.4-2.3-1.5-5.7
	c-1.9-3.3-1.3-4.5-1-5.1c0.8-1.5,0-2.2-0.5-2.6c-0.4-0.3-0.9-0.4-1.6-0.4c-0.3,0-0.6,0-1,0.1C19.3,6,19.1,6,18.9,6
	c-0.7-1.3-2-2.2-3.5-2.2c-0.5,0-0.9,0.1-1.3,0.3C14,4,13.8,3.9,13.7,3.8c-0.7-0.8-1.7-1.3-2.6-1.3c-0.8,0-1.4,0.3-1.8,0.9
	C9.1,3.8,8.8,4.5,9.2,5.5c0.6,1.6,1.8,6.2,1.8,8c0,2.4,1.4,4.5,3.9,5.6c0.8,0.4,1.6,0.6,2.2,0.8c0.7,0.2,1.1,0.3,1.4,0.5
	c-0.1,0.1-0.1,0.1-0.1,0.2c-0.4,0.5-0.9,1.1-0.8,2c0.1,0.4,0.2,0.9,0.9,1.3c0.8,0.5,2.4,2.5,4.1,5.7c0.8,1.5,2,2.8,3.2,4.2
	c1.3,1.4,2.6,2.9,3,4.1c0.4,1.5,1.9,6.6,4,8.7c0.3,0.3,0.3,1.2,0.3,2c0,0.6,0,1.4,0.2,2.1c-0.1,0-1.9-1.2-1.9-1.2
	c-1.5-1-3.5-2.3-4.3-3c0.5-0.7,0.9-1.6,0.9-2.7c0.1-2.1-1-4.3-3-6l-1.2-1.1c-2.1-1.9-3.4-3-5.3-3c-0.2,0-0.4,0-0.7,0
	c-0.9,0-3.1-1.5-4.4-2.7c0.4,0.1,0.9,0.1,1.2,0.1c1.5,0,2-0.9,2.1-1.3c0.6-1.7,0.4-6.7-3.3-9.1c-0.7-0.5-1.4-0.9-2.2-1.3
	C9.5,18.3,7.2,16.9,7,16C6.8,13.7,4.8,7.7,2,4.2C1.2,3.3,0.6,2.3,0,1.4L10.6,0c1.2,0.8,4.3,2.8,6.4,3.3c1.8,0.4,11.1,3.8,14.5,5.1
	l0.2,0.1l17.1-0.1l1.9-2.4h7.7c5.5,5.4,6.3,5.6,6.6,5.7c0.7,0.3,2.7,2.4,2.7,3.2c0,2.2,1,4,2.8,4.8c0.4,0.2,1,0.6,1.8,1
	c3.2,1.9,4.5,2.5,5.3,2.5h0.3l0.4-0.1c0.7-0.3,1-0.9,1.6-2.1c0.4-0.8,1.5-3.1,2.3-3.1c2.3,0.1,8.1,1.9,8.9,4.8
	c1.2,4.2,4.7,7.5,5.9,8.4c0.1,0.2,0.2,0.9,0.3,1.3c0.1,0.9,0.2,1.8,0.8,2.7c0.2,0.3,0.4,0.9,0.5,1.4c0.3,1.1,0.7,2.7,2.3,2.7
	c0.2,0,1.1,0.5,1.9,0.8c2,0.9,4.3,2,5.9,2c0,0,0,0,0.1,0c0.2,0,0.5,0,1,0.3c-0.1,0.4-0.2,0.8-0.3,1.2c-2.4,6.6-2.1,12.4-2,15.9
	l0,0.5c0.2,4.4,0.5,9.3,2.4,11.9c0.7,1,1.7,1.9,2.7,2.8c1.4,1.3,3,2.8,3.1,4c0.4,4.5,2.1,7,4.5,7c0,0,0,0,0,0c0.9,0,2,0.8,3,1.4
	c1.2,0.8,2.3,1.6,3.4,1.6h0.1l0.3,0c0.5-0.1,1.8-0.4,3.4-0.9c2.9-0.8,7.8-2.1,9.2-2.1c0.7,0.4,2.7,1.5,4.1,1.5
	c0.8,0,1.3-0.4,1.6-0.7c0.3-0.3,0.6-0.8,0.4-1.7c0.1,0,0.6-0.4,0.9-0.6c1.2-0.8,3-1.9,2.9-4.5c0-0.9,0.1-1,0.4-1.3
	c0.7-0.7,1.4-1.6,1.2-3.9c-0.1-2,0.4-4.3,6.2-5.1c1.3-0.2,2.5-0.4,3.4-0.6c1.3-0.2,2.3-0.4,3.1-0.4c0.6,0,1.1,0.1,1.6,0.4
	c0.6,0.4,1.3,0.6,2.1,0.6c0.6,0,1.1-0.1,1.6-0.2c0.2,0,0.4-0.1,0.6-0.1c0,0,0,0.1,0,0.1c0.2,1,0,1.2-1.1,2c-0.5,0.4-1.1,0.8-1.7,1.5
	c-1.5,1.6-1.4,3-1.3,4.5c0,0.7,0.1,1.6,0,2.7c-0.1,1.1-0.5,4.1-1.4,5.9c-0.9-0.7-1.7-1-2.4-1c-1.8,0.1-3.1,1.9-4,3.1
	c-0.1,0.2-0.2,0.3-0.3,0.5c-0.3,0-0.9,0-2,0c-1.9,0-4.4-0.1-6.1-0.1c-0.8,0-1.4,0-1.6,0c-1.6,0-2.1,1.9-2.5,3.5
	c-0.1,0.3-0.2,0.8-0.3,1.1l-0.3,0.2l-0.1,0.8c-0.1,0.9,0.6,1.5,1.8,2.7c0.6,0.5,1.8,1.7,2.2,2.3c-0.3,0-1,0.2-2.3,0.2
	c-0.9,0-1.8-0.1-2.5-0.1c-0.5,0-0.9,0-1.1,0h-0.1l-0.3,0C141.4,99,141,99.1,137.3,104.3z M39.5,57.8c-0.7-1.7-2.1-3.8-4.3-5.7
	c0.3,0,0.7,0.1,1.1,0.1c0.5,0,2.2,0.1,2.4,0.5c0,1.5,0.6,2.4,1,3.1c0.4,0.7,0.5,0.8,0.3,1.2C39.9,57.3,39.7,57.6,39.5,57.8z"/>
<path class="st0" d="M151.8,111.5c-0.9-0.4-1.9-0.5-2.9-0.5l-1.8,0c-0.9,0-1.9-0.1-2.6-0.5c-0.9-0.6-2.8-2.2-4.6-3.9l-0.6-0.5
	c1.8-2.5,2.9-4,3.4-4.6c0.2,0,0.4,0,0.6,0c0.7,0,1.7,0.1,2.6,0.1c2.1,0,4.4-0.2,5-1.8c0.7-1.8-1.3-3.6-3.1-5.3
	c-0.2-0.2-0.5-0.4-0.7-0.7c0.1-0.4,0.3-0.9,0.4-1.4c0.1-0.4,0.3-1,0.4-1.4c0.3,0,0.6,0,1,0c1.6,0,4.1,0.1,6,0.1c0.2,0,0.4,0,0.6,0
	l-0.3,11.7l2.9-0.4c0.1,0.3,0.2,0.6,0.4,0.8c0.1,0.1,0.2,0.2,0.2,0.2c-0.3,0.3-0.7,0.6-1,0.9c-1.8,1.5-2.2,3-2.5,4
	c0,0.1-0.1,0.3-0.1,0.4C154.9,108.8,154,109.4,151.8,111.5z"/>
<path class="st0" d="M158.3,90.9c0,0,0.1,0,0.1-0.1c0.4-0.2,0.7-0.6,1.3-1.3c0.4-0.5,1.4-1.9,1.9-2c0,0,0,0,0.1,0.1
	c-1.6,1-1.3,3.5-1.1,5.6c0.1,1.3,0.4,3.4-0.1,3.8c-0.9,0.7-1.6,1.7-2,2.7l-0.4,0.1L158.3,90.9z"/>
<path class="st0" d="M245.4,87.2c-1.1,0-2-0.2-2.6-0.5c0.4-0.1,1.1-0.1,2.1-0.1c0.7,0,1.4,0,2,0c0.5,0,0.9,0,1.4,0
	c-0.2,0.1-0.4,0.1-0.5,0.2C247,87,246.2,87.2,245.4,87.2z M254.8,87.1c-0.9-0.4-1.9-0.7-3.1-0.8c0.9-0.3,1.5-0.9,1.5-2
	c0-1.5-1.2-2.8-2.5-4.2c-0.6-0.7-1.9-2.1-1.9-2.5c0.2-0.1,0.6-0.1,0.8-0.1c1.1,0,2.7,0.6,4.3,1.1c0.6,0.2,1.1,0.4,1.7,0.5
	C255.4,81.4,255.1,84.3,254.8,87.1z"/>
<path class="st0" d="M257.5,88.3c0.2-2.9,0.5-6.1,0.9-8.6c0.3,0,0.6,0.1,0.9,0.1c0.5,0,1-0.1,1.4-0.2c0.1,0,0.4-0.1,0.9-0.1
	c2,0,5.2,0.8,8,2c3.7,1.5,4.5,2.8,4.5,3.2c0,0.2,0,0.6-2.2,0.6c-0.6,0-1.3,0-2-0.1c-0.8,0-1.6-0.1-2.4-0.1c-1.8,0-3.2,0.2-4.4,0.6
	c-2.1,0.7-3.4,1.5-4.3,2.1C258.2,88,257.7,88.3,257.5,88.3C257.5,88.3,257.5,88.3,257.5,88.3z"/>
<path class="st0" d="M186,129.3c-1-0.6-2.3-0.6-3.6-0.7c-0.7,0-1.6-0.1-1.9-0.2c-0.5-0.3-1.3-0.4-2.3-0.4c-0.2,0-0.4,0-0.6,0
	c-0.5-0.9-1.3-1.6-2.2-2.1c-0.9-0.5-2.1-1.9-3.2-3.2c-1.3-1.4-2.4-2.8-3.6-3.5l1.1-0.3l0.2-0.2c1.1-0.9,1.9-1.6,2.1-2.1
	c0.3-0.5,0.2-1.1,0-1.6c-0.1-0.2-0.2-0.8-0.1-1c0,0,0.3-0.2,0.8-0.2c3-0.2,6.7-0.5,7.4-3.7c0-0.1,0.4-0.3,1.4-0.3c0.5,0,1,0,1.4,0.1
	c0.4,0,0.8,0.1,1.1,0.1l0.4,0c0.6-0.1,1.2-0.4,2-0.9c0.8-0.5,1.9-1.1,2.9-1.5c-0.1,0.8-0.1,1.4-0.1,2c-0.1,1.2-0.1,1.5-0.6,2
	c-1.2,1.3-1.1,3.7-0.9,6.3c0.1,1.5,0.1,3.1-0.1,4c-0.1,0.5-0.3,1-0.5,1.5C186.4,125.5,185.7,127.6,186,129.3z"/>
<path class="st0" d="M361.9,392.2c-0.2-1.4-0.1-2.9,0-4.2c0.1-0.7,0.1-1.3,0.1-1.8c0-2.6-2.1-3.9-3.3-4.7c-0.4-0.2-0.8-0.5-0.9-0.6
	c-0.5-0.5-1.3-1.1-2.4-1.7c-1.4-0.9-3.1-1.9-3.9-3c-0.6-0.9-1.4-1.4-2.2-1.4c-0.8,0-1.4,0.5-1.9,1c-0.3-0.7-0.8-1.7-1.7-2.7
	c-1.5-1.9-3.1-2.4-4.2-2.5c1-1.1,2-2.2,2.8-3.6c2.4-3.9,7.5-8.7,9.4-9.9c0.8-0.5,1.9-1,3-1.5c2.2-1,3.9-1.7,4.4-3
	c0.5-1.4,0.4-9.3-1.7-10.4c-0.4-0.2-1-0.4-2.8-0.4c0.1-0.6,0.3-1.3,0.4-2c0.7-3.6,1.4-6.9-0.8-8c-0.6-0.3-1.2-0.4-1.8-0.4
	c-1.3,0-2.4,0.6-3.2,1c-0.5-1.1-1.3-3.3-1.8-5c-0.3-1.2-2.2-5.9-4.8-5.9c-0.4,0-0.8,0.1-1.1,0.3c-0.1,0-0.1,0.1-0.2,0.1
	c-0.1,0-0.1,0-0.2-0.1c-0.6-0.2-1.7-0.6-3.8-0.7c-1.7-0.1-2.1-0.2-2.2-0.3c0-0.2,0.3-1.5,0.5-2.6c0.6-2.5-0.4-4.5-1-5.8
	c-0.1-0.2-0.2-0.4-0.3-0.6c0.4-0.3,0.9-0.8,1.1-1.5c0.2-0.8-0.1-1.5-0.6-2.3c0.9-1.1,1.5-2.7,1.3-4.3c-0.1-0.6,0.1-1.5,0.4-2.4
	c0.4-1.6,0.9-3.4,0.2-5.2c-0.5-1.4-1.4-2.3-2.1-3c-0.8-0.8-1.2-1.2-1.2-2.1c0-3.5-1.9-4.3-4.7-4.3c-0.4,0-0.9,0-1.4,0
	c-0.3,0-0.6,0-0.8,0c-1.8,0-3.9-0.3-4-1.6c-0.1-1.1-0.5-2.1-0.9-2.8c-0.1-0.2-0.2-0.5-0.3-0.7c0.7-0.4,0.9-0.9,1-1.3
	c0.3-1-0.2-1.8-0.7-2.5c-0.3-0.5-0.7-1.1-0.6-1.5c0.4-2.6-1.1-3.9-2.3-4.8l-0.4-0.3c-0.7-0.6-1.8-0.7-2.9-0.7l-1.9,0
	c-0.5,0-0.8,0-1-0.1c-0.3-1.9-2.4-3.1-5.8-3.1c0,0,0,0,0,0c-0.1-0.5-0.6-2-2.4-2c0,0-0.4,0-0.4,0c-0.4,0-0.5-0.1-0.7-0.2
	c-0.4-0.3-1.1-0.7-2.4-0.7c-0.3,0-0.6,0-0.9,0.1c-0.2,0-0.4,0-0.6,0c-1.4,0-2.6-0.8-4.9-3.6c-2.3-2.7-2-8.5-1.6-9.8
	c0.3-0.9,0-1.5-0.3-1.8c-0.6-0.8-1.7-0.8-2-0.8c-0.7,0-1.4,0.1-2.3,0.3c-0.8,0.1-1.6,0.3-2.2,0.3c-2.1,0-4.1,1.2-6,2.4
	c-0.5,0.3-0.9,0.6-1.4,0.8c-0.9,0.5-1.7,0.8-2.4,1.1c-1,0.4-1.9,0.8-2.8,1.6c-0.7,0.7-1.5,1-2.4,1c-0.4,0-0.7-0.1-1-0.2
	c-1.2-0.4-2.9-0.7-4.7-0.7c-0.9,0-2,0.1-3.1,0.3c-0.3-1.1-0.2-3.6-0.2-4.7c0-0.5,0-0.9,0-1.3c0-1.9-1.1-2.6-2-2.6
	c-1.3,0-2.5,1.3-3.1,2.5c0,0-0.2,0.2-1.2,0.2c-0.5,0-1,0-1.6-0.1c-0.7,0-1.4-0.1-2-0.1c-0.4,0-0.4,0-0.6-0.9
	c-0.2-0.7-0.6-2.3-2.3-2.3c-0.4,0-0.5,0-0.6,0c-0.5,0-0.8-0.1-0.9-0.2c-0.1-0.1-0.1-0.3-0.1-0.5c0.2-1.8-0.8-3.2-1.8-4.6
	c-0.3-0.4-0.5-0.7-0.8-1.2l-0.3-0.5c-0.5-0.7-1.6-2.5-1.3-2.8c0.9-1,0.7-2.1,0.6-2.7c-0.1-0.5-0.1-0.6,0.2-0.9
	c0.4-0.4,0.8-0.6,1.2-0.8c0.8-0.4,2.3-1.2,1.7-3.5c-0.1-0.5,0.1-0.9,0.7-1.8c0.5-0.8,1.1-1.8,1.2-3.1c0-0.3,0-0.4,1.3-0.8
	c0.9-0.3,2.1-0.7,3.2-1.6c0.9-0.7,1.9-0.9,3-1.1c1.2-0.2,2.6-0.4,3.9-1.5c0.5-0.4,0.8-0.4,1-0.4c0.3,0,0.6,0.1,1,0.2
	c0.5,0.1,1,0.3,1.6,0.3c0.3,0,0.5,0,0.7-0.1c3.1-0.7,3.2-9,3.2-9.1c0-1.5,0.6-5.8,1.1-7.4c0.7-2.4-0.7-4.3-1.9-6
	c-0.9-1.2-1.7-2.4-1.7-3.7c0-0.7,0.1-1,0.1-1.1c0,0,0.1,0,0.1,0c0.1,0,0.2,0,0.3,0c0.7-0.1,1.7-0.2,2.8-0.9c1.1-0.8,1.6-1.7,1.4-2.6
	c-0.3-1.5-2.3-2-3-2.2c-0.2-0.1-0.4-0.6-0.5-1c0.4-0.1,1.2-0.2,2.9-0.2c1,0,2,0,2.8,0.1c0.6,0,1.2,0,1.6,0c1.5,0,3.7-0.7,5.2-1.4
	c0.8,0.9,1.4,1.8,1.9,2.7c0.6,1,1.2,1.9,2,2.5l0.6,0.5c1,0.8,1.7,1.4,2.8,1.4c0.5,0,1-0.1,1.5-0.4c0.6-0.3,1.2-0.7,1.4-0.7
	c0.6,0.4,1.1,0.5,1.6,0.5c1.4,0,2.5-1,3.9-2.3l0.4-0.3c0.4-0.3,0.7-0.4,1.3-0.5c0.8-0.1,2.3-0.3,2.8-2c0.4-1.4,1-1.9,2.2-2.1
	c1.9-0.3,2.7-1.8,2.6-3.1c-0.1-1.2-1-2-2.2-2c-0.6,0-1.1,0.2-1.6,0.3c-0.1-1.4-0.6-2-1.2-2.6c-0.3-0.3-0.3-0.3-0.3-0.7
	c0-1.5-0.1-2.9-1.2-4.1c0.3,0,0.4,0.1,0.5,0.1c0.7,0.8,2,0.9,3.1,1c0.4,0,1.2,0.1,1.5,0.2c0.4,1.3,1.5,2.2,2.7,2.2
	c1.1,0,2.2-0.8,2.2-2.6c0-0.8,1.2-1,1.7-1c0.2,0,0.4,0,0.6,0.1c0.2,0,0.4,0.1,0.6,0.1c1.5,0,3.5-1,5.2-1.9c0.7-0.4,1.5-0.8,1.9-0.9
	c1.2-0.4,1.7-1.5,2.1-2.2c0.4-0.9,0.5-1,0.7-1l0.3,0c0.1,0.1,0.1,0.7,0.1,1.1c0.1,1.1,0.2,2.8,1.8,3.5c0.5,0.2,0.6,0.9,0.7,1.1
	c0.1,0.6-0.2,1.2-0.4,1.4c-1.1,0.9-1.5,2.7-1.6,3.7c-0.2,2.4,0.3,5.9,2.6,8.4c2.3,2.6,4.3,3.1,5.6,3.1c1.1,0,2.1-0.4,2.6-1.1
	c0,0,0.1,0.1,0.2,0.1c0.1,0,0.3,0,0.4,0c0.9-0.1,2.5-0.2,3.2-1.5l0.3,0c1,0,1.8-0.4,2.5-1.2l0,0c0,0,0.1,0,0.4,0
	c0.5,0,1.3,0.2,2.1,0.4c0.9,0.2,1.8,0.5,2.6,0.5c0.6,0,1.1-0.1,1.5-0.3c1.3-0.7,1.5-2,1.6-2.9c0-0.2,0.1-0.4,0.1-0.5
	c0.2,0,0.3,0,0.5,0c0.8,0,1.7-0.1,2.5-0.3c0.7-0.1,1.3-0.2,1.8-0.2c0.4,0,0.5,0.1,0.5,0.1c1,1.7,2.6,2.6,4.6,2.6
	c0.8,0,1.6-0.1,2.5-0.4c0.7-0.2,1.4-0.3,1.9-0.3l1.1,0c2,0,3.1-0.9,3.9-3.2c0.7-2.1,3.1-5.1,5.4-7.5c0.4,0.9,0.7,2.5,0.9,3.5
	c0.5,2.4,1,4.8,2.3,6.3c0.9,1,1.9,1.7,2.8,2.3c2,1.3,2,1.5,1.6,2.3c-2.4,5.2-3.9,6.3-4.4,6.3c0,0,0,0,0,0c-1.9,0-3.5,1.4-4,3.2
	c-0.4,1.6,0.3,3.2,1.8,4c0.5,0.3,1,0.4,1.4,0.4h0c1.7,0,2-1.7,2.1-2.5c0.2-1.2,0.4-1.9,1.2-2.2c0.3-0.1,1-0.3,2.3-0.3
	c3.5,0,6.7,1.2,7.3,1.9c-0.8,2.2-2.6,4.6-4.3,5.6c-1.3,0.8-1.5,1.9-1.3,2.7c0.3,1,1.3,1.8,2.5,1.8c0.7,0,2.5-0.3,3.6-2.9
	c0.3-0.6,0.5-0.9,0.6-0.9c0.1,0,0.3,0.1,0.5,0.1c0.3,0.1,0.7,0.2,1,0.2c0.9,0,2-0.5,2-2.8c0-2,0.8-2.3,2.1-2.3
	c1.1,0,2.6,0.4,4.4,1.1c11.8,4.6,12.5,6.6,12.5,6.8c0,0.7-0.6,1.9-1,2.9c-0.7,1.4-1.1,2.4-0.5,3.3l0.4,0.6l1,0.1
	c0.3,0,0.6-0.1,0.9-0.2c0.9-0.3,1.8-1,2.7-1.7c1.2-0.9,2.5-1.9,3.6-1.9c0.1,0,0.3,0,0.4,0c0.7,0.2,1.7,0.6,2.7,1
	c2,0.9,4.4,1.9,7,1.9c0.8,0,1.5-0.1,2.2-0.3c1.6-0.4,3-0.6,4.3-0.6c4,0,7.6,1.8,11,5.4c4.8,5.2,9.5,7.8,14.1,7.8c0.2,0,0.4,0,0.6,0
	c0.4,0,0.8-0.1,1.1-0.1c0.3,0,0.7-0.1,0.9-0.1c0.5,0,0.9,0,1.5,2.4c0.2,0.8,0.4,1.6,0.6,2.4c1.1,3.8,2.4,8.6,0.6,13.3
	c-2.3,5.9-5.9,9.9-7.2,10.5c-0.3,0.1-0.7,0.2-1,0.4c-1.6,0.5-3.8,1.2-5.1,4.6l-0.5,1.2c-1,2.5-2.5,6.3-3.5,7c-0.1,0-0.1,0-0.2,0
	c-0.4,0-0.7-0.3-0.9-0.5c-0.4-0.3-0.8-0.7-1.4-0.8l-0.2-0.1l-0.4,0c-1.1,0-2.2,0.9-2.5,2c-0.2,0.9,0.2,1.8,1.1,2.3c0,0,0.1,0,0.1,0
	c0,0,0,0,0,0c-1.7,1.5-1.7,5.2-1.7,9.3c0,1.2,0.2,2.5,0.3,3.7c0.3,2.4,0.6,4.6-0.2,7c-0.9,2.5-0.7,4.4-0.5,5.6
	c0.1,0.7,0.1,1.1,0,1.2c-0.2,0.3-0.5,0.5-0.9,0.7c-0.8,0.4-2.2,1.2-2.2,3.1c0,0.8-0.2,1.8-0.4,2.8c-0.2,1.3-0.5,2.7-0.5,4.1
	c0,0.4-0.1,0.6-0.1,0.6c0,0-0.2,0.1-0.3,0.1c-0.5,0.3-1.4,0.7-1.8,1.9c-0.1,0.4-0.2,0.8-0.3,1.3c-0.3,1.3-0.7,2.7-1.4,3.3
	c-1.9,1.4-2.8,3.4-2.8,6.3c0,1.7-0.1,1.7-1.2,1.7c-2.5,0-4.5,2.1-4.5,4.8c-0.1,0.2-0.5,0.3-1.9,0.3l-1.8,0c-1,0-2.2-0.1-3.5-0.3
	c-1.3-0.2-2.7-0.3-3.9-0.3c-1.5,0-2.4,0.3-3,0.8c-0.3,0.3-0.7,0.6-1,1c-0.9,0.9-1.8,1.8-2.8,2.1c-1.2,0.3-1.7,0.9-2,1.5h0
	c0,0-0.2,0.1-0.9,0.2c-3.1,0.3-5.2,0.6-8.3,3.7c-2.1,2.1-5,5-6.2,5c-2.2,0-2.3,2-2.4,2.8c0,0.7-0.1,1.3-0.5,2c-1.3,2-1,4.4-0.6,6.9
	c0.1,0.8,0.2,1.6,0.3,2.4c0.4,4.9-0.3,6.6-0.6,6.8c-2.5,0.3-4.5,2.3-6.6,6.8c-0.3,0.7-0.6,1.3-0.9,2c-0.6,1.3-1.2,2.6-1.9,3.8
	c0.1-0.6,0.1-1.2-0.2-1.8c-0.4-0.8-1.1-1.2-2-1.2c-0.6,0-1.3,0.2-2.1,0.6c-2.7,1.2-2.6,3-2.6,4.1c0,0.8,0.1,1.4-0.8,2.2
	c-2,1.9-2.2,3.3-2.4,4.6c-0.1,0.8-0.3,1.6-0.8,2.6c-0.6,1.1-0.9,2-1.2,2.8c-0.5,1.5-0.7,2.3-2.7,3.8
	C362.8,391.5,362.3,391.8,361.9,392.2z"/>
<path class="st0" d="M345.4,400.5c0,0-0.3,0-1.1-0.4c-2.4-1.1-4.7-2.1-7.1-2.1c-0.3,0-0.6,0-0.9,0.1c0,0,0,0,0,0
	c-0.2,0-0.3,0-0.5-0.1c0.4-1.3,0.5-2.3-0.2-3c-0.3-0.3-0.7-0.5-0.9-0.5c-0.1,0-0.4-0.4-0.3-1.9c0.1-1.4,0.3-2,0.6-2.7
	c0.4-1,0.9-2,1-4.7c0.1-2.4,0.6-4.3,1.1-5.9c0.4-1.4,0.8-2.6,0.8-3.8c0-0.5,0.5-1.3,1-1.8c0.1,0,0.1,0,0.2,0c0.6,0,1.1-0.1,1.5-0.3
	c0.2-0.1,0.5-0.2,0.7-0.2c0.8,0,1.7,0.5,2.5,1.6c0.9,1,1.3,2,1.5,2.6c0.3,0.8,0.8,1.8,2,1.8h0.1l0.2,0c0.7-0.1,1.2-0.7,1.6-1.2
	c0.1-0.1,0.2-0.2,0.3-0.3c0,0,0,0,0,0c1.1,1.6,3.1,2.8,4.7,3.8c0.7,0.4,1.6,1,1.8,1.2c0.4,0.4,0.9,0.8,1.5,1.1c1.2,0.8,2,1.4,2,2.5
	c0,0.4-0.1,0.9-0.1,1.5c-0.2,1.9-0.4,4.5,0.5,6.9c-0.3,0.4-0.5,0.7-0.8,1.1c-0.9,1.4-1.7,2.5-2.9,3.3c-1.4,0.8-2.8,1.2-4.7,1.2l0,0
	c-1.1,0-2.1-0.1-3-0.3c-0.4-0.1-0.7-0.1-0.9-0.1c-1,0-1.5,0.3-1.9,0.5L345.4,400.5z"/>
<path class="st0" d="M284.7,545.3c-0.2,0-0.5-0.1-0.7-0.2l-0.3-0.1c-1-0.6-2.5-0.8-4.8-0.8c-1.3,0-2.5,0.1-3.5,0.1
	c-0.3,0-0.6,0-0.8,0c-0.2-1.6-0.1-5.4,0-10.5c0.2,0,0.4,0,0.6-0.1c0,0,0.1,0,0.1,0c0.2,0.7,0.6,1.6,1.6,2.4c0.3,0.2,0.7,0.6,1.2,1
	c3.8,3.2,7.7,6.4,10.6,6.7C287.2,544,285.7,544.3,284.7,545.3L284.7,545.3z M272.2,522.9c-0.8-0.3-1.6-0.5-2.4-0.5
	c-0.1,0-0.2,0-0.3,0c-1-0.8-2-1.3-3.1-1.6c-0.9-0.2-2.1-0.3-3.6-0.3c-3.1,0-6.6,0.4-7,0.5c0-0.1-0.2-0.5-0.4-0.8
	c-0.3-0.5-0.7-1.2-1.4-1.5c-0.2-0.9-0.3-3.5,0.2-4.9c0.3-1,0-1.7-0.2-2c-0.8-1.1-2.4-1.2-4-1.2c-0.4,0-1.1,0-1.5-0.1c0,0,0,0,0,0
	c0.1-0.7,0.4-2.1-0.9-3.5c-0.7-0.7-0.4-1.8-0.1-3.1c0.1-0.4,0.2-0.8,0.2-1.1c0.1-0.9,0.9-2.6,1.7-2.6c2.1,0,2.4-1.9,2.5-2.7
	c0.1-0.8,0.2-1.2,0.6-1.4c2.1-1.3,0.9-3.4,0.4-4.1c-0.1-0.2-0.2-0.4-0.3-0.6c0.9-0.8,1.1-1.9,1.2-2.6c0-0.2,0.1-0.5,0.1-0.6
	c0,0,0,0,0,0c0,0,0.1,0,0.3-0.1c2.6-0.4,2.3-2.8,2.2-3.6c0-0.1,0-0.3,0-0.5c0.5-0.2,0.9-0.5,1.1-1c0.5-0.9,0.2-1.8-0.1-2.6
	c-0.2-0.6-0.4-1.2-0.3-1.8c0.3-1.1,0.1-2.1-0.1-2.8c0-0.2-0.1-0.5-0.1-0.6c0,0,0.1-0.1,0.2-0.1c1.4-0.6,1.9-1.5,2-2.1
	c0.1-0.9-0.2-1.8-1.1-2.8c0,0,0,0,0,0c0.9,0,1.5-0.4,1.8-0.7c0.4-0.4,0.6-1,0.6-1.6c0-1.4-1.2-3-2.8-3c-0.3,0-0.5,0-0.8,0.1
	c-0.1,0-0.2,0.1-0.3,0.1c-0.2,0-0.3,0-0.3-0.1c0-0.1,0-0.3,0.3-0.6c1.8-1.8,0.3-3.6-0.2-4.1c-0.1-0.1-0.1-0.1-0.2-0.2
	c0.5-1.4,0.4-3.2-1-4.3c-0.2-0.7,0.1-3,0.5-3.7c1.8-0.6,1.5-3.3,1.3-6c-0.1-0.6-0.1-1.1-0.1-1.4c0-1-0.4-1.8-0.8-2.5
	c-0.2-0.4-0.5-1-0.4-1.2c0-0.1,0.1-0.3,0.3-0.6c0.5-0.7,1.2-1.6,1.2-3.5c0-1.9,0.4-2.2,0.4-2.2c2-0.3,1.7-2.5,1.6-4
	c0-0.4-0.1-0.7-0.1-1c0,0,0.1,0,0.1,0c0.8-0.1,2.8-0.3,3.1-2.6c0.3-2-0.8-2.9-1.3-3.3c0,0,0,0,0,0c0.2-1.1,0.1-2.3,0-3.7
	c-0.1-1.1-0.2-2.3-0.2-3.9c0-2.2,1.3-3,2.6-3.8c0.5-0.3,0.9-0.5,1.2-0.8c1.2-1,0.8-2.9,0.4-4.8c-0.1-0.7-0.4-1.8-0.4-2.3
	c1.2-0.7,1.4-2.1,1.5-3.1c0-0.3,0.1-0.9,0.2-1c1.2-0.8,1.4-2.2,1.6-3.5c0.1-0.6,0.2-1.3,0.4-1.9c0.6-1.7-0.2-3-0.7-4
	c-0.4-0.6-0.6-1-0.6-1.4c0-1.8-0.3-3.9-2.2-6.4c-0.9-1.1-0.8-3.3-0.5-4.1c1.1-0.3,1.3-1.7,1.5-2.6c0.2-1.2,0.5-1.8,0.6-1.8
	c0.8-0.2,1.3-0.7,1.7-1.3c0.9-1.6,0-4.1-0.8-6.2c0-0.1,0-0.1,0-0.1c0.7-0.4,1.7-1,1.7-2.5c0-1.5,0.9-3.5,1.8-3.9
	c2.2-1,2.5-4.2,2.5-6c0,0,0,0,0,0c0.1,0,0.8-0.4,1.2-0.6c0.6-0.3,1.2-0.7,1.8-1.1c1.4-1.2,0.4-2.9,0-3.5c-0.1-0.1-0.1-0.2-0.2-0.3
	c1.8-1.3,0.8-3.7,0.2-5.2c-0.2-0.4-0.4-1-0.5-1.3c0.9-1,0.7-2.4,0.6-3.4c-0.1-0.5-0.1-0.9-0.1-1.2c0.2-0.3,2-1.3,3-2
	c1.8-1.2,2.9-1.8,3.3-2.6c0.7-1.2,1.1-4.5,1.3-6.6c1.4-1,2.8-2.1,3.9-3.3c0.8-0.9,1.1-1,1.2-1c-0.1,0,0.1,0.1,0.3,0.2
	c0.5,0.3,1.3,0.8,2.5,1l1,0.1c2.4,0.3,3.9,0.5,4.5,1.8c0.6,1.2,1.4,1.4,1.9,1.4c1.5,0,2.3-1.7,3.1-3.3c0.2-0.3,0.4-0.8,0.5-1.1
	c0.1,0,0.3,0,0.7,0c0.9,0,2,0.1,3,0.2l0.2,0c1.8,2.7,5.6,6.5,8,8c1,0.6,1.7,1.2,2.2,1.8c1.1,1,2.1,2,4.7,2.3
	c3.1,0.3,4.5,1.6,5.4,2.7c0.8,1,2.9,1.9,6.3,3.3c1.2,0.5,3,1.2,3.9,1.7c-0.3,0.4-0.7,0.9-1.1,1.3c-1.4,1.6-3.2,3.7-3.2,5.9
	c0,1.3-0.3,1.5-0.8,1.9c-0.4,0.3-1.1,0.8-1.1,1.9c0,1.8,2.1,1.9,3.7,2c0.7,0,1.9,0.1,2.3,0.3c0.5,0.3,1.2,0.5,2,0.5
	c0.4,0,0.9,0,1.3-0.1c0.4,0,0.8-0.1,1.2-0.1c0.4,0,0.8,0.1,1,0.2c0.5,0.3,1,0.5,1.6,0.5c1,0,1.9-0.5,2.7-0.9
	c0.3-0.2,0.9-0.5,1.1-0.5l0.2,0l0.4,0c1.1,0,1.9-0.7,2.7-1.4c0.4-0.4,1-0.9,1.4-0.9c0,0,0,0,0.1,0c0.7,0,1.4-0.2,2-1
	c1.4-1.6,2.4-5.5,2.4-8c0.8,0,1.3,0.1,1.5,0.1c0.5,1.3,0.9,6.1,0.6,7c-0.3,0.3-1.9,1-3,1.5c-1.2,0.5-2.4,1.1-3.4,1.7
	c-2.4,1.6-7.7,6.7-10.3,10.8c-1,1.6-2.3,3-3.5,4.3c-1.8,2-3.4,3.7-3.4,5.6c0,0.9-0.3,1.9-0.7,3c-0.5,1.7-1.2,3.9-1.2,6.7
	c-0.1,2.2-0.4,3-0.7,3.8c-0.3,0.8-0.7,1.7-0.8,3.6c-0.1,2.3,0.3,3.5,1.4,4.2c-0.8,0.1-1.4,0.6-1.8,1c-1.3,1.2-1.1,2.4-0.9,3
	c0.7,2,3.8,3,5.7,3.3c1.5,0.2,2.3,0.8,2.4,1c-1.3,1.6-1.7,3.5-1.2,5c0.5,1.2,1.5,2,2.9,2.2c0.8,0.1,1.3,0.4,1.5,0.8
	c0.2,0.4,0,0.7-0.1,0.9c-0.3,0.5-1,1.4-1.7,2.3c-1.9,2.4-3.3,4.2-3.6,5.6c-0.2,0.7-3.2,2.9-9.8,4.3c-4,0.8-8.5,1.4-11.3,1.4
	c-1.7,0-2.2-0.2-2.2-0.2c-0.3-0.4-1-0.6-1.6-0.6c-0.8,0-1.6,0.4-2.1,1.1c-0.6,0.9-0.8,2.1-0.4,3.3c0.3,0.8,0.7,1.5,1,1.9
	c0.1,0.1,0.1,0.2,0.2,0.3c-0.1,0.1-0.2,0.2-0.4,0.3c-2.5,1.6-1.7,4.2-1.3,5.5c0.1,0.4,0.2,0.8,0.2,1c-0.1,0.4-1.7,2-4.6,2
	c-0.2,0-0.3,0-0.5,0c-1.5-0.1-3.3-0.9-4.8-1.6c-1.5-0.7-2.6-1.2-3.6-1.2c-1,0-1.6,0.6-1.8,0.9c-1.4,1.9-0.5,5.2,0.1,6.6
	c0.1,0.2,0.1,1,0.1,1.4c0,0.6,0,1.3,0.1,1.8c0.3,1.7,1.6,1.8,1.9,1.8c0.1,0,0.4,0.3,0.6,0.5c0,0,0,0,0,0c-1.6,0.5-1.8,1.6-1.9,2
	c-0.1,0.7,0.3,1.4,0.9,2c-3.4,0.4-3.4,4.8-3.4,7.1c0,1.9-0.3,2.4-0.9,2.8c-1.3,0.8-1.3,2.1-1.3,2.8c0,0,0,0,0,0.1
	c-5.9,0.6-8.7,3.6-10,6c-1,1.8-1.1,3.7-0.4,5.5c1.1,2.8,3.9,4.7,5.1,5.1c0.6,0.2,1.5,0.3,2.5,0.4c0.6,0.1,1.6,0.2,2.2,0.3
	c-0.1,0.4-0.2,0.9-0.4,1.3c-0.4,1.4-0.9,2.8-0.6,3.9c-0.5,0.5-1.7,1.3-2.6,1.9c-1.2,0.8-2.5,1.7-3.6,2.6c-2.7,2.3-4.4,3.7-4.5,7.3
	c-0.1,2-1.4,2.8-1.9,2.8c-0.2,0-0.4-0.1-0.6-0.1c-1.1,0-1.7,0.7-2.2,1.3c-0.3,0.4-0.7,0.8-1.3,1.2c-2.1,1.5-1.9,4.1-1.7,5.7
	c0,0.3,0,0.5,0,0.7c0,0.7,0.2,1.5,0.4,2.3c0.2,0.7,0.3,1.4,0.3,1.8c-0.1,1.1,0.7,2.1,1.8,3.4C272,522.7,272.1,522.8,272.2,522.9z
	 M300.2,454.1c0,0-0.1-0.1-0.1-0.2c-0.1-0.2-0.3-0.5-0.6-0.8c0.4-0.2,0.7-0.5,1-0.8c0.2-0.2,0.5-0.5,0.6-0.5c0,0,0.2,0,0.5,0.3
	c0.3,0.2,0.3,0.3,0.2,0.6C301.5,453.4,300.5,454.1,300.2,454.1z"/>
<path class="st0" d="M268.1,547.2c-1.2-0.5-1.5-1.4-1.8-2.8c-0.2-0.9-0.5-2.5-2.2-2.5H264l-0.3,0.1c-1.1,0.2-1.6,1-1.8,1.9
	c-0.3-1.1-1-2.2-2.5-2.5c-0.2,0-0.4-0.1-0.6-0.1c0.2-0.2,0.4-0.4,0.6-0.7c0.1-0.4,0.1-0.8-0.1-1.2c1.2,1.2,2.2,1.8,2.9,1.8h0.7
	l0.6-0.7c0,0,0-0.1,0.1-0.1c0.3,0.4,0.8,0.7,1.6,0.7c0.3,0,0.7-0.1,1.1-0.3c0.8-0.4,1.3-0.9,1.5-1.5c0.3-1-0.2-1.9-0.6-2.6
	c-0.1-0.2-0.4-0.6-0.4-0.7c0,0,0,0,0.1,0c0.2,0,0.8-0.2,1.1-0.3c1-0.3,2-0.6,2.3-1.7c0.1-0.5,0.1-1.1-0.6-1.9
	c-0.5-0.5-1.2-0.8-1.9-0.8c-0.7,0-1.3,0.2-1.9,0.4c-0.4,0.1-0.8,0.3-1.1,0.3c-0.1,0-0.2,0-0.3-0.2c-0.3-0.3-0.5-0.5-0.5-0.7
	c0.2-0.1,0.5-0.3,1-0.5c1.5-0.6,3-2.1,3.2-3.4c1,0.9,2.5,1,3.9,1l0.4,0c-0.5,10.7-0.5,15.3-0.1,17.2c-0.5-0.3-0.9-0.4-1.5-0.4
	c-0.5,0-1,0.2-1.4,0.5C268.5,545.9,268.2,546.5,268.1,547.2z M251.3,537c-0.7-0.5-1.5-0.7-2.3-0.7c-0.4,0-0.8,0.1-1.1,0.1
	c-0.2,0-0.4,0.1-0.6,0.1c-0.1,0-0.3,0-0.7-0.4c-0.5-0.5-0.8-1-1-1.3c0.5,0.1,1,0.3,1.5,0.5c1.2,0.4,2.3,0.8,3.3,0.8
	c0.8,0,1.3-0.3,1.6-0.6c0.3-0.3,0.6-0.8,0.5-1.5c-0.1-0.9,0.5-1.6,0.7-1.7c0.5,0.6,1.3,0.8,2.2,0.8c1.1,0,2.3-0.4,3.2-1.1
	c0,0.2,0.1,0.3,0.1,0.5c0.2,0.7,0.1,1.4-0.3,2c-0.3,0.4-0.9,0.7-1.4,0.7c-0.3,0-0.5-0.1-0.8-0.2c-0.6-0.3-1.3-0.5-1.8-0.5
	c-1.3,0-2.3,0.8-2.7,1.9c-0.1,0.3-0.1,0.5-0.1,0.8C251.4,537.1,251.3,537,251.3,537z M247.8,530c0-0.3,0.5-0.8,0.9-1
	c0.1,0.1,0.2,0.2,0.3,0.2c-0.5,0.3-0.9,0.7-1.2,1C247.8,530.2,247.8,530.1,247.8,530z M259.4,528.2c-0.4-0.8-0.9-1.1-1.4-1.3
	c0.1-0.3,0.1-0.7,0-1.2c-0.7-2.1-4.5-2.3-6.2-2.3c-0.2,0-0.3,0-0.5,0c0.1-0.1,0.1-0.2,0.2-0.2c0.4-0.6,0.6-1.3,0.3-2
	c-0.5-1.5-2.5-3-4.1-3c-1,0-1.7,0.5-2,1.4c-0.2-0.2-0.4-0.4-0.7-0.5c1-0.5,1.5-1.4,1.4-2.4c-0.2-1.2-1.3-2.1-2.6-2.1
	c-0.4,0-0.8,0.1-1.3,0.3c-0.6,0.3-0.8,0.3-0.9,0.3c-0.4-0.2-0.6-0.3-1-0.5c-0.3-0.1-0.6-0.2-0.8-0.2c-0.2,0-0.5,0-0.7,0.1
	c0-0.3,0.1-0.5,0-0.7c0.9-0.4,1.4-1,1.4-1.9c0.6-0.3,1.5-0.8,1.5-2.2c0-0.5,0.2-1.2,0.4-1.9c0.2-0.8,0.5-1.6,0.5-2.4
	c0-0.1,0.3-0.5,0.4-0.7c0.5-0.8,1.7-2.7-0.1-4.3c-0.7-0.6-1.3-0.7-1.7-0.7c-0.8,0-1.5,0.4-2.1,1.2c-0.7,0.9-1,2.2-0.8,3.3
	c-0.1-0.2-0.2-0.4-0.3-0.5l-0.4-0.4l-0.7,0c-0.4,0-0.7,0.1-1,0.3c1.5-1.2,2.9-2.4,3.6-4.1c0,0.1,0,0.1,0.1,0.1c0.1,0,0.2,0,0.3,0
	c0.8-0.2,2.8-0.5,2.6-3.1c-0.1-1.6-0.8-2.2-1.4-2.5c0.4-0.2,0.8-0.6,1.1-1.2c0.2,0,0.9,0.4,1.7,1.2c0.5,0.5,1,0.6,1.3,0.6
	c0.8,0,1.6-0.6,1.8-1.8c0.2-1.3-0.4-2.8-1.9-3.3c-0.3-0.1-0.7-0.2-1.1-0.2c-0.6,0-1.3,0.1-2,0.2c-0.5,0.1-1,0.2-1.4,0.2
	c0-0.9,0.4-1.6,0.5-1.7c0,0,0.1,0,0.1,0c1,0,1.8-0.9,1.9-2.1c0.1-1.4-0.6-3-2.3-3.4c-0.3-0.1-0.6-0.1-0.8-0.1
	c-0.7,0-1.2,0.2-1.6,0.3c-0.4-0.7-0.9-1.2-1.6-1.5c0.1,0,0.2-0.1,0.3-0.1c0.8-0.3,1.1-0.8,1.2-1.1c0.3-0.9-0.2-1.5-0.5-1.9
	c-0.1-0.1-0.1-0.2-0.2-0.2c0.2-0.2,0.6-0.3,1-0.4c0.4-0.1,0.9-0.3,1.3-0.5c0.1,0.3,0.3,0.6,0.6,0.8l0.4,0.3c0.9,0.8,2.2,2,3.5,2
	c0.8,0,1.5-0.4,1.9-1.2c0.7-1.3,0-2.6-0.4-3.3c0-0.1-0.1-0.1-0.1-0.2c0.3-0.1,0.6-0.1,0.9-0.2c0.7-0.1,1.7-0.2,2.1-1.1
	c0.3-0.6,0.3-1.2-0.1-1.9c-0.2-0.3-0.6-1.1-0.7-1.6c0.5-0.2,0.7-0.6,0.9-0.8c0.4-0.8,0.1-1.6-0.2-2.1c0.4-0.4,0.6-1.1,0.1-2.1
	c-0.2-0.3-0.3-0.6-0.3-1.3c0-0.6,0.2-0.8,0.5-1.2c0.4-0.6,1.1-1.5,0.4-3.1c-0.3-0.7,0.1-1.5,1-2.7l0.4-0.5c0.7-1.1,0.4-2.3,0.2-3.2
	c-0.1-0.3-0.2-1-0.2-1.1c1.6-1,1.8-2.1,1.7-2.8c-0.1-0.9-0.8-1.7-1.9-2.1c0,0,0,0,0,0c0-0.5,0.1-1.2-0.5-1.8
	c-0.2-0.3-0.7-0.5-1.4-0.5c-0.2,0-0.5,0-0.8,0.1c-1.6,0.4-1.9,1.5-2,2.1c0,0-0.1,0-0.1,0c-0.1-0.7-0.4-1.6-0.7-2.3
	c-0.4-1-0.2-1.9,0.3-3.2c0.3-0.9,0.6-1.9,0.6-2.9c0-1,0.2-1.3,0.6-2c0.3-0.6,0.7-1.3,1.1-2.4l0.2-0.6c0.7-2.3,1.1-3.6-0.6-6.3
	c-0.6-0.9-0.5-1.8-0.3-2.9c0.2-1.2,0.3-2.6-0.4-4.1c-0.7-1.5-0.6-2.2-0.5-2.3c0,0,0.1,0,0.1,0c2,0,2.6-1.7,3.1-3.4
	c0.2-0.6,0.4-1.2,0.7-1.9c0.3-0.7,0.7-1.7,1.2-2.7c1.4-3,3-6.8,3.3-9.8c0.2-1.6,0.6-2.5,1.1-3.4c0.6-1.1,1.2-2.2,0.9-4
	c-0.1-1,0.1-1.2,0.4-1.6c0.3-0.4,0.9-1,0.9-2.1c0-0.3,0-0.9,0.1-1.6c0.2-2.7,0.5-7.8-0.1-11.1c-0.3-1.4,0.2-2.1,0.9-3
	c0.5-0.8,1.2-1.6,1.2-2.8c0.1-1.3-0.7-2.7-1.5-4c-0.3-0.6-0.9-1.5-1-2c1.1-0.9,3.1-2.8,2.8-5.9c-0.1-1,0.2-1.8,0.6-2.7
	c0.4-0.9,0.8-1.8,0.9-3c0-0.7,0.4-2.3,0.9-3.9c0.7-2.9,1.7-6.5,1.7-9.1c0-1,0-1.8,0-2.6c0-1.7-0.1-3.6,0.3-4c0.5-0.5,1.2-1.6-0.2-3
	c-0.4-0.4-0.4-0.4-0.3-0.8c0.8-2.1,1.5-5.1,2.3-8.7c0.8-3.6,0.5-13.1-0.4-15.4c-0.3-0.6-0.1-1.9-0.1-3c0-0.3,0.1-0.7,0.1-1
	c0.3-0.3,0.5-0.3,0.5-0.4c1.3-0.7,2-2,2.3-3.2c0.3,0.3,0.7,0.7,1.1,1c0.4,0.3,0.4,0.5,0.3,1.7c-0.1,1.1-0.3,2.7,0.9,4.1
	c0.7,0.9,1.5,1.4,2,1.9c-0.6,0.8-0.5,1.8-0.5,2.5c0,0.6,0,0.9-0.1,1c-0.8,0.6-1.1,1.5-1,2.5c0.2,1.7,1.7,3.8,3.3,4.5
	c0.1,0.1,0.2,0.8,0.2,1.3c0.1,1.2,0.3,2.6,1.4,3.7c0.6,0.6,0.7,2.2,0.7,3.3c0,1,0.1,1.8,0.4,2.5c0.3,0.7,0.9,1.1,1.8,1.1
	c0.2,0,0.6,0,1.5-0.3c-0.2,1.8-0.6,3.3-0.8,3.6c-0.2,0.3-1.6,1.1-2.4,1.7c-2.6,1.6-4.1,2.6-4.2,4c-0.1,0.7,0,1.3,0.1,1.9
	c0.1,0.4,0.1,1.2,0,1.3c-1.2,1-0.5,2.6,0,4c0.2,0.6,0.7,1.8,0.6,2.1c-0.7,0.3-1,0.9-1.1,1.3c-0.3,1,0.3,1.9,0.7,2.5
	c0,0.1,0.1,0.1,0.1,0.2c-0.3,0.2-0.6,0.4-0.9,0.5c-1.2,0.6-2.6,1.4-2.6,3c0,2-0.5,3.4-0.9,3.6c-2.1,0.9-3.4,4-3.4,6.3
	c0,0-0.1,0-0.1,0.1c-0.5,0.2-2.2,1-1.3,3.5c0.4,1,1.2,3.5,0.9,4.1c-1.9,0.5-2.3,2.5-2.6,3.8c0,0.2-0.1,0.5-0.2,0.7
	c-0.4,0.2-0.8,0.5-1.1,1.1c-0.8,1.5-0.9,5,0.7,7.1c1.3,1.8,1.6,3.2,1.6,4.8c0,1.2,0.5,2.1,1,2.8c0.5,0.9,0.7,1.2,0.5,1.7
	c-0.3,0.9-0.4,1.7-0.5,2.4c-0.1,0.8-0.2,1.5-0.5,1.7c-1.1,0.8-1.2,2-1.3,2.9c0,0.3-0.1,0.9-0.2,1.1c-1.8,0.8-1.3,3.1-0.9,5.2
	c0.2,0.7,0.4,1.8,0.4,2.3c-0.2,0.1-0.4,0.3-0.7,0.4c-1.5,0.9-3.9,2.4-3.9,6.1c0,1.7,0.1,3,0.2,4.1c0.1,1.4,0.2,2.3,0,3.1
	c-0.4,1.4,0.6,2.2,1,2.6c0.4,0.3,0.4,0.3,0.3,0.8c-0.1,0.2-0.6,0.3-0.8,0.3c-0.7,0.1-2.3,0.3-2.5,1.9c-0.1,0.6,0,1.4,0.1,2.1
	c0,0.3,0.1,0.8,0.1,1.2c-2.1,0.8-2.1,3.6-2.1,4.8c0,1-0.3,1.4-0.7,1.9c-0.3,0.4-0.7,1-0.8,1.8c-0.1,1,0.3,1.9,0.7,2.7
	c0.2,0.5,0.5,1,0.5,1.4c0,0.4,0.1,1,0.1,1.6c0.1,0.8,0.3,2.6,0.1,3.3c-0.8,0.4-1.3,1.3-1.7,2.8c-0.1,0.4-0.9,4.3,0.8,5.4
	c0.4,0.3,0.3,0.9,0.1,1.3c-0.6,1.2,0.3,2.2,0.7,2.8c0.1,0.2,0.4,0.4,0.4,0.6c-1.1,0.9-1.4,2.3-0.9,3.4c0.3,0.8,1,1.4,1.9,1.7
	c-0.8,0.2-1.3,0.5-1.6,1.2c-0.3,0.8,0.1,1.6,1,2.3c0.8,0.6,1.2,1.1,1.4,1.4c0,0-0.1,0-0.2,0.1c-2.4,0.9-2,2.9-1.8,3.9
	c0.1,0.5,0.2,1,0.1,1.5c-0.3,1.3,0,2.4,0.3,3.2c0,0.1,0.1,0.3,0.1,0.4c-1.5,0.7-1.3,2.4-1.2,3.1c0,0.2,0.1,0.7,0,0.8
	c-2.3,0.2-2.6,2-2.7,2.9c-0.1,0.6-0.1,0.9-0.3,1c-1.7,1.3-0.6,3.1-0.2,3.9c0.1,0.2,0.2,0.4,0.3,0.6c-1.3,0.9-1.5,2.3-1.7,3.2
	c0,0.1,0,0.3-0.1,0.4c-2.7,0.2-4,3.4-4.2,4.9c0,0.2-0.1,0.5-0.2,0.8c-0.4,1.4-1,3.7,0.7,5.6c0.4,0.4,0.3,0.7,0.2,1.2
	c-0.1,0.6-0.4,2.1,1.2,2.8c0.8,0.4,1.8,0.4,2.9,0.4c0.5,0,1.1,0,1.6,0.1c-0.5,2.1-0.6,5.8,0.4,7.1c0.2,0.3,0.6,0.6,1,0.7
	c0.1,0.1,0.2,0.3,0.3,0.4c0.5,0.8,1.3,2,2.7,2l0.3,0c0.4,0,3.7-0.5,6.6-0.5c1.7,0,2.5,0.1,2.9,0.3c0.5,0.1,1,0.4,1.5,0.7
	c0,0.1-0.1,0.2-0.1,0.3c-0.1,0.3-0.1,0.7-0.1,0.9c-0.3-0.2-0.7-0.3-1.1-0.3c-0.4,0-0.9,0.1-1.4,0.3
	C263.2,525.8,260.8,526.6,259.4,528.2C259.5,528.2,259.5,528.2,259.4,528.2z M245,526.4c-0.4-0.6-0.4-1-0.3-1.2
	c0.1-0.2,0.2-0.2,0.3-0.2c0.5,0.1,1,0.1,1.4,0.1c0.1,0,0.1,0,0.2,0C246.1,525.7,245.3,526.3,245,526.4z M236.6,496.4
	c-0.2-0.5-0.6-1.1-1.2-1.7c0.5-0.5,1.7-1.2,2.1-1.2c0.4,0.2,1,0.5,1.6,0.6c-0.6,0.4-1,0.9-1.3,1.4
	C237.7,495.8,237.1,496.2,236.6,496.4z M242.3,457.4c0-0.6,0.1-1.6,0.2-2.4c0.5-4.1,1-4.9,1.2-5c0,0,0.1,0,0.1,0c0.1,0,0.3,0,0.4,0
	c-0.1,0.8-0.1,1.7-0.1,2.6c0,1.4,0,4.3-0.5,4.8C243,457.3,242.6,457.4,242.3,457.4z"/>
<path class="st0" d="M343.9,354.1c-0.1,0-0.2,0-0.2-0.1c-0.7-0.4-1.4-0.6-2.4-0.6c-0.5,0-1,0.1-1.5,0.1c-0.4,0-0.7,0.1-1,0.1
	c-0.3,0-0.5-0.1-0.6-0.1c-0.9-0.6-2.3-0.7-3.6-0.7c0,0-0.1,0-0.1,0c0.5-0.7,0.9-1.6,0.9-3.1c0-1.2,1.5-2.9,2.5-4.1
	c1.3-1.5,2.5-2.9,1.7-4.2c-0.5-0.9-1.9-1.5-5.5-3c-1.8-0.7-4.7-1.9-5.2-2.5c-1.2-1.5-3.1-3.3-7.3-3.8c-1.6-0.2-2.1-0.6-3-1.5
	c-0.6-0.6-1.4-1.4-2.7-2.2c-1.8-1.1-4.4-3.6-6-5.7c2.2-1.2,2.5-9.7,2.4-10.1c0.1-0.5,1.9-2.8,3.8-4.1c0.8-0.5,2.1-0.5,3.3-0.6
	c1.2,0,2.5,0,3.5-0.5c1-0.5,2.5-0.5,3.9-0.5l2,0c0.9,0,1.8,0.6,2.7,1.2c0.9,0.6,1.7,1.2,2.7,1.2c0.2,0,0.3,0,0.5,0
	c0,0.1,0.1,0.1,0.1,0.2c-1.8,1.2-0.9,3-0.5,3.9c0.5,1.1,1.2,2.4,0.8,4c-0.5,2.4-0.9,3.8,0,4.9c0.8,1,2.1,1.2,4.2,1.3
	c1.7,0.1,2.5,0.4,3,0.5c0.4,0.1,0.7,0.3,1.2,0.3c0.5,0,1-0.2,1.3-0.4c0.5,0.4,1.7,2.4,2.1,3.9c2,7.3,3.5,7.3,4,7.3
	c0.6,0,1-0.3,1.6-0.6c0.6-0.3,1.3-0.7,2-0.7c0.2,0,0.4,0.1,0.6,0.1c0.3,0.5-0.3,3.5-0.7,5c-0.4,1.9-0.7,3.6-0.6,4.7
	c0.3,1.9-0.9,6.1-1.7,6.8c-1.4,0.1-2.4,0.9-3.1,1.5c-0.3,0.3-0.8,0.7-1,0.7c-0.1,0-0.3-0.1-0.5-0.1c-0.8,0-1.6,0.4-2.3,0.8
	C344.8,353.8,344.2,354.1,343.9,354.1z"/>
<path class="st0" d="M191,143.3c-0.9,0-1.5-0.1-1.7-0.4c-0.2-0.2-0.3-0.5-0.2-1.1c0.1-1-0.3-2-1.2-2.9c-1-1.1-2.7-2-4-2
	c-0.1-0.1-0.1-0.2-0.2-0.3c-0.4-0.6-1-1.8-2.5-1.8c-1.1,0-1.7,0.7-2,1c-0.1,0-0.4-0.1-0.8-0.3c-1-0.4-1.3-1.1-1.4-1.5
	c-0.1-0.6,0.1-0.9,0.1-1c0.7-0.4,1.1-1.2,1.2-2.1l0,0c0.8,0,1,0.1,1,0.1c0.8,0.4,1.9,0.4,3,0.5c0.8,0,2,0.1,2.4,0.3
	c0.6,0.5,1.4,0.7,2.4,0.7c0.2,0,0.4,0,0.6,0c1.2,1.6,2.9,3.9,4.6,5.8c-0.6,1.4-0.8,2.9-0.5,3.8c0,0.1-0.2,0.7-0.4,1.2
	c0,0.1,0,0.1-0.1,0.2C191.2,143.3,191.1,143.3,191,143.3z"/>
<path class="st0" d="M205.3,150.3c-0.1,0-0.1,0-0.2-0.2c-0.9-1.5-1.9-1.8-2.6-1.9c-0.6-0.1-1-0.2-1.7-1c-1.5-1.8-4.2-3-6.6-3.5
	c0.3-0.9,0.5-1.7,0.3-2.5c0-0.1,0-0.5,0-0.9c0.7,0.7,1.3,1.1,1.8,1.4c1.5,0.8,3.7,1.9,6,1.9c1.8,0,3.3-0.6,4.6-1.8
	c2.1-1.9,4.1-3,5.6-3c0.4,0,0.7,0.1,1.1,0.2c0.8,0.4,1.7,0.6,2.6,0.8c1.9,0.4,3.7,0.9,4.8,2.5l0.4,0.7c1,1.5,1.8,2.8,2.7,3.6
	c-0.1,0.2-0.1,0.2-0.1,0.2c-0.5,0.4-1.5,1.4-3,2.8c-2.1-2.1-2.3-2.9-2.3-3.1c1.1-1.2,1.1-2.3,1-3c-0.3-1.2-1.3-2.2-3.1-3
	c-0.6-0.3-1.3-0.4-2.1-0.4c-2.5,0-5.4,1.2-6,3.3c-0.1,0.3-0.3,0.4-1.1,0.7c-0.7,0.3-2.3,0.9-2,2.7c0.2,1,0.9,1.7,1.4,2.2
	c0.1,0.1,0.2,0.2,0.3,0.3C206.6,149.7,205.8,150.3,205.3,150.3z"/>
<path class="st0" d="M266.5,215.5c-0.4-0.3-0.8-0.6-1.2-0.8c-0.3-0.2-0.7-0.4-0.9-0.6c0.2-0.5,1-1.3,1.4-1.7
	c0.6-0.6,1.1-1.3,1.4-1.8c0.3-0.5,0.4-1.2,0.2-1.8c-0.4-1.2-1.9-2.3-5-3.5c-0.3-0.1-0.6-0.2-1-0.2c-0.5,0-1.1,0.1-1.6,0.3
	c-0.4,0.1-0.7,0.2-1,0.2c-0.5-0.3-1.2-0.5-1.9-0.5c-1.1,0-2.2,0.4-3,1c-0.1,0-1.1,0.2-2.4,0.2c-1,0-1.6-0.1-1.9-0.2
	c0-1.4-1.1-2.3-1.7-2.9c-0.1-0.1-0.3-0.3-0.5-0.4c0.1-0.9-0.3-1.8-1-2.7c-1-1.3-2.4-2.1-3.8-2.2c-0.3,0-0.5-0.5-0.9-1.6
	c-0.4-1.1-0.8-2.3-1.9-3c-0.5-0.3-1.3-0.5-2.2-0.5c-0.8,0-1.7,0.1-2.9,0.3c-2.2-2.4-3.3-3.5-4.5-3.5c-0.6,0-1,0.2-1.4,0.7
	c0,0,0,0,0,0c-0.1,0-0.4,0.1-0.9,0.1l0,0c-0.6,0-1.2-0.2-1.7-0.4c-0.5-0.3-1-0.8-1.4-1.2c-0.7-0.8-1.6-1.6-2.8-1.6
	c-0.6-0.1-3.4-1.5-5.6-3.1c0.1-0.2,0.1-0.4,0.2-0.5c0.9-0.3,1.2-1.3,1.4-1.9c0.4-1.1,0.6-1.6,1.1-1.6c3-0.2,4.5-1.9,5.8-4.5
	c0.3-0.5,0.5-1,0.7-1.4c0.9-1.6,1.8-3.3,0.3-5c-0.7-0.8-1.4-5.7-1-7c0.7-0.6,1.6-1.9,0.2-4.7c0-0.1,0-0.4,0-0.6
	c0.1-0.9,0.2-2.5-1.4-4.2c-0.2-0.3-0.5-0.6-0.9-0.9c1-1,2.2-2.2,2.7-2.6c0.4-0.3,0.8-0.8,1-1.5c0.4-0.1,0.8-0.3,1.3-0.8
	c0.4-0.5,0.8-1,1.2-1.7c1.1-1.5,2.4-3.5,4.1-4.6c3.1-2,2.9-4.3,2.7-6l-0.1-0.7c0-0.2,0.2-0.8,1.1-1.7c1.1-1.2,2.3-1.8,2.6-1.8
	c0.3,0.1,0.6,0.3,1,0.5c0.5,0.3,0.9,0.6,1.5,0.6c0.3,0,1.4-0.1,1.7-1.7c0.3-0.1,0.9-0.1,1.4-0.2c1-0.1,2.1-0.2,3.1-0.7
	c0.8-0.4,1.4-0.9,1.9-1.4c0.8-0.7,1.3-1.2,2.6-1.4c1.6-0.2,2.7-1.3,3.6-2.2c0.6-0.5,1.2-1.2,1.6-1.2c0.1,0,0.2,0,0.3,0.1
	c0.4,0.3,0.6,0.5,0.6,0.5c0,0,0,0,0,0c-0.1,0-0.6,0.3-1.6,0.5c-0.9,0.2-1.6,0.6-2.1,1.3c-0.8,0.3-1.4,0.8-1.9,1.4
	c-0.5,0.7-1.3,1.4-2,2.1c-1.6,1.5-3.2,3.1-3.3,5.1l0,0.5c0,1.8-0.1,2.3-0.6,2.9c-1.2,1.5-2.1,2.7-1.5,3.9c0.3,0.6,0.9,0.9,1.6,0.9
	c0.5,0,0.7-0.1,1-0.1c0.5,0,0.6,0.1,0.6,0.1c-0.1,1.1,0.8,1.8,1.5,2.4c0.8,0.6,0.9,0.8,0.9,1.1l0,0.4c-0.2,1.8-0.6,5.1,1.2,7.1
	c0.9,1,2.2,1.5,3.8,1.5c1.8,0,3.1-0.2,4.3-0.4c0.9-0.1,1.7-0.2,2.4-0.2c1,0,1.6,0.2,2.1,1c2.1,2.7,4.8,4.1,7.9,4.1
	c0.4,0,0.9,0,1.3-0.1c1.2-0.1,2.7-0.3,4-0.3c0.6,0,1,0.1,1.3,0.1c-1.7,2.8-3.3,9.6-1.2,12c0.3,0.3,0.6,0.6,0.9,1
	c0.5,0.5,1.3,1.3,1.3,1.6c-1.1,1.2-1.6,2.5-1.5,3.7c0.1,1,0.6,1.8,1.4,2.5c0.5,0.4,0.6,0.7,0.6,1c-1.1,0.5-3.9,1.6-5.1,1.6
	c-0.4,0-0.9,0-1.5,0c-0.9,0-1.9-0.1-2.9-0.1c-3.2,0-5,0.3-5.5,1.7c-0.4,1.1,0,2.4,0.5,3.2c0.5,0.9,1.2,1.4,2,1.6
	c0.1,0,0.3,0.1,0.4,0.1c-0.4,0.2-0.7,0.2-1.2,0.3c-1.8,0.2-3,0.9-3,3.7c0,2.1,1.2,3.8,2.2,5.2c1.1,1.5,1.8,2.5,1.5,3.6
	c-0.5,1.7-1.2,6.2-1.2,8.1C267.6,211.2,267.1,214.2,266.5,215.5z"/>
<path class="st0" d="M280.1,324.9c-0.1-1.7-0.2-3.8-1.5-5.1c-0.4-0.4-0.5-1.3-0.6-2.1c-0.2-1.2-0.3-2.8-1.8-3.4
	c-0.8-0.4-1.8-2-1.7-2.5c1.2-0.8,1.1-2.2,1.1-3.1c0-0.3,0-0.8,0.1-0.9c0.6-0.5,0.9-1.1,0.8-1.7c0-0.9-0.7-1.5-1.4-2
	c-0.5-0.4-1.1-0.8-1.6-1.5c-0.4-0.5-0.4-1.1-0.3-2.1c0.1-1.2,0.3-2.9-1.3-4.2c-0.8-0.6-1.2-1.3-1.5-1.8c-0.1-0.2-0.2-0.4-0.4-0.5
	c0-0.5,0-0.6,0-0.6c1.4-0.7,3.5-3.8,3.5-5.6c0-1.3-1-1.9-1.6-2.3c-0.2-0.1-0.5-0.3-0.6-0.4c0-0.3,0.4-1.1,0.7-1.6
	c0.6-1.2,1.4-2.8,0.5-4c0.1-0.3,0.4-0.8,0.6-1.1c0.5-1,1.1-2,1-3l-0.1-0.9c-0.5-3.4-0.7-5.4-0.6-6.2c0.1,0,0.1-0.1,0.2-0.1
	c0.7-0.5,2.3-1.8,1.5-4.2c-0.3-0.8-0.9-2-1.7-3.5c-0.4-0.7-0.7-1.4-1.1-2.1c0.3,0.1,0.7,0.1,1,0.1c1.6,0,3.2-0.7,4.3-1.8
	c0.5-0.5,1-0.7,1.9-1c0.7-0.3,1.6-0.6,2.7-1.3c0.5-0.3,1-0.6,1.5-0.9c1.7-1,3.2-2,4.6-2c0.8,0,1.7-0.1,2.6-0.3
	c0.5-0.1,0.9-0.2,1.3-0.2c-0.4,2.7-0.3,8.3,2.3,11.4c2.6,3,4.3,4.6,7,4.6c0.3,0,0.6,0,1-0.1c0.2,0,0.4,0,0.6,0c0.5,0,0.6,0.1,1,0.3
	c0.4,0.3,1,0.6,2,0.6c0.1,0,0.2,0,0.3,0c0.1,0.5,0.6,2,2.4,2c2.2,0,3.4,0.6,3.4,0.8c0,1,0.6,1.8,1.6,2.1c0.5,0.2,1.1,0.2,2.1,0.2
	l1.9,0c0.9,0,1.2,0.1,1.2,0.1l0.3,0.3c1.1,0.9,1.5,1.3,1.3,2.3c-0.2,1.4,0.5,2.6,1,3.4c0,0.1,0.1,0.2,0.1,0.2
	c-1.6,1.2-0.7,3.1-0.3,3.9c0.3,0.6,0.6,1.2,0.7,1.8c0.1,1.5,1.1,4.1,6.7,4.1c0.3,0,0.6,0,1,0c0.5,0,0.9,0,1.3,0c2,0,2,0.1,2,1.5
	c0,2.1,1.1,3.2,2,4.1c0.6,0.6,1.1,1.1,1.4,1.9c0.4,1.1,0,2.4-0.3,3.7c-0.3,1.2-0.6,2.4-0.4,3.5c0.1,0.6-0.1,1.4-0.6,2
	c-0.3,0.4-0.7,0.6-0.8,0.6c-0.2,0-0.8-0.4-1.2-0.7c-1-0.7-2.4-1.7-4.2-1.7l-2,0c-2.1,0-3.8,0.1-5.1,0.8c-0.5,0.2-1.4,0.2-2.3,0.3
	c-1.5,0-3.3,0-4.8,1c-1.8,1.2-5.3,4.5-5,6.7c0.1,1-0.5,5.8-1.1,7.3c-0.6,0-1.2-0.1-1.9-0.2c-1.1-0.1-2.3-0.3-3.3-0.3
	c-1,0-2.1,0.1-2.7,0.9c-0.3,0.4-0.7,1.1-1,1.8c-0.1,0.3-0.4,0.7-0.6,1.1c-1.5-2.1-4.1-2.4-6.2-2.6l-1-0.1c-0.6-0.1-0.9-0.3-1.3-0.6
	c-0.5-0.3-1-0.7-1.8-0.7c-1,0-1.9,0.5-3.1,1.8c-1.9,2-4.4,3.7-5.6,4.2C280.1,325.4,280.1,325.1,280.1,324.9z"/>
<path class="st0" d="M265.3,298.2l-0.5-0.3c-1.2-0.6-4.8-2.6-5.9-4.4c-0.5-0.8-1.7-3-17-10.6c-3.5-1.8-5.4-3.4-6.8-4.6
	c-0.7-0.6-1.3-1.1-2-1.6c-1.5-1-1.9-2.9-1.7-3.4c1-1.6-0.2-4.6-3.5-8.8c-2.7-3.4-6.8-11.9-8.6-16.5c-0.6-1.5-1-2.7-1.4-3.7
	c-0.9-2.4-1.4-3.8-2.9-5.4c-0.7-0.8-1.5-2.1-2.3-3.3c-1.1-1.8-2.2-3.7-3.6-4.7c-0.6-0.5-1.5-1-2.4-1.5c-0.7-0.5-1.9-1.2-2.7-1.8
	c0.3-0.1,0.6-0.3,0.9-0.6c0.3-0.5,0.4-1.1,0.3-1.8c-0.1-0.6-0.5-1.2-0.9-2.1c-0.6-1.3-1.8-3.9-1.4-4.8c0.8-1.7,2.1-3.3,3.1-3.9
	c0.3,0.4,0.3,0.6,0.3,0.7c-0.1,0.1-0.3,0.3-0.4,0.4c-1.2,1.4-1.1,2.5,0.6,4.1c0.7,0.6,1.4,0.9,2.3,0.9c0.4,0,0.8-0.1,1.1-0.1
	c0.2,0,0.4-0.1,0.5-0.1c0,0,0.1,0,0.3,0.3c1,1.3,1.9,2.5,3.3,2.5c1.9,0,2.8-2.2,3.1-3c0.3-0.8,0.7-1.7,1-2.6
	c0.9-2.4,1.9-5.3,3.3-5.7l1-0.3c2.9-0.8,7.8-2.2,10.8-6.2c1.9-2.6,2.2-3.9,2.4-4.7c0.1-0.5,0.1-0.5,0.5-0.8c0.7-0.6,1.1-1.2,1.1-1.9
	c0.1-0.8-0.2-1.5-0.8-2.2c0.3,0,0.6,0,0.8,0c0.6,0,0.8,0.1,0.8,0.1c0.3,0.2,0.5,0.9,0.7,1.5c0.4,1.3,1.1,3.2,3.2,3.4
	c1.4,0.1,2.4,1.6,2.4,2c-0.2,1.3,0.7,2.1,1.4,2.7c0.6,0.5,0.8,0.7,0.8,1c-0.1,0.6,0.1,1.2,0.5,1.6c0.3,0.3,1.1,1.2,4.1,1.2
	c0.5,0,3.1,0,4-0.8c0.3-0.2,0.8-0.4,1.4-0.4c0.2,0,0.4,0,0.5,0.1c0.4,0.2,0.9,0.4,1.4,0.4c0.6,0,1.1-0.1,1.6-0.3
	c0.3-0.1,0.7-0.2,0.9-0.2c2.1,0.9,3,1.4,3.3,1.7c-0.2,0.3-0.6,0.7-0.9,1.1c-1.3,1.4-2.7,3-1.9,4.6c0.1,0.2,0.2,0.4,0.4,0.6
	c-0.4,0.2-0.9,0.4-1.3,0.8c-0.7,0.6-1.5,0.7-2.6,0.9c-1.2,0.2-2.8,0.4-4.3,1.6c-0.8,0.6-1.6,0.9-2.4,1.2c-1.3,0.4-3,1-3.1,3.2
	c-0.1,0.7-0.4,1.2-0.8,1.9c-0.6,1-1.4,2.2-1,3.9c0,0.2,0.1,0.3,0.1,0.3c0,0,0,0,0,0c-0.1,0-0.2,0.1-0.3,0.1
	c-0.5,0.3-1.2,0.6-1.9,1.3c-1.3,1.3-1.1,2.6-1,3.3c0,0.1,0.1,0.4,0.1,0.4c-1.6,1.9-0.1,4.2,1.1,6l0.3,0.5c0.3,0.4,0.6,0.9,0.9,1.3
	c0.9,1.2,1.4,2,1.3,2.8c-0.1,1.3,0.3,2.1,0.8,2.6c0.7,0.7,1.7,1.1,2.9,1.1c0.1,0,0.1,0,0.2,0c0,0.1,0,0.1,0.1,0.2
	c0.2,0.9,0.7,3,3.3,3c0.6,0,1.3,0,1.9,0.1c0.6,0,1.2,0.1,1.7,0.1c0.8,0,2.8,0,3.6-1.6c-0.1,3.4-0.1,5.8,1,7c0.4,0.4,0.9,0.6,1.4,0.6
	c0.2,0,0.5,0,0.7-0.1c0.6-0.2,1.6-0.3,2.7-0.3c0.5,0,0.9,0,1.4,0.1c0.6,1.3,1.3,2.7,2,4c0.7,1.3,1.3,2.6,1.6,3.2
	c0.2,0.5,0.2,0.5-0.5,1.1c-0.2,0.2-0.5,0.4-0.7,0.5c-0.8,0.8-0.9,2.1,0,8.3l0.1,0.9c0,0.2-0.4,1-0.7,1.4c-0.6,1.1-1.5,2.7-0.5,3.9
	c-0.1,0.3-0.4,0.9-0.6,1.2c-0.5,0.9-1,1.9-1,2.9c0,1.6,1.2,2.3,1.8,2.7c0.1,0.1,0.2,0.1,0.3,0.2c-0.2,0.8-1.5,2.7-2.3,3.2
	c-1.2,0.7-1.3,2.2-1.2,3.1c-0.2,0.4-0.3,0.9-0.5,1.4c-0.2,0.9-0.6,2.2-1.2,2.5c0,0,0,0-0.1,0C265.5,298.3,265.4,298.2,265.3,298.2z"
	/>
<path class="st0" d="M288.8,187.7c-0.2-0.1-0.7-0.5-1.1-0.8l-0.6-0.5c-0.4-0.3-0.9-1-1.4-1.8c-0.5-0.8-1.1-1.7-1.8-2.7
	c0.1-0.1,0.1-0.3,0.1-0.4c0.5-2.2-0.7-3.6-1.5-4.2c-0.4-0.3-0.4-0.5-0.4-0.6c0-0.4,0.3-1.1,0.8-1.7c1.8-2-0.1-4-1.4-5.3
	c-0.3-0.3-0.6-0.6-0.8-0.9c-0.8-0.9-0.2-6,1.5-8.8c0.8-1.3,0.6-2.2,0.3-2.7c-0.7-1.3-2.4-1.5-3.9-1.5c-1.5,0-3.1,0.2-4.4,0.4
	c-0.3,0-0.7,0.1-1,0.1c-2.2,0-4.2-1-5.8-3c-1.4-1.8-3.1-2-4.3-2c-0.9,0-1.8,0.1-2.8,0.3c-1.1,0.2-2.4,0.3-3.8,0.4c0,0,0,0,0,0
	c-1.3,0-1.7-0.5-1.9-0.6c-1-1.1-0.7-3.6-0.5-5l0.1-0.4c0.2-2-1.1-3-1.9-3.6c-0.2-0.2-0.5-0.4-0.6-0.5c0-0.4-0.1-2.1-2.4-2.4
	c0.1-0.1,0.2-0.3,0.3-0.4c1.1-1.4,1.1-2.5,1.1-4.5l0-0.5c0-0.9,1.3-2.1,2.4-3.2c0.6-0.6,1.2-1.1,1.7-1.7c0.2,0.7,0.5,1.4,0.7,1.8
	c-0.1,0.4-0.6,1.1-0.9,1.7c-1.1,1.7-2.5,3.9-1.5,5.9c1,2.1,3.5,3.8,5.6,3.8c1.3,0,2.4-0.6,2.9-1.8c0.9-1.8,0-3.9-0.9-5.8
	c-0.5-1.1-1-2.3-0.9-2.9c0.2-1,4-2.3,5.2-2.8c0.7-0.3,1.3-0.5,1.7-0.7c1.7-0.8,1.4-2.5,1.3-3.3c0-0.1,0-0.1,0-0.2
	c0.2,0.1,0.3,0.3,0.6,0.8c0.5,0.9,1.4,2.3,3.6,2.3c0.1,0,0.7,0,0.8,0c0.8,0,1.5,0.2,1.9,0.7c0.5,0.5,0.7,1.4,0.7,2.3
	c0,0.9,0.2,1.6,0.8,2.2c0.8,0.8,2.1,1.3,3.8,1.3c1.5,0,3.2-0.3,4.7-0.9c0.1-0.1,0.3-0.1,0.5-0.1c1,0,2.5,0.8,3.8,1.7
	c1.6,0.9,3.3,1.9,4.9,1.9c0.6,0,1.2-0.1,1.7-0.4c2.7-1.5,7.3-3.3,10.5-3.8c0.4-0.1,0.7-0.1,1.1-0.1c0.2,0,0.4,0,0.7,0
	c-0.4,0.5-0.7,1.1-0.7,1.6c-0.1,1.2,0.7,2.5,2.6,2.9c0.5,0.1,1.1,0.2,1.9,0.3c1.4,0.2,5.1,0.8,5.5,1.5c-0.1,0.6-0.7,1.5-1.2,2.2
	c-0.7,1-1.3,1.9-0.8,2.9c0.2,0.3,0.6,0.9,1.7,0.9c0.7,0,1.3-0.1,2-0.1c1.6,0,3.1,0.1,4.3,0.4c-0.3,0.5-0.6,0.7-0.7,0.7
	c-1.2,0.7-3.2,2.5-3.2,4.3c0,0.8,0.4,1.5,1.2,2c0.3,0.1,0.4,0.3,0.4,0.4c0,0,0,0,0,0c-0.1,0-0.3,0.1-0.7,0.1c-1,0.1-2.5,0.3-3.3,1.4
	c-0.7,0.9-0.7,2-0.6,2.8c0,0.1-0.2,0.4-0.3,0.5c-1,1.3-0.9,2.5,0.2,3.4c0.2,0.1,0.9,0.8,3,3.7c-0.1,0.3-0.3,0.6-0.4,0.6
	c-0.6,0.2-1.4,0.6-2.3,1.1c-1.2,0.6-3.1,1.6-4,1.6c-0.4-0.1-0.8-0.1-1.2-0.1c-2.1,0-3.7,1-4.2,2.5c-0.7-1.2-2.3-1.3-3.5-1.5
	c-0.5,0-1.3-0.1-1.5-0.3c-0.8-0.8-2.3-0.9-3.1-0.9c-1.1,0-3,0.2-3.4,1.6c-0.1,0.4-0.2,1.4,1.1,2.1c1.5,0.9,1.6,1.5,1.6,3.1
	c0,1.5,0.7,2.2,1.1,2.6c0.3,0.3,0.4,0.4,0.4,1c0,0.7,0.1,1.3,0.5,1.7c0.2,0.3,0.6,0.6,0.9,0.7c-1.5,0.9-2,2.2-2.4,3.3
	c0,0.1-0.3,0.1-0.5,0.1c-0.7,0.1-1.8,0.2-2.8,1.1l-0.4,0.3c-0.6,0.6-1.7,1.5-2.1,1.6c-0.4-0.3-1-0.5-1.6-0.5c-1,0-1.8,0.5-2.7,1
	L288.8,187.7z"/>
<path class="st0" d="M346,181.3c-0.3,0-0.7-0.1-1.2-0.2c-1.6-2.8-2.6-4.8-3-5.7c-0.5-1.4-1.9-2.6-3.2-3.8c-0.4-0.4-1.1-0.9-1.4-1.3
	c0.4-0.7,0.6-1.5,0.7-2.3c0.1-0.6,0.3-1.5,0.5-1.7c0.7,0,2.7-0.4,3.6-1.9c0.4-0.8,0.4-1.7,0-2.6c-0.1-0.3,0.2-1.2,0.5-1.9
	c0.1-0.1,0.3-0.2,0.4-0.3c0.5-0.4,1.1-0.7,1.5-0.7c0.1,0,0.5,0,0.8,0.6c0.6,0.9,1.6,1.4,3,1.4c1,0,2.1-0.2,3.3-0.5
	c0.8-0.2,1.6-0.3,2.4-0.4c0.2,0,0.3,0,0.5,0c1,0,2.1,0.3,3.4,0.8c-0.3,1-0.5,1.2-0.5,1.2c-1.5,1.2-2.5,5.2-1.3,8.1
	c0.9,2.2,0.9,5.8,0.6,6.5c0,0.1-0.2,0.3-0.6,1c-0.5-0.3-1.2-0.5-2-0.5c-0.7,0-1.4,0.1-2.2,0.2c-0.7,0.1-1.4,0.2-2.1,0.2l-0.6,0
	c-2.2,0-2.5,2-2.7,2.9c0,0.3-0.1,0.8-0.2,0.9L346,181.3z"/>
<path class="st0" d="M331.8,184.3c-0.5,0-1.7-0.2-3.6-2.2c-2.6-2.9-2-7.5-1.4-8.1c1-0.8,1.6-2.3,1.5-3.8c-0.2-1.5-1-2.7-2.2-3.3
	c-0.1-0.2-0.2-0.9-0.2-1.2c-0.1-1.1-0.2-3.3-2.6-3.7c-0.2,0-0.4,0-0.5,0c-0.7,0-1.2,0.2-1.6,0.4c-1.5-2-2.3-2.9-2.7-3.2
	c0.4-0.5,1-1.3,0.8-2.5c-0.1-0.6,0-0.8,0-0.8c0,0,0.2-0.3,1.4-0.3c2.4-0.2,3-1.6,3.1-2.2c0.3-1.2-0.3-2.4-1.5-3.2
	c0.2-0.5,1-1.3,1.8-1.7c0.8-0.4,1.4-1.3,2-2.1c0.2,0.1,0.4,0.3,0.5,0.4c1.1,1.2,2.5,1.9,3.6,2.5c0.6,0.3,1.6,0.8,1.7,1.1
	c-0.2,1.3,0.1,2.5,0.9,3.5c0.8,1,2.1,1.6,3.4,1.6c0.1,0.1,0.9,1.1,1.4,1.7c0.7,0.9,1.4,1.7,2.1,2.3c-0.4,1.3-0.7,2.5-0.2,3.6
	c0,0.3-0.6,0.6-1.6,0.7c-1.9,0.2-2.3,2.3-2.6,3.8c-0.1,0.5-0.3,1.3-0.4,1.5c-0.3,0.3-0.5,0.8-0.5,1.3c0,1.2,1.1,2.1,2.5,3.3
	c0.9,0.8,2.2,1.9,2.4,2.7c0.3,0.8,1,2.2,2,4.1c0,0,0,0,0,0c-1,0-1.8,0.3-2.4,1c-0.3,0.3-0.4,0.3-0.5,0.3l-0.5,0
	c-1,0-1.7,0.5-2.1,1.4c-0.1,0.1-0.7,0.1-1.1,0.2c-0.8,0.1-1.9,0.1-2.5,1l0,0C332.3,184.2,332.2,184.3,331.8,184.3z"/>
<path class="st0" d="M359.1,179.8c-0.5,0-0.9-0.1-1.2-0.3c0.6-0.9,0.9-1.5,1.1-1.8c0.7-1.4,0.5-6.1-0.6-8.7c-0.8-2-0.1-4.6,0.6-5.2
	c0.4-0.3,0.7-0.8,1.1-2.2c1.2,0.5,2.4,0.9,3.6,1.1c1.8,0.4,3.8,2.4,5.5,4.2c0.9,0.9,1.7,1.7,2.4,2.3c-1.9,2-4.9,5.5-5.9,8.4
	c-0.4,1.3-0.7,1.3-1.3,1.3l-1.1,0c-0.7,0-1.6,0-2.7,0.4C360.2,179.7,359.6,179.8,359.1,179.8z"/>
<path class="st0" d="M231.2,75.5c-3.7,0-6.2-0.2-7.1-0.5c0.3-0.6,0.8-1.6,0.2-2.7c-0.5-1-1.5-1.6-3.4-2c-2.2-0.5-3.6-1.7-5-2.9
	c-1.8-1.5-3.7-3.3-7.3-3.4c-7.3-0.3-8.4-1.4-8.4-1.4c-0.2-1-1.3-2.6-2.9-3.3c0.7-0.1,1.3-0.1,2-0.1c1.4,0,2.8,0.2,4.1,0.4
	c6.2,1.4,12.8,4.7,18.1,7.3c4.5,2.2,7.7,3.8,9.7,3.8c2.4,0,7,2.7,8.8,4.2C238.4,75.2,235.3,75.5,231.2,75.5L231.2,75.5z M185.5,64.4
	c1-1,2.9-2.4,5.5-3.5C189.4,62.1,187,63.8,185.5,64.4z"/>
<path class="st0" d="M227.4,88.4c-1.8,0-4.1-0.5-5.7-1.1c2.2,0.1,4.5,0.6,5.9,1.1C227.5,88.4,227.5,88.4,227.4,88.4z"/>
<path class="st0" d="M287.4,87.9c-1,0-2.2-0.2-3-1.2c0.4-0.1,1.1-0.3,2.3-0.3c1.9,0,3.4,0.4,4.1,0.7
	C290.2,87.4,288.9,87.9,287.4,87.9L287.4,87.9z"/>
<path class="st0" d="M328.7,522c1.2-1.2,3.7-2.8,5.5-2.8c0.3,0,0.5,0.1,0.6,0.1C334,520.2,330.9,521.7,328.7,522z M320.2,521.6
	c-0.1,0-0.2,0-0.3-0.1c0,0,0,0,0,0c0,0,0.3-0.6,1.2-1.5c1.3-1.3,2.9-2.2,4-2.5C324.4,518.9,321.8,521.6,320.2,521.6L320.2,521.6z"/>
<path class="st0" d="M214.1,220.2c-0.2-0.2-0.5-0.5-1.1-1.3c-0.7-0.9-1.5-1.4-2.5-1.4c-0.4,0-0.7,0.1-1.1,0.1
	c-0.2,0-0.4,0.1-0.5,0.1c-0.1,0-0.2,0-0.4-0.2c-0.2-0.2-0.3-0.3-0.4-0.4c0.2-0.2,0.4-0.4,0.6-0.7c0.3-0.4,0.8-1.4,0.1-2.9
	c0.7-0.4,1.4-1,1.8-1.7c0.7-1.2,0.7-2.5,0.1-3.4c-0.5-0.9-1.2-1.1-1.6-1.1c-0.5,0-0.9,0.2-1.1,0.3c0,0,0,0,0,0c0,0-0.1-0.1-0.3-0.2
	c-0.8-0.8-1.6-1.3-2.2-1.7c-0.1-0.1-0.3-0.2-0.5-0.3c0,0,0,0,0-0.1c0.4-0.9,1.2-2.6,0-4.4c-0.2-0.4-0.3-0.7-0.3-1
	c0.1-0.4,0.4-0.7,1-1c1.5-0.8,1.8-1.5,1.9-2.6c0-0.3,0-0.6,0.2-1.1c0.2-0.5,0.6-0.8,1-1.1c0.6-0.5,1.6-1.3,1.6-2.8l0-0.5
	c0-2.2,0.2-2.3,0.6-2.3c1-0.1,3.5-0.3,4.6-1.7c0,0,0.1-0.1,0.1-0.1c2.1,1.5,4.9,3,6.2,3c0.2,0,0.6,0.5,0.9,0.8
	c0.5,0.5,1.1,1.2,2,1.7c0.9,0.5,1.9,0.8,3,0.8c0.5,0,1.7-0.1,2.5-0.6c0.6,0.5,2,2.1,2.6,2.7c0.8,0.9,1.8,2,1.9,2.4
	c-1.2,0.8-1.4,1.5-1.6,2.3c-0.2,0.7-0.4,1.6-2,3.7c-2.5,3.3-6.7,4.5-9.4,5.3l-1.1,0.3c-2.7,0.8-3.9,4.1-5.1,7.4
	c-0.3,0.9-0.6,1.7-0.9,2.5C214.5,219.7,214.3,220,214.1,220.2z M146.6,197.4c-0.4-0.2-1.1-0.6-1.5-1.4c-0.5-0.9-0.4-1.8,0.2-2.6
	c0.3-0.4,0.4-0.5,0.4-0.5c-0.1,0.1,0.4,0.7,0.7,1.9C146.7,196,146.7,196.9,146.6,197.4z"/>
<path class="st0" d="M223.2,53.8c-0.4,0.7-2.2-1-2.3-2.3c0-1.3-1.9-1.6-1.9-3.8c0-2.3,0.9-3.6,2.1-1.7c1.2,2,0.4,3.3,0.6,4.3
	C221.8,51.3,223.8,52.5,223.2,53.8z"/>
<path class="st0" d="M315.6,134.1c0.2-0.6,0.2-1.1,0.1-1.5c0.4-0.1,0.8-0.2,1.2-0.2c0.3,0,0.4,0,0.4,0.1c0.6,0.5,0.6,1,0.6,1.1
	C317.3,133.8,316.3,134.1,315.6,134.1z"/>
</svg>
