<!-- Generator: Adobe Illustrator 19.0.0, SVG Export Plug-In  -->
<svg version="1.1"
	 xmlns="http://www.w3.org/2000/svg" xmlns:xlink="http://www.w3.org/1999/xlink" xmlns:a="http://ns.adobe.com/AdobeSVGViewerExtensions/3.0/"
	 x="0px" y="0px" width="37.1px" height="24.9px" viewBox="0 0 37.1 24.9" style="enable-background:new 0 0 37.1 24.9;"
	 xml:space="preserve">
<style type="text/css">
	.st0{fill:#303387;}
	.st1{fill:#FFFFFF;}
	.st2{fill:#EB2227;}
</style>
<defs>
</defs>
<g id="XMLID_15_">
	<rect id="XMLID_22_" x="0" y="0" class="st0" width="37.1" height="24.9"/>
	<polygon id="XMLID_21_" class="st1" points="0,0 4.7,0 14.4,6.5 14.4,0 22.7,0 22.7,6.5 32.5,0 37.1,0 37.1,0 37.1,3.1 29.4,8.3 
		37.1,8.3 37.1,16.6 29.4,16.6 37.1,21.7 37.1,24.9 32.5,24.9 22.7,18.3 22.7,24.9 14.4,24.9 14.4,18.3 4.7,24.9 0,24.9 0,21.7 
		7.7,16.6 0,16.6 0,8.3 7.7,8.3 0,3.1 	"/>
	<polygon id="XMLID_20_" class="st2" points="14.4,17.2 14.4,16.6 12.3,16.6 0,24.9 2.9,24.9 	"/>
	<polygon id="XMLID_19_" class="st2" points="22.7,7.7 22.7,8.3 24.8,8.3 37.1,0 34.2,0 	"/>
	<polygon id="XMLID_18_" class="st2" points="0,2 9.4,8.3 12.3,8.3 0,0 0,0 	"/>
	<polygon id="XMLID_17_" class="st2" points="24.8,16.6 37.1,24.9 37.1,22.9 27.7,16.6 	"/>
	<polygon id="XMLID_16_" class="st2" points="21.1,9.9 21.1,0 16.1,0 16.1,9.9 0,9.9 0,14.9 16.1,14.9 16.1,24.9 21.1,24.9 
		21.1,14.9 37.1,14.9 37.1,9.9 	"/>
</g>
</svg>
