<!-- Generator: Adobe Illustrator 19.0.0, SVG Export Plug-In  -->
<svg version="1.1"
	 xmlns="http://www.w3.org/2000/svg" xmlns:xlink="http://www.w3.org/1999/xlink" xmlns:a="http://ns.adobe.com/AdobeSVGViewerExtensions/3.0/"
	 x="0px" y="0px" width="382.8px" height="368.2px" viewBox="0 0 382.8 368.2" style="enable-background:new 0 0 382.8 368.2;"
	 xml:space="preserve">
<style type="text/css">
	.st0{fill:#EF5A24;}
</style>
<defs>
</defs>
<path class="st0" d="M201.2,330.5c-0.8,0-1.7-0.1-2.6-0.2c-1-0.1-1.9-0.2-2.6-0.2c-0.5,0-0.5,0-0.9-1.2c-0.2-0.7-0.5-1.5-1-2.2
	c-0.5-0.8-1.3-1.2-2.1-1.2c-1.6,0-3,1.5-3.4,3c-0.1,0-0.3,0-0.4,0c-1.1-1.7-2.3-3.2-3.4-4.2c-2.2-2.2-2.8-7.4-3.2-10.9
	c-0.1-0.8-0.2-1.5-0.3-2.1c-0.6-4.1-1.2-7.3-2.1-9.3c-0.3-0.7-0.2-2.1,0-3.6c0.2-1.9,0.4-4-0.2-5.8c-0.5-1.6-1.5-3.5-2.7-5.5
	c-1.2-2.1-2.5-4.4-3.1-6.4c-1.3-4.2-3.7-9.3-5.8-12c-1.6-2.1-2.6-4.3-2.9-5.6l1.4-0.4l0.3-0.6c0,0,0.2-0.4,0.5-0.5
	c0.3,0.6,0.8,1.3,1.9,1.3c0.4,0,0.8-0.1,1.4-0.3c0.8-0.3,1.5-0.5,2.1-0.5c0.7,0,1.4,0.2,2,0.7c2.1,1.4,3.8,1.6,5.9,1.6h19.1l2,2
	l0.6-0.1c0,0,4.8-0.4,8.4-0.4c2.8,0,3.4,0.2,3.4,0.2c0.7,0.3,1.6,0.5,3,0.5c0,0,0.1,0,0.1,0c-1.2,0.2-2.9,0.3-4,0.4l-1.2,0.1v20.6
	c-0.4,0.2-1.5,0.2-2.1,0.3c-1.5,0.1-3.6,0.2-3.6,2.1v37.5c0,0.4-1,1.1-1.7,1.5c-0.6,0.4-1.3,0.8-1.7,1.3
	C202,330.4,201.7,330.5,201.2,330.5z M226.5,266.1c-0.3-0.3-0.6-0.7-0.9-1c1.3-0.2,2.8-0.5,4.3-0.6c-1.2,0.5-2.3,1.4-2.9,2.1
	C226.8,266.4,226.6,266.2,226.5,266.1z"/>
<path class="st0" d="M269.1,290.2c-0.6-0.1-1.4-0.2-2.5-0.3c-0.8-0.1-2.2-0.2-2.6-0.3c-0.8-0.9-2.3-0.9-3.9-0.9c-0.4,0-0.8,0-1.2,0
	c-0.3-1.3-1.4-2.9-4.9-2.9c0,0-0.4,0-0.4,0c-1,0-2.6-1.7-2.6-2.6c0-1.4-0.9-2.5-1.6-3.4c-0.2-0.3-0.6-0.8-0.7-0.9
	c0-2.1-4.5-4.3-6.5-5.1c-0.6-0.3-1.2-2.7-1.4-3.7c-0.5-1.8-0.8-3.1-2-3.2c-0.2-0.1-0.7-0.5-1.1-1c0.1,0,0.2,0,0.3,0
	c0.5,0,1.1,0.2,1.8,0.4c1.5,0.4,3.4,0.9,4.7,0.9c0.6,0,1.1-0.1,1.5-0.3c0.8-0.4,1.5-1.4,2.6-2.9c0.9-1.3,2.2-3.1,3.1-3.4
	c2.1-0.7,6.2-3.2,6.2-5.3c0-0.6,0-1,2-1.5l3.8-0.1l0.8,1.8l0.8,0c1.3,0.1,5,0.5,6.6,1.5c1.6,1.1,3.7,1.6,5.2,1.9
	c0.3,0.1,0.7,0.2,1,0.3c0.1,0.8,0,2.4,0,3.5c-0.1,1.6-0.1,3.2,0,4.4c0.1,0.8-0.3,1.2-0.9,2c-0.6,0.7-1.9,2.3-0.2,3.9
	c0.5,0.5,0.6,1.3,0.7,2c0.1,0.6,0.2,1.4,0.6,1.9c-0.5,0.8-1.7,2.1-2.4,2.5c-1.2,0.7-1.3,2.2-1.3,3.3c0,0.9-0.1,1.9-0.6,2.6
	c-0.6,0.9-2.4,2.5-3.9,3.9C269.9,289.5,269.5,289.8,269.1,290.2z"/>
<path class="st0" d="M214.9,317.9c-0.6,0-1.2-0.1-1.8-0.2c-0.6-0.1-1.1-0.2-1.6-0.2c0-0.1,0.1-0.6,0.1-0.7c0.4-0.2,0.9-0.6,1.1-1.4
	c0.4-1.1-0.1-2.9-1.8-7.2c-0.4-1-1.2-1.7-2.7-2.3v-15.1c0.3,0,0.8-0.1,1.1-0.1c1.7-0.1,4.6-0.3,4.6-2.8v-18.3
	c1.4-0.1,3.5-0.4,4.4-0.6c0.4-0.1,1-0.4,1.7-0.7c1.1-0.5,3-1.3,3.8-1.3c0,0,0.4,0.5,0.7,0.8c0.8,0.9,1.5,1.7,2.6,1.7
	c0.5,0,1-0.2,1.4-0.7c0.8-1,2.1-2,3-2c0.9,0,2-0.3,3.2-0.5c0.7,1,1.9,2.4,3.1,2.9c0.1,0.4,0.3,0.9,0.4,1.4c0.6,2.2,1.2,4.7,3,5.5
	c2.3,1,4.5,2.4,4.9,2.9c0.1,0.9,0.7,1.6,1.3,2.4c0.5,0.6,1,1.2,1,1.7c0,1.2,0.6,2.5,1.7,3.6c1.1,1.1,2.4,1.8,3.6,1.8l0.5,0
	c1.7,0,2.1,0.4,2.2,0.8c-0.6,0.9-1.2,1.8-1.6,2.2c-0.1,0.1-0.6,0.2-0.8,0.2c-0.9,0.2-2.6,0.5-3,2.4c-0.2,0.9-2.4,2.3-3.2,2.3
	c-2.3,0-3.7,3-3.7,5.2c0,0.6-1.9,2.2-3.5,2.2c-2.7,0-3,2.2-3.2,3.5c-0.1,0.5-0.1,1.1-0.3,1.7c-0.4,1.4-0.4,1.5-4.1,1.5
	c-3,0-3.2-0.1-5.3-1.5l-0.7-0.4c-0.8-0.5-1.5-0.8-2.3-0.8c-2,0-3.4,1.8-3.7,4.8c-0.2,0.7-2.2,2.6-3.2,3.5c-0.7,0.7-1.3,1.2-1.7,1.7
	C215.8,317.8,215.4,317.9,214.9,317.9z"/>
<path class="st0" d="M271.1,320.3c-0.3,0-0.5,0-0.8,0c-0.7-0.2-2-2.8-2.2-3.8c0.4-0.8,1.9-2.7,2.6-2.8c0.3,0,1.3,0.7,1.9,1.1
	c0.1,1.2,0.3,2.6,0.4,3.6c-0.5,0.6-0.8,1.2-0.9,1.9C271.9,320.2,271.7,320.3,271.1,320.3L271.1,320.3z"/>
<path class="st0" d="M250.2,340.7l-2.5-3.5c0.9-1.2,2.4-3.4,2.9-4.4c0.3-0.6,2.4-1.9,3.5-2c0.4,0.7,1.1,1.3,1.8,1.9
	c0.5,0.5,1.4,1.3,1.5,1.6c0,0.1-0.5,0.8-0.7,1.1c-0.4,0.6-0.9,1.3-1.2,2c-0.1,0-0.1,0-0.2,0c-0.3,0-0.7-0.1-1-0.1
	c-1.5,0-2.2,0.7-2.5,1.3c-0.4,0.7-0.7,1.5-1,2.1L250.2,340.7z"/>
<path class="st0" d="M206,368.2c-0.3,0-0.5-0.1-0.6-0.3c-1-1.3-2.2-2.8-4-3c-0.4-0.5-0.9-1.1-1.9-1.3c0-0.1,0-0.2,0-0.2
	c0-0.9-0.1-2.4-1.2-4.1c-1.3-2-1.2-2.6-1.2-2.6c1.1-0.1,1.7-0.6,1.9-1c0.8-1.3,0.2-3.2-0.5-5.4l-0.2-0.5c-0.4-1.2-1.2-2.7-2.2-4.3
	c-1.2-2.1-2.6-4.5-3.3-6.9c-0.7-2.2-1.8-4.9-3.2-7.4c1.3-0.4,1.4-1.6,1.4-1.9c0-0.3,0.6-0.9,0.8-0.9c0.2,0.4,0.4,1,0.5,1.5
	c0.4,1.2,1,3.1,3.5,3.1c0.7,0,1.5,0.1,2.4,0.2c1,0.1,2,0.2,2.9,0.2c1.2,0,2.4-0.1,3.1-1.1c0.1-0.2,0.6-0.5,1-0.7
	c1.2-0.8,2.9-1.8,2.9-3.8V309c0.1,0.1,0.1,0.1,0.1,0.1c1.1,2.8,1.7,4.6,1.8,5.3c-0.8,0.4-1.2,1-1.2,1.9c0,0.2,0,0.4-0.1,0.5
	c-0.1,0.7-0.2,1.8,0.5,2.6c0.4,0.5,1.1,0.8,1.9,0.8c0.4,0,0.9,0.1,1.5,0.2c0.7,0.1,1.5,0.2,2.2,0.2c1.4,0,2.4-0.4,3.1-1.2
	c0.3-0.4,0.9-0.9,1.5-1.5c2.3-2.2,3.9-3.7,4-5.2c0.1-1.4,0.6-2.4,1-2.4c0.1,0,0.3,0,0.8,0.3l0.7,0.4c2.4,1.6,3.1,2,6.8,2
	c3.7,0,5.7-0.2,6.7-3.5c0.2-0.8,0.3-1.5,0.4-2.1c0-0.4,0.1-0.9,0.2-1.1c0,0,0.1,0,0.3,0c2.7,0,6.2-2.4,6.2-4.9
	c0-1.1,0.7-2.4,1.1-2.5c0,0,0,0,0,0c1.9,0,5.3-2,5.8-4.5c0.1-0.1,0.6-0.2,0.9-0.3c0.8-0.2,1.7-0.4,2.4-1.1c0.3-0.4,0.8-1.1,1.4-1.9
	c0.6,0.1,1.3,0.1,2,0.1c0.6,0,1.6,0,2,0.1c0.8,0.9,2.3,1,4.4,1.2c0.7,0.1,1.6,0.1,2.1,0.2c0.1,0.5,0.4,1.4,0.5,2.2
	c1.3,5.4,2.1,7.9,3.4,8.7c0.4,0.7,0.2,5.4,0,7.9c-0.7-0.4-1.4-0.6-2-0.6c-2.2,0-5.2,4-5.2,5.5c0,1.1,2,6.4,4.8,6.6c0.4,0,0.7,0,1,0
	c2.6,0,3.4-1.2,3.6-2.3c0.3,0,1.3-0.2,2.4-0.3c-0.6,4.3-1.5,6.4-2.1,7l-0.5,0.4c-2.1,1.9-5.7,5.1-7.9,9c-2.2,3.8-9.1,12.3-13.3,16.3
	c-4.3,4-9.2,7-10.8,7l-1.7,0c-1.1,0-3.8,0-4.3,2.4c-0.1,0-0.1,0-0.2,0c-0.4-0.1-0.9-0.2-1.4-0.2c-0.6,0-1,0.1-1.5,0.4
	c-0.9,0.6-1.7,0.8-2.6,0.8c-0.5,0-1.1-0.1-1.7-0.3c-1.3-0.4-2.8-0.7-4.4-0.7c-1.7,0-3.5,0.3-5.1,0.7c-1.5,0.4-2.2,1-2.8,1.4
	c-0.6,0.4-0.8,0.6-2.1,0.6c-4.2,0-6.8,0.8-7.8,2.3C206.6,368.1,206.2,368.2,206,368.2z M254.3,328c-1.9,0-5.3,1.9-6.1,3.5
	c-0.5,1-2.5,3.9-3.2,4.9l-0.6,0.8l4.3,6l4,0.6l0.4-1c0,0,0.6-1.5,1.2-2.7c0.1,0,0.2,0,0.2,0c0.3,0,0.5,0,0.7,0
	c0.3,0,0.6,0.1,0.9,0.1c1.6,0,2.2-1,2.2-1.9c0-0.2,0.5-0.9,0.7-1.2c0.6-0.8,1.3-1.7,1.3-2.8c0-1.4-1.2-2.5-2.4-3.5
	c-0.6-0.5-1.3-1.1-1.4-1.4C256.2,328.9,255.6,328,254.3,328z"/>
<path class="st0" d="M216.4,263.9c-1.3,0-1.7-0.2-1.8-0.2c-0.5-0.3-1.5-0.5-4.6-0.5c-3,0-6.6,0.2-8,0.3l-2-2h-20.2
	c-1.9,0-3-0.3-4.4-1.2c-1.1-0.8-2.3-1.1-3.5-1.1c-1,0-2,0.2-3.1,0.7c-0.3-0.6-0.9-1.2-2.1-1.2c-0.8,0-1.5,0.3-2,0.7
	c0.2-1.9,0.4-4.3,0.4-5.4c0-0.3,0.5-1.2,0.9-1.9c0.9-1.7,2-3.7,2-6c0-2.8,1.9-7.8,3.8-10.1l0.6-0.7c1.9-2.2,4.1-4.7,3.8-8.6
	c-0.2-2-1.1-4.3-1.9-6.5c-0.8-2-1.6-4.1-1.6-5.3c0-1.2,0.3-2,0.6-2.9c0.4-1.1,0.8-2.3,0.2-3.7l-0.3-0.6c-0.9-1.9-3.3-6.7-4.3-10.1
	c1.3-0.9,1.8-1,1.8-1c0.2,0,1.2-0.1,5.4-0.1c4.4,0,10,0.1,12,0.1c0.4,0.8,0.8,2.1,0.5,3.2c-0.4,1.9,0.3,2.6,1,3.3
	c0.4,0.3,0.9,0.7,1.3,1.8c1,2.3,2.1,4.6,4.8,4.6c0.5,0,1.1-0.1,1.7-0.3c2-0.6,4.3-1,5.5-1c0.3,0,0.4,0,0.4,0l0.2,0l0.3,0
	c1.5,0,1.8-1.6,2.1-3c0.1-0.6,0.4-2,0.7-2.2c0.1,0,0.5-0.2,1.2-0.2c0.7,0,1.4,0.1,1.8,0.2c0.5,0.7,1.5,1.4,3.7,1.4
	c0.9,0,1.6-0.1,2.2-0.2c0.1,0,0.1,0,0.2,0c0,1.8,0.3,3.7,1.1,4.8c0,0.5-0.3,1.6-0.5,2.3c-0.7,2.7-1.3,5,0.1,6.1
	c1.3,1,2.3,2.7,2.3,3.2l-0.1,0.4c-0.5,2.2-1.1,5.2,1.1,5.7l0.2,0l0.4,0c0.9,0,1.5-0.6,1.9-1c0.4-0.4,0.6-0.6,0.9-0.6
	c0.3,0,1.7,0,2,0c0.9,0,1.9-0.1,3.1-0.5l-1,9.3l-0.7,0.7l-9.2-0.3l-0.6,20.8l5.6,7.6C220.9,263.5,218.3,263.9,216.4,263.9z"/>
<path class="st0" d="M244.5,264.3c-1,0-2.8-0.5-4-0.8c-0.9-0.2-1.7-0.4-2.1-0.5l-0.4,0c-0.5,0-1.1,0.1-1.8,0.2
	c-0.2-1.6-2.6-1.6-3.3-1.6c-2.2,0-5.6,0.5-7.8,0.9l-5.7-7.8l0.5-17.1l7.7,0.3l2.2-2.2l0.9-8.6c0.4,0.5,1,0.8,1.7,0.8
	c0.3,0,0.6-0.1,1-0.2c0.4-0.2,1-0.4,1.6-0.5c0.1,0.8,0.5,1.7,0.9,2.2c0.7,0.8,1.4,1,1.9,1c0.3,0,0.6-0.1,0.9-0.2
	c0.1,0.1,0.9,0.5,1.4,0.7c1,0.5,1.9,0.9,2.8,0.9c1.3,0,3.5,0,3.8-1.6c1.2,2.1,2.4,3.1,3.7,3.1c1.8,0,2.6,0.1,3,0.2
	c0.2,1.6,1.3,4.2,2.7,5.3c0.6,0.5,1.4,0.7,2.5,0.7c1.4,0,2.7-0.5,2.9-0.5l0.2-0.1l0.2-0.1c0.2-0.1,1.5-1.2,1.5-3.6
	c0-2.7,0-5.4-2.1-5.4c-0.7,0-1.2,0.4-1.7,0.7c-0.5,0.3-1,0.6-1.4,0.6l-0.3,0c-0.6-0.2-1.5-1.7-2-2.5c-0.3-0.6-0.6-1.1-0.9-1.4
	c0.1-0.4,0.4-1,0.5-1.5c0.4-1.1,0.9-2.2,0.9-3.1c0-0.4,0.1-1.2,0.3-1.9c0.4-2.4,0.8-4.6-0.5-5.5c0.1-0.2,0.3-0.6,0.7-0.9
	c1.1-0.9,1-2.2,1-3.1c0-0.1,0-0.2,0-0.4l1.4,0c1.9,0,3.8-0.1,5.1-0.7c2.5,1.8,3.5,2,4.1,2c0.5,0,1.6,0.5,2.4,0.9
	c0.9,0.5,1.8,0.9,2.6,1.1c1.4,0.3,5.9,2.2,6.5,2.8c0.6,0.8,1.6,3.1,2.1,4.4c-0.8,0.2-1.4,0.7-1.7,1.5c-0.5,1.3-1,6.5-0.2,9.3
	c-0.9,0.2-2,0.6-2,2c0,1.2-0.2,3.6-0.5,4.5l-0.2,0.1l-0.2,0.6c-0.2,0.6,0,1.2,0.4,2c-3.2,1.1-9.9,3.6-14.3,5.2l-1.2,0.4l1,3.7
	l-3.6,0.1l-0.1,0c-3.5,0.9-4.2,2.3-4.2,4.2c-0.2,0.4-2.5,2.2-4.3,2.7c-1.7,0.5-3.1,2.5-4.5,4.4c-0.5,0.7-1.3,1.8-1.6,2.1
	C244.8,264.3,244.7,264.3,244.5,264.3z"/>
<path class="st0" d="M260.8,175.5c-0.2,0-0.4,0-0.7-0.1c-0.5-0.1-1.1-0.1-1.8-0.2c-0.1-0.1-0.1-0.2-0.1-0.3c0-0.3,0.1-0.3,0.1-0.3
	l1.3-0.1l-0.2-1.3c-0.1-0.9,0.1-2.1,0.3-2.3c0.2-0.1,0.4-0.2,0.7-0.4c0.1,0,0.3,0,0.4,0c1.2,0,1.8-0.3,2.5-0.6
	c0.3-0.1,0.9-0.3,1.8-0.6l0.5,1.3c0.4,0.8,0.8,2.1,0.8,2.8c-0.3,0.1-1.1,0.3-2.7,0.3c-0.5,0-0.8,0-0.8,0l-1.6-0.1l0.2,1.6
	C261.3,175.4,261.1,175.5,260.8,175.5z"/>
<path class="st0" d="M327,165.6l-0.3-19.6l2.4-3.7l2.4-3.5c1.6-0.3,3.1-0.6,3.6-0.6c0,0,0,0,0,0c1.1,0,1.8-0.6,2.8-1.4
	c1.3-1.1,3-2.5,4.8-2.5c0.8,0,1.5,0,2.1,0.1c0.5,0,0.9,0,1.3,0c1.4,0,2.6-0.3,3.9-1.7c1.8-2,14-14.2,15-15c1.1-0.8,0.9-1.8,0.8-2.1
	c-0.5-1.4-2.5-1.6-3.6-1.6c-0.8,0-3.2,0-7.3-1.7c-4.1-1.7-10.5-3.8-11.7-4.1c-0.3-0.1-1-1-1.5-1.5c-0.7-0.8-1.3-1.5-2-1.8
	c-0.6-0.4-2.1-2.9-2.8-4.3c0.2-0.5,0.9-1.6,2.1-2.8c0.6,0.5,1.1,1.2,1.5,2c1,2.1,3.1,3.3,5.7,3.3c2.3,0,4.8-1,5.9-2.3
	c0.2-0.2,0.7-0.3,1.4-0.3c0.4,0,0.8,0,1.2,0c0.5,0,0.9,0.1,1.4,0.1c1,0,2.3-0.1,3.3-1c1.2-1.2,3.5-1.6,8.2-1.7
	c2.6,0,12.5-0.9,14-4.2c0.2-0.3,0.4-0.4,0.5-0.4c0.1,0,0.2,0,0.3,0.1c0.3,0.3,0.4,0.9,0.3,1.6c-0.1,1.7-0.6,3.7-1.1,5.5
	c-0.5,1.8-0.9,3.4-0.8,4.6c0.1,1.5-3,7.8-5,10.4c-2.5,3.2-5,6.6-5.4,9.5c-0.4,2.4-3.7,6.5-6.3,9.9c-4.8,6.1-11.4,12.4-13.7,13.5
	c-2.9,1.4-5.4,2.7-10.3,7.8c-1.4,1.5-3,3.1-4.6,4.7c-2.6,2.7-5.2,5.3-6.9,7.2L327,165.6z"/>
<path class="st0" d="M2.8,84.3c0.3,0,0.6,0,0.9,0c0.4,0,0.8,0,1.2-0.1c-0.7,0.1-1.5,0.3-2.1,0.3C2.8,84.5,2.8,84.4,2.8,84.3z"/>
<path class="st0" d="M26.7,89.6c-1.7,0-3-0.3-3.5-0.5c-0.3-0.6-1.3-1.5-4.9-2.2l-1.6-0.3l0,0.4c-1.5,0.1-8.5,0.6-8.5,0.6l-0.3,0
	L7.6,88c-0.7,0.4-1.5,0.8-2,1c-0.3-0.4-0.9-0.9-2-0.9c-0.2,0-0.5,0-0.8,0.1c0,0-0.1-0.1-0.1-0.1c-0.1-0.2-0.3-0.4-0.3-0.7
	c0.2,0,0.3-0.1,0.4-0.1c1.4-0.1,5.7-0.7,7.3-2.2c0.1,0.1,0.8,0.4,1.2,0.6c0.7,0.4,1.6,0.9,2.5,1c0.2,0,0.4,0,0.6,0
	c1.9,0,3.6-1.1,3.8-1.2l1.7-1.1l-1.7-1.1c-0.2-0.2-0.6-0.4-3.7-0.7c-0.7-0.1-1.1-0.5-1.8-1.1c-0.7-0.7-1.5-1.5-2.8-1.5
	c-0.5,0-1,0.1-1.6,0.4c-1.8,0.9-3,1.2-4.7,1.2c-0.3,0-0.5,0-0.8,0c-0.1-0.3-0.3-0.6-0.5-0.8c-1.1-1-3.2-4.4-1.9-6.4
	c0.8-1.3,1.2-2.8,1.4-4.3c0.9-0.5,1.3-1.3,1.6-1.9c0.1-0.2,0.3-0.6,0.4-0.7c0.7,0.2,1.5,0.3,2.5,0.3c1.6,0,3.1-0.2,3.1-0.2l0.2,0
	l0.2-0.1c0.4-0.2,1.5-0.6,2.5-0.6c0.4,0,0.6,0.1,0.8,0.1c1.1,0.5,2.4,1.9,2.7,2.4l0.4,0.5H18c0.7,1.5,2.2,4.4,4.5,5.1
	c1.4,0.5,2.1,2.4,2.3,3.1l0.1,0.2l0.9,1.4c0,1,0.1,3,1.3,4.1c1.6,1.6,2.5,2.7,2.7,3.1c0,0.1,0.1,0.5,0,2.3
	C28.9,89.5,27.9,89.6,26.7,89.6z"/>
<path class="st0" d="M9.7,96.2c-0.3-0.2-0.3-0.3-0.2-0.8c0.2-1.2,0.2-2.8-2.4-3.5c-0.3-0.1-0.6-0.2-0.9-0.3c1-0.3,1.9-0.8,2.5-1.1
	c1.2-0.1,5.3-0.4,7.2-0.5c-0.6,0.3-0.8,0.8-0.9,1.1c-0.3,0.8,0,1.6,0.4,2.2l-0.5,0c-1.1,0-2.4,0.9-4.2,2.3C10.3,95.7,10,96,9.7,96.2
	z"/>
<path class="st0" d="M187.3,143.9c-0.4-0.5-1-1-1.8-1.7c-0.6-0.5-1.3-1.1-1.5-1.4c-0.5-0.6-0.8-1.1-1-1.4c0-0.8-0.1-2.5-1.2-3.9
	c-1-1.4-1.4-2.1-1.4-3.7c0-1.3-0.3-2.4-0.5-3.3c-0.1-0.5-0.3-1-0.3-1.3c0-0.2,0.5-1.1,0.9-1.6c0.6-1,1.4-2.3,1.8-3.6
	c0.2-0.7,0.9-1.4,1.6-2.1c0.4,0.2,0.8,0.3,1.3,0.3c0.7,0,2.1-0.3,3.4-2c0.1,0,0.1,0.1,0.2,0.1c0.5,0.3,1.1,0.7,1.8,0.7
	c0.5,0,1.2-0.2,1.8-0.9c0.4-0.6,2.4-0.8,3.5-1c1-0.1,1.7-0.2,2.3-0.5l0.9-0.4c1.9-0.9,3.6-1.7,4.4-2.5c1.2-1,0.6-2.4,0.4-2.9
	c0.2,0,0.5-0.1,1-0.1l1.6,0c2,0,4.2-0.2,5.5-1.9c1.4-1.8,3.4-3.7,4.6-4.8c0.4-0.3,0.7-0.6,0.8-0.8c0.7-0.7,0.8-1.5,0.8-1.9
	c0-0.4,0-0.5,0.3-0.8c0.9-0.9,2.3-1.6,3-1.6c0.3,0.2,0.7,0.3,1.1,0.3c1.8,2.1,3.2,4.1,3.4,4.6c0.1,0.2,0.3,0.6,0.5,1
	c0.3,0.5,0.9,1.7,0.7,2.1c-1.3,0.7-2,1.5-2.1,2.4c-0.1,0.9,0.5,1.7,1,2.1l0.3,0.2l2,0.3l0.8,1.9h0.9c0,0,2.2,0,3.5,1.6
	c0.5,0.6,0.9,1.1,1.3,1.5c0.8,0.9,0.9,1,0.9,1.2c0,1.4,1,2.1,2.1,2.8c0.5,0.3,1.1,0.8,1.9,1.4c1.6,1.3,1.6,1.9,1.6,2.8
	c0,0.5,0,1.8,4.2,3.8l0.6,1.5l-2.1,0.4c-0.9-0.5-3.1-1.4-4.9-1.4c-1.8,0-2.5,1-2.8,1.5c-0.2,0.4-0.3,0.4-0.3,0.4
	c-0.1,0-0.4-0.1-0.7-0.2c-0.6-0.1-1.4-0.3-2.3-0.3c-2.8,0-5,1.1-6.5,1.9c-0.1,0.1-0.3,0.1-0.4,0.1c-0.3,0-0.8-0.1-1.2-0.2
	c-0.5-0.1-1.1-0.2-1.6-0.2c-0.6,0-1.1,0.1-1.5,0.4c-1,0.7-1.6,2.2-2,3.4l-9.1-1.8c-0.8-1-2.8-3.3-5.3-3.3c-3,0-6.4,4.2-7,5.1
	l-0.3,0.4v2.8l-3.7-0.5l-2.7,0.8l-4.3,0.9l0.2,1.2C187.6,141.7,187.7,142.8,187.3,143.9z"/>
<path class="st0" d="M131.6,135.1c-0.8-0.4-2.3-2.8-2.3-3.6c0.1-2.3-3.3-6.5-6.4-7.2c-0.8-0.2-1.7-0.3-2.7-0.5
	c-1.5-0.2-4.3-0.7-4.9-1.2c-0.3-0.7-0.6-1.3-0.9-1.9c-0.4-0.8-0.7-1.3-0.7-1.9c0-0.8-0.1-1.6-0.1-2.3c-0.1-1.3-0.2-2.5,0-4.2
	c0.3-2.1,1.8-3.2,1.8-3.2l0.3-0.2l0.2-0.4c0,0,0.8-1.8,1.9-2.9c1.6-1.6,1.3-6.4,1-9.2c-0.1-0.6-0.3-2-0.5-3.2c0.3-0.4,0.5-1,0.5-1.6
	c0.1-0.6,1.4-2.3,2.1-3.1c0.5-0.5,0.6-1.3,0.8-2.4c0.1-0.6,0.3-1.8,0.5-2.1c0,0,0,0,0,0c0,0,0.3-0.1,0.8-0.1c0.8,0,1.9,0.2,2.6,0.3
	l0.8,0.1l0.2,0c1,0,1.7-0.6,2.2-1.1c0.1-0.1,0.2-0.2,0.3-0.3c1,0.8,2.2,0.8,3.1,0.9c0.5,0,1.1,0.1,1.2,0.2c0.2,0.2,0.4,0.7,0.6,1.1
	c0.6,1.1,1.3,2.6,2.9,2.6c0.5,0,0.9-0.1,1.4-0.4c1.4-0.8,3.2-1.2,4-1.2c0.3,0.1,1.3,0.7,1.9,1.1c0.8,0.5,1.5,1,2.1,1.2
	c0.8,0.3,2.3,0.5,3.7,0.5c1.3,0,2.3-0.2,3-0.6c0.5-0.3,1-0.8,1.5-1.2c0.5-0.5,1.4-1.3,1.8-1.3c0.3,0,0.6,0,1.1,0c0.6,0,1.2,0,2,0
	c0.7,0,1.5-0.1,2.2-0.1c1.2,0,1.5,0.1,1.6,0.1c1.2,0.6,2.8,1.4,4.4,1.4c0.4,0,0.9-0.1,1.3-0.2c1.2-0.4,2.1-1.5,2.9-2.5
	c0.3-0.4,0.9-1,1.1-1.2c0,0,0,0,0.1,0.1c0.2,0.2,0.4,0.5,0.6,0.7c0.1,0.1,0.3,0.4,0.4,0.6c0.2,0.4,0.6,1.1,1.2,1.5
	c-0.1,0.9-0.2,1.8-0.2,2.3c0,1.5,1.7,3,3,3.5c0,0.3-0.1,0.9-0.1,1.3c0,0.3-0.1,0.6-0.1,0.9c0,0,0,0,0,0c-0.1,0-0.7,0.1-1,0.2
	c-0.8,0.2-1.6,0.3-2.1,1c0,0.1-4,5.5-3.6,7.3c0.1,0.5-0.4,2-0.7,2.3c-1.4,0.5-1.4,2.6-1.4,3.8v0.1c-0.2,0.2-0.4,0.4-0.6,0.5
	c-0.9,0.8-2.1,1.7-2.1,3.1c-0.1,1-2.7,5.6-3.5,7.1l-0.5,1c0,0-0.6,1.1-0.6,1.2c-1-1.4-2.6-2.4-3.9-2.4c-0.5,0-1,0.2-1.4,0.4
	c-0.2,0.2-0.6,0.3-1.1,0.3c-0.2,0-0.9,0-1.1,0c-0.3,0-0.5,0-0.7,0.1c-0.4,0.1-1,0.3-7.2,6.6l-0.3,0.3l-0.1,0.4c0,0-0.4,2.2-1.2,4.9
	c-0.3,0.1-0.6,0.3-0.9,0.5c-0.1,0-1,0.5-5.7,0.5l-0.9,0c-0.8,0-1.8,0.4-2.8,0.7C133.2,134.7,132.2,135.1,131.6,135.1
	C131.7,135.1,131.6,135.1,131.6,135.1z"/>
<path class="st0" d="M107.7,123.4c-0.1-3.5-0.3-7.4-0.4-9c-0.1-0.9-0.1-1.8-0.1-2.6c0-2.1-0.1-3.8-1.1-4.9c0,0,0,0,0,0
	c0.1,0,0.1-0.2,0.2-0.3c0.2-0.9,0.7-2.9-1.6-4.2c-0.3-0.2-0.6-0.3-0.9-0.5c-1-0.5-1.3-0.7-1.4-2.5c0.7-0.3,1.3-0.8,1.8-1.3
	c0.3-0.3,0.8-0.7,1-0.8c0,0,0.1,0,0.2,0c1.4,0,4.5-0.2,5.5-1.5c0.1-0.1,0.3-0.2,0.5-0.4c0.6-0.4,1.8-1.2,1.3-3
	c-0.1-0.5,0.1-1,0.2-1.1l0.2,0.1c0,0,0,0.1,0,0.2c0.1,0.6,0.2,1.8,1.7,2.4c0.4,0.2,0.8,0.3,1.2,0.4c0.2,1,0.3,2,0.4,2.5
	c0.4,3.5,0.2,6.4-0.3,7c-1.1,1.1-1.9,2.7-2.3,3.4c-0.7,0.6-2.3,2.2-2.6,4.8c-0.3,1.9-0.1,3.4,0,4.8c0.1,0.7,0.1,1.4,0.1,2.1
	c0,1.2,0.5,2.2,1,3.1c0,0.1,0.1,0.1,0.1,0.2c-0.2,0.1-0.4,0.3-0.6,0.4c-0.4,0.3-0.9,0.7-1.3,0.7
	C109.7,123.2,108.8,123.3,107.7,123.4z"/>
<path class="st0" d="M102.6,125c-0.8-1.8-1.3-3.5-1.3-4.6c0-3.2-0.8-6.4-1.6-8.3c-0.5-1.3-0.3-4.6-0.1-6.3l0.1-1
	c0.2-2.6-0.9-3.9-1.9-4.5c-0.1-0.1-0.2-0.5-0.4-1.2c0.3,0.1,1.7,0.3,2.1,0.4c0.3,3,1,3.9,2.9,4.9c0.2,0.1,0.5,0.3,0.8,0.4
	c0.6,0.3,0.5,0.4,0.4,1.3c-0.2,0.7-0.4,1.9,0.5,2.8c0.3,0.3,0.4,1.9,0.4,3.1c0,0.8,0,1.8,0.1,2.8c0.1,1.8,0.3,6.2,0.4,9.3
	C104,124.2,103.2,124.5,102.6,125z"/>
<path class="st0" d="M185,149.3c-2-0.9-5.1-2.2-6.7-2.2c-0.2,0-0.4,0-0.6,0.1c-0.1,0-0.4,0.1-2,0.1c-4.2,0-12.7-0.4-12.8-0.4l-0.2,0
	l-2.5,0.7h-6.5c0.2-0.8,0.6-1.9,0.8-2.3c0.2-0.4,0.3-0.7,0.4-1c0.4-1.4-0.5-6.2-2.2-7.1c-0.4-0.2-0.8-0.3-1.3-0.3
	c-0.3,0-0.6,0-0.9,0.1c-0.3,0-0.5,0.1-0.8,0.1c-0.6,0-0.8-0.2-0.9-0.3c-0.2-0.3-0.4-0.7-0.7-1c-0.4-0.6-0.8-1.3-1.3-1.8
	c0.8-2.3,1.2-4.2,1.3-5.1c2.3-2.3,4.9-4.9,5.7-5.5c0,0,0.8,0,1.1,0c0.7,0,1.7-0.1,2.7-0.8c0.4,0.1,1.8,1.2,1.9,2
	c0.3,1.5,1.3,1.7,1.7,1.7c1.2,0,1.8-1.2,2.7-2.9l0.5-0.9l0.5-0.9c2.5-4.5,3.8-7.2,3.8-8.5c0.1-0.2,0.7-0.7,1.1-1
	c0.8-0.7,1.6-1.3,1.6-2.3l0-0.4c0-0.3,0-1.1,0.1-1.5c1.4-0.8,2.1-3.6,2-4.9c0.2-0.9,2.2-4.1,3-5.2c0.2,0,0.4-0.1,0.6-0.1
	c0.7-0.2,2-0.4,2.6-1.3c0,0,0,0,0,0c-0.1,2,0.7,4.8,1.7,6.7c-0.1,0-0.1,0-0.2,0c-0.7-0.1-1.4-0.1-2.1-0.1c-1.2,0-4.2,0-4.2,2.1
	c0,0.1,0,0.2,0,0.3c-0.2,0.9-0.5,2.6,1.8,4.7c0.7,0.7,1.4,1.2,2,1.6c1.3,1,2,1.6,2.3,2.6c0.3,0.9,0.7,2.3,1.3,3.4
	c-1,0.9-2,2-2.5,3.4c-0.3,1-1,2.1-1.5,3c-0.7,1.2-1.3,2.1-1.3,3.1c0,0.7,0.2,1.3,0.3,2c0.2,0.8,0.4,1.7,0.4,2.7
	c0,2.4,0.6,3.7,1.9,5.4c0.8,1,0.6,2.4,0.6,2.4l-0.1,0.4l0.2,0.4c0,0.1,0.5,0.9,1.4,2.1c0.5,0.6,1.2,1.2,1.9,1.8
	c0.5,0.4,1.4,1.2,1.5,1.4c0.1,0.3,0.3,0.6,0.5,0.9C185.5,147.5,185.2,148.5,185,149.3z M178.8,89.8c-0.5-0.3-1.1-0.8-1.2-1.1
	c0-0.1,0-0.5,0.1-0.9C178.1,88.3,178.5,89.1,178.8,89.8z"/>
<path class="st0" d="M54.1,134.2c0.2-0.5,0.3-0.9,0.5-1.3c0.3-0.7,0.6-1.3,0.7-2.3c0.3-2.4-2.2-3.9-4-5c-0.3-0.2-0.7-0.4-1-0.6
	c-0.4-0.2-0.7-0.4-1-0.6c0.6-1.2,0.5-2.9,0.3-4.2c-0.1-0.7,0-0.8,0.5-1.3c0.3-0.2,0.6-0.5,0.9-0.9c0.9-1.2,0.3-2.4-0.1-3.1l0,0
	c0.2,0,0.4,0.1,0.6,0.1c0.6,0,1.1-0.2,1.6-0.6c1.3-1.3,0.3-2.9-0.3-3.8c-0.1-0.2-0.2-0.4-0.3-0.6c0.3-1.3-0.1-2.9-1.5-3.8
	c-0.1-0.3,0-1.1,0.2-1.8c0.5,0,1.4-0.2,2-1.3c0.2,0.2,0.4,0.4,0.6,0.7c0.4,0.6,1.1,1,1.9,1c1.6,0,3.3-1.4,3.7-2.9
	c0,0,0.1-0.1,0.2-0.1c0,0.6,0.1,1.1,0.5,1.6c0.3,0.4,0.8,0.6,1.4,0.6c0.6,0,1.3-0.3,2.3-1c0.1-0.1,0.3-0.1,0.4-0.1
	c0.8,0,1.8,0.9,2,1.2c0.5,0.8,2.8,3.5,5.1,3.5c0.8,0,1.5-0.3,2.1-0.9c0.5-0.6,1.9-1,3.3-1c0.9,0,1.4,0.2,1.5,0.3
	c0.3,0.3,0.6,0.6,1,0.7c1.1,2.9,1.6,6.9,1.6,7.7c0,0.1-0.4,0.5-0.7,0.8c-0.7,0.7-1.6,1.7-1.5,3.1c0,0.5-0.7,2.1-1.2,2.9
	c-0.6,1.1-0.9,1.8-1,2.4c-0.2,1.6,1.8,6.2,2.6,7.3c0,0,0,0,0,0c0,0,0,0.1,0,0.3c-2-0.5-3.9-0.7-5.9-0.7c-1.4,0-2.9,0.1-4.3,0.4
	c-3.4,0.6-6.5,1.4-9.2,2.2C57.6,133.4,55.7,133.9,54.1,134.2z"/>
<path class="st0" d="M84.1,132.6c-0.5-0.2-1.4-0.6-2.4-0.9c0.2-1.2,0.1-2.1-0.4-2.7c-0.6-0.9-2.1-4.6-2.1-5.4c0-0.2,0.4-0.9,0.7-1.4
	c0.8-1.5,1.6-3,1.5-4.3c0-0.2,0.5-0.8,0.8-1.1c0.6-0.7,1.4-1.5,1.4-2.6c0-1-0.5-5.2-1.7-8.4c0.2-0.3,0.4-0.7,0.5-1.3
	c0.1-0.7-0.1-1.5-0.5-2.9c-0.2-0.6-0.5-1.5-0.6-2.1c0.6-0.1,1.8-0.2,3.8-0.2c3.9,0,7.4,0.3,8.4,0.6c0.4,0.4,0.8,0.5,1.1,0.5
	c0.2,0,0.4,0,0.5-0.1c0.4,1.3,0.8,1.8,1.3,2c0.2,0.1,0.8,0.5,0.7,2.1l-0.1,1c-0.2,3-0.4,5.8,0.3,7.6c0.7,1.6,1.4,4.5,1.4,7.3
	c0,1.9,0.9,4.4,1.6,5.9c-0.5,0.2-1.1,0.4-1.7,0.7c-1.2,0.5-2.5,0.9-3.7,1.6c-3.7,1.8-9,4.1-10.2,4.3
	C84.5,132.8,84.3,132.7,84.1,132.6z"/>
<path class="st0" d="M44.1,118.8c-0.2-0.1-0.5-0.4-0.4-0.9c0.3-1.9-0.6-4.6-1.6-5.7c-0.5-0.6-1-0.7-1.4-0.7c-0.5,0-1.8,0.2-3.4,0.5
	c-0.2-0.5-0.3-1.2-0.3-2.3c0-1.8-3.7-7-5.9-7c-0.8,0-1.5,0.3-2.3,0.5c-0.6,0.2-1.2,0.4-1.6,0.4l-0.8-0.1c-0.5-0.1-0.9-0.2-1.4-0.2
	c-1.3,0-2.1,0.8-2.3,2.2c-0.1,0.1-0.5,0.7-2.2,2.3c-1.7-2.7-3.9-4.5-6-6c-1-0.7-1.4-1.4-1.9-2.3c-0.3-0.5-0.6-1-1-1.6
	c0.2-0.1,0.3-0.3,0.5-0.4c0.6-0.5,1.9-1.5,2.5-1.7c0.3,0.1,0.5,0.1,0.8,0.1c1.3,0,2.9-1,2.9-2.3c0-0.5-0.3-1-0.6-1.4
	c0-0.1-0.1-0.1-0.1-0.2c0.7-0.5,1.2-1.2,1.4-2c0.8,0.2,1.4,0.5,1.7,0.6c0.8,1.5,3.9,1.7,5.8,1.7c0.9,0,2-0.1,3.1-0.3
	c0.3,1.1,1,2.4,2.3,2.4c0.4,0,0.9-0.1,1.5-0.7c0.1,0,0.2,0.1,0.2,0.1c0.4,0.2,0.8,0.4,1.3,0.4c0.4,0,1.3-0.1,1.9-1.2
	c0.3,0.1,0.6,0.3,0.9,0.4c0.6,0.3,1.2,0.6,1.9,0.6c1.1,0,2-0.9,3.2-1.9c0.2-0.2,0.4-0.4,0.6-0.6c0.5,0.8,1.1,2.1,1.1,2.5
	c0,1.1,0.8,1.9,1.6,2.5c-0.3,0.5-0.5,1.2-0.4,1.8c0.1,0.9,0.8,1.6,1.6,1.7c0,0.2,0.1,0.4,0.1,0.5c0.1,0.7,0.2,1.5,0.6,2.2
	c0.1,0.2,0.3,0.4,0.4,0.5c-0.5,2.2-0.8,4.4,0.8,5.3c0.6,0.3,0.4,1,0.4,1c-0.3,0.9,0.2,1.7,0.7,2.5c0,0,0,0,0,0.1c-0.1,0-0.3,0-0.4,0
	c-0.8,0-1.5,0.4-1.9,1.2c-0.6,1.3,0,2.4,0.3,3c0.1,0.1,0.1,0.2,0.2,0.3c-0.1,0.1-0.2,0.2-0.4,0.3c0,0-0.1,0.1-0.1,0.1
	c-0.4-0.5-0.9-0.6-1.3-0.6C46,116.2,45.2,117.2,44.1,118.8z"/>
<path class="st0" d="M51.3,134.1c-2.7-1.1-8.6-4.9-12.8-8.1c-2-1.5-4.2-3-6.4-4.3c0.2-0.3,0.3-0.4,0.3-0.4c0.3-0.3,0.8-0.6,1.3-0.9
	c2-1.4,3.4-2.4,3.7-3.6c0.1-0.3,0.2-0.5,0.2-0.8c0.1-0.4,0.3-0.8,0.4-1.3c1-0.2,1.8-0.3,2.3-0.4c0.4,0.7,0.9,2.2,0.8,3.3
	c-0.1,1,0.2,2.1,0.9,2.9c0.6,0.7,1.5,1.1,2.3,1.1c0.8,0,1.5-0.4,2-1c0.2-0.3,0.5-0.6,0.7-1c0,0,0,0,0,0c0,0.3,0,0.6,0,0.9
	c0.3,2.4-0.1,2.8-0.2,2.8c-0.6,0.5-0.8,1-0.7,1.6c0.1,0.9,0.8,1.3,1.5,1.6c0.3,0.2,0.8,0.4,1.3,0.7c0.3,0.2,0.7,0.4,1.1,0.6
	c1,0.6,2.8,1.7,2.7,2.3c-0.1,0.6-0.3,1-0.5,1.6C51.9,132.4,51.6,133.1,51.3,134.1z"/>
<path class="st0" d="M29.8,120.3c-1.4-0.9-2.6-1.7-3.2-2.2c-1.9-1.6-2.9-2.4-4.1-6.5c-0.1-0.4-0.3-0.9-0.5-1.3
	c2.3-2,3.3-3.2,3.5-4.2c0.1,0,1.1,0.2,1.1,0.2c0.2,0,0.4,0.1,0.7,0.1c0.9,0,1.7-0.3,2.5-0.6c0.5-0.2,1-0.4,1.4-0.4
	c0.6,0.3,3,3.4,3.2,4.4c0,1.2,0.1,2.7,1,4.1c0.1,0.2-0.1,0.7-0.2,1.2c-0.1,0.4-0.2,0.7-0.3,1.1c-0.2,0.4-1.8,1.4-2.6,2
	c-0.6,0.4-1.1,0.8-1.5,1.1C30.5,119.4,30.2,119.7,29.8,120.3z"/>
<path class="st0" d="M0.6,36.1c0.3-1,0.7-2.2,1.3-3.4c1.7-3.6,3.8-6.7,5.7-9.5c2.4-3.5,4.3-6.3,4.4-8.8c0.1-1.7,2.3-4,4.1-5.8
	c1.6-1.6,2.9-2.9,3.4-4.3C20,2.9,20.7,1.3,21.9,0h20.6c2,0,2.4,0.2,2.5,0.3c0.1,0.3,0.1,0.6,0.3,0.9c0.1,3.3,0.1,5.5,0,6.6
	c-0.7,0-1.9,0.1-4,0.1c-5.7,0-13.9-0.2-13.9-0.2l-1.4,0v16.3c-0.4,0.3-1.5,0.9-2.2,1.2c-2.1,1-3.7,1.9-3.7,3.3v7.6H0.6z"/>
<path class="st0" d="M26.3,75.1c-0.8-1.3-1.8-2.1-3-2.5c-1.2-0.4-2.6-2.8-3.2-4.4l-0.3-0.9l-2.3,0c-0.6-0.7-1.9-2-3.2-2.7
	c-0.6-0.3-1.2-0.4-2-0.4c-1.4,0-2.8,0.5-3.4,0.7c-0.4,0-1.5,0.2-2.6,0.2c-0.8,0-1.5-0.1-2-0.2c-0.2,0-0.4-0.1-0.6-0.1
	c-0.4,0-0.8,0.1-1.1,0.3c0-0.1,0.1-0.2,0.1-0.2c3.3-5.3,4-9.7,1.8-12.7c-1.1-1.6-0.9-3.1-0.6-4.7c0.2-1.5,0.5-3.2-0.7-4.6
	c-0.3-0.3-0.5-0.6-0.8-0.9c-1-0.9-1.8-1.8-2-3.3h22.4v-9.9c0.4-0.3,1.5-0.9,2.2-1.2c2.1-1,3.7-1.9,3.7-3.3V10.4
	c2.6,0,8.3,0.1,12.6,0.1c5.4,0,5.5-0.1,5.9-0.4c0.7-0.5,0.9-0.6,0.8-6.5c2.3,1.4,8,5.2,15.3,10h-6.6l5.6,52.3l1.8,1.7
	c0,1.2-0.1,2.5-0.2,3.1c-0.6,0-3,0.2-10.7,0.2c-5.4,0-10.7-0.1-10.7-0.1l-0.3,0L41.8,71c-0.5,0.2-2,0.9-3,0.9c-0.4,0-1-0.1-1.5-0.3
	c-0.6-0.1-1.1-0.3-1.6-0.3c-1,0-1.6,0.5-1.8,0.9c-0.2,0.3-0.3,0.5-0.4,0.8c-0.2-0.1-0.4-0.3-0.6-0.5c-1-0.9-2-1.4-2.9-1.4
	c-1.6,0-2.7,1.5-2.7,3.7C27.3,74.8,27,75,26.3,75.1z"/>
<path class="st0" d="M55.8,102c-0.5-0.6-1.6-1.9-2.9-1.9c-0.9,0-1.6,0.5-2,1.4c-0.1-0.1-0.3-0.2-0.4-0.4c-0.1-0.1-0.2-0.7-0.2-1
	c-0.1-0.6-0.2-1.9-1.1-2.5l0.1,0l0.2-0.9c0.2-1-0.6-1.6-1.3-2.1c-0.3-0.2-0.8-0.6-0.9-0.8c0-1.2-1.6-4.9-3.2-5.3l-0.2,0l-0.2,0
	c-0.9,0-1.6,0.7-2.7,1.6c-0.5,0.4-1.2,1.1-1.5,1.3c0.1-0.1-0.3-0.2-0.5-0.3c-0.7-0.3-1.4-0.7-2.2-0.7c-0.8,0-1.5,0.4-2,1.1
	c-0.4-0.2-0.8-0.3-1.4-0.3c-0.4,0-0.7,0.1-1,0.3c0-0.1,0-0.1,0-0.2c0-1.1,0.1-3.8,0-4.7C32.1,85.3,31,84,29,82
	c-0.4-0.4-0.5-1.6-0.5-2.5l0-0.5l-1-1.4c1.8-0.5,2.4-1.8,2.4-2.9c0-0.5,0.1-0.8,0.2-1c0.1,0.1,0.4,0.2,0.9,0.7
	c1.1,1,1.9,1.4,2.7,1.4c1.4,0,2-1.2,2.2-1.8c0.2,0,0.5,0.1,0.7,0.2c0.7,0.2,1.4,0.3,2.2,0.3c1.5,0,3.2-0.7,3.9-1
	c1.2,0,5.7,0.1,10.4,0.1c11.2,0,11.7-0.2,12.1-0.5c0.4-0.2,1.8-0.9,1.5-6.1l0-0.5l-1.8-1.8l-5.1-48.3h7.7
	C86.1,28.7,101,38.7,102,39.6c1.2,1.2,2.8,3.9,3.4,4.9l0.3,0.6l0.7,0.1c0,0,3.4,0.4,5.9,1.8c1.7,1,2.1,3.8,2.1,4.8l0,1.7
	c0,0,3.2-0.7,4.9-1.1c0.1,7.9,0,11.7-0.2,12.7c-0.4,0.5-0.7,1.3-1.1,2.4c-0.2,0.5-0.4,1.4-0.6,1.6c-0.2,0.2-0.3,0.4-0.6,0.7
	c-0.6,0.9-1.1,1.4-2,1.4c-0.9,0-2.3,0.2-3.7,0.4c-1.5,0.2-3.2,0.5-4.3,0.5c-0.2,0-0.5,0-0.7,0c-0.3,0-0.5-0.1-0.8-0.1
	c-1.7,0-3,0.8-3.9,1.3c-0.2,0.1-0.4,0.3-0.6,0.3c-0.2,0.1-1.2,0.2-2.8,0.2c-2.1,0-3-0.2-3.1-0.3c-0.3-0.3-0.9-0.6-1.5-0.6
	c-1,0-2,0.7-3.3,1.6c-0.3,0.2-0.7,0.5-1.1,0.8c-0.9,0.6-1.9,0.8-2.8,1c-1.1,0.2-2.7,0.5-2.7,2.1c-0.2-0.1-0.3-0.1-0.5-0.1
	c-0.5-0.1-1-0.3-1.5-0.3c-1,0-2.3,0.4-2.9,2.6c-0.1,0.2-0.1,0.2-0.5,0.3c-0.6,0.2-1.8,0.6-2.1,2.2c-0.3-0.2-0.7-0.4-1-0.6l-0.6-0.3
	c-0.3-0.2-0.6-0.3-1-0.3c-1.6,0-2.6,1.7-2.8,5.1c-0.4,0.6-1.2,1.8-1.8,3.6c-0.3,0.8-0.9,0.9-2.3,1c-0.5,0-1,0.1-1.4,0.2
	c-1.6,0.6-1,2.5-0.7,3.3c0.1,0.4,0.3,0.9,0.3,1.1c-0.2,0.5-0.8,1.8-1.3,3.5c-0.5,0.1-0.9,0.2-1.3,0.5c-0.1-0.4-0.2-0.8-0.5-1.1
	c-0.4-0.5-1.1-0.7-1.8-0.7c-1.3,0-2.9,0.9-3.2,2.3C56.7,101.4,56.2,101.9,55.8,102z"/>
<path class="st0" d="M71.3,104.8c-0.8,0-2.4-1.6-2.8-2.2c-0.4-0.6-1.2-1.4-2.2-2c0.5-1.4,0.9-2.6,1.1-2.9c0.5-1,0.1-2.1-0.2-3.1
	c0,0,0,0,0,0c1.3-0.1,3.6-0.4,4.5-2.8c0.7-2,1.6-3.1,1.6-3.1l0.3-0.3l0-0.4c0.1-1,0.3-2.1,0.5-2.7c0.9,0.5,1.8,1,2.7,1
	c1,0,2-0.6,2.2-2.3c0-0.2,0.2-0.2,0.3-0.3c0.6-0.2,1.8-0.6,2.2-2.2c0.1-0.5,0.3-0.6,0.3-0.6c0.2,0,0.6,0.1,0.8,0.2
	c0.4,0.1,0.7,0.2,1.1,0.2c1.4,0,2.5-0.8,2.8-2c0.2,0,0.4-0.1,0.6-0.1c1-0.2,2.5-0.5,3.8-1.4c0.4-0.3,0.8-0.5,1.1-0.8
	c0.5-0.4,1.2-0.9,1.6-1c0.3,0.3,1,0.6,2.8,0.8c-0.1,1.5,0.1,2.5,0.9,2.9c0,0,0,0,0,0c-0.1,0,0.1,0.4,0.2,0.6
	c0.3,0.9,0.7,1.9,1.6,2.6l0.2,0.2c0.5,0.4,1.8,1.3,1.9,1.8c0,2.2,0.7,3.4,2.1,3.5c0.1,0.1,0.2,0.3,0.3,0.4c0.4,0.5,0.9,1.2,1.8,1.6
	c0.3,0.1,0.6,0.2,1,0.2c0.4,0,0.8-0.1,1.2-0.2c0,1.1,0,1.9,0.6,2.4l0.4,0.4l0.7,0c0.1,0,0.4,0.1,0.7,0.2c-0.3,0.2-0.7,0.5-1,0.9
	c-0.3,0.2-2.1,0.5-3.7,0.5c-1.1,0-1.9,0.8-2.7,1.5c-0.3,0.3-0.7,0.7-0.9,0.8c0,0,0,0,0,0c-0.7,0-1.6-0.2-2.4-0.4
	c-0.8-0.2-1.5-0.3-2.2-0.4l-0.3,0c-1.2,0-1.9,0.7-2.3,1.3c-1.3-0.4-3.9-0.7-9-0.7c-5,0-5.7,0.5-6.2,1.2c-0.8,1.1-0.2,2.8,0.3,4.6
	c0.1,0.3,0.2,0.6,0.3,0.9c-0.8-0.5-1.9-0.6-2.8-0.6C75,102.9,72.7,103.4,71.3,104.8L71.3,104.8z"/>
<path class="st0" d="M116,91.6c-0.1,0-0.3-0.1-0.5-0.2c0,0,0-0.2-0.1-0.3c-0.1-0.6-0.2-2-1.9-2.5c-0.3-0.1-0.6-0.1-0.9-0.1
	c-0.8,0-1.6,0.4-2.1,1c-0.2,0.3-0.4,0.5-0.5,0.9c0,0-0.1,0-0.1,0c0-0.2,0-0.5,0-0.6c0-1,0-1.6-0.3-2.1l-0.4-0.6l-0.9-0.1
	c-0.4,0-0.8,0.1-1.2,0.3c-0.3,0.1-0.8,0.3-1,0.3c-0.1,0-0.4-0.4-0.5-0.6c-0.4-0.5-0.9-1.3-1.8-1.5c0-0.2,0-0.4,0-0.8
	c0-1.7-1.7-3-3-3.9c-0.5-0.3-0.8-1.1-0.9-1.5c-0.2-0.6-0.5-1.2-0.9-1.6c0-0.2,0-0.4,0-0.9c0.9,0,2.4-0.1,3-0.4
	c0.3-0.1,0.6-0.3,1-0.5c0.7-0.4,1.6-1,2.5-1c0.1,0,0.2,0,0.4,0c0.3,0.1,0.7,0.1,1.1,0.1c1.3,0,3.1-0.3,4.7-0.5
	c1.3-0.2,2.6-0.4,3.3-0.4c2.2,0,3.5-1.6,4.1-2.5c0.1-0.2,0.2-0.3,0.4-0.4c0.6-0.5,0.9-1.5,1.2-2.6c0.2-0.5,0.4-1.3,0.6-1.6
	c0.6-0.4,1-0.7,0.8-15c2.4-0.6,8.4-2.7,8.6-2.8l0.2-0.1l10.6-8.5l23.9-14.9c2.2,0,5.9,0.4,7.3,1.4c2.1,1.4,3.2,3.2,3.2,3.2l0.7,1.1
	l3.8-2c0.1,2,0.2,4.5,0.2,5.1c0,1,0.6,1.9,1.2,2.7c0.6,0.8,1.2,1.6,1.1,2.4c-0.1,1.5,0.5,2.3,0.8,2.9c0.3,0.5,0.4,0.6,0.2,1.2
	c-0.7,2.5-1.1,4.6-1.1,6.4c0,8.4-0.2,12.3-0.4,13.3c-1.6,1.5-8.7,8.7-9.3,12c-0.2,1.2-0.4,1.5-0.6,1.9c-0.4,0.7-0.6,1.3-0.6,3.2
	c0,0.2,0,0.4,0,0.6c-0.9,0.3-1.6,1.2-2.3,2.1c-0.5,0.6-1.2,1.5-1.6,1.6c-0.1,0-0.2,0.1-0.4,0.1c-1,0-2.3-0.7-3.1-1.1
	c-0.7-0.4-1.5-0.5-3-0.5c-0.7,0-1.5,0-2.3,0.1c-0.7,0-1.3,0-1.9,0c-0.3,0-0.6,0-0.8,0l-0.3,0c-1.5,0-2.7,1.1-3.7,2
	c-0.4,0.4-0.8,0.7-1.1,0.9c-0.1,0.1-0.6,0.2-1.7,0.2c-1.2,0-2.4-0.2-2.8-0.3c-0.3-0.1-0.9-0.5-1.4-0.9c-1.5-1-2.4-1.6-3.4-1.6
	c-1.1,0-3.4,0.3-5.4,1.5c0.1-0.1-0.3-0.7-0.5-1.1c-0.3-0.6-0.6-1.2-1-1.6c-0.9-1-2.1-1.1-3.1-1.1c-0.7,0-1.2-0.1-1.6-0.3
	c-0.5-0.4-1-0.6-1.6-0.6c-1,0-1.7,0.6-2.2,1.1c-0.2,0.1-0.4,0.4-0.5,0.4l-0.4-0.1c-0.8-0.1-2-0.3-3.1-0.3c-1.2,0-2,0.2-2.6,0.7
	c-1,0.8-1.2,2.4-1.4,3.8c0,0.3-0.1,0.8-0.2,1C118.2,87.5,116,89.9,116,91.6z"/>
<path class="st0" d="M185.2,117.4c-0.1-0.1-0.8-1.2-1.7-4c-0.6-1.9-1.9-2.9-3.3-4c-0.6-0.4-1.2-0.9-1.8-1.5c-1.2-1.1-1.1-1.6-1-2.3
	c0,0,0-0.1,0-0.1c0.3-0.1,0.8-0.1,1.6-0.1c0.6,0,1.3,0,1.9,0.1c0.3,0,0.6,0,0.9,0c1.8,0,2.9-0.5,3.2-1.5c0.2-0.6,0-1.4-0.9-1.9
	c-0.5-0.5-1.8-3.6-1.7-5.8c0.1-1.7-0.2-2.9-0.5-3.7c-0.2-0.6-0.3-0.9-0.2-1.3c0.2-1.6-1-4.1-2.2-5.5c-0.8-0.9-1.7-1.4-2.6-1.4
	c-0.3,0-0.3,0-0.7-0.7c-0.2-0.4-0.5-0.9-0.9-1.3c-0.2-0.2-0.3-0.3-0.4-0.5c-0.1-0.1-0.2-0.3-0.4-0.4c0-0.4,0-0.8,0-1.2
	c0-1.3,0.1-1.6,0.3-2c0.2-0.5,0.6-1.1,0.8-2.7c0.4-2.3,7.4-9.7,8.6-10.6c0.7-0.5,1.2-0.9,1.2-15.2c0-1.6,0.3-3.5,1-5.7
	c0.5-1.9-0.1-2.9-0.6-3.5c-0.3-0.4-0.4-0.6-0.4-1.1c0.1-1.7-0.9-3.2-1.6-4.2c-0.3-0.4-0.7-0.9-0.7-1.2c0-0.6-0.1-2.6-0.3-6.5l3.7-2
	l42.1,22.6v14.8c0.1,2,0,4-0.2,4.8c-1.9,0.6-5.5,1.8-5.5,4.3c0,2-0.5,2.1-1,2.2c-1.8,0.4-1.9,2.2-2,3.2c0,0.3-0.1,0.9-0.2,1.1
	c-0.1,0-0.2,0-0.3,0c-0.8,0-1.3,0.3-1.7,0.8c-0.6,0.9-0.1,1.9,0.2,2.7c0.1,0.3,0.4,0.9,0.4,1.1c-1.1,1-1.5,2.5-1,3.7
	c0.4,1,1.4,1.6,2.5,1.7c0,0.3,0,0.9-0.1,1.3c0,0.5-0.1,1-0.1,1.6c0,2,1.5,3.4,2.6,4.1l-0.1,0.4c-0.2,0-0.4-0.1-0.6-0.1
	c-1.7,0-3.7,1.3-4.9,2.4c-1,1-1.1,1.9-1.1,2.4l-0.1,0.3c-0.2,0.2-0.5,0.4-0.8,0.7c-1.3,1.2-3.4,3.2-4.9,5.1
	c-0.6,0.8-2.1,0.9-3.4,0.9l-1.6,0c-1.1,0-1.9,0.1-2.6,0.5c-1.3,0.7-1.6,1.8-0.9,3.4c0,0,0,0,0,0c-0.9,0.6-2.6,1.4-3.6,1.9l-0.9,0.4
	c-0.2,0.1-0.9,0.2-1.4,0.2c-1.7,0.2-3.9,0.5-5.1,1.8c-0.1,0-0.1-0.1-0.2-0.1c-0.5-0.3-1.1-0.7-1.8-0.7c-0.5,0-1.3,0.2-1.9,1.1
	C186,117.1,185.5,117.4,185.2,117.4C185.3,117.4,185.2,117.4,185.2,117.4z"/>
<path class="st0" d="M159.5,181.9c-1.2-1.1-1.6-1.8-2-2.7c-0.5-0.9-1-1.9-2.5-3.4c-2.8-2.7-3.7-3.7-3.7-4.4
	c-0.1-0.8-0.6-1.6-1.7-2.8c-0.3-0.4-0.8-1-1.1-1.5c1.5-1.3,2.3-2.6,2.3-4.1c0.2-0.1,0.6-0.2,0.9-0.3c0.8-0.2,1.7-0.5,2.1-1.3
	c0.2-0.4,0.2-0.9,0.1-1.4c-0.3-0.8-1-1.4-1.7-1.9c-0.1-0.1-0.1-0.1-0.2-0.2c0.1-0.1,0.1-0.2,0.2-0.2c1.4-0.2,1.8-0.2,1.9-0.2
	c1.4,0,7.6-0.3,7.8-0.4l1.1-0.1l0.2-1.1c0-0.1,0.4-2.8,0.3-6.5c1,0.1,3.7,0.2,6.6,0.3c-0.3,2.5-0.4,4-0.4,4.6c0,0.6,0.2,1,0.6,1.4
	c0.3,0.3,0.7,0.4,1.2,0.4c0.5,0,1.1-0.2,1.8-0.4c0.7-0.2,1.4-0.4,2-0.4c0.2,0,0.4,0,0.5,0.1c0.3,0.2,0.7,0.6,0.6,1.1
	c0,0.4-0.4,0.9-1.1,1.2c-1.1,0.6-1.8,1.5-1.8,2.6c-0.1,1.8,1.4,3.5,2.8,4.3c0.8,0.5,0.8,1.3,0.8,3.6l0,1.2c0,1.4,0,4.9-0.7,5.4
	c-0.1,0-0.2,0-0.3,0c-0.4,0-0.8-0.2-1.2-0.3c-0.6-0.2-1.2-0.5-1.9-0.5c-0.1,0-0.3,0-0.4,0c-0.1-0.2-0.3-0.6-0.5-0.9
	c-0.5-1.1-1.2-2.6-2.8-2.6c-1.7,0-2.1,1.7-2.4,2.4c-0.1,0.3-0.2,0.7-0.3,0.8l-0.3-0.1l-0.6,0c-0.9,0-2.6,0-3.5,1.3
	c-0.5,0.8-0.6,1.8-0.1,3l0.4,0.9c0.2,0.6,0.5,1.3,0.6,1.8c-0.1,0-0.2,0-0.4,0C161.3,180.8,160.3,181.2,159.5,181.9z"/>
<path class="st0" d="M152.8,154.6c-0.1-0.2-0.3-0.6-0.8-0.8c1-0.4,1.8-1.2,2.2-2.3c0.2-0.5,0.2-0.9,0.2-1.4h6.2
	c0,1.8-0.1,3.3-0.2,4.3c-1.9,0.1-5.5,0.3-6.5,0.3c-0.2,0-0.4,0-1,0.1C152.9,154.8,152.9,154.7,152.8,154.6z"/>
<path class="st0" d="M165.6,188.3c-1-1.8-2.3-3.3-3.9-4.6c0.3-0.1,0.5-0.2,0.7-0.2c0.5,0,2,0,2.8-1.1c0.8-1.2,0.3-2.6-0.4-4.4
	l-0.3-0.9c-0.1-0.4-0.1-0.5-0.1-0.6c0,0,0,0,0.1,0c0.1,0,0.5-0.1,1.2-0.1l1.1,0c1.8,0,2.4-1.5,2.6-2.5c0.1,0.1,0.1,0.2,0.2,0.3
	c0.5,1.1,1.2,2.5,2.7,2.5h0.2c0,0,0.4-0.1,0.4-0.1c0.3,0,0.7,0.1,1,0.3c0.6,0.2,1.3,0.5,2.3,0.5c0.3,0,0.5,0,0.8-0.1
	c2.8-0.6,2.8-4.7,2.8-8l0-1.2c0-2.4,0.1-4.7-2.1-6c-0.9-0.5-1.5-1.4-1.5-1.9c0-0.1,0-0.2,0.3-0.3c1.5-0.7,2.4-1.9,2.6-3.3
	c0.1-1.3-0.5-2.6-1.6-3.5c-0.6-0.5-1.3-0.7-2.2-0.7c-1,0-2,0.3-2.8,0.5c0,0,0,0,0,0c0.1-0.7,0.2-1.7,0.4-3.3c1.2,0,2.3,0.1,3.2,0.1
	c1.7,0,2.3-0.1,2.5-0.1c1.3,0,5,1.6,7.2,2.7l1.8,0.9l0.2-2c0.1-1.3,0.6-3.9,1.5-4.9c1-1.3,1.3-2.9,1.4-4l2.1-0.5l2.3-0.6l3.6,0.5
	c0.1,1.6-0.3,3.2-0.8,4c-0.2,0.3-0.4,0.6-0.6,0.9c-0.9,1.3-1.7,2.6-1.7,5.8c0,1.6-1.1,3.9-2.2,6c-1.1,2.2-2.1,4.3-2.1,5.9
	c0,0.9-1.3,2-2.4,2.9c-1.3,1.1-2.5,2-2.5,3.5c0,0.7-0.1,1.7-0.1,2.9c-0.1,1.9-0.2,4.2-0.2,6.6c0,0.8-0.1,1.1-0.1,1.1
	c-1.4,0.2-2,1.2-2,3.1c0,0.6-0.1,0.9-0.1,1c0,0,0,0-0.1,0c0,0-0.1,0-0.2,0c-0.7,0.1-1.8,0.2-2.8,1.3c-0.1,0.1-0.2,0.2-0.3,0.3
	c-0.4-1.1-1.5-1.9-3-1.9c-1.2,0-2.5,0.5-3.7,1.5c-0.5,0.4-0.8,0.5-0.8,0.5c-0.1,0-0.4-0.2-0.6-0.4c-0.3-0.2-0.7-0.5-1.2-0.7
	l-0.2-0.1l-0.3,0C170,186.1,169.1,186.1,165.6,188.3z"/>
<path class="st0" d="M275.1,139c-0.7-0.5-1.6-1-2.6-1c-1.2,0.1-3,0.7-4,1c-2.6-2.4-5.4-4.6-6.1-5.1c-0.4-0.3-0.9-0.4-1.4-0.4
	c-0.8,0-1.5,0.3-2.1,0.6c-0.5-0.3-1.2-0.6-2-0.6c-0.8,0-1.6,0.3-2.2,0.9c-0.2,0.2-0.3,0.2-0.6,0.2c-0.5,0-1.1-0.3-1.2-0.4
	c-0.1,0-1.4-0.9-1.9-2.2c-0.4-1-1.1-1.5-1.6-1.9l-1.3-3.3l-0.5-0.2c-1.3-0.6-2.7-1.4-3.1-1.8c0-1.4-0.3-2.8-2.6-4.6
	c-0.8-0.7-1.5-1.1-2.1-1.5c-0.4-0.3-0.9-0.6-1-0.7c0-1.1-0.6-1.8-1.5-2.8c-0.3-0.4-0.7-0.8-1.2-1.4c-1.5-1.8-3.5-2.3-4.7-2.5
	l-0.7-1.7l-1.7-0.2c0.5-0.4,0.9-0.9,1.1-1.5c0.5-1.5-0.3-3-0.9-4.2c-0.1-0.3-0.3-0.5-0.3-0.7c-0.3-1-2.5-3.7-4-5.5l0.8-2.8l-1-0.5
	c-0.7-0.3-2.1-1.4-2.1-2.3c0-0.5,0-0.9,0.1-1.3c0.1-1.3,0.2-2.6-0.6-3.5c-0.3-0.3-0.9-0.7-1.9-0.7c-0.2,0-0.2-0.4,0.3-0.8
	c1.3-1.3,0.6-3,0.2-3.9c1.9-0.5,2-2.5,2.1-3.4c0-0.2,0-0.6,0.1-0.8c3-0.7,3-3.8,3-4.8c0.1-0.1,0.5-0.8,3.6-1.8l0.4-0.1
	c0.7-0.2,2-0.7,1.6-7.3l0-17.2h5.3V34h33.8l2.4-1.6c0,0.1,0.6,0.5,1,0.8l0.4,0.4l7.4,0c0.7,0.7,2,1.7,3.6,1.7c1.6,0,2.2-1.3,2.5-1.9
	c0.3-0.7,0.3-0.8,0.9-0.8c2.4,0,3.2-2.1,3.6-3.3c0.1-0.2,0.2-0.6,0.3-0.8l0.6,0c0.9,0,1.4-0.3,2-0.9c0.7,1.1,1.7,2,2.9,2.7
	c2.3,1.3,4.2,3.9,4.3,4.9c0,0.4,0.2,1,0.3,1.7c0.4,1.8,0.9,4.4,0.9,7.5c0,5.1,1.6,9,4.2,10.1c0.4,0.2,1.3,0.9,2.4,2.1
	c-1.2,1.6-2.6,2.5-3.5,3.1c-0.5,0.4-0.9,0.6-1.2,0.9c-0.2,0.2-0.6,0.4-1,0.7c-1.1,0.6-2.9,1.6-2.5,3.7c0.2,0.9,0.1,2.2-1.8,4.5
	c-1.9,2.2-1.3,5.1-0.9,7.5c0.1,0.5,0.2,0.9,0.2,1.3c0.2,1.1-0.5,2.4-1.1,3.6c-0.5,1.1-1,2-1,2.9c0,0.7-0.8,1.4-1.1,1.5l0,0
	c-1.4,0-2.2,1.3-3.1,2.7c-0.5,0.7-0.9,1.4-1.4,1.9c-1.1,1.1-1.2,2.6-1.3,3.8c0,0.6-0.1,1.6-0.3,1.7c-0.4,0.3-0.8,0.5-1.2,0.7
	c-0.9,0.5-1.9,1-2,2c-0.1,0.4,0,0.9,0.4,1.5c-0.1,0.3-0.4,0.7-0.6,1c-0.6,1-1.4,2.2-1.4,3.6c0,1.6-0.2,3.9-0.4,5c0,0-0.1,0-0.1,0
	c-0.4,0-0.8,0-1.3,0c-3,0-3.5,1.5-3.5,2.4c0,0.3-0.1,0.4-0.4,0.7c-0.4,0.5-1.3,1.5-0.5,3c0.6,1.2,2,1.6,3.3,1.9
	c0.6,0.2,1.8,0.5,1.9,0.8c0.4,1,1.3,1.9,2.3,2.9c1.1,1.1,2.2,2.1,2.7,3.4c1.1,2.9,3.7,4.6,5.7,5c0,0.3-0.1,0.8-0.2,1.2
	c0,0.1,0,0.2-0.1,0.3c-0.6-0.3-1.3-0.5-2.1-0.5c-0.6,0-1.2,0.1-2,0.2c-1.4,0.3-5.1,2.2-5.6,4c0,0,0,0,0,0c0,0-0.1,0.1-0.3,0.3
	c-0.2,0.2-0.4,0.3-0.6,0.5c-0.7,0.5-1.3,1-1.6,1.7c-0.1,0-0.2,0-0.4,0c-0.6,0-1.1-0.1-1.4-0.3c-0.4-0.2-0.8-0.3-1.3-0.3
	c-1.2,0-3,0.6-4,1.5C275.2,139.1,275.1,139.1,275.1,139z"/>
<path class="st0" d="M331.6,97.2c-0.3-0.8-0.5-2.3,0.1-3c0.9-1,1.8-2.5,2.4-3.4c0.4,0,0.7,0.1,1,0.1c0.9,0,1.6-0.3,2.1-0.9
	c0,0,0.1-0.1,0.3-0.2l0,0c0.4,0.4,0.7,0.8,0.9,1.1c-1.5,0.4-3.7,1.7-4.1,3.1c-0.2,0.6,0,1.3,0.4,1.7c0.4,0.4,0.9,0.5,1.5,0.7
	c0.1,0,0.2,0.1,0.3,0.1c-0.1,0.1-0.2,0.3-0.3,0.4c-0.5-0.4-1.1-0.6-1.7-0.6c-0.5,0-1,0.2-1.5,0.5C332.6,97,332.1,97.2,331.6,97.2
	C331.7,97.2,331.6,97.2,331.6,97.2z"/>
<path class="st0" d="M335.2,88.2c-0.2,0-0.5,0-0.9-0.1c-8.5-9-11.1-11.2-12.1-11.7c0.1,0,0.3,0,0.4,0c1.4,0,4.8,1.8,7.9,5.7
	c1.8,2.3,3.5,4.2,5,5.7C335.5,88,335.4,88.1,335.2,88.2L335.2,88.2z M305.6,77.2c-0.6-0.2-1.4-0.3-2.5-0.3c-0.4,0-0.9,0-1.3,0
	c0-0.1,0-0.1,0-0.2c-0.4-2-0.7-4,0.3-5.2c2.1-2.5,2.8-4.6,2.4-6.8c0.1-0.3,0.8-0.6,1.1-0.8c0.6-0.3,1.2-0.6,1.7-1.1
	c0.2-0.2,0.4-0.3,0.8-0.6c0.9-0.6,2.4-1.6,3.7-3.2c1.1,1.6,1.8,3.1,1.8,4.1c0.1,3.1,3,9.3,5.4,9.6c-0.1,0,0.1,0.5,0.3,0.8
	c0.5,0.9,1.1,2.1,2.3,2.6c-0.2,0-0.4,0-0.7,0c-0.5,0-1.2,0-1.9,0.1c-0.7,0-1.3,0.1-1.9,0.1c-0.5,0-0.7,0-0.7,0
	c-0.1,0-0.2-0.1-0.2-0.1c-0.3-0.2-0.7-0.4-1.3-0.4c-0.5,0-1.1,0.2-2,0.6c-0.2,0.1-0.4,0.1-0.4,0.1c-0.2,0-0.6-0.4-0.9-0.7
	c-0.2-0.2-0.5-0.5-0.7-0.7c-0.8-0.7-1.5-1-2.3-1c-0.7,0-2,0.3-2.6,2.3C305.8,76.6,305.7,76.9,305.6,77.2z"/>
<path class="st0" d="M316.5,139.8c-1.8-0.6-5.9-1.1-6.6-1.1c-0.8-0.1-4.3-2.2-5.7-3.4c-1.1-1-3-1.1-4.6-1.2c-0.5,0-1.3-0.1-1.5-0.1
	c-0.2-0.1-0.6-0.3-1-0.4c0.1-0.4,0.1-0.8,0.2-1.2c0.3-1.8,0.5-2.8-0.2-3.6c-0.3-0.4-0.9-0.6-1.4-0.6c-0.8,0-3.1-1-4-3.3
	c-0.7-1.9-2.1-3.3-3.3-4.4c-0.7-0.7-1.4-1.4-1.6-1.9c-0.6-1.6-2.4-2-3.8-2.4c-0.5-0.1-1.2-0.3-1.5-0.5c0,0,0,0,0,0
	c0.4-0.4,1-1.1,1.1-2.2c0.2,0,0.4-0.1,0.8-0.1c0.4,0,0.8,0,1.1,0c0.3,0,0.6,0,0.9,0c0.3,0,1,0,1.4-0.5c1.1-1.1,1.1-7.2,1.1-7.3
	c0-0.6,0.5-1.4,1-2.1c0.6-0.9,1.4-2.3,0.9-3.4c0.1,0,0.2-0.1,0.2-0.1c0.5-0.3,1.1-0.6,1.6-1c1.2-0.9,1.3-2.4,1.4-3.7
	c0.1-0.8,0.1-1.7,0.5-2.1c0.7-0.7,1.3-1.6,1.8-2.4c0.3-0.5,0.8-1.2,1-1.4c1.8-0.2,3.6-2.2,3.6-4.2c0-0.3,0.4-1.1,0.7-1.6
	c0.6-1.1,1.2-2.4,1.4-3.8c0.4,0,0.8,0,1.1,0c0.9,0,1.3,0.1,1.5,0.1c0.4,0.4,0.9,0.6,1.4,0.6c1.5,0,2-1.6,2.5-3.1
	c0-0.1,0.1-0.3,0.1-0.3c0.1,0.1,0.2,0.1,0.4,0.3c0.2,0.2,0.4,0.3,0.5,0.5c0.6,0.6,1.5,1.5,2.8,1.5c0.5,0,1.1-0.1,1.7-0.4
	c0.4-0.2,0.6-0.3,0.7-0.3c0.2,0.1,0.4,0.3,0.7,0.4c0.4,0.2,0.9,0.2,1.7,0.2c0.6,0,1.3,0,2.1-0.1c0.6,0,1.3-0.1,1.8-0.1
	c0.2,0,0.4,0,0.5,0c0.7,0.4,5.9,5.6,10.6,10.5c-0.6,0.9-1.4,2.2-2.2,3c-1.7,1.9-1,5.1-0.4,6.3c0.4,0.8,1.2,1.2,2.3,1.2
	c1,0,2-0.3,2.8-0.9c0,0,0,0,0,0c0,0,0.1,0,0.2,0.1c-0.4,0.8-0.7,1.6-0.3,2.4c0,0.1,2.4,5,4.2,5.8c0.2,0.1,0.8,0.8,1.2,1.2
	c0.9,1.1,1.8,2.1,2.9,2.3c1,0.2,7.3,2.3,11.3,4c4.5,1.8,7.3,1.9,8.3,1.9c-3.6,3.4-12.8,12.8-14,14.1c-0.7,0.7-1,0.8-1.9,0.8
	c-0.3,0-0.7,0-1.1,0c-0.6,0-1.4-0.1-2.3-0.1c-2.8,0-5.1,1.9-6.6,3.1c-0.3,0.3-0.8,0.6-1,0.8l-0.1,0c-1,0-3.2,0.4-4.7,0.8
	c-2.4,0.5-3,0.8-3.2,0.9c0,0,0,0,0,0c-0.4,0-0.8-0.3-0.9-0.5c-0.2-0.4-0.7-1.2-2.1-1.2c-1.4,0-3.4,0.8-4.7,1.6
	c-1.2,0.7-2,1.6-2.6,2.3C316.7,139.5,316.6,139.6,316.5,139.8z"/>
<path class="st0" d="M315.1,186.4c-3.2-2.2-6.3-4.4-7.5-5.4l0.3-3.6L286.3,166c0.1-0.5,0.4-0.7,1.6-1.1c0.9-0.3,2.2-0.8,2.4-2.1
	c0.2-1.3-0.9-2.4-3.3-3.2c0.6-1.3,0.8-1.6,0.9-1.7c1.3-1.3,3.8-4.5,4.2-7.5c0.3-2.4,0.3-4.7,0.3-4.8V145l-2.4-2.1l-0.6-4.1l-2-1.8
	c0.1-0.2,0.1-0.3,0.2-0.5c0.3-0.5,2.6-1.8,3.5-2c0.5-0.1,1-0.2,1.4-0.2c0.4,0,0.7,0.1,0.7,0.1c0.6,0.7,1.7,1.1,2.6,1.5
	c0.4,0.1,0.8,0.3,1,0.4c0.6,0.4,1.5,0.4,2.6,0.5c0.9,0,2.5,0.1,2.9,0.5c0.9,0.8,5.5,4.1,7.5,4.1c1.2,0,5.2,0.6,5.9,0.9
	c0.2,0.2,0.6,0.3,0.9,0.3c1,0,1.6-0.7,2.3-1.5c0.5-0.6,1.2-1.3,1.9-1.8c1.3-0.7,2.6-1.2,3.3-1.2c0.6,1,1.9,1.7,3.1,1.7
	c0.1,0,0.2,0,0.3,0l-0.6,0.9l-2.9,4.5l0.3,21.2l2.5,4c-0.5,0.8-0.7,0.9-0.7,0.9l-0.3,0c-0.8,0-1.4,0.3-2,1c-0.3,0.4-0.6,0.5-1.1,0.8
	c-0.8,0.4-1.7,0.9-2.6,2.3C319.4,176.5,317,181.6,315.1,186.4z"/>
<path class="st0" d="M262,167.4c0.1-0.7,0.2-1.6,0.2-2.5c0-1.5,0.3-3.2,0.9-4.4c0.3-0.7,0.5-1.5,0.6-2.1c0.1-0.5,0.2-1.3,0.4-1.4
	c0.8-0.6,1.1-1.4,1.3-2.1c0.1-0.3,0.3-0.8,0.4-0.9c0.8-0.2,3-0.9,3.3-2.7h0c0,0,0.2-0.3,0.4-0.4c0.5-0.6,1.3-1.5,1.3-2.7
	c0-1.2-0.8-1.9-1.4-2.3c-0.2-0.1-0.5-0.4-0.5-0.5c0-0.8,0.2-2.7,0.4-3.9c1.1-0.4,2.6-0.8,3.2-0.9c0.2,0,0.8,0.4,1.1,0.6
	c0.7,0.4,1.3,0.8,2,0.8c0.6,0,1.1-0.3,1.4-0.8c0.2-0.3,1.6-0.9,2.4-0.9c0.7,0.3,1.7,0.5,2.6,0.5c2.4,0,2.8-1.3,2.9-1.8c0,0,0,0,0,0
	c0.1,0,0.3-0.1,0.5-0.3l1.4,1.3l0.6,4.1l2.2,2c0,0.8-0.1,2.4-0.3,3.9c-0.2,1.8-1.9,4.4-3.4,5.9c-0.3,0.3-0.8,1-1.6,2.9
	c-1.3-0.2-2.5-0.4-3.7-0.4c-1.3,0-2.4,0.1-3.4,0.4c-2.3,0.7-3.9,3.6-4.9,6.2l-3.9,0.3c-1,0.2-5.1,1.3-6.3,1.9
	C262.1,167.4,262,167.4,262,167.4z"/>
<path class="st0" d="M350.4,309.5c-2.2,0-5.5-1.4-6.8-2.8c-1.1-1.1-1.6-3.4-2-5.5c-0.4-1.7-0.8-3.4-1.4-4.9c-1.4-3.1-1.6-7.9,2-12.2
	c4.6-5.5,3-9.3,1.6-13c-1.7-4.2-1.9-6.9-0.7-9.1c0.9-1.6,1-3.6,1.1-5.2c0-0.6,0.1-1.3,0.2-1.7c0.1,0,0.3,0,0.4,0
	c1.1,0,2.3-0.4,3.3-0.8c1-0.3,1.9-0.7,2.8-0.7c0.1,0,0.3,0,0.4,0c0.2,0,0.3,0,0.5,0c1.7,0,3.3-1.2,4.9-2.4c1-0.8,2.2-1.6,2.8-1.7
	c2.2-0.2,4.4-1.4,5.3-2.9c0.5-0.9,0.5-1.8,0-2.6c0,0,0,0,0,0c0.4-0.5,0.8-1.4,0.3-2.8c-0.1-0.2,0-0.3,0-0.3c0.2-0.2,0.7-0.5,1.3-0.5
	l0.6,0c1.3,0,2.8-0.7,3.6-1.7c0.6-0.7,0.9-1.5,0.8-2.3c-0.1-1.2,0.2-2.6,0.5-2.9c0.2-0.2,0.3-0.4,0.5-0.7c0.2,0.4,0.5,0.8,0.7,1.3
	c1.1,1.8,2.4,4.1,2.5,6.3c0.1,2,0.7,4,1.3,5.8c0.6,1.8,1.1,3.5,0.9,4.6c-0.1,0.6-0.3,0.9-0.4,1c0-0.1-0.2-0.3-0.5-0.8
	c-0.6-1.1-1.4-1.3-2-1.3c-0.4,0-1.1,0.1-1.7,1c-0.8,1.2-0.9,3.3-0.2,5.1c0.3,0.8,0.1,1.4-0.4,2.5c-0.4,0.9-0.9,2.1-0.7,3.5
	c0.3,2.2-4.2,15.8-6.2,21.6c-0.9,2.6-1.8,5.6-2.7,8.7c-1.8,6-4.1,13.4-5.3,14.8c-0.7,0.8-1.2,0.8-2.2,0.8c-1,0-2.3,0-3.6,1.3
	C351.6,309.4,351.1,309.5,350.4,309.5z"/>
<path class="st0" d="M258.4,236.9c-0.4,0-0.7-0.1-0.8-0.2c-0.8-0.6-1.6-2.6-1.7-3.4c0.3,0.2,0.6,0.4,1,0.5c0.3,0.1,0.7,0.1,1,0.1
	c1,0,1.9-0.4,2.5-0.8c0.1,0.7,0.1,1.6,0.1,2.2c0,0.7-0.2,1.1-0.4,1.3C259.8,236.7,259.1,236.9,258.4,236.9z M253.9,230.9
	c-1.2-0.3-2.6-0.3-3.7-0.3c-0.2-0.1-0.9-0.8-1.8-2.5c-0.4-0.7-1-1.1-1.8-1.1c-1.1,0-2.4,1-2.7,2.1c-0.4,0-0.9,0-1.3,0
	c-0.3,0-1.1-0.4-1.6-0.6c-1-0.5-1.9-0.9-2.8-0.9c-0.2,0-0.3,0-0.5,0.1c-0.2-0.3-0.4-0.8-0.3-1.1c0.1-0.5,0-1-0.3-1.5
	c-0.4-0.5-0.9-0.7-1.7-0.7c-0.9,0-2.2,0.4-3,0.7c0-0.1-0.1-0.2-0.1-0.2l0-0.2l-0.1-0.1c-0.1-0.1-0.8-1.4-2.1-2
	c-0.5-0.2-1-0.3-1.4-0.3c-0.4,0-0.8,0.1-1.2,0.3c-0.9,0.4-1.7,0.4-2.5,0.4c-0.3,0-1.6,0-2,0c-0.9,0-1.6,0.3-2.1,0.7
	c0.1-0.6,0.2-1.3,0.3-1.7l0.1-0.4c0.4-2-1.8-4.6-3.1-5.7c-0.1-0.7,0.4-2.5,0.6-3.5c0.6-2.3,0.9-3.7,0.1-4.6
	c-0.2-0.2-0.6-1.3-0.6-3.6c0-2.2-1.7-2.4-2.2-2.4c-0.3,0-0.7,0.1-1.1,0.1c-0.5,0.1-1.1,0.2-1.8,0.2c-1.2,0-1.5-0.4-1.5-0.4l-0.2-0.8
	l-0.8,0c-0.1,0-1.5-0.4-3-0.4c-1,0-1.8,0.2-2.5,0.5c-1.4,0.7-1.8,2.5-2.1,4.1c-0.1,0.2-0.1,0.5-0.2,0.8c0,0-0.1,0-0.1,0
	c-1.5,0-4,0.5-6.2,1.1c-0.3,0.1-0.6,0.2-0.9,0.2c-0.7,0-1.2-0.5-2.3-2.9c-0.7-1.7-1.5-2.4-2.1-2.8c-0.1-0.1-0.2-0.1-0.2-0.2
	c0,0,0-0.2,0.1-0.4c0.6-2.7-1-5.5-1.2-5.8l-0.4-0.6l-0.8,0c0,0-7.4-0.1-12.9-0.1c-4.4,0-5.4,0.1-5.8,0.1c-0.4,0.1-1,0.2-2.2,0.9
	c-0.3-1.4-0.7-2.8-1.3-4.2c1.8-1.1,2.9-1.7,3.4-1.9c0.1,0.1,0.2,0.1,0.2,0.2c0.5,0.4,1.2,0.9,2.2,0.9c0.8,0,1.7-0.4,2.5-1.1
	c0.6-0.5,1.4-0.8,1.9-0.8c0.3,0,0.4,0.1,0.4,0.1c0,0.7,0.1,1.1,0.2,1.4c0.3,0.7,0.9,1.1,1.6,1.1c0.9,0,1.7-0.6,3-1.9
	c0.4-0.4,0.7-0.4,1.2-0.5c1.6-0.2,2.7-0.9,2.7-3.7c0-0.3,0-0.5,0-0.7c1.5-0.4,2.1-1.5,2.1-3.5c0-2.3,0.1-4.6,0.2-6.4
	c0.1-1.3,0.1-2.4,0.1-3.1c0.1-0.2,1-0.9,1.5-1.4c1.5-1.2,3.4-2.7,3.4-5c0-1,0.9-2.9,1.8-4.8c1.2-2.5,2.4-5,2.4-7.2
	c0-2.4,0.5-3.2,1.3-4.3c0.2-0.3,0.4-0.6,0.6-1c0.8-1.4,1.5-4.1,1-6.8l0-3.1c1.3-1.7,3.5-3.7,4.6-3.7c1.4,0,3,1.9,3.4,2.6l0.3,0.5
	l12.7,2.5l0.3-1.3c0.3-1.3,0.9-2.8,1.2-3c0.3,0,0.7,0.1,1.1,0.2c0.5,0.1,1.1,0.2,1.8,0.2c0.6,0,1.1-0.1,1.6-0.4
	c1.4-0.7,3.2-1.6,5.4-1.6c0.7,0,1.2,0.1,1.7,0.2c0.5,0.1,0.9,0.2,1.4,0.2c1.7,0,2.4-1.4,2.7-1.9c0,0,0,0,0,0c0,0,0.2,0,0.4,0
	c1.3,0,3.4,1,4.1,1.3l0.4,0.2l4.3-0.7c0.1,0.1,0.2,0.2,0.2,0.4c0.8,2.1,2.8,3.3,3,3.5c0.1,0.1,1.3,0.8,2.7,0.8c1,0,1.8-0.4,2.5-1
	c0.2-0.2,0.2-0.2,0.3-0.2c0.3,0,0.8,0.3,1,0.5l0.9,0.8l0.9-0.7c0.4-0.3,1-0.6,1.3-0.6c0.5,0.4,3.2,2.5,5.8,4.8
	c-0.1,1.1-0.4,3.4-0.4,4.5c0,1.4,1,2.1,1.5,2.6c0.1,0.1,0.4,0.3,0.4,0.4c-0.1,0-0.5,0.5-0.7,0.8c-0.4,0.5-0.9,1-1,1.7c0,0,0,0,0,0
	c0,0-0.4,0.3-1.4,0.6c-1.3,0.4-1.8,1.6-2.1,2.5c-0.1,0.3-0.3,0.8-0.4,0.9c-1,0.8-1.3,2-1.4,3.1c-0.1,0.6-0.2,1.1-0.4,1.5
	c-0.7,1.5-1.1,3.6-1.1,5.5c0,1.8-0.3,2.9-0.6,3.3c-1.8,0.7-2.1,2.8-2.2,4.2c-0.7,0.5-1.2,1.3-1.2,2.5c0,1.2,0.6,2.1,1.6,2.7l0.1,1.8
	c-0.7,0.6-0.9,1.7-0.9,2.9c-0.3,3.5,0.3,18.5,3.7,20.4c0.9,0.5,1.9,2.3,2.7,3.8c0.2,0.3,0.4,0.6,0.5,1c0,0,0,0.1-0.1,0.1
	c-0.1,0.1-0.7,0.5-4.2,0.5l-1.7,0c-0.9,0-1.5,0.4-1.8,0.7c-0.7,0.7-0.7,1.7-0.6,2.5c0,0.3,0,0.8,0,0.9c-1.2,0.9-1.9,2.2-1.7,3.4
	c0.1,0.7,0.4,1.2,0.9,1.6c0.1,0.6-0.2,2.1-0.3,3c-0.2,0.9-0.3,1.8-0.3,2.4c0,0.4-0.4,1.4-0.7,2.1c-0.7,1.7-1.3,3.4,0,4.3
	C252.8,229.1,253.7,230.6,253.9,230.9z"/>
<path class="st0" d="M261,184.7c-0.4-1.7-0.7-3.2-1-4l-0.2-2.6c0.4,0.1,0.7,0.1,1,0.1c1.4,0,2.2-0.6,2.6-1c0.2-0.3,0.4-0.5,0.5-0.8
	c0.1,0,0.3,0,0.4,0c0.1,0.8,0,1.4,0,1.4l-0.1,0.9l1.1,0.7c-1.4,2.5-2.8,4.6-3.4,5C261.8,184.3,261.5,184.4,261,184.7z"/>
<path class="st0" d="M275.5,317.9c-0.3-2.2-0.5-4.4-0.5-4.9c0-0.1,1.5-10.1-1.2-11.7c-0.6-0.6-1.7-5.1-2.1-7
	c-0.3-1.2-0.5-1.9-0.6-2.4c0.3-0.3,0.6-0.6,1-0.9c1.8-1.7,3.4-3.2,4.2-4.3c1-1.4,1.1-3,1.1-4.1c0-0.4,0-1,0.1-1.2
	c0.9-0.5,4-3.5,3.8-5.3c-0.1-0.5-0.4-0.9-0.8-1.2c0-0.2-0.1-0.4-0.1-0.5c-0.1-0.9-0.3-2.3-1.4-3.5c0.1-0.1,0.2-0.3,0.3-0.4
	c0.7-0.8,1.7-2,1.5-3.9c-0.1-1,0-2.6,0-4.1c0.1-3.6,0.2-5.1-0.9-5.8c-0.5-0.3-1.2-0.5-2.2-0.7c-1.3-0.3-3.1-0.7-4.4-1.5
	c-1.9-1.3-5.3-1.8-7-1.9l-1.1-4c5-1.9,12-4.5,14-5.1c0.2,0.1,0.4,0.3,0.6,0.5c1.4,1.3,2.4,2.1,3.4,2.1h0.1l0.2,0
	c0.2,0,0.6-0.1,0.9-0.2c0.5-0.2,1.2-0.4,1.7-0.4c0.2,0,0.3,0,0.3,0c0.3,1.2-0.2,3.1-0.6,4.4c-0.4,1.5-0.7,2.5-0.4,3.3
	c0.1,0.3,4.3,7.9,6.4,7.9h0.9l0.4-0.9c0.3-0.6,0.1-1.3,0-2.2c-0.1-0.9-0.3-2.1,0.1-2.5c0.2-0.2,0.5-0.3,0.9-0.3
	c1.8-0.4,2.9-1.2,2.7-4.4c-0.1-1.6,0.1-2.4,0.3-3c0.3-1.2,0.4-2-0.8-3.5c-0.6-0.8-1.7-1.8-3.2-3.1c-0.2-1.1-0.6-2.5-1.1-4
	c-0.8-2.3-1.8-5.5-1.3-6.9c0.1-0.3,0.2-0.6,0.3-0.9c0.8,0.1,1.6,0.2,2,0.2c0.6,0,1.1-0.2,1.6-0.5c0.4-0.2,0.7-0.3,1-0.3
	c0.1,0,0.2,0,0.3,0.1c0.2,0.5,0.6,1.8,2.3,1.8c0.8,0,1.8-0.2,2.7-0.4c0.7-0.1,1.5-0.3,1.9-0.3c0.6,0.1,1.5,0.3,2.4,0.3
	c2.1,0,2.5-1.2,2.6-1.7c0.1-0.5,0.2-0.9,0.3-1c0.2,0.1,0.3,0.1,0.5,0.2c0.5,0.2,1.1,0.5,1.8,0.5c0.8,0,1.5-0.3,2.2-0.9
	c0.2-0.2,0.5-0.2,1.1-0.2l0.9,0c0.4,0,1.8,0,2.4-1.2c0,0,0,0,0,0c0.1,0,0.8-0.5,3.5-1.8c0.1,1.2,0.1,2.5,0.2,3.8
	c0.2,2.9,0.4,6.3,0.2,7.8c-0.4,3.1,0.9,10.2,1.5,11.8c-0.1,1.1-5.2,8.3-8.4,10.2c-1.4,0.8-2.9,1.3-4.5,1.8c-2.2,0.7-4.5,1.4-6.7,3.1
	c-2.2,1.7-3.2,3.1-4,4.3c-0.6,0.9-1.1,1.6-1.9,2.2c-0.8,0.6-1.4,0.8-2,1c-1,0.3-2.2,0.7-3.2,2.5c-0.2,0.4-0.4,0.8-0.6,1.2
	c-0.2,0.5-0.5,1-0.6,1.1l0,0c0,0-0.1,0-0.3,0c-0.8,0.1-1.5,0.4-2,1.1c-0.7,1.1-0.8,2.7-0.2,4.9c0.3,1.1,0.7,1.8,1.2,2.5
	c0.6,1.1,1.2,2.2,1.6,4.5c0.2,1.8,0.6,3.1,0.8,4c0.4,1.4,0.5,1.8,0.2,2.5c-0.4,1.2-0.4,3.1-0.4,5c0,1.3,0,2.7-0.2,3.3
	c-0.3,1.1-1.9,1.9-6.3,3.6c-0.1,0-11.2,4.2-9.7,8.3c0.3,0.7,0.8,1.6,2.2,1.6c0,0-0.1,1-0.1,1.6C276.7,317.8,276.1,317.8,275.5,317.9
	z"/>
<path class="st0" d="M298.7,227.8c-0.2-0.5-0.6-1.2-1.7-1.6c-0.4-0.1-0.8-0.2-1.2-0.2c-0.9,0-1.7,0.3-2.2,0.6
	c-0.2,0.1-0.4,0.2-0.5,0.2c-0.2,0-0.9-0.1-1.9-0.2c-0.2-3.7-1.7-8.9-3.5-10.8c-0.6-0.6-1.2-0.9-1.9-0.9c-0.4,0-0.8,0.1-1.2,0.3
	c-0.4,0-0.8,0-1.2,0c-0.5,0-1,0-1.5,0c-1.1-1.4-6.9-3.5-8.1-3.7c-0.4-0.1-1.2-0.5-1.9-0.8c-0.7-0.4-1.4-0.7-2.1-1
	c0-0.1,0-0.1,0.1-0.2c0.3-1.2-0.4-2.3-1.1-3.3c-0.4-0.5-0.7-1.1-0.9-1.5c-0.1-0.4-0.2-0.9-0.3-1.5c-0.3-1.8-0.6-4.3-3.1-6.5
	c-1.2-1.1-2.2-6-2.9-9.2c1.1-0.7,1.4-0.8,1.4-0.8c1.7-0.7,4.1-4.9,5.3-7.3l0.6-1.1l-1.9-1.1c0-0.3,0-0.7-0.1-1.2
	c0.9-0.3,1.8-0.8,2-1.9c0.4-1.8-0.8-4.2-1-4.7l-0.4-1c0.7-0.2,1.2-0.3,1.2-0.3l2.5-0.2c-0.7,2.7-1.3,6.2-0.2,7.8
	c0.4,0.6,1,0.9,1.7,0.9c0.3,0,0.6-0.1,0.9-0.2c0.5-0.2,1-0.3,1.7-0.3c1.1,0,2.4,0.3,3.6,0.5c1,0.2,2,0.4,2.9,0.4
	c0.3,0,0.5,0,0.8-0.1c1-0.2,1.4-0.8,1.5-1.1c0.4-1-0.2-1.9-0.8-2.6c-0.1-0.1-0.1-0.2-0.2-0.3c1.2-0.8,2.1-2.3,2.6-4.1l19,10.1
	l-0.3,3.4l0.6,0.4c0,0,4.3,3.1,8.7,6.2c-2.6,6.7-2.3,7.9-2.2,8.4c0.4,1.6,1.6,2.5,2.5,3.2c0.3,0.2,0.7,0.5,0.8,0.7
	c-0.6,0.6-2.2,3.3-1.6,5c0.2,0.5,0.5,0.8,0.9,1c0.1,0.6,0.1,2,0,2.9l0,0.6c-0.1,1.6,0.6,2.5,1.1,3.2c0.5,0.7,0.9,1.3,1,2.7
	c0.1,2.5,1.7,3.3,2.8,3.8c0.5,0.2,0.8,0.4,0.9,0.6c-4.1,1.9-5.1,2.6-5.4,3.1c0,0-1,0-1,0c-0.8,0-1.9,0.1-2.9,0.9
	c-0.2,0.1-0.3,0.2-0.4,0.2c-0.1,0-0.4-0.1-0.7-0.3c-0.3-0.2-0.7-0.3-1-0.4c-0.2-0.1-0.5-0.1-0.7-0.1c-1.3,0-2.3,1.1-2.8,2.8
	c0,0,0,0-0.1,0c-0.6,0-1.3-0.1-1.7-0.2c-0.3-0.1-0.4-0.1-0.6-0.1c-0.6,0-1.5,0.2-2.4,0.4C299.9,227.6,299.2,227.8,298.7,227.8z"/>
<path class="st0" d="M290.4,256.2c-1.1-1.5-2.2-3.2-2.4-3.7c0-0.1,0.3-1,0.5-1.7c0.5-1.7,1.1-3.8,0.7-5.5c-0.3-1.5-1.4-2.4-3-2.4
	c-0.9,0-1.8,0.3-2.5,0.5c-0.2,0.1-0.4,0.1-0.6,0.2c-0.1-0.1-1-1-1.5-1.4c-0.5-0.5-0.9-0.8-1.3-1c-0.1-0.2-0.5-1-0.6-1.1
	c0.6-1.3,0.8-3.7,0.8-5.2c0.1,0,0.2,0,0.3,0c0.8-0.1,1.8-0.2,2.1-1.2c0.1-0.4,0.2-1.1-0.5-1.9c-0.6-0.9-0.5-6.2,0-7.7l0.4,0
	c0.7,0,1.2-0.3,1.5-0.8c0.2,0.4,0.4,0.9,0.6,1.4c0.8,1.7,0.4,2.9-0.1,4.6c-0.4,1.4-0.9,3-0.7,5.1c0.4,3.5,3.8,10.3,6.8,10.3l0,0
	c0.5,0,1-0.2,1.4-0.5c0.9,0.8,1.5,1.5,1.9,1.9c0.4,0.5,0.4,0.5,0.3,1.1c-0.2,0.7-0.5,1.8-0.4,3.8c0.1,1.3-0.1,1.6-0.1,1.6
	c0,0-0.3,0-0.4,0.1c-0.6,0.1-1.4,0.3-2.2,1C290.8,254.3,290.5,255.2,290.4,256.2z"/>
</svg>
