<!-- Generator: Adobe Illustrator 19.0.0, SVG Export Plug-In  -->
<svg version="1.1"
	 xmlns="http://www.w3.org/2000/svg" xmlns:xlink="http://www.w3.org/1999/xlink" xmlns:a="http://ns.adobe.com/AdobeSVGViewerExtensions/3.0/"
	 x="0px" y="0px" width="489.8px" height="455.5px" viewBox="0 0 489.8 455.5" style="enable-background:new 0 0 489.8 455.5;"
	 xml:space="preserve">
<style type="text/css">
	.st0{fill:#966451;}
</style>
<defs>
</defs>
<path class="st0" d="M34.3,101.2c-0.1-0.4-0.2-0.9-0.3-1.3c-0.3-0.9-0.6-2.1-0.4-2.6c0.8-2.1,0.5-7.7-2.5-10.5
	c-1.8-1.7-2.2-7.5-2.4-10.3l-0.1-1.1c-0.3-3.2-1.2-5.7-2.7-7.1c-0.3-0.3-0.6-0.8-0.9-1.3c-0.8-1.2-1.4-2.1-2.5-2.1
	c-0.4,0-1.5,0.2-1.8,1.9c-0.2,0.9-1.2,1.8-2.3,2.8c-0.8,0.7-1.7,1.5-2.3,2.4c-0.4,0.6-1,0.9-1.6,0.9c-0.6,0-1.4-0.2-2.2-0.7
	c-0.4-0.2-0.8-0.4-1.2-0.5c-0.3-0.1-0.6-0.3-0.8-0.4c0-0.1,0.1-0.2,0.2-0.3c1.3-2.2,2.1-6.3,1-10.2C9.4,53.6,7,49.5,4.2,48.3
	C2.5,47.7,1,45.9,0,44.3c0.6-0.5,1.1-0.8,1.1-0.8l0.4-0.3l0.1-0.5c0.4-1.4,1-2.9,1.4-3.3c1.8-0.2,2-2.5,2.1-4.3
	c0.1-0.8,0.2-2,0.4-2.4c0.7-1,0.8-2.6,0.9-4.1c0-0.2,0-0.4,0-0.7c0.9,0.2,2,0.5,2.8,0.5c0.3,0,1.2,0,1.7-0.7l0.4-0.5l-0.1-0.9
	c0-0.2,0.5-1.1,0.7-1.7c0.8-1.7,1.6-3.7,1.3-5.3c-0.2-0.7,0.2-1.7,0.6-2.8c0.4-1.2,1-2.5,1-3.9c0-1.1,0.7-1.6,1.9-2.4
	c0.5-0.3,1-0.7,1.4-1c1.2-1,2.3-1.7,2.9-2c0.8,0.9,2.2,1.5,3.1,1.5c1.1,0,1.6-0.7,1.7-0.9c0.4-0.7,0.3-1.5-0.3-2.4
	c-1-1.4-0.8-2-0.8-2c1-0.4,1.6-2,1.8-3c0.2-0.1,0.3-0.2,0.4-0.3C27.3,0,27.4,0,27.6,0c0.7,0,1.2,0.5,1.2,0.7c0,1.2,0,4.5,2.6,4.5
	c0.2,0,0.6,0,0.7,0.1c0,0,0.2,0.3,0.2,1.4c0,0.7,0.1,1.3,0.1,2c0.2,2.1,0.3,3.9-1.1,5.3c-1.7,1.7-5.9,7-5,9.4c0.1,0.2,0,0.7,0,1
	c-0.1,0.7-0.2,1.6,0.4,2.2l0.4,0.4l0.9,0.1c0.4,0,0.8-0.1,1.2-0.3c0.3-0.1,0.8-0.2,1.3-0.2c0.7,0,1.3,0.1,1.7,0.2
	c-0.2,1.2,0.1,2.7,0.6,3.8c0.6,1.2,1.5,1.9,2.5,2c0.6,0,0.9,0.2,1,0.3c0,0,0,0.2,0,0.4l-0.1,0.4c-0.5,1.6-1.1,3.3-0.3,4.4
	c0.4,0.5,1,0.8,1.7,0.8c0.4,0,1.4,0,1.8,0.1c-0.1,0.9,0.2,1.8,0.7,2.5c0.6,0.7,1.5,1.1,2.6,1.1c0.2,0,0.5,0,0.7-0.1
	c-0.6,0.9-1,1.8-1,2.5c0,0,0,0-0.1,0c-0.1,0-0.4,0.1-0.6,0.2c-0.8,0.3-1.7,0.8-2.1,1.8c0,0,0,0,0,0c-0.1,0-0.9,0.3-1.4,0.4
	c-1.4,0.5-3,1-3.7,2.3c-0.1,0.2-0.6,0.7-2.4,0.7c0,0-0.5,0-0.5,0c-2.3,0-4.4,0.9-4.7,3l0,0.3C26.3,59.2,26,62,26,62.8
	c0,1.7,3.2,5.3,4.8,6.2c0,0.2,0,0.4,0,0.6c0,1-0.1,2.6,1.4,3.4c0,0,0,0.1,0,0.1h-0.2l-0.5,0.5c-0.5,0.5-0.5,1.2-0.4,2
	c0,0.5,0.1,1.7-0.2,1.9c-0.7,0.6-1.1,1.4-1.1,2.4c0,1.8,1.2,4.1,3.1,5.7c1.8,1.6,1.8,4.3,1.8,6c0,1.3,0.6,2.1,1.1,2.7
	c0.4,0.5,0.6,0.8,0.7,1.4C35.7,97.7,35,99.7,34.3,101.2z"/>
<path class="st0" d="M69.3,115.3c-0.2-0.1-0.5-0.6-0.5-1.4c0-0.9,0.5-1.6,1-2.4c0.5-0.7,1.1-1.5,0.9-2.4c-0.1-0.4-0.3-0.9-0.9-1.3
	c0,0-0.7-0.4-0.8-0.5c1.1-0.7,1.9-1.3,2.2-2c0.4,0.1,0.9,0.2,1.4,0.3c1,0.2,2,0.5,2.9,0.5c1.4,0,2-0.6,2.2-1.2
	c0.6-1.2-0.2-2.6-0.9-3.9c-0.1-0.1-0.1-0.2-0.2-0.3c0.6,0.1,1.2,0.2,1.7,0.2c2.5,0,3.2-1.7,3.7-2.8c0.2-0.5,0.4-0.9,0.7-1.2
	c0.3-0.4,0.9-0.8,1.5-1.3c1.7-1.2,4.8-3.4,2.5-6.8c-1.8-2.6-2-6.1-1.6-8.4c0.4-2.3,0.1-5.4-1.5-6.9c-0.4-0.4-1.1-0.8-1.7-1.3
	c-1.1-0.7-2.3-1.5-2.7-2.5c-0.5-1.4-1.7-2.7-2.9-3.9c-0.8-0.8-1.6-1.7-1.8-2.3c-0.4-0.9-1-1.8-1.6-2.6c-0.5-0.6-1.2-1.6-1.2-1.9
	c0-1.4-1.5-2.3-3.5-3.4c-0.7-0.4-2-1.1-2.5-1.6c0.3-0.1,0.8-0.2,1.1-0.3c1.1-0.2,3.1-0.6,3.1-2.6c0-1.3-0.6-2.1-1-2.6
	c-0.4-0.5-0.7-0.9-0.8-1.9c-0.3-1.8-1.5-2.9-3.2-2.9c-1.1,0-2.2,0.5-2.9,0.9c-1.2,0-2.6-1-2.6-1.4c0-1.5-1.1-2.6-2-3.4
	c-0.3-0.3-0.8-0.8-0.9-1c0-0.9-0.6-1.8-1.4-2.7c0.2-0.2,0.4-0.4,0.6-0.6c0.1,0.1,0.4,0.2,0.7,0.3c0.5,0.1,1,0.3,1.6,0.3
	c0.8,0,1.5-0.4,2-1c0.2,0.1,0.4,0.1,0.5,0.2c0.6,0.2,1.4,0.5,2.3,0.5c0.6,0,1.2-0.2,1.8-0.5c0.3-0.2,0.5-0.2,0.6-0.2
	c0.2,0,0.4,0.1,0.6,0.1c0.3,0.1,0.6,0.2,1,0.2c0.6,0,1.4-0.2,2-1.3c0.5-0.9,1.9-2,2.7-2.3c0.8,1,2,2.1,5.2,2.5
	c0.5,0.1,0.7,0.1,0.9,0.2c0,0.1-0.1,0.3-0.1,0.4c-0.2,0.4-0.4,0.9-0.4,1.5c0,2,4,4.7,6.1,5.4c-0.7,0.9-1.9,1.7-3,1.8
	c-1.3,0.1-2,0.6-2.5,1.1c-0.8,0.8-1.1,2-1,3.7c-0.1,0.2-0.7,0.6-1.1,0.9c-1.1,0.8-2.6,1.9-2.9,3.8c-0.5,3-0.3,7.1,1.9,9
	c0.6,0.5,0.9,1.2,1.1,2c0.3,0.8,0.6,1.7,1.3,2.4c0.2,0.2,0.5,0.5,1,1c5.3,5.2,7.5,7,8.9,7.1c1.2,0.9,4.1,6.4,4.2,7.6
	c0,0.5,0.2,1.3,0.5,2.4c0.6,2.6,1.7,6.9,0.9,10.5c-1,4.9-1.3,5-3.9,6.7l-0.5,0.3c-2.3,1.5-4.9,3.2-6.4,3.2c-0.5,0-0.9-0.1-1.2-0.1
	c-0.4,0-0.8-0.1-1.1-0.1c-0.4,0-1.8,0-2.6,1.4c-0.3,0.6-0.4,1.2-0.5,1.8c0,0.2-0.1,0.4-0.1,0.5c-0.8,0.1-1.7,0.5-1.8,2.2
	c0,0,0,0.1,0,0.1C73.1,111.7,70.2,114,69.3,115.3z"/>
<path class="st0" d="M67,105.2c-0.3-0.4-0.9-0.9-1.9-0.9c-0.5,0-1.1,0.1-1.6,0.3c-0.4,0.1-0.8,0.2-1.1,0.2c0.1,0,0.2-0.4,0.3-0.7
	c0.2-0.6,0.5-1.4-0.1-2.1c-0.2-0.3-0.6-0.7-1.4-0.7c-0.5,0-0.9,0.1-1.3,0.2c-0.3,0.1-0.7,0.2-1,0.2c0-0.3,0-0.6,0-0.9
	c0-1.2,0.1-3.2-1.3-4.4c0.2-1.1-0.2-1.8-0.5-2.3c-0.2-0.5-0.4-0.8-0.4-1.6c0-1.3-0.5-2.2-0.9-2.7c-0.4-0.6-0.4-0.6,0.3-1.5
	c1.7-2.1,4.1-3.5,5.7-3.5c0.2,0,0.4,0,0.6,0.1c0.5,0.2,1,0.2,1.7,0.2c0.9,0,1.8-0.1,2.7-0.3c0.7-0.1,1.5-0.2,2.1-0.2
	c0.5,0,0.7,0.1,0.7,0.1c0.8,1,1.9,1.4,2.7,1.6c0.1,0,0.1,0,0.2,0.1c0,0.3,0.2,0.6,0.3,0.8c0.3,0.4,0.8,0.6,1.4,0.6
	c1.3,0,2.7-1.3,2.7-3.3c0-0.1,0.2-0.2,0.7-0.2c0.5,0,1.1,0.1,1.3,0.2c0.5,0.2,1.1,0.3,1.7,0.3c0.6,0,1.1-0.1,1.6-0.2
	c0.2,1.8,0.8,3.8,2.1,5.7c0.7,1,0.5,1.5-1.8,3.1c-0.8,0.6-1.5,1.1-2.1,1.8c-0.5,0.6-0.8,1.3-1,1.9c-0.5,1.1-0.5,1.1-1.2,1.1
	c-0.4,0-0.9-0.1-1.4-0.2c-0.5-0.1-1-0.2-1.4-0.2c-1.1,0-1.6,0.6-1.8,0.9c-0.6,1.1,0.1,2.3,0.8,3.6c0.2,0.3,0.4,0.7,0.5,1
	c-0.6-0.1-1.2-0.2-1.8-0.4c-0.9-0.2-1.8-0.4-2.5-0.4c-1.4,0-2,0.9-2,1.7c0,0,0,0,0,0C68.6,104.2,68.2,104.6,67,105.2z"/>
<path class="st0" d="M74.3,84.1c-0.3-0.2-0.6-0.3-0.8-0.4c0.6-1.4,0.4-2.6,0.2-3.7c-0.1-0.7-0.2-1.3-0.1-2c0.3-3.5-2.3-6.5-4.4-7.3
	c0-0.4,0.2-1.2,0.3-1.7c0.4-1.8,0.8-4.1-0.9-5.1c-1.2-0.7-2.2-1.9-3.2-3.1L64.7,60c-0.7-0.9-2-1.4-3.5-1.4c-1.5,0-3.5,0.5-4.1,2
	c-0.1,0.2-0.7,0.6-1.3,0.6c-0.7-0.8-1.6-1.2-2.7-1.2c-1.1,0-2.2,0.4-3.3,1.3c-0.3,0.3-0.7,0.5-1.1,0.8c-0.5,0.4-1.4,1.1-1.9,1.4
	c0-0.2,0.1-0.3,0.3-0.5c0.5-0.6,1.2-1.4,1.2-3.1c0-0.8,0.2-1.5,0.3-2.2c0.3-1.2,0.6-2.5,0.1-4.3c-0.4-1.3-1.3-2-2.6-2
	c-0.4,0-0.8,0.1-1.1,0.1c-0.1,0-0.2,0-0.3,0.1c-0.2-0.6-0.2-1.3-0.1-2c0-0.9,0.1-1.7-0.4-2.4c0.6-0.4,1.1-1,1.1-2
	c0.1-0.4,0.8-1.6,1.7-2.8c0.4,0.7,1.1,1.7,2.5,2.1l0.2,0l0.4,0c0.9,0,1.6-0.5,1.9-1.3c0.6-1.4,0-4.2-0.8-5.3c0-0.1,0-0.4,0.1-0.6
	c0.2,0,0.3,0,0.5,0c0.4,0,0.7-0.1,1.1-0.2c0.5,0.5,1,1.2,1.1,1.5c0,1.2,0.9,2.1,1.7,2.9c0.5,0.5,1.1,1.1,1.1,1.4
	c0,1.2,0.7,2.2,2,3.1c1,0.6,2.2,1,3.2,1c0.6,0,1.1-0.1,1.5-0.4c0.3-0.2,0.9-0.5,1.4-0.5c0.3,0,0.4,0,0.5,0.6
	c0.2,1.7,0.9,2.5,1.3,3.1c0.3,0.4,0.4,0.5,0.4,0.8c-0.2,0.1-0.6,0.1-0.8,0.2c-1.1,0.2-2.8,0.5-3.4,2.1c-0.8,2.1,1.7,3.5,3.9,4.8
	c0.7,0.4,1.8,1,2.2,1.4c0.1,1.1,0.9,2.2,1.7,3.3c0.5,0.7,1,1.4,1.3,2c0.4,1.1,1.4,2.1,2.4,3.1c0.9,1,2,2,2.3,2.9
	c0.6,1.9,2.4,3.1,3.8,4c0.5,0.3,1,0.6,1.2,0.9c0.6,0.6,1,2.5,0.7,4.6c-0.1,0.5-0.1,1.1-0.2,1.8c-0.5,0.3-1,0.4-1.5,0.4
	c-0.3,0-0.5,0-0.7-0.1c-0.7-0.3-1.6-0.4-2.3-0.4C75.7,81.5,74.4,82.5,74.3,84.1z"/>
<path class="st0" d="M48.9,131.7c-0.4,0-0.7,0-0.9-0.1c-0.2-1.7-1.3-3.6-3.9-4c-0.9-0.2-1.8-0.3-2.7-0.3c-0.4-0.8-0.9-1.6-1.5-2.3
	c-4.7-6-6.8-7.5-8.2-7.8c-0.1-0.7,0.4-2.6,0.6-3.4c0.4-1.5,0.8-3.7,1.1-5.8c0.1-0.6,0.2-1.3,0.3-1.9c0.7-0.4,1.4-1.1,2-2.2
	c-0.1,0.5-0.3,1-0.4,1.6c-0.8,3.2-1.7,6.7,0.7,7.9c0.5,0.2,1,0.4,1.5,0.6c1.4,0.5,1.4,0.6,1.4,0.9c0,1.2,0.7,2.2,1.2,3.1
	c0.5,0.7,1,1.5,0.9,2c-0.2,1.6,0.4,4.2,1.8,6.1c0.9,1.1,2.1,1.8,3.3,1.9c1.5,0.1,3.4,1.2,4.6,2.2c-0.4,0.4-0.6,0.9-0.7,1.3
	C49.9,131.7,49.4,131.7,48.9,131.7z M38.9,95c-0.2-1.2-0.8-1.9-1.2-2.5c-0.4-0.5-0.5-0.7-0.5-1c0-1.9,0-5.5-2.7-8
	c-1.4-1.3-2.2-2.8-2.2-3.7c0-0.1,0-0.3,0.1-0.3c1.3-1.1,1.2-2.9,1.2-4.1c0.5-0.4,0.9-1,1.1-1.7c0.3-1.4-0.2-2.6-1.4-3.2
	c0.1,0,0.1-0.5,0.1-0.9c0-0.9,0.1-2.5-1.3-3c-0.8-0.4-3.2-3.2-3.4-4c0-0.3,0.2-2.2,1.1-8.4l0-0.3c0.1-0.4,1.1-0.6,1.8-0.6l0.7,0
	c2.4,0,4-0.7,4.7-2c0.2-0.4,1.5-0.8,2.2-1.1c1.1-0.4,2.1-0.7,2.7-1.4c0,0.1,0,0.5,0,0.7c0,0.9-0.1,2.2,0.4,3.4
	c0.4,0.9,1.2,1.4,2.2,1.4c0.3,0,0.7-0.1,1.1-0.1c0.2,0,0.4-0.1,0.6-0.1c0.3,1.2,0.1,1.9-0.1,3c-0.2,0.8-0.4,1.7-0.4,2.8
	c0,0.7-0.2,0.9-0.6,1.4c-0.5,0.6-1.3,1.5-0.9,3.3c0.3,1.2,1.1,1.9,2.1,1.9c1.3,0,2.7-1.1,4.1-2.3c0.3-0.3,0.7-0.5,1-0.8
	c0.9-0.7,1.5-0.8,1.7-0.8c0.2,0,0.4,0.1,0.5,0.2c0.5,0.6,1.3,1,2.2,1c1.4,0,3.2-0.8,3.8-2.3c0.1,0,0.7-0.3,1.6-0.3
	c0.8,0,1.3,0.2,1.5,0.4l0.6,0.7c1.1,1.3,2.3,2.8,3.9,3.8c0,0.2-0.3,1.5-0.4,2.2c-0.3,1.7-0.8,4.1,1.2,4.7c1.1,0.3,3.1,2.5,2.9,4.7
	c-0.1,1,0,1.9,0.2,2.6c0.1,0.8,0.2,1.4,0.1,1.9c-0.8-0.5-1.7-0.5-2.1-0.5c-0.8,0-1.7,0.1-2.5,0.3c-0.8,0.1-1.6,0.2-2.3,0.2
	c-0.4,0-0.6,0-0.8-0.1C63,82,62.5,81.9,62,81.9c-2.8,0-6,2.3-7.8,4.5c-1.8,2.2-1.3,3.5-0.5,4.7c0.3,0.4,0.5,0.7,0.5,1.3
	c0,0.8,0.1,1.5,0.3,2c-0.1-0.1-0.1-0.1-0.2-0.2c-0.9-0.9-2-2-4.3-2l-0.9,0c-1.7,0-1.8-0.2-2.4-2.3c-0.4-1.5-1.7-2.3-3.3-2.3
	c-1.4,0-3.2,0.6-4,2c-0.5,0.8-0.5,1.8-0.1,2.6C39.6,92.6,39.3,93.8,38.9,95z"/>
<path class="st0" d="M101.1,160c-0.3-0.2-0.9-0.6-1.2-0.9c-0.5-0.4-1-0.8-1.5-1.1c1.6,0.7,3,1.4,4.3,1.4c1.1,0,1.9-0.5,2.3-1.4
	c0.4-0.9,0.5-2,0.5-3.1c0.1-2.4,0.3-3.2,2.1-3.4c1.1-0.1,2-0.1,2.9-0.1c2.9,0,5.8,0,6.5-3.5c0.5-2.3,2.2-5.2,3.3-6.3
	c1.7,2.9,2.6,3.5,3.6,3.5c1.5,0,2.4-0.7,3-1.1c0.2-0.1,0.4-0.3,0.4-0.3l0.2,0l0.3,0c0.5,0,1-0.2,1.3-0.6c0.5-0.7,0.5-1.6,0.1-3.3
	c1-0.8,1.1-1.8,1-2.5c0-0.3-0.1-0.4,0.9-1c0.8-0.4,2-1.1,2.1-2.6c0.1-1.4,2.2-4.5,3.2-4.5c1.3,0,3.8,2.2,3.9,3c0,0.5,0.2,1.8,2,2.4
	c1,0.4,2.2,0.4,2.8,0.4c0.7,0,1.3-0.1,1.9-0.2c0,0,0,0,0,0c0.7,0,1.7,0.4,2.1,1c0.2,0.3,0.2,0.5,0.1,0.6c-0.3,0.3-1.9,0.4-2.6,0.5
	c-1.4,0.1-2.5,0.2-2.9,1.3c-0.1,0.3-0.2,0.9,0.3,1.5c-0.5,0.4-1.6,0.9-2.3,1.3c-1.2-0.5-2-0.8-2.7-0.8c0,0-1.9,0-2.4,0
	c-2.3,0-5.1,0.2-6.7,1.9c-0.8,0.9-1.2,2-1.1,3.3c0.1,1.5-0.3,1.7-1.3,2.1c-0.8,0.3-2.4,1-2.1,3c0.1,0.5-0.1,0.7-0.5,1.3
	c-0.6,0.8-1.4,1.9-1.2,4c0.1,0.6,0,0.7,0,0.7c0,0,0,0,0,0c-0.1,0-0.5,0.1-0.9,0.2c-0.9,0.2-2,0.4-3.4,1.1c-0.8,0.4-1.1,0.4-1.1,0.4
	c0,0-0.1-0.1-0.2-0.2c-0.5-0.5-1.4-1.4-3.5-1.4c-2.6,0-3.8,0.9-4.8,1.6c-0.5,0.4-0.9,0.6-1.4,0.8c-0.5,0.2-1.5,0.2-1.8,0.2
	c-0.4,0-0.9,0-1.3,0c-0.5,0-0.9,0-1.4,0C103.1,159.4,102,159.5,101.1,160z M63.2,157.6c-1.9-0.7-5.9-3-8.8-5.1l-1.5-1
	c-2.3-1.6-3-2.2-3.5-3.5c-0.3-1-1.2-2.2-2.2-3.8c-1.5-2.1-3.4-5-3.5-6.8c-0.1-2.4-0.2-4.8-1-7.3c0.4,0,0.7,0.1,1.1,0.2
	c1.5,0.3,1.7,1.5,1.7,2c0,0.3,0.1,1.5,1.6,1.9c0.5,0.1,1.1,0.2,1.9,0.2c1,0,2.1-0.1,2.6-0.2c0.8-0.2,1.1-0.8,1.3-1.3
	c0.5,0.5,1,0.7,1.4,0.8c0.4,0.1,0.5,0.1,0.8,0.9c0.5,1.6,1.7,2.3,2.6,2.9c1.1,0.7,1.7,1.1,1.7,2.6c0,1.1-0.2,2.4-0.4,3.7
	c-0.5,3.3-0.9,6.4,0.8,8.2C61,153.3,62.6,156.1,63.2,157.6z"/>
<path class="st0" d="M124,143.7c2,0,2.4-1.7,3.7-1.3c0.7,0.2,0.5-1.3-0.1-3.3c-1.2,0.4-2.8,0.4-2.8,1.3c0,1.5-2.5-0.5-3.9-0.6
	C122.1,142,123.3,143.7,124,143.7z"/>
<path class="st0" d="M185.6,133.3c-0.8-0.8-2.1-1.9-4.7-2.4c-1-0.2-1.4-2-1.7-4.3c-0.3-2.4-0.7-5-3-5.4c-0.4-0.1-0.7-0.1-1-0.1
	c-1.6,0-2.3,0.8-2.8,1.3c-0.3,0.3-0.3,0.3-0.4,0.3l-0.4,0c-1.5,0-2.5,0.9-3.3,1.7c-0.3,0.3-0.6,0.5-0.8,0.7c0.1-0.5,0.3-1,0.6-1.6
	c0.4-0.7,0.9-1.2,1.3-1.3c1.4-0.4,2.7-1.5,3.8-2.6c0.6-0.5,1.5-1.4,1.9-1.5c0.8,0.6,3.3,2.2,4.9,2.2c0.8,0,1.3-0.3,1.6-0.6
	c0.2-0.2,0.5-0.7,0.5-1.3c0,0,0.1,0,0.1,0c0.9-0.1,2.9-0.2,3.2-2.6c0.1-0.2,0.8-0.3,1.1-0.3c0.8-0.1,1.8-0.2,2.3-1.2
	c0.5-1-0.1-2-0.3-2.3c-0.1-0.1,0.2-0.3,0.5-0.3c0.7,0,1,0.4,1,1.3c0,1.8,0.5,3.8,1.1,5.7c0.6,2.3,1.4,5.1,0.6,6
	c-0.7,0.8-1.8,0.9-3,1c-1.2,0.1-3.2,0.3-3.4,2.3c-0.1,0.9,0.2,2,0.5,3.3c0.1,0.7,0.4,1.7,0.4,2.4
	C185.8,133.6,185.7,133.5,185.6,133.3z M171.8,113.6c-0.3-0.1-0.5-0.4-0.6-0.9c-0.3-1.1,0-2.6,0.5-3.1c1.4-1.4,1-4.2,0.4-5.7
	c-0.2-0.4-0.6-1.5-1.7-1.5c-0.1,0-1.4,0-1.5,1.6c0,0.2-0.1,0.3-1.3,0.4c-0.1,0-0.3,0-0.4,0c-0.3-0.5-0.7-1.9-0.6-3.5
	c0.1-1.1,0.4-1.5,0.5-1.6c2.2,0,6.8,4,7,5.2c-0.1,0.3-0.3,1.1,0.2,1.8l0.4,0.5l0.8,0.1c0.3,0,0.5-0.1,0.7-0.1
	C175.8,108.7,173.1,113.4,171.8,113.6z M179.1,111.4c0.3-0.3,0.7-0.6,1-0.7C179.9,110.9,179.5,111.2,179.1,111.4z M149.9,107.6
	c0.4-0.7,0.7-1.4,1-2c0.1-0.2,0.2-0.5,0.4-0.7C151.5,105.8,151.2,106.6,149.9,107.6z M182.8,105.3c-0.3-0.5-0.7-1-1.1-1.5
	c-1.1-1.4-1.4-2-1.1-2.4c0.8-1.2,1-2.5,0.4-3.5c-0.5-1-1.5-1.6-2.7-1.6c-0.5,0-1,0.1-1.5,0.4c-0.3-0.9-0.4-2.5-0.2-3
	c0.3-0.6,0.4-1.5-0.5-2.9c-1.3-2-4.4-4.1-7.1-4.1c-0.3,0-0.5,0-0.8,0.1c-0.1,0-0.3,0-0.4,0c-0.3,0-0.5-0.1-0.7-0.3
	c0.2-0.1,0.3-0.2,0.5-0.2c0.6-0.4,1.4-0.5,2.4-0.5c1.9,0,3.3,0.7,3.6,1.1c0.1,1,1.1,1.8,2,2.5c1.1,0.8,1.8,1.4,1.8,2.2
	c0,2.4,2.2,3,3.8,3.5c1.2,0.4,2.4,0.7,2.8,1.6c0.3,0.7,0.7,1.4,1.1,2c1.3,2.4,1.4,2.8,0.9,3.2c-0.4,0.3-0.8,0.5-1.1,0.7
	C183.6,103.2,182.8,103.8,182.8,105.3z M162.1,94.4c-1.1,0-1.9-1.4-2.3-2.8c1.1,0.8,2.4,2,2.8,2.7C162.4,94.4,162.2,94.4,162.1,94.4
	z M160.1,85.7c-0.8,0-1.2-0.2-1.2-0.3c0,0,0-0.2,0.1-0.5c0.6-1.9,0.5-3.7-0.4-4.9c-0.5-0.7-1.2-1.1-2-1.2c-0.4-0.8-0.7-3-0.8-4.5
	c0.3,0.2,0.7,0.3,1.1,0.3c0.5,0,0.9-0.2,1.3-0.5c0.9-0.7,0.9-2.1,0.7-5.9c-0.1-2.1-0.3-6.6,0.4-7.4c0.1-0.1,0.5-0.1,0.9-0.1
	c1,0,2.2,0.3,3.3,0.6c1.1,0.3,2,0.5,2.7,0.5c0.1,0,0.2,0,0.3,0c0,0.1,0,0.2-0.1,0.3c-0.2,1,0.2,2.2,0.5,3.5c0.5,1.8,1.1,3.9,0.1,5.1
	c-0.3,0.4-0.6,0.7-1,1.1c-2.3,2.5-5.5,6-2.9,8.8c0.6,0.6,0.7,1.8,0.7,2.8c0,0.4,0.1,0.8,0.2,1.3c-0.4,0-0.8,0.1-1.2,0.3
	C161.9,85.5,160.9,85.7,160.1,85.7L160.1,85.7z"/>
<path class="st0" d="M327.8,227c-1.3,0-2.9-0.5-4.5-1.1c-1.9-0.6-3.8-1.3-5.8-1.3c-0.6,0-1.2,0.1-1.7,0.2c0,0,0,0,0,0
	c-2.1,0-4.7-3.3-6.8-5.9c-1.6-2-3.1-3.8-4.6-5c-2.8-2.2-7.1-3.8-10.3-3.8c-1.7,0-2.9,0.4-3.6,1.3c-0.6,0.8-1.1,1.6-1.5,2.3
	c-0.3,0.5-0.7,1.3-0.9,1.4c0,0,0,0,0,0c-1.3,0-1.7,1.3-1.8,1.8c-0.3,1-0.6,2.1-4.1,2.1c-0.2,0-0.5,0-0.7,0c-1.7-0.1-3.3-0.5-4.8-1.4
	v-33.3c1,0.3,1.8,0.5,2.6,0.7c7.3,1.6,20.8,9,21.3,11.1c0.3,2.8,3.8,4,7.3,5.1c1.7,0.6,3.7,1.3,4.4,1.9c0.8,0.7,1,1.2,1,1.3
	c0,0-0.1,0-0.1,0c-0.1,0-0.4,0-0.8,0c0,0-0.3,0-0.4,0c-2.3,0-2.8,1.4-2.9,1.9c-0.4,1.9,1.6,4.5,3.6,5.4c0.7,0.3,1,1.6,1.4,2.9
	c0.4,1.7,0.9,3.6,2.5,4.6c1.2,0.8,2.6,1.2,3.8,1.5c0.4,0.1,1,0.3,1.3,0.4c0.2,2.6,4.8,4.8,4.9,4.8c0.4,0.2,0.9,0.6,1.3,0.9
	L327.8,227z M327.1,202.3c-3.1,0-6.2-1.4-7.4-2.4c0.7,0,1.6,0.2,2.6,0.3c1.5,0.2,3.1,0.5,4.7,0.5c1.3,0,2.5-0.2,3.4-0.6l1.4-0.6
	c3.9-1.5,6.3-2.5,6.3-4.7c0-0.4,0.9-1.3,1.4-1.3c-0.1,0.2-0.6,1-0.9,1.5c-0.5,0.8-1,1.6-1.1,2.4
	C336.7,198.7,330.9,202.3,327.1,202.3z"/>
<path class="st0" d="M360.8,205.9c-1-0.3-3-2.8-4.2-4.8c1.7,1.2,3.9,3.2,4.2,4.5C360.8,205.8,360.8,205.9,360.8,205.9z"/>
<path class="st0" d="M360.8,205.9c-1-0.3-3-2.8-4.2-4.8c1.7,1.2,3.9,3.2,4.2,4.5C360.8,205.8,360.8,205.9,360.8,205.9z"/>
<path class="st0" d="M306.7,434c-0.1,0-0.1,0-0.2,0c-1.1-0.2-4.7-2.8-6.2-5.4c-0.5-0.8-0.5-1.2-0.5-1.3c1.5-1.9,0-5.4-1.5-8.8
	c-0.2-0.5-0.4-1-0.7-1.6c0.3,0.1,0.6,0.3,0.9,0.4c2,0.9,4.5,2,6.7,2c0.2,0,0.5,0,0.7,0c1.5-0.2,3.3-0.9,4.9-1.5
	c1.2-0.5,2.6-1,3.3-1.1c0.9,3.1,1.2,5.8,1,6.7c-0.4,0.1-0.8,0.3-1.1,0.6c-0.9,0.9-0.9,2.4-0.8,3.9c0,0.5,0,1.2,0,1.7
	c-0.2-0.1-0.4-0.3-0.6-0.4c-0.5-0.3-1-0.6-1.6-0.6c-0.6,0-1.4,0.4-1.6,1.4c-0.1,0.4-0.1,0.9-0.1,1.4c0,0.1,0,0.3,0,0.4
	c-1.5,0-2,1.3-2.3,1.9C306.9,433.7,306.8,433.9,306.7,434L306.7,434z M305.2,401.6c-0.6-0.9-1.5-1.4-2.2-1.8
	c-0.8-0.4-1.2-0.7-1.4-1.2c-0.4-1.2-1.1-1.8-1.9-1.8c0,0-0.1,0-0.1,0c-0.4-1.1-1.6-2-2.8-2c-1.2,0-2.2,0.9-2.7,2.3
	c-0.5,1.8-3.1,3.6-4.6,3.6c-0.1,0-0.3,0-0.5-0.1c-2.1-1.8-8.9-4.4-12.4-4.4c-1.4,0-1.4,0-2-0.4c-0.5-0.4-1.4-1-3.2-2
	c-3.1-1.6-2.9-3-2.4-5.4l0.1-0.4c0.4-2.2-0.9-5-2.2-6.7c-0.7-0.9-2.1-2.5-3.8-2.7l-0.3,0c-0.7,0-1.4,0.2-2,0.4
	c-0.1,0-0.2,0.1-0.3,0.1c0.7-1.2,2-3.6,0.1-6c-1.1-1.4-2-2-3-2c-0.5,0-1.1,0.1-1.6,0.8c0.5-2.6,1.4-4,2-5.1c0.7-1.1,1.7-2.7-0.1-4.2
	c-0.5-0.4-1.1-0.7-1.8-0.7c-2.7,0-4.9,3.8-5.2,6.6c-0.1,0.6-0.1,0.6-1,0.8c-1.1,0.3-2.9,0.7-4.4,2.9c-0.9,1.3-1.6,2.1-2,2.5
	c-0.1-0.1-0.2-0.3-0.4-0.6c-0.4-0.7-0.3-1.1-0.2-1.7c0.2-1.4,0.3-2.6-1.3-4.8c-1.4-1.8-3.1-2.8-4.2-3.4c-0.2-0.1-0.4-0.2-0.5-0.3
	c0.8-1.4,1.1-2.6,0.7-3.5c-0.2-0.6-0.8-1.4-2.2-1.7c-0.4-0.1-0.6-0.2-0.9-0.5c-0.4-0.4-1.1-1.1-2.5-1.1c0,0-0.3,0-0.3,0
	c-0.6,0-1-0.1-1.7-0.3c-1-0.3-2.1-0.6-3.7-0.6c-0.4,0-0.8,0-1.3,0.1c0,0,0,0,0,0c-1.1,0-1.6-0.5-2.4-1.4c-0.9-0.9-1.9-2.1-3.6-2.1
	c-0.3,0-0.7,0-1,0.1c-1.2,0.3-2.9,0.4-4.7,0.5c-2.7,0.1-5.5,0.3-7.5,1.1c-0.6,0.3-1.3,0.6-2.1,0.9c-2.7,1.2-6,2.7-9.4,2.7
	c-0.2,0-0.4,0-0.6,0c-1.2-0.1-2.2-0.1-3.1-0.1c-3.1,0-4.7,0.5-6.4,2.1c-0.6,0.6-1.8,1-3,1.4c-2,0.7-4.2,1.5-4.9,3.4
	c-0.9,2.4-3.4,3.6-7.8,3.6c-0.5,0-1,0-1.5,0l-1.2-0.1c-2.7-0.2-5.2-0.3-7.4-0.3c-4.1,0-6.2,0.5-7.1,1.8c-0.3,0.4-0.6,0.8-0.8,1.2
	c-0.6,0.9-0.7,1-2.2,1.1c-2.1,0.1-3.3,1.4-4.2,2.3c-0.6,0.7-1,1.1-1.4,1.1c-0.4,0-0.9,0-1.5,0c-0.8,0-1.8,0.1-2.8,0.1
	c-3,0-5.1-0.3-6.1-1c-1-0.6-1.3-1.2-1.7-1.8c-0.5-0.8-1.1-1.9-3.1-2.1c-0.4,0-0.8-0.3-1-0.6c-0.1-0.2-0.2-0.3-0.3-0.5
	c1.4-0.1,2.5-0.6,3.3-1.5c1-1.1,1.3-2.7,1-4.7c-0.2-1.5,0.3-3,0.8-4.4c0.5-1.4,1-2.7,0.3-3.8c-1.3-2-5-8.4-4.8-12.2
	c0.2-3-1.6-5.4-3-7.4c-0.9-1.3-1.8-2.5-1.8-3.5c-0.1-1.9-1.5-4.6-3.6-8.3c0.1,0,0.1,0,0.2,0c0.6,0,1.1-0.3,1.4-0.8
	c0-0.1,0.1-0.1,0.1-0.2c0,0,0.1,0,0.1,0c0.3,0,1.1-0.1,1.6-1.1c1.3-2.7-1-5.7-3.4-9c-2-2.7-0.9-4.6,1-7.5c1.5-2.2,0.7-3.8,0.2-4.9
	c-0.4-0.8-0.5-1.2-0.3-1.9c0.1-0.4,0.3-0.7,0.4-1c0.1,0.4,0.3,0.7,0.5,1l0.4,0.4l0.7,0.1c0.3,0,0.7-0.1,1.1-0.4
	c0.6-0.5,0.9-1.3,1.1-2.1c0.4-1.2,0.7-1.7,1.1-1.8c2.7-0.2,6.1-2.3,8-4.3c1-1.1,3.2-2,4.4-2c0.1,0,0.1,0,0.2,0
	c0.3,0.8,1,1.3,1.9,1.3c1.4,0,3.2-1.3,5.4-3c0.7-0.6,1.2-0.6,2.1-0.7c1-0.1,2.3-0.2,3.5-1.3c0.4-0.3,1.7-0.4,2.8-0.4
	c2.4-0.1,5.5-0.2,7.4-2.5c2.7-3.2,7.1-7.3,7.9-7.8c1.3-0.8,0.8-2.3,0.5-3.4c-0.5-1.5-0.7-2.7,0-3.5c1-1.1,1.7-1.7,2.2-2.1
	c0.1,0.7,0.3,1.5,0.7,2.3c0.7,1.6,1.5,2.4,2.5,2.4c0.5,0,0.9-0.2,1.3-0.5c0.1-0.1,0.3-0.2,0.5-0.4c0.8-0.5,2.2-1.3,1.6-3.8
	c-0.2-1-0.7-1.8-1-2.5c0,0,0,0,0,0c0.3,0.1,0.6,0.2,0.9,0.4c0.7,0.3,1.2,0.6,1.8,0.6c0.5,0,1-0.2,1.3-0.6c0.4-0.4,0.5-1,0.4-1.6
	c-0.3-2.2-0.2-3.6,0-4c1.5-0.1,2.2-1.1,2.6-1.7c0.1-0.1,0.2-0.3,0.2-0.3c0,0,0,0,0.1,0c0.3,0,0.6-0.2,0.9-0.6
	c0.4-0.6,0.3-1.3,0.2-1.8c0.5,0,1,0.2,1.6,0.3c0.6,0.2,1.2,0.3,1.7,0.3c0.8,0,1.3-0.3,1.5-0.6c0.3-0.3,0.5-0.8,0.4-1.7
	c-0.1-0.7,0-1,0-1.1c0,0,0,0,0,0c0,0,0.2,0,0.4,0c1.4,0,2.2-0.8,2.7-1.4c0.4-0.4,0.5-0.5,0.7-0.5l0,0c1,0,3.1,1.7,3.4,2.7
	c0.5,1.3,1.7,1.6,2.5,1.7c0.2,0.1,0.6,0.1,0.7,0.2c-0.3,1.2,0,2.4,0.6,3.2c0.5,0.6,1.1,0.9,1.8,0.9c0.5,0,1-0.2,1.4-0.6
	c0.3-0.3,0.7-1,0.6-2c0-0.1,0-0.1,0-0.2c0.3,0.1,0.8,0.3,1.4,0.9c1,1,2.5,1.7,3.7,1.7c1,0,1.7-0.4,2.1-1.2c0.4-0.9,0.1-1.9-0.9-3
	c-1.3-1.4-1.3-2-1.2-2.1c0-0.2,0.3-0.4,0.7-0.7c1.4-0.9,1.6-2,1.8-2.8c0.1-0.6,0.2-1,0.7-1.6c0.8-0.8,1.3-1.9,1.7-2.8
	c0.3-0.7,0.9-1.9,1.2-1.9c0,0,0,0,0,0c1.1,0,1.6-0.4,1.9-0.7c0.2-0.3,0.3-0.5,0.3-0.8c0.4,0.1,0.9,0.1,1.4,0.1
	c1.8,0,7.3-0.5,8.3-2.8c0.1-0.3,0.2-0.6,0.2-1c0.4,0.2,0.8,0.3,1.3,0.4c4.5,0.6,9.6,2,10.2,2.9c0.5,0.6,1.2,1,1.9,1
	c1.2,0,2.3-0.9,3.1-1.6c0,0,0,0,0,0c0.5,1.2,1.1,2.4,2.3,2.4h0.2l0.3-0.1c1-0.3,1.2-1.3,1.4-1.9c0-0.2,0.1-0.4,0.2-0.5
	c0.3,0.1,0.6,0.3,0.8,0.4c-1.6,0.9-1.5,2.3-1.4,2.9c0.1,0.6,0.1,0.6-0.5,0.9c-0.8,0.4-1.5,0.7-2.2,0.9c-1,0.3-2,0.6-2.3,1.6
	c-0.3,0.9,0.2,1.8,0.3,2.1c1.1,1.8,0.5,2.5-0.2,3l-0.7,0.5c-0.9,0.6-1.6,1.1-1.6,2.2c0,1.1,1,1.8,1.8,2.3l0.6,0.4
	c1.6,1.1,2.1,1.4,2.7,3.2c0.5,1.4,1.4,2.1,2.9,2.1c0.2,0,0.5,0,0.8,0c0.2,0,0.5,0,0.8,0c0.5,0,1.1,0.1,1.9,0.6
	c1,0.8,1.8,1.6,2.4,2.3c1.1,1.2,2.2,2.4,3.7,2.4l0.4,0c0.1,0,0.3,0,0.4,0c1.5,0,3,0.7,3.1,1.1c-0.1,0.5,0.1,1.3,0.9,2.2
	c1.3,1.4,3.6,2.3,5.6,2.3c0.8,0,1.5-0.1,2.2-0.4c2.6-1,3.6-3.2,4.4-5.1c0.3-0.8,0.7-1.5,1.1-2.1c1.4-1.9,1.6-4.6,1.8-7.2
	c0.1-0.7,0.1-1.4,0.2-2.2c0.2-1.3,0-3-0.1-4.5c-0.1-1.5-0.3-4.2,0.1-4.7c1.3-1.2,1.1-3.2,0.9-4.7c-0.1-0.6-0.2-1.5-0.1-1.7
	c1.2-1,1.9-3.2,1.7-5.5c0-0.5,0.9-1.8,1.6-2.5c0.1,0.4,0.2,0.8,0.3,1.2c0.5,1.9,1,4.1,2.4,5.2c1.2,1,2.4,5.2,2.1,7.9
	c-0.2,2.6-0.3,5,0.9,6.3c0.5,0.6,1.2,0.9,2,0.9l0.4,0c0.8-0.1,1.5-0.3,2.2-0.5c0.3-0.1,0.6-0.2,0.9-0.2c0.4,0.8,1.2,1.4,2,1.9
	c1.2,0.8,1.7,1.2,1.6,1.8c-0.2,1.6,0.1,3,0.4,4.2c0.2,1,0.4,1.9,0.4,2.8c-0.1,1.7,1,2.8,2,3.7c0.9,0.9,1.4,1.5,1.4,2.3
	c0,2.3,0.2,6.3,1.7,7.8c0,0.2,0,0.4-0.1,0.6c-0.1,0.9-0.4,3.2,2.2,3.8c2.2,0.5,10.8,5,12,6.6c-0.1,1.7,0.1,3.3,2.5,5.1
	c1.3,0.9,1.9,1.9,1.7,2.7c-0.3,1.1-0.3,3.5,0.7,4.8c0.4,0.6,1.1,0.9,1.7,0.9c0.3,0,0.5,0,0.8-0.1c0.4-0.1,0.7-0.3,1.1-0.5
	c0.3-0.1,0.6-0.3,0.8-0.3c0.3,0.7,1,1,1.8,1c0.1,0,0.1,0,0.1,0c-0.2,1.8-0.4,4.9,1,6.5c0.5,0.6,1.2,0.9,2,0.9c0.1,0,0.2,0,0.3,0
	c0,0.1,0,0.2,0.1,0.3c0.2,0.7,0.5,2.4,2.4,2.4c0.2,0,0.5,0,0.7-0.1c0,0,0,0,0,0c1,0,2.4,2.1,2.8,3.4c0.5,1.7,2,5.7,4.4,5.7
	c0.2,0,0.4,0,0.7-0.1c-0.4,2.6-0.7,8.5,0.4,9.8l0.4,0.5l0.8,0.1c0.3,0.5,0.5,1.4,0.5,1.9c-0.9,0.9-0.5,2.2-0.2,3
	c0.4,1.1,0.5,1.6,0,2.2c-2.3,2.5-1.4,5.6-1,6.8c0,0.3-0.2,1.2-0.4,1.8c-0.4,1.5-1,3.4-1,5.2c0,1.2-0.7,2.5-1.5,3.8
	c-0.7,1.3-1.5,2.7-1.6,4.1c-0.1,1.8-1.9,2.5-2.5,2.7c-2,0.7-6.5,9.3-7,13.4c-0.2,1.7-1,2.7-1.9,3.8c-1,1.2-2.1,2.6-2.4,4.9
	c-0.1,1-0.3,2.2-0.4,3.4c-0.2,2.2-0.6,5.6-0.9,6.9c-2.4,0.1-9.7,0.6-12,2.4c-0.5,0.4-1,0.8-1.4,1.2c-1.4,1.2-2.3,2-3.7,2.5
	C306.7,399.8,305.8,400.6,305.2,401.6z M254.1,376.1c0.5-0.3,0.8-0.8,1.2-1.4c0,0.2,0,0.5,0,0.8C255.2,376,254.5,376.1,254.1,376.1z
	"/>
<path class="st0" d="M434.2,455.5c-0.9,0-1.4-0.2-1.5-0.3c-0.6-1.2-1.9-1.3-2.7-1.3c-0.6,0-1.1,0-1.5-0.5c-1.1-1.1-2.3-1.2-3.3-1.3
	c-0.9-0.1-1.3-0.2-1.8-0.8c-0.6-0.8-0.4-1.2,0.5-2.5c0.6-0.8,1.2-1.7,1.3-2.8c0.1-0.5,1.8-1.7,2.8-2.4c1.6-1.2,3.3-2.3,4.2-3.8
	c0.5-0.8,3-2,5.2-3.1c3.9-1.9,8.4-4.1,10.4-7.2c1.5-2.3,2.1-3.8,2.5-4.9c0.5-1.2,0.7-1.7,1.9-2.8c1.6-1.4,1.9-2.4,2-3.5
	c0.1-0.6,0.1-0.8,0.8-1.4c0.2-0.1,0.2-0.1,0.2-0.1c0.2,0,0.9,0.7,1.2,1c0.8,0.8,1.6,1.8,2.9,1.8c0.3,0,0.7-0.1,1-0.2
	c0.7-0.3,1.2-0.7,1.7-1.1c0.4-0.3,0.9-0.6,1.1-0.6c0.1,0,0.2,0.1,0.4,0.2c0.2,0.2,0.1,0.5,0.1,0.7c-0.2,0.8-0.5,2,0.3,3.5
	c0,0.4-1.1,1.5-1.7,2.1c-1.3,1.3-2.9,2.9-2.9,4.8c0,0.7-0.5,1.1-1.6,1.9c-1,0.7-2.4,1.8-2.2,3.6c0.1,0.6,0.2,1.1,0.4,1.5
	c-0.3,0-0.6,0-1,0c-5.1,0-6.3,2.4-7.3,4.3l-0.2,0.3c-0.4,0.8-0.7,1.7-1,2.5c-0.4,1.2-0.8,2.5-1.4,2.9c-1.2,0.7-1.3,1.8-1.5,2.5
	c-0.2,1-0.3,2.2-2.5,4.2C438.8,454.7,436,455.5,434.2,455.5L434.2,455.5z M472.2,419.6c-0.8,0-1.4-0.2-1.7-0.3
	c0.2-0.4,0.5-1.1,0.7-1.6c1.2-2.3,3-5.9,0.4-8c-1-0.8-2.3-1.5-3.6-2.3c-1.3-0.7-3.7-2.1-3.8-2.7c0.6-0.6,1.2-0.9,1.9-1.3
	c1.4-0.7,3.1-1.6,3.1-4.7c0-1.3,0.4-2.9,0.8-4.3c0.3-1.1,0.6-2.3,0.6-3.2c0.1,0,0.1,0,0.2,0c0.1,0.1,0.2,0.2,0.3,0.3
	c0.4,0.4,0.9,1.1,1.8,1.1c0.4,0,1-0.1,1.5-0.8c0.1-0.1,0.1-0.2,0.2-0.3c0,0.3,0,0.6,0,0.9c0,2.8,2,4.8,4.8,4.8
	c0.5,0,1.2,0.3,1.9,0.6c0.8,0.3,1.6,0.7,2.4,0.7c1,0,1.8-0.5,2.4-1.4c0.3-0.5,1.8-1.2,2.9-1.2c0,0,0.1,0,0.1,0
	c-0.4,1.2-0.5,2.2-0.6,3c0,0.3-0.1,0.7-0.1,1c-1.9,0.1-2.3,2-2.5,2.9c0,0.2-0.1,0.3-0.1,0.5h-0.2c-1,0-2.9,0-4.2,1.8
	c-0.7,0.9-0.7,2-0.7,3c-0.1,1.3-0.1,2.1-0.8,2.7c-1,0.9-1.8,2.5-2.6,4.1c-0.9,1.8-2,4.1-3.2,4.4
	C473.4,419.5,472.8,419.6,472.2,419.6z M467.8,387.8c-0.5-0.7-1-1.5-1-1.8c0.2-1.4-1.1-2.4-2.5-3.5c-0.6-0.5-1.3-1-1.7-1.5
	c-1-1.2-2-2.9-2.3-3.8c2.1,0.3,5.2,2,5.2,3.8c0,2,0.8,3,1.5,3.7c0.5,0.5,0.7,0.8,0.7,1.5C467.6,386.7,467.7,387.3,467.8,387.8z"/>
<path class="st0" d="M487.9,272.6c-0.7,0-1.5-0.2-2-0.6c0.6-0.5,2.2-1.3,3.4-1.3c0.4,0,0.5,0.1,0.5,0.1
	C489.8,272,489.1,272.6,487.9,272.6L487.9,272.6z"/>
<path class="st0" d="M420.6,294.8c-1.8-1.1-3.8-2.5-5.7-4C416.9,292.1,419,293.6,420.6,294.8z"/>
<path class="st0" d="M176.8,225.1c-0.2,0-0.3,0-0.4-0.1c-0.2-0.1-0.3-0.2-0.3-0.6c0-0.9,0.8-2.2,2.1-3c0.6,0.6,1.2,0.8,1.8,0.8
	c0.4,0,0.8-0.1,1.1-0.4c0.5-0.4,0.8-1,1-1.6c0.2-0.1,0.4-0.2,0.6-0.3c0,0,0,0,0,0c-0.1,0.1-0.2,0.2-0.3,0.3
	c-0.2,0.2-0.4,0.6-0.7,0.9C179.9,223.6,178,225.1,176.8,225.1L176.8,225.1z M157.9,225.1c-0.9,0-2.5-0.9-3.2-1.4
	c-0.1-0.1-0.1-0.1-0.2-0.2C156.3,224,157.7,224.6,157.9,225.1z M137.6,218.3c-2.2,0-3.8-1.3-4-1.6c0,0,0-0.3,0.1-0.5
	c0.2-0.4,0.5-0.6,0.7-0.6c1,0.7,2.1,1,3.3,1c1.7,0,3.2-0.7,3.9-1.9c0.1,0,0.3,0,0.6,0c2,0,4.6,0.9,5.4,1.5c-0.2,0.1-0.6,0.2-1.7,0.2
	c-1.4,0.1-3.3,0.2-5.6,1.2C139.4,218.1,138.5,218.3,137.6,218.3L137.6,218.3z M162.7,217.1c-2.2-0.1-5.5-0.2-7.1-0.6
	c0.9-0.3,2.4-0.6,4.1-0.6c1.4,0,2.8,0.2,3.9,0.6c0.5,0.2,1,0.3,1.5,0.4c-0.6,0.1-1.3,0.2-2,0.2L162.7,217.1z M273.1,214.7
	c-1.3-1.3-2.4-2.4-3.8-2.4c-0.8,0-2.3,0.2-4.1,0.5c-2.2,0.3-5,0.7-6.8,0.7c-0.4,0-0.7,0-0.9,0c0.4-0.7,2.2-2.3,4.1-2.3
	c2.1,0,2.9-1.1,3.2-1.7c0.6-1.5-0.1-3.6-2-5.6c-0.7-0.7-0.7-1.2-0.8-2.1c-0.1-1.2-0.2-2.9-2.6-4.7c-3.6-2.7-12.7-5.6-16.7-5.8
	c-1.1,0-1.3-0.2-1.3-0.2c-0.6-1-1.2-1.9-3.4-2.4c-1.5-0.4-2.7-1.1-3.6-1.6c-0.9-0.5-1.5-0.9-2.2-0.9c-0.2,0-1.8,0.1-1.8,2.2
	c0,0.3-0.5,0.5-0.7,0.5c-0.4,0-0.4-0.2-0.4-0.5c0-2.2-1.1-3.6-2.3-4.7c0.2,0,0.3,0.1,0.5,0.1c0.3,0.1,0.6,0.1,0.9,0.1
	c1,0,1.7-0.4,2.1-0.8c0.4-0.3,0.6-0.4,0.9-0.4c0.2,0,0.5,0.1,0.8,0.2c0.5,0.2,1.1,0.3,1.5,0.3c1.5,0,2.4-1.1,2.4-2.1
	c0-1.2-1.1-2.5-2.8-2.5l-0.3,0c-0.4,0-1,0.1-1.7,0.2c-1.2,0.2-2.8,0.4-4.1,0.4c-1.5,0-1.9-0.3-1.9-0.4c-0.2-0.5-0.4-0.9-0.5-1.3
	c-0.6-1.5-1.3-3.4-3.9-3.4c-0.5,0-1,0-1.4,0.1c-0.1,0-0.2,0-0.3,0c0,0,0,0,0,0c0-0.2,0-0.3,1.1-0.5c1.2-0.3,3-0.8,3.7-2.9
	c0.1-0.1,0.6-0.5,2.3-0.5c3.3,0,7.4,1.4,8.3,2.5c0.5,0.7,1,3.1,1.4,5.1c1,4.8,1.9,9.7,5.2,9.7c0.3,0,0.7-0.1,1-0.2
	c2.3-0.8,4.3-2.5,5.9-3.8c1.1-0.9,2.4-2,2.9-2c1.8,0,2.8-1.5,3.5-2.8c0.6-1,1.1-1.7,1.6-1.8c1.1,0,5.8,1.8,9.9,3.4
	c2.8,1.1,5.6,2.2,8.2,3.1v32.1C273.7,215.3,273.4,215,273.1,214.7z M127,215.4c-0.4,0-0.9-0.2-1.3-0.4c0.4,0.1,1.5,0.3,1.7,0.3
	C127.3,215.4,127.2,215.4,127,215.4L127,215.4z M121.3,215c-0.6,0-1.3-0.2-2-0.4c-1.1-0.3-2.3-0.6-3.5-0.6c-0.4,0-0.7,0-1.1,0.1
	c-0.8,0.1-1.9,0.2-3.1,0.2c-3.4,0-7.8-0.6-10-2.3c-2.8-2.2-7.3-3.6-9.9-3.6c-1.4,0-2.3,0.4-2.8,1.1c-0.1,0-0.3,0-0.6,0
	c-1.6,0-4.2-0.6-6.1-1c-0.9-0.2-1.6-0.3-2.1-0.4c-0.3,0-0.4-0.2-0.8-1c-0.3-0.8-0.8-2.2-2.5-2.2c-0.5,0-1,0.1-1.6,0.2
	c-0.4,0.1-0.8,0.1-1.1,0.1l-0.2-0.2c0,0,0-0.1,0-0.1c0.9-0.3,1.7-0.8,2.6-2.3c0.3-0.6,1.5-1,3.2-1c3.2,0,7,1.2,8.1,2.1
	c2,1.4,8.2,3.8,11.3,3.8c1.7,0,2.4-0.7,2.7-1.3c0.4,0.1,1.1,0.4,1.6,0.6c1.8,0.7,4.2,1.6,6.8,1.6c0.9,0,1.8-0.1,2.6-0.4
	c-0.9,0.5-1.5,1.1-1.5,1.9c0,0.9,0.5,1.6,1.7,2c1.4,0.6,3.1,0.6,4.5,0.6c0.5,0,2.6,0,3,0c1,0,1.5,0.1,1.7,0.1
	c0.1,0.5,0.4,0.9,0.8,1.2C122.3,214.1,121.7,214.4,121.3,215C121.3,215,121.3,215,121.3,215z M72.4,198.7c-0.3-0.1-0.7-0.2-1.2-0.3
	c-1-0.2-2.1-0.5-3.1-0.5c-0.9,0-1.6,0.2-2,0.6c-0.1-0.2-0.3-0.5-0.4-0.6c-0.3-0.6-0.6-1.1-1-1.6c-0.5-0.6-1.5-1.4-3.3-2.7
	c-2.4-1.8-5.8-4.3-6.8-6c-0.9-1.5-2.3-2.7-3.8-3.9c-1.9-1.6-3.9-3.3-4.3-5.4c-0.8-4.4-6.3-13.5-9.8-14.2c-0.4-0.3-1.1-2.7-1.6-4.2
	c-1-3.4-2.1-7-4.8-7.3c-1.3-0.1-2.4-1.9-3.5-3.7c-1.1-1.6-2.1-3.3-3.6-4.2c-2.9-1.7-7.2-6.7-7.3-8.7c0.1,0.1,0.2,0.2,0.3,0.2
	c1.2,0.9,3,2.2,5.7,2.2c0,0,0.8,0,1.1,0c4.5,0,5.6,1.6,6.1,3c0.7,2,3.2,3.7,5.9,5.6c1.4,1,3.5,2.4,3.7,3c0.9,2.4,3.6,5.8,5.8,5.8
	c0.3,0,0.6-0.1,0.9-0.2c0,0,0.1,0,0.1,0c0.8,0,1.8,0.5,2.7,1.5c0.7,0.8,1.4,1.1,2.3,1.1c0,0,0.4,0,0.4,0c0.2,0,0.4,0,0.7,0.5
	c0.9,1.2,1.8,1.6,2.4,1.9c0.1,0.1,0.2,0.1,0.3,0.2c-0.1,1.9,1.6,2.2,2.4,2.4c0.2,0.1,0.6,0.1,0.7,0.2c-0.1,1.4,1.1,2.5,2.1,3.3
	c0.3,0.2,0.7,0.6,0.9,0.9c-1.4,1.3-1.9,2.9-1.3,4.3c0.2,0.6,1,2,3.5,2c0.5,0,0.8,0.4,1.4,1.8c0.6,1.3,1.4,3.2,3.6,3.3
	c0.4,0,0.5,0,0.7,0.8c0.2,0.7,0.8,2.3,2.7,2.3c0,0,0.3,0,0.3,0c0.8,0,1.2,0.3,1.6,0.7c0.4,0.3,0.8,0.7,1.5,0.7
	c0.3,0,1.1-0.1,1.6-1.1c0.1-0.3,0.2-0.6,0.2-1c0.3,0.4,0.7,0.8,1.2,1c0.1,0.2,0.2,0.6,0.1,0.9c-0.2,0-0.4,0-0.6,0
	c-1.7,0-2.9,1.1-2.9,2.8c0,0.3-0.1,0.9-0.3,1.5c-0.3,1.3-0.7,2.8-0.6,4.5C73.5,194.1,73,197.7,72.4,198.7z M153.9,198.5
	c-0.1-0.7,0.1-2.2,0.6-4.8c0-0.2,0.1-0.4,0.1-0.6c0.3,1.1,0.7,2,1.3,2.4c0,0,0.1,0.2,0,0.4C155.8,196.7,155,197.8,153.9,198.5z
	 M164,192.6c0-0.1,0-0.3,0-0.5c0-2.2-1.4-3.3-2.4-4c-0.3-0.2-0.7-0.5-0.8-0.7l0,0c0,0,0-0.1,0.2-0.4c0.6-1.2,0.6-2.4,0-3.4
	c-0.7-1.1-2-1.8-3.4-1.8c-1.3,0-2.4,0.7-2.8,1.7c-0.2,0.6-0.5,2.3-0.5,4.1c-0.1-0.1-0.1-0.2-0.2-0.3c-0.6-0.8-1.4-1.2-2.4-1.3
	c-2.5-0.2-3.1-0.7-3.3-1c-0.2-0.5,0.1-1.4,0.8-2.6c1.7-2.8,2.5-5.6,3.1-7.7c0.3-1.1,0.7-2.5,1-2.8c0.3-0.1,0.5-0.3,0.6-0.6
	c0.3,1,0.8,1.9,1.5,2.8c1.4,1.6,3.4,2.7,5.1,2.7c1.5,0,2.6-0.8,3-2.1c0.3-1.1,4.9-3,8.3-3c0.1,0,0.3,0,0.4,0
	c-1.3,1.4-5.3,3.8-7.2,4.2c-1.7,0.4-2.1,1.5-2.2,2c-0.4,1.9,1.6,3.9,3.5,5.2c0.5,0.3,0.5,0.5,0.2,2c-0.3,1.2-0.6,2.9,0.7,4.4
	c1.1,1.2,1.2,1.7,1.2,1.8l0,0c0,0-0.2,0.2-0.9,0.4c-0.5,0.2-1.1,0.4-1.6,0.5C165.2,192.2,164.5,192.5,164,192.6z M124.9,188.5
	c-0.7-2.3-4.5-3.4-8.1-4.1c-0.3-0.1-0.5-0.1-0.7-0.1c-0.9,0-2.1,0.3-3.3,0.7c-1,0.3-2.2,0.6-2.8,0.6c-0.5-1-1.9-3.2-4.1-3.2
	c-0.8,0-1.5,0.3-2.2,0.7c0,0,0,0,0,0c-0.9,0-3.3-3.6-3.3-6.5c0-3-2.1-4.3-3.6-5.2c-0.7-0.4-1.3-0.8-1.5-1.2
	c-0.3-0.5-0.5-1.4-0.6-2.3c-0.3-1.8-0.7-4.1-2.6-5.9c-0.3-0.3-0.3-1,0-1.9c0.5-1.6,1.7-2.9,2.4-3.5c0.6,2.1,1.4,3.5,2.7,3.5
	c0.1,0.1,0.7,0.6,1.1,0.9c0.9,0.8,1.9,1.7,3.1,1.7c0.5,0,1-0.2,1.4-0.5c0,0,0.4-0.2,1.7-0.2c0.4,0,0.8,0,1.3,0c0.5,0,0.9,0,1.4,0
	c1.2,0,2-0.1,2.6-0.3c0.9-0.3,1.6-0.8,2.2-1.2c0.8-0.6,1.5-1.1,3.1-1.1c1,0,1.2,0.2,1.6,0.6c0.4,0.4,1,1,2.1,1
	c0.7,0,1.4-0.2,2.3-0.7c1.1-0.5,2-0.7,2.7-0.9c1.4-0.3,3.4-0.7,3-3.9c-0.1-1.1,0.2-1.5,0.7-2.1c0.5-0.7,1.3-1.7,1-3.3c0,0,0,0,0,0
	c0,0,0.3-0.1,0.5-0.2c1.1-0.5,3.2-1.3,2.9-4.8c-0.1-0.7,0.2-1.1,0.3-1.2c0.6-0.7,2.2-1,4.7-1c0.5,0,2.4,0,2.5,0
	c-0.4,1.1,0.2,2.4,0.5,3c0,0,0,0,0,0c-0.8,0.3-1.1,0.9-1.2,1.2c-0.8,2.4,3,6,3,6c0.2,0.2,0.2,0.4,0.2,1.1c0,1,0,2.7,2,3.6
	c1.9,0.9,3.3,2.2,3.4,2.6c0,0,0,0,0,0c-0.2,0-1.5,0.3-2.3,0.6c-2.9,0.8-6.8,1.8-6.5,5.1c0.2,2.5,0,5.8-2.7,7.5
	c-2,1.2-2.4,4.4-2.7,7.4c-0.2,1.9-0.5,4.8-1.4,5.1c-0.5,0.2-1,0.4-1.5,0.6C128.2,187.6,126,188.5,124.9,188.5
	C124.9,188.5,124.9,188.5,124.9,188.5z M215.3,187.6c-0.3-0.1-0.7-0.4-1.1-0.6c-1.3-0.7-3-1.7-5.4-1.7c-0.9,0-1.7,0-2.6,0.1
	c-0.7,0-1.4,0.1-2,0.1c-0.5,0-1.4,0-1.7-0.3c0.6-0.4,2.6-1,5.3-1c1.5,0,2.9,0.2,4,0.5C213.8,185.4,214.9,186.8,215.3,187.6z
	 M194,187.5c-1.3,0-2.7-0.8-3.1-1.7c0.1,0,0.2,0,0.3,0c1.6,0,3.4,0.9,3.9,1.4C194.8,187.4,194.3,187.5,194,187.5L194,187.5z
	 M200.1,166.8c-0.4-0.7-0.9-1.8-1.2-3.1c-0.7-2.6-0.6-4.9,0.3-6c0.5-0.7,0.8-0.8,0.8-0.8c0.1,0.2,0.6,1.6,0.6,2.2
	c0,0.6,0.3,1.2,0.9,1.5c0.3,0.2,0.7,0.3,1.1,0.3c0.2,0,0.5,0,0.8-0.1c0.2,0,0.4,0,0.6,0c0,0.7,0.1,1.3,0.2,1.9
	c0.1,0.3,0.1,0.6,0.1,0.9c-0.1,0-0.2,0-0.4,0c-0.2,0-0.4,0-0.6,0c-0.2,0-0.3,0-0.5,0c-1,0-1.7,0.3-2.2,0.9
	C200,165,200,166,200.1,166.8z M155.6,165.4c0.3-1,0.7-1.7,1.2-1.8c1.8-0.3,2.8-1.3,3.6-2.1c0.7-0.8,1-1,1.6-1
	c0.3,0,0.7,0.1,1.1,0.2c0.9,0.3,2.9,1,5.3,1.5c-0.2,0-0.3,0-0.4,0C164.2,162.2,158.5,162.9,155.6,165.4z M175.8,163.5
	c-0.5,0-0.9-0.1-1.3-0.3c-0.2-0.1-0.3-0.1-0.5-0.2c0.1,0,0.3,0,0.4,0c1.8,0,3.2-0.3,4.2-1c0,0,1.8-1.2,2.2-1.4
	C179.3,162.2,177.5,163.5,175.8,163.5z M27.1,162.2c-0.4-0.2-0.8-1.1-1.1-2c0.5,0.4,0.9,1,1.1,1.5C27.2,162,27.1,162.1,27.1,162.2
	L27.1,162.2z"/>
<path class="st0" d="M185.1,218.4c0.2-0.2,0.5-0.5,0.7-0.7c1-1,1.5-1.5,2.4-1.5l0.7,0c0.6,0,1.3,0,1.9-0.1c-0.1,0-0.1,0-0.2,0.1
	C188.7,217,186.7,217.8,185.1,218.4C185.2,218.5,185.1,218.5,185.1,218.4z"/>
</svg>
