<!-- Generator: Adobe Illustrator 19.0.0, SVG Export Plug-In  -->
<svg version="1.1"
	 xmlns="http://www.w3.org/2000/svg" xmlns:xlink="http://www.w3.org/1999/xlink" xmlns:a="http://ns.adobe.com/AdobeSVGViewerExtensions/3.0/"
	 x="0px" y="0px" width="37.1px" height="24.9px" viewBox="0 0 37.1 24.9" style="enable-background:new 0 0 37.1 24.9;"
	 xml:space="preserve">
<style type="text/css">
	.st0{fill:#EB2227;}
	.st1{fill:#FFFFFF;}
</style>
<defs>
</defs>
<g id="XMLID_15_">
	<g id="XMLID_17_">
		<rect id="XMLID_25_" x="0" y="0" class="st0" width="37.1" height="12.4"/>
		<g id="XMLID_18_">
			<path id="XMLID_24_" class="st1" d="M5.1,6.2c0-2.2,1.5-4,3.5-4.5C8.2,1.6,7.9,1.5,7.5,1.5c-2.6,0-4.6,2.1-4.6,4.6
				c0,2.6,2.1,4.6,4.6,4.6c0.4,0,0.8-0.1,1.2-0.1C6.6,10.1,5.1,8.3,5.1,6.2z"/>
			<polygon id="XMLID_23_" class="st1" points="7.5,5.9 8.3,6.4 8,5.6 8.7,5 7.8,5 7.5,4.2 7.3,5 6.4,5 7.1,5.6 6.8,6.4 			"/>
			<polygon id="XMLID_22_" class="st1" points="10,4.1 10.7,4.6 10.4,3.7 11.1,3.2 10.2,3.2 10,2.4 9.7,3.2 8.8,3.2 9.5,3.7 
				9.2,4.6 			"/>
			<polygon id="XMLID_21_" class="st1" points="8.5,8.6 9.2,9.1 8.9,8.3 9.6,7.8 8.8,7.8 8.5,7 8.2,7.8 7.3,7.8 8,8.3 7.8,9.1 			
				"/>
			<polygon id="XMLID_20_" class="st1" points="11.4,8.6 12.1,9.1 11.9,8.3 12.6,7.8 11.7,7.8 11.4,7 11.2,7.8 10.3,7.8 11,8.3 
				10.7,9.1 			"/>
			<polygon id="XMLID_19_" class="st1" points="12.3,5.9 13,6.4 12.7,5.6 13.4,5 12.5,5 12.3,4.2 12,5 11.1,5 11.8,5.6 11.5,6.4 			
				"/>
		</g>
	</g>
	<rect id="XMLID_16_" x="0" y="12.4" class="st1" width="37.1" height="12.4"/>
</g>
</svg>
