<!-- Generator: Adobe Illustrator 19.0.0, SVG Export Plug-In  -->
<svg version="1.1"
	 xmlns="http://www.w3.org/2000/svg" xmlns:xlink="http://www.w3.org/1999/xlink" xmlns:a="http://ns.adobe.com/AdobeSVGViewerExtensions/3.0/"
	 x="0px" y="0px" width="380.4px" height="414.6px" viewBox="0 0 380.4 414.6" style="enable-background:new 0 0 380.4 414.6;"
	 xml:space="preserve">
<style type="text/css">
	.st0{fill:#740E50;}
	.st1{fill:#FFFFFF;}
	.st2{font-family:'UnileverDINOffcPro-Bold';}
	.st3{font-size:26.6264px;}
	.st4{fill:#520037;}
	.st5{font-family:'UnileverDINOffcPro';}
	.st6{font-size:17.7509px;}
	.st7{opacity:0.8;fill:#FFFFFF;}
	.st8{opacity:0.8;}
	.st9{fill:#EC1C24;}
	.st10{fill:#303187;}
	.st11{font-family:'MyriadPro-Bold';}
	.st12{font-size:21.3011px;}
	.st13{fill-rule:evenodd;clip-rule:evenodd;fill:#65C8D0;}
	.st14{fill:none;stroke:#FFFFFF;stroke-width:0.4514;stroke-miterlimit:10;}
	.st15{fill:#231F20;}
	.st16{font-size:15.2151px;}
	.st17{fill:none;}
</style>
<defs>
</defs>
<g id="XMLID_15_">
	<rect id="XMLID_101_" class="st0" width="380.4" height="76.1"/>
	<text id="XMLID_100_" transform="matrix(1 0 0 1 15.6762 30.3504)"><tspan x="0" y="0" class="st1 st2 st3">Global Specialty</tspan><tspan x="0" y="32" class="st1 st2 st3">Coffee Expo</tspan></text>
	<g id="XMLID_97_">
		<rect id="XMLID_99_" y="76.1" class="st4" width="380.4" height="38"/>
		<text id="XMLID_98_" transform="matrix(1 0 0 1 17.4635 100.6853)" class="st1 st5 st6">19-22/2018</text>
	</g>
	<rect id="XMLID_96_" y="114.1" class="st7" width="380.4" height="190.1"/>
	<g id="XMLID_31_">
		<rect id="XMLID_95_" y="300.5" class="st8" width="380.4" height="76.1"/>
		<g id="XMLID_33_">
			<rect id="XMLID_94_" x="19.6" y="304.3" class="st1" width="37.9" height="30.4"/>
			<g id="XMLID_86_">
				<rect id="XMLID_93_" x="19.6" y="304.3" class="st9" width="37.9" height="2.4"/>
				<rect id="XMLID_92_" x="19.6" y="309" class="st9" width="37.9" height="2.4"/>
				<rect id="XMLID_91_" x="19.6" y="313.6" class="st9" width="37.9" height="2.4"/>
				<rect id="XMLID_90_" x="19.6" y="318.3" class="st9" width="37.9" height="2.4"/>
				<rect id="XMLID_89_" x="19.6" y="323" class="st9" width="37.9" height="2.4"/>
				<rect id="XMLID_88_" x="19.6" y="327.7" class="st9" width="37.9" height="2.4"/>
				<rect id="XMLID_87_" x="19.6" y="332.3" class="st9" width="37.9" height="2.4"/>
			</g>
			<rect id="XMLID_85_" x="19.6" y="304.3" class="st10" width="17" height="16.4"/>
			<g id="XMLID_34_">
				<polygon id="XMLID_84_" class="st1" points="21,306.3 21.5,306.7 21.3,306 21.7,305.7 21.2,305.7 21,305.1 20.9,305.7 
					20.3,305.7 20.8,306 20.6,306.7 				"/>
				<polygon id="XMLID_83_" class="st1" points="23.9,306.3 24.3,306.7 24.1,306 24.6,305.7 24,305.7 23.9,305.1 23.7,305.7 
					23.2,305.7 23.6,306 23.4,306.7 				"/>
				<polygon id="XMLID_82_" class="st1" points="26.7,306.3 27.1,306.7 27,306 27.4,305.7 26.9,305.7 26.7,305.1 26.6,305.7 
					26,305.7 26.5,306 26.3,306.7 				"/>
				<polygon id="XMLID_81_" class="st1" points="29.6,306.3 30,306.7 29.8,306 30.3,305.7 29.7,305.7 29.6,305.1 29.4,305.7 
					28.9,305.7 29.3,306 29.1,306.7 				"/>
				<polygon id="XMLID_80_" class="st1" points="32.4,306.3 32.8,306.7 32.7,306 33.1,305.7 32.6,305.7 32.4,305.1 32.2,305.7 
					31.7,305.7 32.1,306 32,306.7 				"/>
				<polygon id="XMLID_79_" class="st1" points="35.3,306.3 35.7,306.7 35.5,306 36,305.7 35.4,305.7 35.3,305.1 35.1,305.7 
					34.6,305.7 35,306 34.8,306.7 				"/>
				<polygon id="XMLID_78_" class="st1" points="22.4,307.9 22.9,308.3 22.7,307.7 23.1,307.3 22.6,307.3 22.4,306.7 22.3,307.3 
					21.8,307.3 22.2,307.7 22,308.3 				"/>
				<polygon id="XMLID_77_" class="st1" points="25.3,307.9 25.7,308.3 25.6,307.7 26,307.3 25.5,307.3 25.3,306.7 25.1,307.3 
					24.6,307.3 25,307.7 24.9,308.3 				"/>
				<polygon id="XMLID_76_" class="st1" points="28.1,307.9 28.6,308.3 28.4,307.7 28.8,307.3 28.3,307.3 28.1,306.7 28,307.3 
					27.4,307.3 27.9,307.7 27.7,308.3 				"/>
				<polygon id="XMLID_75_" class="st1" points="31,307.9 31.4,308.3 31.3,307.7 31.7,307.3 31.2,307.3 31,306.7 30.8,307.3 
					30.3,307.3 30.7,307.7 30.6,308.3 				"/>
				<polygon id="XMLID_74_" class="st1" points="33.8,307.9 34.3,308.3 34.1,307.7 34.5,307.3 34,307.3 33.8,306.7 33.7,307.3 
					33.1,307.3 33.6,307.7 33.4,308.3 				"/>
				<polygon id="XMLID_73_" class="st1" points="21,309.6 21.5,310 21.3,309.3 21.7,309 21.2,309 21,308.4 20.9,309 20.3,309 
					20.8,309.3 20.6,310 				"/>
				<polygon id="XMLID_72_" class="st1" points="23.9,309.6 24.3,310 24.1,309.3 24.6,309 24,309 23.9,308.4 23.7,309 23.2,309 
					23.6,309.3 23.4,310 				"/>
				<polygon id="XMLID_71_" class="st1" points="26.7,309.6 27.1,310 27,309.3 27.4,309 26.9,309 26.7,308.4 26.6,309 26,309 
					26.5,309.3 26.3,310 				"/>
				<polygon id="XMLID_70_" class="st1" points="29.6,309.6 30,310 29.8,309.3 30.3,309 29.7,309 29.6,308.4 29.4,309 28.9,309 
					29.3,309.3 29.1,310 				"/>
				<polygon id="XMLID_69_" class="st1" points="32.4,309.6 32.8,310 32.7,309.3 33.1,309 32.6,309 32.4,308.4 32.2,309 31.7,309 
					32.1,309.3 32,310 				"/>
				<polygon id="XMLID_68_" class="st1" points="35.3,309.6 35.7,310 35.5,309.3 36,309 35.4,309 35.3,308.4 35.1,309 34.6,309 
					35,309.3 34.8,310 				"/>
				<polygon id="XMLID_67_" class="st1" points="22.4,311.2 22.9,311.6 22.7,311 23.1,310.6 22.6,310.6 22.4,310 22.3,310.6 
					21.8,310.6 22.2,311 22,311.6 				"/>
				<polygon id="XMLID_66_" class="st1" points="25.3,311.2 25.7,311.6 25.6,311 26,310.6 25.5,310.6 25.3,310 25.1,310.6 
					24.6,310.6 25,311 24.9,311.6 				"/>
				<polygon id="XMLID_65_" class="st1" points="28.1,311.2 28.6,311.6 28.4,311 28.8,310.6 28.3,310.6 28.1,310 28,310.6 
					27.4,310.6 27.9,311 27.7,311.6 				"/>
				<polygon id="XMLID_64_" class="st1" points="31,311.2 31.4,311.6 31.3,311 31.7,310.6 31.2,310.6 31,310 30.8,310.6 30.3,310.6 
					30.7,311 30.6,311.6 				"/>
				<polygon id="XMLID_63_" class="st1" points="33.8,311.2 34.3,311.6 34.1,311 34.5,310.6 34,310.6 33.8,310 33.7,310.6 
					33.1,310.6 33.6,311 33.4,311.6 				"/>
				<polygon id="XMLID_62_" class="st1" points="21,312.9 21.5,313.3 21.3,312.6 21.7,312.3 21.2,312.3 21,311.7 20.9,312.3 
					20.3,312.3 20.8,312.6 20.6,313.3 				"/>
				<polygon id="XMLID_61_" class="st1" points="23.9,312.9 24.3,313.3 24.1,312.6 24.6,312.3 24,312.3 23.9,311.7 23.7,312.3 
					23.2,312.3 23.6,312.6 23.4,313.3 				"/>
				<polygon id="XMLID_60_" class="st1" points="26.7,312.9 27.1,313.3 27,312.6 27.4,312.3 26.9,312.3 26.7,311.7 26.6,312.3 
					26,312.3 26.5,312.6 26.3,313.3 				"/>
				<polygon id="XMLID_59_" class="st1" points="29.6,312.9 30,313.3 29.8,312.6 30.3,312.3 29.7,312.3 29.6,311.7 29.4,312.3 
					28.9,312.3 29.3,312.6 29.1,313.3 				"/>
				<polygon id="XMLID_58_" class="st1" points="32.4,312.9 32.8,313.3 32.7,312.6 33.1,312.3 32.6,312.3 32.4,311.7 32.2,312.3 
					31.7,312.3 32.1,312.6 32,313.3 				"/>
				<polygon id="XMLID_57_" class="st1" points="35.3,312.9 35.7,313.3 35.5,312.6 36,312.3 35.4,312.3 35.3,311.7 35.1,312.3 
					34.6,312.3 35,312.6 34.8,313.3 				"/>
				<polygon id="XMLID_56_" class="st1" points="22.4,314.5 22.9,314.9 22.7,314.3 23.1,313.9 22.6,313.9 22.4,313.3 22.3,313.9 
					21.8,313.9 22.2,314.3 22,314.9 				"/>
				<polygon id="XMLID_55_" class="st1" points="25.3,314.5 25.7,314.9 25.6,314.3 26,313.9 25.5,313.9 25.3,313.3 25.1,313.9 
					24.6,313.9 25,314.3 24.9,314.9 				"/>
				<polygon id="XMLID_54_" class="st1" points="28.1,314.5 28.6,314.9 28.4,314.3 28.8,313.9 28.3,313.9 28.1,313.3 28,313.9 
					27.4,313.9 27.9,314.3 27.7,314.9 				"/>
				<polygon id="XMLID_53_" class="st1" points="31,314.5 31.4,314.9 31.3,314.3 31.7,313.9 31.2,313.9 31,313.3 30.8,313.9 
					30.3,313.9 30.7,314.3 30.6,314.9 				"/>
				<polygon id="XMLID_52_" class="st1" points="33.8,314.5 34.3,314.9 34.1,314.3 34.5,313.9 34,313.9 33.8,313.3 33.7,313.9 
					33.1,313.9 33.6,314.3 33.4,314.9 				"/>
				<polygon id="XMLID_51_" class="st1" points="21,316.2 21.5,316.6 21.3,316 21.7,315.6 21.2,315.6 21,315 20.9,315.6 20.3,315.6 
					20.8,316 20.6,316.6 				"/>
				<polygon id="XMLID_50_" class="st1" points="23.9,316.2 24.3,316.6 24.1,316 24.6,315.6 24,315.6 23.9,315 23.7,315.6 
					23.2,315.6 23.6,316 23.4,316.6 				"/>
				<polygon id="XMLID_49_" class="st1" points="26.7,316.2 27.1,316.6 27,316 27.4,315.6 26.9,315.6 26.7,315 26.6,315.6 26,315.6 
					26.5,316 26.3,316.6 				"/>
				<polygon id="XMLID_48_" class="st1" points="29.6,316.2 30,316.6 29.8,316 30.3,315.6 29.7,315.6 29.6,315 29.4,315.6 
					28.9,315.6 29.3,316 29.1,316.6 				"/>
				<polygon id="XMLID_47_" class="st1" points="32.4,316.2 32.8,316.6 32.7,316 33.1,315.6 32.6,315.6 32.4,315 32.2,315.6 
					31.7,315.6 32.1,316 32,316.6 				"/>
				<polygon id="XMLID_46_" class="st1" points="35.3,316.2 35.7,316.6 35.5,316 36,315.6 35.4,315.6 35.3,315 35.1,315.6 
					34.6,315.6 35,316 34.8,316.6 				"/>
				<polygon id="XMLID_45_" class="st1" points="22.4,317.8 22.9,318.2 22.7,317.6 23.1,317.2 22.6,317.2 22.4,316.6 22.3,317.2 
					21.8,317.2 22.2,317.6 22,318.2 				"/>
				<polygon id="XMLID_44_" class="st1" points="25.3,317.8 25.7,318.2 25.6,317.6 26,317.2 25.5,317.2 25.3,316.6 25.1,317.2 
					24.6,317.2 25,317.6 24.9,318.2 				"/>
				<polygon id="XMLID_43_" class="st1" points="28.1,317.8 28.6,318.2 28.4,317.6 28.8,317.2 28.3,317.2 28.1,316.6 28,317.2 
					27.4,317.2 27.9,317.6 27.7,318.2 				"/>
				<polygon id="XMLID_42_" class="st1" points="31,317.8 31.4,318.2 31.3,317.6 31.7,317.2 31.2,317.2 31,316.6 30.8,317.2 
					30.3,317.2 30.7,317.6 30.6,318.2 				"/>
				<polygon id="XMLID_41_" class="st1" points="33.8,317.8 34.3,318.2 34.1,317.6 34.5,317.2 34,317.2 33.8,316.6 33.7,317.2 
					33.1,317.2 33.6,317.6 33.4,318.2 				"/>
				<polygon id="XMLID_40_" class="st1" points="21,319.5 21.5,319.9 21.3,319.3 21.7,318.9 21.2,318.9 21,318.3 20.9,318.9 
					20.3,318.9 20.8,319.3 20.6,319.9 				"/>
				<polygon id="XMLID_39_" class="st1" points="23.9,319.5 24.3,319.9 24.1,319.3 24.6,318.9 24,318.9 23.9,318.3 23.7,318.9 
					23.2,318.9 23.6,319.3 23.4,319.9 				"/>
				<polygon id="XMLID_38_" class="st1" points="26.7,319.5 27.1,319.9 27,319.3 27.4,318.9 26.9,318.9 26.7,318.3 26.6,318.9 
					26,318.9 26.5,319.3 26.3,319.9 				"/>
				<polygon id="XMLID_37_" class="st1" points="29.6,319.5 30,319.9 29.8,319.3 30.3,318.9 29.7,318.9 29.6,318.3 29.4,318.9 
					28.9,318.9 29.3,319.3 29.1,319.9 				"/>
				<polygon id="XMLID_36_" class="st1" points="32.4,319.5 32.8,319.9 32.7,319.3 33.1,318.9 32.6,318.9 32.4,318.3 32.2,318.9 
					31.7,318.9 32.1,319.3 32,319.9 				"/>
				<polygon id="XMLID_35_" class="st1" points="35.3,319.5 35.7,319.9 35.5,319.3 36,318.9 35.4,318.9 35.3,318.3 35.1,318.9 
					34.6,318.9 35,319.3 34.8,319.9 				"/>
			</g>
		</g>
		<text id="XMLID_32_" transform="matrix(0.8333 0 0 1 65.5279 325.7674)" class="st1 st11 st12">Seattle</text>
	</g>
	<g id="XMLID_19_">
		<rect id="XMLID_30_" y="376.6" class="st7" width="380.4" height="38"/>
		<g id="XMLID_21_">
			<circle id="XMLID_29_" class="st13" cx="33.4" cy="395.6" r="12.7"/>
			<g id="XMLID_22_">
				<circle id="XMLID_28_" class="st14" cx="33.4" cy="395.5" r="8.7"/>
				<ellipse id="XMLID_27_" class="st14" cx="33.4" cy="395.5" rx="5.1" ry="8.7"/>
				<path id="XMLID_26_" class="st14" d="M39.9,401.3c-1.6-1.1-3.9-1.8-6.5-1.8c-2.6,0-4.9,0.7-6.5,1.8"/>
				<path id="XMLID_25_" class="st14" d="M26.7,390c1.6,1.1,4,1.9,6.6,1.9c2.7,0,5.1-0.7,6.7-1.9"/>
				<line id="XMLID_24_" class="st14" x1="33.4" y1="386.9" x2="33.4" y2="404.3"/>
				<line id="XMLID_23_" class="st14" x1="42.1" y1="395.6" x2="24.7" y2="395.6"/>
			</g>
		</g>
		<text id="XMLID_20_" transform="matrix(1 0 0 1 55.5417 401.1824)" class="st15 st5 st6">http://coffeeexpo.org/</text>
	</g>
	<text id="XMLID_18_" transform="matrix(1 0 0 1 66.8354 347.2254)"><tspan x="0" y="0" class="st1 st5 st16">Venue Name </tspan><tspan x="0" y="18.3" class="st1 st5 st16">Address 12, Borough, PO ST3</tspan></text>
	<rect id="XMLID_17_" x="20.4" y="121.4" class="st17" width="338.5" height="176.2"/>
	<text id="XMLID_16_" transform="matrix(1 0 0 1 20.3824 132.206)"><tspan x="0" y="0" class="st15 st5 st16">The Good Food &amp; Wine Show (GF&amp;WS) is the long</tspan><tspan x="331.2" y="0" class="st15 st5 st16">-</tspan><tspan x="0" y="18.3" class="st15 st5 st16">standing most prominent event in South Africa. </tspan><tspan x="0" y="36.5" class="st15 st5 st16">Our main objective is to provide sponsors, exhibi</tspan><tspan x="324.7" y="36.5" class="st15 st5 st16">-</tspan><tspan x="0" y="54.8" class="st15 st5 st16">tors, and partners with a valuable and unique </tspan><tspan x="0" y="73" class="st15 st5 st16">marketing platform, allowing them to communi</tspan><tspan x="319.1" y="73" class="st15 st5 st16">-</tspan><tspan x="0" y="91.3" class="st15 st5 st16">cate directly to their target audience by showcas</tspan><tspan x="325.4" y="91.3" class="st15 st5 st16">-</tspan><tspan x="0" y="109.5" class="st15 st5 st16">ing their products. Last year we delivered over 60 </tspan><tspan x="0" y="127.8" class="st15 st5 st16">000 visitors to our clients over the three shows.</tspan></text>
</g>
</svg>
