<!-- Generator: Adobe Illustrator 19.0.0, SVG Export Plug-In  -->
<svg version="1.1"
	 xmlns="http://www.w3.org/2000/svg" xmlns:xlink="http://www.w3.org/1999/xlink" xmlns:a="http://ns.adobe.com/AdobeSVGViewerExtensions/3.0/"
	 x="0px" y="0px" width="426.5px" height="277px" viewBox="0 0 426.5 277" style="enable-background:new 0 0 426.5 277;"
	 xml:space="preserve">
<style type="text/css">
	.st0{fill:#F7EDA9;}
</style>
<defs>
</defs>
<polygon class="st0" points="320.8,195.3 319.7,194.7 319,194.7 318.5,194.5 318.8,195.3 319.9,195.7 320.7,196.3 "/>
<polygon class="st0" points="316.7,235.1 315.4,237.3 314.8,239.6 314.4,240 314.8,240.5 314.8,242.7 315,245 315.6,245.4 
	315.7,246.1 315.5,246.2 315.4,246.9 316.1,247.8 316.7,248 316.8,248.7 318.5,249.3 319.3,250.5 319.2,251.8 319.3,252.8 
	320.1,252.5 320.9,252.8 320.7,251.6 321,250.3 320.4,248.6 321.4,247.3 322.8,245.1 322.9,243.7 323.3,243.3 322.7,243.1 
	323.1,240.9 323.2,239.3 322.9,237.7 323.6,236.5 323.8,233.5 324.2,232 324.6,231.9 324.4,230.9 323.4,230.1 323.1,230.1 
	322.4,228.8 321.2,228.4 320.4,228.8 320.5,229.6 319.5,230 318.3,231.4 317.1,233.4 317.4,233.9 317.2,234.7 "/>
<path class="st0" d="M254.4,275.7h1.2l0.8,0.6l0.8,0l1,0.7l0.7-0.4l0.3-1l0.9-0.2l1,0.2l0.7-0.9l0.1-0.7l1.1-0.2l0.8-0.9l-0.2-1
	l0.6-1.8l0.6-0.5l0.2-0.8l0.9-1.4l-0.5-1.5l-1.2-0.8l-1.2-0.5l-0.8,0.6c0,0-0.7-0.5-0.6-0.5l-1.2,0.2l-0.6-0.2l-0.8,0.5h-1.1
	l-1.1,0.6l-1,0.2l-0.2,1.1l-1.7,1l-1.5,1.6l0.5,0.9l0,2.1l0.7,1.1l-0.1,0.7L254.4,275.7z"/>
<polygon class="st0" points="313.6,183.5 312.2,183.3 312.1,183.7 312.8,184.4 314,184.5 315.3,185 315.1,183.8 314.2,183.8 "/>
<polygon class="st0" points="310.4,228.7 310.5,227.9 310.1,227.5 309.6,227.7 309.9,229 "/>
<polygon class="st0" points="298.5,243.2 298.9,242.8 298.2,242.1 297.3,242.6 297.5,243.1 "/>
<polygon class="st0" points="336.8,162.3 337.2,162.3 337.1,161.4 336.8,160.7 336.5,161.4 336.1,161.4 335.9,161.8 336.4,162.6 "/>
<polygon class="st0" points="341,170 341.8,168.7 341.7,168 340.6,167.8 338.1,168.5 337.4,169.3 337.9,170.2 339,170.4 "/>
<polygon class="st0" points="345.1,158.1 344.5,158.4 344.8,159 345.6,158.6 "/>
<polygon class="st0" points="354.4,159.2 353.9,159.6 353.6,160.3 353.5,161.3 353.8,162.1 354.2,161.7 354.8,160.5 354.6,159.7 "/>
<polygon class="st0" points="349.6,158.5 349.9,157.8 349.9,156.8 349.4,156.6 348.6,157.2 348.7,157.9 349,158.6 "/>
<polygon class="st0" points="334.8,130.4 332.7,132.2 330.8,132.7 329,134.5 328.6,135.8 328.7,135.9 329.7,135.2 331.4,135.3 
	330.6,135.7 332.9,137.6 334.4,139.8 335.1,139.9 334.8,140.6 335.6,141.7 336.1,142.7 334.1,142.1 333.8,141.5 333.4,142.5 
	332.5,142.3 331.4,143.9 333.9,145.1 334.5,144.9 335.1,146.2 335.1,148.6 335.8,149 336.2,148.6 337.2,150.6 335.4,151.8 
	335.3,152.5 336.1,153.1 336.1,154.1 335.5,154.5 335.5,155.6 336.1,156.7 335.3,156.7 336.7,159.4 337.5,159.5 337.8,160.8 
	338.2,161.1 338.2,162.1 339,161.5 339.1,160 339.6,160.7 340.5,159.6 343,157.3 344.1,157.1 344.2,157.7 345,156.8 345.6,156.9 
	346.2,158 347.3,157.6 347.7,158.1 348.3,157.7 347.8,156.9 349.2,156 350.5,156 352.1,154 351.8,153.4 352.5,152.8 352.2,148.4 
	351.9,148.4 351.5,148.8 351.4,147.5 350.6,143.4 349.8,142.5 349.7,139.9 346.3,135.7 343.2,132.5 341.1,128.6 338.8,130.1 "/>
<polygon class="st0" points="353.3,164 353.7,163.9 354.2,163.5 354.5,162.7 353.6,162.6 353.1,163.4 "/>
<polygon class="st0" points="343,93.2 341.1,92.8 340.6,92.2 340.6,91 339.6,90.2 338.9,90.5 338.9,91.8 338.8,92.9 339.2,93.8 
	338.8,94.9 337.6,95 336.7,96.3 336.7,97.5 334.5,99.3 333.2,99.5 332.2,100.1 333.4,101 334.7,102.2 334.7,103.1 334,104.6 
	332.5,104.4 330.2,104.6 328.9,104.2 327.9,104.6 327.1,103.8 326.2,103.3 325.1,101.7 324,103 323.9,104.9 324,105.5 323.5,106.5 
	322.6,109.3 321.5,109.8 320.5,111.7 319,112.7 319,113.7 318.4,115.2 316.9,116.4 316.9,119.7 316.9,119.7 317,120.1 317.3,120 
	317.8,122.1 318.7,121.5 318.7,120.6 320,121.3 320.5,122.1 322.4,121.8 323,121 323.7,120.9 323.4,121.9 322.7,122.5 323.4,123.5 
	322,125.8 322.1,128.5 322.5,129 324.6,129.1 325.7,128.5 324.5,129.6 323,129.8 322.3,131.4 322.2,133.8 321.9,134.8 322.4,134.9 
	323.4,134.4 324.6,134.8 323.6,136.5 324,137.2 325.2,136.3 325.9,136.8 327,135.4 326.7,134.8 327.3,134.4 328.6,135.8 329,134.5 
	330.8,132.7 332.7,132.2 334.8,130.4 338.8,130.1 341.1,128.6 340.4,127.3 336.2,124.9 335.6,123.9 333.5,123.5 333.1,122 
	333.7,121.4 333.3,120.1 333.3,118.7 334.8,117.7 335.3,116.4 336.4,115.7 337.6,115.8 337.8,115.1 338.7,114.4 338.3,113.5 
	341.2,110.5 340.9,110.1 342.4,108.8 342.8,107.5 341.9,106.8 341.9,103.8 340.7,102.9 340.6,101.2 341.4,98.3 341.5,97 342.1,97.1 
	344,95 344.2,95 344.2,95 343.2,93.6 "/>
<polygon class="st0" points="95.4,59.7 95.4,61 95.7,61.3 96.2,62 96.5,61.9 96.6,61.6 96.8,61.5 97.1,62.1 97.2,62.9 97.4,63.6 
	98,64.2 98.7,64.4 99.6,65.4 100.7,66.1 101.5,67.1 101.6,67.5 101.8,68.4 103,69.1 103.5,69.1 103.7,68.4 104.2,67.9 105.3,67.4 
	106.4,67.4 106.7,67.9 107.6,68.9 108.2,69.1 108.8,68.9 109.4,68.3 110.3,68.2 111.2,68.6 111.6,69.3 112.5,69.6 113.4,70.3 
	114.1,71.2 114.2,72.1 114.5,73.2 115.1,74 115.5,75 116.4,75.8 117.3,76.2 118,77.4 118.5,78.1 118.5,79.4 118.3,80.1 118.6,81.4 
	119.2,82.2 118.8,83.2 118,83.9 117.7,84.5 117.7,85.3 117.9,86.3 119.2,88.2 120.4,88.9 126.1,90.2 128.6,90.1 130.1,89.9 
	130.6,89.5 131,89.4 134.9,90.3 136.7,91.5 137.2,92.1 138.2,92.3 138.7,92.3 139.4,92.5 141.6,94 142.9,94.8 144.5,94.8 
	145.1,94.6 145.5,94.8 145.6,95.8 145.8,96.5 146.4,96.6 147.3,96.9 148.1,97.8 148.2,98.5 148.9,100.2 149.9,101.4 151.1,103.1 
	151.6,104.4 152.8,106.9 153.8,107.2 155,107.1 157.3,106.8 159.9,107 163.4,106.8 168.2,107.2 170.9,106.9 172.8,106.2 
	173.2,105.6 173.8,105.2 174.7,105.4 178.2,105.3 182.3,105.7 183.8,105.8 185.8,107.7 189.4,109.3 193,110.7 194.7,110.8 
	196.7,111.9 198.7,111.6 201.2,110.9 201.4,111.8 201.4,112.4 203.1,112.9 204.5,112.9 205.5,112 208,110 209.6,108.2 212.8,107.1 
	216.9,105.7 218.8,105.1 220.4,104.6 222.8,104.3 224.4,104.3 226,103.1 227.5,102.1 228.9,102 230.7,101.4 231.6,101.4 232.5,99.5 
	234,97 236.5,94.2 237.2,93.1 237.8,92 237.8,91.3 235.5,89.9 232.9,88.2 233,87.4 232.9,86.1 232.9,83.6 233.8,82.4 235.1,81.4 
	237.3,81 238.7,81 240.1,82 241.9,82.6 243.3,82.9 244.5,83.5 245.1,83.4 245.4,82.4 246.2,81.6 247.5,80.7 248.6,79.9 249.6,77.6 
	250.3,77.1 251.7,77.4 253.1,77.4 255.6,75.7 256.9,75.4 257.5,74.6 257.4,73.4 257.6,71.7 258.6,70.1 259.1,69.4 259.7,69.6 
	260.5,69.4 260.9,68.8 261,67.7 261.4,67.6 262.4,68.4 263.4,67.8 264.9,66.5 266,65.1 267,64.9 268.6,65.6 269.2,65.1 270.5,65 
	271,65.5 271.9,65.7 272.3,65 272.4,64.2 272.8,63.5 272.8,62.6 272.4,61.8 272.4,60.8 270.2,59.2 268.6,57.2 266.5,55.2 265,53.4 
	262.4,52.8 261.8,53.3 260.3,53.8 260.2,54.8 260.3,56.1 258.9,58.2 257.8,57.1 255.3,56.7 253,56.7 251.1,58.1 248.4,56.7 
	247.5,54.9 248.2,52.4 248.1,51.3 248.6,49.6 248.3,47.7 249.6,38.8 249.5,38.7 248.9,38.1 246.8,37.4 244.9,37.8 244.8,38.3 
	243.5,39.1 242.5,39.1 241.9,38.7 240.9,39.3 240,38.9 239.3,37.9 238,37.1 236.9,36.9 235.2,37.4 234.8,37.1 233.8,37.1 
	232.9,37.9 232.5,39.1 231.6,40 230.4,40.5 229.7,41.7 229.7,42.2 229.4,43.3 228.2,44.3 225.6,44.3 224.6,44.4 223.7,45.5 
	222.4,45.4 220.2,46.7 219.3,48.1 218.7,48.2 217.6,47.6 216.3,47.6 215.7,48 214.3,48.3 210.8,48.3 208.6,47.6 205.9,47.9 
	205.1,47.8 204.1,46.8 203.3,46.6 202.6,46.2 201.5,45.4 200.8,43.6 200.3,43 199.1,43.3 197.4,43.4 195.4,42.6 194.2,40.9 192,41 
	190.3,40.8 189,40.1 187.5,40.5 186.1,40.5 184.9,41.3 182.6,41.4 180.9,41.9 179.9,43 179.2,43.3 178.5,43 177.6,43 176.9,43.5 
	175.1,43.4 174.7,43.8 173.9,43.8 172.1,42.9 170.4,42.4 170.1,41.7 168.9,40.7 168.2,40.7 167.5,40.1 167.6,39 167,37.8 
	166.4,37.1 166.4,36.3 165.9,35.5 165.9,34.8 165.4,33.9 164.5,33.5 162.1,33.6 161.1,33.4 160.3,33 158.8,32.9 158.3,32.3 
	157.5,31.8 155.4,31.9 154,31.8 152.7,31.3 152.5,30.9 150.9,30.2 149.4,29.8 148.6,29.3 147.5,29.2 146.8,29.9 146.6,30.7 
	147,31.7 146.5,32.7 146,32.5 145,32.8 144.4,33.7 144.4,34.6 143.3,35.9 143.2,38.8 143.6,40.2 145.3,40.6 145.9,41.4 147,41.7 
	147.2,42.5 146.9,44.4 146.8,46.1 148,46.9 148.6,47.6 147.5,49.3 145.6,49.6 144.5,49.4 144.3,49.7 143.2,49.8 142.2,49.3 
	139.7,49.3 138.8,49.6 138,49 136.9,48.7 135.9,48.8 134.6,49.7 133.5,50.1 132.7,50.5 130.7,49.6 129.6,48.7 126.8,47.1 
	126.4,46.3 126.2,45.4 125.9,44.5 124,44.6 123.2,45.2 122.1,45.1 121.5,45.3 120.3,45.4 119.6,44.7 119.5,44 118.8,43.1 118.5,43 
	117.6,43.6 116.3,43.5 115.4,43.5 114.2,43.8 112.2,44.1 111.3,44.4 110.7,45.9 109.9,46.3 108,45.8 107.7,46.3 107.7,47.1 
	108.3,47.6 107.8,48 107,49.2 106.1,49.4 105.1,50.3 105.1,51.1 103.6,51.8 103.2,53 103.1,54.1 101.3,54.8 100.3,55.9 99.9,56.5 
	97.3,56.3 96.2,56.9 95.3,59 95.3,59.1 "/>
<polygon class="st0" points="421.5,72 421.5,71 421.2,70.6 420.9,70.9 420.7,71.9 419.8,73.1 417.9,74.4 416.5,74.6 416,74.3 
	415.2,74.5 414,73.4 412.6,73.2 410.9,72.4 409.9,71.3 408.8,71.1 408.4,70.3 406.9,69.2 404.3,66.7 403.5,65.1 401.9,64.8 
	400.1,63.3 399.7,62.4 398.4,62.4 398.5,62.9 397.9,63.6 397.4,63.6 397.1,64 397.6,64.7 397.9,66.1 399.9,69.1 400.4,70.5 
	400.5,72.6 400.3,73.4 400.9,75.2 401.3,76.3 401.2,76.8 400.7,76.8 399.8,77.8 400.2,78.9 400.8,79.9 401,80.5 401.5,80.8 
	401.9,81.6 401.5,82 401.4,82.8 400.8,83.3 398.9,83 397.1,82 396.2,82.2 395.8,83.1 396.1,83.5 396.6,83.6 397.7,84.4 397.9,84.9 
	397.5,85.5 397,86.6 396.2,86.8 396,87.3 395.3,87.7 394.9,88.6 395.2,89.8 395.1,91.3 395.2,92.1 395.9,92.1 396.9,92.8 
	397.8,93.6 398.5,95.6 398.8,97.6 398.5,97.9 398.9,98.8 399.9,99.4 401.2,97.9 401.7,96.9 401.5,96.1 402.1,95.7 403.6,95.8 
	404.4,96.4 404.7,95.5 405.6,94.4 405.1,93.7 403.8,93.7 402.6,93.4 401.1,91.8 399.9,92.1 398.7,91.4 398.3,90.5 398.3,89.4 
	399,88.7 399.8,88.7 401.3,89.6 401.9,89.9 403.2,88.1 404.5,87.1 405.6,87.2 406,87.6 407,87.8 408,87.7 409,88.8 410.5,90.2 
	412.3,91.1 414,91.5 414.6,92.3 415.6,92.7 415.5,91.9 415.7,90.9 415.4,89.6 415.7,87.7 416.2,85.4 417.8,83.2 418.7,82.9 
	419.9,83.2 421.3,83.2 421.2,82.7 422,82 422.4,82.4 423.2,82.3 423.6,81.7 423.8,80.8 424.8,80.4 425.5,79.9 425.6,78.8 
	426.2,78.4 426.5,77.6 425.8,77.7 425,78.5 424.5,79.3 423.6,79.3 423.7,78.8 423.6,77.9 422.7,76.7 421.3,75.8 420.9,75.3 
	420.9,73.7 "/>
<polygon class="st0" points="392.3,92.3 392.5,93.2 392.9,93.7 393.6,93.3 393.7,92.3 393.9,91.3 393.3,91.5 "/>
<polygon class="st0" points="398,131.3 398.4,131.1 399.1,130.5 399.3,129.2 399.2,128.6 398.4,128.3 398.4,127.5 398.3,126.7 
	397.9,127.1 397.4,129 397.5,129.7 398.2,129.3 398.4,129.5 398.1,130.2 "/>
<polygon class="st0" points="385.7,157.9 385.1,158 384.7,158.7 384.7,159.6 385.2,160.7 385.8,160.7 386,160 385.8,159.5 
	385.9,158.7 "/>
<polygon class="st0" points="380.8,165.9 382.5,167 382.9,167.8 383.6,167.4 384.2,165.4 385.4,164.2 385.6,163.4 385.2,163 
	384.9,162.2 383.7,161.2 382.8,161.2 382,160.6 380.5,160.5 379.1,161.7 379.1,162.4 378.5,163.2 377.5,163.5 376.6,164.1 
	376.1,164 375.4,162.4 374.9,162.5 373.3,164.2 373.3,165.3 372.3,166 372.1,167.1 373.7,167.5 374,168.7 373.6,169 373.6,169.6 
	374.5,170.9 376,171.1 375.9,171.8 376.3,172 376.7,171.6 377.4,171.9 377.9,171.7 377.9,171 376.8,169.9 377.3,168.9 377.8,167.2 
	379.2,166.4 379.6,165.8 "/>
<polygon class="st0" points="382.7,159 382,158.8 381.1,159.7 382,159.9 382.7,159.6 "/>
<polygon class="st0" points="368.3,192.6 368.6,192.1 368.4,191.3 367.7,190.4 366.9,190.6 366.7,191.3 367.3,192.4 "/>
<polygon class="st0" points="372,146.3 371.8,146.9 372.1,147.1 372.5,146.8 "/>
<polygon class="st0" points="354.1,172.8 354.7,172.4 353.9,172.2 "/>
<polygon class="st0" points="336.5,237.2 336.9,236.8 336.6,236.1 335.9,236.1 335.7,237.2 "/>
<polygon class="st0" points="362.5,175 362.1,174.8 361.8,175.2 361.8,175.8 362.4,175.7 "/>
<polygon class="st0" points="337.9,236.6 338.5,236.7 338.8,235.7 338.2,235.2 337.6,235.9 "/>
<polygon class="st0" points="355.1,171.9 355.3,171.5 354.6,171.7 "/>
<polygon class="st0" points="373.9,146 373.8,145.1 373.1,145.1 372.6,145.9 373,146.4 373.5,146.4 "/>
<polygon class="st0" points="355.5,221.8 356.1,221.6 356.1,220.6 357.5,219.7 357.6,218.7 358.1,218 357.6,216.8 357.1,218 
	356.1,218.6 356.3,219 356.1,219.5 355.1,220.3 "/>
<polygon class="st0" points="344.3,232.5 343,231.9 342.9,233.1 343.3,233.5 344.1,233.6 "/>
<polygon class="st0" points="363,164.8 361.8,165.7 361.5,166.4 360.8,166.9 359.7,168.1 359.3,169 358.3,169 357.3,169.6 
	357.8,169.6 358.4,169.7 358.7,170.7 359.2,172 358.8,172.4 358.7,171.5 358.2,170.8 357.9,171.7 358.2,172.8 358.9,173.1 
	359.1,173.8 358.7,174.5 359.2,174.2 359.6,173.4 360.5,173.1 361.1,173.3 360.6,173.7 361,174.1 361.9,173.8 361.8,172.7 
	361.2,172.2 360.2,172.4 360.2,172 360.5,171.5 360.3,170.6 360.8,170 361.7,170.4 362.7,172.1 362.9,173.3 363.3,173.9 
	363.4,175.9 362.6,177.7 361.6,177.8 361.8,178.4 362.7,180 363.1,182 364,183.1 364,184.1 363.5,184.7 364.3,185.6 365.2,185.4 
	365.9,185.9 366.3,185.5 366.3,184.9 365.5,183.5 365.5,181.7 366,181.1 366.6,181.6 366.2,182.1 366.2,182.6 367.1,183.5 
	367.4,185.1 367.2,186 367.3,186.8 368.4,186.2 369.5,184.6 368.5,183.5 368.4,182.9 368.9,182.7 369.8,182.9 370.3,183.3 
	370.6,182.1 370.5,180.3 370.2,179.4 370.3,176.1 370.2,174.4 370.8,173.3 371.8,172.3 371.6,171.4 371,171.2 371,170.2 370.4,170 
	370.6,169.3 368.7,169.3 368.4,168.9 369.3,168.3 369.6,167.6 369.3,166.1 368.6,165.7 367.7,165.8 367.7,166.2 366.9,166.8 
	366.1,166.6 364.8,165.3 365,164.4 366.8,163.6 368.4,163.3 370.1,163.9 370.9,164.3 371.1,163.8 371.1,163 371.1,161.8 371,161 
	371.3,160.4 372.1,160.4 372.6,161 373.3,161.1 374.3,160.6 376.1,160.2 378,159.6 379.1,159.6 379.6,159.8 380.2,159.5 
	380.2,159.1 381.4,158.4 381.7,157.8 383,156.7 384.4,156.3 386.1,156.6 387.1,156.3 387.6,156.7 387.6,157.7 386.7,158.9 
	386.5,159.9 387,160.2 387.1,161.3 387.2,162.3 387,162.8 387.3,163.9 388.5,164.4 390.1,165.9 391.2,166.2 391.9,165.8 393,164.1 
	393.1,163 393.7,162.6 393.9,162.1 393.7,161.3 394.4,159.9 395.4,159.8 396.3,159.8 396.6,159.2 396.4,158.8 396.1,157.6 
	394,156.7 393.8,156.1 394.2,154.6 394.9,154 395.3,153.8 395.1,154.3 395.2,155.6 395.6,155.9 396.1,155.5 396.4,155.2 
	397.2,155.4 397.8,155.8 398.4,155.6 398.8,155.7 398.5,156.2 397.5,156.5 397.4,156.8 397.7,156.9 398.6,156.7 400,155.9 
	402.9,156.2 404.4,156 404,155.6 403.7,154.5 404,153.2 405.3,152.5 406.2,152.7 406.4,153.9 406.1,154.9 406.5,155.8 407.4,155.7 
	408.3,154.5 407.6,152.5 408,151.3 409.4,150.2 410.2,150.1 410.4,149.6 409.9,148.9 410.2,147.6 410.9,147.1 411.9,147.3 
	412.2,147.9 411.6,148.7 411.4,150.3 411.7,153.6 412.2,153.8 413,153.3 413.5,152.3 414.4,152.2 415.5,151 415.9,149.5 
	415.7,148.6 416.9,147.4 416.7,146.7 416.1,146.1 414.8,144.2 414.3,142.9 414,140.1 414.4,136.9 414.5,134.7 413.5,130.7 
	412.1,128.7 411.9,127.3 412.3,125.4 414,124.6 414.9,124.6 415.4,125.3 415.7,124.9 415.4,123.6 415.2,122.7 414.8,122.3 
	414.5,121.1 414.6,120.6 414.6,119.7 415,119 415,118.6 415.1,117.7 414.8,117.2 414.7,115.8 415,115.1 414.5,114.3 414.2,112 
	413.1,110.2 412.6,110.2 411.9,109.9 411.8,107.4 410.7,106.4 408.4,103.8 407.8,102.7 407.3,100.9 407.2,99.1 407.3,98.5 406.6,99 
	406.1,99 405.8,98.7 404.8,98.2 404.2,98.2 404.3,98.5 403.7,99.9 403.8,100.9 404.3,101.4 404.8,101.1 406.1,100 406.7,101.4 
	406.2,102.5 405.6,102.9 404.8,102.3 404.5,102.3 404.9,103.7 404.4,104.2 403.6,103.9 403.4,102.9 403.2,101.8 402.8,101.2 
	402.1,101.4 401.5,101 401.3,102 401.7,103.7 401.7,104.8 401,105.1 400.4,106.1 400.4,106.8 401.8,108.2 402.3,109.1 401.8,110.6 
	401,111.1 400.1,111 399.9,111.6 400.8,112.6 401.6,112.4 402.4,111.6 403.5,114.1 403.9,116.9 403.7,118.4 403.8,121.2 
	402.8,125.2 403.1,126.7 402.6,128.5 401.2,129.2 400.6,130.9 400.7,132.8 400,133.9 399.8,135.1 398.4,136.4 395.7,138 
	394.6,138.3 394,139.4 392.7,138.7 391.3,137 391.3,136.3 392,136 392.6,134.9 392.5,134.3 393.2,133.6 393.1,133.3 391.8,133.6 
	390.8,134.6 389.6,135.1 389.4,136.2 390.2,137.6 390.3,140.3 390.2,141.6 388.8,142.9 388.8,143.7 388.3,144.2 388.1,146.2 
	388.6,146.8 388.7,147.6 388.4,148 388.6,148.3 388.3,149 387.8,149.1 388.1,149.6 387.3,149.9 386.7,149.5 385.8,150.1 
	385.3,149.9 385.1,148.7 384.8,148.5 384,149.1 383.3,149.1 383,148.8 380.5,149.7 379.2,150.2 377.9,150.7 376.4,150.8 375,151.2 
	374.5,150.9 373.3,151.1 371.1,152.6 370.7,153.9 369.9,154.4 369.7,155.3 368.2,157.1 367.2,157.4 366.4,158.6 366.1,159.3 
	365.3,160.2 363.7,160.5 363.2,161.3 363.6,163.1 364.1,163.4 364.3,164.1 364,164.7 "/>
<polygon class="st0" points="355.5,171.3 355.7,171 355.3,171 "/>
<polygon class="st0" points="356.6,170.5 355.9,170 355.6,170 355.6,170.2 356.2,170.7 "/>
<polygon class="st0" points="369.9,188.9 369.8,188 369.1,187.4 369.1,188.2 369.3,190 369.6,189.7 "/>
<polygon class="st0" points="360.7,174.7 360.4,174.6 360,175.2 360.2,176.3 360.6,177.1 361.1,177.1 361.3,176.1 360.7,175 "/>
<polygon class="st0" points="360.5,210.6 360.5,211.3 361.4,212 361.7,211.7 361.5,210.8 360.8,210.2 "/>
<polygon class="st0" points="365.1,205.2 364.3,205.4 364,205.7 363.3,205.7 363.1,206 362.8,206.1 361.8,206.6 361.4,207.4 
	361.7,207.6 362.6,207.7 363.1,208.1 363.4,207.7 363.5,207 364.5,206.3 "/>
<polygon class="st0" points="352.7,173.9 353.1,175.1 353.8,175.2 354.5,174.7 354.1,173.9 353.4,173.5 353.3,172.8 352.7,173.1 "/>
<polygon class="st0" points="361.3,177.1 360.9,177.6 361.2,178 361.7,177.3 "/>
<polygon class="st0" points="318.4,115.2 319,113.7 319,112.7 320.5,111.7 321.5,109.8 322.6,109.3 323.5,106.5 324,105.5 
	323.9,104.9 324,103 325.1,101.7 326.2,103.3 327.1,103.8 327.9,104.6 328.9,104.2 330.2,104.6 332.5,104.4 334,104.6 334.7,103.1 
	334.7,102.2 333.4,101 332.2,100.1 333.2,99.5 334.5,99.3 336.7,97.5 336.7,96.3 337.6,95 338.8,94.9 339.2,93.8 338.8,92.9 
	338.9,91.8 338.9,90.5 339.6,90.2 340.6,91 340.6,92.2 341.1,92.8 343,93.2 343.2,93.6 343.4,93.3 343.4,92.6 342.9,92.4 
	342.7,91.4 342.8,90.9 343.5,90.5 344.8,90.7 345.2,90.6 345.2,89.6 345.1,89 345.1,88.2 345.4,87.7 345.4,86.6 345.3,85.6 
	344.6,85.1 344.6,83.1 344.5,82.2 344.4,80.8 344.4,79.8 343.7,78.8 343.3,78.1 343,77.2 341.7,75.1 341.3,74.2 341.5,73.6 
	342.2,73.2 342.9,73.1 343.4,72.4 343.7,71.6 344.7,70 345.2,69.9 346.1,70.1 346.8,70.4 350.5,71 351,71.2 351.7,71.2 352.1,70.7 
	352,69.8 351.6,69.2 351.6,68.6 351.8,68.1 351.6,67.5 351.4,66.9 351.9,65.7 352.3,65.3 352.1,64.4 351.8,63.8 351.9,63.5 
	352.7,63.1 352.4,62.6 352.4,61.9 352,61.3 352.3,60.6 352.8,60.1 352.8,59.7 352.5,59.1 352.1,57.9 352,56.5 352.4,56.4 
	352.6,56.1 352.6,55.7 352.3,55.3 352.4,54.7 351.9,54.3 351.5,53.8 351.9,53 351.9,52 351.7,51.7 351.2,51 351.2,50.5 352,49.5 
	352.8,49.4 353.1,48.9 353.1,47.9 353.4,46.7 352.7,46.3 352.1,45.7 352,44.9 351,43.9 350.8,43.3 351.4,42.7 350.8,41.7 
	350.5,41.1 349.5,41 348.9,40.5 347.8,40.1 347.3,40.7 346.3,40.8 345.7,41.4 345.5,42.3 345,42.5 344.3,42.6 344,43.7 342.9,43.7 
	342.1,43.8 341.8,44.7 341.8,45.6 341,46 340.8,47.1 340.9,47.7 340.3,47.9 339.5,48.6 337.9,48.9 337.4,49.1 336.5,48.9 
	336.1,49.4 335.4,49.7 335.1,48.9 334.5,48.1 333.7,48.1 333,48.7 332.1,48.9 331.8,48.3 330.9,47.2 330.4,46.9 329.3,45.5 
	329.3,44.7 329.5,44.3 329.7,43.3 329.4,42.3 329.1,41.3 328.2,41.4 328.1,40.7 328,39.9 328.5,39.2 328.7,38.4 328.2,38.2 
	327.8,38.3 327.2,38.8 326.5,38.9 325.9,39 325.1,38.9 324.5,38.4 324,38.4 323.7,38.1 322.4,37.5 322.3,37 321.8,36.4 321.4,36.5 
	320.8,36 320.7,35.4 320,35.3 319.4,34.6 319.2,34 318.8,33.6 318.2,33.7 318,34.3 317.4,34.2 316.8,34.4 316.6,34.9 315.9,34.4 
	315.6,33.9 315,33.7 313.7,33.5 313.3,33.2 313.8,32.7 313.8,32.4 313,32.4 312.4,32.9 311.2,32.7 310.7,33 310.1,32.7 309.5,32.9 
	308.8,32.7 308.4,32 307.4,31.7 306.1,30.3 305.5,29.2 305.6,28.4 305.4,27.4 304.8,27.3 304.1,26.9 304,25.8 303.6,25.4 
	303.4,24.2 303,23.2 301,21.8 299.9,20.4 299.7,19.7 299.2,18.8 298.6,19 298.3,18.8 298.5,18.2 298.5,17.7 297.8,17.2 297.4,16.2 
	296.8,15.9 296.6,15.1 295.9,14.2 295.4,13.2 294.1,12.4 294,11.8 294.3,11 294.1,10.4 292.7,10.3 292.4,9.9 292.4,9.4 292.2,8.7 
	292.1,7.9 291.7,7.2 291.1,6.9 291.1,6.4 290.7,6 290.2,6.1 289.2,5.8 288.9,5.3 289.2,4.8 289.1,4.2 288.3,4.1 287.7,4.5 
	287.4,4.1 286.8,4.1 286.6,3.5 286.7,2.9 286.4,2.4 285.6,2.1 285.1,2.2 284.5,1.5 284,1.7 283.2,1.7 282.7,1.5 282.2,1.8 
	282.3,2.5 281.8,2.7 280.8,2.2 280.4,1.9 279.7,2.1 278.3,2.1 278.1,1.6 277.4,1 275.5,0.8 274.8,0.2 273.9,0.2 273.2,0 272.9,0.2 
	271.2,0.4 270.9,1.2 270.5,1.2 270,1.7 268.7,1.7 268,1.8 266.8,1.6 266.1,2.3 265.1,2.3 264.7,3.2 263.8,3.6 263,3.5 262.8,3.7 
	262,3.7 261.3,4 259.8,4.1 259.2,4.7 259.2,5.4 258.4,6.4 258.1,7.5 257.6,8 257.6,8.6 257.2,9.1 257.2,10.5 257.6,11 258.2,11.1 
	259.5,10.3 260.3,9.9 261,10.1 261.8,11.5 262.2,12.6 263.1,13.2 263.1,14.1 263.3,14.8 263.2,16.1 262.5,16.7 261.8,17.8 
	261.5,19.1 260.8,19.7 260.2,20.8 260.1,21.8 260.7,22.8 260.5,23.4 260.6,24.6 261.3,25.3 261.2,26.4 260.5,26.8 260.3,27.5 
	260.7,28.5 260.7,30.1 260.4,30.6 260.5,32.2 261.1,32.3 261.5,32.7 262,32.3 262.4,32.6 262.6,33.8 262.3,34.9 261.4,35.8 
	259.4,36.1 258.1,37 255.3,39.6 254.7,39.7 253.8,39 252.2,38.8 251.1,39 250.9,38.6 250.1,38.5 249.5,38.7 249.6,38.8 248.3,47.7 
	248.6,49.6 248.1,51.3 248.2,52.4 247.5,54.9 248.4,56.7 251.1,58.1 253,56.7 255.3,56.7 257.8,57.1 258.9,58.2 260.3,56.1 
	260.2,54.8 260.3,53.8 261.8,53.3 262.4,52.8 265,53.4 266.5,55.2 268.6,57.2 270.2,59.2 272.4,60.8 272.4,61.8 272.8,62.6 
	272.8,63.5 272.4,64.2 272.3,65 271.9,65.7 271,65.5 270.5,65 269.2,65.1 268.6,65.6 267,64.9 266,65.1 264.9,66.5 263.4,67.8 
	262.4,68.4 261.4,67.6 261,67.7 260.9,68.8 260.5,69.4 259.7,69.6 259.1,69.4 258.6,70.1 257.6,71.7 257.4,73.4 257.5,74.6 
	256.9,75.4 255.6,75.7 253.1,77.4 251.7,77.4 250.3,77.1 249.6,77.6 248.6,79.9 247.5,80.7 246.2,81.6 245.4,82.4 245.1,83.4 
	244.5,83.5 243.3,82.9 241.9,82.6 240.1,82 238.7,81 237.3,81 235.1,81.4 233.8,82.4 232.9,83.6 232.9,86.1 233,87.4 232.9,88.2 
	235.5,89.9 237.8,91.3 237.8,92 237.2,93.1 236.5,94.2 234,97 232.5,99.5 231.6,101.4 230.7,101.4 228.9,102 227.5,102.1 226,103.1 
	224.4,104.3 222.8,104.3 220.4,104.6 218.8,105.1 216.9,105.7 212.8,107.1 209.6,108.2 208,110 205.5,112 204.5,112.9 203.1,112.9 
	201.4,112.4 201.4,111.8 201.2,110.9 198.7,111.6 196.7,111.9 194.7,110.8 193,110.7 189.4,109.3 185.8,107.7 183.8,105.8 
	182.3,105.7 178.2,105.3 174.7,105.4 173.8,105.2 173.2,105.6 172.8,106.2 170.9,106.9 168.2,107.2 163.4,106.8 159.9,107 
	157.3,106.8 155,107.1 153.8,107.2 152.8,106.9 151.6,104.4 151.1,103.1 149.9,101.4 148.9,100.2 148.2,98.5 148.1,97.8 147.3,96.9 
	146.4,96.6 145.8,96.5 145.6,95.8 145.5,94.8 145.1,94.6 144.5,94.8 142.9,94.8 141.6,94 139.4,92.5 138.7,92.3 138.2,92.3 
	137.2,92.1 136.7,91.5 134.9,90.3 131,89.4 130.6,89.5 130.1,89.9 128.6,90.1 126.1,90.2 120.4,88.9 119.2,88.2 117.9,86.3 
	117.7,85.3 117.7,84.5 118,83.9 118.8,83.2 119.2,82.2 118.6,81.4 118.3,80.1 118.5,79.4 118.5,78.1 118,77.4 117.3,76.2 
	116.4,75.8 115.5,75 115.1,74 114.5,73.2 114.2,72.1 114.1,71.2 113.4,70.3 112.5,69.6 111.6,69.3 111.2,68.6 110.3,68.2 
	109.4,68.3 108.8,68.9 108.2,69.1 107.6,68.9 106.7,67.9 106.4,67.4 105.3,67.4 104.2,67.9 103.7,68.4 103.5,69.1 103,69.1 
	101.8,68.4 101.6,67.5 101.5,67.1 100.7,66.1 99.6,65.4 98.7,64.4 98,64.2 97.4,63.6 97.2,62.9 97.1,62.1 96.8,61.5 96.6,61.6 
	96.5,61.9 96.2,62 95.7,61.3 95.4,61 95.4,59.7 95.3,59.1 94.8,59.1 93.7,58.7 93,58.7 93.1,58.9 92.1,60 91.2,60.5 89.6,62.1 
	89.6,63 89.9,63.6 89.2,64.9 87.5,65.5 86.5,66.2 86.3,67.6 86.3,70 87.5,72.3 88.5,73.7 88.4,74.5 86.9,76.1 85.7,76.6 84.7,77.8 
	83.9,78.1 83.3,77.8 83,77.2 82,77.2 79.8,77.7 78.3,77.6 76,76.8 74.7,76.6 74,76.7 73.5,79.3 73,81 73,82.2 72.4,85.6 72.4,88.1 
	72.1,89 72.8,89.5 74.1,90.1 73.6,91.2 73.5,92.1 72.7,92.1 72.1,92.6 71.1,92.6 70.5,92 69.7,92.3 68.4,92.6 65.8,93.2 64,93.9 
	63.2,93.8 62.5,93.5 61.6,93.9 60.5,94.9 60.5,95.6 61.5,96.4 63.1,96.3 64.4,96.5 64.4,97 63.6,97.8 64.2,99.5 64.3,100.4 
	64.8,101.1 65,102.3 66,104.1 66.2,105 67.5,106 67.9,108.3 67.2,108.9 66.9,110 67.8,111.1 67.3,111.4 67.2,112 66.1,112.8 
	66.1,114.3 65,114.9 62.5,114.2 60,111.4 59,111.7 56.6,110.7 53.1,110.5 51.3,111.1 48.4,110.3 45.6,111 44.2,111.2 42.9,110.8 
	41.9,111.7 40.8,112.2 37.6,111.8 35.3,111.1 34.1,110.4 32.3,110.5 31.7,110.8 30.3,110.7 29.2,110.5 28.6,110.8 28.7,112.1 
	29,113.4 29.1,114.9 27.3,115.2 23.7,115.3 19.5,114.9 18.5,114.3 16.6,114 15.5,115.2 15.9,115.9 14.6,116.7 14.5,117.2 
	14.1,117.1 15.1,117.3 15.1,118.5 13.3,121.3 12.4,122.7 13.5,123.4 16.1,124.2 17.1,125.1 18.2,125.5 19.2,124.4 19.3,122.8 
	20.1,123 22.9,125.2 23.2,126.3 21.6,128.2 19.6,128 16.7,128.5 16.3,127.7 15.1,126.4 13.2,128.3 12.1,128.2 10.5,129.3 9.1,129.8 
	9,131.2 10.8,132.1 10.7,133.2 8.8,134.1 6.3,134.6 6.8,135.1 7.2,136 4.9,136.8 4.8,138.1 3.7,138.4 1.2,138 0,139 0,140.7 
	1.5,142.9 2.5,142.4 4.1,142.3 4.4,143.6 3.9,144.8 4.5,146.4 5.7,146.9 5.8,148.4 5.3,149.1 4.1,151.9 3.7,155.6 3.2,154.9 
	4.4,156.5 5.3,156.9 7.2,156.5 8.5,155.8 9.1,154.9 9.7,154.7 10.4,154.1 11,154.5 11.6,155.4 13.6,155.5 13.6,154.6 13,154.1 
	13.1,153.3 14.3,153 14.8,152.3 15.4,152.3 15.5,153 16.8,152.8 17.6,151.6 17.3,150 17.8,149.2 18.5,148.6 18.7,147 19.3,145.9 
	20.6,145.9 21.6,146.6 22.7,147.2 22.7,148.1 22.4,149.4 22.8,150.5 23.7,150.4 24.1,151.5 24,153 24.2,154.1 24.3,156.4 
	25.2,157.5 25.2,158.3 26.2,158.7 27.7,158.7 28.6,158 28.9,157.4 30.8,156.5 31.8,155.7 32,154.6 32.8,153.9 35.4,152.3 
	37.1,151.9 37.4,153.1 39.5,152.8 40.3,151.9 42.7,151.9 43,152.9 41.2,154.4 42.1,154.6 42.6,154.3 43.4,154.1 44.5,155 
	45.1,154.6 46,154.7 46.7,154.2 47.2,153.7 47.9,153.7 48.8,154.5 49.4,156.4 52,160.1 53.6,161.1 53.6,162.7 54.6,163.4 
	55.2,164.2 57.5,164.4 59.8,164.4 60.9,164.7 61.1,166 63.3,166.8 65.2,167.8 66.2,170.6 67.7,172.3 69.6,173.3 70.5,174.7 
	70.3,177.5 71.5,180 73,180.4 73.6,182.9 74,185 73.3,186.2 73,185.4 72.1,185.1 70.4,186.8 70.8,187.6 70.9,188.5 72.4,189.3 
	72.2,191.6 72.8,192.6 72.4,193.3 73,193.8 73.7,194.8 73.7,195.6 74.3,195.8 74.7,197 75.9,197.7 76.6,196.6 77.9,196.6 
	78.4,197.2 79.8,197.4 80.9,198.6 81.7,198.9 82.4,200.3 83.4,200.5 83.8,201.4 83.9,201.3 84.2,201 85.9,201.8 86.3,202.5 
	87.4,202.4 88,202.7 88.8,201.7 90.2,201.5 92.3,202.3 92.9,202.9 94.2,203 95.1,203.6 96.8,205.4 98.1,205.4 99.4,206.1 
	99.8,206.8 100.9,208 101.4,209.3 101.9,209 102.1,207.3 102.7,206.7 103.1,207.2 104.3,207.2 105.5,207.9 105.7,209.5 107.1,210.8 
	108.9,210.3 110.4,210.5 110.1,212.8 110.7,214.2 111.7,213.9 113.3,214.7 114,214.1 115.2,213.7 116.3,212.6 118.4,212.8 
	119.8,213.5 120.2,214.9 121.9,215.6 123,217.1 124,217.4 125.5,216.8 126.1,217 127.6,216.5 128.7,216.6 128.8,216.6 129.9,215.7 
	131.2,215.5 131.9,216.7 131.9,218.2 133.1,219 133.1,219 134.3,218.4 135.6,215.9 138.4,214.2 140.2,214 140.8,214.9 143.6,215.2 
	144.6,215.7 146.1,215.1 147.6,215.2 148.5,216.4 148.8,216.4 149.6,216.3 151.7,215.8 152.6,215.8 153.2,214.4 154.1,213.7 
	154.9,214 155,213.3 156.2,212.9 156.6,211.8 157.5,210.6 158.8,210.4 160.9,209.9 162.2,208.3 162.1,207 162.9,206.9 164.2,205.9 
	165.2,207.4 166.7,207 168.9,207.7 169.6,207.1 169.4,206.1 171.9,204.7 172.8,204.9 173.4,205.8 174.2,205.6 174.4,206.1 
	173.6,207.7 174.1,208.6 174.8,208.4 175.5,208.2 175.8,209.1 176.6,210.2 176.6,211 175.7,212 176,212.9 177.2,213.1 177.9,212.8 
	179,213.3 179.9,214.2 180.9,213.7 182.2,214.3 183.1,213.8 184.4,213.9 185.1,215.4 186.3,216.2 186.6,218 187.6,218 188.6,219.1 
	188.6,220.9 189.6,222.8 189.7,224.6 189.4,227 189.4,228.2 189.1,228.9 188,229.4 187.9,230.4 187.4,230.6 187.1,231.4 
	187.6,232.5 187.1,233.2 186.4,232.9 185.6,233.7 185.1,234.7 185.6,235.5 185.1,236.3 185.1,237.3 186.1,237.7 186.5,238.4 
	187.3,239.2 187.1,240.6 187.7,241.9 189,240.9 191.6,240.3 191.9,241.3 191.5,242 192.2,242.5 193.7,242.2 194,243.2 193.6,244.2 
	194.3,245.1 195.8,245.4 195.5,245.9 196,246.7 196.2,246.2 197.8,246 198.9,246.8 198.9,247.6 198.4,248.6 198.5,249.5 
	197.2,251.3 196.1,252.4 196.3,253.2 197.2,252.8 199,253 199.3,253.3 200.1,252.5 200.9,253.6 200.6,255.1 201,256.2 202.3,256.8 
	203.1,256.1 204.4,256.1 207,255 208.1,255.4 208,256.4 206.4,257.8 207.5,256.9 208.2,257.4 208.7,258.3 210.2,257.9 211.2,258.1 
	210.9,256.7 210.8,255.3 210.4,254.1 210.3,252.2 211.1,251.6 211.1,250.8 213.2,250.7 213.7,251.5 213.3,250.8 213.7,250.5 
	214.2,250.4 214.5,249.8 215.1,249.3 216.3,248.8 217.1,248.9 217,249.7 217.5,250.2 218.3,250.1 218.5,249 219.3,248.4 
	220.5,249.5 221.1,248.7 221.8,248.8 222,249.6 223.3,249 223.5,248.1 225,247.7 226.1,248.4 228,247.7 227.9,245.9 229.2,245.2 
	230.6,245.2 231.4,244.5 232.6,245.5 232.6,246.2 233.9,246.4 234.4,247.2 237,247.2 237.5,247.7 239,247.1 240,247.9 239.8,249 
	238.9,249.1 238.4,251.3 239,251.5 239.4,252.7 241.7,253.5 242,254.4 243.1,254.9 244.3,255.4 245.5,255.1 246,255.5 246.7,255.3 
	247.6,255.8 248,255.9 248.4,255.6 249.1,255.9 250.1,255.5 250,254.9 250.3,253.8 250.8,254.9 251.9,255.9 252.5,255.7 
	253.9,256.9 254.5,256.7 255.3,256.8 255.8,255.8 256.7,256.5 257.5,256.3 258.1,256.5 258.2,256.9 257.3,257 257.1,258 
	256.3,259.1 256.3,259.7 257.7,261.6 258.5,262.1 258.5,262.7 258.6,263.9 258.9,263.7 259.3,262.9 260.6,263.1 260.6,263.5 
	261.3,263.5 262.3,262.2 262,261.7 261.5,261.6 261.5,261.3 260.9,260.1 260.3,260.1 259.8,259.1 260.1,258.6 260.9,258 
	261.1,257.2 260.9,256.6 261.2,256.5 261.6,256.1 261.7,256.4 261.9,256.9 262.2,256.9 262.1,257 262.1,257.3 262.6,257.4 
	262.4,257.7 262.7,257.7 263.3,257.1 264.4,256.9 264.9,256.1 265.8,256.4 266.8,256.1 268.1,255.4 267.6,254.6 268.6,254.7 
	269.7,254.3 270.8,254.7 271.5,254.5 272.8,253.9 273.9,252.8 274.6,251.8 274.7,251.4 275,251.6 275.5,252 276,251.6 276.6,250.8 
	277.5,250.3 277.3,248.9 277,247.9 277.1,247 276.9,246.4 277.4,246.9 278.8,247.6 279,248.4 280.2,249.5 281,249.3 280.4,250.1 
	279.6,250.5 279.8,251 281.8,250 281.9,248.8 283,248.5 283.5,248 284.4,248.5 285.3,248.3 285.4,247.5 286.3,247.3 286.6,246.8 
	287,247.4 287.9,248.4 288.5,247.9 288.7,246.9 289.3,246.9 289.3,247.3 290.3,247.3 290.4,246.7 291.7,246.5 292.4,245.8 
	293,245.4 293.1,246 293.5,245.5 294.1,245.7 295,245.2 294.6,244.5 295.1,243.8 295.5,242.6 295,241.4 295.5,241.6 295.9,241 
	297.4,240.7 297.5,241.3 298.6,241.3 298.8,239.9 299.4,239.9 299.6,239 300.1,239 300.2,239.4 300.5,239.2 301.2,238.2 301.9,239 
	302.1,237.8 302.7,237.7 303.1,236.8 302.1,236.6 301.3,236.9 299.9,235.8 301.8,235.7 302.7,234.5 303.1,234.9 303.7,234.4 
	305.3,235.3 305.7,234.1 304.8,233.8 304.4,233.2 304.5,232.5 305.7,233.3 306.4,232.5 306.2,232.2 305.4,232.2 305.3,231.2 
	304.7,230.7 305.5,230.5 305.9,231 306.5,231 306.9,231.6 306.9,230.6 305.9,229.9 306,229 306.6,229 307,228.3 307.9,229.1 
	307.9,229.9 308.5,229.9 309.1,230.8 309.2,229.4 308.8,228.6 308.2,228.6 308,228 308.8,227.7 308.9,227 307.9,226.7 309.3,225.6 
	308.6,224.9 307.7,225 307.3,225.4 307.5,224.5 308.7,223.7 310.6,222.9 310,222.2 309.3,222.9 307.9,221.6 309.1,221.6 
	308.3,220.6 307.4,220.5 308,220 307.5,219.4 308.3,219.6 308.5,218.6 308.8,218.7 309.5,218.6 309.4,219.7 310.1,219.7 
	311.5,218.2 311.6,217.5 312.9,217.6 312.1,216.6 311.3,216.6 311.5,215.6 312.3,216.4 313.3,215.9 313.2,214.9 313.6,214.5 
	313.1,213.8 313.2,213 313.9,212.6 313.5,211.9 313.5,211.3 312.3,210.7 313.9,211.2 314.6,210.6 315.4,208.6 316.4,208.5 
	316.6,209.4 316.9,209.8 317.1,208.7 317.9,208.1 317.3,207.1 316.2,207 315.7,206.5 316.2,206.1 317,206.3 317.6,205.7 
	317.1,205.1 316.4,204.7 317.1,204 317.5,204.1 317.7,203.6 317.1,203 315.2,203.1 315.3,202.6 316.5,201.6 317.6,201.8 
	317.9,201.6 318.1,201 318.8,201.4 318.9,201.8 319.6,201.2 319.2,200.5 319.1,198.8 318.5,198.4 317.8,199.1 318,199.4 318,199.9 
	316.8,199.7 315.3,200.9 314.5,200.8 314.5,199.8 316.1,199.4 318.6,197.1 318.5,196.7 317.3,196.7 316.8,196.1 316.5,196.6 
	314.7,194.2 313.3,194 311.5,195.5 310.6,195.2 309.5,193.5 308.3,193.8 307.1,194.8 306.8,195.8 306.9,194.4 308.2,193.3 
	308.9,193.4 309.7,192.8 311.1,193.5 312.1,193 312.2,192 312.8,191.5 313.5,191.6 314.8,190 316.4,189.8 316.4,189 315,186.7 
	312.1,184.9 310.1,183.8 307.8,181.6 306.7,181.5 304.8,182.8 303.9,182.6 302.4,181.3 302.4,180.6 301.8,180.4 300.5,180.9 
	299,180.7 297.7,181.2 296.1,183.1 297.5,180.5 298.5,180 299.2,180.2 300,180.2 300.3,179.9 301.1,180.2 302.7,179.6 303.4,181.3 
	304.1,182 305.2,182 306,181 307.8,181.2 309.1,182.1 309.9,182.1 311.1,183.3 312.7,182.3 315.1,183.2 315.7,182.8 314.9,181.2 
	314.2,180.9 312.8,179.2 312.8,178.8 312.2,178.3 311,178.4 309.9,177.9 308.4,175.7 308.3,174 306.2,172.5 306.1,170.8 
	304.9,170.4 305.5,169 305.1,168.9 303.4,165.3 300.2,163.7 299.4,164.2 299.4,163.4 296.4,162 296,162 295.9,159.2 296.4,157.2 
	295.9,155.9 296.2,154.2 296.6,154.5 297.4,154.2 298.5,152.5 299,152.9 300.1,151.7 299,151 298.5,150.3 299.4,149.3 301.1,149.4 
	301.2,148.2 302.6,147.9 302.5,147 301.2,146.2 302.5,146 303.4,146.8 303.7,146.1 304.8,146.1 305.8,145.2 306.5,145.2 
	307.8,143.6 308.2,144.3 308.7,143.7 308.8,144.3 310.2,145.2 311.7,144 311.7,143.5 310.8,143.3 310.6,142.1 311.4,141.7 
	312,141.7 311,140.4 311.1,139.7 312.4,139.3 311.6,139 310.3,139.2 308.7,139.3 308.8,138.8 307.5,138.8 307,139.4 303.4,139.5 
	302.6,138.8 301.9,138.5 301.3,137.5 300.6,137.3 300.3,136.8 297.7,138 296.3,138 296.7,138.4 296.7,139.5 296,140.1 294.4,140.7 
	294.7,140.9 295.2,141.6 294.6,142.7 294,143.2 292.9,142.7 291.8,143.4 290.3,143.4 288.7,140.3 288.7,138.7 288.5,137.7 
	287,137.7 286.3,138 286.3,137.5 285.6,137.5 285.1,138.2 284.7,137.6 284.7,138.1 283.8,136.6 283.6,135.9 281.7,134.6 
	280.5,133.9 280.3,132.7 279.7,131.3 280.3,130.8 280.2,130.3 280.4,129.7 280.5,128.5 281.2,128 281.3,127.3 283.5,128.1 
	285.4,128 286.9,128 287.4,126.8 287.1,126.2 287.9,126.2 287.7,124.8 287.3,124.5 287.8,123.9 288.4,120.9 290.4,119.8 
	291.7,119.8 292.6,118.2 293.2,118.1 293.3,115.8 294.5,114.5 294.7,113.2 295.2,112.9 295.9,111.7 297.2,111.6 297.7,112 
	298.7,112 299.1,110.9 300.9,113 303.5,114.5 303.6,115.5 302.9,115.9 302.7,116.6 301.4,118.2 301.3,119.6 300.2,119.7 
	300.4,120.1 300.1,121.6 301.4,122.9 301.3,123.6 300.8,123.9 300.8,124.6 301.3,125.2 302.6,124.7 303.9,123.7 303.4,124.7 
	302.3,125.5 302.4,126 303.1,126.2 303,126.8 302.5,127.2 301.2,127 300.6,127.8 299.7,127.8 299.2,128.7 300.1,129.3 300.2,130.2 
	301,130.1 301.7,129.2 302.3,129.3 303.3,127.9 304.9,127.2 305.1,126.7 304.6,125.6 306,124.5 308.5,122.6 309.3,122.6 
	309.5,121.5 310.8,121.5 312.3,120.4 312.9,120.9 313.6,120.7 314.8,120.6 316.5,118.7 316.9,119.7 316.9,116.4 "/>
</svg>
