<!-- Generator: Adobe Illustrator 19.0.0, SVG Export Plug-In  -->
<svg version="1.1"
	 xmlns="http://www.w3.org/2000/svg" xmlns:xlink="http://www.w3.org/1999/xlink" xmlns:a="http://ns.adobe.com/AdobeSVGViewerExtensions/3.0/"
	 x="0px" y="0px" width="195.3px" height="186.6px" viewBox="0 0 195.3 186.6" style="enable-background:new 0 0 195.3 186.6;"
	 xml:space="preserve">
<style type="text/css">
	.st0{fill:#702A11;}
</style>
<defs>
</defs>
<path class="st0" d="M170.4,96.9c-0.1-0.2-0.1-0.5-0.1-0.7c-0.1-1.9-1.2-5.7-2.6-7.7c1.3-0.3,2.2-1.7,3-3c0.2,1.1,0.4,2.6,0.6,3.8
	c0.2,1.3,0.4,2.7,0.7,4.1c-0.7,1.1-1.1,2.5-1.4,3.2C170.6,96.7,170.5,96.8,170.4,96.9z M155.3,92.7c-0.3-3.7-1.3-7.5-2-9.1
	c-1-2.2-1.5-6.3-1.3-7.7c0,0,0,0,0,0c0.1,0,0.2,0,0.2,0c0.7-0.1,2.2-0.4,2.8-2.2c0.7-2.1-1.4-3-2.7-3.6c-0.5-0.2-1.3-0.6-1.4-0.8
	c0.3-0.3,0.5-0.5,0.7-0.6c0.1,0,0.1,0.1,0.2,0.1c0.6,0.4,1.5,1,3,1c2.4,0,2.4,1.2,2.4,1.7c0,2.6,3.2,3.9,3.6,4l0.3,0.1l0.3,0
	c0,0,4.4-0.3,6.4-0.3c0.8,0,2.2,0,2.7,0.2c-0.2,1.2-2.1,4.3-3.1,4.3c-1.2,0-2.6,1-2.9,3.7c-0.1,1.3,0,2.6,0.5,3.7
	c-1.8,0.1-3.8,1.9-4,4.1c-0.1,0.9-2.3,1-3.2,1C156.8,92.2,156,92.5,155.3,92.7z"/>
<path class="st0" d="M90,174c-1.2-0.8-5-5.8-5-9c0-5.1-5.6-12.7-5.7-12.8c-0.6-0.8-1.4-3.5-2.3-6c-0.9-2.9-2-6.3-3.2-8.5
	c-2.2-4.1-4.6-11-5.2-14.8c-0.3-2.1-1-4.1-1.5-5.9c-0.5-1.6-1-3.1-1.1-4.3c-0.1-0.9-0.3-2.1-0.6-3.2c-0.4-2-1-4.5-0.6-5.8
	c0.7-1.9,1.8-5-0.4-6.7c-0.2-0.3-0.2-1.6-0.3-2.3c-0.1-1.6-0.2-3.2-1.4-3.8c-0.3-0.1-0.6-0.2-0.9-0.2c-1.5,0-2.7,1.5-3.1,2.9
	c-0.2,0.9-0.1,1.7,0.5,2.3c-0.4,1-2.4,3.3-5,3.8c0,0,0,0,0,0c-2.8,0-7.8-5.1-9.8-7.6c0.1,0,0.3,0,0.4,0c2.9-0.3,6.8-0.7,6.8-3.5
	c0-1.7-1.1-2.3-2-2.3c-0.5,0-1.1,0.2-1.7,0.4c-0.7,0.2-1.5,0.5-2.3,0.5c-0.4,0-0.8-0.1-1.1-0.2c-1.4-0.6-2.2-1.6-3-2.6
	c-0.3-0.4-0.6-0.7-0.9-1.1c0.2-0.3,0.4-0.6,0.6-0.9c0.7-1.3,1.1-1.7,2.1-1.7c0.2,0,0.5,0,0.8,0.1c0.8,0.1,1.4,0.2,2,0.2
	c1,0,1.7-0.2,2.1-0.4c0.3-0.1,0.5-0.2,0.7-0.2c0.1,0,0.3,0,0.5,0.1c0.7,0.2,1.4,0.2,2,0.2c1.6,0,2.9-0.6,3.7-1.9
	c1.5-2.3-1.1-5.7-2.2-6.9c-1-1-2.3-3.1-2.1-4.7c0.2-2.1-1.6-3.1-2.6-3.6c-0.3-0.2-0.9-0.5-1-0.7c0-0.2,0.4-1.1,3.3-3.8
	c0.1-0.1,0.1-0.1,0.2-0.2c0.2,0.1,0.5,0.2,0.7,0.3c0.7,0.3,1.5,0.6,2.3,0.6c0.9,0,1.6-0.4,1.9-1.2c0.5,0,1.1,0.2,1.6,0.3
	c0.3,0.1,0.6,0.2,0.8,0.2l0.1,0l0.3,0c2.2,0,4.1-3.3,4.3-5.5c0.1-0.5,1.7-1,2.3-1.2c0.9-0.3,1.5-0.5,2-0.9c0.6-0.6,1-1.9,1.8-4.5
	c0.2-0.6,0.4-1.3,0.6-1.7c0.1,0,0.3-0.1,0.4-0.1c1-0.2,3.2-0.8,3.2-3.4c0-1.5,0.5-1.6,1.6-1.8c2.1-0.4,2.1-2.6,2.2-4.1
	c0-0.5,0-0.9,0.1-1.4c0.2-1.3,0.8-2.8,1.9-3.1c1.3-0.3,1.7-1.3,1.6-2.2c-0.2-1.5-2.2-3-4.1-3c-0.3,0-0.5,0-0.8,0.1
	c-0.3-0.2-1.2-2.3-1.7-4.2c0.1-3.1-0.3-5.2-1.2-6.1c0.2-0.4,0.9-0.9,1.9-0.9c0.8,0,2.1,0.4,3.3,0.9c1.5,0.5,2.9,1,4.1,1
	c0.7,0,1.3-0.2,1.8-0.5c0.9-0.6,2.5-1.1,3.7-1.5c0.8-0.2,1.4-0.5,1.7-0.6c0.8-0.4,1.7-1.8,2.6-4l0.9-0.1c0.5,0.4,1.1,1,1.3,1.7
	c0.5,1.8,2,3.5,4,4.6c0.3,0.3-0.1,2-0.2,2.7c-0.1,0.6-0.2,1.1-0.2,1.6c0,1.1,0.8,2.2,1.8,3.4c0.6,0.7,1.1,1.5,1.6,2.2
	c0,0.4-0.3,0.6-0.7,0.6c-0.2,0-0.4,0-0.6-0.2c-0.5-0.5-1.1-0.7-1.7-0.7c-0.8,0-1.6,0.5-2,1.3c-0.6,1.2-0.4,2.8,0.4,3.7
	c0.2,0.2,0.3,1,0.4,1.4c0.2,1.3,0.6,3.3,2.5,3.6c0.3,0.1,0.9,0.8,1.3,1.2c0.9,1,2,2.2,3.6,2.2c0.6,0,1.6,1.2,2.2,2.2l0.2,0.3
	l0.3,0.2c0.6,0.4,1.3,0.9,1.7,1.3c-0.2,0.2-0.4,0.3-0.5,0.5c-0.9,0.8-2,1.8-2,3.2c0,0.5-0.2,1.2-0.4,1.9c-0.2,0.8-0.5,1.6-0.5,2.3
	c0,1.5,1.4,2.2,2.3,2.6c0.3,0.1,0.8,0.4,0.9,0.5c0.6,0.8,1.7,1.1,2.9,1.5c0.4,0.1,1.2,0.4,1.5,0.6c0.8,1.7,4.1,2.8,5.3,2.9
	c1.1,0.2,3,1.6,3.8,2.2l0.3,0.2c0.4,0.3,0.9,0.4,1.5,0.4c0.9,0,2.1-0.3,3.1-0.7c0.5-0.2,1.3-0.4,1.6-0.4c0.5,0.1,1.7,1.5,1.8,2.1
	c0.3,1.4,2,1.9,4.7,2.6c1.1,0.3,2.8,0.8,3.2,1.1c0.3,0.2,1.1,0.9,3.9,0.9c1.6,0,6.2-0.3,7.8-1.9c1.4-1.4,1.1-3.4,0.8-5
	c-0.1-0.6-0.2-1.2-0.2-1.8c0-0.3,0-0.4,0-0.4c0,0,0,0,0,0c0,0,0.2-0.1,0.3-0.1c0.3-0.1,0.6-0.3,1-0.6c0.1,0.3,0.1,0.7,0,1.1
	c-0.4,1.6,0.2,3.4,1,4.4c0.7,0.9,1.5,1.1,2,1.1h0.2l0.3-0.1c-0.1,0,0.1,0.2,0.3,0.3c0.6,0.3,1.4,0.8,2.5,0.8c0.3,0,0.7,0,1-0.1
	c0.1,0,0.2,0,0.3,0c0.3,0,0.7,0.1,1.2,0.3c0.6,0.2,1.4,0.4,2.4,0.4c0.5,0,1-0.1,1.6-0.2c0.3-0.1,0.7-0.1,1.1-0.1
	c0.5,0,1,0.1,1.4,0.1c0.5,0.1,0.9,0.1,1.3,0.1c1.2,0,2.1-0.5,2.6-1.4c0.8-1.4,0.3-3.6-0.1-4.9c0.6-0.2,1.1-0.4,1.3-0.5c0,0,0,0,0,0
	c1,0,1.8-0.9,2.7-1.9c0.3-0.3,0.6-0.7,0.9-1c0.6-0.6,0.9-1.2,1.1-1.6c0-0.1,0.1-0.1,0.1-0.2l0.3,0c1.1,0,1.9-0.7,2.7-1.4
	c0.6-0.6,1.4-1.3,2.6-1.9c0.5-0.3,1-0.4,1.5-0.4c0.6,0,1.3,0.2,1.9,0.3c0.6,0.2,1.2,0.3,1.8,0.3c0.7,0,1.3-0.2,1.8-0.6
	c0.3-0.3,0.6-0.5,0.9-0.6c0.2,0.7,0.7,1.3,1.2,1.9c0.4,0.5,0.8,1,0.9,1.4c0.4,1.3,1.8,2,2.9,2.3c-0.1,0.3-0.2,0.5-0.3,0.6
	c-0.6,0.3-1,0.8-1.2,1.5c-0.1,0.6-0.1,1.2,0.1,1.9c-0.2-0.1-0.5-0.1-0.8-0.1c-1.7,0-4.1,1.9-5,2.7c-0.4,0.3-0.8,0.6-1.2,0.8
	c-1.4,0.9-3.1,2.1-3.1,4.7c0,0.9-0.4,1.9-0.8,2.9c-0.5,1.4-1.1,2.9-0.8,4.3c0.2,0.7-0.6,2.4-1.1,3.6c-0.4,0.8-0.7,1.5-0.8,2.1
	c-0.6-0.1-1.3-0.2-1.8-0.4c-0.8-0.2-1.1-0.3-1.5-0.3c-1.6,0-1.7,1.7-1.8,3.4c-0.1,0.8-0.2,2.4-0.4,2.8c-0.4,0.7-0.6,1.6-0.7,2.6
	c0,0,0,0,0,0c-0.9-5.9-1.2-7.5-2.9-7.5c-1.2,0-1.9,1.2-2.6,2.5c-0.3,0.5-0.8,1.3-1.1,1.7c-0.1-0.4-0.2-0.9-0.2-1.7
	c0-1,0.3-1.5,0.4-1.6c0,0,0,0,0.1,0c2.9,0,5.5-5.4,5.5-7.1c0-2.7-3.1-2.7-5.4-2.7c-1.8,0-5.2,0.2-6.3,0.3c-0.8-0.4-1.6-1-1.6-1.4
	c0-2.1-1.3-4.4-5.1-4.4c-0.7,0-1.1-0.2-1.5-0.6c-0.4-0.3-1-0.7-1.7-0.7c-1.2,0-2,0.9-2.6,1.7c-0.6,0.8-0.8,1.6-0.6,2.4
	c0.3,1.3,1.7,2,2.9,2.5c0.3,0.1,0.8,0.4,1.1,0.5c-0.1,0.1-0.2,0.1-0.6,0.2c-0.7,0.1-2.1,0.4-2.4,2.1c-0.4,2,0.3,6.7,1.4,9.3
	c0.7,1.6,1.6,5.3,1.8,8.7c0,0,0,0,0,0c-0.1,0-10.8,0.3-11.5,4.6c-0.1,0.8-0.2,1.5-0.2,2.1c0,1.3,0,1.9-1.2,3.1
	c-0.8,0.8-2.1,1.5-3.5,2.2c-2.1,1-4.2,2.1-5.3,4c-1.5,2.4-6.7,7.1-8.9,8.9c-0.6,0.5-1.4,1-2.4,1.7c-2.3,1.6-5.2,3.7-6.5,5.4
	c-1.5,2-3.5,3.2-4.7,3.3c-2,0.2-2.4,2.2-2.7,3.6c-0.1,0.7-0.3,1.3-0.5,1.9c-0.9,2.3-1.5,5.7-0.4,8.2c0.7,1.7,0.5,6.4-0.7,7.9
	c-1.8,2.3-2,5.7-2,8.1c0,0.9,0,2.4-0.3,2.7c-2.9,0.5-3.2,3.5-3.4,5.1c0,0.4-1.2,1.1-1.9,1.6c-1.3,0.9-2.9,1.9-3.4,3.5
	C92.8,172.7,90.9,174,90,174L90,174z"/>
<path class="st0" d="M162.7,63.3c-0.5,0-1-0.1-1.5-0.3c-0.6-0.2-1.2-0.4-2-0.4c-0.3,0-0.7,0-1,0.1c-0.1,0-0.2,0-0.3,0
	c-0.4,0-0.8-0.2-1.3-0.4c-0.5-0.3-1.1-0.6-1.7-0.6h0c0.3-0.6,0.6-1.2,0.9-1.8c0.6-1.5,1.3-1.8,2.2-2.2c0.5-0.2,0.9-0.4,1.4-0.8
	c0.2-0.2,0.3-0.2,0.5-0.2c0.6,0,1.6,0.5,2.7,1.1c0.6,0.3,1.3,0.5,2,0.5c0.4,0,0.8-0.1,1.1-0.1c0.2,0,0.5-0.1,0.8-0.1
	c0.2,0,0.4,0,0.6,0.1l0,0l0.6,1.2c0.6,1.3,1,3.1,0.7,3.7c0,0-0.1,0-0.3,0c-0.3,0-0.6,0-1-0.1c-0.5-0.1-1.1-0.1-1.7-0.1
	c-0.6,0-1.2,0.1-1.8,0.2C163.3,63.2,163,63.3,162.7,63.3z"/>
<path class="st0" d="M108.1,186.6c-0.3,0-0.6-0.1-0.9-0.3c-1.7-1.1-1.9-2.9-2.1-5.7c0-0.6-0.1-1.1-0.1-1.7c-0.3-3.1-0.5-5,0.3-6.9
	c0.4-0.9,0.5-1.9,0.7-2.8c0.1-0.5,0.2-1.2,0.3-1.6c1.6,1.2,7.8,8.1,7.7,11.8C113.8,182.8,110.3,186.6,108.1,186.6L108.1,186.6z"/>
<path class="st0" d="M38.5,81.5c-1-0.5-1.9-0.7-2.7-0.9c-1.1-0.3-1.5-0.4-1.7-0.8C34,79.6,34,79.2,34,78.7c0-0.8-0.1-2-1.2-3
	c-0.3-0.3-0.7-0.6-1-0.9c-0.8-0.7-1.1-1-1.2-1.3c-0.1-1.6-1.5-3.3-3.7-3.3C26,70.2,25,70.5,24,71c-0.7,0.4-2.2,0.7-4,0.7
	c-2.1,0-3.5-0.3-3.8-0.5c-0.6-0.4-1.4-0.6-2.3-0.6c-1.4,0-2.8,0.5-3.7,1.4c-0.6,0.2-3.1,0.5-7.6,0.5c-0.3,0-0.6,0-1,0l0-0.2
	c-0.2-2.2,1.6-3.9,2.9-4.5c1.6-0.8,3-1.2,4.7-1.4c1.1-0.1,1.8-0.9,1.9-2c0.2-1.6-1.2-4-2.7-4.8c-0.1-0.3-0.1-0.8-0.2-1.2
	c-0.2-1.7-0.4-4.2-2.8-5.2c-2.5-1.1-4.5-2.7-5.1-4.2c-0.1-0.3-0.3-0.7-0.5-1c1.8,0.2,3.5,0.4,5.1,0.7c0.4,0.1,1.1,0.1,1.9,0.1
	c2.2,0,21.5-1.8,22.5-3.7c0.3-0.7,0.2-1.6-0.1-4c-0.1-0.7-0.3-1.8-0.3-2.1c0.2-0.2,1.7-1.6,3-1.6l0.7,0.1c0.6,0.1,1.2,0.1,1.7,0.1
	c2.5,0,3-1.5,3.1-2.3c0.5-0.5,2.4-1.3,3.6-1.3c0,0,0,0,0,0c0.4,0.7,1.1,1.2,2,1.2c1.5,0,3-1.4,3.2-4.5c0-0.6,0-1.1,0.1-1.6
	c0.1-2.1,0.2-3.1,0.6-3.1c1.9-0.2,3.7-1,4.6-2.1c0.6-0.7,0.6-1.4,0.5-1.8c-0.1-0.7-0.5-1.3-1-1.9c1,0.2,2.1,0.5,3,0.5
	c1.5,0,2.2-0.7,2.4-1.3c0.5-1,0.4-2.1,0.3-2.9c-0.1-0.7-0.1-1.2,0.1-1.5c0.3-0.4,0.6-0.8,1-1.2c1-1,2.1-2.2,1.9-3.7
	c0-0.3,0-0.5-0.1-0.8c0-0.9-0.1-2.1-1.3-3.4C58.1,5.4,58,5.2,58,5.2c0,0,0.1-0.1,0.3-0.1c0.4,0,0.8-0.2,1.2-0.4
	c1.2-0.3,2.3-0.5,3.2-1.2c1.5-1.1,4.4-2.2,5.9-2.2c0.3,0,0.5,0,0.5,0.1c0.5,0.2,1,0.3,1.7,0.3c1.4,0,3.2-0.4,4.7-1.6l0.5,0.5
	l0.7-0.2c0.4-0.1,0.8-0.2,1-0.2c0.6,0.4,1.2,0.9,1.8,1.3c0.9,0.6,2,1.4,2.4,1.8c0.1,1.2,0.6,3.7,3.7,5.1c1.1,0.5,2.4,1.1,3.3,1.7
	c-0.5,1.1-0.9,1.7-1,1.8c-0.2,0.1-0.7,0.2-1.2,0.4c-1.4,0.5-3.2,1-4.4,1.9c0,0,0,0,0,0c0,0-0.1,0-0.3,0l0,0c-0.8,0-2.1-0.4-3.3-0.8
	c-1.5-0.5-3-1-4.2-1c-2.3,0-4.1,1.6-4.5,3.1c-0.3,1.1,0.1,2,0.9,2.5c0.1,0.3,0.3,2.3,0.2,4.2l0,0.2l0,0.2c0.4,1.9,1.8,6.5,4.5,6.5
	h0.1c0,0,0.4-0.1,0.4-0.1c0.4,0,0.7,0.1,1,0.2c-1.8,1-2.7,3.1-2.9,5c-0.1,0.5-0.1,1.1-0.1,1.6c0,0.5,0,1.2-0.1,1.5
	c-1.2,0.2-3.6,0.8-3.6,4.4c0,0.4,0,0.5-1.1,0.8c-0.7,0.2-1.6,0.4-2.1,1.3c-0.2,0.4-0.4,1.1-0.8,2.4c-0.3,1.1-0.9,3-1.2,3.4
	c0,0,0,0,0,0c-0.1,0-0.5,0.1-0.8,0.2c-1.6,0.5-4,1.2-4.2,3.5c-0.2,1.4-1.3,2.9-1.8,3.1c0,0-0.2-0.1-0.4-0.2
	c-0.6-0.2-1.4-0.4-2.1-0.4c-1.3,0-1.9,0.6-2.3,1.1c-0.3-0.1-0.7-0.3-1-0.4c-0.7-0.3-1.3-0.6-2-0.6c-0.6,0-1.1,0.3-1.3,0.5
	c-0.1,0.1-0.3,0.2-0.5,0.4c-2,1.8-4.2,4-4.2,5.9c0,1.6,1.4,2.4,2.4,2.9c1,0.5,1.2,0.7,1.2,1c-0.3,2.9,1.7,5.8,2.9,6.9
	c1.2,1.2,2,3.1,1.8,3.5c-0.3,0.4-0.6,0.7-1.5,0.7c-0.4,0-0.8-0.1-1.4-0.2c-0.4-0.1-0.7-0.1-1.1-0.1c-0.6,0-1.1,0.2-1.5,0.3
	c-0.4,0.1-0.7,0.2-1.3,0.2c-0.4,0-0.9-0.1-1.5-0.2c-0.5-0.1-0.9-0.1-1.3-0.1c-2.7,0-3.7,1.8-4.4,3.1C38.8,81.1,38.7,81.3,38.5,81.5
	C38.6,81.5,38.6,81.5,38.5,81.5z"/>
</svg>
