<!-- Generator: Adobe Illustrator 19.0.0, SVG Export Plug-In  -->
<svg version="1.1"
	 xmlns="http://www.w3.org/2000/svg" xmlns:xlink="http://www.w3.org/1999/xlink" xmlns:a="http://ns.adobe.com/AdobeSVGViewerExtensions/3.0/"
	 x="0px" y="0px" width="640.4px" height="452px" viewBox="0 0 640.4 452" style="enable-background:new 0 0 640.4 452;"
	 xml:space="preserve">
<style type="text/css">
	.st0{fill:#BC471C;}
	.st1{fill:#F2906D;}
</style>
<defs>
</defs>
<path class="st0" d="M614.7,451.9c0.4-0.8,0.9-1.6,1.4-2.4c1.1-1.9,2-3.4,2.3-4.7c0.4,0.1,0.8,0.3,0.9,0.6c0.2,0.5-0.1,1.2-0.3,1.4
	c-0.9,0.8-2.6,3-4,5.3L614.7,451.9z"/>
<path class="st1" d="M541.9,342.3c-0.9-0.2-1.2-0.3-1.2-0.3c-0.7-0.8-3.3-1.4-5-1.4c-0.3,0-0.5,0-0.8,0c-0.1,0-0.2,0-0.3,0
	c-0.5,0-0.9-0.1-1.4-0.3c-0.5-0.1-1.1-0.3-1.7-0.3c-0.5,0-0.9,0.1-1.3,0.2c-0.3,0.1-0.6,0.1-1,0.1c-1.1,0-2.3-0.3-2.7-0.6
	c-0.3-0.2-0.7-0.3-1.1-0.3c-0.6,0-1.1,0.2-1.6,0.4c-0.2,0.1-0.5,0.2-0.7,0.2c-0.4-0.2-0.8-0.9-1.1-1.4c-0.4-0.7-0.8-1.5-1.6-1.9
	c-0.7-0.4-1.6-0.5-2.5-0.6c-0.2,0-0.5,0-0.8-0.1c-0.3-1.1-0.9-2.6-2.7-2.6c-0.2,0-0.5,0-0.7-0.1c-0.4-0.1-0.8-0.1-1.2-0.1
	c-1.2,0-1.9,0.6-2.3,1.1c-0.3-0.2-0.6-0.5-0.7-0.7c-0.3-1.7-2.1-2.7-4.6-3.6c-0.6-0.2-1.3-0.6-2.2-1.2c0.2-1.1-0.1-2.1-0.7-2.9
	c-0.3-0.4-0.9-1.4-1.1-3.7c-0.1-1.4-0.4-2.1-0.6-2.6c-0.1-0.2-0.1-0.2-0.1-0.3c0-1.3-0.5-3.1-1.9-3.9c0,0-0.1,0-0.1-0.1
	c0-0.1,0.1-0.2,0.2-0.3c1-1.5,0.8-4.5,0.5-6.2c0.6-0.4,1.1-1,1.3-1.8c0.4-0.1,1.2-0.2,1.8-0.3c2.1-0.3,5-0.6,6.8-2.4
	c1.7-1.7,7.6-3.3,10.3-3.4c0.4,2.5,1.7,3.8,3.9,3.8c1.4,0,2.7-0.5,3.6-1.4c0.8,0.3,1.6,0.6,1.9,0.7c1,0.4,7.3,1,11.4,1
	c1.3,0,2.5-0.1,3.4-0.2c0.2,0.1,0.5,0.2,0.7,0.2c0.7,0.1,2.9,1,3.1,1.6c-0.8,1.9-0.3,4.2,1.3,5.5c0.4,0.4,0.6,2.2,0.4,2.8
	c-0.8,0.4-3.9,2.1-3.9,4c0,1,0.7,1.6,1.3,2.1c0.2,0.2,0.6,0.5,0.6,0.6c-0.5,1.3-0.3,4.8,0.5,5.9c1.6,2.4,2.2,3.9,2.1,4.3
	c-0.1,0.1-0.3,0.2-0.8,0.5c-0.5,0.2-1,0.6-1.5,1.1c-0.3,0.3-1,1-1.8,1.8c-3.1,3-3.7,3.6-3.8,4.3c-0.1,0.5,0,1,0.1,1.8
	C541.8,341.9,541.8,342.1,541.9,342.3z"/>
<path class="st1" d="M518.4,389.1c-0.3-0.2-0.6-0.4-0.9-0.6c-1-1.4-2.2-2.5-3.2-3.4c-0.4-0.4-0.9-0.8-1.1-1.1
	c-0.1-0.9-1-1.7-2.3-2.8c-0.7-0.7-2.3-2-2.4-2.6c0-1.7-1.1-2.7-2-3.4c-0.3-0.2-0.7-0.6-0.7-0.7c0,0,0.2-0.2,0.3-0.2
	c0.5,0.4,1,0.5,1.5,0.5c0.8,0,1.4-0.4,2-0.7c0.2-0.1,0.6-0.3,0.7-0.4c1.2,0.5,6.9,0.8,8.9,0.9c0.5,0.2,2.1,0.7,4.1,2
	c0.2,2.1,0,4.7-0.3,5.7c-0.5,0.3-1,0.8-1.7,1.6C521.3,384.1,518.9,387,518.4,389.1z"/>
<path class="st1" d="M512.1,386.6c-0.9-0.3-1.4-0.8-1.5-1c-0.2-1.5-1.7-1.9-2.9-2.2c-0.8-0.2-1.6-0.5-2-0.9c-2.2-2.5-4.7-6-4.7-7.1
	c-0.1-3-3.5-3.1-4.8-3.2c1.9-0.3,2.4-0.5,2.6-0.6c0.3,0,0.7,0.1,1.1,0.2c0.5,0.1,1,0.2,1.5,0.2c1.3,0,1.7-0.9,1.8-1.2
	c0.3-0.9,0.7-1.5,0.9-1.6c0,0,0,0,0,0c1.5,0,1.7-1.7,1.8-2.5c0-0.1,0-0.3,0.1-0.4c0.5-0.2,1.4-0.6,2.8-1.8c1.8,1.1,3.1,2.1,3.5,2.7
	c1.4,1.9,4.4,2,5.3,2c0.7,0,1.4-0.1,1.9-0.2c0.1,0,0.3-0.1,0.6-0.2c0.4,1.6,1.1,2.6,2.1,3c0.3,0.1,0.4,0.2,0.6,1.3
	c-1.6-0.8-2.7-1.1-2.8-1.2l-0.1,0l-0.2,0c-3.5-0.2-7.7-0.5-8.4-0.8c-0.3-0.1-0.6-0.2-0.9-0.2c-0.8,0-1.5,0.4-2.1,0.7
	c-0.2,0.1-0.4,0.2-0.5,0.3c-0.5-0.3-1-0.5-1.6-0.5c-0.9,0-1.8,0.4-2.3,1.1c-0.5,0.7-0.8,1.5-0.6,2.3c0.2,1,0.9,1.6,1.6,2.2
	c0.7,0.6,1.1,1,1.1,1.4c0,1.7,1.7,3.1,3.3,4.6c0.5,0.4,1.1,1,1.4,1.3C510.6,385.2,511.2,385.8,512.1,386.6z"/>
<path class="st1" d="M528.1,408.5c-0.5-1-1.2-2-2.1-2.8c-0.3-0.2-0.6-1-0.7-2.2c-0.1-1.8,0.4-3.6,0.9-4.2c0.3-0.3,1.3-1.3,1.1-2.7
	c-0.2-1.1-1-1.9-2.1-2.5c0.4-1,0.9-1.8,1.2-2c0.5,0.2,1.7,0.9,3.3,1.9c-0.4,1.7-0.8,4.1-0.4,5.7c0.4,1.5,1.5,2.5,2.9,3.6
	c-0.3,0.6-0.9,1.5-1.4,2.1c-0.7,0.7-0.8,1.4-0.9,1.8c-0.8,0.3-1.3,1-1.7,1.8C528.3,408.8,528.2,408.6,528.1,408.5z"/>
<path class="st1" d="M498.5,362.3c-0.3,0-1.3-0.2-2-0.4c-1.4-0.3-2.9-0.7-4.2-0.7c-2.5-0.1-3.9-0.4-4.4-0.5
	c-0.1-0.2-0.2-0.5-0.2-0.7c-0.2-0.8-0.5-1.9-1.7-1.9c-4.5,0-5.2,0.7-5.5,1c-0.4,0.4-1.3,0.9-1.9,0.9c-1.2-0.7-2.3-1.1-3.3-1.1
	c-0.5,0-1,0.1-1.5,0.3c-0.2,0-0.8-0.4-1-0.6c0-0.1,0-0.1,0-0.2c0-0.2,0-0.5-0.1-0.8c0,0,0.1,0,0.1,0.1c0.6,0.4,1.2,0.8,2,0.8
	c0.4,0,1.2-0.1,1.7-1c0-0.1,0.2-0.3,0.6-0.3c0.4,0,0.7,0.1,0.9,0.2c0.7,0.4,1.5,0.6,2.3,0.6c1,0,1.9-0.4,2.6-1.1
	c0.3-0.3,2.3-0.9,3.9-0.9c0.4,0,0.5,0,0.5,0c0.5,0.2,1.3,0.6,2.1,0.6c0.7,0,1.4-0.3,1.8-0.8c0.7-0.9,0.4-2.2,0.2-3
	c-0.2-0.6-0.1-0.8-0.1-0.8c0.1-0.1,0.4-0.2,0.6-0.3c0.6-0.2,1.4-0.6,1.8-1.6c0.1,0,0.7-0.4,1.1-0.5c0.4-0.2,0.7-0.3,1-0.5
	c0.7,0.1,1.5,0.2,2.3,0.2c1.8,0,3-0.4,3.5-1.3c0.3-0.6,0.6-1.3,0.8-1.9c1.2,0.1,2.6,0.5,3.2,1.2c0.8,0.9,2,1.4,3.3,1.4
	c0.4,0,0.8,0,1.1-0.1c0.3,0.8,0.8,2,1.4,3c-0.4,0.6-0.5,1.2-0.5,1.6c0,0.1,0,0.1,0,0.2c0,0-0.1,0-0.2,0c-0.3,0-0.5,0-0.8-0.1l-0.3,0
	c-0.7,0-1.2,0.4-1.4,0.6c-0.5,0.6-0.4,1.4-0.4,1.9c0,0.1,0.1,0.4,0,0.4c-0.5,0.5-0.5,1.4-0.6,1.9c0,0,0,0,0,0.1
	c-0.5,0.2-0.9,0.7-1.2,1.4c-0.1,0.1-0.2,0.1-0.3,0.2c-0.6,0.3-1.4,0.8-2.5,0.8c-1.7,0-3.1,0.8-4.1,1.3
	C499.1,362,498.7,362.2,498.5,362.3z"/>
<path class="st1" d="M517.6,366.5c-1.4,0-2.8-0.4-3.2-0.9c-0.8-1.1-2.8-2.4-4.5-3.5c-0.4-0.7-0.7-1.2-0.9-1.6
	c1.1-0.5,1.2-1.8,1.2-2.3c0-0.2,0-0.5,0.1-0.6c0.4-0.5,0.5-1.1,0.5-1.6c0,0,0,0,0.1,0c1.5,0,2.5-0.7,2.8-2c1.5,0.9,3.6,1,4.6,1
	c2.8,0,4.4-0.7,4.7-2c0.8-0.5,3.5-0.9,4.7-0.9c1,0,2.2-0.9,4-2.3c0.4-0.3,1-0.8,1.4-1c0.1,0,0.3,0.1,0.5,0.1
	c2.2,0.5,3.4,0.8,3.7,1.1c0.2,0.2,0.9,0.9,3.9,1.6c0.3,0.2,0.7,0.5,1.1,0.7c-0.6,0.4-1.4,0.9-2,1.3c-0.5,0.3-1,0.6-1.3,0.8
	c-0.6,0.4-1,1.2-2.3,3.6c-1,1.8-2.3,4.3-3.1,5.2c-0.8,0.8-1.6,1.3-2.2,1.6c-0.2,0.1-0.4,0.2-0.5,0.3c-0.5-0.1-0.8-0.1-1-0.2
	c-0.7-0.1-1.9-0.5-2.3-0.7l-0.4-0.2l-0.4,0.1c-0.1,0-6.4,2.1-7.8,2.4C518.5,366.5,518.1,366.5,517.6,366.5z"/>
<path class="st1" d="M498,346.5c-0.5,0-0.9,0-1.4-0.1c-0.5-0.8-2.1-2-5.3-4.1l-1.1-0.7c-0.4-0.3-0.6-1.5-0.8-2.2
	c-0.2-0.8-0.3-1.5-0.7-2.1c-0.1-0.2-0.3-0.5-0.4-0.7c-0.1-0.1-0.2-0.3-0.3-0.5c1.9-0.4,4.5-1.1,6-2.5c0.6-0.5,1.5-0.8,2.4-1.1
	c0.9-0.3,1.6-0.5,2.2-0.9c0.2,0,0.4,0.1,0.5,0.1c0.4,0.1,0.8,0.2,1.2,0.2c0.5,0,0.9-0.1,1.1-0.3c0.9,0.6,1.8,1.1,2.5,1.3
	c2.5,0.9,2.8,1.4,2.9,1.6c0.3,1.4,2.1,2.9,3.6,2.9c0.9,0,1.6-0.5,2-1.3c0.3,0,0.5,0.1,0.8,0.1c0.4,0.1,0.8,0.1,1.2,0.1
	c0,0.1,0.1,0.6,0.1,0.8c0.4,1.6,1.9,1.7,3.1,1.8c0.4,0,1.1,0.1,1.3,0.2c0.1,0.1,0.4,0.6,0.6,0.9c0,0.1,0.1,0.1,0.1,0.2
	c-1.1,0.7-1.9,1.5-2.5,2.4c-1.2,1.7-2.8,1.9-4.3,2.1c-0.4,0.1-0.8,0.2-1.1,0.4l0-0.2l-1.3,0.5c0,0-0.7,0.3-1.5,0.3
	c-0.9,0-1.2-0.4-1.3-0.5c-1.8-2.1-5.8-2.1-6.3-2.1h-1.1l-0.2,1.1c-0.1,0.5-0.4,1.5-0.7,2.1C499.1,346.4,498.7,346.5,498,346.5z"/>
<path class="st1" d="M518.2,352.2c-1.7,0-3-0.4-3.4-0.7c-0.6-0.5-1.3-1.8-2-3.4c0.3-0.5,0.4-0.6,0.4-0.6c1.8-0.2,4.4-0.6,6.2-3.2
	c0.4-0.6,1.1-1.2,2-1.8c0.1,0.1,0.2,0.1,0.3,0.2c0.4,0.3,0.9,0.4,1.4,0.4c0.7,0,1.4-0.3,1.8-0.5c0.1,0,0.2-0.1,0.4-0.2
	c1,0.5,2.5,0.9,3.9,0.9c0.7,0,1.4-0.1,2-0.3c0.1,0,0.3-0.1,0.4-0.1c0.3,0,0.6,0.1,0.9,0.2c0.6,0.2,1.2,0.4,2.1,0.4
	c0.2,0,0.4,0,0.6,0c0.2,0,0.3,0,0.5,0c1.5,0,3,0.6,3.3,0.8c0.2,0.2,0.6,0.5,1.8,0.8c-0.7,1-1.4,2.3-1.5,3.2c-0.1,0-0.1-0.1-0.1-0.1
	c-0.9-0.9-2.9-1.4-5.1-1.8c-0.3-0.1-0.6-0.1-0.7-0.2l-0.2-0.1l-0.3,0c-0.7,0-1.4,0.5-2.9,1.7c-0.7,0.6-2,1.6-2.4,1.7c0,0,0,0,0,0
	c-0.5,0-6.3,0.2-7.1,2.7C520,352.1,519.3,352.2,518.2,352.2z"/>
<path class="st1" d="M367.4,427.6c-0.3,0-0.6,0-0.7,0c0-0.3,0.1-0.7,0.1-1.2c0.4-3,1-7.5-1.4-9.3c-0.4-0.3-0.8-0.6-1.2-0.8
	c-0.5-0.4-1.4-1-1.4-1.2l0,0c0,0,0-0.3,0.6-1c2.3-2.6,5.3-12.6,3.7-15.2c-0.2-0.3-0.1-1.2,0-2.1c0.5-0.2,0.8-0.4,1.1-0.7
	c0.2,0.5,0.6,0.9,1.2,1.1c0.4,0.2,1,0.3,1.7,0.3c0.3,0,0.7,0,1,0c0.3,0,0.5,0,0.7,0c0.3,0.2,0.7,0.5,1.3,0.5c0.7,0,1.2-0.3,1.7-0.7
	c0.3-0.2,0.7-0.3,1-0.3c0.3,0,0.4,0.1,0.4,0.1c-0.1,0.8,0.5,1.3,1.1,1.6c-0.4,0.3-0.8,0.6-1.2,0.8c-1.1,0.7-2.3,1.4-2.3,2.9
	c0,0.6,0.2,1.3,0.5,2c0.3,0.8,0.7,2,0.3,2.4c-1.1,1.2-1,2.6-0.9,3.5c-1.2,0.2-2.1,0.7-2.5,1.6c-0.3,0.6-0.3,1.7,0.9,2.9
	c0.5,0.5,0.9,0.9,1.2,1.2c-0.5,0.4-0.9,0.9-1.2,1.6c-0.4,1-0.6,2.4,0.3,3.3c0.1,0.1,0.4,0.3,0.6,0.5c0.1,0.1,0.2,0.2,0.4,0.3
	c-2.4,1-2.4,3.4-2.4,4.5c0,0.3,0.1,0.6,0.2,0.9c0,0,0,0-0.1,0c-0.9,0.2-1.8,0.5-2.5,0.5c-0.5,0-0.9,0-1.3,0
	C368,427.6,367.7,427.6,367.4,427.6z"/>
<path class="st1" d="M449.9,328.5c-0.7-0.6-1.4-0.9-2-1.2c-0.6-0.3-1-0.5-1.3-0.9c-0.9-0.9-2.2-1.5-3.4-1.5c-0.9,0-1.8,0.3-2.4,1
	c-0.4,0.4-1.5,0.9-2.6,1.1c2.1-1.7,3.1-3.3,2.9-5c0-0.5,0.3-0.8,1-1.5c0.7-0.7,1.8-1.7,1.6-3.2c0-0.1,0-0.2,0.1-0.3c0,0,0,0,0.1-0.1
	c0.4,0.8,1.4,1.3,2.6,1.3c1,0,2.2-0.3,2.6-1.3c0.3-0.6,0.1-1.4-0.4-1.9c0,0-0.1-0.3,0.1-0.6c0.1-0.3,0.5-0.9,1.6-1.1
	c1.6-0.3,2.8-0.6,3.7-0.6c0.5,0,0.9,0.1,1.1,0.2c0.4,0.2,0.8,0.4,1.2,0.4c0.1,0.8,0,1,0,1c-0.6,0.9-1.3,1.3-1.8,1.6
	c-0.5,0.3-1.1,0.6-1.2,1.3l-0.1,0.6l0.4,0.6c0.1,0.2,0.3,0.4,0.6,0.7c0.2,0.2,0.6,0.7,0.9,1c-0.6,0.5-1.1,1-1.1,2.4c0,0,0,0,0,0
	c-0.1,0-0.5,0.2-1.8,0.2c-0.5,0-1,0.2-1.3,0.6c-0.5,0.6-0.4,1.4-0.3,2c0.1,0.3,0.1,0.8,0,1C450.1,327,450,327.7,449.9,328.5z"/>
<path class="st1" d="M450.7,340.2c0-0.4,0.1-0.7,0.2-1c0.2,0.3,0.3,0.6,0.5,1.1C451.2,340.2,450.9,340.2,450.7,340.2z"/>
<path class="st1" d="M448,339.8c-0.5-0.6-1.1-1.5-2.3-1.5l-0.2,0c-0.1-0.2-0.2-0.8-0.2-1.3c0-1.1-0.8-1.7-1.5-1.7
	c-0.7,0-1.2,0.4-1.9,0.9c-0.2,0.2-0.4,0.4-0.7,0.5c0-0.2-0.1-0.4-0.1-0.6c-0.2-1.2-1.6-1.9-3.1-2.6c-0.4-0.2-0.8-0.4-1.1-0.5
	c-0.3-0.1-0.6-0.5-1-0.8c-0.7-0.7-1.4-1.3-2.3-1.3c-0.2,0-0.4,0-0.6,0.1c-0.1-0.2-0.3-0.5-0.4-0.7c0.6-0.3,1.2-0.6,1.7-0.9
	c1.1,0.5,1.6,0.6,2,0.6c1.7,0,5-0.8,6.4-2.2c0.1-0.1,0.2-0.2,0.5-0.2c0.5,0,1.1,0.3,1.5,0.7c0.6,0.6,1.3,1,2,1.3
	c0.7,0.4,1.4,0.8,2.1,1.5c0.3,0.3,0.6,0.5,0.8,0.8c0.1,0.8,0.6,1.5,1,2.2c0.1,0.2,0.3,0.5,0.4,0.7c-0.1,0.1-0.2,0.2-0.3,0.3
	c-0.1,0.2-0.3,0.3-0.4,0.5C449.3,336.3,448.3,337.5,448,339.8z"/>
<path class="st1" d="M558.1,381.5c-1.3-0.1-3.6-0.3-5.1-0.3c-0.7,0-1.4,0-1.6,0.1c-0.5,0-1.7-0.2-2.7-0.4c-1.2-0.2-2.3-0.4-2.9-0.4
	c0,0-0.2-0.2-0.3-0.3c-0.5-0.5-1-1-1.8-1.4c0-0.3-0.1-0.5-0.2-0.7c-0.1-0.3-0.2-0.6-0.2-0.8c0-2.1-3.1-2.6-6.2-3
	c-0.1,0-0.3,0-0.4-0.1c0-0.1,0-0.2,0-0.3c0.1-1,0.2-2-0.4-2.8c-0.4-0.4-0.9-0.6-1.4-0.6c-0.3,0-0.5,0-0.5-0.7c0-1-0.8-1.9-1.5-2.8
	c0-0.1-0.1-0.1-0.2-0.2c0.7-0.4,1.7-1,2.8-2c1.1-1.1,2.4-3.6,3.6-5.8c0.5-1,1.3-2.4,1.5-2.7c0.1-0.1,0.6-0.3,1.1-0.6
	c0.9-0.5,2-1.2,2.7-1.7c0.5-0.4,0.8-0.7,1-1.1c0.4,0,0.7-0.1,1-0.1c0.3,0,1.4,0.2,2.2,0.4c1.7,0.4,2.8,0.6,3.6,0.6
	c0.9,0,2.2,0.4,2.4,0.6c0.4,0.4,1,0.6,1.6,0.6c0.9,0,2-0.5,2.8-1.3c0.1-0.1,0.1-0.1,0.3-0.1c0.2,0,0.4,0,0.6,0.1
	c0.3,0,0.7,0.1,1,0.1c1.4,0,3.5-1,4.3-2.3c0,0,0,0,0,0c0,0,0.3-0.1,1-0.4c2.5,4.6,3.1,5.4,3.4,5.6c1.9,2.2,3.7,5.5,3.6,6.3
	c-0.8,0.7-0.9,2.2-0.8,3.3c0.1,1.3,0.5,3,1.3,4.1c0,0.3,0,0.6,0.1,0.9c0.5,1.1,2.1,1.6,3.3,1.8c0,0,0,0,0.1,0c0.8,0,1.3-0.3,2.3-0.8
	c0.3-0.1,0.7-0.3,0.9-0.5c0.2,0.1,0.4,0.3,0.8,0.6c0.1,1.2,0,1.2-1.5,1.3c-2.9,0.3-4.2,3.6-4.3,5.9c0,0.4,0,0.7,0,1.1
	c-0.7-0.3-1-0.5-1.1-0.5c-0.6-1-2.3-1.4-5.4-1.8c-0.4,0-0.8-0.1-1.4-0.1c-1.2,0-5,0.1-6.5,1.6C559.9,381,558.9,381.5,558.1,381.5z"
	/>
<path class="st1" d="M575.1,367.9c-0.3-1.2-0.4-2.7-0.1-3.1c2.6-2.6-3.3-9.5-3.6-9.8c-0.2-0.3-0.9-1.2-2.8-4.7
	c1.1-0.3,2-0.5,2.3-0.5c0.2,0,1.1,0.7,1.5,1.1c1,0.8,1.9,1.5,2.9,1.5c0.7,0,2.3,0.5,2.7,2.1c0.8,2.4,2.9,5.3,3.9,6.3
	c0.2,0.2,0.5,0.8,0.6,1.3c0,0-0.1,0-0.1,0c-0.5-0.2-1.1-0.3-1.8-0.5c-0.3-0.1-0.6-0.1-0.9-0.1c-0.7,0-2.9,0.3-2.9,4
	C576.8,365.4,576.4,366.1,575.1,367.9z"/>
<path class="st1" d="M559.7,397.9c-2.1-0.2-4.8-0.5-5.5-0.9c-0.4-0.2-1.2-0.4-3.5-0.4c-1.3,0-2.9,0.1-4,0.2
	c-0.1-0.2-0.3-0.3-0.4-0.4c-0.1-0.1-0.2-0.1-0.2-0.2c0-0.5-0.6-1.4-3.2-3.9c0-0.2,0-0.5,0.1-0.7c0.1-0.6,0.1-1.1,0.1-1.6
	c0-0.2,0.4-0.7,0.6-0.7c0,0,0,0,0,0c0.7,0,1.3-0.4,1.6-1.1c0.7-1.9-2.4-4.9-2.5-5c-0.3-0.3-0.5-0.7-0.5-1.1c0-0.3,0.1-0.5,0.3-0.7
	c0,0,0,0,0.1,0c0.3,0.2,0.6,0.5,0.9,0.8c0.6,0.6,1.1,1.1,2,1.1h0.2l0.2,0c0.3,0,1.4,0.2,2.3,0.3c1.3,0.2,2.4,0.4,3.1,0.4h0.1l0.4,0
	c0.2,0,0.6,0,1.1,0c1.5,0,3.7,0.1,4.5,0.2c0.2,0,0.4,0,0.6,0c1.6,0,3.2-0.8,4.6-2.1c0.4-0.4,2.4-0.8,4.6-0.8c0.4,0,0.7,0,1,0
	c2.6,0.3,3.4,0.6,3.6,0.8c0.1,0.2,0.3,0.6,1.9,1.3c-1,0.7-1.7,1.8-2.4,2.9c-0.4,0.5-0.9,1.3-1.1,1.5c-0.6,0.1-1.4,0.8-1.3,2.2
	c0,0.8,0.4,2.5,1.3,3.6c-0.6-0.2-1.4-0.2-2.3-0.2c-1.4,0-3.2,0.2-3.8,0.5c-0.8,0.3-1,1-1,1.7c-0.9,0.2-1.9,0.6-2.3,1.3
	c-0.2,0.3-0.3,0.6-0.3,1C560.3,397.9,560,397.9,559.7,397.9z"/>
<path class="st1" d="M534.4,401.4c-1.3-1-2.1-1.7-2.3-2.4c-0.2-0.8-0.1-2.4,0.3-4.1c1.2-0.2,4.9-1,8-1.5c0.1,0.2,0.2,0.3,0.3,0.5
	c2.4,2.3,2.8,2.9,2.8,3.1c0.1,0.4,0.3,0.8,0.6,1.1c-0.9,0.6-2.6,1.4-3.3,1.5l-0.1,0l-0.5-0.1c-0.9,0-1.4,0.6-1.8,1
	c-0.4,0.4-0.6,0.6-1,0.7c-0.1,0-0.3,0.1-0.4,0.1l-0.5,0l-0.9,0c-0.4,0-0.8,0-1.1,0C534.6,401.3,534.4,401.4,534.4,401.4z"/>
<path class="st1" d="M605.7,375.8c0.3-1.1,0.7-3-0.9-4.1c-0.7-0.5-1.9-0.9-3.1-1.3c-0.2-0.1-0.3-0.1-0.5-0.2
	c0.2-0.1,0.3-0.1,0.4-0.2c3.2-1.2,6-2.2,5.6-4.3c-0.4-2-2.9-2-4.6-2l-2.3,0c-0.5,0-1.9,0-2.7-0.2c0-0.1,0.1-0.1,0.1-0.2
	c0.4-0.6,1.1-1.5,0.7-2.5c-0.4-1.1-1.7-1.3-2.1-1.3c-0.7-0.1-1.3-0.2-1.8-0.2c-1.4,0-2.4,0.3-3.4,0.6c-0.5,0.2-1,0.3-1.6,0.4
	c-1.8,0.3-2.7,1.9-3.4,3.3c-0.5,1-1.1,2-2,2.7c-0.4,0.3-0.7,0.5-1,0.7c-1,0.7-1.7,1.3-2,2.1c-0.4-0.2-0.6-0.2-0.9-0.2
	c-0.6,0-1.3,0.3-2.3,0.9c-0.3,0.1-0.7,0.4-0.9,0.5c-0.1,0-0.3-0.1-0.4-0.1c2.2-2.8,2.9-4.2,2.9-5.1c0-1,0.2-1.3,0.2-1.3l0.3,0.1
	c0.6,0.1,1.1,0.3,1.6,0.5c1,0.3,1.6,0.5,2.2,0.5c1.1,0,1.7-0.8,1.7-1.6c0-0.8-0.5-3.4-1.7-4.7c-0.8-0.8-2.6-3.3-3.2-5.2
	c-0.9-2.9-3.7-4-5.3-4c-0.2-0.1-0.8-0.6-1.2-0.9c-1-0.8-2.1-1.6-3.2-1.6l-0.3,0c-0.1,0-6.8,1.3-7.9,3c-0.2,0.4-1.4,1-2,1
	c-0.2,0-0.4,0-0.6-0.1c-0.3,0-0.7-0.1-1-0.1c-0.9,0-1.6,0.3-2.2,0.9c-0.3,0.3-0.6,0.5-0.8,0.5c-1-0.8-3-1.2-4.1-1.2
	c-0.5,0-1.9-0.3-3-0.5c-1.4-0.3-2.2-0.5-2.7-0.5c-0.4,0-1,0-1.7,0.1c-0.3-0.2-0.6-0.4-1-0.5c-0.7-0.2-1.6-1.2-1.6-1.5
	c0.1-0.6,1.5-2.7,2-3.1c1-0.8,0.8-2.4,0.5-3.9c0-0.3-0.1-0.5-0.1-0.7c0.5-0.6,2.1-2.1,3-3c0.9-0.9,1.7-1.6,2-1.9
	c0.2-0.2,0.4-0.3,0.7-0.5c0.6-0.3,1.4-0.7,1.9-1.7c0.3-0.6,1-1.8-2.2-6.8c0.7-0.1,1.5-0.3,2.3-1.1c0.2-0.2,0.4-0.4,0.6-0.7
	c0.7-0.8,1-1.1,2.1-1.1c7.1,0,8.5,0.6,8.8,0.8c0.7,0.9,2,1,3,1l1.5,0c0.2,0,0.8,0,1.1,0.1c0.7,0.3,2.4,1,3.7,1
	c0.6,0,1.1-0.2,1.4-0.4c0.6,0.2,1.4,0.6,2.2,0.6c0.5,0,1.1-0.1,1.5-0.4c0.2,0,0.6,0.4,0.9,0.6c0.5,0.4,1.1,0.9,1.9,0.9h0.4l0.6-0.3
	c0.1,0,0.6-0.2,1.5-0.2c1.2,0,2,0.2,2.1,0.3c0.4,0.4,0.8,0.6,1.3,0.6c1.3,0,1.9-1.2,1.9-3.4c0.1-0.2,1.3-1.4,2.5-2.4
	c0.6-0.1,1.8-0.2,2.8-0.5c0.7,0.5,1.4,0.5,1.9,0.5c1.3,0,2.2-0.7,2.8-1.1c0.2-0.1,0.4-0.3,0.6-0.4c0,0,0.1,0,0.3,0
	c0.3,0,0.6,0,1,0.1c0.4,0,0.8,0.1,1.2,0.1c0.5,0,0.9-0.1,1.2-0.2c0.1-0.1,0.7-0.2,1.5-0.2c1,0,1.5,0.2,1.6,0.3
	c0.4,0.7,0.8,2.4,0.6,2.8c-0.7,1.3,0.1,2.5,0.7,3.4c0.2,0.3,0.4,0.6,0.6,0.9c0.8,1.5,2.7,1.6,3.9,1.6c0.3,0,0.8,0,0.9,0.1
	c0.5,0.3,1.8,2.2,1.7,2.8c-0.2,0.7-0.1,1.4,0.3,2c0.5,0.6,1.3,1,2.3,1c0.5,0,1-0.1,1.4-0.3c0,0.1,0.4,0.4,0.7,0.6
	c0.3,0.2,0.5,0.4,0.8,0.6c0.6,0.4,1.2,0.6,1.9,0.6c1,0,1.9-0.5,2.4-0.8c0.5-0.3,1-0.5,1.4-0.5c0.3,0.5,0.8,1,1.4,1.6
	c0.3,0.3,0.7,0.7,0.9,0.9c0.2,1.2,1.7,1.2,2.8,1.3c0.8,0,2,0.1,2.6,0.3c0.9,0.5,1.8,0.6,2.7,0.7c0.8,0.1,1.5,0.2,2.1,0.5
	c0.6,0.3,1.2,0.6,1.7,0.8c0.2,0.1,0.5,0.2,0.7,0.3c-0.1,0.1-0.3,0.3-0.4,0.4c-0.5,0.5-1,1-1,1.8c0,0.6,0.3,1.1,0.7,1.4
	c-0.5,0.2-1,0.5-1.2,1.1c-0.5,1.2,0.4,2.1,0.9,2.7c0.1,0.1,0.2,0.2,0.2,0.3c-0.1,0.3-0.3,0.8-0.4,1.2c-0.1,0.3-0.2,0.5-0.3,0.8
	c-0.7,0-1.4-0.1-2-0.2c-0.7-0.1-1.3-0.2-1.6-0.2c-0.9,0-1.8,0.7-3.2,1.9c-0.5,0.4-1.3,1.1-1.5,1.2c-0.4,0-0.8,0.3-1.1,0.7
	c-0.4,0.6-0.4,1.4-0.3,2.2c-1.5,0.3-2.8,0.7-3.6,1.1c-2.4,1.1-4.3,1.8-6.8,2.1c-2.5,0.2-8.4,3.8-8.4,5.9c0,2.5,1.2,5.1,3.9,5.8
	c-0.2,0.1-0.4,0.2-0.5,0.3c-1,0.7-1.8,0.9-2.6,1.1c-0.9,0.3-1.8,0.5-2.9,1.3c-1,0.7-2,1.1-2.6,1.2
	C605.6,376.1,605.7,375.9,605.7,375.8z"/>
<path class="st1" d="M585.9,325.1c-0.9-0.3-2-0.3-2.7-0.3c-0.7,0-1.7,0.1-2.4,0.3c-0.1-0.1-0.2-0.2-0.3-0.2
	c-0.6-0.5-1.5-1.1-2.5-1.1c-0.5,0-0.9,0.1-1.3,0.3c0,0-0.1,0-0.1,0c-0.5,0-0.9-0.2-1.3-0.3c-0.5-0.2-0.9-0.4-1.4-0.4
	c-0.5,0-1,0.2-1.2,0.6c-0.5-0.1-1.3-0.3-2.3-0.8c-0.7-0.3-1.6-0.4-2.2-0.4l-1.5,0c-0.9,0-1-0.1-1.1-0.1c-0.9-1-3-1.7-10.8-1.7
	c-2.4,0-3.4,1.1-4.2,2.1c-0.2,0.2-0.3,0.4-0.5,0.5c-0.2,0.2-0.4,0.3-0.8,0.3c0-0.6,0-1.2,0.1-1.4c0.5-1.6-0.8-2.6-1.5-3.2
	c-0.1-0.1-0.2-0.1-0.2-0.2c0.4-0.3,1.5-1.2,2.3-1.5c0.5-0.2,1.2-0.8,1.4-2.2c0.2-1.6-0.2-4-1.3-5c-0.5-0.4-0.9-1.3-0.6-2.4
	c2,0.1,2.6,0.2,2.7,0.2c0.3,0.1,0.6,0.1,0.9,0.1c1.8,0,2.9-1.4,3.3-1.9c0.3-0.3,2-0.7,2.6-0.7c1.7,0,1.9-2,2.1-3.1
	c0-0.2,0.1-0.5,0.1-0.6c0.2-0.4,1.3-1.5,2-1.7c0.9-0.3,1.4-1,1.6-1.4c0,0,0,0,0-0.1c0.6,0,1.1-0.3,1.4-0.7c0.7-0.9,0.6-2.1,0.4-3.1
	c-0.1-0.4,0.1-1,1-1.7c0.3-0.3,0.7-0.4,1.2-0.4c0.3,0,0.6,0,0.8,0.1c0.3,0,0.7,0.1,1,0.1c1.5,0,2.2-1.1,2.6-1.7
	c0.2-0.3,0.3-0.5,0.5-0.6c0.1-0.1,0.2-0.2,0.4-0.2c0.6,0.5,1.6,1.2,3,1.2c0.4,0,0.8-0.1,1.2-0.2c0.2,0,0.3-0.1,0.4-0.1
	c0.2,0,0.5,0,1,0.8c0.5,0.9,1.3,1.4,2.2,1.4c0.8,0,1.6-0.4,2.4-0.7l0.3-0.1c1,0,3,1,3.7,1.4c0,0.3,0,1,0,1.4c0,0.5,0,1.1,0,1.6
	c0,0.3,0,0.7-0.1,1.1c-0.1,1.1-0.4,2.9,1.3,4c0.3,0.2,0.4,0.5,0.6,1.1c0.3,0.9,0.8,2,2.2,2.6c0.5,0.2,1,0.8,1.4,1.4
	c0.5,0.8,1.1,1.5,2,1.8c0.6,0.2,2,1.3,2.1,1.8c0,0,0,0,0,0c-0.1,0-0.5,0.5-2.1,1.2c-0.1,0-0.6-0.3-1-0.4c-0.6-0.3-1.3-0.6-2-0.6
	c-0.6,0-1.2,0.2-1.6,0.7c-1,1.2-0.6,2.6,0,4.2c0.2,0.6,0.4,1.4,0.6,2.3c0.1,0.5,0.2,0.9,0.3,1.2c-0.8,0.2-1.6,0.2-1.9,0.2l-0.4,0
	l-0.3,0.3c-3.9,3.1-3.9,4.3-3.9,4.8C585.9,325,585.9,325,585.9,325.1z"/>
<path class="st1" d="M565.4,291.7c-0.6-0.4-1.2-0.7-1.7-1.1c-1.4-1.2-4.1-3.2-6-3.2h-0.1l-0.2,0c-0.1-0.1-0.1-0.1-0.2-0.2
	c-0.4-0.5-1.1-1.3-2.4-1.3c-0.4,0-0.8,0.1-1.2,0.2c-0.5,0.2-1.1,0.3-2,0.3c-1,0-2-0.1-2.9-0.2c-0.8-0.1-1.4-0.1-1.9-0.1
	c-0.4,0-1-0.1-1.7-0.2c-1.2-0.2-2.6-0.4-3.9-0.4c-1.5,0-2.6,0.3-3.4,0.8c-0.3,0.2-1.1,0.6-2.9,0.8c-0.5-1.3-0.3-2.4,0.7-3.2
	c1-0.8,1.2-1.9,1.3-2.8c0.2-1,0.3-1.3,0.8-1.6c0.5-0.3,1-0.7,1.6-1.1c0.7-0.5,1.7-1.2,2.3-1.5c0.1,0.2,0.3,0.5,0.5,0.8
	c1.9,3,3.5,5.3,5.4,5.3c0,0,1.2,0,1.5,0c3.6,0,4.4-1.9,4.5-3.5c0-1-0.1-1.9-0.2-2.5c-0.1-1-0.2-1.4,0.1-1.8c1.6-0.1,3-0.2,3.9-0.2
	c0.5,0,0.8,0,0.9,0l0.1,0.1c3.3,2.5,5,3.5,6.1,3.5h0.2l0.4-0.1c0,0,0.2,0,0.3,0c0.7,0,2.1,0.1,3.8,0.3c0.2,0.4,0.5,0.8,0.9,1.2
	c0.7,0.7,0.5,1.4,0.3,1.7c-0.5,1.3,0.1,2.9,2.1,4.8c0.2,0.2,0.4,1,0.5,1.4c0,0.1,0,0.1,0,0.2c-0.4,0.2-0.7,0.3-0.9,0.6
	c-0.5,0.4-0.8,0.9-1,1.2c-0.1,0.2-0.3,0.4-0.4,0.5c-0.2,0-0.4-0.1-0.7-0.1c-0.4,0-0.7-0.1-1.1-0.1c-1.1,0-2,0.3-2.8,0.9
	C565.8,291.3,565.6,291.5,565.4,291.7z"/>
<path class="st1" d="M553.2,305.6c-0.1,0-0.2,0-0.3,0c-0.4-0.1-1.2-0.2-3.6-0.3c-0.9-1.3-3-2.1-4.2-2.5c0-0.4,0.1-1,0.1-1.4
	c0.1-0.6,0.1-1.1,0.1-1.5c0-1.9-2.7-3.3-4.2-3.3c-0.4,0-0.7,0.1-1,0.2c-0.5,0-1.5-0.5-1.7-0.8c-0.7-1-2.1-1-2.6-1
	c-0.2,0-0.4,0-0.7,0c0.9-1.5,1.2-3.3,0.8-5.1c1.5-0.2,2.7-0.7,3.5-1.2c0.1-0.1,0.6-0.3,1.8-0.3c1.1,0,2.5,0.2,3.6,0.3
	c0.9,0.1,1.6,0.2,2.1,0.2c0.4,0,1,0.1,1.6,0.1c1,0.1,2.1,0.2,3.1,0.2c1.2,0,2.1-0.1,2.9-0.4c0.2-0.1,0.3-0.1,0.3-0.1
	c0.1,0,0.2,0.2,0.4,0.3c0.4,0.4,1,1.1,2,1.1h0.1l0.3,0c0.6,0,2.3,0.9,4.3,2.5c0.6,0.5,1.3,1,2.1,1.4c-0.1,0.5-0.1,1,0,1.5
	c0.1,0.3,0.1,0.5,0.1,0.6c-0.9,0.2-1.3,0.9-1.6,1.3c-0.1,0.1-0.1,0.2-0.2,0.3c-1.3,0.4-3.4,2.2-3.7,3.7c0,0.2-0.1,0.5-0.1,0.9
	c0,0.2-0.1,0.5-0.1,0.8c-1.1,0.1-3.1,0.5-4,1.6C553.9,305.4,553.5,305.6,553.2,305.6z"/>
<path class="st1" d="M457.7,366.7c-0.2-0.6-0.6-1-0.8-1.2c-0.1-0.1-0.2-0.2-0.2-0.3c0-1.3-1-2.4-2.4-2.4c-0.2,0-0.4,0-0.6,0.1
	c0.4-0.6,1-1.1,1.6-1.6c0.8-0.7,1.6-1.4,1.8-2.4c0.1-0.6,1.1-1.3,1.6-1.3c0.3,0,1-0.1,1.6-0.8c0.6,0,1.2,0.1,1.8,0.1
	c1.3,0,2.3-0.1,2.9-0.4c0.6-0.3,1-0.4,1.3-0.4c0.4,0,0.8,0.1,1.5,0.3c0.5,0.2,1.3,0.5,2.2,0.9c0,0.4,0,0.9,0.1,1.3l0,0.3
	c0,0.9,0.7,1.6,1.3,2c0.4,0.3,1.1,0.8,2,0.9c-0.6,0.2-1,0.8-1.2,1.5c-0.4,0-0.8-0.1-1.1-0.1c-0.2,0-0.5-0.1-0.7-0.1
	c-1.7,0-2.9,1.1-2.9,2.6c0,0.1,0,0.1,0,0.2c-0.3-0.4-0.6-0.8-0.8-1.2c-0.9-1.3-1.4-2.2-2.4-2.2h-0.4l-0.4,0.3
	c-0.5,0.3-0.7,0.9-1.2,1.8c-0.3,0.5-0.8,1.6-1.1,2C460.2,366.5,458.8,366.6,457.7,366.7z"/>
<path class="st1" d="M474.3,355.4c-0.6-0.4-1.3-0.9-2.2-0.9c-0.3,0-0.7,0.1-1.1,0.3c-1.1-0.5-1.9-0.9-2.6-1.1
	c-1-0.3-1.7-0.4-2.3-0.4c-0.8,0-1.6,0.2-2.5,0.7c0,0-0.4,0.2-1.7,0.2c-0.3,0-0.7,0-1,0c0-0.1,0-0.3,0-0.4c0.1-0.5,0.1-1.1,0.2-1.5
	l0.1-0.4c0.3-1.4,0.6-2.6,1.7-3.5c1.3-1.1,1.2-2.1,1-2.7c-0.4-1.1-1.7-1.6-2.8-1.6h-0.1l-0.3,0c0.1,0,0-0.1-0.1-0.2
	c-0.6-0.3-1.4-0.9-2.7-0.9c-1.4,0-2.2-0.8-2.6-1.2c-0.2-0.3-0.6-0.6-1.1-0.8c-0.3-2.1-1.1-3.3-1.6-3.9c0,0,0,0,0,0
	c0.4-0.4,0.8-0.9,1-1.7c0.2-0.9-0.4-1.8-0.9-2.6c-0.2-0.3-0.6-0.9-0.6-1.1c0.1-0.2,0.1-0.7,0.1-1.3c0.1-0.9,0.2-2.2,0.4-2.8
	c0.3-0.7,0.3-1.4,0.2-1.9c2.8-0.3,3.4-1.6,3.4-2.8c0-0.1,0-0.1,0-0.2c0.3-0.2,0.7-0.5,1-1c0.8-1.3-0.2-2.6-1.1-3.6
	c0.6-0.4,1.4-1,2.1-2c0.6-1,0.7-2.4,0.1-4.6c0-0.2,0.1-0.4,0.1-0.6c0.3-0.1,0.8-0.2,1.4-0.2c0.5,0,0.8,0.1,0.9,0.1
	c1.2,0.6,2.8,1.3,4,1.3c1.1,0,1.8-0.6,2-1.3c0.1,0,0.2,0,0.3-0.1c0.7-0.1,1.7-0.3,2.2-1.2c0.3-0.6,0.3-1.4-0.2-2.2
	c-0.2-0.5-0.5-0.9-0.7-1.3c-0.8-1.3-1-1.9-0.8-2.4c0.3-0.6,0.3-1.3,0.2-1.9c1.3,0.1,2.1,0.2,2.4,0.3c0.3,0.1,0.6,0.1,1.1,0.1
	c0.1,0,0.3,0,0.4,0c0,0.8,0.2,1.5,0.8,2.1c0.8,0.9,2,1.4,3.3,1.4c0.6,0,1.3-0.1,1.9-0.3c-0.2,0.7-0.1,1.4,0.2,2.1
	c0.5,1,1.7,1.7,2.9,1.7c0.8,0,1.6-0.3,2.3-0.8c0.4-0.3,0.9-0.7,1.4-1.2c1.1-1,2.6-2.3,3.6-2.3c0.5,0.1,0.9,0.2,1.2,0.2
	c0.7,0,1.4-0.2,2-0.5c-0.2,0.4-0.2,0.9,0,1.4c0.3,0.6,1,1,1.9,1c1.9,0,2,0.4,2,0.7c0.1,0.4,0.2,0.7,0.4,1c0,0.2,0.1,0.4,0.1,0.6
	c0.3,0.9,0.5,3.9,0,4.7c-0.4,0.7-0.9,1.6-0.6,2.5c0.2,1,1.1,1.4,1.5,1.7c0.3,0.2,0.6,0.9,0.6,1.6c0,0.7,0.2,1.2,0.4,1.5
	c0.2,0.3,0.3,0.6,0.4,1.6c0.1,2.4,0.7,4.2,1.7,5.3c0.1,0.2,0.1,0.6,0,1.1c0,0-0.1,0-0.1,0c-0.4-0.1-0.9-0.2-1.3-0.2
	c-0.8,0-1.3,0.3-1.6,0.6c-0.1,0.1-0.8,0.3-1.2,0.5c-1.1,0.3-2.4,0.7-3.4,1.7c-1.1,1-3.7,1.6-5.1,1.9c-1.3,0.3-1.7,0.9-1.9,1.3
	c-0.5,1.1,0.2,2.2,0.8,3.1c0.1,0.2,0.3,0.4,0.4,0.6c0.1,0.3,0.3,0.9,0.4,1.4c0.3,1.4,0.7,3,1.9,3.8l1.1,0.7c0.8,0.5,2.6,1.7,3.7,2.6
	c-0.9,0.4-2,0.9-2.4,1.9c-0.1,0-0.2,0.1-0.3,0.2c-0.9,0.4-2.9,1.3-2,4.4c0,0.1,0,0.2,0.1,0.2c-0.2-0.1-0.4-0.1-0.5-0.2
	c-0.4-0.2-0.9-0.2-1.6-0.2c-1.3,0-4.5,0.4-5.8,1.7c-0.2,0.2-0.4,0.3-0.7,0.3c-0.3,0-0.6-0.1-0.9-0.3c-0.7-0.4-1.5-0.6-2.3-0.6
	c-1.1,0-2,0.4-2.6,1.1C474.4,355.5,474.4,355.4,474.3,355.4z"/>
<path class="st1" d="M550,255.7c-2,0-2.8-0.5-3.4-0.8c-0.5-0.3-1-0.6-1.8-0.6c-0.3,0-0.6,0-0.9,0.1c0.1,0-0.1-0.3-0.3-0.4
	c-0.5-0.6-1.2-1.5-2.6-1.5l-0.3,0c-0.5,0-1.5-0.6-2.2-1c-0.7-0.4-1.3-0.8-1.9-1c0.2-0.7,0.6-2,1.6-4.1c1.3-2.9,0-5.5-0.7-6.8
	c-0.1-0.2-0.2-0.4-0.3-0.6c0-0.1,0-0.5,0-0.7c0.1-0.9,0.2-2.2-0.8-3.6c-0.7-0.9-0.7-1.2-0.7-1.2c1.2-0.7,1.5-1.7,1.8-2.6
	c0.1-0.3,0.3-0.8,0.4-1c0.2,0,0.4,0,0.6,0c1.3,0,2.8-0.2,3.7-1.2c0.5-0.6,0.8-1.3,0.7-2.1c0-0.8,0.6-1.4,2-1.7
	c1.2-0.3,1.8-1.2,2.2-1.8c0.4-0.6,0.5-0.7,0.9-0.8c2.6-0.2,6.2-3.7,7-6.7c0.4-1.4,0.8-1.8,0.9-1.8c0.6,0.4,1.1,0.5,1.5,0.5h0.6
	l0.6-0.5c0.6-0.7,0.6-1.6,0.5-3l0-0.8c0-1.5-0.1-3.6-2.8-4.9c-0.4-0.2-0.7-0.3-1.1-0.5c-0.9-0.4-1.8-0.9-2.8-1.2
	c-0.2-1.3-0.6-2.2-1.1-2.7c-0.3-0.3-0.6-0.7-0.9-1c0.6-0.4,1-1.1,1.3-2.1c0.4-1.8,0-4.1-1.6-4.9c-0.1-0.2,0-1,0-1.5
	c0-1.2,0.1-2.8-1.2-3.6c-0.3-0.3,0.1-2.2,0.2-2.9c0.1-0.4,0.1-0.8,0.2-1.1c0.4-2.5-3.1-3.9-6.7-5.4c-0.8-0.3-1.5-0.6-2.2-0.9
	c-1.5-0.7-2.5-1.6-3.6-2.5c-0.4-0.4-0.9-0.8-1.4-1.1c0.5-0.7,1.1-1.1,1.7-1.1c0.7,0.1,1.4,0.9,2.1,1.7c1.1,1.2,2.3,2.6,4.2,2.9
	c0.6,0.1,1.1,0.3,1.7,0.4c1.2,0.3,2.3,0.6,3.3,0.6c1.3,0,2.1-0.5,2.5-1.1c0.2,0.1,0.4,0.1,0.6,0.2c0.6,0.2,1.4,0.5,2.2,0.5
	c0.3,0,0.5,0,0.8-0.1c0.1,0.1,0.1,0.2,0.2,0.3c0.3,0.5,0.9,1.3,1.9,1.3c1,0,1.6-0.7,2-1.3c0.8-1.1,1-2.1,1-2.7c0.1,0,0.5,0,0.6,0
	c1.1,0,1.7-0.5,2-0.9c0.9-1.1,0.6-2.6,0.3-3.9c-0.1-0.5-0.2-1-0.2-1.5c0-0.2,0.8-0.7,1.2-0.9c0.9-0.5,2-1.2,2.3-2.4
	c0.3,0,0.7-0.1,1.3-0.1l0.8,0c1.5,0,2.7-0.1,3.4-1c0.2-0.2,0.8-0.6,1.5-0.6c0.5,0,0.8,0.2,0.9,0.5c0.8,1.3,2.4,2,3.8,2.7
	c0.7,0.3,1.8,0.8,2,1.1c0,0.3,0,1,0,1.6c0,0.2,0,0.4,0,0.7c-0.6,0.7-1.1,1.5-1.2,2.3c0,0,0,0,0,0c-0.1,0-0.2,0-0.3,0
	c-1.3,0.3-1.9,0.9-1.9,1.9c0,1,0,1.6-0.5,2.2c-1.2,1.5-0.5,2.7,0.1,3.7c0.2,0.3,0.4,0.6,0.6,1c0.9,1.7,2.4,2.1,3.4,2.4
	c0.2,0.1,0.6,0.1,0.6,0.2c0.8,0.5,2.8,2.3,3.3,3.1c-0.4,0.7-2,2.5-2.9,3c-1,0.6-2.1,1.9-2.4,3.3c-0.1,0.7,0,1.4,0.4,2l0.3,0.4
	c0.9,1.4,3.4,5.1,5,8.1c0.1,0.3,0.2,0.5,0.3,0.6c-0.6,0.2-1.4,0.4-2.1,1.2c-1.4,1.8-0.3,3.9,0.3,5c0,0,0,0.1,0.1,0.1
	c-1,0.6-1.3,1.2-1.1,2.1c0.2,1.2,1.4,1.6,2.4,2c0,0,0,0,0,0c-0.5,0.7-1,1.8-0.2,3.1c0.5,0.9,1.3,1.3,1.9,1.7
	c0.8,0.4,0.9,0.6,0.9,0.8c0,0,0,0,0,0c-0.2,0-0.7,0.3-1.1,0.4c-1,0.5-2.6,1.2-2.4,2.8c0.2,1.3,1.6,2.2,3.5,3.3
	c1.4,0.9,3.1,1.8,4,2.9c1.7,2,1.6,2.2,1.3,3.2c-0.4,1-2.1,2.2-3.6,3.3c-2,1.4-4,2.9-4.8,4.7c-0.6,1.5-2.7,2.7-4.6,3.9
	c-1.4,0.9-2.8,1.7-3.9,2.8c-0.8,0.8-1.7,1.9-2.6,3.2c-1.3,0.3-2.8,0.4-4.3,0.4c-2,0-5.2,0.9-8.6,1.9c-3.4,1-6.9,2-9.1,2.1L550,255.7
	z"/>
<path class="st1" d="M468.6,397.4c-0.4-0.2-1.3-1.4-1.6-3c-0.2-1.1-0.1-1.9,0.2-2.1c1-0.6,1.6-1.2,2.1-1.8
	C469.5,392.8,469.3,396.5,468.6,397.4z M431.4,391c-0.7,0-1.6,0-2.2-0.2c-0.6-0.1-1.3-0.2-2.1-0.3c-1.2-0.2-3.6-0.5-4-0.9
	c-0.3-0.3-1.7-1.6-3.1-1.6c-1,0-1.7,0.6-1.8,1.6c-0.1,0-0.4,0.1-0.7,0.1c-0.6,0-1.3-0.2-1.8-0.5c-0.9-0.6-2.1-1.1-3.2-1.5
	c-0.9-0.4-1.8-0.8-2.3-1.1c-0.4-0.3-1-0.6-1.7-0.9c1.5-2.8,2.4-8.2,2.1-10.2c-0.1-0.7,0.2-1.7,0.5-2.7c0.4-1.4,0.9-3,0.3-4.4
	c-0.1-0.3-0.1-0.7,0-1.3c0.2-1,0.5-3.1-2.4-3.9c-2-0.6-3.4-2-3.5-3.6c-0.1-1.8-0.4-2.4-1.6-3c-0.2-0.1-0.5-0.2-0.8-0.5
	c-1-0.8-1.9-0.8-2.6-0.8c-0.6,0-1.3,0-2.6-0.7c-1.6-0.9-3.5-1.2-4.9-1.5c-0.8-0.2-2-0.4-2.2-0.6c0,0,0-0.2,0.1-0.6
	c0.1-0.7,0.2-1.9-0.7-3c0.1,0,0.7-0.5,1.9-0.5c0.2,0,0.3,0,0.5,0c0.3,0,0.5,0,0.8,0c1.3,0,2.3-0.3,2.9-0.5c0.4-0.1,0.8-0.3,1-0.3
	c0.1,0,0.3,0,0.5,0.1c0.4,0.2,0.7,0.5,1.1,0.9c0.4,0.5,1.1,1.2,2.1,1.2c0.5,0,1-0.2,1.6-0.6c0.1,0,0.2,0,0.2,0
	c0.5,0,0.9,0.1,1.4,0.3c0.6,0.2,1.3,0.4,1.9,0.4c0.6,0,1.1-0.2,1.5-0.5c0.7-0.5,1.2-1.5,1.3-2.6c0.2-1.9-0.5-3.9-1.8-5.4
	c-0.1-0.3,0.5-0.7,1-0.7c0.8,2.1,4.7,3.5,7.1,3.5c0.9,0,1.7-0.2,2.2-0.6c0.9-0.7,1.1-1.6,1.4-2.3c0.3-1,0.4-1.3,1.6-1.4
	c2.8-0.2,5-0.5,6.2-2c0.7-0.9,1-2,0.9-3.4c-0.1-1.3,0.1-2.3,0.6-2.8c0.4-0.5,1-0.6,1.3-0.6l0.3,0c0.2,0,0.4,0,0.6,0
	c0.4,1.2,1.5,3,2.9,3c0.2,0,0.5-0.1,0.7-0.2c0.1,0.1,0.2,0.2,0.3,0.3c0.5,0.4,1,0.9,1.5,1.3c0.4,0.2,0.8,0.4,1.3,0.6
	c0.5,0.2,1.3,0.6,1.6,0.8c0.5,2.5,1.8,2.8,2.5,2.8c0.3,0,0.6-0.1,1-0.2c0.3-0.1,0.6-0.3,0.9-0.6c0,0.1,0.1,0.2,0.1,0.2
	c0.7,1.7,1.9,1.8,2.4,1.8h0.1l0.1,0c0.1,0.1,0.2,0.3,0.3,0.4c0.5,0.6,1.1,1.5,2.3,1.5h0.1l0.3,0c0.2,0,0.6-0.1,1-0.1
	c1.8,0,3.3,0.4,3.6,0.6c1.1,1.4,2.8,2.2,4.7,2.2c0.6,0,0.9,0.2,1.3,0.5c0.4,0.2,0.9,0.5,1.4,0.6c-1.4,1.5-1.8,3.1-2.1,4.5l-0.1,0.4
	c-0.1,0.6-0.2,1.2-0.3,1.9c0,0.4-0.1,1-0.2,1.4c-1.7,0.3-3.4,1.8-3.7,3.4c-0.1,0.2-0.6,0.6-0.9,0.9c-0.9,0.8-2.1,1.9-2.7,3.5
	c-0.8,2.3-0.4,3.2-0.1,3.6l0.4,0.6l0.9,0.1c0.9,0,1.5-0.6,1.9-1.1c0.1-0.1,0.1-0.1,0.2-0.2c0.1,0.8,0.6,1.3,0.9,1.6
	c0.1,0.1,0.2,0.2,0.2,0.3c-0.6,1.8-0.2,3.1,0.5,3.9c-0.1,0.2-0.3,0.4-0.4,0.4c0,0-0.2,0.1-0.3,0.1c-0.5,0.1-1.3,0.2-1.7,1.1
	c-0.4,0.9,0.2,1.8,0.4,2.1c0.4,0.7,1,1.1,1.4,1.5c0.1,0,0.1,0.1,0.2,0.1c-0.6,1-0.6,2.1-0.2,3c0.5,1,1.4,1.6,2.5,1.7
	c0.3,0,0.7,0,1,0.1c0,0,0.1,0,0.1,0c0,0.1-0.1,0.2-0.1,0.4c-0.9,0.4-2.1,1-3.4,2.4c-1.4,1.5-2.7,2.3-3.8,2.3c-0.4,0-0.7-0.1-1.1-0.3
	c-1.8-1.1-7-2.5-10.2-2.5c-0.4,0-0.8,0-1.2,0.1c-2.3,0.4-4.3,1.5-5.3,3.1c-0.7,1.2-0.9,2.6-0.6,4L431.4,391z"/>
<path class="st1" d="M165.8,257.1c-3.4-0.6-8.3-2.1-8.9-3c-0.9-2.4-4.8-3.8-7.2-3.8c-0.3,0-0.7,0-1,0.1c0,0,0,0-0.1,0
	c-0.5,0-0.7-0.2-1.2-0.6c-0.7-0.5-1.6-1.3-3-1.3c-0.4,0-0.9,0.1-1.4,0.2c-0.2,0.1-0.5,0.1-0.7,0.1c-1.9,0-3.5-2-4-3.5
	c-0.6-1.6-2.5-3.2-4.2-4.8c-1-0.8-1.9-1.7-2.3-2.2c-0.2-0.3-0.5-0.7-0.8-1c-1.4-1.7-2.3-3-1.7-4.7c1-2.9-1.6-4-2.9-4.6
	c-0.4-0.2-1.3-0.6-1.4-0.8c-0.1-1.4-1-2.3-1.7-2.8c-0.8-0.7-1.3-1.2-1.2-2.6c0.1-0.8,0.1-1.9-0.6-2.6c-0.4-0.4-1-0.7-1.7-0.7
	c-0.2,0-0.4,0-0.6,0c-0.1,0-0.4,0-0.4,0c-0.1,0-0.1-0.1-0.2-0.3c-0.3-0.9-0.1-2.4,0-3.9c0.2-2.7,0.4-5.5-1.6-6.7
	c-2.9-1.6-7.4-5.6-7.2-6.9c0.1-0.5,1.5-1.4,2.3-1.8c1.3-0.7,2.5-1.4,2.6-2.7c0-0.5-0.1-1.2-1-1.8c-0.8-0.6-1.7-0.9-2.6-1.2
	c-2.1-0.8-2.6-1.1-2.4-2.4c0.2-1.4,1.2-2.6,2.3-3.8c1.2-1.4,2.5-2.9,2.5-4.8c0-1.5,0.5-2.3,3.4-2.7c0.2,0,0.3,0,0.5,0
	c0.8,0,1.7,0.2,2.6,0.3c0.9,0.2,1.7,0.3,2.5,0.3c2.2,0,2.7-1.4,2.8-2c0.1-0.8,0.1-1.7,0.1-2.7c0-1.6,0-3.8,0.7-4.5
	c0.9-0.9,1.1-2.3,0.4-3.9c-0.9-2.2-3.3-4.4-5.6-4.4c-0.4,0-0.8,0.1-1.2,0.2c0,0,0,0,0,0c-2.6,0-9-3.2-12-5.2
	c0.7-0.1,1.6-0.1,2.7-0.1c4,0,7.4,0.7,8.9,1.8c1.5,1.1,3,1.7,4.2,1.7c1.1,0,2-0.5,2.3-1.4c0.3-0.9,0.2-2.5-2.5-4.8
	c-2.5-2.1-5.2-2.9-7.3-3.5c-1.5-0.5-2.8-0.8-3.6-1.6c-0.4-0.4-0.3-1,0-2.1c0.2-0.9,0.5-2.1-0.2-3.1c-0.7-0.9-1.9-1-2.7-1
	c-2.4,0-3.6,1.3-4.5,2.3c-0.8,0.9-1.4,1.5-2.9,1.5c-0.3,0-0.7,0-1-0.1c-0.8-0.1-1.3-0.3-1.5-0.6c-0.2-0.4-0.1-1.3,0.1-2.1
	c0.3-1.4,0.6-3.1-0.5-4.5c0.1-0.2,0.9-0.9,1.4-1.3c1.1-1,2.5-2.1,2.5-3.6c0-0.9-0.4-1.6-1.2-2.3c-2.1-1.9-3.1-3.4-2.6-4.2
	c1-1.6-0.5-2.9-1.7-4c-1-0.9-2.2-2-2.1-2.9c0.1-1.8,0-7.9-6-10.6c-5.2-2.3-7.4-4.2-7.1-6.1c0.5-3.3-2.9-4.6-6-5.7
	c-1.3-0.5-2.6-1-3.8-1.6c-2.3-1.2-6.5-2.1-10.6-2.9c-3.1-0.6-6.7-1.3-7.7-2c-0.7-0.4-1.3-0.7-2-0.7c-1.1,0-2,0.6-2.8,1.1
	c-0.7,0.4-1.3,0.8-2,0.8c-0.2,0-0.4,0-0.6-0.1c-0.4-0.1-0.9-0.2-1.3-0.2c-1.6,0-3.1,0.7-4.2,1.2c-0.5,0.2-1.1,0.5-1.4,0.6
	c-1.1-1.2-3.6-1.5-4.9-1.5c-2.3,0-3.1,0.8-3.4,1.5c-0.1,0.3-0.3,0.9,0,1.6c-1.8-0.2-4.7-1-7-2.2c-1.8-0.9-3.2-1.4-4.3-1.7
	c-0.7-0.2-1.5-0.5-1.7-0.7c0.1-0.2,0.5-0.7,0.8-1.1c0.6-0.8,1.5-1.8,1-3c-0.4-1.2-1.8-1.6-3-1.8c-1.4-0.3-2.8-0.4-4.2-0.5
	c-1.2-0.1-3.3-0.3-4.3-0.7c1-0.1,2.7-0.2,3.9-0.2c3.4-0.1,6.8-0.2,8.8-1.5c0.3-0.2,1.1-0.5,2.7-0.5c1.5,0,3.3,0.2,5,0.4
	c1.6,0.2,3.2,0.4,4.4,0.4c3.1,0,3.8-1.3,3.9-2.4c0.1-1.3-0.4-2.6-1.3-3.6c-1.2-1.3-3.1-2-5.2-2c-1.4,0-2.8,0.3-4.2,0.8
	c-2.1,0.8-4.6,1.2-7,1.2c-3.2,0-5.8-0.8-7-2.1c-2.3-2.6-5.2-2.7-7.6-2.9c-0.9,0-1.8-0.1-2.6-0.3C0.2,72.7,0,71,0,70.3
	c0-1.6,8.2-3.3,11.6-4c6.6-1.3,9.8-2.1,10.1-4.3c0.6-0.4,4.6-0.5,7-0.6c4.2-0.1,8.2-0.2,10.3-1.6c3.1-2.1,6.5-6.7,6.4-9.8
	c-0.1-1.3-0.7-2.3-1.8-2.9c-1.3-0.7-3.1-0.8-5.5-0.8l-3.3,0c-3,0-4-0.3-4.4-0.6c1.9-2.8,20-11.9,24.4-12.2c0.1,0,0.3,0,0.5,0
	c1.7,0,3.6,0.7,5.2,1.3c1.5,0.5,2.7,1,3.9,1c1.3,0,2-0.6,2.4-1.1c0.9-1.2,1.2-3.1,0.9-5.1c-0.3-1.8-1-3.5-2.1-4.6
	c1.2-0.5,3.7-1,6.3-1c1.9,0,3.3,0.3,4.1,0.8c1.4,1,3.1,1.6,4.6,1.6c1.5,0,2.5-0.6,2.8-1.7c0.3-1.2-0.4-2.3-2.3-3.4
	C81,21.1,80.8,21,80.8,21c0.9-0.4,3-1,5.9-1l1,0c2.2,0,5.2-0.8,8-1.5c2.7-0.7,5.4-1.4,7.3-1.4c0.5,0,1,0.1,1.3,0.2
	c1,0.4,1.9,1.6,2.4,3.3c0.8,2.3,0.7,5.1-0.1,6.3c-0.6,0.9-0.7,1.7-0.3,2.4c0.3,0.6,0.9,0.9,1.6,0.9c2,0,5.9-2.7,5.9-6.4
	c0-1.8-0.4-3.3-0.8-4.5c-0.1-0.5-0.3-1-0.3-1.4c0.1,0,0.2,0,0.3,0c1.4,0,3.9,1.9,5.8,3.3c2.1,1.6,3.3,2.5,4.4,2.5h0
	c0.4,0,0.7-0.1,1-0.3c0.6,0.1,1.5,0.2,2.4,0.4c1.1,0.2,2.3,0.4,3.2,0.4c2.7,0,2.9-1.7,2.9-2.2c0-1.6-1.9-2.9-4.2-4.5
	c-1-0.7-2.6-1.7-3.1-2.4c0.3-0.1,0.9-0.3,2-0.3c4,0,9.7,1.8,11.4,3.5c1.7,1.8,4.1,2.3,6.7,2.8c2.1,0.4,4.3,0.9,6.2,2.1
	c2.6,1.7,6.7,3.6,8.7,3.6c1.3,0,1.7-0.8,1.9-1.1c0.5-1.2-0.4-2.3-1.4-3.3c-2.1-2.1-5.3-3.7-8.3-5.2c-2.3-1.1-4.4-2.2-5.7-3.3
	c1-0.2,2.7-0.3,3.9-0.3c3.4-0.2,5.7-0.3,6-2c0.4-1.8-1.7-2.8-4.4-4.2c-0.1-0.1-0.2-0.1-0.3-0.2c1.2-0.1,2.6-0.1,4-0.2
	c7.5-0.2,12.1-0.5,13.5-2.3c0,0,0,0,0,0c0,0,0.3-0.1,1.2-0.1c1.3,0,3.1,0.3,4.9,0.6c2,0.3,4.1,0.7,5.8,0.7c1.6,0,2.7-0.3,3.4-0.9
	c0.3-0.3,1.2-0.6,2.5-0.6c2.2,0,3.9,0.8,4,1.2c-0.1,0.7,0,1.3,0.4,1.9c0.5,0.7,1.4,1,2.6,1c1.5,0,3.5-0.7,4.2-2.2
	c0.3-0.6,0.5-1.8-0.7-3.3c0.6-0.3,2-0.7,3.7-0.7c0.2,0,1,0,1.2,0c1.6,0,3-0.4,4.3-0.7c1-0.3,2.1-0.5,3.4-0.7
	c1.4-0.1,5.2-0.2,9.2-0.2c5.1-0.1,10.8-0.1,14.5-0.4c1.3-0.1,2.6-0.1,3.9-0.1c5.5,0,10.8,0.8,12.6,2c1.6,1,4.8,1.1,9.6,1.3
	c2.2,0.1,5.2,0.2,6,0.5c0.7,1,2.1,1.5,3.8,2c0.8,0.3,2.3,0.8,2.8,1.1c-0.1,0.7,0.2,1.4,0.6,1.9c0.4,0.5,1.6,1.8,7.1,1.8
	c0.5,0,1,0,1.5,0l0.3,0c3.1,0,7.4,1.3,8.7,2.3c-1.1,0.5-3.6,1-5.5,1.3c-3,0.6-6.5,1.2-9.3,2.4c-3.3,1.4-10,1.4-16,1.4
	c-3.9,0-7.5,0-10.4,0.4c-1,0.1-23.4,2.7-23.1,7.2c0.1,0.7,0.5,1.8,2.7,1.8c2.1,0,5.8-0.9,9.8-1.8c3.1-0.7,6.2-1.5,8.7-1.8
	c2.7-0.4,7-0.6,11.4-0.6c4.1,0,6.9,0.2,8.6,0.4c-0.9,0.4-1.9,0.9-2.8,1.3c-4.8,2.1-8.2,3.7-7.5,6c0.1,0.4,0.6,1.4,2.2,1.4
	c2.2,0,6.5-1.7,12-4c2.4-1,4.7-1.9,5.6-2.1c1.8-0.4,2.5-1.5,3.2-2.4c0.7-1,1.4-1.9,3.9-2.1c0.2,0,0.4,0,0.7,0c1.6,0,2.9,0.6,3.3,1.7
	c0.5,1.2-0.1,2.8-1.5,4.3c-11,11-10.6,12-10.2,13.1c0.3,0.6,0.9,1,1.6,1l0.3,0c1.7-0.2,3.2-1.5,5-3c1.5-1.2,3.2-2.6,5-3.4
	c2.4-1,4.6-2.7,6.7-4.4c1.6-1.2,3.1-2.4,4.5-3.1c0.4-0.2,0.6-0.2,0.6-0.2c-0.1,0,0,0.3,0.1,0.5c0.3,0.7,1,2,2.6,2
	c0.5,0,1-0.1,1.7-0.4c0.2-0.1,0.6-0.2,1-0.2c1.1,0,2.5,0.4,3.9,0.7c1.5,0.4,2.8,0.7,4,0.7c2.1,0,3.3-1.1,3.5-3
	c0.1-1.9,1.4-4.1,10.3-4.1c5.5,0,15.8,2.9,18,4.4c-1.3,1.2-8.3,4.2-11.3,4.3c-2.1,0.1-2.9,0.9-3.6,1.6c-0.6,0.6-1.2,1.3-3.9,1.6
	c-2.6,0.3-3.9,0.8-5,1.3c-1.5,0.6-2.8,1.1-7.3,1.2c-7.8,0.2-7.8,2.1-7.8,2.8c0,0.9,0.6,1.9,3.3,1.9c0.5,0,1.2,0,1.9-0.1
	c0.8-0.1,1.8-0.2,2.7-0.2c2.4,0,4.5,0.3,5.7,0.6c-3.1,1-8.8,1.4-12.4,1.4c-2.9,0-8.3,2.1-9.3,4.5c-0.4,0.9-0.1,1.9,0.6,2.5
	c0.5,0.5,1.2,0.7,2,0.7c1.3,0,2.8-0.8,4.3-1.6c1.4-0.8,2.9-1.6,4.2-1.8c0.1,0,0.2,0,0.3,0c1.5,0,2.9,1.2,3.4,1.9c0,0,0,0,0,0
	c-2.3,0-7.8,0.3-10.1,3.3c-0.9,1.2-1.1,2.6-0.7,4.2c0.4,1.3-1.9,2.3-4.9,3.3c-2.8,1-5.5,1.9-5.2,4.2c0.3,2.9-0.5,7.8-2.9,9.3
	c-1.7,1.1-1.6,2.2-1.5,2.8c0.3,1,1.4,1.7,2.9,1.7c1.6,0,4-0.8,5-3c0.2-0.4,0.8-0.6,1.8-0.6c2,0,4.3,0.8,5.8,1.6
	c-0.3,0-0.5-0.1-0.8-0.1c-0.9-0.1-1.7-0.2-2.5-0.2c-0.4,0-1.8,0-2.6,1c-0.3,0.4-0.7,1.1-0.6,2.2c0.4,2.5,2.8,4,6.7,4
	c1.9,0,3.7-0.4,4.8-1c0.1,0,1,0.6,1.9,1.7c0.8,1,0.9,1.8,0.9,1.9c-0.4,0-0.6,0-0.9,0c-1.1,0-2.6-0.3-4.2-0.5c-1.9-0.3-4-0.7-5.9-0.7
	c-2.2,0-3.9,0.5-5.1,1.4c-1.1,0.8-1.9,0.9-2.5,0.9c-0.6,0-1.1-0.2-1.7-0.3c-0.5-0.1-1.1-0.3-1.7-0.3c-0.8,0-1.4,0.3-2,0.8
	c-0.7,0.7-0.8,1.4-0.7,1.8c0.1,1.3,1.5,2.1,2.9,2.9c0.5,0.3,1.3,0.7,1.6,1c0.5,3.4,11.3,3.6,11.4,3.6c0.8,0,2.4,1.8,3,4.2
	c0.3,1,0.5,2.9-0.9,3.6c-0.8,0.4-1.6,0.6-2.6,0.6c-0.7,0-1.4-0.1-2.1-0.2c-0.7-0.1-1.4-0.2-2-0.2c-1.6,0-2.8,0.6-3.7,1.9
	c-0.6,1-0.7,2.1-0.1,3.2c1.6,3,7.5,5.4,10.5,5.4c0.4,0,0.8,0,1.2-0.1c-0.1,0.2-0.1,0.4-0.3,0.5c-0.2,0.3-0.6,0.6-1.2,0.6l-1.3-0.1
	c-1.7-0.1-4.2-0.2-6.5-0.2c-4.2,0-5.9,0.4-6.4,1.6c-0.1,0.3-0.4,1.1,0.4,2.1c0.8,1,2.4,1.8,4.2,2.7c1.2,0.6,3.3,1.7,3.7,2.3
	c0,0-0.1,0.1-0.1,0.1c-1.6,1.3-3,1.4-4.9,1.5c-1.3,0.1-2.7,0.2-4.3,0.7c-0.2,0.1-0.4,0.1-0.6,0.1c-1.5,0-3.8-1.2-5.8-2.2
	c-2-1-3.7-1.9-5-1.9c-0.9,0-1.4,0.4-1.7,0.7c-1.4,1.4-0.5,3-0.1,3.8c0,0.1,0.1,0.2,0.2,0.3c-0.3,0.1-0.7,0.2-1.4,0.3
	c-3.1,0.4-4.1,2-4,3.4c0.1,2,2.1,3.5,4.5,3.5c1,0,1.9-0.3,2.8-0.8c1.6-0.9,4.6-1.5,7.4-1.5c2.5,0,3.8,0.4,4.2,0.7
	c0,1.7-0.6,4.7-2.4,4.7c-0.3,0-0.7-0.1-1.1-0.3c-3.5-1.5-6.2-2.5-7.9-2.5c-1.2,0-1.8,0.5-2.1,0.9c-0.3,0.4-0.6,1.1-0.2,2.2
	c0.5,1.5,3,3.3,7.3,6.2c2.6,1.8,6.9,4.7,7.6,6c-0.9,1.5-0.5,3.2-0.2,4.4c0.4,1.8,0.4,2-0.9,2.4c-0.9,0.3-1.8,0.4-2.8,0.4
	c-3.3,0-6.4-1.6-8.1-4.1c-1.9-2.7-5.5-4.9-8-4.9c-1.2,0-1.8,0.5-2.1,0.9c-0.3,0.4-0.7,1.2-0.4,2.4c0.2,0.7,0.4,1.4,0.6,1.9
	c0.2,0.6,0.4,1.3,0.4,1.6c0,0,0,0,0,0c-0.1,0-0.3,0.1-0.9,0.2c-2.6,0.4-5,3.3-4.8,5.2c0.1,1,0.9,1.7,1.9,1.7c0.6,0,1.3-0.2,2.1-0.7
	c0.8-0.4,1.6-0.6,2.7-0.6c2,0,4.3,0.8,6.3,1.4c1,0.3,1.9,0.6,2.7,0.8c1.5,0.4,3.2,0.6,4.9,0.6c0.4,0,0.9,0,1.5-0.1
	c-1.2,0.6-2.8,1.4-4.5,2.1c-3.8,1.7-8.1,3.6-10.7,5.8c-3.5,2.9-14.7,5.1-19.5,5.2c-2.5,0.1-3.6,0.6-4.6,1.1
	c-0.9,0.4-1.7,0.8-3.8,0.8c-2.5,0-3.5,0.9-4,1.9c-0.2-0.1-0.5-0.2-0.9-0.4c-1.6-0.8-2.9-1.1-4.1-1.1c-1.5,0-2.3,0.7-2.8,1.2
	c-0.5,0.6-0.9,1.8-0.4,3.7c0.1,0.3-0.2,0.5-1.8,1.3c-1.8,0.9-4.4,2.1-5.2,5c-1.2,4-6.3,8.4-11.7,10c-2.6,0.8-4.6,0.9-6.3,1
	c-1.7,0.1-3.1,0.2-4.3,1c0.1-0.3,0.2-0.6,0.4-1c0.6-1.2,0.3-2.1,0-2.5c-0.5-0.8-1.4-1.2-2.4-1.2c-1,0-1.9,0.4-2.5,1.1
	c-0.5,0.7-0.7,1.6-0.5,2.5c0.2,0.7,0.1,1.3-0.2,1.8c-0.5,0.7-1.7,1.2-3.3,1.4c-5.8,0.5-6.5,2.2-6.8,2.8c-0.2,0.5-0.5,1.5,0.4,2.7
	c0.1,0.1,0.1,0.1,0.1,0.2c-0.4,0-0.8-0.2-1.5-0.6c-0.8-0.5-1.6-0.8-2.3-0.8c-1.2,0-2.1,0.7-2.3,1.8c-0.2,1.2,0.5,2.8,2.5,3.5
	c1.3,0.5,1.6,1.4,1.5,1.6c-1.9,0.3-3.2,1.1-3.6,2.2c-0.2,0.5-0.4,1.5,0.5,2.6c0.5,0.7,0.6,1.7,0.5,2c-1.3,0.3-1.6,1.8-1.8,2.9
	c-0.1,0.4-0.2,1.3-0.4,1.4c-1.4,0.4-1.9,1.7-2.1,2.6c-0.4,1.1-0.5,1.3-1.2,1.3c-0.1,0-0.3,0-0.5,0c-0.4-0.1-0.8-0.1-1.1-0.1
	c-2.7,0-3.9,1.4-4.1,2.6c-0.2,1.2,0.4,2.4,1.7,2.9c0.6,0.7,1,5.3,0.4,6.4c-1.5,0.6-1.8,2.8-2.1,5.2c-0.2,1.2-0.5,3.4-0.9,3.8
	c-1.1,0.6-1.7,1.8-2.3,2.8C166.5,256.2,166.1,257,165.8,257.1L165.8,257.1z M111.1,171c-1.1,0-2-0.2-2.5-0.7
	c-1.4-1.3-2.7-1.8-3.7-2.1c-0.9-0.3-1.6-0.6-2.5-1.5c-0.7-0.8-0.6-1.1,0.3-2.2c0.3-0.4,0.7-0.8,0.8-1.3c0.1-0.1,0.6-0.4,2-0.4
	c2.8,0,6,1.2,6.7,2.6c1.1,2.1,2.7,2.6,3.7,2.9c0.2,0.1,0.6,0.2,0.7,0.3c0,0,0,0.1,0,0.3C116.6,169.5,114,171,111.1,171L111.1,171z"
	/>
<path class="st1" d="M383.8,433.4c-1,0-2-1.6-2.8-3c-0.9-1.5-1.8-2.9-3.2-3.5c-0.7-0.3-1.4-0.5-2.3-0.5c-0.2,0-0.4,0-0.6,0
	c-0.2-0.3-0.2-0.4-0.2-0.4c0-1.5,0.2-1.9,1.1-2.1c1.3-0.2,1.8-0.9,1.9-1.5c0.4-1.4-1-2.5-2-3.3c-0.1-0.1-0.2-0.1-0.2-0.2
	c0-0.3,0.3-0.9,0.5-1c0,0,0.1,0,0.1,0c1,0,1.4-0.7,1.5-1c0.5-1.2-0.3-2.3-2.3-4.3c0.1,0,0.3,0,0.4,0c0.8,0,1.2-0.3,1.5-0.6
	c0.6-0.7,0.5-1.5,0.4-2.2c-0.1-0.7-0.1-1.2,0.1-1.4c1.6-1.6,0.8-3.7,0.3-5.2c-0.1-0.4-0.3-0.9-0.3-1.1c0.1,0,0.6-0.3,1-0.6
	c0.7-0.4,1.5-1,2.3-1.7c0.3-0.3,1.1-1.1,0.8-2.1c-0.2-1-1.2-1.3-1.7-1.5c-0.1,0-0.1,0-0.2-0.1c-0.2-1.2-1.4-2.1-3-2.1
	c-0.9,0-1.8,0.3-2.6,0.8c0,0-0.1,0.1-0.1,0.1c-0.3-0.2-0.7-0.3-1.4-0.3c-0.3,0-0.5,0-0.9,0c-0.3,0-0.6,0-0.9,0c-0.2,0-0.3,0-0.4,0
	c-0.2-1.3-1.2-1.9-2.1-1.9c-0.4,0-0.8,0.1-1.3,0.4c0-1.6-0.4-3.2-1.7-4.2c-0.9-0.7-1.1-1.3-1.1-1.4c0,0,0.4-0.3,1.5-0.3
	c2.6-0.1,3.4-1.5,4-2.3c0.4-0.6,0.4-0.6,0.7-0.6c0.6,0,0.9,0.2,1.6,0.6c0.9,0.5,2.1,1.2,4.4,1.2c0.3,0,0.6,0,1,0
	c0.7-0.1,1.5-0.1,2.4-0.1c2,0,4.4,0.1,6.8,0.2c2.4,0.1,4.8,0.2,6.7,0.2c1.2,0,2.2,0,2.9-0.1c0.3,0,0.6,0,0.9,0
	c1.5,0,3.2,0.4,4.8,0.7c1.4,0.3,2.6,0.5,3.5,0.5c0.1,0,0.2,0,0.3,0c0.3,0.2,0.7,0.3,1,0.5c0.7,0.3,1.3,0.6,1.7,0.9
	c0.7,0.5,1.7,0.9,2.8,1.3c1,0.4,2,0.9,2.8,1.3c0.9,0.5,2,0.9,3.2,0.9c1.6,0,2.6-0.6,3.1-1.4c0.2,0.1,0.4,0.3,0.6,0.5
	c1,1,2.9,1.3,5.5,1.7c0.7,0.1,1.4,0.2,1.9,0.3c0.9,0.2,2,0.2,2.8,0.2l2.1,0c0,1.2-0.7,1.8-1.6,2.2c-1.1,0.5-2,1.1-2.7,1.7
	c-1,0.8-1.8,1.4-3.1,1.5c-1.9,0.2-6.4,0.8-6.4,4.1c0,0.3-0.2,0.5-1.1,1.2c-0.9,0.7-2.2,1.7-3.4,3.6c-2,3-1.1,6.1-0.5,7.9
	c0.1,0.3,0.2,0.6,0.2,0.8c-0.3,0.3-0.9,0.8-1.3,1.1c-1.4,1.1-2.7,2.2-2.9,3.4c0,0.3,0,0.6-0.1,0.9c-0.1,1.7-0.3,1.9-0.9,2
	c-2.7,0.4-4.8,1.9-5.5,3.9c-0.4,1-1.9,1.1-2.5,1.1c-0.6,0-0.9,0-1.2,0c-0.9,0-1.9,0.1-3,0.1c-1,0.1-2.1,0.1-3.4,0.2
	c-2.3,0.1-3.6,1-4.5,1.6c-0.2,0.2-0.6,0.4-0.7,0.4c-0.4,0-0.7,0-1.1-0.1c-0.4-0.1-0.8-0.1-1.1-0.1c-0.8,0-1.5,0.2-2,0.7
	C384,432.5,383.9,433.1,383.8,433.4z M433.1,412c-0.3,0-0.7-0.1-1-0.2c0.6-0.4,1.4-0.8,1.9-0.8c0,0.3-0.1,0.6-0.2,0.8
	C433.7,411.9,433.4,412,433.1,412L433.1,412z"/>
<path class="st1" d="M495.2,369.6c-0.3-0.6-0.7-1.1-1.5-1.4c-0.4-0.2-0.9-0.2-1.4-0.2c-0.4,0-0.9,0.1-1.4,0.2c0-1.6,0.1-3.1,0.2-4.3
	c0.3,0,0.7,0,1,0.1c1.1,0.1,2.6,0.4,3.7,0.7c1.3,0.3,2.1,0.5,2.6,0.5c0.8,0,1.4-0.4,2.2-0.8c0.8-0.5,1.7-1,2.7-1
	c1.6,0,2.7-0.5,3.5-0.9c0,0.1,0.1,0.1,0.1,0.2c-0.9,0.7-1.7,1.3-2,1.4c-1.5,0.2-1.7,1.8-1.8,2.6c0,0.1,0,0.2,0,0.3
	c-1.2,0.4-1.9,1.6-2.3,2.6c-0.1,0-0.2-0.1-0.3-0.1c-0.5-0.1-1.2-0.3-1.7-0.3c-0.4,0-0.7,0.1-0.9,0.2
	C497.7,369.1,497.1,369.3,495.2,369.6z"/>
<path class="st1" d="M555.7,440.3c-0.4,0-0.8-0.1-1.2-0.1c0.1,0,0.2,0,0.2,0c0.5,0,1.1,0,1.7,0c0.5,0,1.5,0,1.5,0
	c-0.6,0.1-1.3,0.2-2,0.2L555.7,440.3z M543.2,429.4c-1.1-0.8-2.3-1.8-3.7-1.8c0,0,0,0,0,0c-0.6,0-1-0.3-1.3-0.7
	c-0.4-0.5-0.5-1.1-0.4-1.5c0.4-1.4-0.5-2.5-1.2-3.3c-0.2-0.3-0.6-0.7-0.6-0.9c0.5-0.2,0.9-0.3,1.6-0.3c0.7,0,1.3,0.1,2,0.2
	c0.6,0.1,1,0.2,1.4,0.2c1.2,0,1.8-0.9,1.8-1.6c0-1.9-3.3-3.7-5.2-3.7c-1.2,0-1.9,0.5-2.3,0.9c-0.3,0.3-0.7,0.3-0.8,0.3
	c-0.3,0-0.6-0.1-0.8-0.3c-0.1-0.1-0.1-0.2-0.1-0.4c0.3-2.3-1-4.7-3-5.9c0.1-0.4,0.3-0.9,0.4-1.1c1.4-0.4,1.6-1.5,1.7-2
	c0.1-0.3,0.1-0.4,0.1-0.4c0.8-0.8,1.7-2.2,2.1-3.2c0.1,0,1,0,1,0c0.7,0,1.5,0,2.2-0.2c1.2-0.3,1.8-1,2.3-1.5c0,0,0,0,0-0.1
	c0.1,0,0.2,0,0.2,0c1.4,0,4.8-1.7,5.9-2.8c1.1-0.1,2.7-0.2,4-0.2c1.8,0,2.3,0.2,2.3,0.2c0.9,0.4,2.6,0.7,4.1,0.9
	c-1.4,0.3-2.3,1.1-2.9,1.7c-0.4-0.5-1.1-1.1-2.3-1.1c-0.6,0-1.2,0.1-1.9,0.4c-2.7,1-2,3.4-1.7,4.3c0,0,0,0.1,0,0.2
	c-0.4,0.1-0.8,0.2-1.2,0.2c-0.6,0-1-0.1-1.1-0.4c-0.5-0.9-1.5-1.4-2.6-1.4c-1.3,0-2.4,0.6-2.9,1.6c-0.4,0.9-0.3,1.9,0.4,2.9
	c0.5,0.7,1.3,1.5,2,2.3c0.8,0.9,2.2,2.4,2.4,3.1c-0.1,0.1-0.4,0.1-0.5,0.2c-0.6,0.2-1.6,0.6-1.9,1.6c-0.3,1.1,0.6,2,0.9,2.3
	c0.5,0.5,1.2,1.2,2.2,1.2c0.7,0,1.3-0.4,1.6-0.7c0.3-0.3,0.5-0.4,0.9-0.4c0.2,0,0.4,0,0.7,0.1c0.7,0.2,1.1,0.5,1.4,1.1
	c0.2,0.4,0.2,0.8,0.2,1c-0.3,0.1-0.6,0.3-0.9,0.4c-0.4,0.2-0.7,0.4-1,0.4c-0.2,0-0.5-0.1-0.8-0.3c-0.6-0.4-1.3-0.6-1.9-0.6
	c-1.1,0-2.1,0.5-2.6,1.4c-0.3,0.6-0.4,1.3,0,1.8c0.1,0.1,0.2,0.3,0.5,0.5c-0.5,0.1-0.9,0.4-1.1,0.7c-0.5,0.8-0.2,1.8,0.4,3.4
	c0.1,0.3,0.2,0.7,0.4,1C543.3,429.4,543.3,429.4,543.2,429.4z M561.9,401.7c-0.6-0.4-1.2-0.8-1.9-1.1c0.9,0,2.2-0.3,2.9-1.3
	c0.2-0.3,0.3-0.7,0.3-1.1c0.1,0,0.2-0.1,0.3-0.1c0.1,0.3,0.1,0.5,0.1,0.7c0,0.1-0.1,0.3-0.5,0.6c-0.4,0.4-1.1,1-1.1,2
	C562,401.5,562,401.6,561.9,401.7z"/>
<path class="st0" d="M600.7,442.4c-0.7,0-1.3-0.1-1.8-0.4c-0.4-0.3-0.6-0.5-0.5-0.6c0.1-0.2,0.8-0.9,2.5-1c1.4-0.1,2.7-0.3,4-0.6
	c-0.2,0.4-0.3,0.8-0.3,1.2C604.1,441.6,602.5,442.4,600.7,442.4L600.7,442.4z"/>
<path class="st1" d="M307.3,226.6c-0.9,0-1.6-0.1-2.2-0.4c-1-0.4-2.1-1-3.3-1.7c-2.3-1.3-4.6-2.6-6.7-2.6c-0.4,0-0.7,0-1.1,0.1
	c0,0-1.6,0.4-1.7,0.4c0.9-0.5,1.4-1.3,1.5-2c0.2-0.9-0.2-1.8-1-2.3c0,0,0-0.1,0-0.1c-0.1-2-1.2-2.3-1.9-2.3c-0.4,0-0.8,0.1-1.2,0.3
	c0,0-0.1,0-0.1,0c0-0.2,0-0.5-0.1-0.7l0-0.3c0-0.2-0.1-0.4-0.2-0.6c1-0.2,1.6-0.7,1.8-1.4c0.1-0.3,0.2-1-0.3-1.7
	c0.5-0.4,1.1-0.9,1.2-1.8c0-0.4-0.1-1.1-0.7-1.7c-0.9-0.8-2.2-1.3-3.8-1.3c-1.4,0-3.1,0.4-4.6,1c-0.5,0.2-1,0.3-1.6,0.3
	c-0.9,0-1.6-0.3-1.9-0.5c0.2-0.3,0.6-0.6,0.8-0.9c0.5-0.6,1.2-1.3,1.7-2.1c0.6-0.9,1.2-1.3,1.5-1.3c0.8,1,2.3,1.6,3.3,1.6
	c1.2,0,1.6-0.8,1.7-1.1c0.3-0.8-0.1-1.5-0.9-2.2c-0.3-0.2-0.5-0.4-0.7-0.6c2,0.6,5.3,2.5,6.4,3.6c-0.7,0.8-0.9,1.9-0.5,3.2
	c0.4,1.3,1.5,3.5,3.1,3.5c0.6,0,1.1-0.3,1.5-0.8c0.4-0.7,1.2-1.3,1.7-1.3c0.6,0.3,1,0.4,1.4,0.4c0.7,0,1.3-0.4,1.7-1
	c0.6-1,0.5-2.5-0.3-3.8c-0.1-0.2,0-0.5,0.1-0.7c0.1,0.1,0.1,0.2,0.2,0.3c1.1,1.9,2.1,2.8,3.1,2.8h0.6l0.6-0.6
	c0.3-0.3,0.6-0.9,0.4-1.9c0-0.3,0.7-1.4,1.4-1.4c0.1,0,0.2,0,0.3,0.1l0.7,0.5c1.2,0.8,1.9,1.2,2.6,1.2h0.6l0.6-0.5
	c0.3-0.3,0.4-0.6,0.4-1c0.1,0,0.3-0.1,0.4-0.1c0.1,0,0.3,0,0.4,0.2c0.7,0.9,1.6,1.4,2.5,1.4c0.9,0,1.6-0.5,1.9-1.2c0,0,0.1,0,0.1,0
	c0.5,0.1,1,0.3,1.6,0.3c0.9,0,1.6-0.5,1.8-1.2c0.2-0.6,0.1-1.3,0.1-1.9c0-0.2,0-0.4,0-0.6c0.4,0.2,1,0.7,1.4,1
	c1.1,0.8,2.2,1.6,3.2,1.6h0.2l0.3-0.1l0.4-0.1c0.5-0.1,1.4-0.4,2-0.5c0.1,0.3,0.3,0.6,0.4,0.9c0.2,0.3,0.5,0.9,0.5,1.2
	c-0.3,0.8-0.1,1.8,0.5,2.6c0.8,1.2,2.3,1.9,3.9,1.9c0.4,0,1,0.4,1.4,1.1c0.4,0.7,0.5,1.4,0.4,1.7c-0.8,1.6-2.5,3.4-3.1,3.5
	c0,0,0,0,0,0c-1.4,0-2,1.1-2.5,1.8c-0.6,1.1-1,1.7-2.2,1.8c-3.5,0.2-6.2,1.7-8.4,3.2c-0.5,0.4-1.8,0.5-2.8,0.7
	c-2,0.3-4.1,0.6-4.7,2.3C312.9,225.3,310.3,226.6,307.3,226.6C307.3,226.6,307.3,226.6,307.3,226.6z"/>
<path class="st1" d="M362.5,324.9c-2.1,0-4.3-2.1-4.4-2.8c0.1-0.1,0.7-0.4,1.1-0.6c1.1-0.6,2.8-1.4,2.8-3.6c0-0.3,0.4-0.7,0.9-1.2
	c0.7-0.6,1.5-1.3,1.4-2.5c0-1.2-1-2-1.3-2.2c-0.7-0.6-1.4-1-1.9-1.3c-0.2-0.2-0.5-0.3-0.7-0.5c0.1-0.1,0.1-0.2,0.3-0.4
	c1.2-1.7,0.3-3.2-0.4-4c0.4,0,0.8,0.1,1.2,0.3c0.6,0.2,1.3,0.4,2.1,0.4c0.8,0,1.6-0.2,2.2-0.7c0.7-0.5,1.5-0.7,2.3-0.9
	c0.2-0.1,0.4-0.1,0.7-0.2c0,0.1,0,0.2,0,0.3c0.2,0.7,0.7,1.3,1.5,1.4c0.2,0,0.7,0.3,1.1,0.5c0.7,0.4,1.4,0.8,2.2,0.8
	c1,0,1.7-0.7,1.9-1.7c0.1-0.5,0.2-0.8,0.3-1c0.1,0.1,0.4,0.3,0.6,0.6c0.4,0.5,0.9,1,1.5,1.5c0,0.3,0.1,0.6,0.3,0.8
	c1.2,2.5,1.9,10.8,0.6,11.4c-0.4,0.2-0.7,0.3-1.1,0.3l0,0c-0.4,0-0.7-0.1-1-0.1c-0.5-0.1-1-0.1-1.4-0.1c-1.4,0-2.5,0.5-3.7,1.7
	C368.8,323.7,364.3,324.9,362.5,324.9z M370.5,301.2c-0.5-0.6-1.2-0.9-1.7-1c-0.2-0.1-0.5-0.2-0.6-0.3c0-0.6,1.3-0.6,1.4-0.6
	c0.6,0,1.3,0.1,2,0.3c-0.3,0.7-0.5,1.1-0.6,1.2C370.9,300.9,370.7,301.1,370.5,301.2z"/>
<path class="st1" d="M393.4,334.5c-0.5-0.4-1.3-0.8-2.4-0.8c-0.6,0-1.2,0.1-1.9,0.4c-0.2,0.1-0.4,0.2-0.6,0.3
	c1.6-1.8,3.8-3.9,4.8-4.4c0.2-0.1,0.5-0.2,0.9-0.2c0.3,0,0.7,0,1.1,0.1c0.5,0,0.9,0.1,1.4,0.1c0.8,0,2-0.1,3.1-0.9
	c1.1-0.8,2.2-1.9,1.8-3.1c-0.2-0.5-0.7-1.1-1.7-1.1c-0.5,0-1.1,0.1-1.9,0.5c-0.3,0.1-0.6,0.2-0.9,0.2c-0.6,0-1.1-0.2-1.7-0.5
	c-0.8-0.3-1.7-0.7-2.8-0.7c-0.5,0-0.7-0.1-1-0.4c-0.3-0.3-0.8-0.7-1.6-0.7c-0.7,0-1.2,0.3-1.6,0.6c0,0,0,0,0,0c-0.2,0-0.4,0-0.6-0.1
	c3.1-1,6.2-2.8,6-5.1c-0.1-1.7-1.8-2.2-2.8-2.4c-0.1,0-0.2-0.1-0.3-0.1c0.1-0.1,0.2-0.2,0.2-0.3c0.5-0.5,1.2-1.3,1.2-2.3
	c0.7,0.4,1.7,0.5,3,0.5c1.7,0,3.9-0.3,4.4-1.8c0.3-0.8,0.2-1.7,0.2-2.6c0-0.8,0-1.9,0.2-2.3c0.3-0.6,0.7-1.4,0.4-2.3
	c-0.4-1-1.3-1.3-2.5-1.7c-0.6-0.2-0.8-0.4-0.9-0.6c0-0.1,0-0.4,0.4-0.8c0.9-1,1.2-2.5,0.8-3.5c-0.3-0.8-1.1-1.2-1.9-1.2
	c-0.8,0-1.6,0.4-2.4,1.2c-0.7,0.7-2.5,1.2-4.4,1.2c-0.5,0-0.9,0-1.2-0.1c0.2-0.2,0.3-0.6,0.5-0.8c0.9-1.4,2-3.2,1.1-5
	c-0.3-0.5-0.1-1.1,0-1.8c0.1-0.7,0.3-1.5-0.2-2.2c-0.3-0.4-0.7-0.7-1.2-0.7c0,0,0,0,0,0c-1.7,0-2,1.4-2.2,2.3
	c-0.3,1.4-0.6,2-1.5,2.2l-0.3,0c0-0.1,0-0.8,0-1.1c0-0.4,0-1.1-0.3-1.7c0.3-0.4,0.5-0.9,0.5-1.6c-0.2-1.6-1.6-2.1-2.4-2.3
	c-0.2-0.1-0.6-0.2-0.7-0.3c0.2-0.7,1-1.5,1.6-2.1c0.8-0.7,1.5-1.5,1.2-2.5c-0.1-0.3-0.3-0.6-0.6-0.8c0.2-0.1,0.3-0.3,0.5-0.5
	c0.5-0.7,0.6-1.6,0.3-2.5c0.2-0.2,0.5-0.4,0.7-0.6c0.8-0.7,1.9-1.6,1.9-3.1c0-0.8,0.3-2.3,1-3.1c0.3-0.3,0.5-0.3,0.7-0.3
	c1.9,0.4,3.2,0.5,4.3,0.5c1.1,0,1.9-0.2,2.6-0.5c-0.4,0.7-2.4,2.7-3.4,3.1c-1,0.4-1.5,1.4-1.3,2.4c0.3,1.3,1.6,2.3,3,2.3
	c0.5,0,1-0.1,1.4-0.3c0.4-0.2,2.2-0.5,4.6-0.5c1.9,0,3.2,0.2,3.9,0.3c-0.4,2-2.4,7.3-3.7,8.2c-1.5,1-3.5,3.3-3,5
	c0.2,0.7,0.9,1.2,1.7,1.2c0.4,0,0.8-0.1,1.2-0.1c0.4-0.1,1-0.2,1.5-0.2c0.7,0,1.2,0.2,1.5,0.6c0.9,1.2,2,1.5,2.7,1.7
	c0.7,0.2,0.7,0.2,0.8,0.6l0.2,0.9c0.5,2.5,1.3,6.2,4.6,7c1.8,0.4,3.3,4.5,3.3,5.4c-0.3,1,0.4,2.3,0.7,2.8c0.2,0.4,0.6,0.9,1.2,1.3
	c-0.2,0.7-0.5,1.8,0.2,3c0.8,1.2,1.7,1.9,2.8,1.9c0.9,0,1.7-0.5,2.2-1.4c1.1,0,2.6,0.6,3.3,1.4c0.1,0.1,0.3,0.4,0.3,0.6
	c-0.1,1.2-1.3,2.1-2.6,3.2c-0.6,0.5-1.2,0.9-1.7,1.4c-1.2,1.2-2.4,3-1.8,4.4c0.3,0.8,1,1.2,1.9,1.3c-1.7,0.9-4,1.7-4.9,1.7l-0.4,0
	c-1.8,0-5.1,0.5-6.5,1.2c-0.2-0.1-0.7-0.3-1-0.5c-0.8-0.4-1.7-0.9-2.6-0.9c-0.5,0-1,0.2-1.4,0.5c-0.8,0.7-1.7,1-2.6,1
	c-0.2,0-0.5,0-0.7-0.1c-0.3-0.1-0.6-0.1-0.9-0.1c-1,0-1.8,0.3-2.4,0.5c-0.3,0.1-0.6,0.2-0.7,0.2l-0.2,0l-0.3,0
	c-1.3,0-1.9,1.2-2.2,1.9c-0.1,0.1-0.2,0.4-0.3,0.5C393.7,334.7,393.5,334.6,393.4,334.5z M372.7,304.7c-0.3-0.2-0.7-0.4-1-0.6
	c0.3-0.4,0.7-1,1-1.2c0.9-0.7,1.5-2,1.8-3.1c0.8-0.2,1.5-0.5,2.2-0.9c0.8-0.4,1.6-0.8,2.2-0.8c0.2,0,0.4,0,0.7,0.3
	c1.3,1.3,3.3,3.2,3.3,4.2c0,0.1,0,0.1-0.2,0.3c-0.5,0.5-1.2,0.8-2,1.1c-0.5,0.2-1.1,0.4-1.5,0.7c-0.3-0.3-0.5-0.5-0.7-0.7
	c-1-1.1-1.9-1.7-2.8-1.7c-0.6,0-2,0.3-2.6,2.5C372.8,304.8,372.7,304.8,372.7,304.7z"/>
<path class="st1" d="M393.4,334.5c-0.5-0.4-1.3-0.8-2.4-0.8c-0.6,0-1.2,0.1-1.9,0.4c-0.2,0.1-0.4,0.2-0.6,0.3
	c1.6-1.8,3.8-3.9,4.8-4.4c0.2-0.1,0.5-0.2,0.9-0.2c0.3,0,0.7,0,1.1,0.1c0.5,0,0.9,0.1,1.4,0.1c0.8,0,2-0.1,3.1-0.9
	c1.1-0.8,2.2-1.9,1.8-3.1c-0.2-0.5-0.7-1.1-1.7-1.1c-0.5,0-1.1,0.1-1.9,0.5c-0.3,0.1-0.6,0.2-0.9,0.2c-0.6,0-1.1-0.2-1.7-0.5
	c-0.8-0.3-1.7-0.7-2.8-0.7c-0.5,0-0.7-0.1-1-0.4c-0.3-0.3-0.8-0.7-1.6-0.7c-0.7,0-1.2,0.3-1.6,0.6c0,0,0,0,0,0c-0.2,0-0.4,0-0.6-0.1
	c3.1-1,6.2-2.8,6-5.1c-0.1-1.7-1.8-2.2-2.8-2.4c-0.1,0-0.2-0.1-0.3-0.1c0.1-0.1,0.2-0.2,0.2-0.3c0.5-0.5,1.2-1.3,1.2-2.3
	c0.7,0.4,1.7,0.5,3,0.5c1.7,0,3.9-0.3,4.4-1.8c0.3-0.8,0.2-1.7,0.2-2.6c0-0.8,0-1.9,0.2-2.3c0.3-0.6,0.7-1.4,0.4-2.3
	c-0.4-1-1.3-1.3-2.5-1.7c-0.6-0.2-0.8-0.4-0.9-0.6c0-0.1,0-0.4,0.4-0.8c0.9-1,1.2-2.5,0.8-3.5c-0.3-0.8-1.1-1.2-1.9-1.2
	c-0.8,0-1.6,0.4-2.4,1.2c-0.7,0.7-2.5,1.2-4.4,1.2c-0.5,0-0.9,0-1.2-0.1c0.2-0.2,0.3-0.6,0.5-0.8c0.9-1.4,2-3.2,1.1-5
	c-0.3-0.5-0.1-1.1,0-1.8c0.1-0.7,0.3-1.5-0.2-2.2c-0.3-0.4-0.7-0.7-1.2-0.7c0,0,0,0,0,0c-1.7,0-2,1.4-2.2,2.3
	c-0.3,1.4-0.6,2-1.5,2.2l-0.3,0c0-0.1,0-0.8,0-1.1c0-0.4,0-1.1-0.3-1.7c0.3-0.4,0.5-0.9,0.5-1.6c-0.2-1.6-1.6-2.1-2.4-2.3
	c-0.2-0.1-0.6-0.2-0.7-0.3c0.2-0.7,1-1.5,1.6-2.1c0.8-0.7,1.5-1.5,1.2-2.5c-0.1-0.3-0.3-0.6-0.6-0.8c0.2-0.1,0.3-0.3,0.5-0.5
	c0.5-0.7,0.6-1.6,0.3-2.5c0.2-0.2,0.5-0.4,0.7-0.6c0.8-0.7,1.9-1.6,1.9-3.1c0-0.8,0.3-2.3,1-3.1c0.3-0.3,0.5-0.3,0.7-0.3
	c1.9,0.4,3.2,0.5,4.3,0.5c1.1,0,1.9-0.2,2.6-0.5c-0.4,0.7-2.4,2.7-3.4,3.1c-1,0.4-1.5,1.4-1.3,2.4c0.3,1.3,1.6,2.3,3,2.3
	c0.5,0,1-0.1,1.4-0.3c0.4-0.2,2.2-0.5,4.6-0.5c1.9,0,3.2,0.2,3.9,0.3c-0.4,2-2.4,7.3-3.7,8.2c-1.5,1-3.5,3.3-3,5
	c0.2,0.7,0.9,1.2,1.7,1.2c0.4,0,0.8-0.1,1.2-0.1c0.4-0.1,1-0.2,1.5-0.2c0.7,0,1.2,0.2,1.5,0.6c0.9,1.2,2,1.5,2.7,1.7
	c0.7,0.2,0.7,0.2,0.8,0.6l0.2,0.9c0.5,2.5,1.3,6.2,4.6,7c1.8,0.4,3.3,4.5,3.3,5.4c-0.3,1,0.4,2.3,0.7,2.8c0.2,0.4,0.6,0.9,1.2,1.3
	c-0.2,0.7-0.5,1.8,0.2,3c0.8,1.2,1.7,1.9,2.8,1.9c0.9,0,1.7-0.5,2.2-1.4c1.1,0,2.6,0.6,3.3,1.4c0.1,0.1,0.3,0.4,0.3,0.6
	c-0.1,1.2-1.3,2.1-2.6,3.2c-0.6,0.5-1.2,0.9-1.7,1.4c-1.2,1.2-2.4,3-1.8,4.4c0.3,0.8,1,1.2,1.9,1.3c-1.7,0.9-4,1.7-4.9,1.7l-0.4,0
	c-1.8,0-5.1,0.5-6.5,1.2c-0.2-0.1-0.7-0.3-1-0.5c-0.8-0.4-1.7-0.9-2.6-0.9c-0.5,0-1,0.2-1.4,0.5c-0.8,0.7-1.7,1-2.6,1
	c-0.2,0-0.5,0-0.7-0.1c-0.3-0.1-0.6-0.1-0.9-0.1c-1,0-1.8,0.3-2.4,0.5c-0.3,0.1-0.6,0.2-0.7,0.2l-0.2,0l-0.3,0
	c-1.3,0-1.9,1.2-2.2,1.9c-0.1,0.1-0.2,0.4-0.3,0.5C393.7,334.7,393.5,334.6,393.4,334.5z M372.7,304.7c-0.3-0.2-0.7-0.4-1-0.6
	c0.3-0.4,0.7-1,1-1.2c0.9-0.7,1.5-2,1.8-3.1c0.8-0.2,1.5-0.5,2.2-0.9c0.8-0.4,1.6-0.8,2.2-0.8c0.2,0,0.4,0,0.7,0.3
	c1.3,1.3,3.3,3.2,3.3,4.2c0,0.1,0,0.1-0.2,0.3c-0.5,0.5-1.2,0.8-2,1.1c-0.5,0.2-1.1,0.4-1.5,0.7c-0.3-0.3-0.5-0.5-0.7-0.7
	c-1-1.1-1.9-1.7-2.8-1.7c-0.6,0-2,0.3-2.6,2.5C372.8,304.8,372.7,304.8,372.7,304.7z"/>
<path class="st1" d="M484.4,299.9c0.2-0.2,0.3-0.4,0.4-0.7c0.2-0.7,0-1.7-1-2.3c-1.2-0.7-2-1.6-2.1-2.3c0-0.2-0.1-0.5,0.3-1
	c0.3-0.5,0.5-0.5,0.7-0.5c0.2,0,0.3,0,0.5,0.1c0.3,0.1,0.6,0.1,0.8,0.1c0.2,0,0.6,0,1-0.3c0.4,0.5,0.9,0.9,1.6,0.9l0.1,0
	c0,0.1,0,0.1-0.1,0.2c-0.6,1.8-1,2.8-0.7,3.6C485.7,298.1,485.1,299.1,484.4,299.9z M469.9,299.1c-1-0.1-2.3-0.2-3.4-0.3
	c-0.2-0.4-0.3-0.6-0.3-0.8c0.6-1.6-0.4-2.9-1.1-3.9c-0.5-0.6-0.9-1.2-1-1.7l-0.1-0.4c-0.3-1.5-0.7-4.3-0.1-5.2
	c0.4-0.6,0.6-1.3,0.9-1.9c0.2-0.5,0.5-1.4,0.7-1.6c0.3,0,0.5,0.3,0.9,0.8c0.4,0.5,1,1.2,2,1.2c0.4,0,0.9-0.1,1.4-0.6
	c0.7-0.7,0.9-1.5,0.6-2.4c1.1-0.1,2.7-0.6,2.9-2.8c0.1-0.9,1.2-1.4,1.8-1.4c0.3,0.4,0,2.4-0.5,2.8c-0.8,0.7-1.2,2-1.1,3.5
	c0.1,0.6,0.4,2.1,1.5,2.7c0.8,0.4,1.3,0.7,1.6,0.9c-0.1,0-0.2,0-0.3,0.1c-1,0.2-2.5,0.6-2.9,2c-0.1,0.3-0.4,0.8-0.7,1.2
	c-0.6,0.9-1.6,2.2-0.7,3.5c0.3,0.5,1,1.4,2.3,1.4c0.5,0,1.1-0.1,1.7-0.5c0.2,0.4,0.4,1.2,0.4,1.7c-0.1,0-0.2,0-0.3,0
	c-0.6,0-1.2-0.2-1.5-0.5c-0.5-0.5-1.9-1.5-3.2-1.5c-1.1,0-1.8,0.7-2,1.8C469.4,298,469.6,298.6,469.9,299.1z"/>
<path class="st1" d="M491.9,294.7c-0.1-0.6,0-1.6,0.1-2.2c0.1-0.7,0.1-1.3,0.1-1.8c-0.1-1.3-1.1-1.8-1.6-2c0,0,0,0-0.1,0
	c1-2.6,0.5-4-1.6-5.8c-0.7-0.6-0.9-1.1-1.2-2c-0.3-0.8-0.6-1.8-1.5-2.9c-0.5-0.7-0.6-1.4-0.6-2.3c-0.1-1.2-0.2-2.7-1.6-3.8
	c-1.1-0.9-1.8-2.2-2-3.6c0.3,0.1,0.5,0.1,0.7,0.1c2.1,0,2.4-3.3,2.4-5.3c0-0.3,0.2-0.9,0.3-1.4c0.2-0.8,0.5-1.8,0.5-2.6
	c0.1,0,0.3,0,0.4,0c1.1,0,2.6-0.1,3.2-1.3c0.6-1.1,1.4-6.1-0.9-7.2c0,0-0.1-0.1-0.1-0.2c0.7-0.2,1.4-0.5,1.9-1.1
	c0.5-0.6,1.1-1.6,0.9-3.3c-0.2-1.8-1.7-2.5-2.6-3c-0.9-0.5-1.1-0.7-1.2-1c-0.1-0.5,0.1-0.9,0.3-1.4c0.4-1,0.9-2.3-0.2-4.4
	c-0.6-1.2-0.3-2-0.1-2.9c0.2-0.8,0.5-1.7,0.1-2.7c-0.4-1.1-0.9-2.2,0.4-4.5c1.3-2.2,3.6-3.2,4.2-3.2c0.2,0,0.4,0.1,0.6,0.2
	c0.6,0.2,1.3,0.5,2.1,0.5c1.2,0,2.1-0.6,2.6-1.6c0.8-1.5,0.9-2.9,0.5-3.9c-0.2-0.6-0.7-1.1-1.3-1.3c-0.3-0.1-0.8-0.3-1-0.4
	c0,0,0.1-0.2,0.3-0.5c1.9-2.6,3.8-5.3,4.1-7.9c0.1-1.2,0-2.2,0-3c0-0.5-0.1-1.2,0-1.4c0,0,0.2,0.1,0.3,0.1c0.1,0,0.3,0,0.4,0
	c0.9,0,2.1-0.1,3.3-0.9c1.6-1.1,1.5-2.5,1.4-3.3c0-0.1,0-0.3,0-0.4c0.4-0.3,0.8-1,1.3-1.9c0.4-0.7,1-1.8,1.4-2.1
	c2.6-2,2.4-3.6,1.8-4.6c0.1-0.1,0.2-0.3,0.3-0.4c0.6-0.7,1.4-1.7,1.4-3.1c0-0.9,1.8-1.9,3-1.9c1.8,0,5.7,0,5.7-3
	c0-0.4-0.1-0.9-0.1-1.5c0-0.3-0.1-0.8-0.1-1.2c1.1,0.4,2,0.4,2.6,0.4c0.3,0,1.4,0,1.4,0c0.6,0,1,0.1,1.3,0.3
	c0.9,0.7,1.9,1.1,2.9,1.1c1.8,0,3.1-1.3,3.1-3.3c0-1.8,0.6-3.2,0.9-3.3c0,0,0.1,0,0.4,0.1c1,0.5,1.7,1.2,2.6,2c1.1,1,2.4,2.1,4.3,3
	c0.7,0.3,1.4,0.6,2.3,0.9c1.5,0.6,4.8,1.9,5.1,2.7c-0.1,0.2-0.1,0.5-0.2,0.8c-0.4,2-0.8,4.6,1.1,5.7c0,0.1-0.1,0.8-0.1,1.2
	c0,1.3-0.1,3.2,1.5,4c0,0,0.2,0.3,0.2,0.8c0.1,0.7-0.1,1.3-0.2,1.5c-0.7,0.1-1.2,0.5-1.4,1.1c-0.6,1.6,1.3,3.6,1.9,4.2
	c0,0,0,0.1,0.1,0.3c-0.1,0-0.2,0-0.2,0c-0.5,0-0.9,0-1.4,0.1c-0.5,0.1-0.9,0.1-1.3,0.1c-0.6,0-1.1-0.1-1.5-0.1s-0.9-0.1-1.2-0.1
	c-0.7,0-1.7,0.1-2.6,1.1l-0.5,0.5c-1,1-1.5,1.6-2.7,2.1c-1.7,0.6-1.7,2.1-1.7,2.9c0,0.8,0,1.3-0.8,1.9c-2.4,1.8-1,4-0.4,5
	c0.2,0.3,0.5,0.8,0.5,1c-0.6,1.2-4.9,4.3-8.1,5.9c-1.6,0.7-2.4,1.4-3.1,1.8c-0.7,0.5-1.2,0.8-2.2,1.2c-1.6,0.7-2.3,2-2.8,3.1
	c-0.4,0.9-0.6,1.3-1,1.3c-1.8,0.4-2.3,1.6-2.5,2.2c-0.1,0.4-0.1,0.4-0.3,0.4c-2.4,0.9-2.4,3.6-2.4,5.4c0,0.7-0.4,1.4-0.8,2.1
	c-0.7,1.2-1.5,2.5-1.2,4c0.7,3.9,0.8,5.5,0.7,5.8c-0.1,0.5,0,1,0.2,1.4c0.6,0.8,1.5,0.8,2.5,0.9c0.6,0,1.5,0.1,1.8,0.3
	c1.2,0.8,4.1,3.7,4.7,4.8c-0.2,0.3-0.8,0.8-1.2,1.2c-1.2,1.2-2.7,2.5-2,4c-0.2,0.5-2.4,2.6-4.2,3c-3.4,0.7-4,3.5-4.2,4.5
	c-0.1,0.5-0.1,1.3-0.2,2.6c-0.1,1.7-0.2,4.3-0.6,5.3c0,0-1.8,4.2-0.8,5.7l0.4,0.6l0.9,0.1c0.1,0,0.3,0,0.4,0
	c-0.2,0.4-0.4,0.8-0.6,1.2c-0.4-0.5-1-1-1.7-1c-0.4,0-1.5,0.2-1.8,1.9c-0.1,0.9-0.5,1.7-0.9,1.7c-0.1,0-0.3,0-0.5-0.1
	c-0.9-0.4-2-0.6-3-0.6c-1.7,0-3,0.6-3.5,1.6c-0.7,0.2-1.8,0.7-1.9,2.4c0,0.3,0,0.7,0,1c0,0.3,0,0.8,0,1c0,0,0,0,0,0
	c0,0-0.2,0.1-0.8,0.1c-1.2,0-2.2,0.3-2.8,0.4C492.2,294.6,492,294.6,491.9,294.7z"/>
<path class="st1" d="M568.7,276.1c-1.2-0.1-2.5-0.2-3.3-0.2c-0.4,0-0.7,0-1,0.1c-0.3-0.1-1.4-0.6-4.4-2.9l-0.3-0.2
	c-0.4-0.3-1.1-0.5-2.3-0.5c-0.7,0-1.5,0-2.4,0.1c0-0.3-0.1-0.6-0.2-0.9c-0.4-0.9-1.3-1.4-2.5-1.4c-0.3,0-0.6,0-0.9,0.1
	c-0.2,0-0.3,0.1-0.5,0.1c-0.4,0-0.6-0.2-1.5-1.5c-0.2-0.3-0.2-0.4-0.2-0.9c0.1-0.6,0.2-1.5-0.7-2.4c0.1-0.1,0.3-0.1,0.4-0.2
	c0.9-0.4,1.9-0.9,2.6-1.7c0.6-0.7,4.3-1,6.3-1.2c1.4-0.1,2.6-0.3,3.6-0.5c0.3-0.1,0.5-0.1,0.8-0.1c1.2,0,2.8,0.3,4.3,0.7
	c1.6,0.3,3.1,0.7,4.3,0.7c0.2,0,0.5,0,0.7,0c-0.3,0.3-0.6,0.7-0.8,1.1c-0.3,0.6-0.6,1-0.9,1.3c-0.4,0.5-1,1-1.1,2
	c-0.1,0.8,0,1.4,0.2,2.1c0.1,0.4,0.2,0.9,0.2,1.4c0.1,1.6,0.4,2.2,1.2,3.2c-0.3,0.1-0.6,0.3-0.9,0.6
	C569.1,275.3,568.9,275.7,568.7,276.1z M540.9,272.3c0.1-0.2,0.2-0.4,0.3-0.7c0.2-0.5,0.7-1,1.5-1.3c0.5-0.1,0.9-0.2,1.3-0.2
	C543,270.9,541.8,271.8,540.9,272.3z"/>
<path class="st1" d="M459.8,272.4c-1.4,0-2.4-0.5-3.3-1c-0.6-0.3-1.2-0.6-1.9-0.8c-1.3-0.3-4.1-1.9-4.9-2.8c0,0,0.1,0,0.1,0
	c1.5,0,2.2-0.8,2.2-2.4c0.4-0.2,1.1-0.4,1.4-1.1c0.3-0.7,0-1.5-0.1-1.7c-0.4-1.1-1.2-1.8-2.2-2c0.1-0.1,0.2-0.2,0.3-0.3
	c0.4-0.5,0.5-1.2,0.4-1.8c0.2-0.5,0.8-0.7,1.4-0.7c0,0,0,0,0,0c1.5,0,2.4-1,2.4-2.3c0-1.5-1-2.6-2.3-2.6c-0.6,0-1.3,0.3-1.8,0.8
	c-0.9,0.9-1.6,1.4-2.1,1.7c-0.5-0.9-1.3-1-1.6-1c-0.4,0-0.8,0.1-1,0.2c0,0-0.1,0-0.2,0.1c0,0-0.1-0.1-0.1-0.2
	c-0.1-0.1-0.1-0.2-0.1-0.2c0,0,0,0,0,0c0,0,0.1-0.1,0.2-0.2c0.4-0.4,1.4-1.6,0.3-3.1c-0.4-0.5-0.5-0.7-0.5-0.8
	c0.9-0.2,2.2-1.3,2.1-2.7c0-0.2-0.1-0.8-0.6-1.3c0.3-0.3,0.5-0.7,0.6-1.2c0.1-1.1-0.8-1.7-1.4-2.1c-0.3-0.2-0.8-0.5-0.8-0.7
	c0.3-0.7,0.6-1.2,0.8-1.4c0.6,0.3,1.4,0.5,2.1,0.5c1.4,0,1.9-0.8,2.1-1.2c0.2-0.4,0.3-1.3-0.6-2.2c0,0,0,0,0,0
	c0.2,0,0.6-0.4,1.2-0.4c0.4,0.1,0.5,0.1,0.7,0.1c1.4,0,2-1.1,2.4-1.7c0.1-0.1,0.2-0.4,0.3-0.4c0.9,0.3,2.7,0.6,3.9,0.6
	c0.8,0,1.8-0.1,2.3-0.9c0.3-0.5,0.3-1.1,0-1.6c-0.3-0.6-0.9-1-1.5-1.2c1.3-0.2,2.8-0.4,3.8-1.6c0.2-0.2,0.9-0.3,1.4-0.3
	c0.7-0.1,1.8-0.2,2.2-1.1c0.4-0.9-0.2-1.8-0.4-2.1c-0.3-0.5-0.5-0.8-0.6-1.1c0,0,0,0,0,0c0.3,0,0.5,0.2,0.8,0.9
	c0.3,0.6,0.8,1.7,2,1.7c0.4,0,0.9-0.2,1.3-0.5c0.9-0.7,1.3-1.9,1.5-2.8c0.1-0.4,0.3-1.1,0.5-1.2c1.9-0.1,2.5-1.4,2.8-2.2
	c0.3-0.7,0.5-1.2,1.3-1.5c1-0.5,1.9-1,2.7-1.5c0.3-0.2,0.6-0.4,0.9-0.6c0.4,0.5,1.1,0.8,1.9,0.8c1,0,2.1-0.5,2.4-1.5
	c0.1-0.3,0.4-1.4-0.8-2.3c-0.7-0.6-1.3-1-1.7-1.4c1-0.1,2.2-0.4,2.7-1.4c0.2,0,0.4,0.1,0.5,0.1c0.5,0.1,0.9,0.2,1.4,0.2
	c1.3,0,1.9-0.9,1.9-1.8c0-0.6-0.2-1.2-0.3-1.7c-0.3-0.9-0.3-1-0.1-1.1c1.2-1,1.1-2.8,0.9-4.2c0-0.3,0-0.6-0.1-0.9
	c0.2,0,0.4,0,0.6,0.1c0.4,0,0.8,0.1,1.2,0.1c1.4,0,2.3-0.5,2.8-1.4c0.6-1.1,0.3-2,0.1-2.5c-0.2-0.4-0.2-0.6,0.6-1.4
	c1.9-1.8,5-5.1,5.6-7.5l0.1,0c1,0,2.1-0.6,2.1-2.3c0-1.4,0.8-2.6,1.1-2.8c1.6-0.1,2.8-1.6,3.4-2.6c0,0,0,0,0,0
	c0,0.6,0.3,1.2,0.8,1.5c0.4,0.2,0.8,0.4,1.3,0.4c0.9,0,2-0.4,2.4-1.4c0.1-0.4,0.4-1.2-0.4-2.2c0,0,0.1-0.1,0.1-0.1
	c0.4-0.4,0.9-1,0.9-1.8c0-0.4-0.2-0.9-0.7-1.4c-0.8-0.7-1.7-1.1-2.5-1.1c0.3-0.3,0.5-0.5,0.7-0.8c0.8,1.1,1.6,2,2.6,2c0,0,0,0,0,0
	c0.3,0,1.5-0.1,1.8-1.9c0,0,0,0,0,0c0.2,0.1,0.4,0.2,0.7,0.5c0.5,0.5,1,0.7,1.5,0.7c0.7,0,1.3-0.4,1.6-1.1c0.3-0.9,0.1-2-0.6-2.8
	c0.4-1.7-0.7-2.3-1.5-2.6c-0.3-0.1-0.6-0.1-0.9-0.1c-0.1,0-0.3,0-0.4,0c0.5-0.4,1-0.9,1.4-1.5c0.2-0.3,0.8-0.6,1.4-0.6c0,0,0,0,0,0
	c0.3,0.9,1.2,1.6,2.3,1.6c0.7,0,1.4-0.3,1.8-0.8c0.4-0.5,0.6-1.1,0.5-1.7c0.1,0,0.2,0,0.3,0c0.2,0,0.4,0,0.5,0
	c0.9,0,1.7-0.5,2.1-1.3c0.4-0.9,0.2-1.9-0.3-2.9c0,0,0.3-0.1,0.3-0.1c0.7-0.1,1.3-0.4,1.9-0.6c0.2-0.1,0.4-0.2,0.6-0.2
	c0,0.4-0.2,0.9-0.2,1.2c-0.2,0.8-0.4,1.6,0.1,2.2l0.4,0.5l0.8,0.1c0.5,0,0.9-0.2,1.2-0.4c0.4-0.2,0.8-0.4,1.1-0.5
	c0,0.6,0.2,1.3,0.6,1.8c0.5,0.7,1.4,1.2,2.1,1.2c1,0,2-0.7,2-2.2c0-0.4,0-0.7,0.1-1c0-0.2,0-0.5,0.1-0.8c0.5,0.3,1.1,0.4,1.6,0.4
	c0.4,0,0.7-0.1,1-0.2c0.2,0.1,0.5,0.2,0.6,0.2c0.5,0.2,0.9,0.4,1.4,0.4h0.6l0.5-0.5l0.4-0.5l-0.1-0.8c-0.2-0.8-0.9-1.3-1.9-1.9
	c0.5,0,0.7,0.2,0.8,0.3c0.6,0.5,1.4,0.8,2.2,0.8c0.8,0,1.5-0.3,2-0.7c0.2,1.2,0.7,2.7,2.3,2.7h0.2l0.4-0.1c1.2-0.3,2-1.4,2.2-2.7
	c0.1-0.8-0.1-1.6-0.4-2.2c0.3-0.3,0.6-0.7,0.9-1.2c0.5-0.9,1.4-1.4,1.7-1.4c0.5,0.9,1.2,1.4,2.1,1.4c0.7,0,1.4-0.4,1.7-1
	c0.4-0.7,0.3-1.5-0.1-2.3c0.1-0.1,0.3-0.2,0.5-0.4c0.1,0,0.2,0.1,0.3,0.1c0.8,0.3,1.7,0.5,2.4,0.5c0.6,0,1.1-0.2,1.4-0.5
	c-0.4,0.8-0.8,1.5-1.5,1.9c-2,1.1-2.9,3.2-2.5,4.6c0.2,1,1,1.6,2,1.6h0.1l0.3,0c1.5-0.3,2.9-1.9,4.9-4.2c0.4-0.5,0.9-1.1,1.4-1.6
	c0.4-0.5,0.7-0.8,1-1.1c0,0.1,0,0.2-0.1,0.3c-0.3,1.4-0.6,2.6,0.1,3.5c0.3,0.4,0.9,0.7,1.4,0.7c1.8,0,3.9-2.6,4.5-4.1
	c0.5-1.2,0.3-2,0-2.5c0-0.1,0.1-0.3,0.3-0.5c0.4-0.4,1-0.6,1.7-0.6l0.3,0c0.9,0.1,1.5,0.4,1.8,0.7c-0.5,0.2-0.9,0.5-1.1,0.9
	c-0.5,0.8-0.3,1.6-0.1,2.1c0,0.2,0.1,0.6,0.1,0.7c-0.4,0.7-0.5,1.5-0.1,2.2c0.3,0.6,1,1,1.7,1c1.1,0,2.3-0.9,2.3-3
	c0-1.1,1.5-2,2.2-2c0.2,0.1,0.4,0.3,0.5,0.5c0.5,0.6,1.2,1.3,2.6,1.3c0.3,0,0.6,0,1-0.1c0.2,0,0.3,0,0.5,0c1.2,0,2.2,0.6,2.4,0.9
	c0.3,0.5,0.9,0.9,1.6,1.3c0.1,0.1,0.2,0.1,0.4,0.2c-0.8,0.1-1.8,0.3-2.7,1.1c-0.5,0.5-1.3,1.2-1.7,1.2c-0.1,0-0.3-0.1-0.5-0.2
	c-0.9-0.5-2-0.8-2.9-0.8c-0.8,0-1.4,0.2-1.7,0.7l-0.4,0.5l0.2,0.9c0.2,0.8,0.9,1.2,2,1.7c0.4,0.2,1.3,0.7,1.6,1c0,0.5,0.2,1,0.6,1.4
	c0.3,0.3,0.7,0.5,1.1,0.7c-0.4,0.3-0.9,0.6-1.2,0.6c-0.4,0-0.8,0.1-1.2,0.2c0-0.3,0-0.6-0.1-0.9c-0.3-1.6-1.9-2.3-3.5-3
	c-1-0.4-2.3-1-2.6-1.5c-0.7-1.2-1.8-1.8-3.2-1.8c-1.4,0-2.9,0.7-3.6,1.7c0-0.1-0.1-0.1-0.4-0.1c-0.2,0-1.6,0-1.6,0
	c-1.2,0-3.9,0-3.9,2.2c-0.1,0-0.6,0.4-1,0.6c-1,0.6-2.5,1.5-2.5,3.2c0,0.6,0.1,1.3,0.3,2c0.1,0.4,0.2,1.1,0.2,1.5h-0.1
	c-0.3,0-0.5,0-0.7,0c-2.2,0-2.3,1.7-2.4,2.3c0,0.4-0.1,0.8-0.3,1.3c-0.4-0.5-1-1.1-2-1.1c-0.3,0-0.5,0-0.8,0.1c0,0,0,0-0.1,0
	c-0.4,0-0.9-0.2-1.3-0.3c-0.6-0.2-1.2-0.5-1.8-0.5c-0.8,0-1.5,0.4-1.9,1.1c0,0,0,0,0,0c0,0-0.1,0-0.3,0c-0.7,0-1.6-0.2-2.7-0.5
	c-0.6-0.1-1.2-0.3-1.8-0.4c-1-0.2-1.8-1.2-2.7-2.1c-1-1.1-2.1-2.3-3.6-2.5c-0.2,0-0.3,0-0.5,0c-1.5,0-3,0.9-4,2.3
	c-0.4-0.1-0.7-0.2-1-0.2c-2.5,0-3.6,3-3.6,6c0,0.6-0.2,0.6-0.4,0.6c-0.4,0-0.8-0.2-1.2-0.5c-1-0.9-2.1-1-3-1l-1.4,0
	c-0.5,0-1.2,0-1.8-0.3c-0.5-0.2-0.9-0.3-1.3-0.3c-0.6,0-1.2,0.2-1.5,0.7c-0.8,0.9-0.7,2.4-0.5,3.8c0.1,0.4,0.1,0.8,0.1,1.1
	c-0.3,0.3-2.3,0.3-3,0.3c-2.3,0-5.7,1.8-5.7,4.6c0,0.5-0.4,1-0.8,1.4c-0.6,0.7-1.6,2-0.6,3.4c0,0,0,0,0,0c0,0-0.1,0.3-1.1,1.1
	c-0.8,0.6-1.5,1.8-2.2,2.9c-0.3,0.6-0.7,1.3-1,1.5c-0.8,0.8-0.7,1.7-0.6,2.3c0.1,0.6,0.1,0.6-0.2,0.8c-0.5,0.4-1.2,0.4-1.9,0.4
	c-0.9,0-1.9,0.1-2.6,0.8c-0.9,0.9-0.8,2.1-0.7,3.5c0.1,0.7,0.1,1.6,0,2.5c-0.3,2.3-2.5,5.2-3.5,6.6c-0.8,1-1,2-0.7,3
	c0.4,1.3,1.7,1.8,2.4,2c0,0.3-0.1,0.8-0.5,1.5c-0.1,0-0.3,0-0.4,0c-0.4,0-0.7-0.1-1.1-0.2c-0.3-0.1-0.6-0.2-0.8-0.2
	c-0.2,0-0.4-0.1-0.6-0.1c-1.8,0-4.9,1.7-6.5,4.5c-1.9,3.1-1.3,5.2-0.6,6.9c0,0.1-0.1,0.6-0.2,0.9c-0.3,1.1-0.8,2.8,0.2,4.9
	c0.5,1.1,0.4,1.4,0.1,2.2c-0.3,0.6-0.6,1.5-0.5,2.8c0.2,1.8,1.6,2.5,2.6,3c0.9,0.5,1.1,0.7,1.2,1c0,0.4,0,0.9-0.2,1.2
	c-0.2,0.2-0.5,0.3-0.6,0.3c-1,0-1.7,0.6-2,1.6c-0.3,1.2,0.2,2.8,1.5,3.5c0.3,0.6,0.2,2.6-0.1,3.4c-0.3,0-0.7,0.1-1,0.1
	c-1,0-2.1,0.1-2.7,0.9c-0.3,0.4-0.5,1-0.3,1.5c0.1,0.5-0.2,1.5-0.4,2.2c-0.2,0.8-0.4,1.5-0.4,2.1c0,0.7-0.1,1.6-0.2,2.2
	c-0.1,0-0.2,0-0.4-0.1c-0.3-1.1-0.9-1.9-1.8-2.4c-0.1-0.2-0.3-0.7-0.4-0.9c-0.5-1.1-1-2.4-2.3-2.4h-0.3l-0.5,0.2
	c-1.1,0.6-1.2,1.8-1.3,2.7c-0.1,0.5-0.1,1.3-0.4,1.5c-0.1,0.1-0.2,0.1-0.6,0.1c-0.2,0-0.4,0-0.6,0c-0.2,0-0.5,0-0.7,0
	c-0.4,0-1.5,0-2.3,1c-0.9,1.1-6.9,6.9-9.7,7.3C460.4,272.4,460,272.4,459.8,272.4z M447.6,262.4c0.2-0.4,0.5-1.1,0.4-1.8
	c0.3,0.2,0.6,0.3,0.9,0.4c-0.4,0.3-0.7,0.6-1,1.1C447.8,262.2,447.7,262.3,447.6,262.4z M504.3,178.9c-0.2,0-0.5-0.1-0.8-0.3
	c-0.4-0.3-0.8-0.4-1.4-0.4c-0.2,0-0.3,0-0.5,0c0.2-0.3,0.3-0.6,0.4-0.9c0-0.1,0-0.2,0-0.4c0.7-0.3,1.6-0.7,2.5-1.5
	c-0.1,0.6,0.1,1.2,0.8,1.7c0.2,0.2,0.5,0.3,0.7,0.3c-0.3,0.2-0.7,0.6-1,1C504.7,178.9,504.4,178.9,504.3,178.9z M542.4,158.4
	c-0.7-0.5-0.9-1-0.8-1.2l0.7,0.1c0.2,0,0.5,0,0.7,0c-0.1,0.1-0.2,0.3-0.3,0.4C542.6,158,542.5,158.2,542.4,158.4z M509.1,89.7
	c-0.2,0-0.3-0.1-0.4-0.1c-0.5-0.9-1.7-1.4-3-2c1-0.5,1.7-1,1.7-2c0-0.3-0.2-1.1-1.2-1.5c-0.4-0.1-0.8-0.2-1.4-0.2
	c-0.5,0-1,0-1.5,0.1c-0.5,0-0.9,0.1-1.3,0.1c-0.5,0-0.7-0.1-0.7-0.1c-0.3-0.8-1.5-1.4-2.9-2c-0.6-0.3-2.2-1-2.5-1.5
	c0.1,0,0.3,0,0.6,0c0.5,0,1.1,0.1,1.6,0.1c0.5,0.1,1,0.1,1.4,0.1c0.3,0,1,0,1.6-0.6l0.4-0.5l0-0.8c0.1-0.1,1-0.6,3.6-0.6
	c7,0,7.2-1.5,7.2-2.1c0.1-0.5-0.1-1.5-1.8-1.8c-0.8-0.2-1.9-0.3-3.4-0.3c-2.7,0-6.2,0.3-8.5,0.8c-0.9,0.2-1.9,0.3-2.8,0.3
	c-0.5,0-0.9,0-1.1-0.1c0,0,0,0,0,0c0.8-0.9,2.3-1,3.9-1.2c1.8-0.2,3.9-0.4,5.1-2c0.5-0.7,1.8-0.9,3-1.1c1.6-0.3,3.6-0.6,4-2.5
	c0.2-0.7,0.5-2.6-0.4-3.7c-0.4-0.5-1-0.8-1.6-0.8c-0.8,0-1.6,0.4-2.5,1.3c-0.6,0.6-1.4,1-2.2,1.2c0.6-1.2,0.7-2.4,0.3-3.3
	c-0.4-0.8-1.1-1.3-2-1.3c-0.3,0-0.7,0.1-1,0.2c-1.4,0.5-1.8,1.6-2,2.2c0,0.1-0.1,0.3-0.1,0.3l-0.3-0.1c-2.1,0-2.7,1.9-3.1,3.1
	c-0.2,0.6-0.5,1.3-0.7,1.5c-0.5,0.3-1.6,0.6-3,0.6c-1.5,0-2.8-0.4-3.4-0.9c-0.6-0.5-1.3-1.1-2.1-1.6c-1.3-0.9-3.5-2.5-3.2-3.3
	c0.2-0.7,1.3-1.7,2-2.5c1.3-1.2,2.2-2.2,1.9-3.4c-0.1-0.5-0.5-1.1-1.7-1.3c-0.2,0-0.5-0.1-0.7-0.1c-1.2,0-2.2,0.7-2.9,1.2
	c-0.3,0.2-0.8,0.5-1,0.6c0,0-0.2-0.1-0.5-0.6c-1-1.6-1.1-2.9-1-3.5c0.1,0,0.1,0,0.2,0c1,0,1.8-0.6,2.5-1.2c0.4-0.4,1.1-0.9,1.4-0.9
	c0.5,0.1,0.9,0.3,1.3,0.5c0.6,0.3,1.3,0.6,2,0.6c0.6,0,1.4-0.2,2.1-1.2c0.1,0,0.2,0,0.4,0c0.3,0,0.5,0,0.7,0.1c0.1,0,0.2,0,0.3,0
	c-0.5,0.3-0.7,0.7-0.7,1.3l0.1,1.1l1.3,0.2c0.8,0.1,3,1.5,3.1,2.1c0,0.7,0.3,1.2,0.5,1.5c0.4,0.4,0.9,0.7,1.5,0.7
	c0.7,0,1.4-0.4,1.8-1c0.5-0.7,0.6-1.7,0.3-2.7c-0.1-0.3-0.1-0.5,0.7-1.4c0.5-0.5,1-1.2,1.4-2c0.5,0.3,1.3,1.2,1.4,2.3
	c0.3,2.8,5.6,8.5,7.5,8.5l1.1,0l0.4-1.1c0.4-1.6-1.8-8.5-4.1-10c0,0-0.1,0-0.1-0.1c0.1-0.1,0.2-0.1,0.4-0.1c0.9-0.2,1.3-0.9,1.5-1.6
	c0.6,1,1.2,1.9,2.2,1.9c0.3,0,1-0.1,1.4-0.9c0,0,0.1,0,0.2,0c1.1,0,2.6,0.6,3.2,1.1c-0.2,0.3-0.4,0.7-0.6,1c-0.8,1.3-1.5,2.4-1,3.4
	c0.2,0.5,0.7,0.9,1.3,1l0.1,0l0.3,0c0.9,0,1.7-0.6,2.5-1.3c0.4-0.3,1.1-0.9,1.4-0.9c0.2,0.2,0.3,1.1,0.5,1.7c0.2,1.1,0.6,3,2.4,3
	l0.4,0c0.6,0,1.3-0.1,2.1-0.1c0.9,0,1.3,0.1,1.5,0.2c0.1,0.8,0.4,1.3,0.7,1.6c0.5,0.5,1.1,0.8,1.8,0.8c0.9,0,1.7-0.4,2.2-1.1
	c0.1,0,0.2,0.1,0.3,0.1c0.1,1,1.1,1.4,2.3,1.8c0.5,0.2,1.4,0.5,1.8,0.7c0,0-0.1,0.7-0.1,1c-0.4-0.5-1.2-0.9-2.1-0.9
	c-0.7,0-1.5,0.2-2.3,0.6c-1,0.5-1.8,0.5-2.6,0.5c-1.3,0-2.8,0.1-4.5,1.7c-2,1.9-3.3,3.3-2.7,5.4c-0.9,0.2-2,0.6-2.4,2.2
	c-0.2,1-0.1,1.8,0,2.4c0,0.2,0.1,0.6,0.1,0.7c0,0-0.2,0.3-1.4,0.8c-4.3,1.6-7.7,8.7-7.5,11.6C510,89.5,509.6,89.7,509.1,89.7z
	 M544.3,81.4c-0.2-0.1-0.2-0.6-0.1-0.9c0.1-0.7,0.2-1.6-0.5-2.3c-0.3-0.3-0.8-0.7-1.6-0.7c-0.6,0-1.4,0.2-2.5,0.6
	c-1.5,0.6-2.9,0.9-3.9,1c1.9-2,2.7-4.2,2.2-5.8c-0.3-0.9-0.9-1.5-1.8-1.7c-0.2-0.9-0.8-1.5-2-2c-1-0.4-1.5-1.3-1.6-1.6
	c0,0,0.1,0,0.3,0c1.8-0.1,2.5-0.8,2.8-1.4c0.1,0.2,0.2,0.4,0.4,0.6c0.3,0.4,0.9,0.8,1.8,0.8l0.3,0c0.5,0,1.4,0.5,1.9,0.9
	c-0.8,0.6-0.7,1.4-0.7,1.7c0.4,2.2,5.5,2.3,5.5,2.3c0.2,0,0.5,0,0.7,0c-0.9,0.9-0.7,1.7-0.5,2.1c0.6,1.4,2.8,1.7,4,1.7
	c0.6,0,1.8-0.1,2.7-0.5c0.4-0.2,0.9-0.3,1.3-0.3c0,0,0,0,0.1,0c-1.1,0.4-2.6,1-3.8,2.5C547.8,80,545.4,81.4,544.3,81.4z M548.6,57.1
	c-1.8-0.1-3.1-0.9-4.2-1.6c-0.8-0.5-1.5-0.9-2.3-0.9c-0.5,0-0.9,0.2-1.3,0.5c-0.2,0-0.6,0.1-1.6,0.1c-2.5,0-5.6-0.4-7.7-0.9
	c1.2-0.3,2.6-0.6,3.6-0.8c5-1,6.3-1.4,6.5-2.7c0.1-0.5-0.1-1.2-0.9-1.6c-0.5-0.3-1.1-0.4-2-0.4c-1.2,0-3,0.2-5,0.5
	c-2.6,0.3-5.5,0.7-8.1,0.7l0,0c-2.5,0-3.8-0.3-4.6-0.7c0.3-0.3,0.6-0.6,0.6-1.2c0-0.4-0.1-1-0.8-1.5c-0.4-0.3-0.9-0.6-1.5-1
	c-0.1-0.1-0.3-0.2-0.4-0.2c0.2-0.3,0.3-0.5,0.3-0.7c0.1-0.1,0.1-0.3,0.2-0.4c0.4,0.1,1.4,1.2,1.8,1.6c0.8,0.9,1.4,1.6,2.3,1.6
	c0.6,0,1.1-0.3,1.4-0.9c0.3-0.5,0.3-1.1,0.2-1.6c0.7,0.3,1.4,0.6,2,0.6c0.7,0,1.4-0.3,1.7-0.9c0.3-0.5,0.4-1,0.3-1.5
	c1.3,0.5,2.9,1.4,3,2.1c0.3,1.1,1.1,1.7,2.2,1.7c0.8,0,1.5-0.3,2.3-0.6c0.1-0.1,0.3-0.1,0.5-0.2c0.9,1.9,3.6,3,5.1,3
	c0.5,0,0.9-0.1,1.3-0.3c1.1-0.8,0.6-2.1,0.3-3c-0.2-0.6-0.6-1.6-0.4-2c0.1-0.2,0.5-0.4,0.7-0.4c0.4-0.1,0.6-0.1,0.7-0.1
	c0.3,0.2,0.4,1,0.5,1.3c0.1,0.8,0.2,1.6,0.7,2.1c0.5,0.5,1.1,0.7,1.8,0.7c1.4,0,2.7-1,3.5-2.6c0,0,0,0,0,0c0.1,0,0.3-0.1,0.8-0.1
	c1.7,0,4.3,0.8,5.8,1.5c0.9,0.5,2.3,0.6,4,0.6l2.5,0c3.8,0,4,0.6,4.1,0.6c-0.1,0.7-2.8,2-3.9,2.6c-2.2,1.1-3.8,1.9-3.9,3.4
	c-0.3,0.6-3.3,1.8-6,1.9c-1.6,0.1-2.5,0.6-3.2,1c-0.7,0.4-1.2,0.7-2.5,0.7C549,57.2,548.8,57.2,548.6,57.1z"/>
<path class="st1" d="M500.1,429.4c-0.2,0-0.6-0.4-1-0.9c-0.9-1-2.4-2.4-5.2-3.1c-3.6-0.9-4.6-1.8-4.9-2.2c0.3-0.3,1.2-0.9,2.1-0.9
	c0.3,0,0.5,0,0.7,0.1c1.1,0.6,2.1,0.8,3.3,0.8c1.2,0,2.6-0.3,4.5-0.7c0.7-0.2,1.4-0.3,2-0.3c-0.9,1.3-1.8,3-1.5,4.9
	c0.3,1.9,0.1,2.3,0.1,2.3L500.1,429.4z M506.5,419.9c0-0.5,0.1-1,0.4-1.5c0.3-0.4,0.6-0.9,0.7-1.4c0,0.1,0,0.2-0.1,0.3
	C507.5,418,507,419.1,506.5,419.9z M507.8,416.5c0.5-2.1,0-4.5-1.2-5.9c-0.2-0.3-0.3-0.6-0.3-1.1c-0.1-0.8-0.2-2.5-2.4-2.7
	c-0.4-0.1-0.6-0.3-1.2-1c-0.5-0.7-1.2-1.6-2.5-2.2c-1.9-0.9-3.4-1.6-4.5-2.9c-1-1.2-2.4-1.6-3.7-1.9c-0.7-0.2-1.5-0.4-2.2-0.8
	c-0.8-0.4-1.5-1.2-2.5-2.2c-1.3-1.3-2.8-2.9-5.2-4.4c-3.8-2.4-4.6-5-4.8-6c-0.2-1.4-0.6-1.9-1.3-2.9c-0.2-0.3-0.4-0.6-0.7-1
	c-1.2-1.7-4.5-4.1-7.8-4.1c-0.6,0-1.1,0.1-1.7,0.2c-2.2,0.6-2.9,1.8-3.4,2.6c-0.3,0.5-0.4,0.7-0.8,0.9c0,0-0.1,0-0.1,0
	c0.1-0.6-0.1-1-0.3-1.2c-0.6-0.9-1.7-0.9-2.8-1c-0.3,0-0.6,0-0.8,0c-0.2,0-0.3-0.1-0.4-0.2c-0.1-0.2,0.1-0.4,0.1-0.5
	c1.2-1.9-0.2-3.1-0.8-3.5c-0.1-0.1-0.2-0.1-0.3-0.2c0,0,0,0,0.1,0c1-0.5,2-1.8,2.1-3c0-0.7-0.3-1.3-0.9-1.6c-0.1,0-0.1-0.1-0.1-0.3
	c1.6-0.1,3.1-0.2,3.7-0.2c1.5,0,2.4-1.6,3.1-3.1c0.6,0.9,1.3,1.9,2,2.6c0.5,0.4,1,0.7,1.6,0.7c0,0,0,0,0,0c0.8,0,2.2-0.5,2.2-3.6
	c0,0,0,0,0.1,0c0,0,0.1,0,0.2,0c0.6,0.1,1.3,0.2,1.9,0.2c1.5,0,2.3-0.7,2.5-1.5c0.1,0,0.3,0,0.4,0c1,0,1.8-0.8,2.1-2l0.1-0.1
	c0.4,0.2,0.8,0.3,1.2,0.3c1.5,0,3.1-1.1,3.8-1.7c0.2-0.1,1.2-0.2,2.7-0.2c0.2,0.8,0.5,1.7,1.3,2.2c0.3,0.2,0.8,0.4,2.1,0.6
	c-0.1,1.6-0.3,3.6-0.2,5.5c-0.9,0.5-2,1.3-2.4,2.4c-0.3,0.8-0.3,1.5,0.1,2.3c0.3,0.6,0.2,0.8-0.1,1.4c-0.4,0.9-1,2.2,0,4.3
	c0.7,1.6,2.3,2.5,3.7,3.4c1.8,1.1,3.6,2.2,4.2,4.5c1.4,5.6,5.9,10.1,9.9,10.1l0.6,0c0.9,0,0.9,0,1.2,0.7c0.3,0.7,0.7,1.7,2,2.4
	c0.5,0.3,1.4,0.8,2.5,1.3c5.4,2.7,8.1,4.5,8.2,5.5c0,0,0,0.1,0,0.1c-0.3-0.2-2.2-1.4-2.2-1.4c-1-0.6-2-0.9-3.1-0.9
	c-1.5,0-2.9,0.6-3.7,1.7c-0.7,0.9-0.9,2-0.7,3.1c0.4,1.4,1.4,2.3,2.2,2.9c0.2,0.1,0.4,0.3,0.5,0.4c-0.5,0.6-0.9,0.9-1.4,1.2
	C509,414.9,508.1,415.5,507.8,416.5z M466.3,414.9c-0.3-0.7-0.6-2.4-0.2-4.1c0.5-2.3-0.6-4.2-1.5-5.6c-0.2-0.3-0.5-0.7-0.6-1.1
	c0.3,0.1,0.7,0.1,1,0.1c1,0,1.9-0.3,2.6-1c0.3-0.3,0.8-0.4,1.3-0.4c0.8,0,1.4,0.3,1.7,0.6c0.1,0.1,0.1,0.2,0.1,0.5
	c-0.4,1.3-0.4,3.2-0.4,4.9c0,1.3,0,3.4-0.3,3.9c-0.3,0.3-0.4,0.4-0.9,0.5C468.5,413.4,467.5,413.7,466.3,414.9z"/>
<path class="st1" d="M523,392.7c-0.6-0.5-1.4-1-2.1-1.6c0.2-0.8,0.1-1.2,0.1-1.5c0-0.1,0.4-0.9,1-1.8c0.8,0.8,1.6,1.8,2.4,2.7
	C523.8,391.1,523.4,391.8,523,392.7z"/>
<path class="st1" d="M532.1,392.2c-1.7-1.2-3.8-2.6-5.1-2.9c-1-1.3-2.3-2.7-3.3-3.9c0.3-0.4,0.6-0.6,0.7-0.7c0.4-0.1,0.7-0.3,1-0.7
	c1-1.5,1.1-8.2,0.3-9.9c-0.2-0.4-0.2-0.8-0.3-1.3c-0.1-1.1-0.4-2.8-2.3-3.5l0,0c0,0-0.2-0.2-0.4-1.2c1.7-0.5,3.6-1.1,4.4-1.4
	c0.6,0.2,1.5,0.5,2.2,0.6c0.1,0,0.3,0.1,0.6,0.1c0.2,0.5,0.6,0.9,1,1.3c0.3,0.3,0.8,0.9,0.9,1.1c0,1.6,1,2.9,2.5,3.2
	c0,0.2,0,0.4-0.1,0.5c-0.1,0.9-0.3,2.6,1.2,3.1c0.2,0.1,0.8,0.2,1.5,0.3c0.9,0.1,3.1,0.4,3.9,0.8c0.1,0.4,0.2,0.8,0.3,1.1
	c0.1,0.2,0.1,0.4,0.1,0.5c-0.8,0.4-1.3,1.4-1.4,2.5c-0.1,1.3,0.4,2.5,1.3,3.3c0.5,0.5,1,1.1,1.4,1.6c-0.4,0.2-0.7,0.5-1,0.8
	c-0.5,0.6-1.1,1.7-0.9,2.7c0,0.1,0,0.2,0,0.3C537.2,391.2,533.5,391.9,532.1,392.2z"/>
<path class="st1" d="M539.1,302.6c-1.9,0-4.1-0.1-5.9-0.3c0.2-0.1,0.3-0.3,0.4-0.5c0.1-0.3,0.4-1,0-1.8c0.1,0,0.2-0.1,0.2-0.1
	c0.5-0.3,1.8-1,1.8-2.2c0.1,0,0.2,0,0.2,0c0.7,1,2.6,1.8,3.8,1.8c0.4,0,0.8-0.1,1.1-0.2c0.1,0.1,1.1,0.6,1.2,0.9
	c0,0-0.1,0.5-0.2,0.9c-0.1,0.5-0.1,1-0.1,1.4C540.9,302.5,540.1,302.6,539.1,302.6z"/>
<path class="st1" d="M528.6,301.8c-0.3-0.1-0.9-0.3-1.6-0.6c0-0.1,0-0.1,0-0.2c0.2-0.1,0.6-0.2,1-0.2c0.1,0,0.1,0,0.1,0
	C528.3,301.2,528.4,301.5,528.6,301.8z"/>
<path class="st1" d="M539.1,302.6c-1.9,0-4.1-0.1-5.9-0.3c0.2-0.1,0.3-0.3,0.4-0.5c0.1-0.3,0.4-1,0-1.8c0.1,0,0.2-0.1,0.2-0.1
	c0.5-0.3,1.8-1,1.8-2.2c0.1,0,0.2,0,0.2,0c0.7,1,2.6,1.8,3.8,1.8c0.4,0,0.8-0.1,1.1-0.2c0.1,0.1,1.1,0.6,1.2,0.9
	c0,0-0.1,0.5-0.2,0.9c-0.1,0.5-0.1,1-0.1,1.4C540.9,302.5,540.1,302.6,539.1,302.6z"/>
<path class="st1" d="M528.6,301.8c-0.3-0.1-0.9-0.3-1.6-0.6c0-0.1,0-0.1,0-0.2c0.2-0.1,0.6-0.2,1-0.2c0.1,0,0.1,0,0.1,0
	C528.3,301.2,528.4,301.5,528.6,301.8z"/>
</svg>
