<!-- Generator: Adobe Illustrator 19.0.0, SVG Export Plug-In  -->
<svg version="1.1"
	 xmlns="http://www.w3.org/2000/svg" xmlns:xlink="http://www.w3.org/1999/xlink" xmlns:a="http://ns.adobe.com/AdobeSVGViewerExtensions/3.0/"
	 x="0px" y="0px" width="470.8px" height="584.8px" viewBox="0 0 470.8 584.8" style="enable-background:new 0 0 470.8 584.8;"
	 xml:space="preserve">
<style type="text/css">
	.st0{fill:#F4B092;}
	.st1{fill:#F4B092;stroke:#72D7B6;stroke-width:0;stroke-linecap:round;stroke-linejoin:round;}
</style>
<defs>
</defs>
<polygon class="st0" points="314.8,158.1 313.1,160.1 311.9,161 313.1,160.1 "/>
<polygon class="st0" points="138,102.2 148,102.3 148,102.3 "/>
<polygon class="st0" points="146.3,122.7 146.9,122.3 145.3,123.4 "/>
<polygon class="st0" points="288,192.5 288.3,190.6 288,189.9 288.3,190.6 "/>
<polygon class="st0" points="278.9,345.8 278.2,344.2 278.2,344.2 "/>
<polygon class="st0" points="328.5,326.2 328,325.6 327.3,324.9 "/>
<polygon class="st0" points="302.4,182.6 302.4,182.6 301.4,182.1 "/>
<polygon class="st0" points="289.8,196.4 290.3,195.8 293,195.3 290.3,195.8 "/>
<polygon class="st0" points="256.3,233.2 256.2,232.6 255.9,231.4 "/>
<polygon class="st0" points="275.6,202.1 277.9,203.9 279.3,204.1 277.9,203.9 "/>
<polygon class="st0" points="270.3,170.5 271.3,171 271.6,173.2 271.3,171 "/>
<polygon class="st0" points="247.8,166.3 248.7,165.9 248.7,165.9 "/>
<polygon class="st0" points="268.8,181.3 268.8,181.3 269.2,179.9 "/>
<polygon class="st0" points="242.7,163.8 244,164.9 245.6,165.6 244,164.9 "/>
<polygon class="st0" points="287.9,102.4 289.7,102.2 289.1,101.6 "/>
<polygon class="st0" points="305,101.6 304.1,102.7 305.1,103.6 305.4,102.6 "/>
<polygon class="st0" points="300.4,105.2 299.4,103.5 298.5,104.1 299.2,105 "/>
<polygon class="st0" points="304.1,105.9 304.6,106.6 305.9,106.1 304.1,105 "/>
<polygon class="st0" points="296.6,99.8 296.8,100.4 298.2,101.3 298.2,100.1 299.1,99.1 297.6,99.1 "/>
<polygon class="st0" points="286.5,100.6 284.9,100.1 284,101.1 286.1,100.9 "/>
<polygon class="st0" points="274.6,101.4 277.3,101.5 278.1,101.8 280.1,101.3 280.8,101.6 282.7,100.8 284.2,99.1 283.1,98.8 
	282.8,98.1 282.1,97.8 279.8,98.1 275.6,97.7 275.1,98.6 274.1,99.1 274.3,99.9 274.1,100.4 "/>
<polygon class="st0" points="267.2,100 266.6,99.3 266.2,99.5 266.7,100.3 267.5,100.6 268.2,100.1 "/>
<polygon class="st0" points="269,97.2 268.5,96.3 266.2,95 265.3,95 263.9,94.5 262.9,94.6 261.4,93.8 259.8,92.9 258.7,92.9 
	259.5,92.6 261.1,93.1 263.6,93.3 264.6,92.9 263.8,92.4 263.1,92.5 261.3,92.1 260.4,90.3 259.3,90.3 258.8,90.5 258.1,90 
	253.3,89 252.7,89.3 251.7,89 249.8,89.3 249.2,90.4 249.3,91 248.7,92.1 249.2,93 248.8,94.2 247.9,94.7 247.7,95.1 248.3,96.3 
	248.2,97.3 248.2,98 246.8,99.5 246.9,100.1 247.5,100.1 248.1,101.4 247.8,102.4 248.8,102.8 249.1,103.4 249.8,103.8 250.5,102 
	252,100.2 251.8,99.6 252.3,98.8 253,99.4 253.7,99.5 254.4,98.1 255.3,98.6 255.4,99.7 256,100.1 257.6,99.7 259.1,98.3 260.7,98 
	262.5,98.2 263.6,97.8 264.5,98.5 265.8,98.6 267.4,99 267.7,98.1 268.5,98.1 "/>
<polygon class="st0" points="194.4,93.3 194.8,92.5 193.6,92.5 193.2,93.5 "/>
<polygon class="st0" points="221,99.6 219.9,97.9 215.5,97.6 213.4,98.1 212.1,97.9 211.1,98.2 210.5,99.1 211.5,99.9 212.3,99.7 
	213,100 213.7,101.5 214.4,102.1 215.8,102.1 216.7,102.8 218,102.8 218.1,101.6 219.1,101.6 219.5,102.2 220.1,102 220.6,101.1 
	221.4,101.5 223.3,101.5 223.4,100.9 222.4,99.9 "/>
<polygon class="st0" points="242.6,96.2 242.4,95.3 241.3,94.5 240.3,95 241,95.6 "/>
<path class="st0" d="M248.2,98l0.1-0.7l0-1l-0.5-1.2l0.2-0.5l0.9-0.5l0.4-1.2l-0.5-0.9l0.6-1.1l-0.2-0.6l0,0l-1-0.2l-1,0.2l-1-1
	l-2.4-0.3l-0.7,0.4l-1-0.3h-2.2l-0.3,0.6c0,0,1.2,0.7,1.2,0.7l3.1,1l-0.3,0.6l0.4,0.9l-0.4,1.4l0.5,1l1.1,0.3l1.2,1.1l-0.3,0.7
	l-2.4-0.1l-0.5,0.3l-1-0.3l-1.4,0.1l-1.2-0.5l-1.4,0.6l-0.1-0.6l-0.5-0.2l-1.8,0.5l-1-0.9l-1.2,0.6l-0.5,0.7l0.4,1l1.4,0.2l1.4,1.6
	l0.6,0.2l0.1-1l0.6-0.5h2.5l1.1,0.6l3.2,0.1l0.6-0.4l1,0.5l0.9,0.1l-0.1-0.6L248.2,98z"/>
<polygon class="st0" points="245.5,88.5 243.5,87.3 242.4,87.9 243.3,88.5 "/>
<polygon class="st0" points="226.4,90 229.4,89.3 229.8,88.7 230.5,88.8 231.3,88.1 233.3,88.4 234.7,88 235.3,86.8 234.8,86.3 
	233.8,86.2 233.1,84.6 230.6,83.6 227.6,83.6 226.8,83.3 227.4,82.7 227.8,81.3 227.1,81 226.2,81.4 225.1,81.3 223,79.8 
	222.4,80.3 221.5,79.5 220,78.3 219.1,79.3 218.6,78.8 218.9,78 218.3,77.8 217.9,78.5 217.2,77.7 215,77.2 213.5,75.9 212.2,75.1 
	210.8,74 207.6,73.8 206.4,73.3 206,72 204.7,70.6 203.6,70.8 203.1,70.2 198.8,69.5 197.4,70.1 195.6,69.7 194.6,68.5 191.9,68 
	189.6,68.1 188.5,69.1 185.3,69.2 182.9,69.8 182,70.6 179.6,71.3 178.8,72.3 177.7,72.9 177.6,74.2 178.2,75.1 177.9,75.6 
	177,75.1 174.9,76.3 174.1,76 174.1,76.8 175.1,77.3 176.3,76 176.7,76.2 176.8,77.1 178.2,76.3 179.2,76.2 180.3,74.4 181.8,74.7 
	182.4,74.2 183.1,74.8 184.3,74.6 186,72.5 187,72.3 187.7,71.5 189.3,71.8 190.4,71.8 192.9,72 193.6,72.7 192.9,73.2 191.6,73.1 
	190.8,73.7 191.6,74.4 195,74.9 195.7,74.7 196.8,74.7 197.7,75.5 199.3,75.7 200.1,75.6 200.5,75 201.3,75.6 201.4,76.2 
	203.2,77.6 204.7,77.8 205.3,77.4 206.3,78.3 207.4,78.1 208.2,78.5 209.8,78 210.5,78.2 211.5,81.6 213.4,83.9 214.3,83.9 
	214.7,83.6 216,84.3 218.1,84.3 218.4,84.9 219.3,85.3 219.1,86.4 217.7,86.7 215.8,88.5 215.7,89.5 217.7,89.8 219.1,89.1 
	220.1,89.6 222.9,88.9 224.4,89.1 "/>
<polygon class="st0" points="185.4,78.4 184.9,78 185,78.6 186.3,79.1 187.9,78.7 188.1,77.6 187.1,76.4 186,76.2 185.6,77 
	185.9,77.7 186.5,78.1 185.9,78.5 "/>
<polygon class="st0" points="235.7,73.5 235.6,74.1 236.2,74.2 238.7,72.7 238.8,71.4 238.6,70.8 237.4,71.2 237.5,72.1 236.4,73.4 
	"/>
<polygon class="st0" points="242.3,79.2 243,79.6 243,78.5 "/>
<polygon class="st0" points="231.7,69.5 232.4,70.3 233.1,70.4 232.1,68.6 231.8,67.2 230.8,65.4 230.6,66.1 231.4,67.5 230.7,67.9 
	"/>
<polygon class="st0" points="230.5,60.1 229.3,59.3 229.1,60 230,61 230.2,62.6 229.7,63.1 230.2,63.7 231.6,63.6 231.7,63 
	230.8,61.3 "/>
<polygon class="st0" points="226.5,65.8 227.4,65.8 226.7,64.8 "/>
<polygon class="st0" points="241.7,73.7 242.2,74.2 243.3,74.2 244.4,74.6 244.5,74.2 242.7,73.2 "/>
<polygon class="st0" points="234.9,63.6 235.5,64.2 236,63.2 235.6,62.5 "/>
<polygon class="st0" points="235.3,69.9 235.2,70.6 235.9,71.4 236.7,71.6 236.6,70.6 "/>
<polygon class="st0" points="240.1,80.6 238.7,81.5 238.4,83.2 241.4,82.9 242.3,81.6 242.3,80.2 241.9,80.5 241.2,81.3 "/>
<polygon class="st0" points="224.7,54.4 224.6,55.2 225.9,55.7 226.8,56.9 226.4,57.8 225.7,58.1 226.2,58.7 226.9,58.5 227.3,56.7 
	226.3,55.3 "/>
<polygon class="st0" points="218,61.2 216.9,61.5 217.3,62 "/>
<polygon class="st0" points="216.7,61.9 216.1,62.3 216.8,62.6 "/>
<polygon class="st0" points="216.5,56.6 215.8,56.3 215.3,57.8 214.4,59.4 215.2,60.2 216.2,59.7 216.4,60.7 217.8,59.8 216.8,58 
	"/>
<polygon class="st0" points="217.2,65.5 218.1,65.3 218.7,64.3 218.4,63.5 218.5,62.7 218,62.2 216.6,63.1 216.6,64.1 "/>
<polygon class="st0" points="218.9,56.5 219.6,56.9 221.2,56.9 221.7,56.1 220.3,55.7 "/>
<polygon class="st0" points="223.1,47.2 222.3,46.7 222.1,45.5 220.3,44.3 218.7,44.4 220.5,45 220.7,46.1 221.9,47.8 221.2,48.5 
	221.5,49.6 221.1,51.5 222.1,50.5 222,49.5 223.1,48.8 "/>
<polygon class="st0" points="215.6,45.1 213.9,46 213.2,45.5 211.8,45.5 213.2,47.2 214.4,47.4 216.6,45.8 217.7,46.1 218.6,46.2 
	217.3,45.1 "/>
<polygon class="st0" points="339.4,547.4 338.7,546.9 338.1,547.4 338.7,548.1 340.1,547.5 "/>
<polygon class="st0" points="345.6,541.7 344.1,541.9 346.4,542.5 "/>
<polygon class="st0" points="348,544 347.5,543.1 346.7,543.4 346.3,544.1 345.7,544.1 344.9,543.3 343.9,543.5 343.4,544.7 
	342.3,544.5 341.2,543.6 340.8,544.1 342.2,545.9 343.4,546.1 343.4,546.6 342.2,546.6 341.4,547.1 341.6,547.8 340.5,549 
	339.7,548.9 339.6,549.5 340.9,550.1 341.5,549.5 342.6,550.3 343.3,549.2 342,548.7 343,548.1 344.7,548.2 346,547.6 346,546.4 
	347.5,545.3 "/>
<polygon class="st0" points="343.6,542.9 342.2,542.4 342.7,543.2 "/>
<path class="st0" d="M469.2,564l-0.3-1.2l-0.4-0.1c0,0-1-0.8-1.1-0.9c-0.1-0.1-0.6-0.3-0.6-0.3l-0.1-0.4l-1.3-0.5l-1.4,0l0,0.3
	l1.1,0.3l0.5,0.7l0.9,0.4l0.2,1l0.9,0.5l0.4,1.5l0.3,0.3l0.6-0.1l0.5-0.4l0.8,0l0.5-0.5l-0.7-0.2L469.2,564z"/>
<polygon class="st0" points="355.5,544.2 355.1,543.6 353.7,543.2 352.8,543.5 353.2,544.1 352.5,544.5 351.7,543.4 351.6,542.5 
	349.9,542.2 349.8,543.1 349,543.5 349.3,544.3 349,544.8 350,546.2 349.8,546.6 349.1,546.3 348.2,546.4 346.4,549.1 347.1,549.3 
	348,550.7 348.7,550.8 348.8,550.4 348.1,549.4 348.4,549 349.4,549.6 349.9,549.4 349.5,548.8 349.4,548.1 350.5,548.3 351.6,548 
	351.6,547.8 350.8,547.7 350.2,547.2 350.7,546.9 351.7,547.2 353,546.9 354,546.1 355.1,545.8 354.9,545.1 354.4,544.9 
	354.1,544.6 354.7,544.1 "/>
<polygon class="st0" points="212.4,162.9 213.1,162.4 213.5,161 214.3,159.5 213.8,158 213.6,157.3 213.9,156.3 213.4,155.9 
	212.6,155.4 212.4,154.8 211.4,153.6 209,152.2 207.6,151.9 205,151.9 204.2,151.7 203.9,151.1 203,150.7 202.4,150.8 200.8,152 
	199.1,152.4 195.5,154.2 194.5,155.2 193.5,155.3 191.6,155.2 189.6,153.8 188.3,153.2 188,153.5 188.7,153.9 188.7,154.5 
	187.7,154.7 186.8,154.2 186.5,153.7 186.7,153.5 187.1,153.4 186.8,153 186.4,153.1 185.6,152.8 185,152.2 184.8,151.5 
	183.8,151.5 183.2,151.9 183.3,152.8 182.6,153.6 182.4,154.5 183.1,154.8 183.8,155.8 182.9,156.5 182.6,157.4 182.7,158 
	183,158.5 183.8,158.4 184.8,158.6 185.9,158.4 186.4,158 186.9,158.6 186.8,159 187.5,159.2 189.6,159.5 189.9,160.9 190.6,162.4 
	191.5,163 192.5,162.9 192.8,162.2 192.4,161.8 192.8,161.2 193.6,161.3 193.9,161.8 193.7,162.4 194,163.6 193.8,164.4 
	194.2,165.1 195.8,165.3 196.5,164.2 197.3,163.4 198.3,163.6 198.9,163.4 199,162.2 198.1,161.4 197.1,160.7 196.7,159.8 
	196.9,159.2 197.8,158.7 199.6,158.3 201.2,156.8 201.2,156.3 200.8,156 201,154.9 202.7,154 204.1,153.8 204.8,154.2 205.9,155.3 
	206.6,155.4 207.6,156.7 208,157.8 208.6,158.3 209,158 209.7,157.1 210.3,157.1 210.6,157.9 210.1,158.4 209.5,158.5 208.6,159.9 
	208.1,160.3 208.6,161.8 209.9,163.6 211.1,164.7 211.8,163 "/>
<polygon class="st0" points="182.6,157.4 182.9,156.5 183.8,155.8 183.1,154.8 182.4,154.5 182.6,153.6 183.3,152.8 183.2,151.9 
	183.8,151.5 184.8,151.5 184.7,151.2 183.9,150.6 182.9,150.4 182.3,149.6 182,148.7 180.8,147.5 180.1,146.4 179.9,145.1 
	179.5,144.1 179,144.2 178.8,144.8 177.6,144.8 177.9,144.4 177.3,144.4 176.7,144.7 175.5,143.6 175.5,143.1 174.7,142.9 
	174.1,142 172.6,142.1 171.5,142.3 168.4,141.4 166.5,141.7 166.5,142 166.1,142.2 166.2,142.2 165.9,143.5 165.5,143.9 
	165.8,144.1 166.7,144.4 166.9,145.5 165.9,146.1 165.4,147.4 165.6,148.5 167.2,149.9 168.7,149.9 169.6,150.5 170.2,151.4 
	170.7,151.4 171.4,150.3 171.1,149.3 169.5,148.2 169.2,147.5 169.7,147.1 170.7,147.9 171.7,148.5 171.8,149.4 172.9,150.2 
	173.3,151.4 174.6,152.1 175.6,153 176.4,153.5 177.6,154.9 177.8,155.5 177.1,156.4 177.1,157.2 177.6,158 179,158.5 179.9,159.1 
	180.3,158.8 180.4,157.9 179.9,157.2 178.9,156.7 178.9,156.5 179.3,156.2 180,156.6 180.9,157.8 180.9,158.9 181.3,159.1 
	181.6,159.3 182,159.7 182.7,159.8 182.9,159.2 182.9,158.5 183,158.5 182.7,158 "/>
<path class="st0" d="M166.5,141.7l1.9-0.3l3.1,0.9l1-0.2l1.6-0.1l0.6,0.9l0.7,0.2v0.5l1.2,1.1l0.6-0.3h0.6l0.1-0.1l0.5-0.3l-0.2-0.9
	l-0.6-0.7l-0.3-1.2l0.7-1.4l0.4-0.9l0-1.2l-0.3,0.7l-0.2,0.5l-0.6,0.3v-0.8l0.3-0.9l0.5-1.2l-0.2-0.7l0-0.8l0.7-1.7l0.5,0.1
	l-0.2,0.5c0,0,0,0.7,0,0.9c0,0.2,0,1.2,0,1.2l0.3,0l0.5-0.8l0.3-2.2l0-2.7l0.2-0.6l-0.4-0.7l-0.4-0.2l0-0.6l0.4-0.4l0.4,0l0.2,0.4
	l0.4-1.4l0.9-1.2l0.4-0.8l0.1-0.6l-0.6-0.4l-0.1-0.5l0.3-0.7l-0.2-1l0.1-1.5l0.3-0.6l0.3-0.4L182,119l-0.8,0.1l-0.2-0.5h-0.6
	l-0.5,0.3l-0.2,0.8l-0.8,0.4l-1,0.7l-1,0.1l-0.2,0.7l-0.7-0.2l-1,0.2l-0.2-0.5l-0.8-0.6l-0.5,0l-0.3,1l-1.1,0l-0.9,1.4l-0.1,0.6
	l-0.5,0.3l-1.2,1.1l-1.2,0.5l-0.3,0.6l-0.8-0.3l-0.6,0.2l-0.7-0.6l-1.4-0.2l-1.9,1l-1.8,0.2l0.1,1.1v0.8l-0.2,1.5l-0.4,0.8l-1.4,0.1
	l-1,0.2l0,0.6l-0.5,0.1l-1-0.4l-0.2,0.4l2.1,2.5l1,0.7v0.7l1.7,1.5l1.5,2l2.7,2.9l0.7,0.1l0.4,0.3l0.4-0.2V141.7z"/>
<polygon class="st0" points="145.4,128.4 145.9,128.4 145.4,128.4 "/>
<polygon class="st0" points="160.2,130.5 160.7,129.7 160.8,128.2 160.8,127.4 160.7,126.3 162.5,126.1 164.4,125 165.8,125.3 
	166.4,125.9 167,125.7 167.8,126 168.1,125.4 169.3,124.9 170.5,123.8 171,123.5 171.1,122.9 172,121.5 173.1,121.5 173.3,120.4 
	173.8,120.4 174.6,121 174.8,121.5 175.8,121.3 176.6,121.5 176.8,120.8 177.8,120.8 178.8,120 179.5,119.7 179.8,118.9 
	180.3,118.7 180.9,118.7 181.1,119.1 182,119 182.6,118.9 183,118.5 182.6,118 181.3,116.9 180.1,116.3 180,116.5 180.5,117.5 
	179.2,117.4 177.8,117.3 177.2,116.8 176.1,116.7 175.1,116.7 175.4,116.2 176.1,116 176.1,115.5 176.6,115.4 177.5,115.6 179,116 
	179.2,115.9 178.2,115 176.8,114.3 175.8,114.2 174.8,114.4 174.2,114.1 173.9,114.8 173.2,114.3 170.7,114 168.2,113.9 
	166.9,112.8 165.7,112.2 165.4,112.9 165.9,113.2 165,113.6 164.4,114 163.5,113.7 161.5,114.2 159.1,114 155.7,114.1 154.2,114.9 
	153.5,114.3 153.3,114.8 152.6,115.3 152.2,116.3 150.6,117.3 149.7,117.2 148.2,118.8 147.3,119.7 147.6,120.7 146.9,122.3 
	146.3,122.7 146.8,122.4 147.7,122.6 147.9,122.9 148.5,123.1 149.1,123.7 150.2,123.5 151.3,123.8 152.1,124.7 152.2,125.4 
	152.9,125.8 153.2,125.3 153.4,124.7 154.4,124.6 155,124.8 155.7,125 155.7,126 155.5,127.1 155.6,127.5 155.3,128.4 155.5,128.9 
	155.5,128.8 156.1,129.2 156.4,129.6 156.9,129.6 157.2,129.2 157.6,129.4 157.6,130.1 157.9,130.8 157.9,130.8 158.8,130.6 "/>
<polygon class="st0" points="155.6,127.5 155.5,127.1 155.7,126 155.7,125 155,124.8 154.4,124.6 153.4,124.7 153.2,125.3 
	152.9,125.8 152.2,125.4 152.1,124.7 151.3,123.8 150.2,123.5 149.1,123.7 148.5,123.1 147.9,122.9 147.7,122.6 146.8,122.4 
	146.3,122.7 145.3,123.4 145.3,123.6 145.3,124 144.3,124.3 142.9,124.7 141.8,125.8 141.8,126.4 141.4,127.1 141.9,127.2 
	143,127.2 143.9,128.1 145.3,128.4 145.4,128.4 145.9,128.4 147.9,129.2 149.7,130.2 149.9,129.7 149.1,129.3 149.5,129 
	150.6,129.1 151.4,130.2 152.1,130.8 154.7,130.8 155.4,129.8 155.1,129.2 155.5,128.9 155.5,128.9 155.3,128.4 "/>
<polygon class="st0" points="151.7,98.8 151.5,99.2 151.3,100.1 150.5,101.1 150.5,101.3 150,101.4 149.8,101.7 149.6,101.6 
	149.5,101.1 148.7,101.1 148.1,101.5 148,102.3 148,102.3 148,102.4 147.8,113.1 148.7,113.1 149,113.3 149.6,113.2 149.6,113.2 
	150.1,112.3 151.1,111.2 151.8,111.7 153.4,109.4 154,107.9 154,106 153.4,105.3 153.6,103.6 154.3,102.6 154.4,99.8 154.6,99.2 
	154.5,98.6 153.7,98.6 153.1,99.1 152.9,98.6 152.4,98.5 "/>
<polygon class="st0" points="141.8,125.8 142.9,124.7 144.3,124.3 145.3,124 145.3,123.6 145.3,123.4 146.9,122.3 147.6,120.7 
	147.3,119.7 148.2,118.8 149.7,117.2 150.6,117.3 152.2,116.3 152.6,115.3 153.3,114.8 153.5,114.3 153,113.9 152,113.8 
	151.7,114.5 150.8,113.9 150,113.9 149.6,113.2 149,113.3 148.7,113.1 147.8,113.1 148,102.4 148,102.3 138,102.2 137.8,105.2 
	135.4,105.4 136.2,106.1 136.5,106.7 137.4,107.9 138.3,108.5 139,108.5 139.4,109.2 139.6,110.1 139.9,110.5 140.9,110.6 
	141.5,110.9 141.6,111.7 141,112.3 133.6,112.4 130.2,117.8 130.3,118.7 130.4,119 130.3,119.6 130.5,120.1 130.7,120.2 
	130.6,120.7 130.1,121.1 129.9,121.8 129.7,121.9 130.6,123 131.3,124.2 132.2,124.3 133,125.2 136,126.4 137.8,126.4 139.2,126.3 
	141.4,127.1 141.8,126.4 "/>
<path class="st0" d="M368.8,193.6l-0.2,0.4l0.5,1.5l0.6,0.9c0.1,0,0.6,0.1,0.6,0.1l0.1-0.8l-0.8-1.5L368.8,193.6z"/>
<polygon class="st0" points="367.9,208.2 367.5,208.3 366.9,208.2 366.4,208.5 365.3,209.6 364.7,211.4 365.1,211.3 365.3,210.9 
	366.5,209.7 367.1,209.6 368.1,208.6 "/>
<polygon class="st0" points="375.4,208.5 375.8,207.9 375.2,207.4 374.4,207.4 374.1,207.9 373.3,208.3 374.1,208.6 "/>
<polygon class="st0" points="366.1,210.9 365.7,211.5 366,211.5 366.9,211.4 367.2,210.6 366.9,210.4 "/>
<polygon class="st0" points="372,207.3 372.4,207.5 373.1,207.2 373.4,206.5 372.7,205.9 371.1,206.3 370.3,206.4 370,206.9 
	370.6,207.2 "/>
<polygon class="st0" points="370.2,205.5 370.8,204.6 371.4,204.4 371.9,203.6 371.4,203.5 370.6,204.1 370.1,204.4 369.4,205.1 
	369.6,206.2 "/>
<polygon class="st0" points="368.6,207.2 369,207.7 369.6,207.9 369.6,207.3 369.5,206.9 368.7,206.5 "/>
<polygon class="st0" points="346.9,176.1 346,177.3 346.1,178.9 346.6,180.1 346.4,181.3 346.4,182.3 347.5,182.9 347.9,183.8 
	348.6,184.9 348.8,186.1 349,186.6 348.8,187.6 347.9,188.5 348,189.9 348.4,190.7 347.9,191.9 346.5,192.9 346.2,192.8 
	346.4,193.4 346.8,194.3 347.1,194.6 347.1,195.1 347.9,196 348.9,196.2 349.5,195.5 350.3,195.2 350.9,195.3 351.1,195.7 
	351.5,195.9 351.5,197.4 352.2,197.7 353.2,196.9 353.5,196 354.1,195.6 355.1,195.4 355.8,194 356.7,192.5 357.8,190.1 357.8,189 
	359.3,187.1 360.7,185.4 361.2,184.7 361.2,184.6 362.2,183.3 362.1,181.9 361.1,180.7 360.6,181.2 359.9,180.6 359.8,179.7 
	357.7,177.6 357.2,177.4 355.9,176.1 352.6,175.3 351.2,174.4 349.5,174.2 348.5,175 347.4,175.6 347.4,175.6 347.4,175.6 "/>
<polygon class="st0" points="330.8,175.1 330.8,176 330,176.9 329,177.4 327.6,177.5 326.8,178.9 326.8,180.1 325.8,182.5 
	325.9,183.3 327,183.8 327.6,184.6 327.8,185.2 328.5,186.1 328.5,186.8 329.2,187.4 330,187.4 330.4,187.8 330.6,188.6 
	331.1,190.4 331,191.5 331.6,192 332.6,193.1 332.7,194.1 333.9,194.5 333.9,195 334.2,195.7 335,196.3 335.1,196.3 335.6,196.4 
	336,196.6 337.4,197 338.4,197 338.6,196.6 338.1,195.3 337.8,194.6 336.7,193.6 336.9,192.6 338,191.8 339.3,192.1 341.7,192 
	342.8,191.5 344.3,191.6 345.4,192.7 346.2,192.8 346.5,192.9 347.9,191.9 348.4,190.7 348,189.9 347.9,188.5 348.8,187.6 
	349,186.6 348.8,186.1 348.6,184.9 347.9,183.8 347.5,182.9 346.4,182.3 346.4,181.3 346.6,180.1 346.1,178.9 346,177.3 
	346.9,176.1 347.4,175.6 347.4,175.6 348.5,174.2 348.5,173.4 347.3,172.9 345.3,172.5 343,171.7 342.2,171.8 341.2,172.2 
	339.4,172 337.2,172.5 335.3,172 332.8,172 331.3,172.5 331.1,173.9 331.1,174 "/>
<polygon class="st0" points="313.1,160.1 311.9,161 311,160.9 309.4,162.8 309.9,163.6 310.3,164.8 311.8,164.9 312.8,165.7 
	312.8,167 310.9,167.9 309.9,167.5 309.1,167.9 308.2,167.5 307.4,168.4 307.2,170.1 306,171.2 306.6,172.7 308.1,174.7 
	310.2,176.5 310.2,176.6 310.8,176.7 311.3,177.2 311.9,176.8 313.2,176.9 314.1,178.1 314.1,179.7 313.4,180.8 312.9,181.5 
	313.9,182 315.1,181.9 315.5,182.7 316,183.6 317.1,183.5 317.1,184.1 316.1,185.4 315.7,187 314.6,188.9 314.7,190.2 314.3,191 
	314.1,192 314.4,192.6 314.2,193.4 314.3,194.5 315.3,195.6 316.6,196.9 316.6,197.7 317.4,198.7 319.7,200.7 320.6,201.1 
	321.3,200.1 322.1,199.9 322.3,200.3 323.6,200.2 324.4,199.2 324.6,198.7 325.8,198.3 328.1,198.4 328.8,196.6 330,196.1 
	331.7,196 332.1,196.5 333.2,196.3 335,196.3 335,196.3 334.2,195.7 333.9,195 333.9,194.5 332.7,194.1 332.6,193.1 331.6,192 
	331,191.5 331.1,190.4 330.6,188.6 330.4,187.8 330,187.4 329.2,187.4 328.5,186.8 328.5,186.1 327.8,185.2 327.6,184.6 327,183.8 
	325.9,183.3 325.8,182.5 326.8,180.1 326.8,178.9 327.6,177.5 329,177.4 330,176.9 330.8,176 330.8,175.1 331.1,174 331.1,173.9 
	331.1,173.9 330.8,172.7 330.8,171.3 330.4,170.4 328.2,169.8 326.4,167.9 325.3,167.1 324.6,167.4 323.4,167.8 322.6,168.7 
	322.4,169.8 322.2,168.4 322.4,166.6 322.8,165.6 322.2,163.7 321.4,163 319.1,161.6 317.6,159.9 317.4,159 316.3,158 315.3,157.7 
	314.9,157.5 314.8,158.1 "/>
<polygon class="st0" points="265.8,135 266.3,135.9 267.1,136 267.7,136.9 268,136 266.9,134.9 "/>
<polygon class="st0" points="256.5,133.2 257.3,134.3 258.4,134.2 257.4,133.3 "/>
<path class="st0" d="M290.8,143.2l1.2,0.3l0.9-1.1l-0.5-0.8l-1.7,1.3l-0.6-0.7l-1.2,0.9c0,0,0.6,0.4,0.6,0.4L290.8,143.2z"/>
<polygon class="st0" points="249.1,137.6 246.2,138.7 244.5,141.4 243.9,142.1 242.9,142.3 242,143.6 241.1,144.4 239.3,147 
	239,148.2 239.3,149.2 239.2,151.1 238.3,153 238.2,153.6 238.9,153.5 239.9,153.5 242.2,157.7 243.2,159.2 243.5,160.3 
	242.9,161.5 243,162.3 242.6,163 242.7,163.8 244,164.9 245.6,165.6 246.6,165.7 247.8,166.3 248.7,165.9 248.7,165.9 248.7,165.9 
	250.2,165.9 251.6,166.3 252,166 253.7,165.7 255.5,166 256.6,166.4 260.9,170.7 262.5,170.4 262.9,170.8 263.3,170.6 264.5,170.9 
	265.3,171.4 266.3,170.8 267.5,170.7 269.1,170.9 269.4,170.6 270.3,170.5 271.3,171 271.6,173.2 271.2,174.1 271.2,175.2 
	270.8,175.9 269.4,176.3 268.8,177.1 269.1,179.1 269.2,179.9 268.8,181.3 268.8,183.1 269.5,184.1 269.5,184.7 270.8,187.8 
	268.9,191.2 269.1,192 269.7,192.2 270.2,191.8 270.5,192.1 270.7,193 271.3,193.3 271.9,194.5 271.6,195.1 272.3,196.6 
	273.4,199.5 273.5,200.6 273.4,200.6 275.6,202.1 277.9,203.9 279.3,204.1 281.6,203.9 283,202.3 284.9,201 285.9,199.9 
	288.8,198.4 289.4,196.9 289.8,196.4 290.3,195.8 293,195.3 294.3,194.7 294.3,193.5 292.4,193.1 290.6,193.4 288,192.5 
	288.3,190.6 288,189.9 287.7,189.4 289.3,186.9 288.9,185.8 287.7,184.7 286.5,184.2 285.7,182.8 287.4,183.3 289.2,183.6 
	290.9,184.6 292.9,184.5 295.5,184.1 296.1,184.6 297.9,183.9 299.8,182.3 301.4,182.1 302.4,182.6 302.4,182.6 305,181.5 
	306.8,181.3 309.8,179.2 310.3,177.8 310.2,176.6 310.2,176.5 308.1,174.7 306.6,172.7 306,171.2 307.2,170.1 307.4,168.4 
	308.2,167.5 309.1,167.9 309.9,167.5 310.9,167.9 312.8,167 312.8,165.7 311.8,164.9 310.3,164.8 309.9,163.6 309.4,162.8 
	311,160.9 311.9,161 313.1,160.1 314.8,158.1 314.9,157.5 314.6,157.3 312.4,156.3 311.7,156.3 310.9,156.6 309.7,156.4 
	309.1,156.4 308.2,156.8 306.3,157.1 305,157 304.3,156.9 305.5,156.7 306.1,156.7 307,156.2 307.5,155.3 308.7,154.4 308.9,153.8 
	308.1,153.3 308.2,152.9 307.9,152 306.3,151.1 304.4,150.7 303.8,150.1 303.1,149.6 302,149.6 301.6,149 300.5,148.5 299.8,148.6 
	299.9,149.5 299.1,148.5 298.7,147.4 297.5,146.8 297.2,146.2 297.8,145.7 300.4,145.8 301.3,145.2 302.9,145 303.1,144.1 
	301.6,144.4 299,143.8 297.2,144.1 295.9,144 293.4,144.9 292.5,144.5 291.5,144.6 289.4,146.1 288.3,146.4 287,147 286.5,147.7 
	284.8,147.9 284.3,148.2 283.4,147.9 280.9,146.2 280.4,145.2 279.6,145.1 276.8,145.3 271.4,146.2 268.7,146.2 267.7,145.6 
	267.3,144.8 267.3,143.8 268,143.8 267.8,142.6 266.7,141 265.6,140.7 262.9,141 261.6,140.3 260.7,140.2 260,140.5 259,138.9 
	259,137.4 258.6,135.5 258,135.3 256.4,135.9 254.9,137.8 255.2,139 255.8,139.5 256.8,139 257.9,139 258.8,140 258.6,140.7 
	257.6,141 256.5,140.5 255.9,140.1 255.7,140.5 255.6,140.9 254.3,141.6 251.8,142.1 249.3,143.2 248.5,144.1 248.5,145.1 
	249.1,146.3 249.1,148.6 249.4,150.2 249.9,151.5 249,153.3 247,154.4 246,154.3 246,152.6 244.9,151.3 244.5,150.1 245.6,149.2 
	245.7,148.5 247.9,146.4 247.9,144.6 247.2,143.4 247.3,142.8 247.2,142.1 246.3,141.5 245.9,140.5 246.2,139.7 247.5,139.1 
	248.8,138.8 250.1,137.4 249.4,137.4 "/>
<polygon class="st0" points="262,134.5 261.7,135 262.2,136.2 263.5,136.5 264.1,135.8 263.1,135.7 "/>
<polygon class="st0" points="208,201.5 210.6,203.2 211.6,203.2 212.9,204.6 212.7,205.5 213,206.2 214.7,206.4 216.7,207.3 
	217.4,207.8 219.3,208.2 220,207.6 219.9,206.4 220.8,205.7 221.2,205.8 222.9,206.4 223.8,206.9 224,207.6 224.8,208.1 225,208.1 
	225.4,208.1 226,208.8 228.1,209.3 229.4,209.6 229.7,210.2 231.1,211.8 231.2,212.9 232.2,214.7 232.9,214.7 235.6,215.6 
	236.8,217.3 236.8,218.6 237.2,218.8 238.1,219.2 238.6,220.7 238.3,221.2 238.6,222.1 239.7,222.5 240.9,222.2 241.9,222.5 
	243.3,222.4 243.9,221.9 245.7,221.1 247.2,221.4 248.6,222.1 250.6,221.2 251.6,221.2 252.1,221.9 252.8,221.8 254,222.4 
	254.6,223.2 255.7,222.9 255.8,223.7 252.1,230 252.3,230.7 253.6,230.5 255,230.4 255.9,231.4 256.2,232.6 257.2,229.4 
	260.4,217.4 260.4,216.6 260.5,214.6 259.1,212.1 257,210.5 256,209.2 255.8,206 259.6,204.7 261,205.6 261.3,204.7 260.6,204 
	261.3,203.3 260.4,201.7 258.2,201.1 257.7,199.8 258.1,197.9 264.6,197.9 265.3,197.1 266.4,197.1 267,197.7 267.8,197.5 
	268.9,196.3 270.5,195.9 270.8,196.8 271.7,197.9 272,199.2 271.9,200.8 273.4,200.6 273.5,200.6 273.4,199.5 272.3,196.6 
	271.6,195.1 271.9,194.5 271.3,193.3 270.7,193 270.5,192.1 270.2,191.8 269.7,192.2 269.1,192 268.9,191.2 270.8,187.8 
	269.5,184.7 269.5,184.1 268.8,183.1 268.8,181.3 268.8,181.3 269.2,179.9 269.1,179.1 268.8,177.1 269.4,176.3 270.8,175.9 
	271.2,175.2 271.2,174.1 271.6,173.2 271.3,171 270.3,170.5 269.4,170.6 269.1,170.9 267.5,170.7 266.3,170.8 265.3,171.4 
	264.5,170.9 263.3,170.6 262.9,170.8 262.5,170.4 260.9,170.7 256.6,166.4 255.5,166 253.7,165.7 252,166 251.6,166.3 250.2,165.9 
	248.7,165.9 248.7,165.9 247.8,166.3 246.6,165.7 245.6,165.6 244,164.9 242.7,163.8 242.6,163 243,162.3 242.9,161.5 243.5,160.3 
	243.2,159.2 242.2,157.7 239.9,153.5 238.9,153.5 238.2,153.6 238.3,153 239.2,151.1 239.3,149.2 239,148.2 239.3,147 241.1,144.4 
	242,143.6 242.9,142.3 243.9,142.1 244.5,141.4 246.2,138.7 249.1,137.6 249.4,137.4 250.1,137.4 250.2,137.2 250.9,136.7 
	251.1,136.1 250.5,135.2 248.4,134.1 247.6,134 247.3,134.5 247.2,135.1 246.3,135.2 245.9,135.6 244.9,135.4 244.1,135.8 
	243.6,136.3 244.1,136.9 243.7,137.4 242.3,138.2 240.3,139.4 238.9,140.3 237.4,140.7 235.7,140.8 233.8,140.6 232.7,141.2 
	232.8,141.9 233.1,142.8 233,143.7 232.1,144.5 231.6,144.3 231.8,143.4 231.6,143.1 232.5,142.8 231.3,142.7 229.8,142 
	229.1,142.1 227.2,143.2 226.7,144 225.4,145.5 223.9,148.4 223.7,149.2 224.1,149 224.6,149.5 224.7,150.4 224.4,151.5 
	223.6,151.9 222.5,152 221.6,152.4 220.2,153.9 219.5,154.2 218.4,155.9 217.8,156 216.8,156 217.1,157.1 218.1,158.2 218.1,159.6 
	217.5,160.9 216.9,160.8 215.9,159.9 216,159.5 216.4,158.9 215.5,158.5 215.1,157.4 213.9,156.3 213.6,157.3 213.8,158 
	214.3,159.5 213.5,161 213.1,162.4 212.4,162.9 211.8,163 211.1,164.7 211.3,164.9 211.6,166.2 211.7,167.6 212.8,168.9 
	213.3,168.9 213.8,168.6 214.1,169.1 214.3,170.4 213.6,171.2 213.6,171.7 214.2,172.4 214.2,174 213.5,174.6 213,175.4 
	213.5,175.6 214,176.7 213.8,178.6 213.9,181.3 213.1,182.2 213,183 213.7,184 214.7,183.6 214.5,184.2 215.1,185 215.7,185 
	215.8,185.5 215.2,186.3 214.7,187.5 212.5,189.7 212,190.9 210.3,192.5 208.2,193 206.5,194.2 204.9,196.6 204.7,198.5 
	204.4,199.6 206.1,200.2 "/>
<polygon class="st0" points="198,224.4 197,225.3 196.4,226.3 196.4,226.7 196.8,227.2 197.4,227 197.9,226.1 197.8,225.4 
	198.1,224.6 "/>
<polygon class="st0" points="198.4,230.8 197.2,231.4 196.3,232.5 196.4,233.6 197.6,233.6 198.9,233.1 199.4,233.9 201.2,234.3 
	202.2,234.7 203.8,237.1 204.6,237.1 205.7,236 210.2,226.7 211,225.9 216.9,224 219.4,222.2 223.3,218.6 224.9,214.8 225.9,214.8 
	226.2,214.3 226.5,212.9 226.4,211.8 225.2,209.6 225.2,209 224.9,208.1 225,208.1 224.8,208.1 224,207.6 223.8,206.9 222.9,206.4 
	221.2,205.8 220.8,205.7 219.9,206.4 220,207.6 219.3,208.2 217.4,207.8 216.7,207.3 214.7,206.4 213,206.2 212.7,205.5 
	212.9,204.6 211.6,203.2 210.6,203.2 208,201.5 206.1,200.2 204.4,199.6 204.1,200.9 202.5,201 199.7,202.9 198.3,203 196.8,203.8 
	197.6,205.1 197.6,205.9 198.1,206.7 197.8,208.3 195.6,210.6 195.5,211.6 196,212.3 194.9,213.9 193.7,214 192.7,215.5 
	193.1,216.4 193.5,217.6 193.4,218.5 193.6,220.2 193,221.2 192.4,221.8 193,222.7 194.3,223.2 195.5,224.4 196.4,225 196.9,224.6 
	197.4,223.3 197.7,222.6 198.6,221.7 198.6,222.7 198.7,223.6 198.9,223.1 198.9,222.2 199.2,222.2 199.6,223.7 199.3,225.3 
	199.5,226.2 198.9,227.7 197.4,228.9 197.9,229.2 "/>
<polygon class="st0" points="259.7,316.1 260.4,316.3 261.6,315.6 262,314.6 260.9,313.6 261.3,312.6 261.9,311.7 262.7,311.8 
	262.5,311.1 261.8,311 261.3,310.5 262.2,308.6 263.5,307.7 264.7,306.2 264.8,304.8 263.1,301 263.7,300.1 263.6,298.6 
	263.2,297.9 263,296.7 263.7,295.9 264.1,293.9 263.9,290.2 263.4,288.6 264.1,286.8 264,282.8 265,281.2 265,280.4 259.6,272.8 
	259.6,272.8 259.5,272.7 258.9,272.5 258.3,272.6 257,272.6 255.9,273 254.8,273.1 254.1,272.5 254,271.1 253.7,267.7 253.8,265.7 
	254.2,265.2 254.4,264 253.9,263.3 251.8,264.5 249.4,266.8 246.4,266.6 244,266.5 243.6,264.9 242.4,263 240.7,262.7 237.1,263 
	238.5,261.2 235.7,256.7 234.2,255.1 234.4,254.2 234,253.2 234.5,252.2 234.7,250.9 234.3,250.1 234.9,249.5 235,248.3 
	236.6,247.3 237.4,247.4 238.4,246.5 237.8,245.5 237.3,243.5 238.9,241.9 238.6,241 239.2,240.2 239,238.7 240.1,238 241.4,237.4 
	242.6,236.2 243.3,236 244.1,235.2 247,234.6 250.9,233.3 251.4,232.4 251.8,232.6 253,232.6 253.4,232.5 254.7,233.3 254.6,233.7 
	255.8,234 256.3,233.2 255.9,231.4 255,230.4 253.6,230.5 252.3,230.7 252.1,230 255.8,223.7 255.7,222.9 254.6,223.2 254,222.4 
	252.8,221.8 252.1,221.9 251.6,221.2 250.6,221.2 248.6,222.1 247.2,221.4 245.7,221.1 243.9,221.9 243.3,222.4 241.9,222.5 
	240.9,222.2 239.7,222.5 238.6,222.1 238.3,221.2 238.6,220.7 238.1,219.2 237.2,218.8 236.8,218.6 236.8,217.3 235.6,215.6 
	232.9,214.7 232.2,214.7 231.2,212.9 231.1,211.8 229.7,210.2 229.4,209.6 228.1,209.3 226,208.8 225.4,208.1 225,208.1 
	224.9,208.1 225.2,209 225.2,209.6 226.4,211.8 226.5,212.9 226.2,214.3 225.9,214.8 224.9,214.8 223.3,218.6 219.4,222.2 
	216.9,224 211,225.9 210.2,226.7 205.7,236 204.6,237.1 203.8,237.1 202.2,234.7 201.2,234.3 199.4,233.9 198.9,233.1 197.6,233.6 
	196.4,233.6 196.3,232.5 197.2,231.4 198.4,230.8 197.9,229.2 197.4,228.9 197.3,229 194.5,230.2 193.5,231.2 191.5,233.1 
	191.1,234.6 190.6,235.7 190.7,236.3 191.6,237 191.8,237.8 191.1,238.3 191.1,238.9 192.2,239.9 193,241.6 192.9,242.7 
	192.1,242.7 191.1,243.1 190.8,244 191.8,244.9 192.9,245.4 194.6,246.8 196.2,247 198.6,248.6 199.7,248.9 200,249.9 201.3,251.7 
	201.5,253.2 202.1,254.4 204.4,255.6 205.5,257.3 205.8,259 206.5,260.1 206.7,262 207.5,263.2 208.4,263.8 209.4,265.6 209.6,267 
	209.3,267.5 210.2,269.5 212,271.7 212.7,272.9 212.4,273.9 212.7,274.7 213.4,274.9 215.3,276.7 215.8,277.7 216.1,279.3 
	216.6,280 218.1,280.6 218.4,281.9 220,284.6 220.4,285.9 222.4,288.6 222.4,289.7 221.9,289.9 221.4,289.5 221.3,290.1 
	221.5,291.1 221.5,291.9 222.2,291.8 222.9,292.3 223.1,293 222.9,293.6 224.8,294.9 226.6,295.9 226.7,296.6 227.5,297.7 
	228.6,297.8 229,298.4 229.5,299.4 230.2,299.8 231.9,299.7 232.5,299.1 232.1,300.1 233.1,301.2 235,302.2 235.8,302.9 236,303.8 
	236.8,304.4 238.2,304.9 238.7,304.7 239.7,305 241.9,306.3 243.4,306.9 244.5,306.9 245,307.2 245.4,308 246.9,309.1 247.8,309.7 
	249,310.8 249.8,311.2 250.2,311.9 250.1,312.5 250.1,313.3 251.4,313.6 252.7,314.1 254.3,315.7 255.8,317.1 256.8,317.4 
	257,317.6 258.4,316.9 "/>
<polygon class="st0" points="265,280.4 265,281.2 264,282.8 264.1,286.8 263.4,288.6 263.9,290.2 264.1,293.9 263.7,295.9 
	263,296.7 263.2,297.9 263.6,298.6 263.7,300.1 263.1,301 264.8,304.8 264.7,306.2 263.5,307.7 262.2,308.6 261.3,310.5 261.8,311 
	262.5,311.1 262.7,311.8 263,311.9 263.1,313.4 264.2,314.4 264.9,315 265,316.1 264.8,317.2 265,317.8 265.3,319.7 266.2,321 
	268.8,323.1 269,324 268.4,325.7 268.8,326.9 267.4,329.9 268.2,331.1 271,333.7 275.3,345.1 276.8,345.1 277.2,344.4 278.2,344.2 
	278.2,344.2 278.9,343.3 279.9,341.2 282.1,338.9 283.6,338.4 285.1,339.6 286.7,339.5 287.7,339.2 289,339.6 291,339.1 
	292.1,339.3 292.4,340.8 293.2,343.2 293.6,343.9 294.1,343.2 294,342.1 294.7,341.1 294.7,340 295.6,338.6 298.9,338.6 
	301.8,338.7 302.9,339.7 303.4,337.8 304.9,334.7 305,333.1 304.8,331.6 304.2,330.6 306.1,327.9 306.8,325.8 306.8,324.8 
	308.1,324 316,321.8 322.6,321.9 326.4,324.7 327.3,324.9 328,325.6 328.7,324.5 328.6,323.7 331.4,318.1 331.2,315.2 328.2,309.9 
	325.2,309.3 325.4,306.9 324.9,303.3 314.8,303.1 314.9,300.5 312.8,296.8 313.4,295.5 313,293.3 313.3,290.7 312.8,289.7 
	310.5,288.3 307.1,288.7 305.6,287.8 304.5,287.5 304.2,285.8 302.6,285.3 300.1,284.4 299.2,284.5 297.1,282.3 295.6,282.7 
	293.6,280.7 291.2,281.3 290.7,281.9 289.5,280.7 287.6,279.5 286.3,278.9 285.9,277.1 284.6,276.5 283.6,274.4 284.1,273.2 
	283.3,270.6 284.2,268.9 283.6,266.8 283.7,265.5 283.1,264.9 281.7,265.8 280.6,264.9 279.3,264.9 277.5,265.8 275.6,266.2 
	272.8,267.9 271.9,270.5 270.2,271 268.8,271 267.5,272 266.6,272 265,272.9 263.3,272.8 259.6,272.8 259.6,272.8 "/>
<polygon class="st0" points="326.4,324.7 322.6,321.9 316,321.8 308.1,324 306.8,324.8 306.8,325.8 306.1,327.9 304.2,330.6 
	304.8,331.6 305,333.1 304.9,334.7 303.4,337.8 302.9,339.7 303.1,339.9 304.4,341.3 305.5,341.6 306.9,344.1 310.5,347.7 
	311.9,347.9 313.3,349.1 314.2,350.6 317.7,351.4 319.9,352.6 321,352.8 323.5,355 326.1,356.3 329.5,356.8 330.9,358.3 
	332.6,359.7 333.2,361.1 332.9,362.4 332,363.7 331,364.5 330.4,365.4 330.7,366.6 329.9,368.9 328.1,370.7 327.8,372 328.8,371.9 
	332.9,371.3 336.3,372.3 338.7,373.8 340,373.2 340.8,373.2 341.4,373.8 342.5,372.3 343.1,372.1 344.3,372.4 345.3,371.1 
	345.8,369.7 348.4,367.8 348.8,366.6 349.6,365.2 350.6,364.3 350.7,362.2 350.5,361.6 350.6,360 351,359.8 351,359.1 351.2,358.5 
	351.2,357.8 351.3,357.6 351.6,356.9 351.7,351.5 352.3,350.6 351.4,350.4 350.6,349.6 349.3,349.1 347,350.4 346,350.1 345,347.9 
	343.5,341.6 343.1,340.3 342,340 340.6,339 337.9,340.1 336.3,339.5 333.6,339.6 332.7,339.2 330.6,339.4 330.1,338.2 330.6,336.9 
	330.2,335.5 330.8,332 329.6,330.3 329.6,328.5 328.1,327.4 328.5,326.2 327.3,324.9 "/>
<polygon class="st0" points="361.2,412 361.1,411.7 360.9,411.3 360.3,409.6 361.4,408.1 361.7,406.5 360.4,405.6 359,403.4 
	357.6,401.8 355.4,400.8 354.3,401 354.2,399.5 352.9,398.1 351.5,397.8 349.9,397.1 348.6,395 348,394.9 346.9,396.1 346.2,396.1 
	344.9,393.9 344.2,392.3 343,391.8 341.7,390 340.5,389.2 337.6,390.1 337,389.7 336.1,389.7 336,390 335.5,391.3 334.4,392.6 
	334.8,394.4 334.3,395.3 334.7,396.3 334.5,398.8 334.1,399.7 334.2,400.7 333.5,402 334.1,403.8 333.6,404.4 333.9,407 
	334.4,408.8 334.1,409.7 333.2,410.5 333,410.8 333,411 333,413.5 333.8,415.5 335.5,417.9 336.1,418 337.7,419.6 338.5,419.8 
	341.1,419.6 342.6,419.7 343.9,420.6 344.8,420.8 345.7,420.8 346,421.1 345.8,421.6 345.8,422.2 347,422.2 348.2,421.5 
	349.8,421.2 351,421.6 351.7,422 352.3,421.9 353.1,422.2 354,422.3 354.6,421.9 354.7,421.2 355,421 355.5,421.4 357.6,420.6 
	359,419 359.4,418.4 359.2,418.2 359.7,417.3 360.8,416.3 360.8,414.7 361.8,413.6 362.2,413.2 361.9,412.9 "/>
<path class="st0" d="M257,496.9l0.2-0.5l1.5-0.3l0.5-0.6l-2.4,0l-0.3,0.9C256.5,496.4,257,496.9,257,496.9z"/>
<polygon class="st0" points="257.8,531.3 258.8,529.8 259.5,529.5 259,528.6 257.7,528 257.5,527.6 256.8,528.2 257.4,530.2 
	257.4,531 "/>
<polygon class="st0" points="257.3,526.1 256.9,525 256.1,524.6 255.7,524.5 255.7,526.1 256.3,526.5 256.4,527 257.1,526.9 "/>
<polygon class="st0" points="257.7,534.3 258.2,534.9 258,535.6 258.6,536.2 259.3,535.7 259.6,534.7 258.9,533.6 "/>
<polygon class="st0" points="255.5,492.4 255.7,492.9 256.3,493.1 257.2,492.8 257.3,492.3 256.8,491.6 255.9,491.6 "/>
<polygon class="st0" points="259.6,495.2 260.4,495.2 260.1,494 "/>
<polygon class="st0" points="258.9,503.4 258.5,502.5 257.5,502.3 257.1,501.8 256.7,502.5 257.8,503.7 "/>
<polygon class="st0" points="260.7,542.7 261.2,542.2 262,541.7 260.7,541.7 "/>
<polygon class="st0" points="257.5,491.6 257.7,491 257.2,490.7 257,491 "/>
<polygon class="st0" points="266.8,543.3 265.8,541.7 265.1,541.7 264.3,541 263.8,541 263.8,541.5 264.7,542.8 265.7,543.2 
	267.2,544.5 "/>
<polygon class="st0" points="259.4,497.6 258.6,497.7 257.3,498.1 257.8,498.6 259.3,498.6 "/>
<polygon class="st0" points="261.4,536.7 261.9,536.3 262.2,535.1 262.6,536.1 262.8,537.4 263.4,537.7 264.2,537.1 264.2,535.4 
	263.6,533.8 263.8,533.4 263.7,531.3 263,530 262.4,527.5 261.7,527 260.1,527 259.5,527.5 259.5,528.8 260.2,529.5 259.8,530.5 
	260,531.1 260.5,531.1 260.9,530.4 260.9,531.2 260,531.9 258.9,532.1 260,534.4 260.4,535.7 "/>
<polygon class="st0" points="264.3,543.3 263.7,543.4 264,544.9 265.2,546.4 266.2,546.4 266.7,545.6 265.5,543.9 "/>
<polygon class="st0" points="259.5,502.8 260.2,502.1 259,502.1 "/>
<polygon class="st0" points="255.7,503.4 256.3,503.5 256.2,502.5 255.7,502.5 "/>
<polygon class="st0" points="257.3,494.6 256.8,493.5 255.6,493.4 255.8,494.1 255.8,495 256.5,494.7 "/>
<polygon class="st0" points="253,488 253.6,488.6 255,488.1 254.3,487.5 253.4,487.5 "/>
<polygon class="st0" points="256.6,488.8 257.2,489.5 258.4,488.7 256.8,488.4 "/>
<polygon class="st0" points="252,496.3 253.4,496.9 253.8,496.2 253.2,495.6 252.1,495.6 "/>
<polygon class="st0" points="254,495 254.5,495.5 255.2,494.9 254.6,494.3 "/>
<polygon class="st0" points="258.6,489.6 259.4,490.2 259.5,490.9 260.2,490.5 260.1,489.3 259.2,489.1 "/>
<polygon class="st0" points="259.2,494.6 259.2,493.1 258.1,493.5 "/>
<polygon class="st0" points="258.5,500.7 257.5,500.8 258.4,501.7 "/>
<polygon class="st0" points="260,526 261.1,525.9 262.3,526 261.7,524.1 260.8,523.3 260.7,522.1 259.7,521.6 259.5,519.8 
	258.6,520.3 257.6,520.4 257.2,521.1 258.3,522 259.6,524.1 259.9,523.7 260.4,524.1 259.7,524.8 "/>
<polygon class="st0" points="255.9,521.5 255.5,521.9 255.5,522.6 255.7,523.9 256.9,524.1 257.6,524.7 257.5,525.2 258,526.9 
	258.9,527.4 259.2,526.8 259.3,525.6 258.3,524.1 256.8,521.7 "/>
<polygon class="st0" points="263.2,543.7 263.2,542.7 262.9,542 262.6,542.9 262.9,544.1 "/>
<path class="st0" d="M272.6,566.3l-0.5,0.4l1.2,0.4C273.3,567,272.5,566.3,272.6,566.3z"/>
<polygon class="st0" points="270.3,551.7 269.6,550.3 269.2,550.3 269.2,552 269.8,552.8 271.2,553.4 271.6,553.4 271.2,552.7 "/>
<polygon class="st0" points="284.9,569.5 284.5,568.6 283.7,568.3 282.5,568.6 282.2,568 281.5,567.7 279.9,566.5 278.7,566.6 
	277.7,567 277.1,566.8 276.5,566.2 275.6,566.3 275.3,566.7 275.4,567.3 276.5,567.9 276.9,568.9 277.9,569.2 279.1,570.5 
	279.9,570.7 281.2,570.4 281.8,570.8 281.9,571.6 282.6,572.3 283.4,572 283.1,571.4 284,570.6 283.9,570 283.5,569.6 284,569.4 "/>
<polygon class="st0" points="271.5,555.1 271.3,554.2 270.5,554 270.1,554.3 271,555.2 "/>
<polygon class="st0" points="280.2,571.3 280.5,571.5 281,571.8 281.4,571.4 280.8,570.8 "/>
<polygon class="st0" points="277.3,566.2 278.5,566.2 278.6,565.8 278.3,565.4 277.8,565.3 276.7,564.5 276.2,564 274.9,564 
	274,563.5 273,563.1 272.1,563.1 271.3,562.6 270.1,561.2 269.4,560.7 269.1,561.3 269.4,562.4 270.1,563.8 271.3,563.9 
	272.9,564.6 273.4,565.5 274.3,565.5 274.8,565.2 276.3,565.8 "/>
<polygon class="st0" points="267.6,554.7 267.6,555.8 267.2,556.3 267.4,556.7 267.9,556.4 268.4,555.1 268.2,554.5 "/>
<polygon class="st0" points="269.8,553.8 269.5,553.2 268.4,552.6 268.6,553.2 269.5,553.8 "/>
<polygon class="st0" points="269.9,555.3 270.3,556 271.6,557.4 272,557.2 272.1,556.3 270.2,554.9 "/>
<polygon class="st0" points="270.9,558 270,558.3 270.5,558.7 271.6,558.6 271.8,559.2 272.3,559.7 272.8,560 273.4,559.1 
	273.1,558 271.7,558.2 "/>
<path class="st0" d="M311,584.4l0.5,0.4l0.8-0.8h-0.6C311.7,584,311,584.5,311,584.4z"/>
<polygon class="st0" points="284.8,571.6 284.1,572.4 284.2,573.1 284.9,572.9 285.5,572 285.7,571.7 285.1,571.5 "/>
<polygon class="st0" points="312.8,581.8 313.1,582.4 312.5,583.2 313,583.8 313.7,583.9 313.7,582.9 313.6,582 "/>
<polygon class="st0" points="303.6,574 302.5,573.3 300.5,572.5 297.6,571.6 296.3,571.2 296.2,571.6 296.6,572.1 296.1,572.5 
	295.6,572.3 293.7,571.5 292.6,570.9 292.3,571.2 292.8,571.8 295.3,572.9 295.4,573.4 294.7,573.4 294.5,573.5 294.4,574 294,574 
	293.7,573.4 292.5,572.6 292.1,573 292.2,573.7 291.5,573.8 289.6,574 289.2,574.2 289.6,574.6 289.4,575 288.5,574.8 287.4,575.1 
	287.6,575.7 288.9,575.9 289.9,575.9 290.2,575.3 290.5,575.1 291.2,575.4 292.3,576.2 292.8,575.9 293.2,576.3 293.2,577 
	293.9,577.4 293.1,577.8 292.6,578.9 293.2,579.6 293.9,579.6 294.6,579.8 295.6,580.8 296.3,580.8 296.4,580.4 295.7,579.9 
	294.6,579.2 294.4,578.6 294.7,578.6 295.5,579 296.2,578.5 296.4,578 295.6,577.8 295,577.4 297.4,576.4 298.4,576 303,577.1 
	303.6,576.7 303.4,576.1 304.8,576.1 304.2,573.9 "/>
<polygon class="st0" points="292.9,566.4 292.7,565.2 292,564.8 291.8,565.9 291.4,567 291.9,568 291.5,568.7 291.5,569.5 
	292.6,570.1 293.7,570.4 294,570.8 294.5,570.3 293.2,569.3 294,568.6 293.5,567.9 293.6,567.5 "/>
<polygon class="st0" points="268.1,553.3 268.1,552.3 267.5,551.7 267,551.2 266.7,551.4 266.4,552 266.7,552.9 266.9,553.2 
	267,553.7 267.4,553.8 "/>
<polygon class="st0" points="312,579.5 312.8,578.9 313.4,578.3 312.8,577.7 312.6,576.7 311.6,576.4 309.9,576.5 308.5,576.6 
	306.7,576.4 305.2,577.1 302.4,577.7 301.1,577.5 300.5,577.7 299.6,577.7 298.8,578.1 299.4,578.6 300.1,578.3 301,578.8 
	299.4,579.4 298.5,579.9 298.4,580.3 299.3,581 300.2,580.3 299.8,581.2 300.6,581.5 300.9,582 301.6,581.7 302.9,582.3 
	303.4,582.3 303.6,581.4 302.7,580.9 302.8,580.4 304,580.3 304.4,581.3 305.2,581.9 306.1,581.4 306.9,581.6 308.2,582.8 
	308.7,582.9 308.7,581.8 307.5,580.8 306.5,580.4 306.9,580 306.4,579.6 305,579.3 304.7,579.4 303.6,578.6 305,578.4 305.7,578.4 
	306.5,577.5 307.4,577.5 307.9,578.6 308.4,579.3 309.7,579.2 310.8,578.5 311.4,578.8 "/>
<polygon class="st0" points="290.2,578.8 290.9,579.5 291.6,578.8 291.1,578.4 "/>
<polygon class="st0" points="288.6,572.3 289.1,571.9 289.5,572.4 290.4,572.7 291.1,572.2 290.8,571.5 291.2,570.6 290.8,570.4 
	290.2,570.5 289.7,571 289.2,570.2 287.2,569.7 286.8,570 285.3,570.2 285.3,570.8 285.9,571.1 286.4,572 286.9,571.5 288,571.7 "/>
<polygon class="st0" points="291.3,577.1 290.5,576.7 290.2,577.4 290.6,577.8 291.2,577.7 "/>
<polygon class="st0" points="253.8,476.9 253.6,477.8 253.8,478.5 254.2,478.8 254.7,480.3 254.9,483.8 254.3,485.1 255.6,485.6 
	257.5,485.4 257.6,484.9 257.4,483.7 257.9,482.9 259.1,483.3 259.3,483.1 258,481.9 258.5,481.4 257.3,480.1 257.2,479.5 
	257.8,479.4 259,480 259,479.8 258.6,479.2 257.2,478.3 258.5,478.6 258.5,477.5 258.2,477.1 258.3,475.5 257.3,474.1 256.3,473.6 
	255,473.6 254.2,474.4 254.1,475 254.5,475.5 254.4,476.4 "/>
<polygon class="st0" points="264.9,550.8 265.2,551.3 265.4,551.5 265,552 264.7,552.5 265,553.4 265.5,553.8 266.2,553.9 
	265.6,553 266.2,552.6 266.3,551.5 265.8,550.7 "/>
<polygon class="st0" points="260.5,498.8 259.3,498.8 258.3,499.4 258.9,499.9 259.3,501.1 260,501.5 260.7,500.6 "/>
<polygon class="st0" points="261.1,492.1 261.4,492.6 262.5,492.5 261.5,491.8 "/>
<polygon class="st0" points="261.4,496 261.5,497.3 262.4,496.4 262.9,496.6 263.5,496.9 264.2,496.7 264.6,495.9 265.2,495 
	264.3,494 264,493.2 262.9,493 261.8,493.4 261.2,495.1 "/>
<polygon class="st0" points="259.7,477.2 260.7,478 261.1,477.4 260.5,476.8 "/>
<polygon class="st0" points="262,488.6 260.9,489.3 261.3,490 262,489.3 "/>
<polygon class="st0" points="266,549 266.1,548.6 267,548.6 267.1,547.9 265.4,546.9 264.7,546.9 263.9,546.2 263.2,546.4 
	263.8,547.4 263.2,548.5 262.7,549 263.2,549.4 264.8,549.1 "/>
<polygon class="st0" points="296.7,552.2 296.3,551.8 288.9,551.8 284.7,552.5 283.8,551.9 281,551.7 280.1,549.3 279.5,547.3 
	278.3,546.2 277.9,542.8 277.9,541.3 276.7,541.4 274.9,542.3 273.9,543.4 272.7,543.4 270.1,538.3 269.8,536.5 270.5,531.3 
	271.8,529.6 273.7,527.5 274.3,524.6 273.7,521.5 273,519.3 273.4,516.7 274.6,515.4 273.5,512.6 273.6,511.3 274.7,510.2 
	274,507.8 273.6,504.6 272.8,503.1 272.9,502 274.4,500.7 274.4,499.4 273.2,497.2 271.3,495.9 270.1,495.9 269.7,496.3 269,495.6 
	269.4,494.6 272,494.6 273.3,493.1 273.2,491.7 272.4,491.4 271.6,492 270.5,491.8 269.9,489.2 268.8,486.8 268.8,485.2 
	268.9,483.2 267.1,482.6 266.5,480.9 266.3,476.5 267.5,475.7 267.9,474.2 267.3,473 266.2,472.5 265.7,469.8 265.5,466 
	265.9,461.7 264.8,459.9 264.5,458 266.7,455.1 267,452 268.5,451.2 269.3,450.2 265.9,443.5 266.3,441.2 266.3,439.6 266.3,435.6 
	267.5,433.2 268.8,431.8 268.6,429.7 267.4,427.8 266.6,427.1 267.9,425.2 267.6,422.9 268.6,420.6 269.7,420.2 270,417.5 
	269.5,413 268.6,412.2 267.9,408.9 267,407.1 265.7,405 265.5,403.9 264.5,402.5 263.9,399.7 264.2,397.5 265.8,396.8 265.8,393.9 
	266.7,392.7 266.8,390.2 265.8,388.3 265.6,384.7 266.4,383.9 266.8,379.6 267.9,378.2 269.4,374.3 270.9,372.8 272,372.2 
	272.9,371.2 272.4,370.6 272.3,369 271.9,368.2 271.2,367.6 271.4,366.5 272.5,365.7 272.5,364.2 271.2,362.6 270.9,360.7 
	271.6,359.5 271.3,358.4 270.1,357.4 270.5,355.9 277.4,352.3 278.9,345.8 278.2,344.2 277.2,344.4 276.8,345.1 275.3,345.1 
	271,333.7 268.2,331.1 267.4,329.9 268.8,326.9 268.4,325.7 269,324 268.8,323.1 266.2,321 265.3,319.7 265,317.8 264.8,317.2 
	265,316.1 264.9,315 264.2,314.4 263.1,313.4 263,311.9 262.7,311.8 261.9,311.7 261.3,312.6 260.9,313.6 262,314.6 261.6,315.6 
	260.4,316.3 259.7,316.1 258.4,316.9 257,317.6 257.5,318.1 257.6,319.7 257.5,320.9 257.7,322.5 258.7,326.8 258.7,328.4 
	258.3,329.6 257.7,330.3 258.2,332.5 258.9,334.6 259.6,336.4 259.6,339.4 259.3,340.3 259,340.8 259.2,344.9 259.2,345.8 
	258.4,346.3 257.6,346.9 257.8,349.2 258.1,349.7 258.9,349.2 259.3,349.6 258.6,350.3 258.7,356.3 259.5,358.6 259.7,360.4 
	259.5,361.8 258.5,363.4 258.5,364.9 259.6,366.8 259.3,368 259.2,370.9 258.6,372 258.6,373.6 258.9,374.4 258.9,375.1 
	257.9,376.6 257.8,378.1 257.3,379 257.6,380.8 257.4,381.6 256.4,383.8 256.4,384.7 257.5,386.3 257.7,388 258.3,389 257.5,389.6 
	257,390.9 257.8,391.9 257,392.9 256.2,393.2 256.1,394.7 256.4,396 256.5,397.2 257.8,400.6 257.8,402.5 257.3,403.1 257.4,404.2 
	258.6,405.9 258.7,407.9 258.3,409.4 258.4,409.9 258.7,410.9 258.5,411.8 258.2,412.8 258.5,413.4 259.8,415.2 260,416.2 
	259.4,417.1 258.5,417.7 257.7,419.3 257.7,419.8 258.2,420.3 257.8,421.7 257.1,422.5 257.1,423.4 256.9,425.2 256.4,426.1 
	256.5,427.1 256.2,427.6 256.1,429 255.4,429.8 255.5,430.4 255.9,431 255.2,432.1 255.2,433.6 255.1,434.6 254.3,435.1 
	254.3,436.2 253.9,436.9 253.8,437.8 254.2,438.7 254.2,439.9 253.6,440.8 252.9,440.9 252.2,440.4 251.4,440.6 251.2,441.3 
	251.5,442.5 251.5,444.3 252.3,445.4 253.5,446.5 253.7,447.7 253.5,449.2 255.3,452.2 255.6,453 256.3,453.7 256.3,455.7 
	255.8,458.2 255.3,458.6 255.5,459.3 255.3,460.1 254.9,459.8 254.3,459.9 253.9,461 254.2,462 254.9,462.7 254.3,465 254.5,466.1 
	254,466.7 254.6,467.3 254.4,468 254.1,468.4 254.5,469 256.3,471.8 256.8,472.3 257.2,473.2 258.9,473.9 260.5,473.5 260.6,471.9 
	260.8,471.5 261.9,471.6 262.7,472.6 263.1,472.4 263.8,472.2 263.3,473.1 262,474.2 262,475 263,475.4 263.6,475 263.8,475.8 
	263.9,477.8 264.4,478.5 264.1,478.8 263.6,478.2 263.2,477.3 262.5,477 262.2,477.5 262.3,478.1 263.4,478.9 263.6,479.5 
	262.8,479.7 262.3,480.2 262.4,481.6 263.4,482.5 262.5,483.5 262.4,484.3 262.8,484.6 261.8,485.7 262,486.3 263.2,487 262.9,488 
	262.7,489.4 262,490.3 261.9,491 262.5,491.6 263.6,491.6 264.3,492.3 264.5,493.2 265.5,493.3 265.9,494 265.8,495.9 265,497.1 
	263.5,498 262.8,498 262.7,499.1 263.1,500.4 262.7,500.9 262.8,501.6 263.2,501.9 262.4,502.9 261.8,504.7 261.7,506 262.4,506.3 
	262.1,506.9 262,509.1 261.2,509.5 261,510.6 260.6,510 261,509.4 261.3,507.6 261.2,506.6 261.4,506.1 260.9,505.9 259.4,506.4 
	258.3,507.1 257.7,507.1 257.7,506.6 258.7,506.2 259.4,505.7 259.4,504.1 259,503.8 257.8,504.2 255.8,504.3 255.1,504.1 
	254.4,504.3 254.3,505 254.9,506.2 255.3,506.2 255.6,507.1 254.9,507.3 254.5,508.3 253.7,508.9 253.3,509.9 251.8,510.7 
	251.7,511.6 253.3,513.3 254.1,513.4 254.7,512.9 254.6,512.2 253.6,511.9 253.4,511.3 254,510.2 255.4,510.1 255.7,509.7 256,511 
	257.1,511.7 258.3,511.7 258.9,511.1 259.6,511.4 260,512.1 261.5,512.8 262.1,513.5 261.4,513.6 261.2,514.2 261.7,514.9 
	261,515.3 260.5,516.1 260.9,516.8 262,517.5 261.8,517.8 260.8,517.3 260.4,516.8 259.8,516.9 259.7,517.8 260.6,518.6 
	260.9,519.4 262.5,519.6 264,518.8 264.6,519.5 265.2,519.4 266.2,519 265.8,519.7 266,520.2 265.6,520.4 264.6,520.4 264.3,520.9 
	263.5,520.2 261.7,520.7 261.3,521.5 261.5,522.1 262.6,522.8 262.9,523.8 263.8,524 264.7,523.6 264.6,524.2 263.7,525 
	263.7,525.6 263.9,526.1 263.6,526.7 262.9,526.8 262.9,527.5 263.5,530.3 264.1,531.1 264.1,532.4 264.8,533.5 265.7,533.9 
	265.7,532 266.3,529.8 267,529.3 267.3,529.8 266.8,529.8 266.1,532.2 266.2,532.8 267.1,533.4 267.8,533.4 267.5,533.7 266.2,534 
	265.2,534.9 265.4,535.5 265.1,536.5 265.1,537.5 264.6,537.9 264.1,538.9 264.2,539.6 265.8,540.8 268,541.3 268.8,541.9 
	268.7,542.5 268.2,542.5 268.5,543.6 268.9,544.2 269.8,543.1 269.8,544 269.5,544.7 268.6,545 268,545.9 268.5,546.3 269.4,546.3 
	269.4,547 270.2,548.1 270.8,548 271.4,547.4 271.3,548.5 271.6,549.6 271.1,549.5 270.6,549.2 270.1,549.2 269.8,549.9 
	270.9,551.2 271.2,551.3 271.6,552.5 272.1,553.2 273.1,554.1 273.9,553.9 273.3,552.4 273.6,551.7 273.3,550.9 274.3,551.5 
	274.4,552.4 275.1,553.4 275.5,552.2 276.2,551.5 276.2,550.8 275.4,550.5 274,550.3 274,549.9 274.9,549.9 276.7,550.4 277,550.8 
	278.2,550.9 277.9,549.9 276.8,549.3 274.7,549.2 274.7,548.7 275.3,548.5 277.1,549.1 278.9,550.2 279.2,551.5 278.4,552.4 
	278.4,553.2 279.1,554.8 279.1,555.6 278.2,556.2 278.6,554.9 277.9,553 277.1,552.4 276.6,553.1 276.5,554 277,554.7 276.6,555.6 
	276.2,555.1 276,554.1 275.3,554.1 274.5,554.8 273.2,554.8 272.1,555.2 273.1,555.9 273.2,557.3 273.7,558.2 273.8,558.9 
	273.5,559.5 273.7,559.8 274.4,560 274.9,559.1 275.4,559.4 276.3,559.7 276.3,560.1 275.5,560.4 274.7,561.1 274.9,561.7 
	276.3,561.8 277.8,562.7 278.4,562.5 278.9,561.8 278.4,560.6 278.7,559.7 278.4,558.8 277.9,559.1 277.1,559 277.4,558.6 
	278,558.2 278,557.5 278.5,557.3 279.8,557.7 280.3,557.3 280.6,557.9 281.1,558.2 281.4,557.6 282.5,557.4 283.5,557.7 
	284.6,557.6 285.6,557.6 285.7,558.1 285.1,558.4 284.6,559.1 283.9,558.9 283.2,558.4 282.5,558.6 280.7,560.1 280.3,560.2 
	279.8,560.1 279.1,560.9 279.2,561.5 278.9,562.3 278.6,562.7 278.6,563.2 279.1,563.5 278.7,564 278.7,564.4 280.3,565 
	281.5,566.1 281.9,566.1 282.1,565.6 281.9,564.7 282.6,563.9 283.3,563.7 283.4,563.2 282.5,562.2 284,561.9 285,561.1 
	285.9,559.7 286.7,559.2 286.8,559.5 287.6,560 288.3,559.9 288.4,560.2 287.6,560.6 287.1,561.5 286.9,562.2 285.9,563.2 
	285.9,564.3 286.2,565.1 285.6,565.8 284.7,566.2 284.8,565.7 285.2,565.3 285.3,563.9 284.9,563.7 284.4,564.1 284.2,564.8 
	283.8,564.7 283.1,564.8 282.7,565.3 283.3,566.3 285.1,568 286.8,568.3 287.8,568.9 288.5,568.9 289.3,569.3 289.8,568.7 
	290.5,567.4 289.9,565.7 290.1,564.8 290,564.1 290.2,562.6 290.3,560.9 290,559.7 290.2,558.9 291.6,558.1 292.9,556.5 
	293.7,556.2 294.9,556.2 295.3,555.7 295.2,554.3 295.9,553.6 297.1,553.3 298.6,554.2 299.3,553.8 299.5,553.9 297.9,552.4 "/>
<polygon class="st0" points="301.2,562.5 301.3,562.3 299.6,555.8 298.1,556.4 297.6,556.8 296.7,556 295.9,555.8 295.4,556.7 
	295.7,557.6 295.5,558.3 294.5,559.3 294.2,559.8 293.1,559.1 292.4,558.9 291.7,559.9 292.4,560.4 293.2,560.3 293.1,561.2 
	292.1,562.1 292.4,562.8 292.5,564.1 293.7,565.5 294.5,565.5 295.3,564.6 297,563.6 298.2,563.7 298.5,564.6 297.8,566 
	296.6,566.3 296.4,566.9 294.6,567.7 294.6,568.2 294.8,568.8 295.9,569.8 297.1,570.6 298.1,570.5 300,571.2 302.8,573 
	304.1,573.3 301.4,562.6 "/>
<polygon class="st0" points="262.9,538.5 261.6,538.4 261.1,538.1 260.8,538.3 260.8,539 260.3,539.6 261,540.1 261.3,541 
	261.8,541 262.5,540.5 262.4,539.5 "/>
<polygon class="st0" points="302.2,108.9 303,108.7 302.6,107.8 "/>
<polygon class="st0" points="305,110.2 304.6,111.4 306.1,113.6 306.8,111.4 305.8,110.2 "/>
<polygon class="st0" points="308.5,112.8 307.5,113.5 308.4,113.9 "/>
<polygon class="st0" points="306.8,110.1 307.5,111.3 308.8,111.4 308,109 "/>
<path class="st0" d="M307,117.9l1.1-0.2l0-1.6l-0.9-0.9c-0.1,0.1-0.6,1-0.6,1L307,117.9z"/>
<path class="st0" d="M307.2,115.1L307.2,115.1C307.2,115.1,307.2,115.1,307.2,115.1z"/>
<polygon class="st0" points="309,122.7 309.9,123.2 309.9,122.2 309.4,120.1 307,119.5 307,120.4 308.5,121.9 308.2,122.7 "/>
<polygon class="st0" points="309.4,124.3 308,126.2 308.2,127.3 309.2,127.7 309.8,126.2 "/>
<polygon class="st0" points="316.7,129.9 317.4,130.9 318.8,130.8 318.8,129.8 317.8,128.8 "/>
<line class="st1" x1="306.8" y1="133.5" x2="306.8" y2="133.6"/>
<polygon class="st0" points="307.8,128.4 307.4,131.4 308.3,129.7 "/>
<polygon class="st0" points="304.7,135.7 304.3,137.1 305.6,137.1 306.3,136.2 305.9,135.5 "/>
<path class="st0" d="M307.4,134.6l-0.6-1.1c0,0.1-0.3,1.1-0.3,1.1H307.4z"/>
<polygon class="st0" points="309.2,143.3 307.1,144.3 306,143.8 304.8,144.2 304.4,144.9 305.5,145.8 305.6,146.9 304.5,147.9 
	303.3,148.3 304.6,148.8 307.4,148.4 308.6,147.4 308.6,146.1 308,145.1 309.3,143.8 "/>
<polygon class="st0" points="310.9,141.9 309.8,142.4 310.7,142.8 "/>
<polygon class="st0" points="130.1,121.1 130.6,120.7 130.7,120.2 130.5,120.1 130.3,119.6 130.4,119 130.3,118.7 130.2,117.8 
	133.6,112.4 141,112.3 141.6,111.7 141.5,110.9 140.9,110.6 139.9,110.5 139.6,110.1 139.4,109.2 139,108.5 138.3,108.5 
	137.4,107.9 136.5,106.7 136.2,106.1 135.4,105.4 137.8,105.2 138,102.2 148,102.3 148.1,101.5 148.7,101.1 149.5,101.1 
	149.6,101.6 149.8,101.7 150,101.4 150.5,101.3 150.5,101.1 151.3,100.1 151.5,99.2 151.7,98.8 152.4,98.5 152.9,98.6 152.8,98.6 
	153.8,97.7 155.1,96.2 155.7,96 155.6,97.2 155.1,97.7 155.1,98.1 156.4,98.8 156.9,99.9 157.1,99.7 158.2,97.8 159.1,94.2 
	159.7,93.2 159.1,93.3 158.6,93.9 158.1,93.7 158.1,93.2 159.3,91.8 159.6,91 158.6,91 157.9,90.4 158.2,90 159.3,89.3 159.5,87.7 
	160,86.9 162.5,84.6 163.8,82.5 164.7,81 164.6,79.7 162.9,77.6 161.9,77.7 162.1,78.4 161.4,78.6 158.8,78 156.5,78.1 156.6,78.6 
	155.2,79.3 154.7,78.8 153.3,79 152.5,80.1 147.6,80 143.8,81 143.8,81.8 144.8,81.9 142.6,84.3 142.4,87.8 142.6,88.3 140.5,90.5 
	140.5,92.5 139.4,93.8 138.5,94 136,95.4 136.2,95.6 137.3,94.9 137,95.9 137,97.5 135.8,98.8 135.2,98.9 134.9,99.5 134.3,98.8 
	132.9,98.3 133.2,97.6 134.4,97 132.7,96.5 132.2,97.2 131,96.8 129.5,96.8 128.4,97.7 127.1,97.8 125.1,97.9 124.7,98.4 
	122.3,99.8 121.7,99.8 121.2,99.2 119.2,99.6 117.8,100.3 117.4,98.8 116.1,97 114.4,96.3 114,95.9 112.5,95.8 111.9,95.9 
	111.2,95.1 108.8,92.3 108.5,91.4 108.5,90.5 107.5,88.9 107,87.6 103.8,84.2 103.6,83.1 102.9,82.1 103.3,81.4 103,80.6 
	102.4,78.2 101.5,77.4 101.6,76.2 102.9,77.8 103.1,79.9 103.5,79.5 103.4,77.8 101.9,75.5 102.1,74.2 101.7,72 101.4,71.1 
	102.4,69.9 102.6,67.2 102.4,65.4 103,62.5 102.9,61.7 103.3,60.9 102.9,60.4 102.9,59 103.5,58.5 103.9,56.8 104.1,56.3 
	103.4,55.7 104.1,54.9 104.1,53.2 105.1,53.3 104.9,54.4 104.7,54.9 105.4,54.9 105.5,53.9 106.4,52.6 106.7,51.3 107.2,50.8 
	107.4,49.3 107.5,48.8 106.7,49.4 106.4,51.1 105.4,51.7 105.7,50.9 105.2,50.7 104.8,50 103.8,49.7 102.7,49.2 100.8,48.5 
	99.9,47.6 99.2,47.2 98.4,47.3 97.8,47.1 97.6,46.9 97.1,46.3 97.2,44.8 96,41.5 95.9,41.1 96,40.8 96.1,39.8 96.2,38.7 95.2,37.7 
	94.7,36.8 94.4,35.7 93.5,35.2 93.3,34.4 92.8,34.1 92,32 91.7,31.2 91.1,30.9 91,29.6 90.9,28.7 90.6,28.2 90.1,27 89.3,25.6 
	88.1,24.7 87.6,23.8 86.9,23.5 86.1,23.6 85.9,23.3 85.4,23 84.4,23.1 83.4,23 82.3,23 82,23.7 81.6,23.7 81.4,23.6 81,23.5 
	80.3,23.7 79.7,24.3 78.9,25.9 78.4,26.5 78.5,26.8 78.4,27.3 77.8,27.4 77,28.1 76.9,28.4 76.4,28.7 75.9,28.6 75.5,28.2 
	74.4,27.6 73.4,27.3 73.2,26.9 72.1,26.3 71.4,26.3 71,25.9 71,25.5 70.8,25.1 70.2,24.9 69.8,24.9 69.4,24.4 69,24.4 69,24.1 
	68.8,23.3 68,22.4 67,21.2 67,20.8 67.7,20.6 68,20.4 68,19.5 67.3,18.9 67.1,18.4 66.8,18.4 66.4,17.9 66.3,16.6 65.7,15.8 
	65,15.3 64.2,15.1 64.5,14.6 64.6,14.1 63.7,13.4 62.8,13 63,12.5 62.5,11.7 61.9,11.7 61.8,11.2 61.3,10.6 60.4,9.3 59.3,8.6 
	50,8.3 49.9,10.4 33.4,9.9 13.9,1 14.1,0.5 13.8,0 0,0.2 0.2,1.6 1,4.6 1.6,5.8 2.2,6.6 1.8,7 1.6,7.9 2,9 3.5,10.8 3.5,11.5 
	3.1,11.8 3.4,12.5 4.6,13.6 4.7,14.7 4.4,15.3 4.3,16.4 5,17.1 5.3,17.7 5.4,19.7 5.9,21.2 6.9,22.2 7.6,22.2 9.2,23.8 10,24.9 
	10.2,25.8 11.7,27.3 12.2,29 12.7,29.2 13.5,30.4 12.8,31.3 12.8,31.9 13.2,32.6 12.9,33.5 12.2,33.2 11.7,33.8 11.8,34.1 
	12.7,34.3 12.6,35 12.2,35.6 11.4,35.1 10,34.8 9.1,34.5 7.6,34.6 7.3,35 8.5,36.5 9.5,37 9.6,38.1 10.2,39.1 11.2,39.4 12.5,40.1 
	12.5,40.6 13.2,40.6 14,40.9 13.8,41.3 14.2,42.1 15,41.8 15.7,41.8 16.7,40.6 17.2,40.7 16.8,41.7 17.1,43.5 19.1,45.4 19.9,45.8 
	20.5,45.6 21.1,46.5 21.8,48.7 21.9,51 21.6,52.9 20.6,54.5 20.8,55.4 21.9,56.3 22.4,56.2 22.7,57 23.8,57.3 24.3,58.4 26.8,61 
	27.7,61.4 28.1,62.2 28.9,63.2 30.1,63.4 30.7,64.1 30.8,65.6 31.5,66.2 31.6,67 32.1,68.2 32.8,68.5 34.5,67.7 35.5,66.1 
	35.6,64.6 34.9,64.2 34.6,63.2 34,62.6 33.7,61.5 32.8,61 32.5,60.3 31.9,59.5 31.3,59.3 31,59.5 31.1,60.3 30.6,60.5 30.4,59.8 
	29.5,59.1 28.5,57.9 28.4,57.2 29,56 28.9,54.8 28.1,53.6 28.3,52.8 28.3,52.1 27.7,51.5 27.8,50.7 27.1,49.9 27.1,48.8 26.8,48.3 
	26.7,46.8 26.9,46 26.6,43.8 25.9,42.7 25.5,41.9 25.1,41.8 25.1,42.3 25.1,42.9 24.7,43.3 23.7,41.7 23.6,41 24,40.1 23.6,39.6 
	23.1,39.5 22.8,37.2 21.9,35.7 21.4,35.5 20.3,34.5 20.3,33.1 20.4,31.9 19.4,30.4 18.7,30.3 18.2,29.8 18.1,28.5 17.4,27.7 
	16.4,27.3 16.1,26.3 16.3,25.5 16,24 14.4,22.9 13.9,22.1 13.3,22 13.3,20.9 12.5,19.2 11.9,18.6 12.4,17.6 12.2,13.6 11.9,11.2 
	12.4,9.9 13,7.9 12.8,6.8 12.4,5.5 13.1,6.8 14.6,7.5 15.7,9.1 16.3,9.7 17.3,9.6 17.8,9.1 18.8,10 19.1,10.7 20.2,10.8 21.4,11.4 
	21.4,12 20.7,12.9 20.7,13.9 21.3,15.3 21.6,17.3 22.1,18.2 22.3,19.5 22,20.3 22.4,21.3 23.8,23.3 23.8,23.9 23.4,24.4 23.8,25.2 
	24.3,25.2 24.7,25.8 25.3,27.7 26.1,28 26.4,29 26.5,30.3 27,30.8 27.7,31 28.4,32.3 28.7,33.3 29.4,33.9 29.7,34.5 30.4,34.5 
	30.8,34.8 31.6,34.5 32.3,35 32.2,36.3 31.8,37 32,38.6 34,40.4 34.7,40.3 35.4,40.6 35.1,41.6 35.6,42.5 36.6,42.8 37.5,42.7 
	38.5,43.9 38.7,44.8 39.5,45.2 39.8,44.8 40.1,45.2 40.3,45.9 39.8,46.5 39.3,45.9 38.5,46.1 37.5,47.2 36.9,48.8 37.1,50 
	38.1,50.6 39.1,50.7 39.8,51.3 42,53.1 43.4,53.4 44.1,53.4 44.4,54.1 44.8,55.1 45.2,55.9 44.8,56.8 44.1,57.1 44.2,57.5 
	45.1,58.1 46.8,58.8 46.9,59.5 47.4,59.9 49,61.2 50.7,63.5 52,65.8 53.9,67.8 53.9,68.9 56,71.6 56.2,72.7 55.8,73.8 56.2,74.5 
	56.8,76.2 58.1,79.4 58.2,80.6 57.5,81.7 56.2,82.8 56,83.5 56.6,83.6 57.3,84.2 56.8,84.8 55.5,84.7 54.8,85.2 54.8,85.7 
	55.6,87.7 56.3,88.5 56.3,89.3 57.4,90.7 57.8,92.1 58.3,92.6 59.2,92.6 59.5,93.2 61.4,93.7 62.6,93.5 63.3,93.6 62.8,94.3 
	62.8,94.8 64.2,95.3 65.6,96.6 66.6,98.2 67.5,99.5 68.6,99.9 69.1,99.8 70.2,100.2 71,100.3 73.2,101.2 74,101.2 74.3,100.8 
	75,100.7 75.5,101.4 78.3,104.1 79.1,104.3 80.7,106 83.2,107 86.1,107.4 87.4,108.1 88.1,109.2 89.8,109.4 91.2,110.1 92.1,109.7 
	92.4,110 93.2,111.3 94.6,111.9 95.6,112 96.1,111.9 97.1,112.6 99.2,113.4 101.2,113.4 102.8,114.2 105.6,115.3 106.8,115.2 
	109.7,113.9 111,113.8 112.6,112.8 113.7,112.6 115.2,112.5 115.7,112.6 115.7,112.2 114.6,112.1 113.7,112.1 113.7,111.5 
	115,110.8 115.4,111 115.4,111.6 116.1,111.2 116.9,111.2 116.9,111.7 116.3,111.8 116,112 116.4,112.2 117.3,112.2 118.3,112.6 
	120.1,113.7 120.8,114.4 120.8,114.1 119.5,112.7 117.6,111.9 117.6,111.6 118,111.5 118.2,111.7 119.3,111.9 120.3,112.8 
	121.3,114.1 121.3,114.6 121.8,115.2 125.8,118.5 127,118.9 127.2,119.6 128.8,120.8 129.7,121.9 129.9,121.8 "/>
<polygon class="st0" points="333.2,410.5 334.1,409.7 334.4,408.8 333.9,407 333.6,404.4 334.1,403.8 333.5,402 334.2,400.7 
	334.1,399.7 334.5,398.8 334.7,396.3 334.3,395.3 334.8,394.4 334.4,392.6 335.5,391.3 336,390 336.1,389.7 336.3,389.2 
	337.3,388.4 337.3,387.9 338.3,386.3 339.1,385.4 340.3,383.3 340.7,382.6 341.6,382.4 341.5,381.1 341.9,380.2 343.7,378 
	344.4,378.1 345.2,377.9 345.3,376.5 346,376.2 348.1,374.4 349,374.2 349.5,373.4 351.8,371.9 352.2,372.1 353,371.4 353.2,370.9 
	354.7,370.2 355.8,370.2 356.2,369.4 355.9,367.3 355.7,365.1 355.8,363.1 354.7,360.7 354.6,359.5 352,359.1 351,359.8 350.6,360 
	350.5,361.6 350.7,362.2 350.6,364.3 349.6,365.2 348.8,366.6 348.4,367.8 345.8,369.7 345.3,371.1 344.3,372.4 343.1,372.1 
	342.5,372.3 341.4,373.8 340.8,373.2 340,373.2 338.7,373.8 336.3,372.3 332.9,371.3 328.8,371.9 327.8,372 328.1,370.7 
	329.9,368.9 330.7,366.6 330.4,365.4 331,364.5 332,363.7 332.9,362.4 333.2,361.1 332.6,359.7 330.9,358.3 329.5,356.8 
	326.1,356.3 323.5,355 321,352.8 319.9,352.6 317.7,351.4 314.2,350.6 313.3,349.1 311.9,347.9 310.5,347.7 306.9,344.1 
	305.5,341.6 304.4,341.3 303.1,339.9 302.9,339.7 301.8,338.7 298.9,338.6 295.6,338.6 294.7,340 294.7,341.1 294,342.1 
	294.1,343.2 293.6,343.9 293.2,343.2 292.4,340.8 292.1,339.3 291,339.1 289,339.6 287.7,339.2 286.7,339.5 285.1,339.6 
	283.6,338.4 282.1,338.9 279.9,341.2 278.9,343.3 278.2,344.2 278.9,345.8 277.4,352.3 270.5,355.9 270.1,357.4 271.3,358.4 
	271.6,359.5 270.9,360.7 271.2,362.6 272.5,364.2 272.5,365.7 271.4,366.5 271.2,367.6 271.9,368.2 272.3,369 272.4,370.6 
	272.9,371.2 272,372.2 270.9,372.8 269.4,374.3 267.9,378.2 266.8,379.6 266.4,383.9 265.6,384.7 265.8,388.3 266.8,390.2 
	266.7,392.7 265.8,393.9 265.8,396.8 264.2,397.5 263.9,399.7 264.5,402.5 265.5,403.9 265.7,405 267,407.1 267.9,408.9 
	268.6,412.2 269.5,413 270,417.5 269.7,420.2 268.6,420.6 267.6,422.9 267.9,425.2 266.6,427.1 267.4,427.8 268.6,429.7 
	268.8,431.8 267.5,433.2 266.3,435.6 266.3,439.6 266.3,441.2 265.9,443.5 269.3,450.2 268.5,451.2 267,452 266.7,455.1 264.5,458 
	264.8,459.9 265.9,461.7 265.5,466 265.7,469.8 266.2,472.5 267.3,473 267.9,474.2 267.5,475.7 266.3,476.5 266.5,480.9 
	267.1,482.6 268.9,483.2 268.8,485.2 268.8,486.8 269.9,489.2 270.5,491.8 271.6,492 272.4,491.4 273.2,491.7 273.3,493.1 
	272,494.6 269.4,494.6 269,495.6 269.7,496.3 270.1,495.9 271.3,495.9 273.2,497.2 274.4,499.4 274.4,500.7 272.9,502 272.8,503.1 
	273.6,504.6 274,507.8 274.7,510.2 273.6,511.3 273.5,512.6 274.6,515.4 273.4,516.7 273,519.3 273.7,521.5 274.3,524.6 
	273.7,527.5 271.8,529.6 270.5,531.3 269.8,536.5 270.1,538.3 272.7,543.4 273.9,543.4 274.9,542.3 276.7,541.4 277.9,541.3 
	277.9,542.8 278.3,546.2 279.5,547.3 280.1,549.3 281,551.7 283.8,551.9 284.7,552.5 288.9,551.8 296.3,551.8 296.7,552.2 
	297.9,552.4 299.5,553.9 300.9,554.5 301.4,554.5 301.2,553.4 300.1,552.5 298.1,551.3 297.9,550.2 296.9,549.3 296.3,549.5 
	295.6,548.8 296.5,548.3 296.7,547.6 296.4,547.4 296.4,546.6 295.4,544 294.3,542.2 294.1,540.5 294.8,538.6 296.2,537.4 
	296.7,536.5 296.3,536.1 296.3,535 295.7,534.3 296.5,534.7 297.2,535.6 298.1,535.9 299.3,534.9 299.5,534 300.5,532.8 
	300.8,531.8 300.5,530.1 299.6,529.9 299,530.3 299.3,529.6 300.3,528.6 300.7,527.4 300.9,526.1 302.3,524.8 303.4,524.7 
	303.8,523.4 304.6,522.3 305.2,522.1 305.4,521.2 306.3,520.7 307.2,519.7 307,519.2 307.2,518.5 307.9,518 306.8,517 306.2,517 
	307.2,516.1 307.2,515.2 306.5,513.8 306.5,513.2 306.9,512.7 306.5,512.1 305.6,511.8 305.1,512.1 304.1,512 302.2,512.2 
	299.9,510.1 298.4,508.8 297.6,508.5 296.4,507.6 295.2,505.5 295.2,504.2 294.5,503.3 294.6,502.6 295.9,501.7 296.3,500.7 
	296.7,499.3 297.5,499.1 298.4,498 299.7,497.9 300.8,496.7 302.4,496.4 303.5,496.6 305.3,496.3 305.4,495.8 304.8,495.2 
	303.7,494.8 303.9,494.3 304.1,493.5 305.7,492.4 305.4,492.1 305.9,491.3 306,490.8 304.6,489.3 304.8,488.6 304.8,487.8 
	304.4,487.2 304,485.7 304.9,484.8 305.4,483.6 305,483.2 305.6,482.4 307.4,481.8 308.7,480.6 308.6,480 306.9,479.5 305.8,479.5 
	305.3,478.7 305.5,478 306.5,477.3 308,476.7 309.4,477.4 309.4,478.1 309.2,478.6 309.7,479.7 310.5,480 312.8,478.7 313.1,477.6 
	312.6,476.4 311.8,475.5 312.3,475.3 312.5,474.2 311.7,472.9 310.9,472.8 309.7,473.6 308.9,473.6 308.3,474.1 308.7,474.3 
	309.6,474.6 309.5,475.2 307.6,475.8 306.7,475.4 307.2,474.9 307.9,474.5 307.3,474.2 305.6,474.3 304.2,473.6 303.9,472.5 
	303.9,469.8 303.4,467.7 302.2,466.6 302.2,464.6 303.4,463.4 304.3,463.4 303.9,464 304.2,464.2 305.5,464.1 307.7,464.8 
	309.7,466.5 311.5,466.9 314.7,466.9 316.7,465.6 316.5,465.2 317.8,464.2 318.1,463.2 317.8,462.3 318.1,461.7 318.4,460.8 
	317.4,460.5 316.7,459.3 316.7,458.2 317.2,457.4 316.9,456.9 317.9,455.9 317.9,455.5 318.3,455.4 318.5,454.6 318.3,453.6 
	317.3,453.5 317.4,452.9 316.9,452.1 316.9,450.1 316.6,449.4 316.6,448.5 317,448.1 317.5,448.8 318.3,448.8 319.9,449.3 
	321.2,450.1 322.3,450.1 324.1,449.8 326,450.1 328.4,450 332.4,448.9 335.9,447.5 336.1,446.7 336.6,447.4 339,446.5 342.2,444.6 
	342.6,443.5 342.3,442.1 342.9,440.4 343.3,440 343.4,440.6 343.9,440 344.3,438.2 345.4,436.4 345.6,435.3 345.6,432.8 
	345.4,431.9 345.1,431.8 344.3,432.6 343.1,432.6 341.6,431.6 340.7,429.9 340.8,429.1 342.2,426.3 342.3,425.1 341.7,424.3 
	338.7,422 336.3,421 333.9,419.2 333.3,418.1 333.7,417.8 333.6,416.8 332.9,416 333.1,415.4 332.7,413.3 333,410.9 333,411 
	333,410.8 "/>
<polygon class="st0" points="321,572.5 318.9,573 317.7,572.8 316.2,571.6 314.6,571.1 314,570.4 309.6,569 308.3,568.6 
	308.2,567.2 306.8,566 305.3,565.8 304.6,563.9 304,562.8 302.6,563.1 301.4,562.6 304.1,573.3 304.5,573.4 306.5,573 308.1,573 
	309.6,572.7 309.4,573.1 308.5,573.3 307,573.8 304.2,573.9 304.8,576.1 305.4,576.1 307.3,575.5 309.7,575.7 311.4,575.5 
	313.8,575.8 315,576.5 316.4,576.9 317.7,576.6 318.7,575.6 318.9,574.6 320.2,574.2 320.7,574.7 322.2,573.8 322,572.8 "/>
<polygon class="st0" points="301.7,561.4 302.6,561 303.2,561.6 302.6,558.8 300.7,557 299.9,555.7 299.6,555.8 301.3,562.3 "/>
<polygon class="st0" points="327.7,573.6 326.1,573.6 325.4,574.1 326.3,574.9 327.6,574.1 328.8,573.8 329.8,572.8 328.5,572.7 "/>
<path class="st0" d="M459.3,251.3l-0.2-2.8l-0.7-0.4l-0.2-1.4l-2-4.4v-1.5l-0.3-1.8l-3.7-1.7l-2.2,0.1l-1.6,0.7l-1.1-1.5l-1.2-0.2
	l-1.2-1.4l-1.7-0.8l-1.2-0.2l-2.6-2.7l-2.1-2.9l-1-0.2l-1.4-1.3l-1.2,0.1l-3.5-2.5h-1.6l-1.7-0.7l-1.1,0.6h-1.7l-1-0.5l-1.1,0.5
	l-0.5,0.7l-0.7-0.7l-1.6-1.2l-0.3,0.5l-0.7-0.6l-0.2,0.7v0.6l-0.9-0.7l-0.2-0.6l-0.7-0.2l0.2,0.6l-0.3,0.2l-1.7-0.7l-0.6,0.1
	l-1.4-0.3l-3.2-1.5l-1.2,0.1l-0.1,0.3l0.2,0.6l-0.3,0.3l-0.7-0.4l-0.3,0.2l-0.2,0.5l-1.1,0.5l-0.4,0.6l-0.2,1.3l-0.6-1l-0.3-0.9
	l-0.6,0.2l0.1,1.1l-1,1.8v1.5l-0.3-1.4l0.4-1.5l-0.2-1.3l0.6-1.9l0.5-0.5l-0.4-0.4l-0.9,0l1.2-1.4l-1.6-1.7l-0.9-1.4l-0.9,0.1
	l-1.3-0.2l-0.7,1l-0.7,0.4l-0.4-0.9l-0.5-0.3l-0.2-0.8l-0.7-0.5l-0.9,0.1l-0.5-0.6l-0.8-0.3l-0.5,0.6v-0.5l-0.6-0.4l-0.4-0.8
	l-0.7,0.3l-1.3-0.4l-1.7-1l-0.5-0.1l-0.3,0.5l-1-0.7l-0.7,0.1l-0.2,0.7l-0.5,0l-0.3-0.8l-1.3,0l-1.1,0.6l-0.6,1.1l0.1,0.7l-1.2,1.2
	l-1.6,1l-2.1,1.2l-1,1.2l-0.6,1.6l-0.2,1.6l-0.5,0.8l-0.9,1l0.1,0.7l0.2,1.2l-0.2,2.2l-0.4-1.3l-0.8-1.3l0-1l0.8-1l0.9-0.8l-0.1-1.6
	l0.5-1.3l-0.1-0.7l-0.7,0l-1.3,0.5l-1.5-0.4l-1.3,0.1l-1,0.3l-0.7-0.6l0.8,0.1l1-0.7l1-0.2l1.7,0.3l1-0.2l0.9-1.1l0.4,0l0.5,0.4
	l0.6-0.2l1-0.6l1.7-0.6v-1.3l1.5-1.7v-1.2l0.6-0.8l0.1-1l-1.6-0.3l-1.2-1h-1.2l-1.7,1l-1.4,0.1l-2-0.8l-2.2-0.2l-1.6,1.7l0.1,0.7
	l0.5,0.4l0.3,0.6l-0.8,0.1l-0.5,0.2l-0.4,1l-0.3-0.9l-0.5-0.2l-1.2,0.5l-1.3,1.9l-1.8,2l1.3-1.9l0-1.2l0.3-0.7l0.1-0.8h-0.6
	l-1.2,0.9l-0.6,1.3l-0.6,1.5l-1,0.6l0.9-1.7l0.2-1.4l2-2.5l0.5-1.7l0.7-1l1.1-0.6l1.2-0.9l0.9-0.4l1.1-1.6l2.7-2.7l0.2-0.7l0.5-0.4
	l-0.6-0.7l0.2-0.8l0.4-0.3l0-1.1L371,197l-1.2,0.1l-0.4,0.4l-0.5-0.9l-0.7-2.2l-1.3-3.2l-1.2-1.7l-0.8-2.2l0-1.2l-0.3-1.2l-0.5-0.5
	l-0.2-1.1l-0.7-1.4l-0.3,0.2l0.1,0.9l-0.5,0.7l-1.3,0.9l0,0l-0.1,0.1l-0.4,0.7l-1.4,1.7l-1.5,1.9l0,1l-1.1,2.4l-0.9,1.5l-0.7,1.4
	l-1,0.2l-0.6,0.4l-0.2,0.9l-1,0.8l-0.7-0.2l0-1.5l-0.4-0.2l-0.1-0.5l-0.6-0.1l-0.8,0.3l-0.6,0.7l-1-0.2l-0.8-0.9l0-0.6l-0.3-0.3
	l-0.4-0.9l-0.2-0.5l-0.8-0.2l-1.1-1.1l-1.5-0.1l-1.1,0.5l-2.4,0.1l-1.3-0.3l-1.1,0.7l-0.2,1l1.1,1l0.3,0.7l0.5,1.3l-0.2,0.4l-1,0
	l-1.5-0.4l-0.4-0.3l-0.5,0l-0.1,0l0,0h-1.9l-1,0.2l-0.5-0.5l-1.7,0.1l-1.2,0.5l-0.7,1.8l-2.4-0.1l-1.2,0.4l-0.2,0.5l-0.8,0.9
	l-1.3,0.1l-0.2-0.4l-0.8,0.2l-0.7,0.9l-0.9-0.4l-2.3-2l-0.8-1l0-0.8l-1.2-1.2l-1-1.1l-0.1-1.2l0.2-0.8l-0.3-0.6l0.2-1l0.4-0.8
	l-0.1-1.2l1.1-1.9l0.4-1.6l1-1.3l0-0.6l-1.1,0.1l-0.5-0.8l-0.4-0.8l-1.2,0.1l-1-0.5l0.5-0.7l0.7-1.1v-1.5l-1-1.2l-1.3-0.1l-0.6,0.4
	l-0.5-0.5l-0.6-0.1l0.1,1.2l-0.5,1.4l-3,2.1l-1.9,0.2l-2.6,1.1l0,0l0,0l-1-0.5l-1.6,0.2l-1.9,1.7l-1.8,0.6l-0.6-0.4l-2.6,0.3l-2,0.1
	l-1.8-1l-1.8-0.3l-1.7-0.5l0.7,1.4l1.2,0.5l1.2,1.2l0.4,1.1l-1.6,2.5l0.3,0.5l0.3,0.6l-0.4,1.9l2.7,0.9l1.8-0.2l1.8,0.4l0.1,1.2
	l-1.3,0.6l-2.7,0.5l-0.5,0.5l-0.5,0.5l-0.5,1.5l-2.9,1.5l-1,1.1l-2,1.3l-1.4,1.6l-2.3,0.1l-1.3-0.2l-2.3-1.8l-2.2-1.5l-1.5,0.2
	l0-1.6l-0.2-1.3l-1-1.2l-0.3-0.9l-1.6,0.4l-1.1,1.2l-0.7,0.1l-0.6-0.6h-1.1l-0.7,0.8l-6.5,0l-0.4,1.9l0.5,1.4l2.2,0.6l0.8,1.5
	l-0.6,0.7l0.7,0.7l-0.3,1l-1.4-0.9l-3.9,1.3l0.2,3.2l1,1.3l2.2,1.7l1.4,2.5l-0.1,2l0,0.9l-3.2,12l-1,3.2l0.1,0.6l-0.5,0.8l-1.2-0.3
	l0.1-0.4l-1.3-0.8l-0.5,0.1h-1.1l-0.5-0.2l-0.4,0.9l-3.9,1.3l-2.9,0.6l-0.7,0.7l-0.7,0.2l-1.2,1.2l-1.4,0.6l-1,0.7l0.2,1.5l-0.6,0.9
	l0.2,0.9l-1.6,1.6l0.5,2l0.5,1l-1,0.9l-0.8-0.2l-1.6,1l-0.1,1.2l-0.6,0.6l0.4,0.8l-0.2,1.3l-0.5,1.1l0.4,1l-0.3,0.9l1.6,1.6l2.8,4.6
	l-1.5,1.8l3.6-0.3l1.7,0.3l1.2,1.8l0.4,1.6l2.5,0.1l2.9,0.2l2.4-2.2l2.1-1.2l0.6,0.6l-0.3,1.3l-0.4,0.4l0,2.1l0.3,3.4l0.1,1.3
	l0.7,0.7l1.1-0.2l1.1-0.3l1.2-0.1l0.6-0.1l0.6,0.3l0.2,0.1l3.7,0l1.7,0.1l1.7-0.9h0.9l1.2-1h1.4l1.7-0.5l1-2.6l2.7-1.7l1.9-0.3
	l1.8-0.9h1.2l1.2,0.8l1.3-0.8l0.7,0.6l-0.2,1.3l0.7,2.1l-0.9,1.7l0.7,2.7l-0.5,1.2l1,2.2l1.3,0.6l0.4,1.7l1.3,0.7l1.8,1.2l1.2,1.2
	l0.5-0.6l2.4-0.6l2,2l1.5-0.4l2.1,2.2l0.9-0.1l2.5,0.8l1.6,0.6l0.3,1.7l1.2,0.3l1.5,0.8l3.3-0.3l2.3,1.3l0.5,1l-0.3,2.7l0.5,2.2
	l-0.7,1.3l2.2,3.7l-0.2,2.7l10.1,0.2l0.5,3.7l-0.2,2.3l3,0.7l3,5.3l0.2,2.8l-2.8,5.7l0.2,0.8l-0.8,1.1l0.5,0.6l-0.3,1.2l1.4,1.1
	l0.1,1.7l1.2,1.7l-0.6,3.5l0.3,1.4l-0.4,1.2l0.4,1.2l2.2-0.2l0.9,0.4l2.7-0.2l1.7,0.6l2.7-1.1l1.4,1l1.1,0.3l0.4,1.3l1.5,6.3l1,2.2
	l1,0.3l2.3-1.2l1.3,0.5l0.9,0.8l0.8,0.2l-0.6,0.9l-0.1,5.4l-0.2,0.6l-0.2,0.2l0,0.7l-0.1,0.6l-0.1,0.7l1-0.7l2.7,0.4l0.1,1.2
	l1.1,2.4l-0.1,2l0.2,2.2l0.2,2.1l-0.3,0.8l-1.2,0l-1.4,0.7l-0.2,0.5l-0.8,0.7l-0.4-0.2l-2.4,1.6l-0.5,0.7l-0.9,0.2l-2.2,1.8
	l-0.7,0.2l-0.1,1.4l-0.8,0.2l-0.7-0.1l-1.8,2.2l-0.3,0.9l0,1.3l-0.8,0.3l-0.5,0.7l-1.2,2.1l-0.8,0.9l-1,1.6v0.5l-1.1,0.7l-0.2,0.5
	l0.9,0l0.6,0.3l2.9-0.9l1.2,0.8l1.3,1.8l1.2,0.5l0.7,1.6l1.4,2.2h0.7l1.1-1.2l0.6,0.1l1.3,2.2l1.6,0.7l1.4,0.3l1.3,1.3l0.1,1.6
	l1.1-0.2l2.2,1l1.3,1.7l1.4,2.1l1.3,0.9l-0.2,1.6l-1.1,1.5l0.5,1.7l0.2,0.4l0.2,0.3l0.7,0.9l0.3,0.3l2.2-1.8l0.7-1.7l1-4l0.9-2.7
	l0.4-0.5l-0.5-0.6l-0.8-1.4l0.4-1.2l0.8-0.4l0-0.7l1-1.1v-0.8l0.6,0.5l0.8,0.1l1-1.1l0.1-1.2l0.4-0.4l0.1-1.3l0.4-0.5h0.6l0.4-1.1
	l-0.3-0.8l-0.6-0.7l0.1-1.7l-0.5-0.5l0.6,0.2l0.7,1.4l1.4,1.5h0.5l0.6-0.3l0.4,0.4l0.1,1l-0.5,0.1l-0.5,2l-1.3,2.3l-1.2,0l-0.2,1.5
	l-0.4,0.8L371,398l-1.2,0.7l-0.9,0.7l-0.1,0.6l-1,0.2l-0.5,0.5l0,0.6l1.1,0.3l3.6-2.9l1.9-2.1l2.7-4.6l1-2.3l1-3l2.6-5l2.6-3.1
	l0.4-0.9l-0.2-0.3l0.1-0.8l0.5-0.2l0.4-1.3l0.7-0.5l-0.2-1l0.2-0.7l-0.2-0.3l-0.5-0.4l0.1-1.2l-1.1-1.6v-0.7l0.2-0.7l-0.2-0.7
	l-0.4-1.7l-0.6-1.7l0.5-0.4l1.4-0.3l-0.4-1l-0.7-0.4l1.4-0.3l0-1.1l-1.4-0.6l1.2-0.3l0.7-1.1l0.6,0.5l1.8-1.7l1.1-0.7l0-0.6l1.5-1.3
	l1.8-1.2l2.4-2.7l2.1-0.2l1.1-1.1l1.2-1h1.2l0.7,0.6l0.9,0.2l0-0.8l0.9-1.5l2.4-1.5l1-0.3v-0.5l-0.6-0.4l-0.8-0.2l-0.4-0.7l0.9-0.2
	l1.5-0.9l0.9,0.2l1-0.1l0.7-0.6l1,0.1l-0.1,0.5l-1.4,0.8l-1.5,0.3l-0.3,0.3l0.5,0.4l2.2-0.8l2.7-1.1l-0.2-0.4l0.7-0.6l0.7,0.1
	l-0.2,0.6c0,0,0.1,1,0.2,1c0.1,0,1.7,0.2,1.7,0.2l0.9-0.5h1.6l1.9,0.2l1.2-0.8l0-0.6l-0.3-0.3l0.2-0.6l2.6-1.8l2.2-0.8l1.1-0.7
	l0.3-0.7l-0.3-0.4l-1-2.2l0.7-1.5l0.8-1l0-1.1l0.5-0.5l1-0.7l0.2-1.2l-0.3-0.2l1.6-2.6l2.2-2.6l0-1.2l-0.5-3.7l-0.4-0.7l0.7-2.2
	l0.6-0.9l0.1-0.7l1.7-1.4l0.2-0.7l-0.5-2.1l0.9-2.6l-0.2-2l0.3-1.5l-0.1-0.8l0.5-2.2l-0.6-7.8l0-1.4l0.5-1.1l0-1l-0.5,0.5l-0.9-0.7
	v-0.7l0.8-1.3l-0.2-1.3l0.2-0.9l0.7-0.2l0.2-1.4l-0.8-1.3l-1.5-0.7l0.4-0.2l0.2-0.5l0.3,0.6l0.9,0.5l0.8,0.3l0.3-1.2l0.8,0l0.3,0.7
	l0.6,0.3l-0.6,0.9l-0.8,0.6l-0.2,0.7l0.6,0l1.1-1l1.5-0.8l2-3l0.9-2.2l0.3-1.3l0.7-0.7l0.7-2l0.8-1.7l3-2.1l0.4-1l0.9-0.3l0.7-1.1
	l2.6-2.3l2.3-3.1l0.6-0.8l1.4-3.1l0.4-1.4l0.7-1v-1l-0.7-1.1l0.3-1.2L459.3,251.3z"/>
<polygon class="st0" points="29.3,53.8 29.6,54.3 29.8,55.5 30.4,55.1 30.2,54.2 29.6,53.3 "/>
<polygon class="st0" points="30.8,58.8 31.3,58.8 31.4,58.2 30.8,58 "/>
<polygon class="st0" points="105,55.5 104.6,55.5 104.4,56.3 104.8,56.2 "/>
<polygon class="st0" points="104.1,59.2 104,58.4 103.5,60.2 "/>
<polygon class="st0" points="104.2,57.7 104.4,57.9 104.7,56.9 104.3,56.9 "/>
</svg>
