<!-- Generator: Adobe Illustrator 19.0.0, SVG Export Plug-In  -->
<svg version="1.1"
	 xmlns="http://www.w3.org/2000/svg" xmlns:xlink="http://www.w3.org/1999/xlink" xmlns:a="http://ns.adobe.com/AdobeSVGViewerExtensions/3.0/"
	 x="0px" y="0px" width="37.1px" height="24.9px" viewBox="0 0 37.1 24.9" style="enable-background:new 0 0 37.1 24.9;"
	 xml:space="preserve">
<style type="text/css">
	.st0{fill:#FFFFFF;}
	.st1{fill:#EC1C24;}
	.st2{fill:#303187;}
</style>
<defs>
</defs>
<g id="XMLID_15_">
	<rect id="XMLID_76_" x="0" y="0" class="st0" width="37.1" height="24.9"/>
	<g id="XMLID_68_">
		<rect id="XMLID_75_" x="0" y="0" class="st1" width="37.1" height="2"/>
		<rect id="XMLID_74_" x="0" y="3.8" class="st1" width="37.1" height="2"/>
		<rect id="XMLID_73_" x="0" y="7.6" class="st1" width="37.1" height="2"/>
		<rect id="XMLID_72_" x="0" y="11.5" class="st1" width="37.1" height="2"/>
		<rect id="XMLID_71_" x="0" y="15.3" class="st1" width="37.1" height="2"/>
		<rect id="XMLID_70_" x="0" y="19.1" class="st1" width="37.1" height="2"/>
		<rect id="XMLID_69_" x="0" y="22.9" class="st1" width="37.1" height="2"/>
	</g>
	<rect id="XMLID_67_" x="0" y="0" class="st2" width="16.7" height="13.4"/>
	<g id="XMLID_16_">
		<polygon id="XMLID_66_" class="st0" points="1.4,1.6 1.8,1.9 1.6,1.4 2.1,1.1 1.5,1.1 1.4,0.6 1.2,1.1 0.7,1.1 1.1,1.4 1,1.9 		
			"/>
		<polygon id="XMLID_65_" class="st0" points="4.2,1.6 4.6,1.9 4.4,1.4 4.8,1.1 4.3,1.1 4.2,0.6 4,1.1 3.5,1.1 3.9,1.4 3.7,1.9 		
			"/>
		<polygon id="XMLID_64_" class="st0" points="7,1.6 7.4,1.9 7.2,1.4 7.6,1.1 7.1,1.1 7,0.6 6.8,1.1 6.3,1.1 6.7,1.4 6.5,1.9 		"/>
		<polygon id="XMLID_63_" class="st0" points="9.7,1.6 10.2,1.9 10,1.4 10.4,1.1 9.9,1.1 9.7,0.6 9.6,1.1 9.1,1.1 9.5,1.4 9.3,1.9 
					"/>
		<polygon id="XMLID_62_" class="st0" points="12.5,1.6 13,1.9 12.8,1.4 13.2,1.1 12.7,1.1 12.5,0.6 12.4,1.1 11.9,1.1 12.3,1.4 
			12.1,1.9 		"/>
		<polygon id="XMLID_61_" class="st0" points="15.3,1.6 15.8,1.9 15.6,1.4 16,1.1 15.5,1.1 15.3,0.6 15.2,1.1 14.6,1.1 15.1,1.4 
			14.9,1.9 		"/>
		<polygon id="XMLID_60_" class="st0" points="2.8,3 3.2,3.3 3,2.8 3.5,2.5 2.9,2.5 2.8,2 2.6,2.5 2.1,2.5 2.5,2.8 2.3,3.3 		"/>
		<polygon id="XMLID_59_" class="st0" points="5.6,3 6,3.3 5.8,2.8 6.2,2.5 5.7,2.5 5.6,2 5.4,2.5 4.9,2.5 5.3,2.8 5.1,3.3 		"/>
		<polygon id="XMLID_58_" class="st0" points="8.4,3 8.8,3.3 8.6,2.8 9,2.5 8.5,2.5 8.4,2 8.2,2.5 7.7,2.5 8.1,2.8 7.9,3.3 		"/>
		<polygon id="XMLID_57_" class="st0" points="11.1,3 11.6,3.3 11.4,2.8 11.8,2.5 11.3,2.5 11.1,2 11,2.5 10.5,2.5 10.9,2.8 
			10.7,3.3 		"/>
		<polygon id="XMLID_56_" class="st0" points="13.9,3 14.4,3.3 14.2,2.8 14.6,2.5 14.1,2.5 13.9,2 13.8,2.5 13.3,2.5 13.7,2.8 
			13.5,3.3 		"/>
		<polygon id="XMLID_55_" class="st0" points="1.4,4.3 1.8,4.6 1.6,4.1 2.1,3.8 1.5,3.8 1.4,3.3 1.2,3.8 0.7,3.8 1.1,4.1 1,4.6 		
			"/>
		<polygon id="XMLID_54_" class="st0" points="4.2,4.3 4.6,4.6 4.4,4.1 4.8,3.8 4.3,3.8 4.2,3.3 4,3.8 3.5,3.8 3.9,4.1 3.7,4.6 		
			"/>
		<polygon id="XMLID_53_" class="st0" points="7,4.3 7.4,4.6 7.2,4.1 7.6,3.8 7.1,3.8 7,3.3 6.8,3.8 6.3,3.8 6.7,4.1 6.5,4.6 		"/>
		<polygon id="XMLID_52_" class="st0" points="9.7,4.3 10.2,4.6 10,4.1 10.4,3.8 9.9,3.8 9.7,3.3 9.6,3.8 9.1,3.8 9.5,4.1 9.3,4.6 
					"/>
		<polygon id="XMLID_51_" class="st0" points="12.5,4.3 13,4.6 12.8,4.1 13.2,3.8 12.7,3.8 12.5,3.3 12.4,3.8 11.9,3.8 12.3,4.1 
			12.1,4.6 		"/>
		<polygon id="XMLID_50_" class="st0" points="15.3,4.3 15.8,4.6 15.6,4.1 16,3.8 15.5,3.8 15.3,3.3 15.2,3.8 14.6,3.8 15.1,4.1 
			14.9,4.6 		"/>
		<polygon id="XMLID_49_" class="st0" points="2.8,5.7 3.2,6 3,5.5 3.5,5.2 2.9,5.2 2.8,4.7 2.6,5.2 2.1,5.2 2.5,5.5 2.3,6 		"/>
		<polygon id="XMLID_48_" class="st0" points="5.6,5.7 6,6 5.8,5.5 6.2,5.2 5.7,5.2 5.6,4.7 5.4,5.2 4.9,5.2 5.3,5.5 5.1,6 		"/>
		<polygon id="XMLID_47_" class="st0" points="8.4,5.7 8.8,6 8.6,5.5 9,5.2 8.5,5.2 8.4,4.7 8.2,5.2 7.7,5.2 8.1,5.5 7.9,6 		"/>
		<polygon id="XMLID_46_" class="st0" points="11.1,5.7 11.6,6 11.4,5.5 11.8,5.2 11.3,5.2 11.1,4.7 11,5.2 10.5,5.2 10.9,5.5 
			10.7,6 		"/>
		<polygon id="XMLID_45_" class="st0" points="13.9,5.7 14.4,6 14.2,5.5 14.6,5.2 14.1,5.2 13.9,4.7 13.8,5.2 13.3,5.2 13.7,5.5 
			13.5,6 		"/>
		<polygon id="XMLID_44_" class="st0" points="1.4,7 1.8,7.3 1.6,6.8 2.1,6.5 1.5,6.5 1.4,6 1.2,6.5 0.7,6.5 1.1,6.8 1,7.3 		"/>
		<polygon id="XMLID_43_" class="st0" points="4.2,7 4.6,7.3 4.4,6.8 4.8,6.5 4.3,6.5 4.2,6 4,6.5 3.5,6.5 3.9,6.8 3.7,7.3 		"/>
		<polygon id="XMLID_42_" class="st0" points="7,7 7.4,7.3 7.2,6.8 7.6,6.5 7.1,6.5 7,6 6.8,6.5 6.3,6.5 6.7,6.8 6.5,7.3 		"/>
		<polygon id="XMLID_41_" class="st0" points="9.7,7 10.2,7.3 10,6.8 10.4,6.5 9.9,6.5 9.7,6 9.6,6.5 9.1,6.5 9.5,6.8 9.3,7.3 		"/>
		<polygon id="XMLID_40_" class="st0" points="12.5,7 13,7.3 12.8,6.8 13.2,6.5 12.7,6.5 12.5,6 12.4,6.5 11.9,6.5 12.3,6.8 
			12.1,7.3 		"/>
		<polygon id="XMLID_39_" class="st0" points="15.3,7 15.8,7.3 15.6,6.8 16,6.5 15.5,6.5 15.3,6 15.2,6.5 14.6,6.5 15.1,6.8 
			14.9,7.3 		"/>
		<polygon id="XMLID_38_" class="st0" points="2.8,8.4 3.2,8.7 3,8.2 3.5,7.9 2.9,7.9 2.8,7.4 2.6,7.9 2.1,7.9 2.5,8.2 2.3,8.7 		
			"/>
		<polygon id="XMLID_37_" class="st0" points="5.6,8.4 6,8.7 5.8,8.2 6.2,7.9 5.7,7.9 5.6,7.4 5.4,7.9 4.9,7.9 5.3,8.2 5.1,8.7 		
			"/>
		<polygon id="XMLID_36_" class="st0" points="8.4,8.4 8.8,8.7 8.6,8.2 9,7.9 8.5,7.9 8.4,7.4 8.2,7.9 7.7,7.9 8.1,8.2 7.9,8.7 		
			"/>
		<polygon id="XMLID_35_" class="st0" points="11.1,8.4 11.6,8.7 11.4,8.2 11.8,7.9 11.3,7.9 11.1,7.4 11,7.9 10.5,7.9 10.9,8.2 
			10.7,8.7 		"/>
		<polygon id="XMLID_34_" class="st0" points="13.9,8.4 14.4,8.7 14.2,8.2 14.6,7.9 14.1,7.9 13.9,7.4 13.8,7.9 13.3,7.9 13.7,8.2 
			13.5,8.7 		"/>
		<polygon id="XMLID_33_" class="st0" points="1.4,9.7 1.8,10 1.6,9.5 2.1,9.2 1.5,9.2 1.4,8.7 1.2,9.2 0.7,9.2 1.1,9.5 1,10 		"/>
		<polygon id="XMLID_32_" class="st0" points="4.2,9.7 4.6,10 4.4,9.5 4.8,9.2 4.3,9.2 4.2,8.7 4,9.2 3.5,9.2 3.9,9.5 3.7,10 		"/>
		<polygon id="XMLID_31_" class="st0" points="7,9.7 7.4,10 7.2,9.5 7.6,9.2 7.1,9.2 7,8.7 6.8,9.2 6.3,9.2 6.7,9.5 6.5,10 		"/>
		<polygon id="XMLID_30_" class="st0" points="9.7,9.7 10.2,10 10,9.5 10.4,9.2 9.9,9.2 9.7,8.7 9.6,9.2 9.1,9.2 9.5,9.5 9.3,10 		
			"/>
		<polygon id="XMLID_29_" class="st0" points="12.5,9.7 13,10 12.8,9.5 13.2,9.2 12.7,9.2 12.5,8.7 12.4,9.2 11.9,9.2 12.3,9.5 
			12.1,10 		"/>
		<polygon id="XMLID_28_" class="st0" points="15.3,9.7 15.8,10 15.6,9.5 16,9.2 15.5,9.2 15.3,8.7 15.2,9.2 14.6,9.2 15.1,9.5 
			14.9,10 		"/>
		<polygon id="XMLID_27_" class="st0" points="2.8,11.1 3.2,11.4 3,10.9 3.5,10.6 2.9,10.6 2.8,10.1 2.6,10.6 2.1,10.6 2.5,10.9 
			2.3,11.4 		"/>
		<polygon id="XMLID_26_" class="st0" points="5.6,11.1 6,11.4 5.8,10.9 6.2,10.6 5.7,10.6 5.6,10.1 5.4,10.6 4.9,10.6 5.3,10.9 
			5.1,11.4 		"/>
		<polygon id="XMLID_25_" class="st0" points="8.4,11.1 8.8,11.4 8.6,10.9 9,10.6 8.5,10.6 8.4,10.1 8.2,10.6 7.7,10.6 8.1,10.9 
			7.9,11.4 		"/>
		<polygon id="XMLID_24_" class="st0" points="11.1,11.1 11.6,11.4 11.4,10.9 11.8,10.6 11.3,10.6 11.1,10.1 11,10.6 10.5,10.6 
			10.9,10.9 10.7,11.4 		"/>
		<polygon id="XMLID_23_" class="st0" points="13.9,11.1 14.4,11.4 14.2,10.9 14.6,10.6 14.1,10.6 13.9,10.1 13.8,10.6 13.3,10.6 
			13.7,10.9 13.5,11.4 		"/>
		<polygon id="XMLID_22_" class="st0" points="1.4,12.4 1.8,12.7 1.6,12.2 2.1,11.9 1.5,11.9 1.4,11.4 1.2,11.9 0.7,11.9 1.1,12.2 
			1,12.7 		"/>
		<polygon id="XMLID_21_" class="st0" points="4.2,12.4 4.6,12.7 4.4,12.2 4.8,11.9 4.3,11.9 4.2,11.4 4,11.9 3.5,11.9 3.9,12.2 
			3.7,12.7 		"/>
		<polygon id="XMLID_20_" class="st0" points="7,12.4 7.4,12.7 7.2,12.2 7.6,11.9 7.1,11.9 7,11.4 6.8,11.9 6.3,11.9 6.7,12.2 
			6.5,12.7 		"/>
		<polygon id="XMLID_19_" class="st0" points="9.7,12.4 10.2,12.7 10,12.2 10.4,11.9 9.9,11.9 9.7,11.4 9.6,11.9 9.1,11.9 9.5,12.2 
			9.3,12.7 		"/>
		<polygon id="XMLID_18_" class="st0" points="12.5,12.4 13,12.7 12.8,12.2 13.2,11.9 12.7,11.9 12.5,11.4 12.4,11.9 11.9,11.9 
			12.3,12.2 12.1,12.7 		"/>
		<polygon id="XMLID_17_" class="st0" points="15.3,12.4 15.8,12.7 15.6,12.2 16,11.9 15.5,11.9 15.3,11.4 15.2,11.9 14.6,11.9 
			15.1,12.2 14.9,12.7 		"/>
	</g>
</g>
</svg>
