<!-- Generator: Adobe Illustrator 19.0.0, SVG Export Plug-In  -->
<svg version="1.1"
	 xmlns="http://www.w3.org/2000/svg" xmlns:xlink="http://www.w3.org/1999/xlink" xmlns:a="http://ns.adobe.com/AdobeSVGViewerExtensions/3.0/"
	 x="0px" y="0px" width="656.7px" height="497.7px" viewBox="0 0 656.7 497.7" style="enable-background:new 0 0 656.7 497.7;"
	 xml:space="preserve">
<style type="text/css">
	.st0{fill:#F17143;}
</style>
<defs>
</defs>
<path class="st0" d="M488.2,385.6c-0.1-0.4-0.1-0.9-0.1-1.3c2.4-1.2,4.3-6.6,4.3-9.9c0-1.5,0.3-1.8,0.7-2.1c0.5-0.5,0.9-1,1.1-1.9
	c0.2,0.1,0.4,0.2,0.5,0.3c1.5,0.8,3.3,1.8,5.2,1.8c0.1,0,0.3,0,0.4,0c0.5,0,2-0.2,2.6-1.4c0.7-1.4-0.3-2.8-1.4-4.7
	c-0.7-1.1-1.5-2.3-2-3.6c-1.2-3-3.8-3.4-5.9-3.4c-0.6,0-1.1,0-1.7,0.1c-0.5,0-1.1,0.1-1.6,0.1c-0.9,0-1.6-0.1-2.2-0.3
	c-2.3-0.8-5.5-1.4-7.6-1.4c-0.5,0-0.9,0-1.2,0.1c-0.8-0.6-1.5-1.1-2.2-1.5c-0.1-1.1-0.8-2.2-1.5-3.4c-0.8-1.2-1.6-2.6-1.8-4
	c-0.4-3.1-2.9-3.2-4.3-3.2c-1.5,0-1.7-0.1-1.8-1.1c-0.7-5.9-11.3-6.2-13.5-6.2c-2.2,0-3.8,2-5.5,4.2c-0.7,0.9-1.5,1.9-2.2,2.6
	c-1.8-0.7-4.3-1.5-6.2-1.5c-1.2,0-2.1,0.4-2.7,1.1c-0.3,0.4-0.6,0.4-0.8,0.4c-0.6,0-1.4-0.5-2-1.3c-0.8-1-1.8-1.2-2.5-1.2l-0.8,0
	c-0.4,0-0.8,0-1.5-0.8c-1-1.1-2.1-1.7-3.3-1.7c-1.2,0-2.2,0.5-2.9,0.9c-0.2,0.1-0.4,0.2-0.5,0.3c0,0,0,0,0,0c-0.4,0-1.1-0.4-1.7-0.7
	c-0.6-0.3-1.3-0.7-2.1-1c-0.3-0.1-0.4-0.1-0.5-1c-0.1-0.9-0.2-2.2-1.6-3.2c-0.5-0.4-1-0.5-1.5-0.5c-1.3,0-2.2,1-2.5,2.8l-154.9,0.8
	c-0.2-0.5-0.5-1-0.7-1.5c-0.8-1.9-1.8-4-3.9-4c-0.3,0-0.5,0-0.8,0.1c-0.1-0.1-0.3-0.2-0.4-0.3c-0.6-0.6-1.5-1.3-2.7-1.3
	c-0.6,0-1.1,0.1-1.5,0.2c-0.5,0.1-1,0.2-1.4,0.2c-0.2,0-0.3,0-0.3,0c-0.1-2-0.9-4.6-2.9-4.6c-0.3,0-0.8,0.1-1.3,0.5c0,0-0.1,0-0.4,0
	c-1,0-2.3-0.6-2.5-1.1c-0.8-1.5-2.5-3.2-4.4-3.2c-0.4,0-0.7,0.1-1.1,0.2c0,0-0.1,0-0.3,0c-1.4,0-3.4-0.8-4-1.3
	c0-1.4-0.1-3.7-2.3-4.1c-0.1-0.2-0.1-0.6,0-0.8c0,0,0.1,0,0.1,0c1.6,0,2-1.1,2.1-1.5c0.4-1.5-1-3-2-3.5c-0.2-0.1-0.7-0.6-1.1-1
	c-1.1-1.2-2.3-2.4-3.6-2.4c-0.6,0-1.2,0.3-1.7,0.8l-0.3,0c0,0,0-0.2,0.1-0.3c0.8-1.4,0.9-3.2,0.2-4.4c-0.4-0.8-1.2-1.2-2-1.2
	c-0.4,0-0.9,0.1-1.5,0.6c-0.6,0.5-1.4,0.8-2,0.8c-0.4,0-0.8-0.1-1-0.4c-0.2-0.2-0.2-0.5-0.2-1.2c0-0.6,0.1-1.4-0.2-2.2
	c0.7-0.3,1.4-0.7,1.5-1.6c0.1-0.5,0-1.1-0.8-1.8l-0.4-0.3c-0.5-0.4-0.9-0.8-1.2-1.1c1.1-0.8,2.2-1.5,3-2.1c0.9-0.6,1.3-1.3,1.4-2.1
	c0.1-1.2-0.7-2-1.3-2.7c-0.3-0.3-0.8-0.9-0.8-1.1c1.4-3.6-0.1-5.4-6.1-7.8c-4.4-1.8-5-2.8-7-6.8c-0.6-1.2-1.4-2.7-2.4-4.5
	c-2.5-4.4-6.1-7.5-8.7-9.7c-1.5-1.3-3.4-2.9-3.4-3.6c0-2.1-2.1-3.4-5.2-3.4c-2.6,0-5.2,1-5.2,3.1c0,0.7-1.4,1.3-2.6,1.9
	c-0.7,0.3-1.4,0.6-2,1c-0.2,0.1-0.3,0.2-0.3,0.2c-0.3,0-1-1.1-1.5-1.7c-0.2-0.3-0.5-0.7-0.8-1c-0.8-1.1-2.1-2.1-3.3-3
	c-0.8-0.6-2-1.6-2.2-2c0-1.7-1.2-4.4-3.8-4.4c-0.6,0-1.3,0.2-2,0.5c-1,0.5-1.7,0.5-2.3,0.5c-0.2,0-0.5,0-0.7,0c-0.2,0-0.4,0-0.6,0
	c-0.5,0-1.3,0.1-2,0.7c-0.2,0-0.5-0.2-0.8-0.3v-85c1.4,0.1,2.8,0.1,4.1,0.1c1.3,0,3.1,0,3.9,0.1c0.4,0.8,1.7,2,5.2,3.9
	c1.6,0.8,5.6,2.8,8.7,2.8c0.2,0,0.4,0,0.6,0c0.2,0,0.4,0,0.5,0c1.9,0,3.6,0.9,4.9,1.5c1,0.5,1.8,0.9,2.6,0.9c0.6,0,1-0.2,1.4-0.6
	c0.7-0.7,0.8-1.4,0.7-1.8c-0.1-1.2-1.2-2-2.6-3.1l-0.5-0.4c0-0.3,1.4-1.2,3.2-1.2c3.2,0,4.5-1.2,4.9-2.2c0.1,0,0.2,0,0.2,0.1
	c-0.2,0.4-0.2,0.8-0.1,1.2c0.3,0.9,1.1,1.6,2.1,1.6c0.8,0,1.4-0.4,1.9-1.1c0,0,0.2,0,0.2,0c0.4,0,0.8,0.1,1.1,0.1
	c0.4,0.1,0.9,0.1,1.2,0.1c1,0,1.5-0.5,1.7-0.8c0.3-0.5,0.3-1,0.1-1.7c0.4-0.1,1-0.3,1.5-0.4c1.2-0.2,2.6-0.6,4-1.2
	c0.9-0.4,1.9-0.9,2.8-1.3c2-1,4-2,5.1-2c0.6,0.1,1.1,0.1,1.5,0.1c0.4,0,0.7,0,1.1,0c-1.7,0.8-4.4,1.9-6.4,2.2
	c-2.4,0.4-5.9,2.8-8.6,4.7c-1.1,0.8-2.1,1.5-2.7,1.8c-0.6,0.3-3.6,2.1-3.2,4.1c0.1,0.6,0.6,1.5,2.4,1.6l0.4,0c1.8,0,3.4-0.6,4.2-1.7
	c0.5-0.6,0.7-1.4,0.6-2.2c0.9-1.1,4.9-3.2,6.5-3.6c0.5,0.7,1.3,1.1,2.2,1.1c1.1,0,2.9-0.6,5.2-3.2c1.4-1.6,2.4-1.8,2.8-1.8
	c0.3,0,0.4,0.1,0.5,0.1l-0.1,0.6l0.4,0.4c0.3,0.3,0.8,0.5,1.3,0.5c1.2,0,2.9-1.2,3.9-2.3c0.8-0.9,1.3-1.9,1.3-2.9c0.1,0,0.3,0,0.4,0
	c0.7-0.1,1.8-0.2,2.3-1.2c0.4-1.1-0.2-2.1-0.9-3c0,0,0,0,0,0c0.5,0.2,1,0.5,1.6,1c1.1,0.8,2.1,2.8,3.1,4.8c1.6,3.2,3.3,6.6,6.2,6.8
	c0,0,0,0,0,0c3.1,0,4.9-3.1,6.3-5.6c0.4-0.7,0.9-1.7,1.3-2.2c0,0.2,0,0.6,0,0.8c0,0.8,0.1,1.8,0.6,2.5c-0.1,0.1-0.1,0.2-0.2,0.3
	c-0.6,0.9-1.4,2-0.8,3.1c0.4,0.7,1.1,1,2.1,1l0.8,0c2.3,0,5.8,0,7.1-3.2c0.2-0.5,2.1-1.4,5.2-1.4c2.3,0,4.4,0.6,5.6,1.5
	c4.5,3.5,10.2,4,11.9,4.1c1.2,0.1,1.9,0.4,3,0.9c1.2,0.6,2.6,1.3,5.1,1.7c1.1,0.2,2.2,0.4,3.2,0.7c1.9,0.4,3.4,0.7,4.4,0.7
	c0.3,0,1.3,0,1.9-0.7c0.1-0.1,0.2-0.3,0.3-0.5c1.8,0,5.4,1.1,7.2,2.5c0.9,0.7,1.5,1.3,1.9,1.9c-2.3,0.3-6,2.1-6.8,4.1
	c-0.4,0.9-0.2,1.9,0.5,2.6c1.8,1.8,7.5,2,10.7,2c2.7,0,5.2-0.2,7.2-0.5c2-0.3,3.6-0.5,5-0.6c2.3-0.2,4.2-0.4,5.9-1.3
	c0.5-0.3,0.9-0.4,1.2-0.4c0.5,0,0.9,0.4,1.8,1l0.6,0.5c0.7,0.6,1.6,0.9,2.7,0.9c0.2,0,0.4,0,0.6,0c0,0.3,0.1,0.6,0.4,0.9
	c0.5,0.6,1.2,0.6,1.6,0.6c0.4,0,0.8,0,1.4,0.5c1.2,1,1.6,1.9,1.5,2.1l0,0c0,0-0.1,0.1-0.4,0.2c-1.3,0.4-1.6,1.4-1.5,2.1
	c0.3,1.6,2.9,2.9,4.5,2.9c1.3,0,2.2-0.8,2.3-1.9c0.1,0,0.2,0,0.3-0.1c0.6-0.1,1.6-0.3,2.1-1.3c0.5-1.1-0.1-2.4-1.2-3.9
	c-2.7-4-2.6-5.1-2.5-5.4c0.1-0.1,0.3-0.3,0.9-0.4c1.7-0.3,9.7-2.4,10.6-5.2c0,0,0,0,0,0c0.4,1.2,1.4,2.3,3.7,2.4
	c1.1,0,1.4,0.4,1.9,0.9c0.5,0.6,1.4,1.6,3.2,1.6l1.7,0c1.6,0,2.6,0.1,3.4,1c1.5,1.7,4.7,2.8,7.8,2.8c0.9,0,1.7-0.1,2.5-0.3
	c4.2-0.9,7.7-1.4,9.8-1.4c0.3,0,0.6,0,0.9,0c0.8,0.1,1.7,0.3,2.4,0.5c0.9,0.2,1.6,0.4,2.3,0.4c0.7,0,1.2-0.2,1.6-0.6
	c0.3-0.3,0.5-0.8,0.5-1.5c0-0.2,0.1-0.4,0.3-0.8c0.4-0.6,1-1.8,0.1-3.2c0.1,0,0.2,0.1,0.3,0.1c0.5,0.2,0.9,0.3,1.3,0.3
	c1.3,0,1.8-1.1,2-1.5c0-0.1,0.1-0.3,0.2-0.3c0.1,0,0.2,0,0.3,0c0.1,0.4,0.3,0.7,0.4,0.9c1.6,2.5,5.8,2.6,6.6,2.6c0.1,0,0.3,0,0.4,0
	c-0.2,0.5-0.6,1.3-1.2,2.3c-0.9,1.5-0.8,2.7-0.5,3.5c0.6,1.5,2.1,2.6,4.3,3.2c0.8,0.2,1.5,0.3,2.2,0.3c1.5,0,2.2-0.6,2.6-1.2
	c0.5-0.8,0.5-1.9-0.1-3.2c-0.8-1.6-1.1-2.9-1.2-3.6c0.6,0.1,1.1,0.2,1.6,0.2c2,0,3.6-0.9,5-3.1c0.5-0.7,1-0.9,1.7-1.1
	c0.9-0.3,2.3-0.8,2.5-3c0.1-1.4-0.2-3.8-1.3-4.9c-0.5-0.6-1.1-0.7-1.5-0.7c-0.2,0-0.4,0-0.6,0.1c0-0.2-0.1-0.4-0.2-0.6
	c0.4-0.2,1.1-0.6,1.2-1.4c0.1-1.1-1-1.8-1.7-2.3c-1.5-1-3.6-1.5-5.6-1.9c-2.1-0.5-4.4-1-5.8-2.1c-1.7-1.3-1.7-2.5-0.1-4.5
	c0.6-0.8,1.1-1.5,0.9-2.3c-0.1-0.8-0.7-1.3-1.3-1.7c-0.2-0.2-0.5-0.4-0.8-0.6c-0.2-0.2-0.3-0.7-0.3-1.5c0.1-1.2,0.7-2.3,1-2.4
	c0.2,0,0.9,0.3,1.3,0.5c0.7,0.3,1.4,0.7,2.2,0.7c1,0,1.7-0.6,2-1.6c0.4-1.4-0.3-2.4-1-3.1c1.2-0.5,2.8-1.4,2.8-3.9l0-1.2
	c0-2.4,0.1-4.4-1.3-6.2c-0.3-0.3-0.5-0.6-0.8-0.9c-0.8-0.9-1.3-1.5-1.1-4.5c0.2-2.4-0.1-4-0.3-5.1c0,0,0,0,0-0.1
	c0.1,0,0.1,0.1,0.2,0.1c0.6,0.3,1.2,0.5,1.8,0.5c0.9,0,1.6-0.5,1.8-1.4c0.4-1.4-0.6-2.4-1.2-3c0,0-0.1-0.1-0.1-0.1
	c1.4-0.5,5.5-1.3,9.1-1.3c0.4,0,0.8,0,1.2,0c1.4,0.1,2.4,0.5,3.4,0.9c1.3,0.5,2.7,1.1,5,1.1c0.4,0,0.7,0,1.1-0.1
	c1-0.1,1.9-0.1,2.7-0.1c1.2,0,1.9,0.1,2.2,0.2c0,0.1-0.1,0.2-0.2,0.3c-0.5,0.7-1.2,1.7-2,2.9c-1.7,2.6-5,7.4-5.9,8.1
	c0,0-0.2,0.1-0.8,0.1c-1,0-2.3-0.3-3.7-0.6c-1.3-0.3-2.5-0.5-3.5-0.6l-0.4,0c-2.3,0-2.7,1.2-2.8,1.7c-0.2,1.1,0.7,2.2,2.1,2.7
	c-0.2,0.3-0.6,0.8-1.3,1.5c-1.5,1.6-2.4,2.6-2.9,2.6l-0.3,0c-0.7,0-1.3,0.3-1.6,0.9c-0.4,0.8-0.4,1.9,0.2,2.8c0.6,1,1.5,1.5,2.5,1.5
	c0.2,0,0.4,0,0.6-0.1h0c1.5,0,5.3,3.3,5.9,4.3c0,0.2-0.2,1-0.4,1.5c-0.4,1.3-1,3.3,0.7,4.2c0.4,0.2,1,0.4,1.6,0.6
	c0.7,0.2,2.5,0.8,2.7,1.2c0,1.7,1.6,2.5,2.8,3c-0.2,0-0.4-0.1-0.6-0.1c-1,0-1.8,0.7-1.9,1.8c0,0.3-0.2,0.8-0.3,1.2
	c-0.4,1.4-1,3.6,0.5,4.9c0.4,0.3,1,0.5,1.5,0.5c0.9,0,1.8-0.5,2.5-1c0.2-0.1,0.6-0.4,0.8-0.4c0.2,0.1,0.5,0.3,0.8,0.4
	c1,0.5,2.2,1.1,3.4,1.5c-1.6,0.3-2.3,1.3-2.4,2.2c-0.2,1,0.3,2,1.3,2.6c0.2,0.5,0.3,1.7,0.3,2.5c0.2,2.3,0.3,4.6,2.3,4.6h0.1l0.2,0
	c1.6-0.3,2-1.9,2.2-3.1c0.1-0.5,0.3-1.5,0.6-1.6c1.7-0.7,2-2.2,2.2-3.2c0.1-0.5,0.2-0.9,0.4-1.1c0.2-0.2,0.5-0.3,0.9-0.3
	c0.7,0,1.6,0.6,2.5,1.5c1,1.2,2,1.8,2.7,2.1c0.8,0.4,0.8,0.4,0.8,1c0.1,1.1,0.3,1.9,0.5,2.5c-1.8,0.5-2.7,1.7-2.8,3.6
	c-0.2,3,3.2,6.1,4.3,7c0.5,0.4,0.8,1.1,1.2,1.7c0.5,0.9,1,1.9,2.1,1.9c1.1,0,1.7-1.1,1.9-1.5c0.3-0.6,0.9-0.7,1.7-0.9
	c0.7-0.1,1.6-0.3,2.2-1.1c0.3-0.5,0.4-1.1,0.3-1.7c-0.2-0.9-0.4-1.8-0.7-2.6c0.4,0,0.8-0.1,1.2-0.3c2.8-1.5,3.1-3.3,3.5-6.7
	c0.2-1.5,0.6-1.5,1-1.5c0.3,0,0.5,0,0.8,0.1c0,0,0.5,0.1,0.5,0.1c0.9,0,1.4-0.4,1.5-0.6c0.5-0.6,0.4-1.4,0.3-1.9c0-0.1,0-0.2,0-0.2
	c1-0.5,1.5-1.4,1.4-2.4c-0.2-1.5-1.9-2.8-3.7-2.9c-0.2-0.3-0.3-2,0-2.8c0.5,0,1.4-0.1,2.3-0.1c2.5,0,4.5,0.3,5.5,0.7
	c1.3,0.6,2.7,0.7,4,0.7c0.5,0,1.3,0,1.7,0.1c0.3,2.4,2.6,4.1,5.6,4.1c0.4,0,0.7,0.1,1,0.1c-0.7,0.5-1.1,1-1.1,1.7
	c0,1.1,0.9,1.7,1.6,2.1c0.1,0.1,0.3,0.2,0.5,0.3c-0.7,0.8-1.6,1.2-2.8,1.2c-0.4,0-0.8,0-1.2-0.1c-0.4-0.1-0.7-0.1-1-0.1
	c-1.4,0-2.1,0.8-2.3,1.6c-0.3,1.2,0.6,2.6,2.3,3.5c0.2,0.2,0.2,0.4,0.2,0.6c0,0.8-0.1,2.2,1.5,3.4c3.6,2.7,2.8,3.8,2.5,4.3
	c-0.5,0.7-0.7,0.8-0.7,0.8c-0.8,0.1-1.6,0.2-2.5,1.2l-0.3,0.3c-1.2,1.4-2.3,2.5-4.3,3.2c-0.8,0.3-1.4,0.6-2,0.9
	c-0.3,0.2-0.7,0.4-0.8,0.4c0-0.1-0.2-0.3-0.5-0.8c-0.7-1.4-1.9-2-2.7-2.4c-0.7-0.3-1-0.5-1.2-1c-0.4-0.9-1.3-1.4-2.2-1.4
	c-1.2,0-2.3,0.8-2.5,1.9c-0.1,0.4-0.2,2,2.1,2.8c1,0.4,1.8,1,2.4,1.6c-0.5,0.1-1.1,0.2-1.6,0.4c-0.8,0.2-1.8,0.4-2.3,0.4
	c0,0,0,0,0,0c-0.1-0.1-0.1-0.2-0.2-0.3c-0.7-1-2-2.6-4.3-2.6c-0.2,0-5.2,0-6,2.2c-0.1,0.3-0.3,1.3,0.7,2.1c0.6,0.5,1.4,0.8,2.1,1.2
	c0.2,0.1,0.5,0.2,0.8,0.4c-0.6,0.5-1.2,1-1.8,1.6c-1.5,1.4-4.2,3.9-5.4,3.9c-0.9,0-3.2-1.5-4.9-2.5c-2.4-1.5-4.7-2.9-6.4-3
	c-0.2,0-0.5,0-0.7,0c-2,0-2.6,1-2.8,1.6c-0.3,0.9-0.1,2.3,2.2,4c2.5,1.9,5.2,3.6,9.4,3.6c0.4,0,0.9,0,1.3-0.1c0.5,0,0.9-0.1,1.3-0.1
	c1.2,0,1.9,0.2,2.4,0.3c0,0-0.1,0-0.1,0.1c-1.2,0.8-2.3,2.3-3.5,3.9c-1.3,1.7-2.9,3.9-4.2,4.2c-0.2,0-0.4,0.1-0.6,0.1
	c-1.1,0-2.6-0.5-3.9-1c-1.2-0.4-2.2-0.8-3-0.8c-0.9,0-1.6,0.5-1.9,1.2c-0.3,0.8-0.2,1.7-0.1,2.5c0.1,0.5,0.2,1.3,0,1.6l-0.6,0
	c-0.6,0-1.1,0.1-1.5,0.1c-1.2,0-2.1-0.1-4.3-1c-2.5-1-8.9-2.8-12-2.8c-0.5,0-2.1,0-2.6,1.2l-0.3,0.6l0.3,0.8c0.5,1,2,1.4,4.4,1.9
	c1.3,0.3,4.1,0.9,4.5,1.4c-0.1,2.2,2.8,2.4,4.8,2.5c1,0.1,3.2,0.2,3.4,0.7c0.1,0.3,0,0.6-0.2,0.8c-0.7,0.8-2.8,1.5-5.1,1.5
	c-2.1,0-3.8,0.1-4.4,1.4c-0.2,0.5-0.2,1,0.1,1.5c-0.4,0.3-0.8,0.7-1,1.5c-0.3,1.4-0.3,1.4-1.3,1.5c-2,0.3-2.2,2.3-2.3,3.3
	c0,0.4-0.1,1-0.2,1.2c-3.3,0.8-5,2.4-5,4.5c0,0.6-0.9,2.4-1.6,3.8c-1,1.9-1.9,3.8-2.3,5.4c-0.3,1.6-1.1,10.9,0.8,12.1
	c0.7,0.5,3.3,1.8,6.1,1.8c0.4,0,0.8,0,1.1-0.1c0.1,0,0.2,0,0.3,0c1,0,1.7,1.1,2.4,3.9c0.3,1.2,0.9,2.5,1.5,3.8
	c0.4,0.8,0.9,2,1.1,2.5c-0.5,0.8-1.6,2.7-1,3.8l0.4,0.7l1.1,0.1c0.1,0,0.2,0,0.3,0c0.4-0.1,1.1-0.3,2.5-0.8c1.8-0.7,4.6-1.7,5.9-1.7
	c0,0,0,0,0,0c0.9,0,2.4,0.9,3.6,1.5c1.4,0.8,2.7,1.5,3.7,1.5h0.1l0.3,0c0.2,0,0.4,0,0.6,0c1.8,0,4,0.6,4.3,1
	c0.6,0.8,1.8,1.3,3.1,1.9c0.7,0.3,1.7,0.8,2,1c0.5,1.5,2.6,3.8,6.9,4.9c3.8,1,6.5,2.9,7.3,3.5c1.2,1,2.9,1.5,5.3,1.5
	c0.5,0,1,0,1.6-0.1c0.4,0,0.8,0,1.2,0c1.4,0,2.7,0.2,4,0.3c1.1,0.1,2.2,0.3,3.2,0.3c0.9,0,1.5,0.5,1.8,1c0.1,0.2,0.2,0.4,0.1,0.5
	c-0.6,1.2-2,3.6-0.6,5.9c0.5,0.8,0.3,4.6,0.3,6.1c0,0.7-0.1,1.4-0.1,1.9c0,1.7,1.4,2.8,2.6,3.7c0.5,0.4,1.3,1,1.4,1.3
	c0,2,1.4,2.9,2.8,3.7c0.5,0.3,1.1,0.7,1.8,1.2c0.9,0.7,1,1.5,1.1,2.2c0.1,1.3,0.7,2,1.7,2c0.2,0,1,0.5,1.5,0.8
	c1.4,0.8,2.2,1.3,3.1,1.3c1,0,1.7-0.7,1.7-1.7c0-0.7,0.7-2.3,1.2-2.4c0.2,0.2,0.4,0.4,0.7,0.6c0.8,0.6,1.4,1,2.1,1h0.6l0.6-0.5
	c0.5-0.6,0.6-1.4,0.5-2.1c-0.1-1-0.5-1.7-1-2.1c1.8-1.5,3.3-3.2,1.1-6.3c-0.7-0.9-0.7-1.8-0.8-2.9c-0.1-1.1-0.1-2.3-0.7-3.6
	c-0.3-0.8-0.3-1.3-0.3-1.9c0.1-1,0.1-2.3-1.5-4.1c-1.2-1.4-1.8-2.7-1.9-3.3c0.1,0,0.1,0,0.2,0c1.8,0,5-0.1,8.1-3.3
	c1.1-1.1,2.3-1.9,3.5-2.7c2.2-1.5,4.4-3,4.9-5.9c0.4-2.6,1.1-9-1.4-13.4c-1.6-2.7-4.7-4.5-6.9-5.9c-0.8-0.5-1.6-1-1.9-1.3
	c-0.1-0.1-0.5-0.7,2-3.5c1.3-1.4,1.3-2.8,1.3-3.6c0,0,0,0,0,0c0.1,0,0.2,0,0.2,0c1.5-0.2,3.1-0.9,2.6-4.1c-0.3-2.1-0.9-3-1.5-3.8
	c-0.3-0.5-0.6-0.9-0.8-1.6c-0.4-1.6-1.1-2.3-1.6-2.7c0,0,0,0,0,0c0,0,0,0,0.1,0c0.5-0.4,1.5-1.1,1.6-2.6c0-0.1,0.2-0.2,0.3-0.2
	c0.5-0.3,1.8-1.1,1.1-3.1c-0.5-1.3-1.5-1.8-2.3-2.2c-0.9-0.4-1.2-0.7-1.3-1.4c-0.1-0.9,0.2-1.2,1-1.8c0.4-0.4,1-0.8,1.3-1.4
	c0.2,0,0.6-0.1,1.2-0.1c1.4,0,3.2,0.3,4.8,0.7c1.2,0.3,1.9,0.8,2.5,1.2c0.5,0.3,1.1,0.7,1.8,0.7c0.5,0,1-0.2,1.5-0.6
	c0.2,0.1,0.9,0.4,1.5,0.6c0.9,0.3,1.7,0.7,2.4,0.7c0.3,0,0.7-0.1,1-0.2c0.2-0.1,0.6-0.3,0.9-0.5c1-0.5,2.6-1.3,3.8-1.3
	c1,0.1,1.4,0.4,1.9,0.9c0.6,0.5,1.3,1.1,2.5,1.2c1.2,0.1,1.2,0.4,1.2,0.9c0,0.9,0.4,2,2.2,2.1c0.5,0,0.5,0,0.6,0.4
	c0.5,1.5,1.5,2,2.1,2.3c0.4,0.2,0.4,0.2,0.5,0.7c0.4,3.4,5.7,3.6,7.4,3.6c0.3,0,0.6,0,0.9,0c0.1,0,0.3,0.3,0.4,0.4
	c0.4,0.4,1,1.1,2,1.1c0.5,0,0.9-0.2,1.4-0.5c0.1-0.1,0.2-0.1,0.2-0.2c-0.6,0.8-1.4,2-1.2,4.2c0.1,1.5,0.5,2.7,0.8,3.6
	c0.2,0.6,0.4,1.4,0.4,1.6c-0.7,0.6-0.8,1.2-0.8,1.6c0,1,0.9,1.7,1.6,2.2c0.3,0.2,0.9,0.7,1,0.9c-0.4,0.9-0.3,1.8,0.2,2.5
	c0.8,1.1,2.2,1.2,3.3,1.2c0.3,0,0.6,0,0.9,0c0.2,0.1,0.5,0.7,0.7,1c0.3,0.8,0.9,1.9,2.1,1.9c0.2,0,0.4,0,0.6-0.1
	c0,0.1,0.1,0.1,0.1,0.1c0.4,0.8,1.1,2.2,2.7,2.3l0.3,0c2,0,6.8-1.8,6.8-4.6c0-0.1,0-0.3,0.3-0.3c0.1,0,0.4,0.1,0.6,0.4
	c0.2,0.3,0.7,1.1,1.6,1.1c0,0,0,0,0,0c1.3,0,1.5-1.3,1.6-1.8c0-0.3,0.1-0.8,0.3-0.9c0.1,0,0.2,0,0.3,0c0.5,0,1-0.2,1.3-0.6
	c0.6-0.7,0.5-1.6,0.4-2.1c-0.1-0.4-0.1-0.7,0-0.8c0.2-0.2,0.4-0.4,0.6-0.6c1.2-1.1,1.7-2.1,0.7-3.8c0.8-0.6,1.9-1.5,2.4-3.5
	c0.1-0.4,0.2-0.7,0.3-1c0.4,0.8,0.9,1.5,1.4,2.1c0.6,0.7,1,1.4,1.1,1.9c0.1,1.3,1.2,2.7,2.4,4.1c0.6,0.7,1.5,1.8,1.6,2.2
	c0,1.2,0.8,2.2,1.4,3.1c0.3,0.3,0.7,0.9,0.7,1.1c-0.1,1.1,0.8,2,1.4,2.6c0.3,0.2,0.7,0.7,0.7,0.8c0.1,1.2,1.2,2,2.3,2.9
	c0.4,0.3,1.1,0.8,1.3,1.1c-0.2,1-0.3,2.5,0.4,3.5c0.4,0.5,0.9,0.8,1.5,0.9c0.5,0.1,1.2,0.5,1.3,0.7c-0.7,1-1.8,2-2.3,2
	c-0.9-0.5-1.6-0.8-2.3-0.8c-1.2,0-2.2,0.7-2.4,1.8c-0.1,0.6,0,2,2.6,2.8c3.1,0.9,8,4.6,8.7,6.5c0.5,1.2,1.5,4.1,4,4.1
	c0.7,0,1.3-0.2,2-0.6c0,0,0,0,0,0c0,0,0,0,0.1,0.1c0.3,0.4,0.9,1.1,1.9,1.1c0.5,0,1-0.2,1.5-0.6c0.1,0.1,0.7,0.6,1.1,0.9
	c1,0.9,2.3,1.9,4,1.9c0.3,0,0.6,0,0.9-0.1c0.3-0.1,0.5-0.1,0.8-0.1c1.2,0,1.9,0.6,1.9,0.8c-0.1,0.1-0.8,0.2-1.4,0.3
	c-1.2,0.2-2.8,0.5-4.5,1.6c-1.2,0.8-2,0.8-2.7,0.9c-0.8,0-1.9,0.1-2.8,1.3c-0.2,0.3-0.3,0.3-0.7,0.4c-0.6,0-1.4,0.1-2.3,0.8
	c-1.1,0.9-1.6,2.8-1.2,4.1c0.3,0.9,1,1.4,1.9,1.4c0.8,0,1.5-0.4,2.4-1.2c0.9-0.8,1.2-0.8,1.3-0.8l0.6,0c1.1,0,2.1-0.4,3.4-1.5
	c1.8-1.5,4-2.4,5.7-2.4c0.6,0,1.2,0.1,1.5,0.4c0,0.1-0.3,0.6-0.5,0.9c-0.4,0.8-0.9,1.8-0.3,2.8c0.2,0.4,0.7,0.9,1.8,1l0.4,0
	c1.3,0,2.3-0.7,3-1.3c0.3-0.2,0.8-0.6,1-0.6c0,0,0.2,0,0.7,0.7c1.1,1.5,2.1,2.1,2.7,2.6c0.1,0.1,0.2,0.1,0.3,0.2
	c0,0.1-0.1,0.2-0.1,0.4c-0.7,2.2-1.4,2.4-2.2,2.5c-1.7,0.1-2,1.1-2,1.6c-0.1,1.8,2.8,2.6,3.4,2.7c-0.7,0.5-1.3,1.1-1.9,1.7
	c-1.4,1.4-2.8,2.8-4.9,2.8l-0.3,0c-1-0.1-1.9-0.1-2.7-0.1c-2.6,0-4.7,0.5-6.4,3c-1.4,2.2-6.6,5.7-8.9,5.7c-1.1,0-4.8-0.1-9.2-0.1
	c-25,0-26.8,1.6-27.5,2.2c-2.5,2.3-4,3.6-4.5,5.4c-0.1,0-1.2,0-1.2,0c-1.2,0-2.8,0.1-4.3,1.3c-1.2,0.9-2.5,2.4-3.8,3.9
	c-1,1.1-2.4,2.8-3.1,3.2c-0.2-0.1-0.5-0.1-0.7-0.1h-0.6l-0.6,0.5c-0.5,0.5-0.5,1.2-0.5,1.6c0,0.4,0,0.9-0.2,1.3
	c-0.3,0.4-1.6,1.5-2.5,2.3c-2.4,2.1-3.8,3.2-3.3,4.6c0.1,0.3,0.5,1.1,1.8,1.1c1.5,0,3.2-1.4,5.7-4c-2.2,2.9-3.9,7.5-4.3,9.1
	c-0.5,2.1-3.9,4.9-6.2,6.4c-2.6,0-17.7,0.2-19.1,0.2c-0.6,0-1.6,0-7.7,5.4c-0.3-0.1-0.7-0.2-1.1-0.2c-0.8,0-1.6,0.2-2.4,0.5
	c-1,0.3-2.1,0.7-3.3,0.7c-0.2,0-0.5,0-0.8,0c-0.4-0.1-0.8-0.1-1.3-0.1c-3.6,0-9.7,1.5-11.4,4c-0.5,0.8-0.6,1.6-0.3,2.4
	c0.5,1.2,1.2,1.9,2.2,2.2c-0.4,0.2-0.8,0.5-1.3,0.9c-0.3,0.3-0.7,0.5-1.2,0.9c-0.5,0.4-0.8,0.4-1.1,0.4c-0.4,0-0.9-0.2-1.5-0.4
	c-1-0.4-2.2-0.9-3.9-1l-0.3,0C492.4,382.6,490.1,384.2,488.2,385.6z"/>
<path class="st0" d="M396.9,300.6c-2.7,0-5.6,1.9-5.6,4.9c0,3.4,2.5,10.1,9.3,13.8c2.2,1.2,2.4,3.8,2.6,6c0.2,1.8,0.4,4.3,2.7,4.3
	l0.3,0c1-0.1,1.8-0.7,2.3-1.7c1.1-2.2,0.8-6.3-0.8-9.1c-0.7-1.3-1.6-3.8-2.6-6.5c-1.5-4.2-3-8.2-4.3-9.8
	C399.9,301.2,398.5,300.6,396.9,300.6z"/>
<path class="st0" d="M301.5,234.5c0,0-0.1,0-0.3,0c-3.3,0-5.3,3.4-5.8,5.5c-0.3,0.1-2,0.3-2.8,0.3c-1.5,0.2-2.5,0.3-2.9,1.1
	l-0.3,0.7l0.4,0.8c0.7,1.2,2.5,2.5,10.5,2.5c2.6,0,5-0.2,6.3-0.2c3.1-0.2,3.6-2.1,3.9-3.2c0.2-0.8,0.3-1,1-1.1
	c0.7-0.1,1.3-0.2,1.7-0.2c2-0.2,2.7-0.4,5.9-3.2c1.5-1.3,4.1-2.5,6.7-3.6c4-1.7,7.4-3.3,7.4-5.9c0-1-0.7-2.1-2.5-2.1
	c-3.8,0-13.3,5-15.2,6.9c-0.4,0.4-0.8,0.5-1.3,0.5c-1.6,0-3.8-1.5-5.3-3.6c-1.7-2.3-5.6-2.5-6.7-2.5c-1.7,0-4.5,0.3-4.9,2.1
	c-0.2,0.7,0,1.7,1.7,2.5C301.1,232.9,301.6,234.3,301.5,234.5C301.5,234.5,301.5,234.5,301.5,234.5z"/>
<path class="st0" d="M268.6,202.6c-0.5,0.8-1.7,2-2.3,2.7c-1.6,1.7-2.4,2.5-2,3.6l0.2,0.8l0.9,0.3c0.2,0,0.3,0.1,0.5,0.1
	c1,0,2-0.6,3.2-1.3c1.2-0.7,2.5-1.6,4.1-1.9c1.7-0.4,3.6-1,3.9-2.5c0.2-1.3-0.8-2.2-1.4-2.7c0.3-0.1,0.8-0.2,1.4-0.2
	c0.4,0,0.7,0,1.1,0.1c0.8,0.1,1.5,0.2,2.1,0.2c2.7,0,4.3-1.4,7-4.8c1.3-1.6,1.7-3.1,1.1-4.3c-0.5-1-1.5-1.6-2.9-1.6
	c-1.5,0-2.9,0.7-3.6,1.8c-0.4,0.6-2.3,1.6-4.7,1.6c-1.2,0-2.2-0.2-3-0.6c0.2-0.2,0.5-0.4,0.8-0.5c1.2-0.8,3.1-2.1,2.3-4
	c-0.6-1.6-2.8-1.6-3.6-1.6c-3.7,0-10.5,1.8-12.7,3.8c-1.1,1-6.8,2.1-9.8,2.7c-4.8,1-5.7,1.1-5.8,2.4l-0.1,1l1,0.5
	c1.4,0.6,2.9,0.9,4.4,0.9c3.7,0,6.6-1.9,8-2.8c0.1-0.1,0.5-0.2,1-0.2c1.4,0,2.9,0.6,3.6,1.1c-0.4,0-0.9-0.1-1.4-0.1
	c-0.7-0.1-1.3-0.2-1.9-0.2c-0.4,0-1.6,0-2.2,0.9c-0.9,1.2-0.1,2.4,0.2,3c0,0,0.1,0.1,0.1,0.2c0,0,0,0,0,0c-2,0.7-2.4,2.1-2.7,2.9
	c-0.1,0.1-0.1,0.4-0.2,0.4c-1.4,0.1-1.9,1-1.9,1.7c0,1.8,3,2.9,4.5,3c0.3,0,0.7,0,1.1,0c4.4,0,5.4-1.6,5.5-3
	C264.6,205,267,202.8,268.6,202.6z"/>
<path class="st0" d="M584.7,376.6c-0.6,0-1.1-0.2-1.6-0.6c-0.7-0.6-1.3-1.2-1.3-1.5c0-0.3,0.2-1,2-2.8c3.1-3.1,4-3.4,5.6-3.4
	c0.2,0,1.1,0,1.1,0c0.1,0,6.5,0,6.5-2.4c0-0.7-0.4-1.5-2.1-1.5l-0.8,0c-1.1,0-2.2-0.2-3-0.4c0.5-0.6,0.7-1.5,0.5-2.4
	c-0.1-0.5-0.2-0.9-0.5-1.3c0.3,0.1,0.6,0.3,0.9,0.4c0.7,0.3,1.8,0.9,2,1.2c0.4,3.2,8.6,3.2,8.7,3.2c1.5,0,2.6-0.2,3.3-0.5
	c0.5-0.2,0.8-0.3,1.1-0.3c0.4,0,0.7-0.1,0.9-0.2c0,0.1,0,0.2,0,0.3c0,0.6,0.2,1.1,0.4,1.4c-0.1,0.1-0.3,0.1-0.6,0.2
	c-0.6,0.2-1.3,0.4-2.1,0.7c-3.1,1-8.3,2.8-10.4,2.8l-0.4,0c-2.3,0-3.2,1.3-4.1,2.6c-0.5,0.7-1.1,1.6-2,2.4
	C587.2,375.9,585.8,376.6,584.7,376.6z"/>
<path class="st0" d="M576.6,366.8c-4.3-6.2-4-10.6-3.8-12.8c0-0.6,0.1-1,0-1.3c-0.2-2-2.4-2.1-4.2-2.2c-1.3-0.1-3-0.2-3.9-0.9
	c-0.5-0.4-1-0.6-1.6-0.6c-0.7,0-1.4,0.3-2.1,0.8c2-2,4.1-4.2,5.9-5.3c3-1.7,13.1-5.7,19.2-5.7c1.1,0,3,0.2,3.6,1.2
	c0.6,1,0.7,1.8,0.5,2.4c-0.5,1.2-2.5,2-4.2,2.5c-0.4,0.1-0.8,0.3-1.1,0.4c-2.1,0.8-2.7,2.4-2.5,3.7c0.2,1.1,1.1,1.9,2.2,1.9
	c0.5,0,1.3-0.2,2.2-1c0.4-0.4,0.7-0.5,1-0.6c-0.1,0.2-0.2,0.4-0.4,0.6c-2.1,2.5-1,4.2-0.3,5.3c0.3,0.5,0.6,1,0.7,1.5
	c0.1,1.1,0.8,2,1.8,2.6c0,0,0,0,0,0c-0.4,0-1.2,0.2-1.8,1.3c-0.9,1.7-3.8,4.1-5.4,4.1c0,0,0,0,0,0
	C580.5,364.8,578.4,365.8,576.6,366.8z"/>
<path class="st0" d="M609.1,362.7c0.1-0.4,0.1-0.9,0.1-1.4c0.2-0.1,0.4-0.3,0.6-0.4c0.9-0.6,2.2-1.5,2.3-3c0.1-0.2,0.3-0.5,0.7-0.7
	c-0.3,1.1-0.4,2.1,0.2,2.9c0.4,0.5,0.9,0.8,1.6,0.8c0,0,0.6-0.1,0.7-0.1c0.2,0,0.3,0,0.5,0c-0.8,0.4-2.1,0.7-3.2,0.9
	C611.2,362,609.9,362.3,609.1,362.7z"/>
<path class="st0" d="M654.4,353.4c-1.1,0-2-0.3-2.4-0.5c0.3-0.7,0.2-1.5-0.1-2.1c-0.5-1-1.7-1.5-3.1-1.5c-0.8,0-1.6,0.2-2.3,0.5
	c-0.4,0.2-0.8,0.4-1.2,0.7c0.4-0.6,0.7-1.2,0.4-2c-0.2-0.4-0.6-0.9-1.7-0.9c-0.2,0-0.4,0-0.6,0c0,0,0,0,0,0c-0.6,0-0.8-0.2-1.3-0.7
	c-0.5-0.5-1.2-1.2-2.4-1.2c-0.7,0-1.4,0.3-2.1,0.8c-1.2,0.9-2.5,1.3-4.3,1.3c-0.9,0-1.8-0.1-2.8-0.2c-0.3,0-0.7-0.1-1-0.1
	c-1.1,0-2.2,0.2-3.3,0.4c-0.9,0.1-1.8,0.3-2.6,0.3c-0.6,0-1-0.1-1.4-0.3c-0.2-0.4,0.7-1.5,1.1-2c0.9-1.1,1.8-2.2,1.6-3.4
	c-0.1-0.6-0.4-1.1-0.9-1.4c0-0.2,1-0.9,2.1-0.9l0.4,0c3.7,0,3.7-4.7,3.7-6.7c0-2,6.4-10.7,8.4-11.5c0.3-0.1,0.7-0.2,1-0.2
	c-1.2,0.9-1.7,2.1-2.1,3.2c-0.4,1-0.7,2-1.7,3.1c-2,2.1-2,4.6-1.5,5.8c0.3,0.7,0.9,1.1,1.6,1.1c0.4,0,1.4-0.2,1.7-1.6
	c0,0,0.5-0.3,1.2-0.3c0.1,0,0.2,0,0.2,0c0,0.2,0,0.3,0,0.4c0.1,1,0.9,1.6,1.7,2.1c0.4,0.3,1.1,0.7,1.1,1c0.6,1.9,3.3,2.9,5,2.9
	c1.5,0,2.4-0.8,2.6-1.7c0,0,0,0,0,0c0.5,0,1.1,0.1,1.6,0.3c-1.2,1.5-1.5,4-1.2,5.5c0.4,1.7,1.7,1.8,2.1,1.8c0.3,0,0.7-0.1,1-0.3
	c0,0,0,0,0,0c-0.8,1.1-0.9,2.5-0.6,3.5c0.3,1,1.1,1.6,1.9,1.6c0.4,0,1-0.1,1.5-0.7c0.2,0.2,0.4,0.7,0.6,1.2c0.1,0.5,0.3,1.3-0.1,2
	C656.2,353.1,655.4,353.4,654.4,353.4z"/>
<path class="st0" d="M251.5,343.1c-1.4,0-2.9-0.1-4.6-0.4c-0.4-0.5-0.8-1-1.3-1.4c-0.3-0.2-0.7-0.6-0.8-0.8c0-1.1-0.8-1.7-2.4-1.8
	c-0.2,0-0.7,0-0.8-0.1c-0.2-0.3-0.4-0.6-0.6-0.9c-0.6-1.1-1.5-2.8-3.5-2.8c-0.3,0-0.6-0.3-1.1-0.9c-0.6-0.7-1.4-1.6-2.6-1.7
	c-0.2-0.1-0.6-0.7-0.9-1c-0.7-0.9-1.6-2-2.9-2h-0.1l-0.3,0c-0.1,0-0.2,0-0.4,0c-0.4,0-0.6-0.1-0.7-0.2c0.1-1.1-0.6-1.8-1.2-2.3
	c0.1,0,0.2,0,0.3,0c0.8,0,1.7,0.4,2.9,1.3c2.4,1.8,4.9,2,6.5,2c0.6,0,1.2,0,1.8-0.1c1.1,0.1,4.6,4.7,5.3,6.6
	c0.6,1.5,2.3,1.9,3.9,2.3c1.1,0.3,2.4,0.6,2.9,1.1c0.9,1,2.1,1.3,3,1.5c-0.1,0.4-0.2,0.7-0.3,1.1C253.1,343,252.3,343.1,251.5,343.1
	z"/>
<path class="st0" d="M604.4,337.8c-2.4-0.3-6.5-1.8-9.2-3.2C598.5,335.3,602.6,336.7,604.4,337.8z"/>
<path class="st0" d="M206.3,312.9c-2-1.1-6.3-5.4-7.1-8.5c-0.3-1.1,0.1-1.3,0.3-1.4c0.9-0.5,1.6-0.7,2.2-0.7c1.6,0,1.8,2.2,1.8,3.2
	c0,1.7,1,3.7,1.9,5.4C205.6,311.5,206,312.3,206.3,312.9z"/>
<path class="st0" d="M502.5,236.5c-0.3,0-0.7-0.7-0.8-1.6c0-0.7,0.2-1.9,1.8-2c0,0,0,0,0.1,0c0.5,0,0.7,0.1,0.7,0.1
	c0,0,0.1,0.3-0.1,1C503.8,235.2,502.8,236.3,502.5,236.5L502.5,236.5z"/>
<path class="st0" d="M579.2,234.4c-3.4,0-12.8-4.5-15.2-6.9c-1.9-1.9-5-2.3-7.9-2.6c-2.3-0.3-4.7-0.6-5.6-1.6
	c-0.8-0.8-0.7-1.9-0.7-3.1c0-1.6,0.1-4.2-3.4-4.7c-1.4-0.2-1.9-1-2.7-2.4c-0.7-1.3-1.6-2.9-3.7-3.4l-0.5-0.1
	c-1.8-0.4-3.9-0.9-5.7-0.9c-3.1,0-3.9,1.6-4.1,2.6c0,0.2-0.1,0.3-0.1,0.4c-0.2,0-0.4-0.1-0.7-0.1c-0.8-0.1-1.9-0.3-3.3-0.4
	c-0.2,0-0.5,0-0.7,0c-1.5,0-3,0.2-4.5,0.4c-1.3,0.2-2.6,0.4-3.7,0.4c-1.3,0-2.2-0.3-2.7-0.9c-0.8-0.9-0.6-2-0.3-2.7
	c0.5-1.2,1.7-2.1,2.6-2.1c1.7,0,2.4-1,2.9-1.6c0.4-0.5,0.5-0.7,1.2-0.7c0.7,0,1.7,0.2,3,0.7c1.9,0.6,3.9,1,6,1
	c3.9,0,7.3-1.2,8.6-2.9c0.6-0.8,0.7-1.6,0.5-2.5c-0.2-0.7-0.6-1.4-1.1-2.2c-0.7-1.2-1.5-2.6-1.2-3.6c0.3-0.8,1.3-1.5,3-2.1
	c1.1-0.4,2.3-0.6,3.5-0.6c4.9,0,9,3.3,9.1,4.3c-0.2,0.3-0.2,0.9,0.1,1.4c0.4,0.6,1,0.9,1.9,0.9c2.2,0,8.2-1.9,9.2-4.5
	c0.3-0.9,0.1-1.8-0.6-2.5c-0.4-0.3-0.8-0.7-1.1-1.1c-2-1.9-4.2-4-6.9-4c-0.8,0-1.6,0.2-2.4,0.6c-1.8,1-4.5,1.5-6.2,1.5
	c-0.5,0-0.9,0-1.1-0.1c0.1-0.3,0.2-0.6,0.3-0.9c0.7-2.1,1.9-5.5-0.6-9.1c-2.3-3.3-4.8-6.5-8.1-6.5c-0.6,0-1.3,0.1-1.9,0.4
	c-0.2-0.3-0.5-1-0.7-1.5c-0.7-1.7-1.7-4.1-4.1-4.1l-0.3,0c-0.8,0.1-1.6,0.3-2.4,0.7c0.4-0.5,0.7-1.1,0.6-1.8
	c-0.2-1.8-2.6-2.9-5.3-4.2c-1.1-0.5-3.1-1.4-3.4-1.9c-0.2-1.5-1.5-1.9-2.2-2.2c-0.6-0.2-0.7-0.3-0.8-0.6c-0.7-2.2-3.2-3.2-5.3-4.1
	c-0.8-0.3-1.5-0.6-2.1-1c-0.5-0.3-1.1-0.5-1.6-0.5c-1.3,0-2.3,0.9-2.6,2.2c-0.3,1.5,0.4,2.9,1.7,3.5c0.5,0.2,0.9,0.6,1.2,0.9
	c0,0,0,0-0.1,0c-1.4,0-3.7-0.5-5.7-1c-2.4-0.5-4.6-1.1-6-1.1c-0.4,0-1.6,0-2.1,0.9c-0.4,0.7-2.4,1.9-4.1,1.9c-0.1,0-0.2,0-0.4,0
	c-0.7-0.1-2-0.4-3.4-0.7c-2.7-0.6-6.1-1.4-9.3-1.6c-1.2-0.1-2.4-0.1-3.6-0.1c-3,0-5.8,0-6.7-1.2c-1.1-1.5-1.9-2.4-3.6-2.4
	c-0.9,0-1.9,0.3-3.6,0.7c-0.3,0.1-0.6,0.1-1,0.1c-3.5,0-7.8-3-8.4-4.3c0.2-0.1,0.6-0.1,1.3-0.1c1.5,0,3.5,0.3,5,0.6l0.6,0.1
	c0.5,0.1,0.9,0.1,1.3,0.1c2.2,0,3.6-0.8,3.8-2.2c0.2-1.4-0.9-2.4-3.3-3.1c-1.9-0.6-4.4-0.7-6.5-0.8c-1.7-0.1-4.3-0.2-4.7-0.7
	c-1.7-7.1,0-13.6,5-18.2c4.8-4.4,12.2-6.3,17.4-6.3c1.1,0,1.9,0.1,2.4,0.2c-0.2,0.1-0.4,0.2-0.7,0.4c-1,0.6-2.6,1.4-4.4,3.3
	c-2.9,3.1-5.8,6.8-3.1,9.9c0.6,0.6,0.5,1.4,0.5,2.7c-0.1,1.2-0.1,2.7,0.6,4.3c1.2,2.7,6.8,5.8,9.5,5.8c1.1,0,1.7-0.4,2-0.8
	c0.3-0.3,0.7-0.9,0.6-1.9c-0.2-2.9-2.4-3.6-4-4.1c-0.9-0.3-1.7-0.5-2.4-1.1c0.3-0.4,1-0.9,1.5-1.2c1.1-0.8,2.1-1.6,2.2-2.7
	c0-0.6-0.2-1.1-0.7-1.5c-2.2-1.8-2.7-3.2-2.7-4.1c0-0.8,0.3-1.5,1.1-2.3c1.7-1.7,4.3-2.2,6.6-2.6c2.2-0.4,4.3-0.9,5.5-2.2
	c0.8-0.9,3.2-1.9,5.6-1.9c1,0,2.8,0.2,3.3,1.5c0.9,2.4,1.9,3.7,2.7,4.7c0.6,0.7,1,1.3,1.3,2.1c0.3,0.7-0.2,3-0.5,4.3
	c-0.5,2.5-0.9,4.3,0,5.4c0.4,0.5,0.9,0.7,1.5,0.7c1.1,0,2.4-0.7,4.5-1.9c1.1-0.7,2.8-1.6,3.6-1.8c0.6,2.1,2.4,3.4,3.9,3.4
	c0.7,0,1.3-0.3,1.7-0.8c0.3-0.4,0.7-1.1,0.4-2.3c-0.1-0.3,0.1-0.7,0.4-1.1c0.9-1.1,3-2.1,4.6-2.1c3,0,9.4,0.9,10.7,2.6
	c0.2,0.2,0.2,0.3,0.1,0.5c-0.3,1.2,0,2,0.3,2.5c0.9,1.4,3,1.6,4.7,1.8c0.6,0.1,1.5,0.2,2,0.3c0.2,1.7,1.8,3.7,2.3,4.3
	c0.9,1,2.7,2.8,4.5,2.8c1,0,1.9-0.6,2.3-1.5c0.3-0.7,1.7-1.2,3.3-1.2c1.8,0,2.7,0.6,2.8,0.8c0.1,0.2,0.1,0.5-0.2,0.9
	c-0.6,0.9-2.1,1.7-3.5,1.8c-1.6,0.2-2.3,1.2-2.3,2.2c0.1,1.4,1.6,2.7,3.2,2.7c0.7,0,1.4-0.2,2-0.7c1.2-0.9,3.8-2,5.2-2.1
	c0.1,0.9,0.3,1.8,0.8,2.4c0.7,1,1.7,1.5,3,1.5c0.6,0,1.3-0.1,2-0.4c0.3-0.1,0.8-0.2,1.6-0.2c2.3,0,4.6,0.8,5.4,1.3
	c-2.4,3.5-1.8,4.8-1.5,5.2c0.4,0.7,1.1,1.1,1.9,1.1c1.4,0,2.3-1,2.9-1.6c0.2-0.2,0.5-0.5,0.6-0.6c1.4,0.9,2.7,2.3,2.7,2.8
	c-0.3,0.2-0.8,0.3-1.3,0.4c-0.9,0.2-2.7,0.8-2.4,3.2c0.2,1.3,1.2,1.8,2.4,2.1c-0.2,0-0.4,0-0.6,0c-1.7,0-2.9,0.9-3.1,2.6
	c-0.2,1.4,0.2,2.9,1.2,4.1c1.9,2.3,5.2,3.6,7.6,3.7c1.2,0.1,2.8,0.9,4.3,1.7c1.8,1,3.6,1.9,5.2,1.9c0.4,0,0.7-0.1,1.1-0.2
	c0,0,0.1,0,0.3,0c2.4,0,7.6,3.1,8.1,4.2c0,0.8,0.2,2.2,1,3.4c0.7,1,2,2.1,4.6,2.1c0.2,0,1,0,1,0c2.2,0,4.3,0.9,5.2,1.6
	c-3.1,1.4-8.2,4.9-7.8,8.6c-0.1,0.1-0.9,0.1-1.3,0.2c-1.5,0.1-3.8,0.3-4.4,2.6l-0.1,0.3c-0.2,0.8-0.6,2.2-0.9,2.2
	c-0.2,0-1-0.1-2.9-1.7c-2-1.7-3.2-3.4-4.2-4.7c-1.4-1.9-2.6-3.5-4.9-3.7c-0.8-0.1-1.8-0.9-2.7-1.6c-1.2-1-2.4-2-3.9-2
	c-1,0-1.8,0.4-2.6,1.2c-1.8,1.9-1.1,3.8-0.8,4.9c0.1,0.3,0.2,0.7,0.2,0.8c0,0,0,0,0,0c0,0-0.1,0.1-0.5,0.3c-1.1,0.5-1.7,1.6-1.4,2.8
	c0.7,3.3,8,8.3,11.3,8.3c2.7,0,4.5,3.9,4.5,6.5c0,2.2,1.8,3.1,3,3.7c0.4,0.2,1,0.5,1.1,0.7l0,0c0,0,0,0.4-0.8,1.4
	c-1.1,1.4-2.7,2.2-4.8,2.2l0,0c-2.7,0-6-1.3-8.7-3.4c-2.7-2.1-6.1-2.8-8.5-2.8c-0.8,0-3.1,0-3.3,1.6c-0.1,1,0.6,1.7,2,2.1
	c3.5,0.9,13.6,10.3,14.1,13C579.4,234.4,579.3,234.4,579.2,234.4z"/>
<path class="st0" d="M482.4,231.5c-0.5,0-0.9-0.1-1.2-0.3c-0.3-0.2-0.4-0.3-0.4-0.4c0.1-1.1,4.9-3.6,7.7-3.9
	c-0.3,0.5-0.8,1.4-1.7,2.2C485.4,230.6,483.7,231.5,482.4,231.5C482.4,231.5,482.4,231.5,482.4,231.5z"/>
<path class="st0" d="M470.2,222.3c-0.5,0-0.6-0.1-0.6-0.1c-0.1-0.1,0-0.7,0-1c0.1-0.8,0.2-1.9-0.5-2.7c-0.5-0.5-1.1-0.8-2-0.8
	c-1.3,0-2.6,0.4-3.8,0.7c-0.7,0.2-1.5,0.5-1.9,0.5c0-0.1,0.8-0.7,1.4-1c1.7-1.2,4.4-3.1,3.4-6.5c-0.5-1.8-0.3-2.2,0.2-3
	c0.5-0.8,1.2-2,1.4-4.4c0.1-2.4,2.4-3.9,3.5-3.9c0.1,3.2,3.2,4.5,5.6,5.5c0.8,0.3,1.5,0.6,2.2,1c0.8,0.5,2.1,0.9,3.6,1.5
	c1.8,0.7,6.7,2.6,6.9,3.6c-0.4,2.4,2.4,3.7,4.8,4.8c1,0.5,2.8,1.2,3,1.7c-0.1,0-1,0.5-3,0.5c-2.4,0-5-0.7-6.5-1.8
	c-1.7-1.2-3.4-1.8-4.9-1.8c-1.8,0-3.4,0.9-4.4,2.5c-1,1.6-5.6,4.7-8.1,4.7L470.2,222.3z"/>
<path class="st0" d="M520.4,184.4c-1.4,0-2.3-0.5-2.9-1.5c-0.7-1.2-0.7-2.4-0.1-3.6c0.9-1.7,2.9-3.1,4.1-3.2
	c0.5-0.1,1.1-0.1,1.7-0.1c2.2,0,3.9,0.5,4.4,1.3c1,1.4,1.4,3.6,1,4.8c-0.2,0.4-0.4,0.6-0.8,0.7c-0.7,0.1-1.6,0.4-2.6,0.7
	C523.6,183.8,521.9,184.4,520.4,184.4C520.4,184.4,520.4,184.4,520.4,184.4z"/>
<path class="st0" d="M462.6,178.6c0.1-0.1-0.1-0.8,0.2-1.4c0,0,0,0.4,0.1,0.5c0,0.3,0.1,0.7,0.2,1
	C462.9,178.7,462.8,178.6,462.6,178.6z"/>
<path class="st0" d="M339.7,175.3c-0.2,0-0.4,0-0.5,0c0-0.1,0.1-0.3,0.2-0.5c0.5-1.1,2.1-1.4,3.9-1.8c1.4-0.3,2.8-0.6,3.9-1.3
	c1.1-0.7,3.5-1.2,5.5-1.2c1,0,1.6,0.1,1.8,0.2c0,0.2,0,0.5,0.1,0.8c0,0.1,0,0.3,0,0.4c0-0.1-0.1-0.1-0.1-0.2
	c-0.5-0.5-1.1-0.7-1.7-0.7c-1,0-1.9,0.6-2.9,1.2c-1,0.6-2.2,1.3-3.3,1.3c-0.1,0-0.3,0-0.4,0c-0.4-0.1-0.8-0.1-1.1-0.1
	c-1.9,0-2.9,0.8-3.5,1.4c-0.4,0.4-0.6,0.5-0.8,0.5L339.7,175.3z"/>
<path class="st0" d="M406.8,172.2c-0.8-0.1-1.4-0.2-2-0.3c-0.8-0.1-1.5-0.2-2-0.2c-0.2,0-0.4,0-0.6,0.1c-0.6-1.6-3.2-3.5-6-3.6
	c-1.9-0.1-3.2-0.5-3.8-0.8c0.3-0.1,0.6-0.1,0.9-0.1c1.5-0.1,4.2-0.2,5-4.4c0.3-1.5,0.8-2.3,1.6-2.3c0.8,0,1.8,0.6,2.7,1.5
	c1.4,1.5,2.9,2.2,4.7,2.2c0.1,0,0.2,0,0.3,0c-0.2,0.5-0.3,0.9-0.3,1.2c0,0.8,0.3,1.5,1,2c0.5,0.3,1.1,0.5,1.8,0.5
	c0.9,0,2.1-0.3,3.6-0.8c0.5,0,1.6,0.8,1.9,1.8c0.2,0.6,0,0.8-0.1,0.9c-0.7,0.6-1.2,0.7-1.7,0.7c-0.5,0-1-0.1-1.6-0.2
	c-0.7-0.1-1.5-0.3-2.4-0.3c-1.1,0-2.4,0.4-2.5,2.3l0,0C407,172.2,406.9,172.2,406.8,172.2z"/>
<path class="st0" d="M321.5,171.6c-4.6-0.1-9.1-0.5-10.5-2c-0.3-0.3-0.6-0.9-0.6-2.1c0.1-1-0.2-1.9-0.7-2.4c-0.8-0.8-1.9-1-2.9-1
	c-0.6,0-1.4,0.1-2.2,0.1c-0.9,0.1-1.9,0.2-3,0.2c-2,0-3.6-0.3-5.1-1l-2.3-1.1c-3.9-1.8-4.4-2-4.7-2.9c1.4-1,8.3-2.5,14.1-2.5
	c0.4,0,0.7,0,1.1,0l1.6,0.1c2.3,0.1,4.8,0.2,7,0.2c4,0,7.5-0.2,7.5-2.6c0-3.7-13.4-4.5-16-4.5c-1.9,0-3.6,0.1-5,0.4
	c-1.5,0.3-3,0.4-4.7,0.4c-6.4,0-10.3-1.8-10.3-2.6c0.6-0.6,5.5-1.7,8.2-2.2c5.1-1.1,6.7-1.5,7-2.9c0.1-0.3,0.1-1.1-0.8-1.8
	c-0.7-0.5-1.6-0.7-2.7-0.7c-2.1,0-4.8,0.7-7.2,1.4c-1.5,0.4-3,0.8-3.7,0.9c0,0,0,0,0-0.1c0-0.5,0.1-1.3-0.6-2
	c-0.5-0.5-1.2-0.8-2.2-0.8c-1.3,0-2.5-0.6-2.7-1.2c-0.2-0.4,0.5-1,0.7-1.2c2.2-1.9,3.2-3.4,2.9-4.8c-0.1-0.2-0.1-0.4-0.3-0.6
	c1.2-1,4.1-2.7,9.1-4.5c2.1-0.8,4-1.5,5.7-2.2c2.6-1.1,4.8-2,6.1-2c0.6,0,0.8,0.2,0.9,0.4l0.2,0.4c0.7,1.1,1.7,2.7,1.5,3.3
	c0,0.1-0.3,0.5-1.9,0.9c-1.9,0.4-2.8,1.2-2.6,2.3c0.3,2.4,5.4,2.5,5.5,2.5c1.2,0,2-0.2,2.6-0.7c1-0.9,1-2.1,1-3c0-1.3,0-1.8,2-2
	c0.4,0,0.8-0.1,1.2-0.1c3,0,5.4,1.1,6.2,2.1c0.1,0.1,0.3,0.4,0.2,0.6l-0.1,0.4c-0.3,1.5-0.6,2.5,0.1,3.2l0.4,0.5l0.9,0.1
	c0.7,0,1.4-0.4,2.7-1.4c0.3-0.2,0.6-0.4,0.9-0.4c0.6,0,1.2,0.3,1.8,0.5c0.7,0.3,1.3,0.6,2,0.6c0.5,0,1.8-0.2,2.3-1.9
	c0.6-2.1-1-3.3-2.3-4c2.3,0.8,5.2,2.3,6.2,3.7c0.7,1,1.3,3.1,1.7,4.9c0.8,3,1.4,5.5,3.5,5.5h0.2l0.4-0.1c0.3-0.1,0.7-0.1,1-0.2
	c1.5-0.3,3.1-0.6,3.7-2c0.4-0.8,0.2-1.8-0.4-2.8c-2.2-3.6-4.9-10.9-3.8-12.4c0.2-0.3,0.3-0.3,0.4-0.3c0.3,0,0.8,0.2,1.2,0.4
	c0.7,0.3,1.5,0.7,2.4,0.7c0.6,0,1.1-0.2,1.6-0.5c0.8,0,2.7,1.3,3.9,2c1.5,1,2.3,1.5,3,1.5c0.5,0,0.9-0.2,1.1-0.5
	c-0.3,1-0.4,2.1-0.3,3.4c0.2,3.7,1.8,7.2,4.1,9c0.8,0.7,0.8,0.9,0.3,1.9c-0.5,1.4-1.5,3.7,2,6.2c3,2.2,4.7,2.7,6.2,3.2
	c1,0.3,1.8,0.6,2.9,1.3c1,0.6,2.2,1.2,3.6,1.8c2.7,1.2,6,2.8,5.9,4.5c-0.1,0-0.2,0-0.3,0c-0.6,0-1.4-0.3-2.2-0.6
	c-1.1-0.4-2.3-0.8-3.3-0.8c-1.1,0-1.7,0.5-2,0.8c-0.5,0.6-1.8,1.1-2.8,1.6c-1.7,0.8-3.8,1.7-3,3.6c0.5,1.2,1.7,2.5,3.3,2.5
	c0.8,0,2-0.3,3.3-1.9c0.1-0.1,0.1-0.1,0.3-0.1c0.8,0,2.2,1.1,2.4,2.1c0.1,0.3,0.1,0.7-0.6,1c-2,1-5.9,1.7-9.4,1.7
	c-3.3,0-5.9-0.6-7-1.7c-0.9-0.9-2.5-1.2-4.3-1.5c-0.9-0.2-2.5-0.4-2.8-0.7c-0.3-1.2-1.6-2.6-3.2-2.6c-1.2,0-2.4,0.8-3.4,2.3
	c-1.5,2.3-2.9,3-5.8,3c-0.4,0-0.9,0-1.3,0l-0.4,0c-1.9,0-3.7,0.7-5.8,1.5c-2.7,1.1-5.8,2.3-10.3,2.3L321.5,171.6z"/>
<path class="st0" d="M575.6,166.5c-0.5,0-1.2-0.1-1.9-0.3c0,0,0,0,0,0c0.1,0,0.2,0,0.3,0C574.5,166.3,575.2,166.4,575.6,166.5
	C575.7,166.5,575.6,166.5,575.6,166.5z"/>
<path class="st0" d="M255.8,146.6c-0.6,0-1.4-1.7-2-3c-1.2-2.4-2.7-5.4-5.7-6.1c-1-0.2-2-0.4-3-0.5c-1.4-0.2-3.7-0.6-4.1-1
	c0,0,0.2-0.4,0.7-1l0.6-0.7c3.4-3.9,5.4-6.2,5.2-8.2c0-0.5-0.2-0.9-0.5-1.3c0.3-0.5,1.1-1.5,1.6-2.1c1.6-1.9,3.1-3.6,2.9-5.3
	c-0.1-0.7-0.4-1.2-0.9-1.7c-1.4-1.1-2.5-2.2-3-2.9c1.6-0.1,4.4-0.7,7.6-1.4c3.4-0.7,7.2-1.6,8.9-1.6c0.1,0,0.2,0,0.2,0
	c1.6,1.5,7,3.8,10.5,3.8c0.7,0,1.3-0.1,1.8-0.3c0.2,1.2,0.9,1.9,1.9,1.9c0.6,0,1.3-0.3,2.2-0.8c1.2-0.8,2.3-1.1,3.6-1.1
	c1.8,0,3.9,0.8,6.6,2.4c0.9,0.5,1.7,1,2.5,1.5c1.5,0.9,3.5,2,4.2,2.7c-2.6,1.6-13.5,6.3-17.4,7.2c-3.2,0.8-3.6,2.9-3.8,4.3
	c-0.2,1.1-0.3,1.2-0.7,1.3c-2.9,0.7-6.3,2.2-6.3,6.9c0,1.4-0.4,3-3.4,3c-0.2,0-0.5,0-0.7,0c-0.2,0-0.5,0-0.7,0
	c-1.5,0-2.3,0.5-2.9,0.9c-0.5,0.4-0.9,0.6-2.1,0.6c-2.7,0-3.4,1.5-3.7,2.3C255.9,146.5,255.9,146.5,255.8,146.6z"/>
<path class="st0" d="M393.6,143.2c-0.2,0-0.8-0.1-2-0.9c-2.1-1.4-3.2-2.9-4.3-4.3c-1.7-2.1-3.2-4.2-7.7-5.5
	c-3.9-1.1-5.8-3.5-5.8-4.8c0-0.5,0.5-0.8,1.3-0.9c0.1,0,0.2,0,0.4,0c1,0,2,0.8,3.1,1.6c1.2,1,2.5,2,4.1,2c1.6,0,3.1-1,4.7-3.1
	c1.1-1.6,2.2-3.4,1.5-4.8c-0.7-1.5-2.6-1.5-4.5-1.5c-1.3,0-2.9,0-3.6-0.6c-0.2-0.1-0.2-0.2-0.2-0.3c0,0,0.1-0.2,0.3-0.5
	c1-1,3.6-2.1,5.9-2.1c0.9,0,1.7,0.2,2.2,0.5c1.3,0.9,2.8,1.4,4.1,1.4c1.5,0,2.7-0.7,2.9-1.8c0.1-0.6,0-1.5-1.3-2.4
	c1.1-0.4,2.8-0.7,4.1-0.8c-0.1,0.4,0,0.7,0.1,1c0.4,1.2,1.6,1.7,2.8,2.2c0.5,0.2,1.5,0.6,1.7,0.9c0,0,0,0.1-0.1,0.2
	c-0.6,1.1-2.5,1.9-4,2.6c-1.8,0.8-3.3,1.4-3.7,2.8c-0.1,0.5-0.2,1.2,0.4,2.1c1.2,1.7,3.2,1.7,4.1,1.7l1.4,0c1.2,0,1.2,0.2,1.3,0.5
	c0.3,2.2,1.3,2.6,2.1,2.6c0.6,0,1.2-0.3,1.5-0.9c0,0,0,0,0,0c-0.9,4.9-2,9.1-5.3,9.1l-0.6,0c-3.3,0-4.8,1.8-5.8,2.9
	C394.2,142.9,394,143.2,393.6,143.2L393.6,143.2z"/>
<path class="st0" d="M504.7,128c-1.5,0-3.3-0.7-3.4-2.6c-0.2-2.4-1.6-3.6-2.7-4.5c-1.2-1-1.3-1.2-0.9-1.9c0.1-0.2,0.2-0.4,0.9-0.4
	c0.9,0,2.1,0.4,3.4,0.8c1.6,0.5,3.3,1,4.9,1c0.4,0,0.8,0,1.2-0.1c0.2,0,0.4-0.1,0.6-0.1c3.9,0,11.3,4,12.1,5.6
	c-0.3,0.1-0.9,0.2-2.4,0.2c-0.7,0-1.4,0-2.1,0c-0.8,0-1.6,0-2.4,0c-2.1,0-4.4,0.1-6,1.2C506.8,127.7,505.8,128,504.7,128z"/>
<path class="st0" d="M406.9,127.7c-0.1-0.8-0.3-1.6-0.7-2.4c-0.1,0,0-0.1,0.3-0.1c0.3,0,0.6,0.1,0.7,0.3c0.2,0.2,0.1,0.6,0,0.9
	C407.1,126.8,407,127.2,406.9,127.7z"/>
<path class="st0" d="M356.4,126.7c0-1.5-1.7-2.8-5.2-5.2c-0.4-0.3-0.9-0.6-1.3-0.9c1.2-0.6,3.6-1.5,6.1-1.5c1,0,1.9,0.1,2.6,0.4
	c0.9,0.4,1.4,0.8,1.5,1.3c0.1,0.5,0,1.8-2.8,4.6C357,125.7,356.6,126.1,356.4,126.7z"/>
<path class="st0" d="M312.2,110c-0.7,0-1.3-0.1-1.8-0.2c-2.5-0.6-3.5-1.5-3.6-1.8c0.1-0.1,1-0.7,3.6-0.9c3.7-0.3,12.3-2.4,12.2-5.3
	c-0.1-1.9-2.6-1.9-3.4-1.9l-0.6,0c-2.4,0.1-4.6,0.5-6.4,0.8c-1.3,0.2-2.4,0.4-3.1,0.4c0,0,0,0-0.1,0c0-0.1,0-0.1,0.1-0.2
	c0.3-1,0.6-2.1,0-2.9c-0.3-0.4-0.8-0.7-1.4-0.7c-0.5,0-1.7,0-5.4,4.1c-1.2,1.3-2,1.4-2.6,1.4c-1,0-2.3-0.5-3.7-1
	c-1.7-0.6-3.3-0.9-4.7-1.1c0,0,0,0,0,0c1-0.2,2.2-0.5,3.1-0.6c1.7-0.3,3.2-0.6,4.3-1c0.6-0.2,2.1-0.7,1.9-2
	c-0.2-1.4-1.8-1.4-2.5-1.4c-1.2,0-3.3,0.2-5.3,0.7c0.7-0.5,1.9-1,3.6-1l0.4,0c0.6,0,1,0,1.5,0c1.5,0,3.9,0,3.9-1.8
	c0-0.9-0.5-2-4.8-2c-1.4,0-1.9-0.5-1.9-0.6c0-0.1,0.4-0.4,1.2-0.5c2.4-0.2,3.3-1.5,3.9-2.4c0.5-0.8,0.7-1.1,1.7-1.1l0.3,0
	c1.1,0.1,1.4,0.5,1.9,1.3c0.5,0.8,1.3,2.1,3.2,2.1c0.4,0,0.9-0.1,1.4-0.2c0.2-0.1,0.5-0.1,0.9-0.1c4,0,10.5,3.8,10.8,5.1
	c0.8,3.8,11.2,4,11.3,4c3,0,3.9-0.7,4.3-1.3c0.3-0.5,0.4-1,0.3-1.5c-0.3-1.2-1.7-1.9-3.3-2.7c-0.2-0.1-0.4-0.2-0.5-0.3
	c1.1-0.8,1.9-1.9,1.7-3.1c-0.2-1.4-1.5-2.2-3.8-2.5c1-1.2,4.1-3.4,6-3.6c0.1,0,0.2,0,0.3,0c0.3,0,0.4,0,0.7,1.6
	c0.3,1.3,0.6,2.9,1.9,4.1c0.6,0.6,1.1,1.3,1.7,2c1.4,1.8,2.9,3.8,5.3,3.8c0.2,0,0.5,0,0.8-0.1c1.5-0.3,2.4-1.2,3.1-1.8
	c0.6-0.6,0.9-0.8,1.3-0.8c0.3,0,0.7,0.1,1.1,0.3c1,0.4,1.5,2.3,1.3,4.3c-0.2,2.1-1.2,4.4-3.1,4.8c-0.8,0.2-1.6,0.2-2.6,0.2
	c-1.1,0-2.3-0.1-3.4-0.2c-1.1-0.1-2.1-0.2-3.1-0.2c-1.2,0-2.9,0.1-4.3,1.1c-0.3,0.2-0.6,0.3-0.9,0.3c-0.5,0-1.1-0.2-1.7-0.4
	c-0.8-0.3-1.6-0.6-2.6-0.6c-1.1,0-2.2,0.5-3.1,1.4C327.1,106.1,317.8,110,312.2,110z"/>
<path class="st0" d="M470.9,108.2c-10.1-0.2-16.8-0.5-17.7-2.7c-0.6-1.3-1.4-1.6-2-1.6c-1,0-1.9,0.8-3,1.9c-0.3,0.3-0.7,0.7-1.1,1
	c-0.5,0.5-1.2,0.7-2.1,0.7c-1.7,0-3.8-0.8-5.5-2c-1.2-0.9-2.3-1-3-1c-0.3,0-0.6,0-0.9,0c-0.2,0-0.4,0-0.6,0c-0.4,0-0.9,0-1.6-2
	c-0.7-2.1-0.3-3.3,0.1-4.5c0.5-1.3,1-2.8-0.6-4.8c-0.3-0.4-0.7-0.8-1-1.3c-2.6-3.3-4.6-5.7-6.6-5.7c-0.9,0-1.6,0.4-2.1,1.3
	c0,0,0,0,0,0c-0.1,0-0.3,0.1-0.8,0.1c-4.3,0-13.7-3.9-14.8-5.4c0.1-0.3,2-1.1,5.8-1.1c2.8,0,5.4,0.4,6.9,1.1c1,0.5,2,1,2.9,1.4
	c2.4,1.3,4.7,2.5,7.6,2.5c0.8,0,1.6-0.1,2.4-0.3c0.4-0.1,0.9-0.1,1.5-0.1c3.9,0,9.7,1.9,11.6,3.1c-0.3,0.2-0.6,0.4-0.9,0.6
	c-2,1.4-3.8,2.8-3.3,4.5c0.5,1.5,2.3,1.8,4.1,1.8c3,0.1,4.1,1.1,5,1.9c0.7,0.6,1.5,1.3,2.7,1.3c0.7,0,1.4-0.2,2.3-0.7
	c0.5-0.3,1.3-0.4,2.3-0.4c1.2,0,2.5,0.2,3.9,0.4c1.6,0.2,3.2,0.5,4.9,0.5c2.1,0,3.7-0.4,5.1-1.2c0.4-0.3,2.4-1.1,9.2-1.1
	c9.6,0,19.1,1.5,20.8,2.6c0.1,2.4-1.5,6.8-4,7.3c-1.3,0.3-3.2,0.4-5.2,0.4c-3.9,0-7.3-0.6-9-1.5c-0.8-0.4-1.4-0.6-2-0.6
	c-1,0-1.7,0.6-2.2,1.1c-0.9,0.9-2.3,2.4-8.4,2.4L470.9,108.2z"/>
<path class="st0" d="M422.5,106.7c-4.3,0-12.6-2-15.2-3.5c1.1-1.4,5.6-4.5,9.6-4.5c1.1,0,2,0.3,2.7,0.8c3.5,2.6,5,5.6,4.6,6.7
	c-0.1,0.3-0.5,0.5-1.1,0.5C422.9,106.7,422.7,106.7,422.5,106.7z"/>
<path class="st0" d="M389.2,103.3c-1.4,0-2.4-0.3-2.8-0.8c-0.4-0.5,0.3-1.5,1.1-2.6c0.8-1.2,1.6-2.3,1.2-3.5
	c-0.2-0.5-0.6-1.1-1.7-1.4c-0.4-0.1-0.9-0.2-1.4-0.2c-1.2,0-2.6,0.3-4.1,0.6c-1.6,0.3-3.3,0.6-4.8,0.6c-1.2,0-2.2-0.2-3-0.6
	c-0.9-0.5-1.7-1-2.5-1.4c-2.6-1.4-4.4-2.3-6.2-4.6c-1.4-1.8-2.1-3.9-1.8-4.6c0.1-0.3,0.9-0.3,1.1-0.3l0.3,0c2.9,0.2,4.3,2,6.4,5.3
	c0.6,0.9,1.2,1.8,1.9,2.7c1.8,2.4,3.4,2.7,4.3,2.7c1.1,0,2.1-0.6,2.4-1.6c0.3-0.9,0.1-2.2-1.2-3.2c-1-0.7-1.3-2.4-1.1-2.8
	c-0.1,0.1,0.4,0.2,1.5,0.9c3,2.1,6.5,3.6,8.1,3.6c1.2,0,1.6-0.8,1.7-1c0.5-1.3-0.8-2.4-1.5-3c-1.8-1.5-3-3.4-3.5-4.4
	c0.1,0,0.2,0.1,0.3,0.1c0.8,0.3,1.7,0.7,2.6,1.1c2.8,1.2,5.4,2.3,7.2,2.3c1.3,0,2-0.6,2.4-1.3c0.9,0.5,2.7,2,3.7,3.9
	c0.5,0.9,1,2.1,0.5,3.1c-1.4,3-0.1,4.6,0.8,5.4c-1.2,0.9-1.6,2-1.9,2.8c-0.3,1-0.4,1.2-2,1.3c-1.2,0.1-2.4,0.2-3.6,0.4
	C392,103,390.5,103.3,389.2,103.3L389.2,103.3z"/>
<path class="st0" d="M364,102.1c-0.7,0-1.4-0.3-1.7-0.7c-0.1-0.1-0.3-0.4,0-1.2c0.2-0.5,0.5-0.5,0.7-0.5c0.6,0,1.5,0.5,2,1.2
	c0.3,0.4,0.4,0.7,0.3,0.7C365.1,102,364.6,102.1,364,102.1z"/>
<path class="st0" d="M280.7,95.9c1.3-1,3-2.1,4.2-2.8c-0.1,0.1-0.2,0.2-0.3,0.3C283.8,94.4,282.4,95.4,280.7,95.9z"/>
<path class="st0" d="M271.7,93.3c-0.8,0-1.2-0.8-1.7-2.4c-0.3-1-0.7-2.3-2-2.3c-0.3,0-0.8,0.1-1.3,0.6c-0.4,0.4-0.7,0.8-1,1.3
	c-0.6,0.9-0.9,1.3-1.5,1.3c-0.2,0-0.4,0-0.7-0.1c-0.7-0.2-1.2-0.3-1.7-0.3c-0.8,0-1.6,0.3-2.5,0.7c0-0.7-0.2-1.6-0.8-2.3
	c1.1-0.8,3.6-2.1,5.7-2.1c0,0,0.6,0,0.8,0c2.5,0,3.8-1.4,5-2.8c0.9-1,1.8-1.9,3.3-2.7c1.5-0.8,3-1.8,4.3-2.8
	c1.7-1.2,3.4-2.5,4.5-2.5c0.2,0,0.3,0,0.4,0.1c0.7,0.3,4.4,1.5,6.7,1.5c2.6,0,2.7-1.7,2.7-2.1c0-0.8,0.3-1.6,0.6-1.7
	c0,0,0.2,0.1,0.7,0.5c0.8,0.7,1.7,1.2,2.5,1.4c-0.9,0.3-1.8,0.7-2.1,1.6c-0.2,0.7-0.1,1.4,0.4,2.2c0.4,0.7,0.3,0.8,0.1,1.4
	c-0.2,0.5-0.4,1.1-0.4,1.9c-0.3,0.1-0.8,0.1-1.1,0.2c-1.3,0.2-3.2,0.4-3.4,2.1c-0.1,0.4-1.1,1.6-1.9,1.6c-0.3,0-0.6-0.3-0.9-0.8
	c-0.3-0.6-0.3-1.5-0.2-2.3c0.1-1,0.2-2-0.5-2.8c-0.3-0.3-0.8-0.7-1.7-0.7c-0.2,0-0.5,0-0.8,0.1c-3.2,0.6-3.8,3.5-4.1,5.3
	c-0.1,0.4-0.1,0.7-0.2,1c-0.4,1.3-0.7,2-0.9,2.1c0,0,0,0,0,0c-0.1,0-0.3,0-0.8-0.4c-0.5-0.4-1.1-0.6-1.6-0.6c-1.6,0-2.3,1.6-2.8,2.8
	C272.6,92.3,272.2,93.3,271.7,93.3z"/>
<path class="st0" d="M498.8,88.5c-0.7,0-1.8-0.1-2.6-0.8c-2.5-2.2-4-3.1-9.5-3.1c-1.2,0-2.4-0.1-3.6-0.1c-1.1-0.1-2.2-0.1-3.2-0.1
	c-2.3,0-4.8,0.2-6,2.1c-0.2,0.4-1.1,0.8-2.8,0.8c-2,0-4.3-0.7-5.3-1.6c-0.8-0.7-2.2-1.1-4.8-1.1c-1.1,0-2.3,0.1-3.6,0.1
	c-1.4,0.1-2.8,0.1-4.1,0.1c-1.2,0-4.8,0-6.1-1.2c-0.1-0.1-0.2-0.2-0.2-0.2c0.4-1.1,6.7-3.3,10.9-3.3c3.3,0,4.6-1.4,4.7-2.8
	c0.1-1.4-1.2-3.1-4.3-3.4c-1.6-0.2-2.4-1.2-2.4-1.6c0-0.4,0.9-1.1,3.1-1.2c0.5,0,1-0.1,1.4-0.1c3.9,0,6.3,1.4,7,4.1
	c0.6,2.3,3.7,3.6,6.2,3.6c2.5,0,4.1-1.3,4.1-3.2c0-2.2-2.3-3.5-4.5-4.8c-0.9-0.5-2.4-1.4-2.6-1.9c5.1-4.4,4.7-5.3,4.5-6l-0.3-0.9
	l-1.1-0.1c-0.6,0-1.3,0.2-3.3,1.4c-2.5,1.5-5.8,2.4-8.4,2.4c-1.4,0-2.5-0.3-2.9-0.8c-0.1-0.1-0.2-0.3-0.2-0.7
	c0.2-2.5,6.2-5.5,11.2-5.5c0.7,0,1.3,0.1,1.8,0.2c1.9,0.3,4.4,1.1,6.7,1.9c3.2,1,6,1.9,7.7,1.9c1.9,0,2.5-1.1,2.5-2.1
	c0-2.1-2.1-2.7-4.2-3.3c-2.4-0.7-5.4-1.5-7.1-4.3c-3.3-5.1-6.9-7.4-11.7-7.4c-0.9,0-1.9-1.8-1.9-3.6c0-0.8,0.1-2.7,1.7-2.7
	c0.9,0,2-0.1,3.2-0.1c6.7,0,11.4,1.3,13.7,3.7c2.8,3,8.2,4.9,10.7,4.9c1.6,0,2.1-0.8,2.2-1.3c0.5-1.4-1-2.5-1.5-2.9
	c-1.2-0.9-2.6-1.8-3.9-2.6c-1.2-0.8-2.9-1.8-3.7-2.6c0,0,0,0,0,0c1.4-0.4,3.5-0.6,5.8-0.9c4.6-0.5,9.9-1,13.3-3.4
	c3.4-2.3,2.8-5.1,2.6-5.9c-0.4-1.4-1.5-2.4-2.7-2.4c-0.9,0-1.9,0.6-2,2.2c-0.7,1.6-11,4.7-15.7,4.7c-0.5,0-0.7,0-0.8-0.1l-1.1-0.3
	c-1.2-0.3-2.3-0.6-3.2-0.6c-1.6,0-2.8,0.8-3.3,2.4c-0.2,0.1-1.2,0.5-3.8,0.5c-4.1,0-8.5-0.8-9.7-1.5c0-0.2,0.1-0.4,0.1-0.6
	c0.3-1.5,0.5-2.9-0.2-3.7c-0.3-0.4-0.8-0.6-1.3-0.6c-0.8,0-1.5,0.4-2.7,1.5c-1,0.9-3.4,1.5-6.1,1.5c-3.4,0-5.7-0.8-6-1.3
	c-0.2-2.1-2.4-2.5-3.8-2.8c-0.5-0.1-1.3-0.3-1.5-0.4c0-0.5,1.4-1.4,1.9-1.8c0.8-0.5,1.7-1.2,1.4-2.3c-0.3-1.1-1.6-1.1-2.1-1.1
	c-0.2,0-0.5,0-0.9,0c-0.4,0-0.8,0-1.1,0c1.6-1,1.7-2.1,1.5-2.6c-0.1-0.3-0.2-0.6-0.5-0.8c1.1,0.1,1.4,0.4,1.4,0.4
	c0.5,0.6,1.1,0.9,1.7,0.9c1.2,0,1.9-1,2.8-2.1c0.5-0.7,1.2-1.5,2-2.3c0.6-0.5,1.5-0.6,2.2-0.6c2,0,3.9,0.8,4.4,1.3
	c0.1,0.5,0.5,1,1,1.2c0.3,0.1,0.7,0.2,1.2,0.2c1.4,0,4.3-0.8,4.9-2.7c0.1-0.4,0.3-1.2-0.3-2c0.4-0.1,0.8-0.1,1.2-0.1
	c2.2-0.3,4-0.5,4.4-1.9c0.1-0.3,0.1-0.7-0.1-1.1c2.4,0,5.9,0.9,7.3,2.1c1.3,1,2.7,1.6,4.2,1.6c2.6,0,4.7-1.8,4.8-4.1
	c0.2-0.1,0.7-0.1,1.6-0.1c0.8,0,1.6,0.1,2.4,0.1c0.8,0.1,1.6,0.1,2.3,0.1c1.2,0,2.4-0.1,3-1.1c0.2-0.3,0.5-1,0-1.9
	c-0.3-0.5-0.2-0.8-0.2-0.8c0.1-0.1,0.3-0.3,0.9-0.3c0.4,0,0.8,0.1,1.2,0.2c0.6,0.2,1.2,0.3,1.8,0.3c1.9,0,3.3-0.8,3.6-2.1
	c0-0.2,0-0.4,0-0.6c0.3,0,0.7,0,1.1,0c1.3,0,4,0.2,6.8,1.4c1.3,0.6,2.3,0.8,3.2,0.8c1.6,0,2.5-0.9,3.1-1.6c0.6-0.6,0.9-1,2-1
	c0.2,0,0.5,0,0.8,0.1c0.7,0.1,1.5,0.1,2.2,0.1c1.6,0,3.2-0.2,4.7-0.4c1.3-0.2,2.5-0.3,3.6-0.3c1.3,0,2.3,0.2,2.9,0.8
	c1,0.8,2.9,2.2,4.6,2.2c1.1,0,1.6-0.6,1.8-0.9c0.5-0.7,0.4-1.6,0-2.7c0.2-0.2,2.1-1.3,4.5-1.3c1.4,0,2.5,0.4,3.1,1
	c0.8,0.8,1.8,1.3,2.9,1.3c1.3,0,2.6-0.6,3.8-1.2c0.9-0.5,1.9-0.9,2.7-0.9c0.3,0,0.6,0.1,0.9,0.3c2.1,1.4,8,1.7,15.4,1.9
	c0.4,0,0.8,0,1.2,0c-1.4,1.1-2.7,2.3-2.5,3.5c0.1,0.6,0.6,1.3,1.7,1.3c0.4,0,1.2-0.1,3-0.8c3.9-1.5,7.9-2.5,10.3-2.5
	c0.5,0,0.8,0,0.9,0.1c0.3,0.6,0.9,1.2,2.6,1.2c0.4,0,1,0,1.5-0.1c0.5,0,1-0.1,1.5-0.1c0.5,0,0.7,0,0.9,0.1c0,1,0.3,1.9,1,2.7
	c1.3,1.5,3.9,2.4,6.9,2.4c0.8,0,1.7-0.1,2.5-0.2c0.7-0.1,1.4-0.2,2-0.2c0.4,0,0.6,0,0.9,0.1c-0.6,0.5-1.9,1.6-5.2,3.1
	c-7.4,3.6-11.8,5.2-14.7,5.2c-0.6,0-1.2-0.1-1.8-0.2c-0.5-0.1-1-0.2-1.8-0.2c-1,0-13,1-13.6,3.9c-0.1,0.6,0.1,1.4,1.1,1.9
	c0.5,0.2,1.2,0.3,2.3,0.3c1.4,0,3.2-0.2,5.1-0.3c2.1-0.2,4.3-0.4,6.1-0.4c1.4,0,2.2,0.1,2.5,0.2c-0.6,0.6-2.6,1.2-4.7,1.7
	c-3.4,0.9-8.1,2.1-13.4,5.1c-2.8,1.6-5.2,3-7.3,4.2c-5,2.9-8.6,5-9.9,5c-2.7,0-3,2-3.1,3c-0.2,1.1-0.3,1.7-2,2.1
	c-0.5,0.1-1.1,0.2-1.7,0.2c-1.6,0-3.2-0.4-4.6-0.8c-1.2-0.3-2.3-0.6-3.2-0.6c-0.9,0-1.6,0.2-2.2,0.7c-1,0.9-1,2.1-1,3
	c0,0.7,0,1.1-0.2,1.3c-0.2,0.2-1,0.7-3.6,0.7c-0.4,0-0.9,0-1.4,0c-0.6,0-1.2,0-1.9,0c-5,0-14,1.4-14,4.3c0,0.6,0.4,1.3,1.3,1.6
	c0.4,0.1,0.9,0.2,1.5,0.2c0.8,0,1.6,0,2.6,0c1.1,0,2.2-0.1,3.4-0.1c4.2,0,6.8,0.4,7.6,1.3c0.2,0.2,0.2,0.4,0.2,0.6
	c-0.2,3.6-6.2,10.3-10,10.3c-1.3,0-2.7-0.1-4-0.2c-1.3-0.1-2.6-0.2-3.6-0.2c-1.1,0-4.3,0-4.3,2.5c0,1,0.5,1.8,0.9,2.6
	c0.2,0.3,0.5,0.9,0.5,1.1h0c0,0-0.3,0.3-1.4,0.6c-2.9,0.8-6,1.2-8.8,1.2c-2.1,0-3.9-0.2-5.4-0.7c-0.5-0.2-1.1-0.2-1.7-0.2
	c-1.8,0-3.4,0.8-4.2,2.1c-0.5,0.9-0.5,1.8-0.1,2.6c0.4,0.7,1.4,1.6,3.7,1.6c0.5,0,1.1,0,1.8-0.1c1.9-0.3,3.6-0.4,5.1-0.4
	c3,0,5,0.6,5.3,1.7c0.2,0.9,1,1.5,2,1.5c0.7,0,1.5-0.3,2.3-0.7c0.8-0.3,1.6-0.7,2.2-0.7c0.3,0,0.4,0.1,0.5,0.3
	c0.7,1.2,0.8,2,0.6,2.3c-0.2,0.4-1,0.6-2,0.6c-3.8,0-4.1,0.1-7.1,2.3C502.2,87.8,500.4,88.5,498.8,88.5z"/>
<path class="st0" d="M360.6,77.6c-1.1,0-2.9-1.1-4.1-2.6c-1-1.1-1.6-2.3-1.6-3.2c1.2,0.2,3.6,1.8,5.1,3.7c1,1.2,1.1,1.8,1.1,2
	C361,77.5,360.9,77.6,360.6,77.6L360.6,77.6z"/>
<path class="st0" d="M441.5,76.5c-0.6,0-1.2-0.1-1.7-0.3c-0.6-0.2-0.9-0.5-0.9-0.6c0.1-0.6,1.5-1.7,3.4-1.7c0.7,0,1.4,0.2,2,0.5
	c0.6,0.3,0.9,0.6,0.9,0.7C445.1,75.5,443.5,76.5,441.5,76.5L441.5,76.5z"/>
<path class="st0" d="M321,75.7c-0.2,0-0.4,0-0.6,0c-6.3-0.6-6.3-2.3-6.3-3.7c0-1.8,6.1-2.4,9.7-2.8c1.2-0.1,2.4-0.2,3.5-0.4
	c0.6-0.1,1.2-0.1,1.7-0.1c0.1,0,0.1,0,0.1,0c-1.9,0.5-3.6,1.5-3.5,3c0,0.5,0.3,1.3,1.5,1.6C326,74.2,323.7,75.7,321,75.7L321,75.7z"
	/>
<path class="st0" d="M414.2,74.2c-1.1,0-2.1-0.1-2.9-0.4c2.3-0.8,7.6-1.6,11.6-1.7C420.8,73.1,417.4,74.2,414.2,74.2L414.2,74.2z"/>
<path class="st0" d="M307.4,71.1c-0.8,0-1.8-0.4-2.7-1c0.2,0,0.3,0,0.5,0c2,0,3.1,0.4,3.3,0.6C308.2,70.8,308,71.1,307.4,71.1z"/>
<path class="st0" d="M388,68.8c-1.6,0-3.6-1-5.9-2.9c-3.2-2.6-6.8-3.9-10.7-3.9c-1.1,0-2.2,0.1-3.3,0.3c0.4-0.3,0.8-0.6,1-1.1
	c0.4-0.9,0.3-2-0.4-3c-1.1-1.8-3.8-3.1-6.2-3.1c-1.1,0-2.2,0.3-3,0.9c-0.1,0.1-0.3,0.1-0.4,0.1c-0.9,0-2.2-1.5-2.4-2.8
	c-0.2-0.8,0.2-1,0.3-1c1-0.4,3.2-0.6,5.7-0.6c5.6,0,8.6,1.1,8.9,1.7c0,0.8,0.1,1.5,0.3,2c0.3,0.8,1,1.2,1.8,1.2
	c0.8,0,1.5-0.4,2.3-0.8c0.4-0.2,0.8-0.5,1.3-0.7c0.3,0,0.9,0.8,1.3,1.3c1,1.3,2.2,2.8,4.2,2.8c2.2,0,5.1,0.9,5.6,1.8
	c-1.1,2.4,0.7,3.8,1.7,4.5c0.4,0.3,1.1,0.8,1.1,1.1c0,0.1-0.1,0.3-0.4,0.7C390,68.3,389.1,68.8,388,68.8z"/>
<path class="st0" d="M405.5,68.6c-0.8,0-2.4-1.2-4.1-3.9c-1.9-3.1-2.4-5.6-2.1-6.2c1.3,0.2,4.3,1.7,6.3,2.8c2.3,1.2,3.4,1.7,4.2,1.7
	h0.8l0.3-0.5c0.2-0.1,0.6-0.1,1.3-0.1c1.4,0,2.4,0.3,2.8,0.5c0,0,0,0.1-0.1,0.1c-1.4,1.8-0.9,3.2-0.3,4
	C411.8,68.1,409,68.6,405.5,68.6z"/>
<path class="st0" d="M440.4,65.3c-3.1,0-8.7-2-10.2-3c0-0.2,0-0.5,0-0.7c-0.3-1.4-2.2-2.5-5.1-4.1c-0.7-0.4-1.5-0.8-2.1-1.2
	c0.7-0.2,1.5-0.3,2.1-0.5c3.7-0.8,6.1-1.4,6.9-2.9c0.3-0.6,0.4-1.2,0.1-1.8c-0.7-1.9-3.2-1.9-4.1-1.9c-1.5,0-3.3,0.2-5.2,0.5
	c-1.9,0.2-4,0.5-5.6,0.5c-1.1,0-2-0.1-2.5-0.4c-1.6-0.7-1.8-1.3-2.2-2.3c-0.4-1.1-1-2.6-3.3-3.7c-0.6-0.3-1-0.6-1.3-0.8
	c0.1,0,0.2,0,0.3,0c0.6,0,1.2,0.1,2,0.3c0.8,0.2,1.6,0.3,2.4,0.3c2.4,0,4.9-1,5-2.9c0.1-0.9-0.4-2.4-3.9-2.9c-2.2-0.3-3.1-1.4-3-2.4
	c0.1-0.8,0.8-1.3,1.8-1.3c7.8,0,8.1-1.7,8.2-2.4c0.3-1.4-1.1-2.2-2.2-2.7c0.3,0,0.6,0,0.9,0c0.5,0,1.1,0,1.6,0.1c0.2,0,0.4,0,0.6,0
	c2.3,0,3.2-1.1,3.3-2.1c0.1-0.5-0.1-1.7-1.9-2.5c1.4,0.1,3.9,0.6,6.5,2.9c3.9,3.4,8.7,5.3,12.5,6.7c2,0.8,4.8,1.8,5,2.5
	c0.7,2.5,3.9,4.8,5.9,4.8c0.7,0,1.3-0.3,1.7-0.8c0.4-0.5,0.5-1.2,0.4-2.1c0.1,0,0.1,0,0.2,0c0.5,0,1.1,0.2,1.4,0.3
	c-0.7,0.7-0.9,1.4-0.8,1.8c0.1,1.3,1.2,2,2.2,2.6c0.4,0.3,1.1,0.7,1.3,1c-1.4,1.5-1.1,2.9-0.7,3.5c0.8,1.6,2.8,2.5,5.8,2.5
	c0.5,0,1.1,0,1.7-0.1c0.5-0.1,0.9-0.1,1.3-0.1c1.9,0,2.5,0.5,2.6,0.7c0.1,0.1,0.1,0.2,0.1,0.3c-0.3,0.2-2.3,0.6-3.7,0.9
	c-1.6,0.3-3.5,0.7-5.1,1.4c-2.3,0.9-3.4,2.8-4.1,4c-0.2,0.3-0.4,0.6-0.5,0.8c-0.4-0.3-0.8-0.4-1.2-0.4c-1.7,0-2.4,1.8-3.1,3.7
	c-0.8,1.9-1.3,2.9-1.6,2.9c-1.5-0.6-3.6-1.2-5.6-1.2c-2.3,0-3.5,1-4.2,1.8C441,65.3,440.8,65.3,440.4,65.3z"/>
<path class="st0" d="M330.5,64.3c-2,0-4-0.7-4.6-1.1c-0.6-0.5-1.2-0.7-2-0.7c-0.9,0-1.8,0.4-2.6,0.7c-0.7,0.3-1.4,0.6-2,0.6
	c-0.2,0-0.4,0-0.5-0.1c-0.7-0.3-1.3-0.4-2.1-0.4c-0.7,0-1.4,0.1-2,0.2c-0.5,0.1-0.9,0.2-1.4,0.2c-0.1,0-0.3,0-0.4,0
	c1.2-0.4,3.2-0.8,4.5-1.1c2.4-0.5,4.5-0.9,5.6-1.6c0.5-0.3,1.8-0.6,3.6-0.6c3.6,0,6.7,1.1,6.7,2.5C333.2,64,331.7,64.3,330.5,64.3z"
	/>
<path class="st0" d="M362.8,63.3c-1.1,0-1.7-0.3-2.1-0.6c0.5,0,1,0.1,1.6,0.1c0.9,0.1,1.7,0.1,2.6,0.1c0.2,0,0.4,0,0.6,0
	C364.5,63.2,363.6,63.3,362.8,63.3z"/>
<path class="st0" d="M393.2,44.9c-0.9,0-2.2-1.1-3.3-2c1.8,0.4,3.6,1.2,3.8,1.8C393.5,44.9,393.4,44.9,393.2,44.9
	C393.2,44.9,393.2,44.9,393.2,44.9z"/>
<path class="st0" d="M436.2,19.7c0.6-0.2,1.1-0.4,1.7-0.5C437.3,19.4,436.8,19.6,436.2,19.7z"/>
<path class="st0" d="M496.8,497.7c-0.6,0-1.5-0.6-1.7-0.8c-0.3-1.4-2.1-5.2-4.9-5.8c0.1,0,0.1-0.6,0.1-1c0-1.4,0-3.4-1.9-4.7
	c-1-0.7-1.1-1.5-1.2-2.6c-0.1-0.9-0.2-1.8-0.8-2.8c-0.1-0.1,0.2-1,0.3-1.4c0.5-1.4,1.2-3.4-0.6-5.3c-1.1-1.1-2.1-2.3-3.1-3.4
	c-0.9-1.1-1.8-2.1-2.6-2.9c-0.7-0.7-1.6-1.1-2.4-1.1c-1.6,0-2.8,1.1-4.1,2.3l-0.6,0.5c-0.4,0.4-0.9,0.6-1.2,0.6
	c-0.3,0-0.4-0.1-0.5-0.4c-0.4-2.2-3.4-4.9-6.6-4.9c-1.3,0-2.8,0.4-4.3,0.8c-0.7,0.2-1.5,0.4-2.1,0.5c-0.3-1.4-1.2-2.7-2.6-2.7
	c-0.6,0-1.4,0.2-2.1,1.4c-0.3,0.5-0.4,0.6-0.5,0.6c0.1-0.1-0.1-0.1-0.3-0.2c-0.5-0.1-1.1-0.2-2.1-0.2l-0.4,0c-2,0-5.5,0.7-6.2,2.7
	c-0.3,0.8,0,1.7,0.8,2.3c0,0.2-0.1,0.4-0.1,0.6c-0.5-0.5-1-0.8-1.5-0.8c-0.7,0-1.4,0.5-1.5,1.5c0,0.3-0.1,0.6-0.1,0.8
	c0,0-0.3,0-0.5,0l-0.5,0c-0.4,0-0.8,0-1.1,0l-0.6,0c-1,0-1.3,0-2.1-0.9c-2-2.1-3.1-2.9-4.2-2.9c-0.8,0-1.7,0.5-1.9,1.9c0,0,0,0,0,0
	c-0.1,0-0.2,0-0.4,0c-0.7,0-1.5-0.3-1.8-0.8c-0.9-1.2-2-1.9-3.1-1.9c-0.8,0-1.5,0.4-1.8,1.1c-0.1,0-0.2-0.1-0.3-0.1
	c-0.3-0.1-0.7-0.3-1.1-0.4c-0.2-0.1-0.5-0.1-0.7-0.1c-1.3,0-1.9,1.1-2.2,1.7c-0.3,0.6-0.4,0.7-0.6,0.7c-1.1-0.2-1.7-0.3-2.2-0.3
	c-0.9,0-1.5,0.3-1.9,0.8c-0.7,0.8-0.5,1.8-0.4,2.2c-0.2,0.7-2.8,3.1-4,3.1c-0.7-0.1-1.3-0.1-1.8-0.1c-2.9,0-3.2,1.9-3.2,2.7
	c-0.1,0.4-1.5,1.2-2.2,1.6c-0.5,0.3-0.9,0.5-1.3,0.8c-1.5,1-1,2.5-0.8,3.2c0.3,0.9,0.4,1.4-0.7,2.3c-0.8,0.6-1.3,1.3-1.4,2
	c-0.1,1.1,0.5,1.9,1.1,2.7c0.4,0.5,0.7,0.9,1,1.4c-0.2,0-0.4,0-0.5,0c0,0,0,0,0,0c-1.3,0-3.5-1-5-1.7c-1.2-0.6-1.9-0.9-2.5-1
	c-0.1-0.2-0.1-0.5-0.2-0.7c-0.2-0.7-0.4-1.6-0.9-2.3c-0.2-0.3-0.3-0.9-0.3-1.5c-0.1-1.1-0.3-2.4-1.3-3.2c-0.8-0.6-3.9-3.5-4.9-7
	c-1.3-4.7-8.9-6.6-11.3-6.8c0,0,0,0,0,0c-2.6,0-4,2.8-4.9,4.6c-0.1,0.2-0.2,0.3-0.2,0.5c-0.9-0.4-2.6-1.4-3.5-2
	c-0.8-0.5-1.5-0.9-1.9-1.1c-1.1-0.5-1.3-1.6-1.3-2.4c0-2.3-3.3-5.3-4.6-5.7c-0.5-0.3-3.5-3.1-5.9-5.5l-0.4-0.4h-10.1l-1.9,2.4
	l-15.3,0.1c-1.8-0.7-12.4-4.6-14.6-5.1c-1.7-0.4-4.8-2.4-5.9-3.2l-0.4-0.3l-12.6,1.7c-0.3-0.8-0.6-1.6-0.8-2.5
	c-0.7-2.7-3.9-6.7-6.3-7.3c-0.4-0.1-0.8-0.1-1.3-0.1l-1,0c-0.5,0-1-0.1-2.1-0.7c-2.2-1.4-4.8-3-7.6-3.1c0,0,0,0,0,0c0-1,0-3-2.2-5
	l-0.5-0.4c-2.1-1.9-4.8-4.3-5-5.1c0-0.1,0.1-0.5,0.2-0.8c0.3-1.2,0.8-3.7-1.7-4.8c-1.3-0.5-1.3-0.5-1.5-2.3c-0.2-2-1.1-2.5-2-2.9
	c-0.4-0.2-0.7-0.3-1.1-1c-1.7-2.8-3.2-4.5-4.8-5.4c-0.2-0.2-0.2-1.4-0.3-2.2c-0.1-1.5-0.2-3.3-1-4.7c-1.2-2-1.3-3.5-0.5-6.4
	c0.9-3.1,0.1-7-2.1-10.3c-0.7-1.1,0.1-3.2,0.8-5c0.4-1,0.8-2,0.9-2.9c0.2-1.1,0.2-3.2,0.3-5.6c0.1-3,0.2-6.4,0.6-8.4
	c0.3-1.7,0.2-3,0.2-3.8c0-0.1,0-0.1,0-0.2c0,0,0.1,0,0.1,0c1.4,0,2-0.7,2.2-1.4c0.1-0.5,0.2-1.8-2-3c-0.3-0.2-0.4-0.2-0.5-1.1
	c-0.2-0.9-0.4-2.2-1.6-3.8c-1.4-1.8-2.1-4.1-2.4-5.6c1.4,0.1,2.6,0.2,3.8,0.2c0.9,0,1.6-0.1,2.4-0.2c0.1,0.4,0.3,0.8,0.6,1.1
	c0.4,0.4,1,0.7,1.6,0.7c-0.1,0,0.1,0.2,0.1,0.5c0,0.3,0,0.4,0,0.5c-1.2,0.7-1.8,2-1.5,3.3c0.3,1.3,1.5,2.1,2.9,2.1
	c0.9,0,1.7-0.4,2.3-1.2c1.2-1.5,1.3-4.4,0.8-6.3c-0.2-0.7-0.1-1.3,0-2c0.1-0.9,0.2-1.9-0.3-3l155.6-0.8l0-1.3c0-0.4,0.1-0.8,0.1-1.1
	c0.1,0.2,0.1,0.5,0.2,0.9c0.1,0.9,0.2,2.5,2.2,3.3c0.7,0.3,1.3,0.6,1.9,0.9c1.1,0.5,2,1,2.9,1c0.4,0,0.8-0.1,1.1-0.2
	c0.2-0.1,0.4-0.2,0.7-0.3c0.5-0.3,1.1-0.6,1.7-0.6c0.3,0,0.7,0.1,1.3,0.8c1.3,1.5,2.6,1.7,3.5,1.7l0.8,0c0.2,0,0.2,0,0.3,0.1
	c1.1,1.4,2.7,2.3,4.1,2.3c0.8,0,1.9-0.3,2.9-1.4c0,0,0.2-0.1,0.6-0.1c0.5,0,1.2,0.1,1.8,0.3c-4.2,0.7-10,4.1-11.1,6.8
	c-0.4,1-0.3,2,0.5,2.7c0.7,0.7,1.6,1.1,2.7,1.1c0.6,0,1.2-0.1,1.7-0.2c0.5-0.1,1-0.2,1.4-0.2c0.4,0,0.9,0.1,1.6,0.7
	c0.7,0.7,1.6,1,2.7,1c2.6,0,5.6-2.1,8.6-4.1c0.8-0.5,1.6-1.1,2.3-1.5c-0.1,0.6-0.1,1.3,0.3,1.8c0.3,0.4,0.8,0.9,1.9,0.9
	c0.6,0,0.6,0,0.9,0.6c0.4,0.8,1,1.9,2.8,2.8c0.7,0.3,1.5,0.5,2.3,0.5c1.6,0,3.1-0.6,4.6-1.2c1.4-0.6,2.9-1.2,4.3-1.2
	c1.3,0,1.7,0.6,2.3,1.3c0.4,0.6,1.1,1.4,2.2,1.4c0.5,0,1.1-0.2,1.6-0.6c0.1-0.1,0.2-0.1,0.2-0.2c0.3,0.2,0.6,0.4,0.9,0.6
	c-0.8,0.2-2.5,0.4-3.8,0.5c-2.2,0.2-4.6,0.4-7,1c-4.6,1.1-10.5,6-10.2,8.4c0.1,0.7,0.6,1.4,1.6,1.6c-0.1,0.7-0.5,2.2-0.9,3.3
	c-0.5,1.5-1,3.2-1.4,4.9c-1,5-0.5,9.4,1.2,11.6c0.8,0.9,1.7,1.4,2.8,1.4c0.7,0,1.5-0.2,2.3-0.7c3.8-2.3,5.9-4.7,4.7-9.8
	c-0.9-3.6,0.2-8.8,1.4-11.2c0.3-0.6,0.9-0.8,1.9-1.1c1.4-0.4,3.2-0.9,4-3.4c0.4-1.3,1.6-1.4,2.1-1.4c1.2,0,3,0.7,4.3,2.7
	c1.3,2,0.6,3.4-0.8,5.6c-0.7,1.2-1.5,2.4-1.7,3.8c-0.1,0.7-0.1,1.5,0.4,2.1l0.4,0.5l0.8,0.1c0.7,0,1.3-0.4,2.2-1
	c0.8-0.5,1.9-1.3,2.8-1.3c0.1,0,0.3,0,0.4,0.1c0.7,0.2,0.7,1.6,0.7,3.3c0,1.2-0.1,2.4,0.4,3.2c-0.1,1-0.1,1.9,0.1,2.6
	c-0.7-0.5-1.5-0.8-2.4-0.8c-1.5,0-3.3,1.1-3.3,4.1c0,1.6,0.9,3.1,2.4,4c1.3,0.8,3,1.2,4.9,1.2c2.1,0,4.2-0.5,6-1.5l1.9-1
	c5.8-3,10.1-5.3,11.4-7.2c1-0.6,2-1.3,2.1-2.3c0-0.4,0-0.8,0-1.3c0.8-0.1,1.8-0.2,2.9-0.2c1.7-0.1,10.2-0.6,12.3-4.2
	c0.5-0.8,0.5-1.8,0.2-2.7c3.9-3.4,5.7-4.6,6.1-4.7c0.1,0,0.2,0,0.3,0c2.7,0,19.1-0.2,19.1-0.2l0.4,0l0.3-0.2
	c0.7-0.4,6.7-4.3,7.7-8.2c0.8-3.6,4-9.1,5.2-9.3c1.4,1.2,3.5,1.3,5.2,1.4c0.5,0,1.3,0.1,1.7,0.2c0,0.1,0,0.3,0,0.5
	c-0.2,2.3-0.6,7.5,4.3,14.5c-1.2,0.8-2.3,1.7-3.2,2.5c-0.4,0.4-0.7,0.4-0.9,0.4c-0.5,0-1.2-0.3-1.8-0.7c-0.8-0.4-1.6-0.8-2.5-0.8
	c-0.7,0-1.4,0.3-1.9,0.8c-0.7,0.7-1.3,1.5-1.7,2.2c-0.8,1.2-1,1.5-1.5,1.5c-1.8,0-2.3,1-2.6,1.5c-0.2,0.3-0.3,0.5-0.9,0.6
	c-2.3,0.5-3.7,3.2-4.1,4c-0.3,0.7-1,2.5-0.6,3.7c-0.1,0.1-0.2,0.3-0.3,0.4c-0.5,0.5-1.2,1.2-1,2.3c0.1,0.5,0.5,1,1.5,1.3
	c0.6,0.2,1.2,0.9,1.3,1.5c0,0.3-0.1,0.4-0.1,0.4c-0.6,0.4-1.3,0.6-1.8,0.6c-0.5,0-0.9-0.2-1.2-0.7c-0.2-0.3-0.7-0.9-1.5-0.9
	c-1.3,0-1.5,1.3-1.6,1.7c-0.2,1-0.3,1.1-0.8,1.1c-0.1,0-10.5,0.8-10.5,4.3c0,0.5,0.2,0.9,0.5,1.2c-1.2,0.1-3.3,0.5-3.7,1.9
	c-0.1,0.3-0.3,1.3,0.8,2.1c0,0.8-1.3,3.2-3.1,5.1c-1,1-1.3,1.2-1.4,1.2c0.1,0-0.2-0.4-0.6-0.9c-0.5-0.7-1.1-1-1.7-1
	c-0.7,0-1.6,0.5-1.8,1.8c-0.2,1.2,0.2,3,1.6,3.6c0.1,0.5,0.1,2.3-1.2,5c-0.1-1.8-0.8-3.4-2.1-4.9c-0.8-0.9-0.6-2,0.6-3.9
	c0.7-1,0.4-1.8,0.2-2.2c-0.3-0.6-1-0.9-1.7-0.9c-1.1,0-2.3,0.8-2.7,1.8c-0.4,0.8-0.4,2-0.3,3.9c0,0.9,0,2.2-0.1,2.9
	c-1.6,0.4-3.1,0.9-3.3,2.2c-0.1,0.5-0.1,1.4,1.1,2.2c2.2,1.5,3.3,2.5,3.4,3c-0.7,0.5-2,1.9-1.5,3.3c0.5,1.3,2,1.5,2.5,1.5
	c0.4,0.1,0.9,0.3,1.2,0.7c0.3,0.4,0.3,0.7,0.3,0.8c-1.7,0.5-1.6,1.8-1.6,2.2c0.1,0.7,0.7,1.8,3.1,2.1c-0.3,0.3-0.8,0.7-1.3,1
	c-0.3,0.2-0.8,0.3-1.2,0.3c-0.5,0-0.8-0.2-0.8-0.2c-0.4-0.6-1-1-1.7-1c-0.8,0-1.6,0.5-2.1,1.3c-0.5,0.9-0.5,2.1,0,3.1
	c0.2,0.3,0.3,0.5,0.5,0.8c0.2,0.2,0.4,0.6,0.5,0.8c-0.1,0-0.3,0.1-0.6,0.1c-3.7,0.6-6.8,2.9-7.2,5.3c0,0.1-0.1,0.2-0.6,0.2
	c0,0-1.2,0-1.4,0c-2.3,0-5.4,3.2-6,5.6c-0.1,0.2-0.1,0.3-1.2,0.6c-0.9,0.2-2.2,0.6-3.5,1.6c-2.1,1.8-7,8.4-7.1,12.8
	c-0.1,4.2,1.3,9.1,3.4,12c0.8,1,0.7,1.4,0.7,2.1c-0.1,0.8-0.1,1.9,0.9,3.3c1.5,2,3.1,8.9,2.9,10.5c-0.1,0.8-0.6,1.8-1.1,2.8
	C497.6,495.2,497,496.4,496.8,497.7z"/>
<path class="st0" d="M212.8,294.1l-0.8-0.1c-0.2,0-0.4,0-0.6,0.1c0.1-0.6,0.2-1.2,0.1-1.8c-0.1-1.2-0.9-2-1.9-2.1l-0.1,0l-0.3,0
	c-1,0-1.6,0.6-2.1,1.2c-0.8-0.8-1.9-1.3-2.7-1.3c-1.1,0-1.9,0.8-1.9,1.9c0,0.5,0,0.9-0.1,1.3c-0.9-0.6-1.7-1-2.5-1
	c-0.6,0-1.1,0.2-1.5,0.7c0.3-0.9,0.6-2,0.2-3.1c-0.2-0.4-0.3-0.8-0.5-1.2c-0.1-0.1-0.1-0.2-0.2-0.3c0.9,0.8,1.8,1.7,2.9,1.7
	c0.4,0,1.1-0.1,1.7-0.8c0.4-0.5,0.9-0.7,1.3-1c0.8-0.5,1.8-1.1,1.9-2.7c0.1-1.7-1.5-4.2-2.6-5.4c-1.1-1.2-2.1-1.8-3-1.8
	c-1.2,0.1-2.1,0.8-2.5,1.8c-0.3-0.1-0.6-0.1-0.7-0.1c-0.9,0-1.6,0.6-2.2,1.3c0,0,0,0-0.1,0.1c-0.4-0.5-0.9-0.7-1.3-0.7
	c-0.7,0-1.2,0.5-1.5,1c-0.1-0.8-0.1-1.6,0-2c0.2,0,0.4-0.1,0.6-0.1c0.9-0.1,2.9-0.4,2.9-2.4c0,0,0,0,0,0c0.1,0,0.2-0.1,0.3-0.2
	c0.7-0.5,2.2-1.7,1.5-4.2c-0.4-1.4-2-5.3-4.2-5.3c-0.8,0-1.4,0.5-1.8,1.3c-0.5,1.1-0.1,2.3,0.3,3.4c0.2,0.5,0.4,1.2,0.4,1.5
	c-0.6,0.3-1,0.6-1.4,1c0.1-1.1,0.1-2.8-1.6-3.3c-0.3-0.1-0.5-0.1-0.8-0.1c-0.1,0-0.2,0-0.4,0c0.3-0.3,0.5-0.7,0.6-1.1
	c0.8-2.5,0.9-6.3-0.5-8.6c-1.3-2.1-2.5-3.1-3.5-3.1h-0.7L183,259c-0.5,0.7-0.4,1.7,0,3.1c0.2,0.6,0.5,1.6,0.7,2.6
	c-0.8-0.6-1.3-0.7-1.9-0.7c-0.2,0-0.6,0-1.8-0.9c-0.7-0.5-1.2-0.7-1.7-0.7h-0.6l-0.6,0.5c-0.6,0.7-0.5,1.6-0.5,2.4
	c0,0.1,0,0.3,0,0.4c0,0,0,0,0,0c-3-1.5-4.2-2.8-5.3-4.1c-0.3-0.4-0.7-0.7-1-1.1c-1.5-1.5-4.1-2.4-6-3.1c-0.5-0.2-0.9-0.3-1.2-0.4
	c-0.4-0.2-0.9-0.3-1.4-0.5c0,0-0.1,0-0.1,0c0,0,0,0,0,0c0.7-0.6,1.6-1.3,1.6-2.5c0-1.2-1-2-1.4-2.3c-0.5-0.4-1.1-0.7-1.7-0.7
	c-1.1,0-1.9,0.7-2.6,1.4c-0.8,0.7-1.5,1.3-2.6,1.3c-0.2,0-0.4,0-0.6-0.1c-1.7-0.3-2.2-1-2.7-1.8c-0.4-0.6-1.1-1.6-2.5-1.6
	c-0.5,0-1,0.1-1.6,0.1c-1.8,0.2-4.8,0.5-7.4,0.5c-1.3,0-2.4-0.1-3.2-0.2l-0.7-0.1c-1.7-0.3-3.9-0.6-4.6-1c0-0.3,0-0.6-0.1-0.9
	c-0.2-1.2-1-1.7-1.7-1.7c-0.8,0-1.4,0.5-1.8,0.9c-0.3,0.3-0.8,0.8-1,0.9c0,0-0.2-0.1-0.5-0.4c-0.5-0.4-1-0.7-1.5-0.9
	c0.1-1.1-0.8-1.8-1.3-2.2c-0.7-0.5-1.4-0.8-2.2-0.8c-0.6,0-1.2,0.2-1.6,0.3c-0.1,0-0.1,0.1-0.2,0.1c0,0,0-0.1-0.1-0.1
	c-0.7-1.4-1.7-2.1-3.1-2.1c-0.3,0-0.5,0-0.8,0.1c-0.2,0-0.3,0-0.5,0c-1.1-0.6-2-1.2-3-1.2c-0.6,0-1.9,0.2-2.5,2.2
	c-0.1,0.1-0.2,0.2-0.4,0.2c-0.4,0.1-1.2,0.3-1.6,1.1c-0.4,0.8-0.2,1.6,0.1,2.3c0.5,1.3,1.4,2.2,2.2,2.7c0,0.1-0.1,0.1-0.1,0.2
	c-0.2,0.5-0.1,1,0,1.4c-0.8-0.2-1.7-0.4-2.9-0.4c-1.5,0-3,0.3-4.4,1.1c-1.6,0.8-3.2,1.9-4.8,3c-2.2,1.5-4.5,3.1-5.8,3.1c0,0,0,0,0,0
	c1.1-0.6,2.2-1.5,2.1-2.7c0-0.5-0.3-1.5-2.2-1.7c-0.3,0-0.5-0.1-0.6-0.1c0.1-0.1,0.2-0.6,1.1-1.9c1-1.4,1.1-2.5,1.2-3.2
	c0.1-0.7,0.1-1,0.9-1.8c1.3-1.2,1.9-1.5,2.5-1.5c0.5,0,1.1,0.2,2,0.6c0.5,0.2,1.1,0.4,1.6,0.4c1.4,0,2.5-1,2.5-2.3
	c0-1.3-1.1-2.7-3.6-2.8c-1,0-1.1-0.2-1.2-0.4c-0.3-0.8-0.9-1.2-1.6-1.2c-0.5,0-1,0.2-1.3,0.4c-0.8,0.5-1.6,1.1-2.2,1.8
	c-0.7,0.7-1.6,1.4-2.1,1.5c-1.7,0.1-2.3,1.3-2.7,2.2c-0.3,0.5-0.5,1.1-1.1,1.7c-0.5,0.5-1.1,0.9-1.6,1.3c-1.1,0.8-2.4,1.7-2.6,3.7
	c-0.1,1.2-1.5,2.1-2.3,2.1c0,0,0,0,0,0c-2.1,0-4.8,2.4-5.7,3.8c-0.5,0.8-0.7,1.5-0.4,2.1c0.4,1,1.6,1.3,2.9,1.6
	c0.4,0.1,1.1,0.3,1.5,0.5c-0.2,0.6-0.9,1.1-1.7,1.2c-1.9,0.3-2.1,2.2-2.2,3.2c0,0.4-0.1,1-0.2,1.1c-0.4,0.1-0.7,0.1-1,0.2
	c-1.1,0.1-2,0.3-3.6,1.6c-1.4,1.1-4.3,3.5-5.6,3.6c-1.8,0.1-2.2,1.7-2.4,2.5c-0.1,0.2-0.1,0.5-0.2,0.6c-1.1,0.2-10,4-11.2,6.6
	c-0.2,0.5-0.3,0.9-0.4,1.3c-0.2,0.8-0.2,0.9-2,1.3c-2.2,0.4-3.4,1.2-4.2,1.7c-0.2,0.1-0.5,0.3-0.5,0.3l-0.3-0.1
	c-0.5-0.1-1.1-0.1-1.7-0.1c-0.3,0-0.5,0-0.8,0c1.9-2,5.7-5.8,7.8-6c2.5-0.3,4.1-2.4,5.3-4.1c0.5-0.7,1.4-1.8,1.8-1.9
	c2-0.5,1.9-2.6,1.8-4.3c-0.1-1.7-0.2-3.7,1-5.2l0.5-0.6c1.6-1.9,2.4-2.9,1.8-4c-0.3-0.6-0.8-0.9-1.5-0.9c-0.6,0-1.3,0.2-2.6,0.8
	c-1.8,0.8-2.9,1-3.4,1c-0.8,0-0.8-0.2-0.8-0.5c-0.1-1.3-1-1.9-1.8-1.9c-1.5,0-3,2.2-3.3,4.2c-0.3-0.3-0.7-0.7-1.2-1.3
	c-1.4-1.6-3.6-2.5-5.8-2.5c-2.3,0-4,1-4.3,2.5c-0.1,0.1-1.4,0.6-2.9,0.6c-0.3,0-0.5,0-0.6,0c0-0.5-0.1-1.1-0.1-1.7
	c-0.1-0.6-0.2-2.2,0-2.4c0.4-0.3,0.9-0.9,1-2c0.1-2.2-1.8-5.3-3.2-6.6c-0.3-0.3-0.8-0.7-1.5-0.7c-1.3,0-1.6,1.2-1.7,1.8
	c-0.2,0.9-0.3,0.9-0.7,0.9c-1.3,0.1-2.4,0.5-3.4,1c-0.7,0.3-1.4,0.6-1.8,0.6c-0.2,0-0.3,0-0.5-0.2c-0.5-0.4-1.1-1.2-1.8-2
	c-1.6-1.9-3.3-4-5.2-4.8c0-0.1,0.1-0.1,0.1-0.2c0.7-1.1,2.3-3.5-0.1-5.2c-1.2-0.9-2-0.9-2.7-0.9c-0.3,0-0.6,0-2.1-2.2
	c-0.1-0.2-0.2-0.3-0.3-0.5c1.1-0.3,2.7-1,3.3-3.4c0.4-1.8,1.4-2,2.9-2.2c0.9-0.1,2.9-0.4,2.8-2.4l0-0.6c-0.1-1-0.2-3,0.3-3.6
	c0.1-0.1,0.2-0.2,0.7-0.2c0.9,0,1.7,0.6,2.6,1.2c1,0.7,2,1.4,3.2,1.4c0.8,0,1.5-0.3,2.2-0.8c1.6-1.3,2-2.9,2.3-3.9
	c0-0.1,0.1-0.3,0.1-0.4c0.2,0,0.4,0.1,0.6,0.1c0.8,0.2,1.7,0.4,2.8,0.4c1.5,0,2.9-0.5,4.1-1.3c1.1-0.8,1.8-2,2-3.4
	c0.2-2.1-0.9-4.2-1.8-5.5c0.9-0.4,2-0.9,2.2-2.1c0.2-1.3-0.9-2.3-1.2-2.6c-0.8-0.8-1.9-1.2-3.1-1.2c-3.6,0-7.7,3.5-8.9,4.8
	c-0.1,0.2-0.2,0.2-0.3,0.2c-0.3,0-0.8-0.2-1.2-0.5c-0.8-0.4-1.7-0.8-2.7-0.8c-0.5,0-1.4,0.1-2.5,0.3c-1.6,0.2-3.6,0.5-5.5,0.5
	c-1.6,0-2.8-0.2-3.5-0.6c-1.3-0.7-1.7-1.4-2.1-2.1c-0.3-0.5-0.5-1-1-1.4c0.7-0.5,1.4-1.2,1.2-2.1c-0.1-0.7-0.7-1.2-1.7-1.4l-0.6-0.1
	c-3.3-0.6-5.4-1.2-6.3-1.7c0.7-0.5,2.2-1.2,3.3-1.7c1.2-0.5,2.5-1.1,3.5-1.8c0.3-0.2,0.6-0.3,1-0.3c0.4,0,0.8,0.2,1.2,0.3
	c0.4,0.2,0.9,0.3,1.4,0.3c0.5,0,1.5-0.2,1.9-1.7c0.1-0.5,0.2-0.9,0.2-1.2c0.4-0.3,1.2-0.7,2.3-1.3c2.1-1.2,3.5-1.4,4.2-1.4
	c0.4,0,0.6,0.1,0.8,0.1c-0.1,0.2-0.2,0.5-0.3,0.7c-0.5,1.2-1,2.5-0.3,3.5c0.2,0.3,0.7,0.8,1.7,0.8l0.4,0c0.3,0,0.7-0.1,1.2-0.2
	c1.1-0.2,2.4-0.3,3.5-0.3c1.2,0,1.5,0.2,1.5,0.2c0.7,1,1.6,1.2,2.2,1.2c1.3,0,2.7-1,4.5-2.3c0.9-0.7,2.5-0.7,3.8-0.7
	c1.5,0,2.6,0,3.2-1c0.2-0.3,0.5-0.9,0.2-1.8c-0.6-1.8-2.6-1.8-3.3-1.8c-0.3,0-1.5,0-1.8,0c-0.8,0-1.3-0.1-1.6-0.3
	c-0.2-0.2-0.1-0.9,0-1.2c0.1-1,0.4-3.4-2.2-3.8c-0.3,0-0.7-0.1-1.1-0.1c-1,0-2.2,0.1-3.3,0.3c-1.1,0.1-2.3,0.3-3.2,0.3
	c-0.6,0-0.9-0.1-1-0.1c-0.6-1.4-4.2-8.8-10.1-10.4c-3.9-1-5.1-1.8-5.5-2.1c0.6-0.9,0.6-1.9,0.6-2.6c0-0.1,0-0.1,0-0.2l0.6,0
	c0.6,0,1.4,0,2.3,0c6.1,0,10.1-1.1,12.2-3.4c2.3-2.5,2.4-4.1,2.3-5.5c0-0.2,0-0.4,0-0.5l0.7-0.7c2.7-2.8,4.4-4.3,5.1-4.5
	c0.3,0.1,1.1,0.2,2.1,0.2c2,0,5.5-0.3,7.2-2c0.1,0.1,0.2,0.1,0.2,0.2c0.5,0.5,1.1,1.1,2.1,1.1c0.7,0,1.3-0.3,1.8-0.8
	c0.3-0.3,1.1-1.1,1-2.1c-0.1-1-0.9-1.5-1.4-1.8c0,0,0,0-0.1,0c0.5-0.2,1.3-0.3,2.4-0.3c0.4,0,0.7,0,1.1,0.1c0.8,0.1,1.7,0.2,2.7,0.2
	c3.1,0,5.5-0.8,7.3-2.4c1.1-1,3.7-3.4,4.6-3.4c0.2,0.1,0.5,0.1,0.9,0.2c0.4,0.1,1.4,0.4,2.1,0.6c0,0,0,0,0,0
	c-0.7,0.4-1.6,0.9-1.8,1.9c-0.1,0.3,0,1,0.6,1.6c0.6,0.6,1.6,1,2.7,1c1.6,0,3.1-0.8,3.8-2c0.1-0.2,0.3-0.4,0.4-0.5
	c0.1,0.6,0.4,1.1,0.8,1.6c0.5,0.5,1.3,1.1,2.8,1.1c0.2,0,0.4,0,0.7,0c0.5-0.1,1.3-0.2,2.1-0.3c1.5-0.3,3.4-0.6,4.9-0.6
	c1.3,0,1.6,0.3,1.6,0.3c0.3,0.5,0.3,0.8,0.3,1.2c0,0.5,0,1.2,0.5,1.7c0.6,0.6,1.3,0.6,1.6,0.6c0.2,0,0.4,0,0.6,0c0,0,0.1,0,0.1,0
	c0.3,0,0.4,0.1,0.7,0.5c0.4,0.5,1,1.3,2.2,1.3c0.3,0,0.6-0.1,1-0.2c1-0.4,5.2-1.4,9.5-1.4c1.6,0,3,0.1,4.2,0.4
	c2,0.5,3.6,1.2,5.1,1.9c2,0.9,3.9,1.8,6.1,1.8c0.4,0,0.9,0,1.4-0.1c0.9-0.1,1.7-0.2,2.5-0.2c2.7,0,4.5,0.8,5.7,1.3
	c0.9,0.4,2.1,0.6,3.9,0.6c2.7,0,5.9-0.5,7.8-0.9c0.2,0,0.5-0.1,0.7-0.1c2.2,0,5.7,1.4,8.5,2.5c0.7,0.3,1.4,0.5,2,0.8
	c0.5,0.2,1.1,0.3,1.7,0.5v86.7l0.5,0.4c0.3,0.2,1.7,1.2,3.1,1.2c0.7,0,1.4-0.3,1.8-0.8l0.5,0.1c0.3,0,0.5,0,0.8,0
	c0.8,0,1.9-0.1,3.4-0.8c0.3-0.1,0.6-0.2,0.8-0.2c0.8,0,1.1,1.3,1.1,1.9c0,1.4,1.4,2.5,3.2,4c1,0.8,2.2,1.8,2.8,2.6
	c0.3,0.3,0.5,0.7,0.7,1c1,1.4,2,2.8,3.7,2.8c0.6,0,1.2-0.2,1.8-0.6c0.5-0.3,1.1-0.6,1.6-0.8c1.9-0.9,4.2-1.9,4.2-4.4c0,0,0,0,0,0
	c0.2,0,1.1-0.4,2.5-0.4c1.6,0,2.5,0.5,2.5,0.7c0,1.9,1.8,3.5,4.4,5.6c2.6,2.2,5.9,5,8.1,9c1,1.8,1.7,3.2,2.3,4.4
	c2.1,4.2,3,6,8.4,8.1c5.5,2.2,5.2,2.9,4.6,4.3c-0.7,1.8,0.6,3.1,1.3,3.9c0.2,0.2,0.4,0.4,0.5,0.6c0,0-1.6,1.2-2.5,1.8L212.8,294.1z"
	/>
<path class="st0" d="M29.3,292.5c1-1,2-2.2,2.5-3.6c0.1-0.3,1-0.4,1.4-0.4c0.9,0,2,0.2,3,0.3c0.6,0.1,1.2,0.2,1.7,0.2
	c-0.7,0.5-1.4,0.8-1.8,0.8c-0.5-0.6-1.3-1.3-2.3-1.3c-0.5,0-1.7,0.2-2,2.2C31.7,291.1,30.5,291.9,29.3,292.5z"/>
<path class="st0" d="M186.9,278.7c-0.2-0.2-0.5-0.4-0.9-0.6c0-0.2,0-0.4,0-0.5c0-0.3,0-0.7-0.1-1.1c0.1,0.2,0.2,0.4,0.3,0.6
	C186.6,277.5,186.8,278,186.9,278.7z"/>
<path class="st0" d="M75.4,277.7c-0.4-0.4-0.8-2-0.5-2.6c0,0,0.1-0.2,0.8-0.2l0.8,0c1.5,0,2.4-0.5,2.6-1.6c0.1-0.5,1.1-1.4,2.1-2.4
	c0.8-0.8,1.7-1.7,2.7-2.9c0.9-1,1.6-1.6,2.1-1.8c0.1,0.5,0.4,0.9,0.7,1.3c-0.2,0-0.4,0.1-0.5,0.1c-1.3,0.3-3.4,0.8-3.1,2.7
	c0.1,1.1,1,1.7,1.7,2.1c0.2,0.2,0.6,0.4,0.7,0.6c-1,1.3-5.4,4.3-6.5,4.5c0,0,0,0-0.2-0.1c-0.3-0.2-0.8-0.4-1.4-0.4
	C76.8,276.9,76.2,277.1,75.4,277.7z"/>
<path class="st0" d="M185.6,275.2c-0.3-0.6-0.9-1-1.8-1.2c-1.4-0.3-3.6-3.1-3.6-4.1c0.1-0.1,0.6-0.4,1.2-0.4
	c0.1,0.3,0.2,0.6,0.4,0.9c0.7,1,2.2,1.7,3.5,1.7c0.3,0,0.5,0,0.8-0.1c-0.1,0.1-0.2,0.3-0.3,0.4C185.5,273.1,185.4,274.2,185.6,275.2
	z"/>
<path class="st0" d="M8.3,253.6c-2.5,0-4.9-1.1-5.1-1.7c0.2-0.1,1.4-0.9,2.4-0.9c0,0,0.1,0,0.1,0c0.3,1.2,1.1,1.6,1.9,1.6
	c0.6,0,1.1-0.2,1.6-0.5c0.3-0.1,0.8-0.3,1-0.3c0.2,0.2,0.3,0.4,0.2,0.7c-0.1,0.3-0.3,0.7-0.9,0.9C9.2,253.5,8.8,253.6,8.3,253.6z"/>
</svg>
