<!-- Generator: Adobe Illustrator 19.0.0, SVG Export Plug-In  -->
<svg version="1.1"
	 xmlns="http://www.w3.org/2000/svg" xmlns:xlink="http://www.w3.org/1999/xlink" xmlns:a="http://ns.adobe.com/AdobeSVGViewerExtensions/3.0/"
	 x="0px" y="0px" width="136px" height="19.5px" viewBox="0 0 136 19.5" style="enable-background:new 0 0 136 19.5;"
	 xml:space="preserve">
<style type="text/css">
	.st0{fill-rule:evenodd;clip-rule:evenodd;fill:#FFFFFF;stroke:#231F20;stroke-miterlimit:10;}
	.st1{fill:#231F20;}
</style>
<defs>
</defs>
<rect id="XMLID_34_" x="0.5" y="0.5" class="st0" width="135" height="18.5"/>
<g id="XMLID_15_">
	<path id="XMLID_32_" class="st1" d="M20.6,17v-2.2l5.9-9.3h-5.7V3h8.9v2.2l-6,9.4h6V17H20.6z"/>
	<path id="XMLID_29_" class="st1" d="M41.2,10c0,0.7,0,1.3,0,1.8c0,0.5-0.1,1-0.2,1.5c-0.1,0.4-0.2,0.9-0.4,1.2
		c-0.2,0.4-0.5,0.7-0.8,1.1c-0.5,0.5-1,0.8-1.6,1.1c-0.6,0.3-1.3,0.4-2.1,0.4s-1.5-0.1-2.1-0.4c-0.6-0.3-1.1-0.6-1.6-1.1
		c-0.4-0.4-0.6-0.7-0.8-1.1c-0.2-0.4-0.3-0.8-0.4-1.2c-0.1-0.5-0.1-0.9-0.2-1.5c0-0.5,0-1.1,0-1.8s0-1.3,0-1.8s0.1-1,0.2-1.5
		s0.2-0.9,0.4-1.2c0.2-0.4,0.5-0.7,0.8-1.1c0.5-0.5,1-0.8,1.6-1.1c0.6-0.3,1.3-0.4,2.1-0.4s1.5,0.1,2.1,0.4c0.6,0.3,1.1,0.6,1.6,1.1
		c0.4,0.4,0.6,0.7,0.8,1.1c0.2,0.4,0.3,0.8,0.4,1.2c0.1,0.5,0.1,0.9,0.2,1.5S41.2,9.3,41.2,10z M38.5,10c0-0.7,0-1.2,0-1.7
		c0-0.4-0.1-0.8-0.1-1.1c-0.1-0.3-0.1-0.5-0.2-0.7S38,6.2,37.8,6.1c-0.2-0.2-0.4-0.4-0.7-0.5c-0.3-0.1-0.6-0.2-1-0.2
		c-0.4,0-0.7,0.1-1,0.2c-0.3,0.1-0.5,0.3-0.8,0.5c-0.1,0.1-0.2,0.3-0.3,0.5S33.9,7,33.8,7.3c-0.1,0.3-0.1,0.6-0.1,1.1
		c0,0.4,0,1,0,1.7s0,1.2,0,1.7c0,0.4,0.1,0.8,0.1,1.1c0.1,0.3,0.1,0.5,0.2,0.7s0.2,0.3,0.3,0.5c0.2,0.2,0.5,0.4,0.8,0.5
		c0.3,0.1,0.6,0.2,1,0.2c0.4,0,0.7-0.1,1-0.2c0.3-0.1,0.5-0.3,0.7-0.5c0.1-0.1,0.2-0.3,0.3-0.5s0.2-0.4,0.2-0.7
		c0.1-0.3,0.1-0.6,0.1-1.1C38.5,11.2,38.5,10.7,38.5,10z"/>
	<path id="XMLID_26_" class="st1" d="M52.9,10c0,0.7,0,1.3,0,1.8c0,0.5-0.1,1-0.2,1.5c-0.1,0.4-0.2,0.9-0.4,1.2
		c-0.2,0.4-0.5,0.7-0.8,1.1c-0.5,0.5-1,0.8-1.6,1.1c-0.6,0.3-1.3,0.4-2.1,0.4s-1.5-0.1-2.1-0.4c-0.6-0.3-1.1-0.6-1.6-1.1
		c-0.4-0.4-0.6-0.7-0.8-1.1c-0.2-0.4-0.3-0.8-0.4-1.2c-0.1-0.5-0.1-0.9-0.2-1.5c0-0.5,0-1.1,0-1.8s0-1.3,0-1.8s0.1-1,0.2-1.5
		s0.2-0.9,0.4-1.2c0.2-0.4,0.5-0.7,0.8-1.1c0.5-0.5,1-0.8,1.6-1.1c0.6-0.3,1.3-0.4,2.1-0.4s1.5,0.1,2.1,0.4c0.6,0.3,1.1,0.6,1.6,1.1
		c0.4,0.4,0.6,0.7,0.8,1.1c0.2,0.4,0.3,0.8,0.4,1.2c0.1,0.5,0.1,0.9,0.2,1.5S52.9,9.3,52.9,10z M50.1,10c0-0.7,0-1.2,0-1.7
		c0-0.4-0.1-0.8-0.1-1.1c-0.1-0.3-0.1-0.5-0.2-0.7s-0.2-0.3-0.3-0.5c-0.2-0.2-0.4-0.4-0.7-0.5c-0.3-0.1-0.6-0.2-1-0.2
		c-0.4,0-0.7,0.1-1,0.2c-0.3,0.1-0.5,0.3-0.8,0.5c-0.1,0.1-0.2,0.3-0.3,0.5S45.5,7,45.4,7.3c-0.1,0.3-0.1,0.6-0.1,1.1
		c0,0.4,0,1,0,1.7s0,1.2,0,1.7c0,0.4,0.1,0.8,0.1,1.1c0.1,0.3,0.1,0.5,0.2,0.7s0.2,0.3,0.3,0.5c0.2,0.2,0.5,0.4,0.8,0.5
		c0.3,0.1,0.6,0.2,1,0.2c0.4,0,0.7-0.1,1-0.2c0.3-0.1,0.5-0.3,0.7-0.5c0.1-0.1,0.2-0.3,0.3-0.5s0.2-0.4,0.2-0.7
		c0.1-0.3,0.1-0.6,0.1-1.1C50.1,11.2,50.1,10.7,50.1,10z"/>
	<path id="XMLID_24_" class="st1" d="M64.8,17V8.8l-2.7,5.3h-1.8l-2.7-5.3V17h-2.7V3h2.7l3.6,7.5L64.8,3h2.7V17H64.8z"/>
	<path id="XMLID_22_" class="st1" d="M78.8,17h-2L72.1,3H75l2.8,9.1L80.6,3h2.8L78.8,17z"/>
	<path id="XMLID_20_" class="st1" d="M84.3,17V3H87V17H84.3z"/>
	<path id="XMLID_18_" class="st1" d="M89.5,17V3h9.2v2.4h-6.5v3.3h5.5v2.4h-5.5v3.4h6.5V17H89.5z"/>
	<path id="XMLID_16_" class="st1" d="M112.4,17h-2.3l-2.6-8.5L105,17h-2.3L99,3h2.8l2.2,8.8l2.5-8.8h2l2.5,8.8l2.2-8.8h2.8L112.4,17
		z"/>
</g>
</svg>
