<!-- Generator: Adobe Illustrator 19.0.0, SVG Export Plug-In  -->
<svg version="1.1"
	 xmlns="http://www.w3.org/2000/svg" xmlns:xlink="http://www.w3.org/1999/xlink" xmlns:a="http://ns.adobe.com/AdobeSVGViewerExtensions/3.0/"
	 x="0px" y="0px" width="37.1px" height="24.9px" viewBox="0 0 37.1 24.9" style="enable-background:new 0 0 37.1 24.9;"
	 xml:space="preserve">
<style type="text/css">
	.st0{fill:#EB2227;}
	.st1{fill:#FFFFFF;}
</style>
<defs>
</defs>
<g id="XMLID_15_">
	<rect id="XMLID_18_" x="0" y="0" class="st0" width="37.1" height="24.9"/>
	<rect id="XMLID_17_" x="9.2" class="st1" width="18.7" height="24.9"/>
	<path id="XMLID_16_" class="st0" d="M18.4,21.6l0.1-3.6c0-0.3-0.2-0.6-0.6-0.6L13.1,18l0.5-1.3c0.1-0.3,0.1-0.6-0.2-0.8L10.5,13
		l1-0.5c0.2-0.1,0.3-0.3,0.2-0.6l-0.8-2.6L13,9.8c0.3,0.1,0.5,0,0.5-0.2L14,8.6l1.7,2.1c0.3,0.4,0.7,0.1,0.7-0.3l-1.1-4.6l1,0.7
		c0.3,0.2,0.8,0.3,1-0.1l1.3-2.6l1.3,2.6c0.2,0.4,0.7,0.3,1,0.1l1-0.7L21,10.4c-0.1,0.4,0.3,0.7,0.7,0.3l1.6-2.1l0.5,0.9
		c0.1,0.2,0.2,0.3,0.5,0.2l2.1-0.4L25.6,12c-0.1,0.3,0.1,0.3,0.2,0.4l0.8,0.5l-3.8,3c-0.3,0.2-0.3,0.5-0.2,0.8l0.4,1.2l-3.4-0.5
		c-0.4-0.1-0.6,0.3-0.6,0.6l0.1,3.6H18.4z"/>
</g>
</svg>
