<!-- Generator: Adobe Illustrator 19.0.0, SVG Export Plug-In  -->
<svg version="1.1"
	 xmlns="http://www.w3.org/2000/svg" xmlns:xlink="http://www.w3.org/1999/xlink" xmlns:a="http://ns.adobe.com/AdobeSVGViewerExtensions/3.0/"
	 x="0px" y="0px" width="658.4px" height="535px" viewBox="0 0 658.4 535" style="enable-background:new 0 0 658.4 535;"
	 xml:space="preserve">
<style type="text/css">
	.st0{fill:#9AC1BD;}
</style>
<defs>
</defs>
<polygon class="st0" points="227.8,87.4 228.5,87.1 229.2,86.8 "/>
<polygon class="st0" points="157.2,100.2 158.5,99.2 158.5,97.6 157.7,97.1 158.6,95.8 158.7,94.6 158.3,94.2 158.7,93.2 
	158.4,92.6 157.3,93.9 157.5,95.8 157.2,96.4 157.4,97.2 156.7,99.7 "/>
<path class="st0" d="M165.6,131.4l-0.7-0.6l-0.8,0.8l0,1.1c0,0,0.5,0.2,0.6,0.3c0.1,0.1,0.5,1.2,0.5,1.2l0.7-0.8l-0.3-1L165.6,131.4
	z"/>
<polygon class="st0" points="158.6,119.9 158.9,119.2 157.9,119.6 "/>
<polygon class="st0" points="164.2,129.5 163.6,130.2 164,130.6 164.8,129.5 "/>
<polygon class="st0" points="163.8,125 163.4,124.5 162.9,125.5 163.4,126.3 163.8,125.8 "/>
<polygon class="st0" points="153.5,105.7 154.8,106.1 154.3,105.3 "/>
<polygon class="st0" points="161.7,126.8 162,127.6 162.7,128.1 163.3,127.7 162.7,126.6 "/>
<path class="st0" d="M160.3,123.8c0,0,0.3,0.9,0.3,0.9l0.9,0.9l-0.4-1.5L160.3,123.8z"/>
<polygon class="st0" points="156.9,103.3 157.3,102 158,101.5 158,100.9 156.4,101.5 156.4,103.1 156,103.9 156.6,105.2 
	156.3,106.1 156.6,106.9 157.4,105.1 157.3,104 "/>
<path class="st0" d="M155.7,110l-0.1,1.2c0,0,0,0.9,0,1l1.1,0l0.6-1.5l-0.4-1.3L155.7,110z"/>
<polygon class="st0" points="656.5,280.2 655.5,280 657.2,278.4 657.2,277.4 658.4,276.3 658.2,275.5 656.3,277.1 655.3,277.1 
	654,278.7 652.6,277.9 651.3,278.8 649.8,278.8 648.9,280.6 650.4,281.9 650.9,280.9 652.4,281.2 652.8,280.4 654.1,280.5 
	654.2,281.3 657.1,280.9 657.8,279.7 657.5,279 "/>
<polygon class="st0" points="646.9,283.7 644.5,284.3 642.5,286 642.3,287.2 641.1,287.6 641.1,289 643,290 645.6,290.2 
	646.5,289.7 648,289.9 649.6,289 649,285.7 "/>
<polygon class="st0" points="594.4,299 594.5,298.1 594,297.2 593.9,298 "/>
<polygon class="st0" points="591.2,279.4 590.1,278.7 589.5,279.6 590,280 591.4,280 "/>
<path class="st0" d="M581.7,270.1l0.6,1.5h0.9l0.5-0.9l0.8,0.4l0.7-0.5l0-1.4l-0.5-0.7l0.4-1l-0.7-0.8l-0.3,0.5l0,0.9l-0.8,0.3
	l-0.5-0.5l-0.1-2.1c0,0-0.8-0.9-0.8-0.8l-0.6,2.4l0.5,1.4L581.7,270.1z"/>
<polygon class="st0" points="591.4,268.4 590.7,266.4 590.9,268.3 590.7,269.5 "/>
<polygon class="st0" points="584.5,274.1 584.7,274.7 585.3,274.8 585.8,275.4 585.5,276.1 585.3,277.8 585.4,278.6 586.9,277.8 
	587.9,277.6 587.3,276.8 586.5,275.3 586.4,274.2 585.6,273.5 584.6,273.5 "/>
<polygon class="st0" points="593.8,294.5 594,292.7 593.3,291.8 592.8,292.2 592.9,293.4 "/>
<polygon class="st0" points="589.3,285.7 590.3,286.6 591.3,286.1 591.3,285 590.5,284.1 589.2,284.7 "/>
<polygon class="st0" points="588.5,276.9 589.2,277.4 589.9,277.5 590.2,277.1 590.9,277.1 590.9,276.3 590.4,276 590.1,275.2 
	588.6,276.3 "/>
<path class="st0" d="M589.6,269.5l0.2-0.5l-1.4,0.5c0,0-0.5,0.6-0.5,0.6l0.7,0.2L589.6,269.5z"/>
<path class="st0" d="M590.7,273.6l0.5,0l-0.1-1l0-1.2l-0.5-0.5c0,0-0.2,1.3-0.2,1.3L590.7,273.6z"/>
<polygon class="st0" points="528.1,211.8 526.7,213.1 527.9,212.6 "/>
<polygon class="st0" points="524.9,215 525.8,215.5 525.5,214.8 "/>
<polygon class="st0" points="535.5,226.9 536.3,226.6 536.4,225.7 535.2,225.6 535.2,226.2 "/>
<polygon class="st0" points="529.1,221.5 529.4,220.9 528.1,219.8 528,220.7 528.4,221.4 528.4,221.8 "/>
<polygon class="st0" points="533.4,222.1 532.8,221.9 532.1,222.5 531.7,223.8 532.5,223.9 533.3,224 533.5,224.9 534.3,225.2 
	534.9,225.3 535,224.1 534.6,223.4 533.7,222.9 "/>
<polygon class="st0" points="532.6,225.3 532,225 531.6,225.4 532.4,225.6 "/>
<polygon class="st0" points="580.1,240.6 580.9,239.8 580.6,239.3 579.6,239.3 578.7,239.9 579,240.4 "/>
<polygon class="st0" points="527.4,214.1 528.3,215.6 530.2,216.9 531.3,218 532.7,218.4 533.8,218.4 533.6,217.7 532.4,216.6 
	531.5,216.2 531.4,215.5 530.5,214.9 528.7,214.6 528.6,213.6 527.9,213.4 "/>
<polygon class="st0" points="551.1,225.5 550.9,226.2 551.6,227.2 551.9,228.9 554.3,230.9 555.2,231.2 555.3,232.4 556.2,232.7 
	556.5,231.4 555.3,230.1 554.5,229.7 553.9,228.8 552.5,226.8 552.7,225.9 551.6,224.6 550.2,224.5 550.3,225 "/>
<path class="st0" d="M542.6,223.1l1.1,0.9l0.6,0.7l0.2,0.7l0.6-0.7l0.8,0.6l-0.4-0.7l0.5-0.5l-2.1-2.2l-1.8-0.8l-1.5-1.3l-2-0.3
	c0,0,1.4,1,1.4,1L542.6,223.1z"/>
<polygon class="st0" points="549.7,229.3 549.7,228.5 548.4,228.3 548.7,229.1 "/>
<polygon class="st0" points="555.2,236.5 554,236.4 554.6,237.3 554.7,238.2 556.3,239.6 558.1,240.3 559.6,240.2 559.1,239.8 
	559.3,239.1 558.6,238.1 556.4,237.6 "/>
<polygon class="st0" points="545.2,230.1 545,231.3 546.3,232.9 547.7,233.5 549,233.3 550,234.5 551.2,234.4 551.6,233.2 
	551.4,232.5 550.7,232.4 549.9,231.6 548.2,230.8 546.8,230.8 545.8,229.8 "/>
<polygon class="st0" points="547.3,244 546.1,243.9 546.2,244.7 546.7,245.2 547.7,245.1 548.6,245.5 549.5,245.1 548.3,244.6 "/>
<path class="st0" d="M530.7,221.2l-0.6,0.4c0-0.1,0,0.6,0,0.6l0.5,0.4l1-0.1l0.1-0.6L530.7,221.2z"/>
<polygon class="st0" points="515.6,200.6 515.2,201.5 514.5,201.7 514.8,202.2 515.7,202.3 516.3,201.5 "/>
<polygon class="st0" points="516.5,204.2 516.2,204.7 516.7,205.4 516.7,206.5 517.4,205.6 517.4,204.5 "/>
<polygon class="st0" points="485.3,229.1 484.6,228.4 483.9,228.4 483.5,228.8 482.6,228.6 481.9,228.6 480.9,227.5 480.7,225.9 
	479.8,225.5 478.8,222.9 478.3,222.7 478,221.9 476.7,221.9 475.9,221.4 475.3,220.2 474,218.9 473.7,217.5 472.9,216.8 
	472.2,215.6 472.3,215.1 474.7,215.3 476.8,214.3 477.4,213.3 477.3,212.1 475.6,210.3 474.4,210.1 473.9,210.5 472.6,209.8 
	470.5,209 469.5,207.9 468.3,208 465.5,207 465.3,206.2 466,204.9 466.2,203.9 465.4,203 463.4,200.8 462.9,200.9 462.2,201.2 
	461.7,200.2 460.7,199.5 460.4,198.7 459.1,198.4 458.5,197.6 458,197.7 457,197.2 455.7,197.1 454.5,196.2 453.2,195.9 
	451.1,194.6 448,194.3 446.8,193.8 446.2,193 445.6,193 445.2,193.2 443,192.3 442.4,191.8 441.3,191.3 439.4,190.5 438.4,190.5 
	437.7,212.1 437.4,213.7 437.3,214.6 437.6,215.1 437.1,229.1 439.1,229.1 439.7,229.5 440.8,229.2 443.8,229.3 444.6,229.1 
	444.9,229.8 445.6,230.6 446.5,230.8 447.7,230.1 449.8,229.5 449.9,229 450.4,229.4 451,228.8 450.9,227.2 449.4,226 447.7,225.3 
	446.3,225.1 445.7,224.5 444.9,224.2 444.5,224.2 443.9,223.8 443.6,222.4 442.6,221.1 441.6,220.6 441.3,219.8 440.7,219.2 
	441.5,219.7 441.8,220.5 442.4,220.7 443.7,221.5 443.9,222.5 444.1,223.6 444.5,223.7 446,224.1 446.7,224.8 447.3,224.7 
	448.7,224.7 450.3,224.3 451.5,224.4 452.4,224.1 452.1,223.6 451.3,223.1 450.9,222.3 450.1,222.4 449.7,221.6 450.3,222.2 
	451.5,221.9 452.3,222.9 453.4,223.1 452.9,222.4 452.9,221.6 453.4,221.2 453.5,220.6 453.4,219.7 452.6,218.9 452.6,218.5 
	453.5,219 453.9,219.7 455.1,220.7 455.9,220.9 456,220.4 455.8,219.6 456,219.9 456.3,220.9 456.8,220.8 456.8,220 456.5,219.4 
	456.8,218.2 457.3,218.8 458.8,219.2 459.1,220.1 459.8,220.2 460.5,220.2 460.9,220.5 461.4,219.8 461.4,220.6 461.4,221.3 
	462,221.5 462.7,222.2 465.8,222.9 466.8,223.5 467.7,224.5 468.1,226.1 469.7,228.1 469.9,228.8 471,229.1 471.6,230.1 
	471.8,230.7 474.5,233.4 474.6,234.3 475.6,235 477.2,235.6 477.8,235.3 478.4,235.3 479.3,235.7 481.1,235.4 482.3,235.9 
	483.3,235.8 485.1,236.1 485.9,236.6 487.2,236.4 487.8,237.1 488.9,237.1 489.1,237.4 488.5,237.9 489.6,238.2 490.9,239 
	492.2,238.7 492.6,237.9 491.2,237.1 490.7,237.1 490.7,236.6 491.7,236.2 492.7,236.6 493.7,235.9 491.5,235.5 489,235.2 
	487.5,234.4 487,233.7 488.3,233.1 489.1,233.2 489.6,232.8 488.9,232.3 486.9,232.3 485,232 484.3,231.4 484.3,230.5 484.9,229.8 
	"/>
<polygon class="st0" points="521.5,209.7 520,209.2 519.6,207.6 518.9,206.8 517.7,206.9 517.5,208 517.7,208.9 517.7,210.7 
	518.9,211.3 520,213.3 519.6,213.9 520.3,214.8 521.2,214.8 522,215.1 523.4,215 523.6,214.5 524.4,214.2 524.5,212.7 523.4,211.2 
	"/>
<polygon class="st0" points="512,243 512,243.4 512.6,243.5 513.5,243.3 513.7,242.7 512.7,242.4 "/>
<polygon class="st0" points="508,202.1 508.5,201 508.4,200 507.8,199.7 507.4,197.3 506.6,197.3 505.6,195.6 504.3,195 503.4,194 
	501.8,193.7 499.7,191.9 497.9,191.4 495.3,189.8 495.5,190.6 496.2,191.3 500.2,193.7 502.2,194.8 503.6,194.9 505.6,197.1 
	506.5,200 506,201 506.4,202.2 507.5,203.5 "/>
<polygon class="st0" points="504.4,228.1 504.1,229 504.4,229.6 504.9,229.4 506.1,230.3 506,229.6 "/>
<polygon class="st0" points="510,244 509.1,244 507.9,243.1 507.2,243.2 508.5,244.6 509.3,244.6 509.9,244.9 510.3,244.6 "/>
<polygon class="st0" points="492.9,189.7 492.1,189.2 490.8,189.7 490.9,190.6 491.7,191.1 492.9,190.8 "/>
<path class="st0" d="M460.8,220.9l0.4,0.6c0,0,0-0.8,0-0.9L460.8,220.9z"/>
<polygon class="st0" points="490.4,203.2 490.2,203.8 491.4,204.9 492,204.2 491.2,203.1 "/>
<polygon class="st0" points="496.5,226.9 496.6,226 496.4,224.5 495.8,224.6 495.6,225.1 496,225.9 496.2,225.8 496.4,226.6 
	496.2,226.9 "/>
<polygon class="st0" points="467.9,201.7 466.6,202.2 467,203.1 467.7,202.4 "/>
<polygon class="st0" points="489.1,183 489.1,182.3 488.4,181.3 487.4,181.3 487.6,182 "/>
<path class="st0" d="M474.8,186.1l-0.9,0.2l-0.7-0.5l-1,0.3l-0.9-0.1l-0.4,0.3c0-0.1,0.4,0.8,0.4,0.8l0.9,0.1l0.5,0.5l1.5-0.1l1.2-1
	L474.8,186.1z"/>
<polygon class="st0" points="495.2,234.1 494.8,233.9 494.7,233.7 494.2,233.1 493.4,233 493.5,233.3 493.9,233.5 494.4,234.4 
	494.7,234.6 494.6,235.3 495.4,235.5 496,235.3 496.1,234.8 496.7,234.4 496.6,233.8 496.1,233.9 495.3,234.4 "/>
<polygon class="st0" points="478.4,209.2 478.7,208.7 478.4,207.7 477.5,206.9 476.8,207.7 477.4,208.6 "/>
<polygon class="st0" points="491.3,231.7 491.7,231.9 491.8,231.1 491.1,230.1 490.5,229.8 489.9,230.2 490.3,231.2 490.8,231.1 "/>
<polygon class="st0" points="493.7,231.2 493.3,231.2 492.6,231 492.4,231.2 492.6,232.2 493.1,232.5 493.9,232.4 494.2,232.7 
	494.5,232.4 494.1,231.9 493.8,231.9 493.9,231.6 "/>
<polygon class="st0" points="473.1,206.4 473.5,207.1 474.3,206.9 474.3,205.9 473.5,205.4 "/>
<polygon class="st0" points="503.1,206.3 501.9,205.1 501.8,204.4 502.6,203.9 503.2,204.2 504.6,202.9 504.6,200.3 503.3,199.2 
	502.6,199.7 502.2,200.2 501.4,199.6 500,199.6 499.5,200.5 500,202.9 500.4,203.4 499.9,204 498.7,204 496.6,205.8 496.1,206.9 
	495.4,207.4 494.9,207.2 494,207.7 493.3,206.9 492.6,206.9 491.7,208 491,207.8 490.7,206.3 490.9,205.4 490,205 489.5,205.6 
	489.6,206.3 488.8,206.9 487.6,206.8 486.3,207.3 485.3,207.3 484.5,206.9 483.5,206.9 482,207.2 480.9,206.5 480.1,208.1 
	481,209.3 482.3,209.4 484.2,210.9 484.4,211.6 485.2,210.9 487.1,211 487.7,212.1 489.1,212.3 490,212.1 492.1,211.7 493.2,212.1 
	494.2,211.6 495.6,212.2 496,211.6 496,210.8 497.5,210.7 499.5,208.2 499.5,207.4 500.3,207.2 501.1,207.7 502.5,207.3 "/>
<path class="st0" d="M452.9,227.5l-0.7-0.9c0,0-1.6-0.7-1.6-0.7L452.9,227.5z"/>
<polygon class="st0" points="454.3,220.8 454.7,221.7 455.1,221.8 454.8,221.2 "/>
<polygon class="st0" points="450.9,225.4 451.6,225.8 451.9,225.4 "/>
<polygon class="st0" points="457.1,220.4 457,221 457.7,221.2 457.6,220.8 "/>
<path class="st0" d="M454.1,222.4l-0.4-1.2l-0.6,0.6l0,0.5l0.5,0.6c0,0,0.4,0,0.4,0L454.1,222.4z"/>
<polygon class="st0" points="452.2,226.1 452.7,226.4 452.6,225.9 "/>
<polygon class="st0" points="452.1,223.1 452.3,223.5 452.9,223.6 453.1,223.3 "/>
<path class="st0" d="M453.9,224.7l-0.9,0l-0.7,0.7c0,0,1.2-0.1,1.2-0.1L453.9,224.7z"/>
<polygon class="st0" points="458,219.5 457.7,220.2 458.4,220.9 458.3,220.4 458.6,219.6 "/>
<polygon class="st0" points="458.8,220.9 459.1,220.4 458.6,220.4 "/>
<polygon class="st0" points="303.4,152.8 302.2,153.1 303.1,153.4 "/>
<polygon class="st0" points="302.5,150.6 303.1,150.9 302.7,150.3 "/>
<path class="st0" d="M378.4,219.7l0.5,0.1c0,0,0.1-0.3,0.2-0.4L378.4,219.7z"/>
<polygon class="st0" points="304,150.5 304,150.1 302.8,149.6 302.7,149.9 303.1,150.4 "/>
<polygon class="st0" points="256.1,177.8 254.7,177.4 254.4,177.5 254.6,178.1 255.7,178.5 256.3,178.1 "/>
<path class="st0" d="M379.1,219.4L379.1,219.4C379.1,219.4,379.1,219.4,379.1,219.4z"/>
<polygon class="st0" points="232,213.8 231.4,213.8 231.5,214.4 231.9,214.4 "/>
<polygon class="st0" points="302.4,155.2 302.7,155.3 302.7,154.3 302.2,154 "/>
<polygon class="st0" points="269.8,160 269.5,158.6 268.7,158.8 268.6,158.8 268.3,158.9 268.3,159.5 269.1,160.3 "/>
<polygon class="st0" points="299.1,131.9 300.4,131.5 300.4,130.7 299.9,130.5 298.8,131.5 "/>
<polygon class="st0" points="297.6,131.3 298.3,130.9 298.4,130.5 296.9,131.4 "/>
<polygon class="st0" points="267.8,159.8 268,159.7 268.1,158.8 268.1,158.8 267.7,159.5 "/>
<polygon class="st0" points="260.4,166.8 260.6,167.3 261.9,168.5 262.4,169.5 263.2,169.6 264.9,169.1 265.1,168.5 266.5,168.6 
	267.3,168.2 270.5,168.3 273.7,167 274.5,166.3 277.3,166.2 278.8,166.9 279.2,167.6 280.6,167.6 283,166.3 285.7,165.9 285.5,165 
	287.8,161.5 288.7,159.1 290.5,156.5 291.7,152.1 291.7,151.2 292.3,150.2 292.2,149.4 293.4,148 294.4,148.4 296.2,148.2 
	298.7,148.3 299.3,148.7 301,148.7 302.2,149.1 302.3,148.6 303.7,149.5 304.6,149.7 305.8,149.1 307.3,148.8 307.3,148.1 
	305.8,146.9 305.8,145.4 306.5,144.9 308.8,145.1 310.7,144.6 311.9,143.7 311.7,142.8 310.8,142.8 309.4,142.5 308.4,141.6 
	307.4,141.7 306,140.4 305.3,140.4 304.3,141.2 303.8,140.7 305,139.6 304.4,138.9 303.9,139.1 303.1,140.1 302.6,139.5 
	302.2,139.3 302.2,137.6 303.2,137.2 303.2,136.5 301.8,135.6 301.3,135.9 300.2,134.9 300.2,133.3 299,132.6 298.5,132.9 
	298.8,134 297.6,135.2 297.1,135.1 297.5,134 297.3,133.1 296.5,133.1 295.7,135.6 294.9,135.8 293.7,138.6 293.5,140.1 
	291.4,142.3 290.4,142.3 288.8,142.9 288.2,143.7 288.8,143.6 288.4,144.2 288.9,144.5 290.2,144.1 289.7,144.9 288.8,145.4 
	288.6,145.6 288.7,146 289.5,148 289,149 288.2,148.6 288.1,147.1 287.8,146.1 287.6,146.1 287.7,145.9 287.1,146 286.5,146.9 
	286.9,149.5 286.3,149.8 285.2,148.9 284.2,147.2 283.6,147.1 282.7,146.8 282,147.7 281.9,149.1 280.4,150.4 279.9,151.5 
	278.3,153.1 277.9,154.1 276.5,155.9 274.9,157.2 270.3,158.3 269.8,158.5 270.1,160 270.6,160.7 269.9,160.4 269.1,160.8 
	267.7,161 267.1,161.7 266.7,162.9 266.7,164.6 265.7,166 265.7,166.4 263.5,166.1 261.1,165.3 259.4,165.3 258.8,164.4 
	257.8,163.3 257.4,163.4 258.6,165.5 "/>
<polygon class="st0" points="268,160.2 268.2,160.7 268.8,160.4 268.2,159.9 "/>
<polygon class="st0" points="267,161.1 268,160.7 267.7,160.2 "/>
<polygon class="st0" points="284.2,147.2 285.2,148.9 286.3,149.8 286.9,149.5 286.5,146.9 287.1,146 287.7,145.9 287.7,145.5 
	287.6,144.3 286.5,144.7 285.1,145.8 283,146.4 282.7,146.8 283.6,147.1 "/>
<polygon class="st0" points="288.2,148.6 289,149 289.5,148 288.7,146 288.6,145.6 288.3,146 287.8,146.1 288.1,147.1 "/>
<polygon class="st0" points="228,110.3 228.7,108.6 229.9,108.6 230.5,109 233.2,108.3 234.3,109 234.6,109.8 236.4,109.6 
	235.9,108.4 236.1,107.7 235,106.6 233.8,106.2 233.5,104.2 234.7,103.3 236.8,103.4 237.4,102.3 239,101.2 240.6,100.8 240.9,100 
	241.8,99.7 242.6,98 242.4,96.6 242.8,95.1 242.3,94 242.6,92.2 241.6,89.9 240.6,89.3 239.9,87.6 239,87.6 237.9,86.8 237,86.6 
	236.5,85.7 234.5,86.1 233.5,87.1 234.8,88.3 234.5,89.4 234.9,90.5 234.8,91.2 233.1,90.6 232,88.9 230.4,88.8 229.9,88.1 
	228.5,87.1 227.8,87.4 226.8,86.6 225.2,86.8 223.9,86.5 222.7,86.5 221.1,87.1 220.6,86.6 218.9,86.6 216.2,87.4 215.1,87.4 
	213.9,89.1 213.5,90.8 212.6,92.1 212.5,94.4 213,96.6 213.9,97.2 214.5,98.3 214.4,100.4 214.2,101.3 214.2,101.3 215,102.2 
	215,103.3 215.8,104 215.8,105.1 216.7,106.2 217.1,106 217.5,106.9 217.5,107.8 217.8,108.5 218,109.3 218.9,109.4 219.6,109.3 
	219.6,108.3 220.3,107.7 220.8,107.4 220.8,108.1 221.2,109 221.1,109.7 220.4,110.6 220.8,111.1 220.9,111.5 221.5,111.6 
	222.5,110.7 222.6,110.4 223.2,110.9 224.3,111.2 224.7,111 225.7,111.8 226.8,110.5 "/>
<polygon class="st0" points="197.2,50.6 198.4,51.9 198.7,53.9 197.7,54.6 198.6,56 199.5,56.3 200.5,55.5 202.6,55.6 202.6,56.5 
	202,57.9 202.6,59 202.6,59.9 201.9,60.8 202.4,62.2 202.4,64.2 202.5,67.2 204.1,66.4 205.5,66 205.7,64.9 207.5,64 209.4,65 
	210.6,64.9 211.6,66.2 214,65.9 215.2,63.4 217.1,63 219.7,63.6 220.5,65.3 223,67.1 224.4,68.1 225,69.4 224.8,70.4 224.4,71.1 
	225,72.4 224.9,74 224.6,74.9 225.7,75.7 226.9,77 228,77.1 229,77.5 228.6,78.1 230,79.1 230.3,79.8 229.9,81.1 230,81.9 229.6,83 
	230,83.9 229.9,85.9 229.2,86.8 228.5,87.1 229.9,88.1 230.4,88.8 232,88.9 233.1,90.6 234.8,91.2 234.9,90.5 234.5,89.4 
	234.8,88.3 233.5,87.1 234.5,86.1 236.5,85.7 237,86.6 237.9,86.8 239,87.6 239.9,87.6 240.1,87.6 241.1,86.9 241,85.2 240.6,84.4 
	240.3,82.9 241.9,81.6 241.9,80.3 241.1,80.1 240.6,79.5 240.8,77.9 241.6,77.1 241.2,76.2 240.1,76.7 239.5,76.5 238.8,75.6 
	237.5,75.5 237.1,74.9 237.3,74 236.4,73.6 235.9,73.8 235.2,73 235,72 234.4,70.9 233,70.9 232.2,70.6 231.7,69.2 229.9,67.2 
	230,66.3 228.9,64.7 227.2,63.9 225.8,61.9 224.6,61.8 222.9,60.9 221.1,60.8 220.3,59.3 219.4,59.3 219.1,58.5 220,57.6 
	218.8,56.3 218.6,55.3 219.5,55.3 221.1,54.7 222.2,54.5 222.8,53.9 223.5,51.6 224.3,51.3 224.3,50.5 222.7,50.1 222.7,49.1 
	222.5,48 221,47.7 220.2,46.6 218.6,46.6 217.3,47.4 215.9,47 213.5,47 212.3,45 210.3,43.2 210.8,42.2 210.5,41 209.5,40.1 
	208.6,38.6 206.6,37.8 206.2,37 204,37.1 204,37.9 203.2,38.4 203.3,40.4 203.7,41.6 203.8,42.9 204.1,44.4 203.1,44.2 201.6,44.6 
	201.1,43.7 200.4,43.1 199.3,44.1 197.7,44.4 197.6,45.5 197,46.4 197.5,47.2 196.3,48.1 195.7,48.1 195.1,49.6 195.7,51 "/>
<polygon class="st0" points="174.1,76 174.9,76 176.2,75.3 175.2,75 175.3,74.6 174.9,73.7 175.3,73.7 175.9,74.5 176.9,74.7 
	178.4,73.5 178.2,72.8 178.7,72.2 178.8,71.1 178.2,70.6 178.2,69.9 178.5,69.5 177.8,68.8 178.8,69.4 178.8,70.1 179.4,70.1 
	179.6,70.7 180.8,72.9 181.2,73.5 181.5,74.9 182.5,74.9 183.3,74.6 183.7,73.9 183.7,74.6 183.4,75.1 184.1,76.5 184.1,77.1 
	183.6,77.3 183.9,78.4 184.5,78.9 185,83.2 185.4,83.2 185.5,85.2 186.9,86 186.5,86.5 186.6,87.6 187.4,88.6 187.3,91.2 
	187.8,92.2 187.8,93.2 188.1,93 188.3,91.1 189.2,92.5 189.4,93.7 190.2,94.4 190.6,98 191.2,98.4 191.5,99.4 191.1,100 
	191.2,101.5 191.7,102.3 192.6,103.2 191.8,103.8 192.3,105.4 192,106.1 191.7,106.3 191.5,107.8 191.8,108.1 191.8,109 
	191.1,110.2 190.7,110.6 190.2,110.4 190.3,111 190.7,111.7 190.7,113.3 191.3,115.1 191.4,113.4 191.9,112.2 191.9,112.4 
	192.2,111.6 192.8,110.6 192.9,109.2 194.2,108.3 195.5,104.6 196.2,104.2 196.3,102.3 195.5,101 195.6,99.4 195.1,98.3 194.9,96.6 
	194.2,95.9 194.3,94.7 194.1,93.6 194.5,92.6 193.8,90.2 192.2,88.6 190.4,87.3 189,85.4 188.9,84.4 188.1,82.4 189.3,81.7 
	189.5,80.8 188.8,77.9 189.2,77 190.3,76.4 190.2,75.3 189,74.7 188.8,73.5 188.1,72 187.2,71.6 185.8,68.6 184.3,67.6 184,66.7 
	183.2,66 182.2,64.3 181.4,64 181.2,63.1 182.7,62.5 183.8,61.7 183.4,60.8 183.4,59.1 184.2,58.3 183.9,56.3 184.8,55.1 187,55.9 
	188.3,54.8 189.6,54.9 190,54.3 190,52.8 190.7,52.2 192.2,52.4 192.6,51.7 192,50.9 192,50.3 193.3,49.8 195,49.7 195.1,49.6 
	195.7,48.1 196.3,48.1 197.5,47.2 197,46.4 197.6,45.5 197.7,44.4 199.3,44.1 200.9,42.7 201,41.6 199.9,41.2 197.3,42.4 196,42.4 
	195.2,43.1 193.9,42.4 193.5,41.4 193.8,39.8 193.1,38.8 192.2,39.6 191.9,39.3 190.1,39 189.2,39.5 189,38.7 190.1,37.6 
	191.4,35.7 191.4,34.9 191.9,33.9 191.9,33 190.7,32.3 189.1,32.5 188.9,33 188.4,32.2 188.7,31.7 187.2,31.3 186.5,30.4 
	186.9,29.4 186.6,28.4 185.1,28.8 184.4,28.2 184.8,27.5 184.6,26.6 181.9,27.2 180.6,28.1 180,26.8 180.2,25.5 179.4,24.7 179,24 
	178,23.5 178,22.6 178.5,21.7 178,21 178.5,20 179.3,19.2 180,19.4 180.5,18.8 180,17.7 180.3,16.9 180.8,16.7 181,15.6 182,15.1 
	182.3,14.4 182.3,13.3 182.6,10.8 182.5,9.1 181.5,7.1 181.5,5.4 180.5,4.2 179.5,4.3 179.2,2.5 178,1.7 177.3,0.1 176,0.1 
	175.1,0.6 173.8,0 172.8,0.5 173.1,0.7 173.2,1.6 172.1,2.7 172.1,4.2 172.4,5.1 171.2,4.6 170.3,3.9 168.7,5 166.8,5.6 166.2,7 
	164.9,8.7 163.6,9.1 161.7,12.1 161.4,13.5 162,14.2 161.2,16.5 159.6,19.1 159.6,20 161,20.6 159.8,23.7 159.2,26.1 158.3,28.3 
	156.8,28.3 155.8,28 154.6,27.9 155.3,30.7 155.2,32.2 155.1,34.3 153.9,34.1 154.1,35.7 153.9,37.1 154.2,38.2 153.5,40.1 
	152.9,40.5 152.4,40.2 152.1,41.3 152.1,41.9 152.1,43.3 151.5,44.7 151.1,44.4 149.9,45.8 149.8,46.9 149.8,47.2 149.9,47.2 
	150.4,48.4 150.9,49.9 153.4,52.2 152.9,51.2 152.9,50.7 153.8,51.4 154.9,51.3 154,52.4 154.1,52.8 155.1,52.7 155.3,52 
	155.5,52.7 156.5,52.9 157,53.6 158.8,54 159.9,55.6 160,56.6 159.3,56.8 158.6,56.2 157.7,56.7 158.6,57.5 158.9,57.7 158.6,58 
	157.7,57.6 157.3,56.7 156.3,56.7 156.4,57.3 157.5,58.2 157.6,58.9 158.6,60.1 160.7,60.7 160.4,58.7 160,57.7 161.4,58.6 
	161.4,59.6 161.8,60.5 162.4,61.4 162.9,63.1 163.7,63.7 163.4,63.9 163.7,64.5 164.3,64.8 164.4,67.1 165.4,69.6 166,70.1 
	164.6,70.9 163.7,76.6 164.1,77.9 163.9,78.3 164,78.8 164.9,77.4 166.1,76.4 166.8,74.7 166.7,76.5 165.2,78 165.2,79.5 
	165.8,79.5 166,78.7 167.6,77.9 168.2,78.7 168.8,78.6 168.9,78 169,78.3 169.6,78.3 169.8,78.1 170.9,78.2 173.2,76.6 173.5,75.6 
	"/>
<polygon class="st0" points="157.3,61.2 157.6,62 158.8,62.7 159.1,61.7 158.1,60.8 "/>
<polygon class="st0" points="578.8,305.4 578.6,304.7 577.9,304.7 577.8,305.5 577.1,306.4 578.2,306.4 "/>
<polygon class="st0" points="581,309.1 582.4,309.8 582.8,309.3 581.8,308.4 582.1,307.5 582.1,306.4 581.6,306.2 580.5,306.9 
	580.7,307.4 580.5,308.1 "/>
<polygon class="st0" points="564.2,304.7 565.8,307.8 567,308.5 567,309.5 567.6,310.5 568.4,310.5 568.6,311.3 570.1,312.5 
	570.7,314.2 571.3,313.9 571.9,313.9 572.4,315.5 573.8,315.7 574,316.9 575.1,317.7 576.3,317.2 577.3,318.2 577.8,317.9 
	578.8,318.5 578.7,316.7 577.8,316.5 575.8,315 574.4,312.5 573.4,311.8 572.6,312.1 571.7,310 569.3,307 568.8,306.8 568.1,305.7 
	566.6,304.7 566.4,303.8 565.7,303 565.3,303.9 563.7,301.8 563.5,302.9 564.1,303.5 "/>
<polygon class="st0" points="586.3,313.4 586.3,312.2 585.5,311.6 584,311.8 584.1,313 585.1,314 585.7,313.4 "/>
<polygon class="st0" points="0.3,526.7 0,527 0.2,527.8 0.3,528.4 1.2,528.4 1.6,528.9 2.1,528.9 1,527.2 "/>
<polygon class="st0" points="408.7,261.4 409.6,261 411.2,261.3 411.5,260.4 411.1,260.2 410.6,260.3 410.3,260 411.3,259.1 
	411.2,258.8 410.2,259.1 410.2,258.2 409.6,258.5 409.4,259 408.5,259 408.7,259.3 408.5,259.5 408.9,260.8 408.3,261.3 "/>
<polygon class="st0" points="409.7,243.2 410.5,243.5 410.7,242.6 411.7,241.7 411.2,241.2 410,242.4 "/>
<polygon class="st0" points="409.1,244.5 409,243.8 408.5,244.1 "/>
<polygon class="st0" points="408.3,244.5 407.6,244.5 407.9,245 "/>
<polygon class="st0" points="442.8,238.4 442.8,239.8 443.3,239.5 443.9,239.4 443.5,238.5 "/>
<polygon class="st0" points="406.2,245.1 405.5,245.6 406.2,245.7 "/>
<polygon class="st0" points="496.9,332.7 496.6,333.6 496.9,334.4 496.3,335.6 495.3,336.8 495.1,337.8 494.9,339 495.5,340.7 
	496.1,340.9 495.8,339.8 496.1,337.5 497.4,335.7 497.6,334.1 497.4,332.8 "/>
<polygon class="st0" points="403.9,246.6 404,247.3 404.7,246.7 405.6,246.6 406,246 405,246 "/>
<polygon class="st0" points="402.7,248.1 403.7,247.6 403.6,247.3 402.2,247.7 "/>
<polygon class="st0" points="386.9,241.9 387.6,243.1 387.7,242 388,240.9 387.1,241.1 "/>
<polygon class="st0" points="494.9,355.1 495.6,354.3 495.3,353 "/>
<polygon class="st0" points="342.8,263.1 342.9,262.4 342.4,262.4 342.1,263 "/>
<polygon class="st0" points="443.6,235.4 443.9,236.2 444.4,235.5 "/>
<polygon class="st0" points="406.9,259.1 407.2,258.9 407.4,259.4 408.1,258.7 407.5,257.9 406.8,258.5 "/>
<polygon class="st0" points="378.3,246.6 380.3,244.6 380.8,244.7 380.9,244.1 381.4,243.6 380.9,243.2 380.6,242.5 380.1,242.5 
	379.4,242.8 377.8,242.9 377.2,243.7 376.5,243.3 376.4,242.9 375.7,242.8 375,242.1 374.6,242.1 374.8,242.5 375,243.8 
	375.9,244.9 376.7,246 "/>
<polygon class="st0" points="374.7,245.2 376,245.5 375.9,245.2 374.9,244.8 374.4,242.8 373.6,243.2 373.8,243.3 373.7,244 
	374,244.1 374,244.4 373.4,244.2 373.1,244.3 373,244.9 374.2,245.3 "/>
<polygon class="st0" points="601.1,441.3 601.6,441.4 601.6,440.8 600.8,440.9 "/>
<polygon class="st0" points="527.3,519.1 527.8,519 527.8,518.4 526.8,518.3 526.6,518.7 526.8,518.8 "/>
<polygon class="st0" points="584.2,478.6 583.9,478.6 583.8,477.9 583,477.7 582.3,479.1 582.6,479.3 583.1,479.5 582,480.2 
	581.5,479.6 581.6,479 581.1,479 580.4,478.8 579.7,479.3 578.9,480.3 578.1,480 577.6,478.3 578.1,478 578.6,477.3 578.8,476.7 
	578.5,476.6 578.6,476.1 578.2,475.8 577.6,476.2 577.2,476 576.7,475.4 576.9,474.7 577.6,473.7 576.6,473.6 575.1,474.6 
	574.3,474.9 573.3,475.7 573.1,477.2 572.1,479.8 571,481.2 570.5,481.4 569.2,483 568.8,483.8 567.9,484.2 566.7,484.1 
	565.8,484.8 565.4,485.8 565.4,487 564.8,487.3 563.8,488.3 563.8,489.6 563.3,490.3 563.1,491.2 561.1,493.6 558.7,495.3 
	557.5,495.4 556.1,496.2 555.9,497 555,497 552.9,498.1 551,499.8 549.9,500.1 547.9,501.3 547.7,502 548.1,502.9 548.2,504 
	547.2,503.1 546.8,502.9 545.8,503.2 544.8,503.5 544.3,503.1 543.5,503.1 541.7,504.7 541,505.5 539.6,506.7 538.7,506.9 
	537.7,508.2 537.5,509.5 537.3,508.8 536.8,508.4 536.1,509.1 535.4,509.5 535.4,510.9 534.9,511.5 534.4,511.1 532.7,513 
	532.2,513 531.7,513.7 531.6,515.7 531.2,516.2 530.7,515.2 530.3,515 529.9,515.7 529.5,516 528.5,517.6 528.5,518.3 529.4,519.2 
	529.8,519.7 529.4,520.1 528.5,520.1 527.3,520.2 525.9,521.7 526.6,521.8 527.2,522 526.5,522.3 526.4,523.4 527.2,524.3 
	527.7,524.5 529.1,524.6 529.3,525 529.7,525 529.8,524.4 530.4,524.3 531.3,524.7 531.7,525.6 531.4,526 532,526.5 532.9,526.5 
	533.3,527 533.4,528.1 534.5,529 535.3,529.6 534.2,530.2 534.8,530.4 536.3,529.6 536.3,530.2 537.2,530.5 538.6,530.3 
	540.6,529.5 542.3,528.1 543.3,527.6 543.4,527 543.2,526.1 543.9,526.7 543.7,527.4 545,526.9 545.4,525.6 546.1,524.5 
	547.8,523.8 549.3,523.8 549.8,523.5 549.7,523.1 548.7,523.3 549.3,523 549.5,522.6 549.3,522.4 550.5,521 551.4,519.3 
	551.8,517.6 552.6,516.7 555.1,514.9 555.7,513.9 555.9,512.7 557,510.8 557.7,509.9 557.7,508.9 558.7,507.8 559.6,507.3 
	559.8,506.3 560.6,506.9 561.3,506.9 561.6,506.1 562.6,506 563.2,505.9 563.9,504.9 563.8,504 563,503.2 564,503.6 564.4,504.8 
	564.8,504.9 565.5,504.7 565.6,504.2 566.3,503.6 567.1,503.9 567.1,504.4 566.1,504.8 567.3,504.9 568.1,505.2 568.5,504.6 
	568.4,503.8 568.7,503.5 569.1,503.7 568.9,504.9 569.3,505.2 569.9,504.8 570,503.2 569.5,502.5 568.7,502.3 569.1,501.8 
	568.9,500.5 569.4,498.6 570.2,498.3 571.8,497.8 573.5,496.7 573.7,496.1 575,494.5 575.2,493.5 576.4,492.2 577.3,492.3 
	577.1,491.8 579.2,489.8 579.3,489.1 582.3,486.5 583.4,485.9 582.8,485.7 582.7,484.6 582.2,483.5 582.3,482.5 582.6,481.5 
	582.9,481.6 584,480.1 583.1,480.4 582.3,480.5 583.5,479.8 "/>
<polygon class="st0" points="617,449.5 616.5,448.9 616.9,448.7 617,448.4 615.7,448.2 614.5,448.9 612.4,451.1 611,451.3 
	610.3,451.6 609.2,451.2 606.9,448.8 606.2,448.9 605.3,447.7 605,446.9 605.6,446.2 605.8,445 604.9,443.2 604.9,442.3 
	604.5,441.6 604.7,440.5 605,439.7 604.4,439.6 604.2,438.3 603.9,437.6 603.5,437.9 602.6,437.4 602.3,437.8 603.1,438.7 
	603.1,439.8 603.3,440.2 602.4,441 602.4,441.8 603.2,442.8 603.2,443.4 602.3,443.7 601.6,443 601.5,442 600.3,441.8 600.3,441.3 
	599.4,440.9 598.7,441 598.6,440.4 599.5,439.9 599.8,439.2 598.9,438.4 599.6,437.1 600.4,436.9 600.7,435.8 600.3,434.9 
	600.6,434.3 600.2,433.3 600.3,432 599.1,431.2 599.2,430.6 599.9,431 600.9,430.8 601.1,429.5 601.5,429.1 601.5,427.5 601.1,426 
	601.2,425.1 600.7,425.3 599.4,425.8 598.3,424.8 598.9,424.3 598.3,423.7 597.9,423.6 598.3,422.9 599.2,422.5 599,421.9 
	598,421.7 597.2,421 596.5,421.3 596.4,420.3 596.8,420.3 597.2,419.6 596.6,419.5 596,420 596.1,420.6 595.6,421.4 594.8,421 
	595.1,420.1 594.7,419.4 594.4,417.9 594.5,416.9 594.5,416.5 594.8,416.4 594.2,415.8 593.7,416.2 592.1,416.1 592.1,416.5 
	592.8,417.3 594,420.3 594.2,421.3 594,423.2 593.6,423.7 593.2,423.7 592.9,424 593.6,426.4 593.9,426.7 594.8,426.1 596,426.1 
	595.2,426.4 594.4,427.3 594.7,428.7 595.4,430.3 595.6,433.2 595.6,435 595.6,436.2 596.2,435.9 596.5,434.9 596.2,434.2 
	596.6,433.9 597,434.5 597,435.5 597.6,435.4 597.7,434.9 597.6,434.6 597.9,434.5 598,435.3 597.4,436.4 597.1,437.3 597,437.9 
	596.6,438 596.2,437.3 595.7,437.3 595.9,439.1 596.7,441.3 597.2,441.4 597.6,441.2 598,442 598.1,442.5 598.6,442.9 597.5,443.7 
	597.5,444.1 597.9,444.5 597.5,445.3 596.8,447.3 596.9,448.3 596.6,448.6 597.1,449.2 596.9,449.7 596.1,449.7 595.6,450.6 
	595.6,451.2 596.2,451.8 595.6,452.2 594.9,452.2 594.4,453.5 593.6,457.6 593.5,458.5 592.7,459.1 591.8,459.2 590.9,458.8 
	589.8,459 587.6,460 586.6,461.1 586.3,462.4 586.5,464.2 587.5,465.1 589.2,466.1 590,467.5 591.5,468 592.1,468.7 592.4,471.2 
	592.5,471.4 592.2,471.7 592.2,473 591.7,474.1 589.4,477 587.8,478.7 586.1,480.2 585.5,480.9 585.7,481.5 586.8,481.8 
	587.1,481.1 587.6,481.2 587.6,482 587.5,482.6 587.8,482.7 588.3,482.6 588.6,483 588.6,483.9 588.8,484.2 589.7,484.1 
	591.8,482.6 593.6,481.1 595.3,479.3 596.9,477.5 598.9,475 599.9,474.4 600.6,474.3 601.1,473.7 601.2,472.8 601.6,472.2 
	602.8,471.7 603.5,469.5 604.7,467.8 604.7,467.3 605.3,466.7 604.4,465.9 603.4,465.7 602.7,465.8 603.5,465.2 604.2,465 
	606.7,462.2 607.9,461.8 609.7,462.1 610.7,462.2 610.5,462.9 610.6,463.7 611.6,462.8 612.3,462.4 610.9,461.9 611.1,460.7 
	611.8,458.9 612.4,458.2 613.4,458.3 613.6,458.7 614.1,458.2 614.7,457.3 616.2,454.9 616.2,454.1 616.2,453.3 616.6,451.9 
	617.5,450.9 618.5,450.3 618.3,450 "/>
<polygon class="st0" points="534,531.8 534.1,531.3 533.5,531.7 "/>
<polygon class="st0" points="531.3,531.8 531.9,531.7 532,531.5 531.8,531.1 531.3,529.9 530.3,528.9 529.3,529.2 529.1,529.9 
	529.2,531.1 528.9,532.1 528,532.3 528,533 527.6,533.3 526.5,534.4 526.6,534.9 527.2,535 528,534 528.4,533.9 528.7,534.1 
	529.3,534.2 529.9,533.7 531.2,533.3 531.6,533.5 531.9,533 531.8,532.6 531.3,532.3 530.9,531.9 530.5,531.8 531,531.6 "/>
<polygon class="st0" points="583.3,476.1 583.5,475.6 582.6,475.4 582,476.2 581.9,477.1 581.8,477.4 582.1,477.3 582.6,476.6 "/>
<polygon class="st0" points="582.5,477.9 582,478.1 581.6,478.6 582.1,478.6 "/>
<polygon class="st0" points="581.8,478.1 581.8,477.8 580.6,478.3 581.3,478.3 "/>
<polygon class="st0" points="604.6,436.3 604.4,435.7 604.8,435.5 604.4,435 604.3,434.1 603.7,435.6 604.3,436.4 "/>
<polygon class="st0" points="602.6,435.4 602.2,435.6 602.4,436 "/>
<polygon class="st0" points="212.1,139.2 211.3,139.7 210.5,139.1 209.5,139.2 208.2,140.3 206.7,140 206.7,139.1 207.4,138.3 
	207.6,136.6 206.8,135.9 205.6,135.9 205.3,135.2 203.7,134.8 202.7,133.8 201.9,134.8 201.6,136.1 202.7,138 203.3,142.8 
	204,144.3 204.7,145.8 204.5,147.6 204.1,147.9 204.3,149.2 205.1,150 204.8,150.6 205.5,151.6 207.1,152.5 208.1,154 209.1,154.6 
	209.8,155.7 209,156.5 208.8,157.3 209.5,158 211.6,158.8 213.4,160.2 213.2,161.2 214.6,162.7 215.5,162.7 216.3,162.5 216.9,163 
	217.8,164 219.5,164.9 221.4,165.3 222.1,166.1 223.2,166.7 223.6,166.3 224,166.9 225.2,166.2 225.2,165.9 224.6,165.8 225,165.7 
	225.1,165.1 224.7,164.6 225.4,165.1 225.3,165.7 225.5,166.2 226.4,166.3 226.4,164.9 225.2,162.5 224.8,162.3 224.9,162 
	224.6,161.6 224.2,161.2 224,159.5 224.2,159.1 223.9,158.6 223,158.5 221.7,157.4 220.9,155.9 220.9,153 220.5,152.2 220.5,151.2 
	220.8,150.7 220.6,147.9 221.1,147.3 220.5,144.9 219.3,142.9 215.1,138.7 214.2,137.1 213.7,137.2 213.2,137.8 212.4,137.9 
	212.4,137.8 212.1,138.1 "/>
<polygon class="st0" points="201.3,141 201.6,142.2 202.2,143.1 202.6,142.8 202.4,142 201.8,141.2 "/>
<polygon class="st0" points="223,114.6 223.6,114.3 223.9,112.5 223.5,112.4 223.2,111.6 222.1,112.2 222.7,113 222.5,113.6 "/>
<polygon class="st0" points="238.9,41.7 238.4,41.3 237.2,41.7 236,41.1 234.9,40.6 234.6,39.8 232.3,39 231.9,37.8 231.3,37.5 
	231.9,35.4 232.7,35.3 232.9,34.2 231.9,33.4 230.4,34 229.9,33.4 227.3,33.5 226.8,32.7 225.5,32.5 225.5,31.7 224.3,30.7 
	223.5,31.5 222.1,31.5 220.8,32.2 220.9,34 219,34.6 217.9,34 216.5,34.4 216.2,35.3 215,35.9 214.7,35 214,35 213.4,35.8 
	212.3,34.7 211.4,35.3 211.2,36.4 210.4,36.4 209.9,36 210,35.1 209.2,35 208,35.5 207.4,36.1 207.1,36.6 206.6,36.7 206.2,37.1 
	206.6,37.8 208.6,38.6 209.5,40.1 210.5,41 210.8,42.2 210.3,43.2 212.3,45 213.5,47 215.9,47 217.3,47.4 218.6,46.6 220.2,46.6 
	221,47.7 222.5,48 222.7,49.1 222.7,50.1 224.3,50.5 224.3,51.3 223.5,51.6 222.8,53.9 222.2,54.5 221.1,54.7 219.5,55.3 
	218.6,55.3 218.8,56.3 220,57.6 219.1,58.5 219.4,59.3 220.3,59.3 221.1,60.8 222.9,60.9 224.6,61.8 225.8,61.9 227.2,63.9 
	228.9,64.7 230,66.3 229.9,67.2 231.7,69.2 232.2,70.6 233,70.9 234.4,70.9 235,72 235.2,73 235.9,73.8 236.4,73.6 237.3,74 
	237.1,74.9 237.5,75.5 238.8,75.6 239.5,76.5 240.1,76.7 241.2,76.2 241.6,77.1 240.8,77.9 240.6,79.5 241.1,80.1 241.9,80.3 
	241.9,81.6 240.3,82.9 240.6,84.4 241,85.2 241.1,86.9 240.1,87.6 239.9,87.6 240.6,89.3 241.6,89.9 242.6,92.2 242.3,94 
	242.8,95.1 242.4,96.6 242.6,98 241.8,99.7 240.9,100 240.6,100.8 239,101.2 237.4,102.3 236.8,103.4 234.7,103.3 233.5,104.2 
	233.8,106.2 235,106.6 236.1,107.7 235.9,108.4 236.4,109.6 234.6,109.8 234.3,109 233.2,108.3 230.5,109 229.9,108.6 228.7,108.6 
	228,110.3 226.8,110.5 225.7,111.8 226,112 226,112.9 225.9,113.2 227,113.5 227.5,113.3 228.1,113.7 228.9,113.4 230.1,113.6 
	231,113.2 230.5,113.8 228.9,115 228,116.4 228.1,118.2 227.9,119 228.3,119.1 228.1,119.3 228,121 228.8,121.4 229.4,121.2 
	228.8,121.9 227.8,122.3 226.9,122.9 228.3,123.1 230.8,121.9 230.7,121.6 231,121.7 231.7,121 231.9,119.8 232.1,119.2 
	232.9,119.3 233.4,118.9 234.5,118 235.1,117.9 235.4,117.5 235.8,117.2 235.6,116.8 235.6,116.5 235.3,115.7 236,115.6 
	236.4,116.3 236.9,116.4 237.4,115.8 237.5,115.2 236.5,114.1 237.7,115 238.6,114.6 238.1,113.7 238.5,113.2 236.9,112.4 
	237.9,112.6 238.2,112.4 238.2,112 237.5,111.4 238.5,111.7 238.7,111.4 238.9,110.7 239,111.4 238.8,112.2 239,112.4 240.1,112.1 
	240.8,112.4 242.3,112.3 244.8,110.8 245.4,110.1 246.5,110.1 246.6,109.1 247.8,108.3 248.6,107.8 249.9,106.5 250.5,106.3 
	250.7,104.8 251.3,104.6 252.1,103.9 251.7,103.4 252.1,102.4 251.3,101.2 252.3,100.5 252.3,99.8 252.9,99.4 253,98.9 252.5,98.3 
	252.4,97.4 252.9,97.1 253.2,97.6 253.3,98 253.5,98 253.6,97.2 253,95.8 252.7,95 252.2,94.8 252.1,94.2 251.7,92.8 252,92.4 
	251.6,91.4 251.8,90.7 251.8,89.7 251.4,89.4 251,87.5 250.5,87.2 250.3,85.1 249.3,83.8 249.5,83.4 249.2,82.9 249.2,82.3 
	247.9,80.9 247.9,80.1 247.6,80.1 247.4,79.2 246.6,77.8 244,75.8 243.4,74.8 240.6,72.7 237.5,71 237.4,70.6 236.2,69.9 
	233.9,68.1 233.7,67.4 233.2,66.1 233.4,65.7 233.4,65 232.7,63.7 232.1,63.7 230.6,62.3 228.9,61.3 227.9,61 228.8,60.7 229,60.1 
	227.8,59.1 228.4,58.1 229,56.2 228.5,55.6 228.1,55.5 228.2,54.5 228.6,54.1 229,53.1 229.5,52.7 229.5,52.2 229.8,52.6 
	230.5,52.6 231.4,51.2 231.8,51.1 232.1,50.6 231.8,49.9 232,49.7 231.9,48.8 232.1,47.9 231.8,47.6 232.2,47 232.3,46.2 
	232.7,46.3 233,46.8 233.4,46.7 234,46.2 234.8,46 235.4,46.3 235.6,45.9 236.2,45.5 235.9,44.7 236.2,44.2 237.3,44 238.3,44 
	239.3,43.4 239.7,43.4 240.3,43.2 240.7,42.5 240.5,42.1 240.5,42.1 240.5,42.1 240.6,42.1 240.6,42.1 239.6,41.5 "/>
<polygon class="st0" points="200.5,118.6 200.7,117.4 200.4,116.6 199.6,117.1 199.6,117.9 "/>
<polygon class="st0" points="199.1,115.7 199.8,116 200.1,115.3 "/>
<polygon class="st0" points="198.2,134.4 198.6,135.3 199.1,135.2 198.9,134.5 198.5,134.3 "/>
<polygon class="st0" points="194.8,130 195,129.4 194.9,128.9 194.6,128.8 "/>
<polygon class="st0" points="211.5,102.1 212.3,102.8 212.9,102.7 211.4,101.2 "/>
<polygon class="st0" points="214.5,98.3 213.9,97.2 213,96.6 212.5,94.4 212.6,92.1 213.5,90.8 213.9,89.1 215.1,87.4 216.2,87.4 
	218.9,86.6 220.6,86.6 221.1,87.1 222.7,86.5 223.9,86.5 225.2,86.8 226.8,86.6 227.8,87.4 229.2,86.8 229.9,85.9 230,83.9 
	229.6,83 230,81.9 229.9,81.1 230.3,79.8 230,79.1 228.6,78.1 229,77.5 228,77.1 226.9,77 225.7,75.7 224.6,74.9 224.9,74 225,72.4 
	224.4,71.1 224.8,70.4 225,69.4 224.4,68.1 223,67.1 220.5,65.3 219.7,63.6 217.1,63 215.2,63.4 214,65.9 211.6,66.2 210.6,64.9 
	209.4,65 207.5,64 205.7,64.9 205.5,66 204.1,66.4 202.5,67.2 202.4,64.2 202.4,62.2 201.9,60.8 202.6,59.9 202.6,59 202,57.9 
	202.6,56.5 202.6,55.6 200.5,55.5 199.5,56.3 198.6,56 197.7,54.6 198.7,53.9 198.4,51.9 197.2,50.6 195.7,51 195.1,49.6 195,49.7 
	193.3,49.8 192,50.3 192,50.9 192.6,51.7 192.2,52.4 190.7,52.2 190,52.8 190,54.3 189.6,54.9 188.3,54.8 187,55.9 184.8,55.1 
	183.9,56.3 184.2,58.3 183.4,59.1 183.4,60.8 183.8,61.7 182.7,62.5 181.2,63.1 181.4,64 182.2,64.3 183.2,66 184,66.7 184.3,67.6 
	185.8,68.6 187.2,71.6 188.1,72 188.8,73.5 189,74.7 190.2,75.3 190.3,76.4 189.2,77 188.8,77.9 189.5,80.8 189.3,81.7 188.1,82.4 
	188.9,84.4 189,85.4 190.4,87.3 192.2,88.6 193.8,90.2 194.5,92.6 194.1,93.6 194.3,94.7 194.2,95.9 194.9,96.6 195.1,98.3 
	195.6,99.4 195.5,101 196.3,102.3 196.2,104.2 195.5,104.6 194.2,108.3 192.9,109.2 192.8,110.6 192.2,111.6 191.9,112.4 
	191.7,114.3 192.3,114.4 191.6,115.5 191.9,116 191,117.1 191.7,117.3 191.3,118.1 190.6,118 190.7,120.2 189.9,120.6 190.1,122.2 
	189.9,122.8 190.2,124.7 190.7,125.5 191.4,125.6 191.4,124.5 192.5,124 192.4,124.5 193.1,125 193.1,125.9 194.1,126.1 
	194.8,128.1 195.6,128.1 196.9,129.9 196.9,130.7 198,130.8 198.4,131.8 199,131.9 199,132.5 198.5,133.1 198.6,133.5 201.1,135.3 
	201.6,136.1 201.9,134.8 202.7,133.8 203.7,134.8 205.3,135.2 205.6,135.9 206.8,135.9 207.6,136.6 207.4,138.3 206.7,139.1 
	206.7,140 208.2,140.3 209.5,139.2 210.5,139.1 211.3,139.7 212.1,139.2 212.1,138.1 212.4,137.8 212.3,137.3 211.2,136.6 
	210.6,135.8 209.8,134.1 208.8,133.7 207.6,133.6 207.1,133.9 206.5,133.4 204.8,131.8 204,131.1 203.9,130.1 203.6,129.9 
	203.4,130.7 201.7,130.1 201.9,129.3 202.8,128.7 203.1,129.1 203.3,128.6 203.5,128.3 203,126 202.5,125.7 202.5,124.7 
	201.8,123.7 201.5,122.9 201.4,123.3 201.5,124 200.8,124 200.3,122.7 199.6,122.5 199.8,121.2 199.2,120.6 199.1,119.4 
	198.6,118.9 197.7,118.7 197.5,118.5 196.9,119.1 196.7,119.6 196.1,119.8 195.8,119.4 196.3,118.3 195.2,116.6 195.2,115.9 
	194.9,114.7 194.8,114.1 195.4,113.4 195.2,113.2 194.6,113.1 195.2,111.9 195.2,110.7 196.5,108.9 196.8,104.6 197.6,103.3 
	197.8,102.2 198.7,101.1 198.8,99.5 198.4,99.2 198.6,98.5 198.6,97.2 199.2,96.2 199,95.2 198,94.7 198.3,93.9 198.3,93.6 
	198.7,93.8 199.3,93.8 199.7,93.3 200.1,93.7 200.8,93.6 201.7,93.2 202.1,93.5 202.4,93.4 202.6,93.6 203.6,93.8 203.9,94.5 
	203.6,94.9 203.5,96.4 204,97.3 203.7,97.7 203.4,98.6 204.2,98.5 205,98.8 206.2,98.5 207.4,98.8 207.9,99.2 208,99 207.9,98.7 
	208.6,98.1 209.4,98.5 210.9,99.9 211.6,100.3 211.6,100.8 212.1,100.8 213.2,101.8 213.4,102.1 213.6,102 213.7,101.2 214.2,101.3 
	214.4,100.4 "/>
<path class="st0" d="M191.2,127.3v-1.4c0,0-0.6-0.1-0.7,0l-0.2,0.7l0.2,0.5l-0.1,1.2L191.2,127.3z"/>
<polygon class="st0" points="348.9,108.1 348.5,108.2 348.7,108.6 349.2,108.5 "/>
<polygon class="st0" points="314.4,110.5 314.1,109.9 313.9,110.4 313.4,110.7 313.2,111.5 314,111.5 314.8,111.5 314.9,110.8 "/>
<polygon class="st0" points="346.4,118.8 346,118.9 346,120.4 345.7,121 345,120.4 343.7,119.9 343.1,122.1 343.6,122.5 
	343.5,123.4 342.8,123.7 342.2,122.4 341,122.9 340.4,124.9 339.1,125.6 337.9,125.9 336.9,126.9 338.1,125.1 338,123.1 
	336.5,121.9 335.6,121.9 334.9,122.9 333.6,123.5 333.1,124.6 333.6,125.5 331.9,125.8 330.9,125.5 330,126.3 328.9,126.6 
	327.9,127.9 328.3,128.7 327.9,130.4 327.1,132 328.3,133.3 328.8,132.5 329.7,130.1 330.3,129.5 331,128.1 331.6,127.8 
	332.4,128.5 332.1,129.7 332.5,130 333,129.8 333.5,130.1 333.6,129.1 334.1,128.7 334.6,128.9 334.3,129.6 335,129.6 335.9,130.2 
	336.3,130.3 335.7,129.4 336.1,128.9 335.8,128.4 336.3,127.9 336.8,127.9 337.9,128.9 338.9,129.1 340,130 340.2,130.9 
	341.1,131.8 340.1,131.5 339.7,131.7 339.7,132.3 339.2,133 339.8,133.6 339.9,134.5 339.6,135.2 340.4,136.3 340.6,137.3 
	341.7,138.5 343,138.5 344,139.4 345.2,139.9 346.1,139.4 346.3,138.7 346.9,138.3 347.2,138.8 346.8,139.5 347.2,140.5 347.5,141 
	348.3,140.4 349.9,138.4 350,137.2 349.5,136.4 348.8,134.9 347.8,134.2 348.1,133.2 349.5,130.8 350.3,130.3 351.1,131.5 
	351.3,132.6 351.9,133.5 351.8,134.5 352.4,136.3 352.8,137.1 352.8,136.3 352.9,135 352.5,133.3 352.7,132.6 353.4,132.5 
	353.8,133.3 353.7,132.6 354.2,132.6 354.8,131.1 354.6,129.2 353.9,128.1 353.3,127.2 353.3,125.9 353.1,124.6 352.7,125.2 
	352.7,123.9 352.8,123.1 352.3,123.1 351.6,122.3 351.8,121.7 352.6,121.8 352.6,120.3 351.8,119.1 351.8,118.2 351.1,118.9 
	349.9,117.8 348.4,116.5 348.1,115.5 347.7,115.6 346.8,115.4 346.8,116.7 347.3,118.9 347.2,119.8 "/>
<polygon class="st0" points="348.2,109.9 348.6,110.2 348.9,109.7 348.2,109.3 "/>
<polygon class="st0" points="313.4,104.1 313.8,103.5 314.3,103.2 313.9,102.4 312.7,102.1 312.6,102.7 312.9,104.1 "/>
<polygon class="st0" points="316.9,57.1 318,56.9 317.2,56.2 "/>
<polygon class="st0" points="327.7,103.1 326.6,102 325.4,102.3 325.2,103 326.4,103.5 326.9,103.6 326.9,104.7 326.7,105.8 
	326.7,107.8 326.3,109.1 326.7,111.1 327.3,110.9 327.6,110.4 328.9,109.6 329.6,109.6 329.8,109.2 330.4,109.2 330.9,108.5 
	332.2,107.3 332.8,106.1 333.4,105.6 333.6,104.7 333.1,103.8 332.4,104.3 331.6,105.2 331,104.1 330.2,103.9 328.9,104 
	328.3,103.9 328.5,103.5 "/>
<polygon class="st0" points="330.1,99.5 330.2,98.9 329.4,98.5 328.9,98.9 329,99.6 "/>
<polygon class="st0" points="347.5,112.6 348.2,114 348,114.7 348.2,115.2 348.7,115.3 349,114 348.2,113 348.2,112 348.6,111.7 
	348.3,111.1 347.7,111.3 "/>
<polygon class="st0" points="333,101.3 333.3,102 334.2,100.5 335,100.4 336.3,102 337.7,102.6 338.6,102.5 338.6,101.8 
	337.9,100.9 336.1,99.7 335.4,99.6 334.4,98.6 334,98.7 334.1,98.3 333.3,98.1 333.3,99.3 333.5,100.2 333,100.7 "/>
<polygon class="st0" points="326.7,97.6 326.2,98.7 325.5,99.7 326.1,101.2 326.8,101 327.3,99.5 326.9,98.5 327.2,97.2 "/>
<polygon class="st0" points="336.4,99.3 336.9,99.3 335.9,98.1 335.1,97.9 335.5,98.4 "/>
<polygon class="st0" points="330.9,110.6 330.9,109.9 330.5,109.6 329.5,109.9 329.2,111.1 329.9,111.6 "/>
<polygon class="st0" points="322.9,94.8 321.7,94.3 319.3,92.2 317.9,92.5 316.6,92 315.6,92.6 315.8,93.1 316.6,93.1 316.9,94.4 
	317.7,94.7 318.4,95.7 318.4,97.5 319.3,98 319.4,99.1 320.5,100.4 321.5,100.6 322.5,99.7 322.5,98.8 323,98.4 323,97.4 
	322.5,96.6 322.9,95.8 "/>
<polygon class="st0" points="338.5,106.7 337.9,107 337.5,109.1 336.5,110.8 336.3,112.1 335.8,113.8 335,114.9 334.9,116.1 
	335.2,117 336.1,116 336.5,113.6 338,111.8 338.3,110.7 338.2,109.6 338.6,108.9 "/>
<polygon class="st0" points="349.8,116.3 350.3,116.9 350.5,116.2 350,115.7 "/>
<polygon class="st0" points="329.5,116.8 330.2,116.9 331.6,117.7 332.7,117.8 332.8,119.1 333.6,119.6 334.7,119 334.7,117.9 
	334,116.5 333.8,114.2 334.5,111 335.6,109.9 335.6,108.9 334.7,108.3 334.2,108.6 333.4,108.2 332.5,108.8 332.5,109.9 331.9,111 
	332.1,112.5 331.4,113.8 329.6,114.3 329.1,115 "/>
<polygon class="st0" points="343.4,118.6 342.4,117.8 342.2,118.4 342.4,119.1 343.3,119.6 "/>
<polygon class="st0" points="335.5,119.1 336.2,119.7 337.1,119.3 337.2,118.6 336.9,118.3 335.8,118.5 "/>
<polygon class="st0" points="351.7,115.3 351.3,114.2 350.8,113.1 350.5,114.4 350.3,114.8 350.9,115.6 "/>
<polygon class="st0" points="300.4,125.1 300.2,124.3 299.8,124.7 "/>
<polygon class="st0" points="327.6,134.6 326.6,134.7 326.6,135.3 327.3,136.3 327.9,136.5 329.4,135.2 329.5,134.8 328.9,134.6 
	328.2,134.1 "/>
<polygon class="st0" points="297.5,126.1 297.5,126.8 298.2,127.9 298.7,127.9 298.8,126.5 298.9,126 298.6,125.7 "/>
<polygon class="st0" points="299.5,124.6 299.6,124.2 299,124.7 "/>
<polygon class="st0" points="320.6,62.4 319.8,61.8 318.8,60.8 316.6,60.3 315,60.9 314.7,62.2 313.6,64.5 313.9,65.9 314,68.3 
	313.3,71.2 312.8,72.5 313.7,74.4 313.7,75.2 312.8,75.6 311.8,75.5 311.1,74.5 310.9,75.9 311.2,77.2 311.8,77.2 312.1,77.6 
	311.6,78.4 312.1,80.1 312.9,81.7 313,83.7 313.5,84.1 313.9,83.8 314.3,83.9 314.4,85.1 315.5,86.5 316.2,86.6 316.9,85.7 
	316.3,85.1 316.3,84.3 317.6,84.5 318.6,85.2 317.3,86.8 316.7,87.6 316.8,88.2 316.7,89.6 317.4,90.9 317.8,89.7 318.4,89.5 
	318.9,90.5 318.4,91.4 319.3,91.2 320.1,90.5 321.4,91.9 322.5,91.2 322.2,90.4 322.7,89.7 324,89.5 326.4,90.5 326.9,91.4 
	328.1,92.3 329.3,94.2 329.7,94.1 329.3,92.2 328.1,90.1 328.3,89.5 328.9,89.6 329.6,90.3 330.3,90.6 331.1,92 332.7,92.6 
	333.2,93.7 333.2,94.9 334.1,95.2 335.3,96.7 336.3,96.4 336.3,96 337.3,96.2 337.2,96.8 336.3,97.3 337.2,98.5 338.2,98.8 
	338.6,97.2 338.5,96.5 339,96 338.5,95.3 337.6,95.4 336.8,95 335.6,95 335.6,94.2 334.9,92.2 334.6,91.2 335.2,90.8 335.8,91.1 
	336.6,91 336.3,90.6 335.2,89.9 333.9,89.8 333.2,88.7 332.7,89.1 332.8,90.2 332,90.7 331.5,90.2 331.6,89 330.9,87.6 329.2,86.5 
	328.1,86.5 326.6,87.8 326.3,88.7 325.4,89 324.1,88.5 323.6,87.4 322.7,86.7 322.7,85.5 323.1,84.8 322.4,84 321.8,82.5 321.2,82 
	321.4,80.6 322,79.7 321.8,78.4 322.2,77.4 324,75.7 324.7,75.3 324.4,76.1 324.4,76.7 325.4,75.1 325.1,73.8 325.8,72.1 
	326.3,69.4 325.7,68.7 325.4,67.3 324.7,67 323.7,65.2 323.9,63 324.6,62.2 324.7,61.4 323.9,60.4 323.4,60.6 323.3,61.1 
	322.5,61.8 320.9,61.8 "/>
<polygon class="st0" points="337.7,115.1 338.3,115.9 338.2,116.4 339.6,116.4 341.4,115.6 341.8,114.8 341.7,113.6 341.1,113 
	340.4,113 338.4,114.2 "/>
<polygon class="st0" points="344.1,109.4 343.9,107.7 343.3,106.3 343.1,105.8 341.9,106.2 340.9,105.7 340.1,105.8 340.5,106.8 
	340.5,108 341.3,108.7 341.8,108.1 342.5,108.8 342.4,110.3 342.9,111.3 343.1,113 344.1,113.6 344.2,112 344.8,112.9 345.8,112.6 
	345.9,111.7 344.9,110 "/>
<polygon class="st0" points="345.7,113.2 345.5,114.2 346.2,115.1 346.2,114.2 "/>
<polygon class="st0" points="340.2,110.5 340.2,109.3 339.8,109.9 "/>
<polygon class="st0" points="301.2,120.4 299.6,122.6 299.3,123.1 299.4,123.6 300.5,122.7 301.3,122.5 302,121.7 303.3,121.3 
	304.5,119.3 305.9,118.9 306.8,118.1 306.9,117.5 307.7,116.6 307.7,114.8 308.3,114 310.1,113.9 310.5,112.7 311.3,111.9 
	312.2,111.7 312.7,110.8 312.1,109.4 311.3,108.3 311.3,107.3 311.2,105.6 310.7,105.8 310.5,107.6 310.6,109.3 309.8,108.7 
	310.5,109.8 310.4,110.7 309.5,111.8 308.7,111.7 307.7,112.9 307.6,113.8 306.5,114.4 305.3,116.9 303.6,118.5 302.7,118.6 
	301.9,120.2 "/>
<polygon class="st0" points="339.7,104.7 340.5,105.2 341.4,105.1 341.6,104 340.3,104.2 "/>
<polygon class="st0" points="331.8,94.5 331.4,94.6 331.4,95.3 332.9,96.9 333.1,96.3 333,95.7 "/>
<polygon class="st0" points="340,98.3 339.5,98 339.5,98.8 340.4,100.6 341.9,101.8 343.2,103.3 343.8,103.7 343.6,104.2 343,104.9 
	342.9,105.2 343.4,105 343.6,105.3 344,105.6 345,106.2 345.3,107 347,107.1 347.4,107.3 347.6,107 348.2,107.2 347.7,106.5 
	347.3,105.5 346.7,104.9 346.8,103.3 346.6,101.2 346.7,100.6 346.2,100.3 345.3,99 344.7,97.9 344,97.8 343.6,98 343.1,97.8 
	342.5,97.9 342.1,98.3 340.9,98.2 "/>
<polygon class="st0" points="337.8,92.1 339.4,91.8 339.8,90.6 339.2,89.4 338.4,88.5 337.8,89 338.1,90.3 337.7,91.1 337.3,91.5 
	"/>
<polygon class="st0" points="325.1,82 323.8,82.8 324.4,84.3 324.2,84.8 324.4,85.6 325.2,84.8 325.3,83.1 325.9,82.5 "/>
<polygon class="st0" points="325,88.1 325.8,88.6 325.6,87.7 324.8,87.1 "/>
<path class="st0" d="M322.2,57.4l-0.7,0.9l0.7,0.5l0.5-0.8C322.6,58,322.1,57.4,322.2,57.4z"/>
<polygon class="st0" points="324.9,91.6 324.3,92.4 324.4,93.2 325.8,94.2 326.1,93.5 326.5,92.9 325.9,92 "/>
<polygon class="st0" points="319.5,55.8 319.7,54.6 318.8,55.2 "/>
<polygon class="st0" points="315.4,91.2 314.4,90.1 313.6,90.1 313.7,90.9 315.1,91.5 "/>
<polygon class="st0" points="318.5,59.1 319.4,58.6 318,58.6 "/>
<polygon class="st0" points="312.5,100.1 312.9,100.9 313.4,101.5 314.7,101.6 315.4,102 315.9,101.4 315.7,100.8 314.5,100.5 
	313.8,99.8 312.9,99.6 "/>
<polygon class="st0" points="356.7,149.3 356.4,148.2 355.6,147.7 355.1,148.1 355.5,149.4 355.6,150.5 356.2,150.3 "/>
<polygon class="st0" points="312.6,145.2 312.3,145.9 312.8,147 312.8,146 "/>
<polygon class="st0" points="350.7,221.5 352.5,221.9 353.1,222.4 353.4,221.9 354.2,221.2 355.1,220.8 354.9,220.1 353.9,219.7 
	353,220.4 351.1,220.6 350.5,220.1 349.6,220.5 349.2,221.7 349.4,222.2 "/>
<polygon class="st0" points="316.1,144.1 317.5,143.1 317.4,142.3 316.5,142.4 314.6,144 314.9,144.4 "/>
<polygon class="st0" points="356.4,197.8 357.6,196.8 358.6,196.8 358.6,195.9 357.6,194.8 357.6,194.1 355.9,193.5 353.8,193.3 
	352.8,194.1 351.8,193.7 350.8,194.3 350.6,195.8 351.6,197 353.3,197.3 353.8,197.8 355.1,197.7 "/>
<polygon class="st0" points="347.9,153 348.1,154.4 349.1,155.3 349.6,154.7 349.2,153.5 348.1,152.2 "/>
<path class="st0" d="M355.6,152.1h0.4l-0.4-1.1l-0.6-0.2C355.1,150.9,355.6,152.1,355.6,152.1z"/>
<polygon class="st0" points="358.6,177.8 358.6,177.2 357.9,177.2 357.6,178.3 358.3,178.6 "/>
<path class="st0" d="M424.9,221.5l0.3-0.3l0.2-1l0.2-0.4l-0.9-0.7l-0.4-0.3l-2.1-0.1l-1.3,0.6l-0.6,1.6l-0.6,1.2l-2.3,2.3
	c0,0,2-0.1,2-0.1l0.8-0.2l1.5,0.2l0.9-0.5l0.9-1l0.9-0.2l0.4-0.6V221.5z"/>
<polygon class="st0" points="312.6,227.5 313.4,227.4 313.5,226.7 313,226.4 "/>
<polygon class="st0" points="319.8,136.5 320.1,136 319.8,135.4 319.1,136.3 "/>
<polygon class="st0" points="311.1,226.8 311.7,227.6 312.1,226.2 312.5,225.8 311.5,225.5 "/>
<polygon class="st0" points="321.4,138.4 320.9,138.9 321.3,139.3 322.3,139.3 322.7,139 323.3,139.3 324.1,138.8 324.1,138.4 
	322.7,138.1 "/>
<polygon class="st0" points="319.7,211.2 318.8,209.4 318.5,210 318.4,210.9 318,211.6 318.5,212.4 318.8,213.3 319.2,212.1 "/>
<polygon class="st0" points="336,184 336.3,184.4 337.3,184.2 337.5,183.3 336.7,182.7 336.3,183.4 335.4,183.6 335.8,182.9 
	335.7,182.4 334.1,182.3 332.8,183.1 332.9,184.1 333.7,184.7 334.5,184.1 335.4,184.8 "/>
<path class="st0" d="M334.7,186.9c0,0,0.2-0.6,0.2-0.7l-0.9,0.4L334.7,186.9z"/>
<polygon class="st0" points="335.1,226.5 336.3,226.3 336.8,225.6 338,224.5 337.6,224.2 336.8,224.7 336,224.6 335.5,224.8 
	335.7,225.3 334.6,226.1 "/>
<polygon class="st0" points="338.7,225.4 338.1,225.9 338.9,225.9 339.5,226.4 340.4,225.2 340.3,224.7 339.7,225.2 "/>
<path class="st0" d="M327.7,177.1c0,0-0.9,0.2-1,0.3l0.9,0.4L327.7,177.1z"/>
<polygon class="st0" points="343.2,171.5 343.7,170.6 344.5,170.5 345.1,169.7 345.9,169.2 346.2,168.2 346.7,167.4 347.3,167 
	346.7,166.4 346.6,165.7 345,165.3 343.9,165.7 343.7,166.8 342.8,167.5 342.7,168.1 341.5,169 340.6,169.1 340,169.9 338.7,170.3 
	335.9,169.7 333.6,169.5 333.2,170.2 332.7,170.2 331.5,169.2 330.7,169.2 329.7,169.2 328.6,169 327.1,168.7 326.3,169.2 
	325.4,168.7 324.3,167.6 322.6,167.3 321.6,167.3 321.6,168.6 320.7,169.2 320.2,170.2 319.5,170.9 318,170.4 316.6,170.7 
	316.1,171.4 316.2,171.8 314.7,173.1 314.7,174.8 315,175.7 315,177.7 314.7,178.3 315.2,179.7 315.4,180.8 315,180.2 314.6,179.3 
	313.9,179.5 313.1,180.4 312.2,180.9 312,182 312.2,183.4 311.8,184.2 312.1,186.7 311.8,187.2 311.6,188.1 310.8,188.5 
	310.9,189.9 309.6,191 309.2,192.5 309.4,192.9 308.9,193.6 309.5,195.6 310.1,196.5 310.6,196.2 311.4,196.2 312.1,195.8 
	312.6,196.1 313,197.5 314,200.2 313.6,200.8 313.3,202.3 312.4,203.5 312.3,206 312.5,208 313.1,208 313.9,208.5 315.1,208.4 
	315.6,207.8 316.7,208 317.6,207.9 318.4,208.4 318.6,207.5 318.4,206.3 317.6,205.8 317.5,204.3 318.1,203.3 318.4,201.4 
	318.1,199.6 317.7,199.1 318.8,197.4 319.2,195.9 318.8,194.2 318.1,193.5 318.1,193 319.3,192.2 319.8,191.4 321,191.1 
	322.2,191.5 322,192.1 322.6,193.1 322.6,194.2 321.7,195.3 321.4,196.3 322,197.5 322.8,197.6 323.5,198.5 324.9,199.3 
	325.1,200.3 324.6,200.3 324.3,202.4 324.7,203.5 325.6,203.8 326.2,203.6 327.5,204.1 328.4,204 328.3,203.6 328,202.7 329,201.8 
	330,201.6 331.4,200.8 333.1,200.9 333.7,200.3 334.1,200.5 335,200.5 335.5,199.7 335.3,199.2 333.8,199 333.4,199.3 332.9,199.1 
	331.8,199.2 331.7,198.4 331.2,198.3 331.2,197.8 330.7,197.6 330.2,197.9 330.2,197.3 329.2,197 328.8,196.3 329.5,195.6 
	329.8,195.1 330.2,195.3 329.8,194.6 330.3,194.5 330.6,193.9 330,193.4 329.3,193.1 329.6,192.6 329.5,192 328.5,191.3 
	327.8,191.2 327.5,190.2 325.9,188.4 325,187.7 324.4,186.7 324.5,186.2 325,186.3 325.2,186.9 326.3,186.9 327.2,186.2 
	327.4,185.5 329.8,184.7 331.4,183.4 332.2,182 333.2,181.5 333.3,180.7 334.5,180.4 335.6,181 336.3,181.1 337.3,179.7 
	337.3,178.8 336.1,178.3 333.6,178.6 332.4,179.4 330.7,179.4 329.9,179.6 328.9,180.6 327.8,180.6 327,180.8 325.9,180.1 
	324.9,179.8 323.8,181.3 323,183.2 321.9,183.7 320.7,183.6 320.4,183 318.9,181.4 317.4,180.1 316.6,178.1 316.8,175.8 
	317.7,173.7 318.7,172.6 320.1,172.2 321.6,172.9 323.5,173 325.6,171.9 326.9,172.1 327.4,172.8 328.6,172.8 329.3,172.4 
	331.8,172.7 333.1,172.6 333.3,172.3 334.7,172.3 335.6,172.8 335.9,173.4 337,173.8 341.4,172.8 "/>
<polygon class="st0" points="335.6,186 336.5,186.2 336.1,185.6 "/>
<polygon class="st0" points="337.8,185.2 337.6,184.4 337,184.9 "/>
<polygon class="st0" points="375.4,187.1 377,186.7 376.5,186.4 376.4,185.5 375.9,185 373.8,185.6 373.1,186.1 373.6,186.5 "/>
<polygon class="st0" points="360.3,177.7 359.5,177.8 359.2,178.2 359.3,178.8 359.9,179.8 360.9,179.8 361.5,180.4 362,179.8 
	361.7,179.3 360.9,179 361,178.1 "/>
<path class="st0" d="M326.5,205.1l-0.1,0.7l-0.3,0.4l0.4,1.2l0.5,0.2l0.9-0.6l-0.3-1.2l-0.7-1C326.9,204.9,326.6,205.1,326.5,205.1z
	"/>
<polygon class="st0" points="320,217.4 319.2,216.9 318.7,217.4 319.4,217.9 "/>
<polygon class="st0" points="341.4,225.3 342.4,225.6 344.3,224.9 345,224.2 344.4,223.8 342.8,223.9 342.3,223.7 341.2,224.2 
	341.6,224.5 341.3,224.9 "/>
<polygon class="st0" points="325.9,177.7 326.4,178.3 327.3,178.1 326.5,177.7 "/>
<polygon class="st0" points="366.2,162.8 367,162 366.7,161.1 365.9,160.7 365.2,161.2 364.3,161.5 364.7,163.3 365.3,162.8 "/>
<path class="st0" d="M329.1,206.4l0.5,0.4l1-0.1l0.1-0.5l0.4-0.1l0.1-1l0.7-0.7l0-0.6l-0.5-1l-1,0.5l-0.8,0.8l0.3,0.7l-1,1.2
	C329.1,206,329.1,206.4,329.1,206.4z"/>
<polygon class="st0" points="437.3,214.6 437.4,213.7 437.7,212.1 438.4,190.5 438.4,190.5 437.4,190.8 436.7,190.5 436.7,189.9 
	436.8,189.4 436,188.8 435,188.8 433.5,188.5 432.7,188.3 431.9,188.5 428.6,187 427.1,186.6 425.9,186.5 424.9,185.6 422.8,185.1 
	421.1,184.3 420.1,183.5 418.8,183.3 415.9,185 415.7,185.6 416.2,186.6 416,187.4 414.3,187.6 413.3,188 412.6,188.1 412.1,187.8 
	411.6,188.5 411.5,189.5 410.4,190.2 409.3,190.3 408.6,191.4 408.6,192.9 407.9,193.1 407.3,193.6 407,194.6 405.9,195.1 
	404.9,195.1 404.3,194.4 403,193.4 402.6,192.4 402.3,192.6 401.9,191.5 401.9,190.3 401.3,189.9 400.7,190.5 400.8,192 
	400.4,191.9 399.7,191.1 399,189.8 398.9,187.1 398.5,185.6 399.1,184.5 399.8,183.5 399.4,182.5 398.4,181.6 398.4,180.2 
	398.8,179.6 398.4,179.1 396.4,178.9 394.6,179 392.8,177.8 389.8,176.7 388,177 387.5,177.4 386,178.6 385.1,178.9 384.3,179.6 
	382.8,179.6 381.9,180.4 382.3,181.1 382.2,182 380.8,182.8 380.6,183.5 381.9,183.7 382.9,183.3 383.2,182.8 383.8,183.5 
	385.4,184.4 386,185.4 385.8,185.8 386.1,187.1 387.3,188.1 388.4,188.3 389.4,188 390.1,188.4 390.8,188.1 391.5,188.3 393.3,188 
	393.9,188.1 394.6,188 394.2,187.4 397.1,187.7 397.4,188.5 397.2,189.7 396.7,189.5 396,190.3 395.5,191.5 394.8,190.4 393,189.6 
	392.2,189.9 391.8,191.2 390.7,191.9 389.8,191.5 388.6,191.3 388.2,190.9 386.8,191 386.1,191.9 386.5,192.5 387.8,192.7 
	388.9,193.2 389.4,194.6 389.9,195 390.6,194.8 390.7,195.6 390.6,196.4 390.1,196.6 390.1,197.3 390.9,199.2 392,199.5 
	393.1,199.3 394.3,197.8 394.2,196.9 395,195.3 395.5,195.1 395.7,194.2 396.2,193 396.7,191.8 396.7,193.2 396,194.1 396.5,195.3 
	396.9,196.7 397.5,197.4 397.8,197 398.3,196.8 398.7,197.1 398.9,198.2 399.4,197.6 399.8,197.7 400.1,198.2 400.9,198.5 
	401.9,198.1 402.7,198.2 402.8,198.5 402.3,198.4 401.5,198.5 401.5,199.3 402.7,199.6 402.8,200.1 403.1,200.6 404.5,201.2 
	406.2,201.3 409.7,202.4 413.1,203.5 414.1,203.3 415.7,203.9 416.1,204.9 417.6,205.6 418.7,205.5 419.5,205 418.5,206.1 
	419,206.5 419.6,206.2 420,206.7 421.3,206.4 420.5,207.1 420.9,207.6 420.7,208 421.4,208.5 422.4,208.4 421.3,209.4 421.3,209.9 
	422.6,211.2 422.3,212.4 422.6,213.1 423.6,213.8 425.1,214.9 425.6,215.5 424.7,215.4 424.1,215.4 423.8,216.2 424.8,216.9 
	425.8,217.4 427.1,217.2 427.9,217.4 427.2,217.5 426,218 425.5,217.8 424.9,218 425.5,218.8 426.3,219.1 426.1,220.5 425.8,220.9 
	425.8,221.6 425.4,222.5 424.9,222.8 425.6,223.6 427,222.9 427.5,223.4 428.3,223.4 429.3,222.9 431,223 431.7,222.5 432,221.3 
	432,222.6 431.5,223.4 431.7,224.3 432.3,224.6 433.4,225.7 433.4,226 433.8,226.9 435.4,228.6 436.8,229.1 437.1,229.1 
	437.6,215.1 "/>
<path class="st0" d="M256.8,183.7l0.7-0.2l1.1-1.2l-0.8-0.6l-1.4-0.1c0,0,0.1,0.7,0.1,0.7l-0.2,0.7L256.8,183.7z"/>
<polygon class="st0" points="279.3,216.5 278.4,216.3 275.3,216.1 274.7,215.7 273.9,216.9 275,218.1 275.9,218.2 276.6,217.8 
	278.6,217.9 279.6,217.4 280.9,217.3 281.4,216.6 280.8,216.3 "/>
<polygon class="st0" points="289.1,216.3 289.6,216.4 290,216.4 289.8,216.1 289.1,215.8 288,215.7 287.5,216.1 287.6,216.4 
	288.3,217.2 "/>
<polygon class="st0" points="295.7,224.9 293.9,224.3 292.7,225.2 292.4,226.7 291.4,226.7 290.9,227 291.3,227.5 293.1,228.1 
	294.3,227.6 295,227.9 294.9,227 295.5,226.2 "/>
<polygon class="st0" points="252.6,185.6 253.5,186 253.9,185.5 253.4,185 252.5,185 "/>
<polygon class="st0" points="295.3,195.8 295,195.5 294.8,196 294.8,197.4 295.1,197.3 "/>
<polygon class="st0" points="294.6,197.6 294.5,195.6 294.2,195.1 293.7,195.5 293.1,197.1 292.9,198.8 293.4,199.4 294.3,198.7 "/>
<polygon class="st0" points="409.3,181.4 409.6,181.4 410.1,181.7 411.4,181.4 410.9,180.9 410.1,180.5 409.3,179.3 408.4,178.7 
	407.5,178.7 405.9,178.4 406.1,178.9 407,179.8 407,179.1 407.6,179.2 408.5,180.5 408.4,181.3 "/>
<polygon class="st0" points="289.3,227.3 289.9,227 289.5,226.4 289,227 "/>
<polygon class="st0" points="292,218.1 291.7,218.2 290.9,218.1 291.1,218.4 291.9,218.4 "/>
<polygon class="st0" points="294.9,189.9 295.8,190.1 296.1,189.3 296,188.5 295.3,188.5 294.9,188.3 295.6,187.8 295.8,186.8 
	295.5,186.6 294.1,186.6 294.6,186 294.4,185.5 295.3,185.6 296.2,185.2 296.4,184.2 297.4,183 297.5,181.8 297.1,181.1 
	297.7,181.3 298.2,182.4 299.2,181.4 299.9,180.3 299.3,178.9 300.9,177.7 301.3,175.7 301.8,174.9 302,172.7 302.5,172.1 
	302.5,171.2 303.7,170 304.3,170.7 304.6,170.2 304.2,168.6 306.1,170.4 307.4,170.6 308.3,170 309,170.3 309.7,170 310,169 
	309.1,168.7 308.8,168 307.8,167 307,167 304.5,164.7 303.7,164.2 303.4,163.2 302.9,162.8 303.1,162.1 304.6,161.7 305.2,160.7 
	304.3,159.9 302.4,157.9 302.1,156.7 301.1,155.9 301.5,155 302,154.8 301.9,154.2 301.4,153.9 300.5,152.9 301,152.5 302.3,152.7 
	303.6,152.4 302.5,151.1 301.3,150.6 301.6,150 301.6,149.5 302.1,149.4 302.2,149.1 301,148.7 299.3,148.7 298.7,148.3 
	296.2,148.2 294.4,148.4 293.4,148 292.2,149.4 292.3,150.2 291.7,151.2 291.7,152.1 290.5,156.5 288.7,159.1 287.8,161.5 
	285.5,165 285.7,165.9 283,166.3 280.6,167.6 279.2,167.6 278.8,166.9 277.3,166.2 274.5,166.3 273.7,167 270.5,168.3 267.3,168.2 
	266.5,168.6 265.1,168.5 264.9,169.1 263.2,169.6 262.4,169.5 261.9,168.5 260.6,167.3 260.4,166.8 258.6,165.5 257.4,163.4 
	256.5,163.7 255.9,164.6 254.6,166.4 253.6,168 253.6,168.8 253.9,169.5 253.8,170.2 253,170.7 253.1,172.9 254.8,175 255.4,175.9 
	254.7,175.5 254.3,175.9 255.1,177.2 256.2,177.6 257,177.4 258.8,177.1 260.3,176.2 261.3,176.5 260.2,176.4 258.9,177.5 
	256.9,178 256,178.7 254.9,178.9 255,179.3 256.3,179.6 257.7,180.5 259.4,182.1 260,183.1 260.1,184.1 259.3,185.3 258.7,186.1 
	259,186.8 260,187.4 260.3,190 260.3,191.3 260.9,193 261.6,193 262.5,192.2 262.8,192.9 264,193 264.9,193.3 266.4,193.2 
	267.4,192.5 268.1,193 268.8,192.5 269.3,191.4 269.2,190.8 269.6,191.6 269.3,192.6 269.8,194 270,195.9 269.9,196.8 270.7,196.8 
	272,195.2 272.7,195 273.3,195.5 274.1,195.4 274.4,194.9 275.8,194.6 276.7,193.7 277.3,193.6 278.3,194.2 279,193.8 279.6,194.4 
	279.6,195.3 280.1,195.9 281.1,196.2 280.7,195.4 281.1,194.5 281.6,195.4 282.5,195.6 283.1,195.4 283.7,196.2 284.2,195.9 
	284.4,196.4 285,197.2 284.8,198.1 285.1,199.7 286.3,199.5 288.6,198.4 290.3,198.1 292.2,196.8 293.4,194.6 293.4,193.8 
	293.8,192.3 294,192.8 294.6,192.8 295.5,190.9 295.1,190.6 294.6,190.1 294.7,189.6 "/>
<polygon class="st0" points="290.4,224.7 289.2,223.2 287.6,222.8 286.1,223.4 284.8,223 283.5,223.4 283.5,224.3 284,225 
	285.6,225.4 287,226.4 287.3,227.1 287.8,226.4 288.7,225.9 289.1,225.5 290.1,225.3 "/>
<polygon class="st0" points="257.8,181.3 257.8,180.9 257.3,180.8 256.7,180.2 255.2,179.9 255.1,180.3 255.9,181.3 256.5,181.3 "/>
<polygon class="st0" points="404.5,184.3 405.2,184 403.7,184 "/>
<polygon class="st0" points="379,218.9 379.8,219.2 380.4,219.1 380.5,218.8 "/>
<polygon class="st0" points="381.1,180.6 380.2,180.3 379,181.1 379,182.7 380.2,183 380.8,182.6 "/>
<polygon class="st0" points="402,180.6 402.6,181.3 403.4,181.1 402.7,180.3 "/>
<polygon class="st0" points="380.4,223.3 380.7,223 380,222.9 379,223.6 378.8,224.1 379.6,223.9 "/>
<polygon class="st0" points="381.4,176.8 382.1,177.1 383.1,176.8 382.9,176 381.5,175.1 379.5,175.1 378.7,175.8 377.5,175.8 
	377.2,176 377.6,176.4 376.8,176.6 378.4,176.9 379.5,177.4 380.4,177.2 380.4,176.8 379.5,176.4 379.3,176.1 379.7,175.9 "/>
<polygon class="st0" points="370.7,175.3 372.3,176.2 372.1,175.6 369.9,174.5 "/>
<polygon class="st0" points="367.3,168.8 368.1,166.8 368.1,166 367.4,165.3 365.6,165.9 363.8,166.8 363.7,167.6 364.3,167.6 
	363.8,168.2 362.8,168.7 362.4,169.6 361.8,169.7 361.3,168.7 362.1,167.9 363,167.9 363.5,166.4 363.5,164.7 362.5,164.3 
	362.3,163.6 363.1,162.6 363.2,161.7 362.7,161.9 360.9,163.6 360.5,165.3 360.7,166.7 360,167.3 359.6,168.7 360.2,169.5 
	360.8,170.6 360.4,171.4 360.2,172.6 361.3,173.5 361.1,174.2 361.3,174.8 360.9,176 361.6,177.3 362.8,178.1 363.7,179.9 
	364.7,180.3 365,181.3 365.1,180.6 365.5,180.4 365.2,179.9 363.7,178.5 363.2,176.9 362.3,175 362.3,172.9 363.1,172.6 364.4,173 
	365.9,173.1 366.7,173.7 367.8,173.6 367.3,173.1 367.1,172.3 365.6,171.3 364.9,171.2 364.4,170.4 365.2,169.5 "/>
<path class="st0" d="M406.4,184.8l1.8,0.7l2.7,0.4l2.4-0.4l0.7-0.4l-1.9-0.4l-1,0.2l-1.7-0.5l-1.2,0.6l-2.1-0.7
	C406.1,184.3,406.4,184.8,406.4,184.8z"/>
<polygon class="st0" points="380.4,179.4 379.4,179.6 379.9,180.1 "/>
<polygon class="st0" points="377.3,180.1 378.2,180.5 379.5,180.3 378.3,179.8 "/>
<polygon class="st0" points="389.7,208.8 389.7,209.7 390.1,210.1 390.2,208.8 389.4,207.7 "/>
<polygon class="st0" points="401.3,207.7 400.8,207 400.3,207.1 400.9,207.7 "/>
<polygon class="st0" points="390.8,209.5 390.4,210.2 391.2,209.9 391.9,207.5 392.5,206.5 391.3,207.1 "/>
<path class="st0" d="M401,213.6l-0.2-0.6l-0.6-0.5c0,0-0.3,0.2-0.3,0.2l0.1,0.6l0.5,0.4L401,213.6z"/>
<polygon class="st0" points="401.6,214.7 401.5,214.2 401,214.7 401.3,215 "/>
<polygon class="st0" points="401.5,211 401.3,210.9 401.4,210.6 401.1,210.1 400.8,210 399.8,210.4 399,211.1 399.2,211.4 
	400.4,212.1 400.8,212.4 401.4,211.7 "/>
<polygon class="st0" points="398.2,208.7 398.1,209.1 398.5,209.1 398.5,208.7 "/>
<polygon class="st0" points="399.6,207.4 399.1,208.3 398.6,208.4 399.2,208.6 399.2,209 399.8,208.9 399,209.5 399.2,210.2 
	399.6,210.1 400.4,209.6 401,209.6 401.3,209 401.3,208 400.8,208 400.1,207.5 "/>
<polygon class="st0" points="348,186.5 349.3,186.9 351.8,186.3 353.1,185.9 352,185.7 349.8,185.5 349,185.8 348.1,185.5 
	347.5,185.8 348,186.1 "/>
<polygon class="st0" points="347.8,224.2 347.5,223.8 347.2,224.3 347.4,224.5 "/>
<polygon class="st0" points="350.3,187.4 350.5,188.4 351,189.7 351.4,189.9 351.5,189.4 350.7,188.1 350.7,187.2 "/>
<polygon class="st0" points="397.9,211.3 398.7,212.2 399.4,212.6 399.7,212.4 398.8,211.5 398.6,210.9 397.9,210.7 "/>
<polygon class="st0" points="346.3,186.3 347.2,186.4 347.2,185.4 346.4,185.1 345.7,185.7 345,185.3 343.8,185 343.1,185.3 
	342.6,185.1 341.8,185.9 341.7,186.5 342.1,187.1 343.2,187.3 344.5,186.6 345.3,186.8 "/>
<polygon class="st0" points="397.8,214.1 397.7,215.2 398.2,215.7 398.8,215.7 399.8,214.7 400,214.2 399.5,213.8 399.2,213.1 
	398.1,212.2 397.7,211.8 397.8,212.3 397.8,213.5 398.3,213.9 398.5,214.6 398.1,214.2 "/>
<polygon class="st0" points="383.7,217.5 383,217.4 382.5,217.8 382.5,218.2 380.9,219.6 380.9,220.2 381.1,220.6 380.4,221.1 
	380.4,221.9 381.3,222.6 382,222.4 383.3,220.8 383.7,219.4 383.5,218.6 383.8,218 "/>
<polygon class="st0" points="423.7,223.4 423.2,224.2 423.7,224.3 424.8,224.7 425.1,224.4 424.7,223.1 424.3,223 "/>
<polygon class="st0" points="345.1,231.7 345.7,231.4 345.9,231.4 346.9,230.3 347.8,230 348.9,230.1 351.3,229.7 352.9,228.7 
	354.6,228.2 355,227.5 355.7,227.4 356.8,226.7 356.8,226.2 356.3,225.7 354.1,226.2 352.7,226.1 351.4,226.4 350.3,226.4 
	348.7,226.7 346.3,226.5 344.5,228.1 343.1,228.8 342.6,229.1 341.6,229.3 340.9,229.6 339.4,229.7 338.5,230.6 338.1,230.9 
	337,231.6 336.6,232.8 335.5,234.6 335.3,235.1 335.8,235.5 336,236 335.4,236 334.9,235.6 334.6,236.8 335.1,237.3 337,237.2 
	338.7,236.1 339.7,235.8 340.6,235.9 341.7,235.1 342.4,234 344.6,232.4 "/>
<polygon class="st0" points="368,224.3 367.5,224 366.4,224.1 367,224.4 "/>
<polygon class="st0" points="369,195.4 371.5,195.7 372,195 373.2,195 375.4,196.4 376.5,196.6 377.7,197.9 378.9,197.9 
	379.4,196.9 378.8,194.7 376,193.1 373.6,192.6 372.4,191.7 371.2,191.5 370.2,192.5 369,192.3 368.1,192 366.4,192.1 364.1,192.1 
	363.6,192.7 363.5,193.4 362.5,193.7 362.2,194.7 362.5,195.5 363.1,195.5 364.2,193.8 365,194.8 365.5,195.5 366.6,195.4 
	367.6,194.4 368.3,194.4 "/>
<polygon class="st0" points="324.9,237.8 324.3,238.8 325.4,238.8 326.1,238.4 326,237.9 325.3,237.5 "/>
<path class="st0" d="M328.3,227.1l0.8,0.3l0.5-0.5l1.2-0.2l0.8-1.1l0.7-0.3l0.5-1l-0.1-1l-1.2-0.5l-1,0.7l0.5,0.2l-0.7,1l-1,0.3
	l-0.7,0.8l-1.3,0.1l-0.7-0.6l-1.7-0.1l-1.2,0.5l-1.6-1l-1.5-0.4l-0.8,0.2l-1.4-0.7l-2.8,0.6l-1.7,1c0,0-0.3,0.9-0.3,1l0.3,1l1,0.2
	l0.8-0.1l0.9,0.2l0.8-0.1l0.9,0.1l0.7,0.6l1-0.4l0.6,0.4l0.8,0l0.3-0.3l1.3-0.5l1.8,0.3l1.6-0.7L328.3,227.1z"/>
<polygon class="st0" points="366.7,196.6 366.7,196.2 366,196.3 366.3,196.7 "/>
<polygon class="st0" points="385.6,215.9 385,216.5 386,216 "/>
<polygon class="st0" points="385.5,217.7 385.1,217.2 384,217 "/>
<path class="st0" d="M296.5,228.8l1,0.5l1.5-0.3l0.8,0.3l1.2-0.4l0.5-0.7l1,0.4l1.2-0.5l1.2,0.2l1.2-1.1l0.4,0.8l1.1-0.2l1.6,0.2
	l-0.7-0.6h1.5l0.1-1.2l-0.4,0.5l-0.3-1l0.1-0.9l-1.2-0.3l0.2,0.9l-0.6,0.2l-0.1-1l-1.2-0.7l-1.2,0.4l-1.1-0.7l-1-0.4l-1.4,0.9l0,0.6
	l2.3,0.9l0.9,0.9l-1.5,0.2l-0.9,0.4l-1.4-0.9l-0.3-1l-0.8-0.2l-1,0.2l-1-0.2l-1.7,0.6c0,0-0.8,0.9-0.7,0.9l-0.2,0.7l0.4,0.4
	l-0.3,0.5L296.5,228.8z"/>
<polygon class="st0" points="365.9,217.9 366.2,217.4 365.6,217 365.1,217.4 365.3,217.8 "/>
<polygon class="st0" points="365.6,196.4 365,196.4 365.1,196.9 365.7,196.9 "/>
<polygon class="st0" points="361.9,224.4 363.3,224 363.3,223.4 362.3,223.5 360.6,223.4 360.8,223.9 "/>
<polygon class="st0" points="214.4,206.1 213.7,206.4 215.1,207.5 215.1,206.7 "/>
<polygon class="st0" points="187.2,166.4 186.4,166.1 185.9,166.8 184.8,166.8 186.1,168.1 186.4,169.4 187.2,169.6 188.3,171.6 
	188.8,171.4 189,169.9 189.4,169.1 188,168 "/>
<polygon class="st0" points="198.6,187.8 199.3,188.7 200.6,189.1 199.2,187.2 "/>
<polygon class="st0" points="204.2,192.9 203,191.9 202.3,193 204.4,194.9 204.2,193.8 "/>
<polygon class="st0" points="194.2,181 193,181.9 193,182.9 194.2,183.3 195.7,185.6 197.2,186 197.2,183.9 195.5,181.4 "/>
<polygon class="st0" points="185.5,162.1 184.7,162.4 186,162.9 "/>
<polygon class="st0" points="194.8,174.9 195,174.2 193.6,173.7 193,174.5 194.3,174.6 "/>
<polygon class="st0" points="193.1,178.1 192.2,177.7 191.6,178.9 192.3,179.7 193.1,178.9 "/>
<polygon class="st0" points="201.3,190.8 201.5,192.1 202.4,191.3 "/>
<polygon class="st0" points="371.1,214.3 370.6,214.8 371.4,214.8 "/>
<polygon class="st0" points="232.6,207.4 233.6,209 234.3,209.3 235.1,208.5 235,205.9 235.5,202.8 234.9,200.6 235.9,198.4 
	235.4,197.5 235.5,195.7 236.5,195.2 237,194.4 236.8,193.3 235.9,192.9 234.9,192.1 234.4,190.7 233.7,190.4 233.4,189.4 
	232.3,189 230.6,189.2 229.4,189 229.3,187.3 228.5,186.2 227.7,186.7 228.2,185.6 227.8,184.3 227.6,181.5 226.3,182 225.7,181.5 
	223.4,181.4 221.5,180.1 221.5,179.2 222.7,178.6 224,177.9 223.1,177.4 221.9,177.6 221.2,177.3 220,177.8 220.9,177 222.2,176 
	223.9,175.7 223.6,174.5 221.8,172.6 220.8,172.4 219.5,173.3 218.3,174.1 216.9,174.1 217.7,174 218.2,173.5 218.8,173.3 
	219.3,172.5 219.1,171.8 217.7,171.2 215.7,171.2 214.3,170.1 214.3,169.3 214.1,167.8 211.7,165.4 210.9,165.3 210.2,165.5 
	209.2,164.8 209,162.6 207.3,161 205.2,159.8 203.8,159.7 203.5,160.2 202.8,159.8 202.5,158.2 201.7,159 201.1,158.2 201.1,156.5 
	200,155.2 198.8,154.9 198.3,154.1 195,151.9 193.9,151.8 192.5,150.3 191.1,150.1 190.8,149.2 190.5,147.4 189.3,146.8 
	188.7,145.3 188.2,145.2 187.3,143.7 186,143.2 184.8,143.2 184,143.5 183.4,143.1 181.9,143 180.2,143.5 179.4,142.9 176.8,141.1 
	174.4,140.8 173.6,141.2 173.3,141.8 173.6,143.5 175.1,146.6 176,147 178.5,149.8 179.2,149.8 180.7,151.7 181.6,152 182.4,151.7 
	184.2,153.3 186.3,156.5 188.3,158.5 188.9,158.5 188.9,160 189.4,160.4 189.6,161.9 190.3,162.6 191.5,162.5 193.1,164.5 
	193.9,164.9 194.6,164.8 194.8,165.4 194.3,166.3 195,167.1 195.6,168.5 195.5,168.9 196.7,172 197.2,173.6 198.7,174.1 
	200.4,175.2 200.4,176.2 201.8,178.7 203.2,179.7 203.4,182.5 205.6,186.5 205.4,188.1 206,189.6 208.1,191.1 210.2,193.8 
	210.8,195.2 212.4,195.5 213,196.2 214.4,197.1 214.6,198.7 215.8,199.5 217.3,201.2 219.9,202.8 220.4,204 222.1,204.5 
	225.5,207.5 225.8,208.7 226.5,209 227.3,210.3 227.7,209.8 227.7,208.7 227.4,208.1 227.4,207.5 228.5,207.7 230.7,209.8 
	231.1,209.4 231.2,207.9 231.6,207.1 "/>
<polygon class="st0" points="374.6,212.1 374,211.8 373.8,212.6 "/>
<polygon class="st0" points="372.1,222.5 373,222.3 372.7,221.4 372,221 371.3,221.3 371.4,221.9 "/>
<polygon class="st0" points="373.2,223 372.1,223.6 372.7,223.6 "/>
<polygon class="st0" points="266.5,223.9 268,224.9 269.3,223.8 270.9,224.1 272.4,225 274.1,224.9 275.7,224.1 276.6,224.1 
	277.7,225.2 278.9,225.6 280.3,226.8 281.6,226.6 282.5,227.5 283.2,227.3 282.8,225.6 282.2,225.1 282.8,224.4 283.1,221.9 
	282.5,221.2 281.5,221 281.2,220.6 280.3,220.7 279.5,221.1 278.6,221.2 277.7,220.6 276.5,221.1 275.2,220.5 274.4,219.6 
	274.3,218.8 273.2,217.3 273.1,215.8 271.6,215.7 270.9,216.1 270,215.2 269,215.3 267.8,214.2 267,213.7 266,213.9 265.1,213.9 
	263.7,212.5 262.6,212.5 262.3,214.8 261.6,215.7 259,216.1 255.9,215.6 252.4,215.7 250.4,214.8 250,214.3 250.2,213.2 249.5,212 
	247,211.7 245,211.2 243.8,210.3 242.1,210.2 241.6,210.8 241.1,211.2 240.2,210.5 238.4,210.2 237,210.3 236.5,209.7 235.3,211.1 
	235.4,212.3 234.9,213.5 233.7,213.7 233.6,214.8 232.7,215.1 232.2,214.7 231.8,214.7 231.9,215.4 232.6,215.8 234.9,215.9 
	236.2,215.4 236.7,216.4 237.5,216.8 238.2,216.5 239,216.5 238.5,217 237.7,218.4 238.2,218.9 239.7,219.2 241.1,219.6 242.1,219 
	242.9,219.4 244.7,219.6 246.5,220.9 249,221.6 250,220.4 250.8,220.4 251.7,221.3 252.8,221.5 253.5,220.7 254.3,220.6 
	255.7,221.6 257.5,221.5 260.3,223.3 263.3,224.4 264.5,223.8 "/>
<polygon class="st0" points="228.5,167.3 227.9,167.8 227.1,167.8 226.5,168.9 227.8,169.3 228.1,170.7 228.9,170.4 229.2,168.7 
	228.7,168.1 229.1,167.2 "/>
<polygon class="st0" points="230.6,177.8 231.1,177.4 229.3,175.8 228.4,175.6 227.8,176.7 228.4,177.4 229.3,177.1 "/>
<polygon class="st0" points="225.5,169.3 226,168.1 225.8,167.3 224.2,168.9 "/>
<polygon class="st0" points="228.8,179.2 228.5,178.1 227.5,178.1 226.9,178.9 227.8,179.8 "/>
<polygon class="st0" points="363.8,197.6 364.5,196.4 363.9,196.1 363.4,196.5 362,196.9 362.8,197.6 363.6,197.1 "/>
<polygon class="st0" points="210.7,163.1 209.7,163.3 210.3,165 211.4,164.9 212.4,163.7 211.4,162.5 "/>
<polygon class="st0" points="237.6,157.9 238.2,157.6 237.6,157 "/>
<polygon class="st0" points="214.3,166.1 213.7,166.1 215.1,168.2 215.7,168.7 216.4,167.5 215.8,166.6 "/>
<polygon class="st0" points="176.9,157.4 176.4,157.8 176.1,158.6 177.2,159.2 178.5,159.1 177.7,158 "/>
<polygon class="st0" points="218.2,170.6 219.6,171.3 220,170.9 219.7,169.3 218.4,168.2 216.9,167.9 216.1,169.3 216.3,170.4 "/>
<polygon class="st0" points="248.7,148.6 247.7,149.2 247.2,150 248.3,151.1 248.9,151.1 248.7,152 249.5,152 250,150.3 "/>
<polygon class="st0" points="246.3,194.6 247.3,193.1 247.9,194 248.8,194.1 249.1,193.3 250,192.9 249.5,191.8 247.5,190.5 
	245.6,190.2 245,190.4 245.4,191.3 245.4,191.9 244.2,192.2 243.8,192.8 244.7,192.8 244.7,192.4 245.5,192.1 245.4,193.7 "/>
<polygon class="st0" points="241.8,192.9 241.3,192.5 241.1,193.5 "/>
<polygon class="st0" points="235.7,156.4 234.8,156 234.1,156.2 234,157.2 234.6,157.6 "/>
<polygon class="st0" points="238.6,190.1 237.4,188.7 236.9,186.1 236.4,185.7 236.3,184.7 235.5,184.3 234.7,184.3 234.8,185.4 
	235.3,186.1 234.2,185.7 233.4,185 233,185.2 233,186.1 231.9,186.9 232.6,187.9 234.7,188 235.3,188.6 235.3,189.7 236,190.1 
	236.3,191.7 237.6,192.5 238.8,192.4 239.1,193.5 239.7,194 240.3,193.1 239.9,191.9 240.5,190.5 "/>
<polygon class="st0" points="238.1,155.9 237.7,155.1 237.4,155.8 "/>
<polygon class="st0" points="237.5,153.6 237.6,154.6 238.2,153.9 "/>
<polygon class="st0" points="311.1,233.3 312.4,233.1 313.3,234.2 314.2,234.4 315.2,235.8 316.5,236.4 318.1,236.2 319.6,235.5 
	319.6,234.7 318.6,233.8 317.6,232.4 316.5,232.4 316.2,231.3 314.8,230.7 313.8,231.3 312.7,231.3 311.2,230.1 308.7,231.3 
	308.6,232.2 309.5,233 "/>
<polygon class="st0" points="334.6,205.7 333.7,205.5 333.4,204.6 333.7,204.2 334.4,203.6 334.6,203.1 334.9,203.6 335,203.1 
	334.6,202.3 334.6,201.6 333.8,201.4 333.3,201.9 333.2,203.7 332.7,205.5 331.7,207.1 331.5,208 332.3,208.4 333,208 333.7,206.9 
	334.4,206.7 334.8,206.2 "/>
<polygon class="st0" points="357.7,223.6 357.1,223.1 356.4,223.5 357,224 "/>
<polygon class="st0" points="334.2,224.1 333.5,224.7 334.1,225.1 334.4,224.6 "/>
<polygon class="st0" points="333.8,239.3 334.2,238.4 333.9,237.7 332.8,238.2 333,238.4 331.2,239.3 330.4,240.1 331.2,240.4 "/>
<polygon class="st0" points="333.8,235.7 333.2,236.7 333.8,236.9 334.2,235.7 "/>
<polygon class="st0" points="332,226.9 332.7,226.2 333.6,225.8 332.4,226 "/>
<polygon class="st0" points="358,219.1 357.5,219.5 357.6,220.2 358.7,219.4 "/>
<polygon class="st0" points="358.6,179.5 358.3,179.2 357.9,180 359,180.3 "/>
<polygon class="st0" points="361,185.6 361.8,185.5 362.7,185.5 363.4,185.5 363.8,184.8 362.3,183.4 361,183.3 359.3,184.5 
	360,185.2 "/>
<polygon class="st0" points="361.6,194.1 361.6,193.4 360.9,194 "/>
<polygon class="st0" points="362.1,192.8 362.6,192.8 362.8,192.2 361.8,192.3 "/>
<polygon class="st0" points="359.8,223.7 359,223.9 359.8,224.3 "/>
<polygon class="st0" points="494.5,356.7 494.7,355.3 493.8,353.2 493.5,352.5 493.5,351.3 493.8,350.8 493.9,349.4 494.9,347.7 
	494.8,347.2 494.7,343.8 495.4,342.7 494.9,342 494.6,340.8 494.6,338.6 494.1,338.4 494.8,337.2 493.6,336.7 493.1,335.5 
	493.1,334.2 491.8,333.1 491,331.5 490.6,329.8 489.9,328.5 489.1,328.4 488.3,328.8 487.5,328.1 487.3,326.6 486.8,326.3 
	486.6,325.5 485.2,324.3 484.6,323.7 484.9,322.8 484.1,321.4 485.2,320 485.4,318.3 485.1,317.4 485.3,316.3 484.5,315.9 
	484.3,316.5 484.6,317 484.2,317.6 481.6,315.3 481,313.9 480.6,314.2 480.6,315 480.3,315.8 480.9,317.6 479.6,316.1 479,316.8 
	479,315.7 478.5,314.8 478.3,311.6 478.7,311.2 478.7,310.4 477.6,309.7 478,308.8 477.2,308.1 477.4,307.1 475.6,305.5 475,304.4 
	475,303 476,303.3 476,302.2 475.1,300.5 474.6,300.8 473.6,300.6 472.5,299 471.6,299 470.6,298.1 470,298.7 469.5,298.1 
	468.2,297.6 467.4,298.4 468.1,297.3 469.2,297 469.3,296.2 469,295.6 467.6,295.7 466.6,295.6 466.3,294.9 465.8,294.9 
	463.4,293.6 462.3,291.5 462.1,289.4 461.4,288 461.5,286.9 462,286.7 462.5,284.4 461.9,281.4 461.2,280 461.8,279.7 461,279 
	460.2,279 459.1,276.7 459,273.9 459.5,273.5 459.5,272.9 459,272.3 458.7,268.7 459,267.8 458.7,266.6 459.1,266.3 459.3,265.4 
	457.2,263.5 456,262.8 456.4,262.3 455.1,261 453.9,261.7 453.3,261.4 452.7,262.6 451.7,262.7 450.5,260.9 450.7,259.9 
	449.9,258.3 450.4,256.2 450.1,253.6 449.6,253.8 449.2,252.8 449.7,251.8 448.8,250.6 448.8,249.6 448.2,249.2 448.2,247.8 
	448.9,247.1 448.2,246.6 447.2,246.9 446.5,246.2 446.9,243.4 446.5,242.8 446.2,241.2 445,240.9 445,240.2 443.7,240.7 443,241.6 
	443,243.7 442.4,245.4 442.4,245.9 442.2,247.1 441.5,247 440.8,248.9 439.8,250.3 440.6,251.1 441.7,252 441,252.4 440.3,252.3 
	439.8,253.4 439.2,254.6 440,255.9 440.1,256.9 439.3,256.5 438.6,257 438.1,259.8 438.6,261.7 438.2,263.8 438.8,265.3 438.7,267 
	437.6,268 437.6,269 436.4,271.2 436.2,274.4 435.2,275.6 435.5,276.8 434.9,278.5 433.8,279.6 433.7,281.8 431.9,283.1 
	428.3,284.5 426.8,283.5 425.3,283.4 424.5,282.4 423.1,281.2 423,280.5 422.7,280 422.3,278.8 421,278.5 419.8,278.1 418,277.9 
	416.4,276.9 416.1,275.9 414.8,274.3 413.3,274.2 412,273.3 411.9,272.6 411.1,272.5 410.5,272 409.2,272 408.2,271.8 408.5,271.3 
	407,270.1 406.8,269 405.3,267.4 404.3,267.3 403.1,265.8 403,264.4 404.1,262.7 404.4,261.3 405.5,260.5 405.9,258.9 406.3,257.8 
	405.3,258.6 404.5,257 405.7,256.2 405.5,255 406.1,255 406.8,254.7 407.1,255.2 408.1,255.4 409.6,254.7 410,253.4 409,252.6 
	409.8,252 410.6,252.2 411.2,250.3 412,249.9 412.7,248.8 412.8,248.3 411.6,247.7 410.9,248.6 410.1,248.3 410,246.3 409,246.7 
	407.6,248.3 408.3,248.6 408.3,249.4 407.4,249.9 406.5,249.3 406.3,248.6 405.8,248 405.4,248.7 404.6,249 404.6,248.2 
	405.3,247.5 405.6,246.9 404.7,247.3 404.1,248 402.8,248.4 402.6,248.9 401.9,249 401.6,248.6 400.5,248.5 400.5,247.9 
	399.6,246.7 399.1,246.6 397.8,247.3 396.8,246.9 396.2,247.3 395.8,246.5 395.3,246.3 394.6,245.1 393.3,245.7 391.9,245.5 
	390.7,245 390.8,244.1 389.9,243 389.4,243.2 389.5,243.6 387.8,244.2 387.3,243.1 386.4,242.8 384.8,241.9 384.6,242.3 
	383.8,241.8 382.9,242.5 384,243.4 383.7,243.7 384.8,243.9 385.7,243.5 387.4,244.9 387.2,245.7 387.6,247.5 386.4,247.6 
	386,248.9 385.6,248.1 384.7,247.9 383.8,248.5 380.5,248.6 379.2,247.6 379.1,248 377.8,248.5 377.9,249.6 376.8,249.4 
	377.1,250.9 376.8,250.3 375.4,249.9 374.9,250.7 375.4,251.4 375.3,251.9 373.9,251.5 373.1,252.2 373.7,252.8 373.1,253.1 
	372.1,253.7 372.2,254.4 373.1,255.3 373.3,255.9 372.3,255.3 371.5,256 370.5,256 369.5,257.7 368.6,259.5 367.8,259.7 
	367.5,261.2 366.6,261.8 367.4,262.6 369.3,263 368.6,263.2 368.1,264 370.5,264.8 369.6,265.2 368.1,265 367.6,264.3 367.7,265 
	368.6,265.7 368.6,267 369.6,268.4 368.1,267.2 367.2,265.5 366.1,265.4 366,266.1 365.6,266.8 365.5,265.9 363,264.4 361.3,264.7 
	361.8,265.4 361.2,266 360.6,265.4 360.1,265.4 359.6,266.1 360.4,267.2 360.2,267.9 360,267.4 359.5,267.5 359.5,268.1 
	358.3,268.7 356.7,269.1 358,268.4 358.9,267.3 358.8,265.5 359.7,264.4 359.1,263.6 358.2,263.5 356.5,260.5 355.6,259.2 
	354,258.8 352.9,258.1 352.3,258.5 352.8,259.1 352.2,259.3 351.4,260.5 350.6,260.4 350.9,259.7 349.8,260 349.6,260.7 348.8,259 
	348.1,258.9 347.9,259.8 348.8,260.3 347.6,261.1 347.3,262.3 347.6,263 346.5,263.7 345.9,262.9 345.3,262.8 345.1,262.2 
	345.9,261.3 345,261.3 344.6,262.5 343.4,262.8 342.9,263.5 342.7,264.8 344.4,265.3 342.9,266.5 341.8,265.9 340.5,266.8 
	340.7,267.7 342.3,267.9 341.8,268.8 341,269 339.9,267.6 338.9,268.7 337.7,268.9 338,269.7 338.2,270.5 338.3,271.3 339,271 
	338.2,272.1 338.7,273 337.8,273.4 337.2,274.2 339.2,274.6 337.9,275.2 337.6,275.8 336.5,275.5 335.9,274.7 335,274.1 
	334.2,274.8 333.8,274 332.7,273.3 331.9,273.9 333.3,274.9 332.8,275.2 332.2,276.3 333.4,277.4 334.5,277.3 334,278.3 334,279.3 
	333.5,278.9 332.9,278.9 333.1,280.1 332.6,281.4 332.5,282.8 330.6,278.9 329.4,276.5 328.8,275.6 329.1,274.2 328.6,274.9 
	327.4,275.8 327.1,277.3 326.2,277.5 326.1,278.2 324.9,278.1 324.3,279 323.3,279.8 323.5,281.3 323.5,284.3 324.1,284.6 
	324.1,285.6 323.1,286.2 322.4,287.3 320.9,287.8 321,288.4 319.7,289.3 319.7,290.8 319,291.5 317.2,293.9 313.7,296 310.7,296.2 
	309.6,296.7 307.8,296.8 306.4,297.2 305,296.8 303.3,297.5 303,298.6 301.9,299.1 298.1,299 297.2,299.6 296.9,300.6 294.5,301.5 
	292.7,301.5 291.8,301.1 290.9,301.2 290.5,300.6 289.6,301 288.6,302.4 286.2,302.9 286,303.4 285.3,303.4 283.4,305.1 
	280.9,306.3 277.7,307.3 276.2,309.3 276.2,311.1 274.9,312.2 274,311.6 274.4,311 274.2,310 274.8,308.6 274.8,307.6 273,309 
	272.5,310.7 271.2,313.1 272.1,314.9 271.5,316.3 271.6,319 269.4,321.7 268.5,325.5 269.1,327.5 268.8,330.2 270.8,333.6 
	270.9,334.9 271.7,335.9 271,337.6 271.4,339.1 270.2,339.6 269.7,338.7 269.6,336.7 268.8,337.8 268.5,337.4 268.6,335.5 
	267.4,333 266.7,334.3 266.9,336.8 268.5,338.4 269.6,340.5 268,340.8 266.7,339.1 266.4,337 265.8,337.9 265.2,338.2 266.2,340.2 
	268.2,342.6 269.4,345.9 269.1,351.7 270,352.8 270.6,356.1 272.3,360.4 271.7,361.9 271.9,368.3 271.6,369.2 272.2,371 272.2,373 
	273.4,375.8 273.5,377.2 272.4,378 272.9,378.6 272.5,380.1 272.3,382.7 271.3,383.6 271.6,384.3 271.3,385.8 270.3,386.6 
	270.5,388.1 268.7,389.5 267.8,388.8 266.4,390.9 266.5,394.5 267.3,395.2 268.1,395.2 270.6,397.7 270.5,398.6 271,399.2 
	272.2,399.4 272.8,400.1 274.5,400.3 275.1,400.2 275.5,400.7 276.7,400.8 278.2,400.5 278.6,401.4 279.2,400.8 279.6,401.1 
	281.2,400.8 282.7,400.7 282.9,400 283.7,399.8 284.7,398.4 286.4,398.6 286.4,397.6 287.5,397 288.3,397 289.2,397.9 290.1,396.6 
	290.6,396.8 291.2,396.5 291.5,395.2 294.6,393.2 295.9,393.4 296.6,393.8 297.7,393.2 300.7,392.5 301.1,393.1 303.1,392.7 
	303.7,393.1 304.6,393.2 305.7,392.7 306.2,393.9 306.9,393.9 307.8,393.5 308.3,394.1 309.2,393.5 311.5,393.5 311.3,394.4 
	311.7,394.6 313,393.4 314.3,393.7 315.8,392.7 316.4,391.3 316.9,391.1 318.1,389.9 318.8,387.8 320.2,386.8 321.9,386.3 
	322.5,386.7 324.9,385.8 327.9,384 329.8,382.2 330.7,381.9 331.5,381.9 332.5,381.9 334.2,382.6 335.8,382.7 336.8,382.3 
	339.2,382.4 342.3,381.3 344.2,380.9 345.6,379.9 346.5,379.9 348.1,378.7 350.5,378.5 356.8,378.1 358.8,378.6 360.2,378.7 
	362,378.1 363.3,378.2 365.1,379.9 366.4,382.2 367.5,382.5 368.2,381.9 368.9,381.7 369.4,382.2 370.1,381.9 371.3,382.2 
	372.4,383.7 373.9,383.9 374.5,383.5 377,385.3 376.8,386.4 377.6,386.5 378.4,387.4 378.1,388.2 377.1,388.2 376.9,389 
	377.9,391.2 379,391.3 380.1,392.5 380.5,394.2 380.3,395.4 381.6,398.2 381.1,399.4 381.7,400.1 381.4,401.6 381,402.5 380.3,402 
	379.9,402.4 380.8,403.6 381.7,404 382.1,405.2 383.1,404.9 384.1,405.6 384.1,404.6 383.6,403.7 384.2,403 384.8,401.9 
	385.7,401.7 386.2,400.8 387.2,400.3 387.5,399.3 388.6,398 391,396.8 391.3,396 391.8,396 393.7,395.1 394.2,393.5 395.7,391.1 
	397.3,390.8 398,389.8 397.6,388.6 397.8,387.2 398.5,388.8 398.5,390.3 398.5,391.8 397.9,392.7 397.5,395.6 395.1,397.2 
	394.8,398.4 394.1,399.3 394.2,400.6 392.8,402.6 393.2,403.2 392.2,405.9 389.5,405.6 388.9,407.2 388.2,408.4 388.2,408.8 
	389.9,408.4 391.5,407.6 393.5,408.3 395.4,405.1 395.9,402.2 397.6,400.5 398,401 398,403.8 398.6,405.4 398.1,405.6 398.3,408.3 
	397,410.6 394.9,411.5 395.2,412.3 396.6,412.1 398.1,412.2 398.7,411.5 399.7,411.2 401,410.3 401.9,410.5 402.7,410.4 
	402.1,411.4 401.5,412.4 400.5,412.3 400.2,412.9 401.2,414.4 401.6,415.6 402.4,417.5 402.5,419.6 402.2,422.3 400.8,423.8 
	401.1,424.5 400.9,426.5 401.9,427.4 402.7,428.9 403,430.8 405,433.5 406.6,433.9 407.7,434.7 408.2,436.1 409.4,436.2 
	409.6,435.7 410.4,435.4 411.9,435.9 413.1,437.4 414.4,437.5 415.8,438.8 416,440 417.1,440.4 418.3,441.8 419.2,441.8 419.6,441 
	421.8,440 422.5,439 423.9,438.9 425.3,437.5 426.4,437.7 426.9,437.1 426.6,436.5 425.3,436.2 425.7,435.4 428,433.9 429.9,435.2 
	429.8,436.5 427.5,437.8 428.1,438.8 428.8,439 429.6,438.1 430.6,437.4 431.7,438.1 431.6,439.2 430.9,439.2 430,440.1 
	431.5,441.8 431.8,443.8 432.4,443.5 433.2,443.5 433.3,444.7 434.1,445.9 434.9,444.5 434.8,442.9 433.9,443.6 433.7,443 
	434.4,442.2 437.2,442.3 437.6,442.8 438,442.2 439.4,440.2 442.4,438.5 444,437 443.2,437 442.5,437.4 442.8,437 441.8,436.7 
	442.8,436.6 444.3,436.6 446.5,435.9 450.9,435.1 454.5,435.8 456,434.9 456,433.9 457,433.9 458.1,433.2 459.1,431.1 458.7,428.9 
	458.6,427.7 460.6,425.7 460.6,422.3 461.5,421 461.9,418.7 463,418.2 463,417.1 466.4,412.7 467.4,412.5 468,410.2 469.4,408.3 
	470.3,405.9 471.7,404.5 471.5,403.2 472.5,402.7 473.4,400.5 472.7,399.8 474.5,399 475.7,397.2 476.4,396.4 477.3,394.5 479,394 
	480,393.5 478.3,393.5 478.7,392.9 480.8,392.8 482.6,391.5 483,390.2 482.7,389.5 483,388.3 484.9,386.8 484.9,385.6 486.2,385.1 
	487.5,383 487.3,381.9 488,380.1 487.5,379.6 487.7,378.7 489.3,374.9 489.7,372.9 491.8,369.2 491.7,367.8 492.8,365.1 
	494.3,363.8 494.9,362.2 494.5,360.5 495.4,359.3 "/>
<polygon class="st0" points="430.6,439.1 430.2,438.5 429.6,438.8 430.3,439.4 "/>
<polygon class="st0" points="440,456.8 439.4,457.2 439.7,457.9 441.5,458 442.3,458.4 442.5,457.7 441.3,456.6 "/>
<polygon class="st0" points="424.6,280.3 425.2,280 425.1,279.4 424.3,279.8 "/>
<polygon class="st0" points="411.8,270.9 411.1,270.1 410.7,271 411.2,271.8 "/>
<path class="st0" d="M426.1,276.1l-1.5-0.4l-1.4,0.8c0,0-0.3,0.8-0.2,0.8l0.5,0.5l0.7-0.2l0.7-0.9l1.3-0.2L426.1,276.1z"/>
<polygon class="st0" points="420.9,455.9 420.5,456.8 421.3,457.2 421.7,456.5 421.6,455.5 "/>
<polygon class="st0" points="421.9,458.9 422.6,459.1 423.2,458.5 422.4,457.8 421.7,458 "/>
<polygon class="st0" points="436.4,442.6 435.4,442.7 436,443.1 "/>
<polygon class="st0" points="422.8,455.6 422.2,455.9 422.2,456.7 422.9,456.7 "/>
<path class="st0" d="M438.4,461.1l-0.7,1l-0.3-0.2l-0.7,0l-0.8,0.6l-0.6,0.4l-3.4-0.2l-0.7,0.5l0,1l-0.9-0.8l-1.1,0l-0.7,0.6
	l-1.1-0.8l-1.6-1.4l-2-1.1l0-1.7l-0.5,0.6l-0.2,0.6l-0.9-0.7l-1.1-0.5l-1.1-0.8l-0.4,0.5l-0.1,1.3l-0.3,0.3v1.2l0.3,2.3l-0.3,1.5
	l0.1,2.5l0.3,2l-0.3,1.6l0.5,0.3l0,0.7l1,1l-1.2-0.1l-1-1.1l-0.5,1.1l0.1,2l0.8,0.7l-0.3,0.6l0,3.2l0.6,0.5l-0.3,0.5l0.3,1.5
	l1.1,0.4l-0.7,0.7v1.2c0.1,0,0.5,0.2,0.5,0.2l1-0.2l0.8,0.8l0.9-1.2v1l0.6,1h0.9l1.1-1.6l0.1-1l0.5-1.9l0.8,0.7l0.3-0.6l1-0.8
	l0.4-1.2v1.2l0.7,0.3l0.6-1l1-0.2l0.6,0.6l-0.2,1l-1.2-0.5l0.1,1.7l1-0.5l0.5,0.2l1.3-1.9v-0.7l-0.9-0.6l0.8-1l0-1.3h0.9l0.5-0.5
	l0.1-2.5l0.7-0.5l0.6-1.1l0.3,1.7l0.2,0.8l0.6-1.3l0-1l0.3-0.5l-0.3-1.4l0.8-1.2l0.1-2.1l1-1.2l0.5-3l0.4-1l-1.3-1H438.4z"/>
<polygon class="st0" points="427.7,482.6 427.7,483.6 426.9,484.9 427.6,485.3 428,483.7 428.5,482.9 428.3,482.3 "/>
<polygon class="st0" points="419.5,452.1 420.3,450.9 419.9,450.1 420.2,448.4 419.5,447.8 418.8,448.3 418,449.3 418.2,450.3 
	417.4,451.3 417.7,452.2 417.6,453.1 418.4,453.4 419.3,452.7 "/>
<polygon class="st0" points="434.2,478.5 434.9,478.2 434.2,477.6 "/>
<polygon class="st0" points="484.4,315.5 484.2,314.8 483.8,315.3 "/>
<polygon class="st0" points="439.8,452.4 440.1,453.4 439.7,454.4 440.1,455.1 440.5,455.9 442.5,455 442.5,454 440.6,452.1 "/>
<polygon class="st0" points="486.6,323.7 486.1,323.3 485.8,323.6 486.9,325.1 487.5,326.1 487.7,325.1 487.3,324.5 487.3,323.8 "/>
<polygon class="st0" points="440.5,459.9 440.7,459 439.9,459.3 "/>
<polygon class="st0" points="463,290.7 463.5,289.6 463.3,287.7 462.9,287.9 462,288.1 462.8,289.1 462.4,290 "/>
<polygon class="st0" points="263.8,334.6 264.5,336.9 265,335.2 264.4,333.3 "/>
<polygon class="st0" points="281.8,302.6 282.4,301.8 282.5,300.5 281.5,302 "/>
<polygon class="st0" points="393.5,413.5 392.4,413.4 392.8,413 392.1,413 391.9,412.4 392.1,411.5 391.2,411.8 390.2,411.7 
	387.1,412.5 385.7,413.2 385.7,413.9 386.5,414.5 387.8,414.5 388.2,414.4 389.2,414.6 389.9,414.3 390.4,414.9 390.9,414.9 
	391.1,414.5 391.7,414.5 392.1,414 394.1,414.3 394.9,413.6 394.1,413.2 "/>
<path class="st0" d="M265.2,331.5l-0.1-1.6l-0.5,2.5C264.6,332.4,265.2,331.5,265.2,331.5z"/>
<path class="st0" d="M337.7,267.6l0.4,0.6l0.9-0.2l-0.8-1C338.2,266.9,337.6,267.6,337.7,267.6z"/>
<polygon class="st0" points="337.9,271.5 337.8,270.3 337.3,269.4 337.3,271.1 "/>
</svg>
