<?xml version="1.0" encoding="UTF-8"?>
<svg width="158px" height="44px" viewBox="0 0 158 44" version="1.1" xmlns="http://www.w3.org/2000/svg" xmlns:xlink="http://www.w3.org/1999/xlink">
    <!-- Generator: Sketch 41.2 (35397) - http://www.bohemiancoding.com/sketch -->
    <title>pers</title>
    <desc>Created with Sketch.</desc>
    <defs></defs>
    <g id="Page-1" stroke="none" stroke-width="1" fill="none" fill-rule="evenodd">
        <g id="pers" transform="translate(0.000000, -1.000000)">
            <polygon id="Fill-1" fill="#EC008B" points="0 44.0332 157.384 44.0332 157.384 0.9992 0 0.9992"></polygon>
            <text id="Personal-Care" font-family="UnileverDINOffcPro-Bold, Unilever DIN Offc Pro" font-size="12.91" font-weight="bold" letter-spacing="-0.128768" fill="#FFFFFF">
                <tspan x="45" y="27">P</tspan>
                <tspan x="52.849612" y="27">e</tspan>
                <tspan x="59.924292" y="27">r</tspan>
                <tspan x="65.540474" y="27">sonal Ca</tspan>
                <tspan x="115.398894" y="27" letter-spacing="-0.386304">r</tspan>
                <tspan x="120.49934" y="27">e</tspan>
            </text>
            <g id="Group-26" transform="translate(8.000000, 10.033200)">
                <path d="M4.9264,0.9573 L3.4684,0.9573 C2.4864,0.9573 1.6904,1.7533 1.6904,2.7343 L1.6904,6.2433 L6.7034,6.2433 L6.7034,2.7343 C6.7034,1.7533 5.9084,0.9573 4.9264,0.9573" id="Fill-2" fill="#00A99D"></path>
                <path d="M6.629,23.981 L1.765,23.981 C0.868,23.981 0.135,23.247 0.135,22.35 L0.135,7.846 C0.135,6.949 0.868,6.215 1.765,6.215 L6.629,6.215 C7.526,6.215 8.26,6.949 8.26,7.846 L8.26,22.35 C8.26,23.247 7.526,23.981 6.629,23.981" id="Fill-4" fill="#FFFFFF"></path>
                <path d="M6.7448,11.8742 C6.7448,13.7782 5.6038,15.3222 4.1968,15.3222 C2.7898,15.3222 1.6498,13.7782 1.6498,11.8742 C1.6498,9.9702 2.7898,8.4262 4.1968,8.4262 C5.6038,8.4262 6.7448,9.9702 6.7448,11.8742" id="Fill-6" fill="#00A99D"></path>
                <path d="M12.0935,24.0094 L16.7795,24.0094 C17.3485,24.0094 17.8105,23.5484 17.8105,22.9794 L17.8105,20.0374 L11.0635,20.0374 L11.0635,22.9794 C11.0635,23.5484 11.5245,24.0094 12.0935,24.0094" id="Fill-8" fill="#00A99D"></path>
                <path d="M14.932,5.5925 L13.942,5.5925 L8.881,5.5925 C8.881,5.5925 9.141,13.4785 10.956,20.2385 L13.942,20.2385 L14.932,20.2385 L17.918,20.2385 C19.733,13.4785 19.992,5.5925 19.992,5.5925 L14.932,5.5925 Z" id="Fill-10" fill="#FFFFFF"></path>
                <path d="M19.2211,2.5556 L9.6521,2.5556 C9.2431,2.5556 8.9121,2.8876 8.9121,3.2966 L8.9121,5.6476 L19.9621,5.6476 L19.9621,3.2966 C19.9621,2.8876 19.6301,2.5556 19.2211,2.5556" id="Fill-12" fill="#00A99D"></path>
                <path d="M10.618,8.0271 L10.443,8.0271 C10.151,8.0271 9.911,7.7881 9.911,7.4951 L9.911,3.5511 C9.911,3.2591 10.151,3.0191 10.443,3.0191 L10.618,3.0191 C10.91,3.0191 11.15,3.2591 11.15,3.5511 L11.15,7.4951 C11.15,7.7881 10.91,8.0271 10.618,8.0271" id="Fill-14" fill="#FFFFFF"></path>
                <path d="M12.571,8.0271 L12.396,8.0271 C12.104,8.0271 11.864,7.7881 11.864,7.4951 L11.864,3.5511 C11.864,3.2591 12.104,3.0191 12.396,3.0191 L12.571,3.0191 C12.863,3.0191 13.103,3.2591 13.103,3.5511 L13.103,7.4951 C13.103,7.7881 12.863,8.0271 12.571,8.0271" id="Fill-16" fill="#FFFFFF"></path>
                <path d="M14.5241,8.0271 L14.3491,8.0271 C14.0571,8.0271 13.8171,7.7881 13.8171,7.4951 L13.8171,3.5511 C13.8171,3.2591 14.0571,3.0191 14.3491,3.0191 L14.5241,3.0191 C14.8161,3.0191 15.0561,3.2591 15.0561,3.5511 L15.0561,7.4951 C15.0561,7.7881 14.8161,8.0271 14.5241,8.0271" id="Fill-18" fill="#FFFFFF"></path>
                <path d="M16.4771,8.0271 L16.3021,8.0271 C16.0101,8.0271 15.7701,7.7881 15.7701,7.4951 L15.7701,3.5511 C15.7701,3.2591 16.0101,3.0191 16.3021,3.0191 L16.4771,3.0191 C16.7691,3.0191 17.0091,3.2591 17.0091,3.5511 L17.0091,7.4951 C17.0091,7.7881 16.7691,8.0271 16.4771,8.0271" id="Fill-20" fill="#FFFFFF"></path>
                <path d="M18.4302,8.0271 L18.2552,8.0271 C17.9632,8.0271 17.7232,7.7881 17.7232,7.4951 L17.7232,3.5511 C17.7232,3.2591 17.9632,3.0191 18.2552,3.0191 L18.4302,3.0191 C18.7222,3.0191 18.9622,3.2591 18.9622,3.5511 L18.9622,7.4951 C18.9622,7.7881 18.7222,8.0271 18.4302,8.0271" id="Fill-22" fill="#FFFFFF"></path>
                <path d="M16.9843,15.069 C16.9843,16.973 15.8433,18.517 14.4363,18.517 C13.0293,18.517 11.8893,16.973 11.8893,15.069 C11.8893,13.165 13.0293,11.621 14.4363,11.621 C15.8433,11.621 16.9843,13.165 16.9843,15.069" id="Fill-24" fill="#00A99D"></path>
            </g>
        </g>
    </g>
</svg>