<?xml version="1.0" encoding="UTF-8"?>
<svg width="158px" height="44px" viewBox="0 0 158 44" version="1.1" xmlns="http://www.w3.org/2000/svg" xmlns:xlink="http://www.w3.org/1999/xlink">
    <!-- Generator: Sketch 41.2 (35397) - http://www.bohemiancoding.com/sketch -->
    <title>tech</title>
    <desc>Created with Sketch.</desc>
    <defs>
        <polygon id="path-1" points="0 44 157.384 44 157.384 0.967 0 0.967"></polygon>
    </defs>
    <g id="Page-1" stroke="none" stroke-width="1" fill="none" fill-rule="evenodd">
        <g id="tech" transform="translate(0.000000, -1.000000)">
            <polygon id="Fill-1" fill="#009345" points="0 44.0332 157.384 44.0332 157.384 0.9992 0 0.9992"></polygon>
            <text id="Tech-&amp;-Innovation" font-family="UnileverDINOffcPro-Bold, Unilever DIN Offc Pro" font-size="12.91" font-weight="bold" letter-spacing="-1.030144" fill="#FFFFFF">
                <tspan x="45.0098" y="26.5244216">T</tspan>
                <tspan x="50.318466" y="26.5244216">ech &amp; Inn</tspan>
                <tspan x="105.018136" y="26.5244216" letter-spacing="-0.13005568">o</tspan>
                <tspan x="111.76911" y="26.5244216" letter-spacing="-0.06309632">v</tspan>
                <tspan x="118.006094" y="26.5244216">ation</tspan>
            </text>
            <g id="Group-28" transform="translate(0.000000, 0.033200)">
                <path d="M35.769,22.4834 C35.769,12.5804 27.762,4.5524 17.884,4.5524 C8.007,4.5524 0,12.5804 0,22.4834 C0,32.3864 8.007,40.4144 17.884,40.4144 C27.762,40.4144 35.769,32.3864 35.769,22.4834 Z" id="Fill-2" fill="#009345"></path>
                <path d="M18.1168,8.6306 C18.5308,8.6766 18.9438,8.7256 19.3578,8.7686 C20.5658,8.8936 21.7358,9.1686 22.8498,9.6586 C23.7378,10.0486 24.5348,10.5866 25.2428,11.2536 C26.2168,12.1706 27.0538,13.1976 27.6908,14.3776 C28.3808,15.6546 28.7968,17.0106 28.7658,18.4766 C28.7448,19.5246 28.4118,20.4876 27.9318,21.4106 C27.3588,22.5116 26.6798,23.5426 25.9668,24.5556 C25.1828,25.6696 24.6608,26.8936 24.6358,28.2766 C24.6268,28.7706 24.7508,29.2666 24.8148,29.7626 C24.8238,29.8286 24.8428,29.8926 24.8528,29.9386 C24.4508,30.0986 24.0628,30.2476 23.6798,30.4066 C22.8878,30.7366 22.2008,31.2336 21.5418,31.7726 C20.3108,32.7796 19.2978,33.9906 18.3588,35.2626 C17.9618,35.7996 17.6178,36.3736 17.2498,36.9316 C17.2008,37.0056 17.1528,37.0806 17.0878,37.1816 C16.9998,36.9356 16.9408,36.7156 16.8458,36.5136 C16.2478,35.2426 15.6298,33.9816 15.0428,32.7056 C14.7678,32.1096 14.3138,31.7716 13.6928,31.6846 C13.2928,31.6286 12.8768,31.6356 12.4728,31.6706 C11.6948,31.7386 10.9208,31.8876 10.1378,31.7736 C9.8488,31.7316 9.5588,31.6586 9.2848,31.5566 C8.8998,31.4136 8.6938,31.1106 8.6938,30.6966 C8.6938,30.3776 8.6948,30.0536 8.7498,29.7426 C8.8168,29.3616 8.7408,29.0386 8.5218,28.7316 C8.4118,28.5776 8.3158,28.4126 8.2328,28.2436 C8.1218,28.0196 8.1178,27.7906 8.2448,27.5656 C8.3398,27.3956 8.2948,27.2896 8.1088,27.2146 C7.7758,27.0806 7.6968,26.9446 7.7048,26.5886 C7.7118,26.2766 7.7198,25.9646 7.7288,25.6536 C7.7408,25.2416 7.6348,25.1276 7.2358,25.0716 C7.0588,25.0466 6.8768,24.9996 6.7158,24.9216 C6.3328,24.7376 6.1788,24.3496 6.3548,23.9666 C6.6738,23.2706 7.0248,22.5886 7.3518,21.8956 C7.5578,21.4586 7.7708,21.0216 7.9278,20.5666 C8.0448,20.2276 7.9478,19.8736 7.8218,19.5406 C7.8028,19.4906 7.7858,19.4396 7.7598,19.3936 C7.1758,18.3716 7.2708,17.2666 7.3868,16.1666 C7.5078,15.0126 7.9028,13.9426 8.5558,12.9896 C8.9398,12.4296 9.3878,11.9056 9.8608,11.4176 C10.8838,10.3636 12.1258,9.6436 13.5148,9.1866 C14.3378,8.9156 15.1878,8.7536 16.0518,8.6776 C16.1338,8.6706 16.2138,8.6466 16.2948,8.6306 L18.1168,8.6306 Z" id="Fill-4" fill="#DAB873"></path>
                <path d="M25.8434,29.7535 C26.0944,29.6985 27.3464,29.9675 27.3464,29.9675 C27.3464,29.9675 25.9374,37.0285 16.9844,38.2945 C16.9844,38.2945 17.4204,34.2715 24.4844,30.3265 C24.4844,30.3265 25.5924,29.8095 25.8434,29.7535 Z" id="Fill-6" fill="#000000"></path>
                <path d="M25.8433,29.754 L25.0483,27.932 C25.0483,27.932 19.3693,31.007 15.9613,36.7 L16.9843,38.295 C16.9843,38.295 23.4583,33.284 25.8433,29.754" id="Fill-8" fill="#FFFFFF"></path>
                <path d="M25.192,17.599 C25.192,13.786 22.109,10.695 18.305,10.695 C14.502,10.695 11.419,13.786 11.419,17.599 C11.419,21.412 14.502,24.503 18.305,24.503 C22.109,24.503 25.192,21.412 25.192,17.599" id="Fill-10" fill="#65C8D0"></path>
                <path d="M22.013,15.9909 C22.013,14.9449 21.662,13.9979 20.978,13.3119 C20.294,12.6259 19.349,12.2019 18.305,12.2019 C17.262,12.2019 16.317,12.6259 15.633,13.3119 C14.949,13.9979 14.598,14.9449 14.598,15.9909 C14.598,17.0369 15.618,18.4329 16.351,19.4529 C17.044,20.4169 17.262,22.2049 18.305,22.2049 C19.349,22.2049 19.56,20.4119 20.26,19.4529 C20.993,18.4489 22.013,17.0369 22.013,15.9909" id="Fill-12" fill="#F69B00"></path>
                <path d="M21.5471,15.8057 C21.5471,14.0107 20.0961,12.5557 18.3051,12.5557 C16.5151,12.5557 15.0641,14.0107 15.0641,15.8057 C15.0641,17.6007 16.5151,19.0557 18.3051,19.0557 C20.0961,19.0557 21.5471,17.6007 21.5471,15.8057" id="Fill-14" fill="#FBCA19"></path>
                <path d="M18.979,20.6216 C18.979,20.6216 19.752,17.3546 20.255,16.0756" id="Stroke-16" stroke="#04689A" stroke-width="0.437" stroke-linecap="round" stroke-linejoin="round"></path>
                <path d="M17.7529,20.6216 C17.7529,20.6216 16.9799,17.3546 16.4769,16.0756" id="Stroke-18" stroke="#04689A" stroke-width="0.437" stroke-linecap="round" stroke-linejoin="round"></path>
                <polyline id="Stroke-20" stroke="#A22572" stroke-width="0.135" stroke-linecap="round" stroke-linejoin="round" points="16.3727 15.9723 17.0727 16.3063 17.1727 15.5423 17.7037 16.1023 17.9937 15.3853 18.4077 16.0413 18.8187 15.3853 19.1077 16.1013 19.6477 15.5443 19.7457 16.3073 20.4437 15.9723"></polyline>
                <mask id="mask-2" fill="white">
                    <use xlink:href="#path-1"></use>
                </mask>
                <g id="Clip-23"></g>
                <polygon id="Fill-22" fill="#666666" mask="url(#mask-2)" points="16.747 22.707 19.897 22.707 19.897 20.118 16.747 20.118"></polygon>
                <path d="M19.0949,22.6423 C19.0949,22.2243 18.7569,21.8843 18.3389,21.8843 C17.9219,21.8843 17.5829,22.2243 17.5829,22.6423 C17.5829,23.0613 17.9219,23.4003 18.3389,23.4003 C18.7569,23.4003 19.0949,23.0613 19.0949,22.6423" id="Fill-24" fill="#666666" mask="url(#mask-2)"></path>
                <polygon id="Fill-25" fill="#999999" mask="url(#mask-2)" points="18.186 20.908 19.897 20.908 19.897 20.302 18.186 20.302"></polygon>
                <polygon id="Fill-26" fill="#999999" mask="url(#mask-2)" points="18.186 21.716 19.897 21.716 19.897 21.11 18.186 21.11"></polygon>
                <polygon id="Fill-27" fill="#999999" mask="url(#mask-2)" points="18.186 22.524 19.897 22.524 19.897 21.918 18.186 21.918"></polygon>
            </g>
        </g>
    </g>
</svg>